<?xml version="1.0" standalone="no"?>
<!DOCTYPE svg PUBLIC "-//W3C//DTD SVG 1.1//EN" "http://www.w3.org/Graphics/SVG/1.1/DTD/svg11.dtd" >
<svg xmlns="http://www.w3.org/2000/svg" xmlns:xlink="http://www.w3.org/1999/xlink" version="1.1">
<metadata></metadata>
<defs>
<font id="brunregular" horiz-adv-x="1236" >
<font-face units-per-em="2048" ascent="1659" descent="-389" />
<missing-glyph horiz-adv-x="624" />
<glyph horiz-adv-x="0" />
<glyph unicode="&#xd;" horiz-adv-x="624" />
<glyph unicode=" "  horiz-adv-x="624" />
<glyph unicode="&#x09;" horiz-adv-x="624" />
<glyph unicode="&#xa0;" horiz-adv-x="624" />
<glyph unicode="!" horiz-adv-x="593" d="M104 -42.5q-2 36.5 21 67.5q23 29 61.5 29.5t67.5 -23.5q27 -23 29 -59.5t-21 -65.5t-60.5 -32t-68.5 24q-27 23 -29 59.5zM226 258q1 39 3 76t2 49q6 135 17.5 269t22 256t13.5 224.5t-5 174.5q-12 10 -20.5 36.5t7.5 47.5q12 18 32.5 29.5t41 12.5t40.5 -7t32 -31 q16 -29 8 -50.5t-21 -41.5q6 -53 7.5 -132t-3 -168.5t-11.5 -183.5t-16 -179t-20.5 -154.5t-23.5 -108.5q-35 -115 -55.5 -163t-32 -51t-15.5 26.5t-3 68.5z" />
<glyph unicode="&#x22;" horiz-adv-x="747" d="M131 1294q0 37 23.5 54.5t53.5 17.5t56.5 -17.5t30.5 -52.5q10 -82 1 -171t-50 -189q-10 -25 -28.5 -38t-36 -13t-27 14t1.5 47q14 59 12 103.5t-10 83t-17.5 76.5t-9.5 85zM441 1161q-1 41 0 80t5 84q4 35 34 47t61.5 7t55 -27.5t15.5 -55.5q-12 -45 -22 -83.5 t-19.5 -78.5t-16.5 -83t-13 -95q-2 -23 -16.5 -38t-30 -17t-28.5 11.5t-15 48.5q-4 63 -6.5 111t-3.5 89z" />
<glyph unicode="#" horiz-adv-x="1460" d="M182 338.5q0 23.5 15.5 45.5t44.5 34q27 10 46 -6.5t27 -16.5q12 0 36 -3t52.5 -6t59.5 -6t57 -3q0 74 3 143.5t3 134.5q-27 0 -57.5 4.5t-58 8.5t-48 7t-26.5 3q-8 0 -27.5 -10.5t-50.5 2.5q-25 8 -38 28.5t-13 43t13 44t42 33.5q27 10 47.5 -3t26.5 -13q10 0 32.5 -3 t50 -7.5t56.5 -8.5t51 -4q0 86 4.5 145.5t4.5 80.5q0 8 -11.5 27.5t-1.5 49.5q10 25 33 36t47.5 9t45 -15t26.5 -34q6 -23 -5.5 -45t-11.5 -28q0 -35 -3 -97.5t-3 -136.5q39 0 64.5 -1t49 -1t51.5 -1t73 -1q0 74 2 131t2 76q0 10 -11.5 28.5t-0.5 49.5q10 27 32.5 37t47 8 t45 -15.5t26.5 -33.5q6 -23 -5 -44.5t-11 -29.5q0 -29 -4 -81t-4 -116q57 0 91 3.5t79 9.5q96 12 142 10t56 -13.5t-8 -30t-51 -35.5t-72 -32.5t-69 -19.5q-47 -8 -81 -12.5t-89 -4.5q0 -66 1 -139.5t1 -144.5q51 0 78.5 5t68.5 9q84 8 122 4t45 -16.5t-10.5 -29.5 t-46 -33.5t-60 -30t-52.5 -17.5q-23 -4 -39 -8t-31.5 -6t-34 -3t-42.5 -1v-133q0 -12 -5.5 -40t-15.5 -54.5t-21.5 -46t-25.5 -15.5t-27.5 39t-25.5 117q-4 23 -5 37t-1 26v28.5v41.5q-47 0 -75 1t-51.5 3t-48 3t-63.5 1q0 -51 -1 -99.5t-1 -89.5q0 -12 -6 -40.5t-16.5 -56 t-23.5 -47t-26.5 -15.5t-27 41t-23.5 120q-4 43 -1 92.5t3 96.5q-29 0 -62.5 4t-62 8t-50 7t-28.5 3q-10 0 -30.5 -9t-51.5 1q-27 8 -39 28.5t-12 44zM645 377q39 0 64.5 -3t48 -6t49.5 -6.5t72 -3.5q0 74 -2.5 149t-2.5 138h-225q0 -66 -2 -132.5t-2 -135.5z" />
<glyph unicode="$" horiz-adv-x="1032" d="M47 678q16 92 46 152.5t69 100.5t86 61.5t96 35.5q0 10 -1 17.5t-1 17.5t-13.5 29.5t-2.5 50.5q8 25 29.5 38t44 13t45 -14.5t34.5 -42.5q12 -29 4 -43.5t-12 -30.5l-6 -31q31 -4 62.5 -1t60.5 -1q-8 10 -9 23.5t9 31.5q12 25 33.5 38.5t45 13.5t45 -14.5t33.5 -41.5 q10 -25 -2 -45t-22 -37q59 -29 95 -68.5t58 -103.5q0 -4 7.5 -12t16.5 -18.5t15.5 -23.5t4.5 -28q-6 -35 -40 -54t-65 -3q-25 14 -29 46t0 44q-12 16 -27.5 36t-35.5 36q-2 -35 -5 -65.5t-8.5 -64.5t-11.5 -75t-12 -94q82 4 146.5 -25.5t93.5 -119.5q8 -61 -3.5 -126 t-49 -123.5t-102 -107.5t-161.5 -82q-8 -43 -10 -65.5t-14 -55.5q-29 -74 -48.5 -90t-30.5 -2.5t-15.5 44t-4.5 50.5q0 16 3.5 39t5.5 52q-37 -8 -76 -14.5t-80 -8.5q-4 -8 -7 -43t-16 -63q-12 -33 -29.5 -71t-32.5 -53.5t-26.5 9t-11.5 117.5q0 31 7 64.5t9 41.5 q-18 4 -41.5 7t-44 9.5t-37 17.5t-20.5 34q-8 43 17.5 80.5t68.5 37.5q23 0 45.5 -15t26.5 -21q10 66 18 147.5t19 173.5q-47 -4 -93.5 11.5t-82 50t-54 91t-6.5 136.5zM160 649q0 -53 26.5 -83.5t112.5 -53.5q6 66 13 119t13.5 99t10.5 89t4 88q-29 -10 -53.5 -26.5 t-47 -45t-42 -73.5t-37.5 -113zM352 29q43 8 81 15t73 17q10 72 19.5 161t21.5 181q-37 -10 -75 -17t-71 -9q-10 -98 -23 -188.5t-26 -159.5zM414 516q33 2 68.5 5t74.5 14q8 68 16.5 117.5t14.5 92.5t10 82t6 82q-37 6 -76 6h-67q0 -49 -5 -90t-11.5 -86t-14.5 -98 t-16 -125zM631 106q61 31 99 66t57.5 72t22.5 72.5t-5 66.5q0 43 -38 48t-91 -1q-10 -88 -22.5 -170t-22.5 -154z" />
<glyph unicode="%" horiz-adv-x="1048" d="M94 677q0 36 15 66q16 33 43.5 53.5t61.5 29t69.5 5t66.5 -17.5q33 -16 56.5 -44t37 -60.5t12 -68.5t-17.5 -69t-44.5 -53t-61.5 -28.5t-69 -5.5t-66 18q-33 16 -55.5 43.5t-35 61.5t-12.5 70zM131 37q2 20 12.5 32.5t22.5 19.5t22.5 11t12.5 9q76 113 159.5 234.5 t161.5 229t145.5 192.5t110.5 126q2 2 5 13t8.5 22.5t12.5 21.5t19 15q51 16 85 -10.5t34 -65.5q0 -20 -10 -33.5t-22.5 -23t-24 -14.5t-13.5 -9q-31 -31 -95 -115t-144 -194.5t-168 -233.5t-164 -229q-4 -6 -6 -19.5t-6 -27t-14.5 -25.5t-30.5 -18q-25 -8 -47.5 0t-38 23.5 t-22.5 35t-5 33.5zM219 690q-8 -16 2 -44t29 -34q18 -8 41 -6.5t35 17.5q14 20 1.5 45.5t-30.5 33.5q-16 8 -43 7.5t-35 -19.5zM576.5 114.5q-21.5 67.5 7.5 131.5q16 33 43.5 56.5t61.5 36.5t71 14t67 -13q66 -33 86.5 -102t-8.5 -132q-16 -33 -43.5 -56t-61.5 -36.5 t-70 -13.5t-66 14q-66 33 -87.5 100.5zM691 154q7 -21 26 -29q8 -4 20.5 -3t23.5 7t20.5 14.5t13.5 16.5q8 18 3 38.5t-24 30.5q-23 12 -47.5 -3t-32.5 -33q-10 -18 -3 -39z" />
<glyph unicode="&#x26;" horiz-adv-x="1169" d="M48 578.5q-11 52.5 0 99.5t39 87t60.5 71.5t64.5 54t54 35.5q53 31 128 38t141.5 -26t108.5 -115t30 -231q-4 -25 -6 -51.5t-11 -53.5q45 8 80 15.5t69 15.5t69.5 20.5t85.5 30.5q4 2 11 11.5t18 18.5t25.5 15.5t35.5 -0.5q27 -6 42 -22.5t21 -36.5t3 -42t-15 -36 q-12 -16 -27.5 -21t-30 -5t-25.5 2t-15 0q-57 -18 -100.5 -34t-84.5 -27t-86 -21.5t-102 -18.5q-25 -104 -43.5 -196.5t-48.5 -159.5q2 -14 3 -45t-28 -62q-12 -14 -34.5 -21t-45 -4t-41 19.5t-22.5 46.5q-4 25 2 39.5t15 23.5t17.5 13t8.5 8q23 51 44 144.5t44 189.5 q-129 -14 -236.5 17.5t-163.5 103.5q-43 57 -54 109.5zM172 640q-6 -42 33 -85q92 -106 323 -74q17 52 25 107q12 74 -4.5 128t-50 84.5t-80.5 35t-99 -20.5q-18 -10 -53 -35.5t-61.5 -61.5t-32.5 -78z" />
<glyph unicode="'" horiz-adv-x="311" d="M59 1307q-2 45 22.5 64.5t55.5 16t58.5 -23.5t31.5 -55q10 -84 -4 -173t-43 -188q-10 -29 -31.5 -48t-40 -22.5t-27.5 16t7 67.5q20 55 18 99t-12 84t-22.5 79t-12.5 84z" />
<glyph unicode="(" horiz-adv-x="501" d="M63.5 545q-4.5 121 15 235.5t65.5 216t124 170.5q6 4 9.5 13.5t8.5 20.5t12 20.5t24 13.5q51 12 82.5 -20.5t31.5 -71.5q0 -23 -10 -34t-22.5 -17.5t-24.5 -9.5t-14 -5q-37 -31 -72 -91t-59.5 -143t-34 -184.5t5 -211t58.5 -223t126 -224.5q10 -4 24.5 -18.5t12.5 -38.5 q-4 -45 -36 -73t-93 -9q-27 8 -38 24.5t-15 35t-2 34.5t4 25q-51 51 -91 139t-63.5 196.5t-28 229.5z" />
<glyph unicode=")" horiz-adv-x="501" d="M57 -12q10 41 38 50t36 13q35 31 71 91.5t60.5 144.5t34.5 184t-4 208.5t-56 222.5t-122 222q-8 4 -17.5 14.5t-16.5 25t-8 30.5t9 35q16 29 53 34t74 -18q35 -20 39 -49t0 -43q51 -51 92 -140t64.5 -198.5t27.5 -230.5t-16.5 -237t-66.5 -216t-124 -170q-6 -4 -10 -16.5 t-12 -23.5t-23.5 -20.5t-40.5 -6.5q-53 2 -72.5 28.5t-9.5 65.5z" />
<glyph unicode="*" horiz-adv-x="1204" d="M65.5 594q10.5 41 51.5 63q25 14 53.5 3t40.5 -21q35 -4 78 -6t92 -2l-64.5 64.5t-58.5 54.5q-23 4 -42 16t-26 35q-8 33 0.5 54.5t23.5 34.5t33.5 17t31.5 2q39 -8 48 -29.5t13 -41.5q27 -25 65.5 -61t83.5 -81q-2 66 -6 121t-10 101q-10 10 -15 34.5t5 46.5 q8 18 26.5 27.5t38 10.5t39 -6t29.5 -21q23 -29 14.5 -48.5t-16.5 -35.5q0 -41 9 -95.5t13 -119.5q53 55 101.5 104t81.5 94q2 23 7 41.5t34 28.5q27 8 49 3t36.5 -18.5t21.5 -31t5 -31.5q-4 -39 -23.5 -51t-41.5 -19q-27 -37 -70 -87t-96 -109q35 0 58.5 -1t42 -2t35.5 0 t40 5q72 14 106.5 14t42 -9t-7 -24.5t-38 -32t-52 -30.5t-49.5 -18q-41 -10 -65.5 -15.5t-45 -6.5t-45 -2t-67.5 -1q57 -57 116.5 -114.5t118.5 -110.5q12 -4 37 -15.5t27 -52.5q2 -29 -6 -46t-21.5 -26.5t-29 -12.5t-29.5 -1q-37 4 -47.5 29.5t-14.5 40.5q-53 43 -105 87 t-99 87q2 -72 8 -142.5t12 -136.5q10 -12 18.5 -34.5t-4.5 -51.5q-8 -18 -25.5 -29.5t-37 -12.5t-37.5 5.5t-31 20.5q-18 23 -14 52.5t12 43.5q-10 72 -20 148.5t-15 148.5q-35 -39 -70.5 -78t-70.5 -80q0 -4 -2 -14t-6 -20.5t-13.5 -20.5t-25.5 -16q-29 -8 -49.5 -2 t-33.5 19t-19 30.5t-4 32.5q4 39 27.5 51t37.5 16q37 55 77 104.5t81 96.5q-57 0 -119.5 2t-105.5 6q-12 -14 -44 -19t-53 15q-41 41 -30.5 82z" />
<glyph unicode="+" horiz-adv-x="1071" d="M96 557.5q2 22.5 17.5 41.5t42.5 28q29 8 40 -3.5t21 -2.5q20 -4 51 -6.5t61.5 -4.5t59.5 -2h47q0 76 2 163t-8 147q0 4 -4 9t-8 14t-5 21.5t5 28.5q12 29 32.5 41t43 11t42 -16t27.5 -42q10 -31 0 -45t-12 -20q6 -57 8 -145.5t2 -168.5q53 -2 120 -8t144 -12 q80 -6 114 -15.5t37 -19.5t-16.5 -21.5t-46 -19.5t-52.5 -14.5l-34 -8.5q-84 -14 -146.5 -12t-117.5 2q0 -66 3 -160t12 -178q0 -6 13 -23.5t1 -52.5q-12 -29 -33.5 -41t-44 -10t-42 17.5t-28.5 42.5q-10 29 2.5 44t10.5 25q-14 90 -18.5 182.5t-4.5 157.5q-18 0 -46 1 t-57.5 2t-58 2t-47.5 1q-8 0 -25.5 -10t-52.5 2q-29 12 -41 34t-10 44.5z" />
<glyph unicode="," horiz-adv-x="512" d="M89 -258q-3 18 38 61q45 45 62.5 88t24.5 83t12 79t28 80q18 37 48 43t55.5 -8t40.5 -44t5 -63q-27 -78 -75.5 -152.5t-120.5 -152.5q-14 -16 -43 -26.5t-50.5 -8t-24.5 20.5z" />
<glyph unicode="-" d="M134 560.5q1 23.5 15.5 43t40.5 27.5q29 8 45.5 -4.5t26.5 -8.5q72 -8 164 -11t187.5 0t183.5 11.5t149 24.5q88 23 130 27t51.5 -5.5t-8 -25.5t-46.5 -34.5t-61.5 -36t-57.5 -23.5q-61 -18 -146 -31.5t-179 -20t-188.5 -5.5t-174.5 12q-4 0 -10 -4t-16.5 -9.5 t-22.5 -8.5t-29 3q-29 12 -42 34t-12 45.5z" />
<glyph unicode="." horiz-adv-x="501" d="M125 35q-2 37 20 67q23 29 61 31t66 -24q27 -23 30.5 -59.5t-19.5 -65.5t-61 -32t-68 23q-27 23 -29 60z" />
<glyph unicode="/" horiz-adv-x="935" d="M-119 -227.5q-2 24.5 10 49.5q14 29 31 31t21 6q43 55 110.5 151t145 208t157.5 230.5t151 221t124 178.5t76 104q6 4 12 22.5t39 35.5q31 12 54.5 6t36.5 -23.5t15 -42t-10 -49.5q-16 -29 -34.5 -32t-22.5 -5q-16 -18 -62.5 -87.5t-113 -169t-145.5 -217.5 t-157.5 -231.5t-151.5 -213t-128 -162.5q-4 -6 -6 -14.5t-6 -18.5t-12.5 -19.5t-26.5 -17.5q-29 -12 -52.5 -6t-38 23.5t-16.5 42z" />
<glyph unicode="0" horiz-adv-x="1208" d="M42 568q9 122 65.5 241t154.5 227q43 47 115 81t151.5 50.5t156.5 15.5t130 -22q6 -2 19.5 -6t25.5 -13t20.5 -21.5t6.5 -30.5q-2 -4 -2 -9q90 -49 151.5 -123.5t97 -162.5t48 -182.5t4.5 -183.5t-34 -168t-67 -134q-18 -27 -68 -70t-120 -80.5t-155 -64.5t-176 -21.5 t-184 50.5t-177 147q-94 113 -133 235.5t-30 244.5zM175 517q-1 -99 31 -188t93 -157q68 -76 140.5 -111.5t143 -42t137 12t121 49.5t94.5 67.5t58 69.5q43 84 66.5 183.5t11.5 202t-66.5 204.5t-164.5 192q-18 10 -42 13.5t-47.5 1.5t-42 -6t-24.5 -7q-86 -37 -132 -50 t-62.5 -11t-9.5 16.5t24.5 32t39 34.5t36.5 28q4 4 17 9t24 9q-47 -10 -94.5 -25.5t-87.5 -34t-69.5 -37t-41.5 -32.5q-78 -109 -115 -216.5t-38 -206.5z" />
<glyph unicode="1" horiz-adv-x="575" d="M97.5 851q-25.5 13 0.5 105q10 37 25.5 68t35 58.5t41 56t46.5 63.5q35 55 82 37q45 -6 61 -57q8 -29 -2 -44.5t-6 -25.5q0 -37 6 -120t14.5 -190.5t19.5 -227t21.5 -229t19.5 -197t13 -128.5q2 -8 14 -26t-2 -53q-12 -29 -32.5 -41.5t-43 -10.5t-42 17.5t-27.5 42.5 q-10 29 2 44t10 25q-10 47 -19 122t-17.5 165t-16.5 189.5t-14 193.5t-11.5 179t-9.5 149q-20 -31 -36.5 -59.5t-45.5 -57.5q-61 -61 -86.5 -48z" />
<glyph unicode="2" horiz-adv-x="1245" d="M51 801q0 27 19.5 39t33.5 32q51 70 130 126.5t169.5 96.5t183.5 64.5t176 30.5t146.5 -6.5t94.5 -44.5q29 -63 10 -141t-71 -171.5t-132 -202t-172 -233.5q-35 -45 -58.5 -82t-43 -68.5t-36 -63.5t-32.5 -64q94 35 159.5 56t128 38.5t138.5 37t192 48.5q6 2 12.5 8 t14.5 12t19.5 9.5t25.5 -0.5t30.5 -16.5t26 -30t9 -38t-16.5 -40.5q-16 -18 -29.5 -22.5t-24.5 -4.5t-21.5 3t-18.5 1q-55 -14 -134 -35.5t-165 -46t-173 -51.5t-159 -51q-23 -20 -55.5 -43t-68 -35t-71.5 -7t-65 38q-18 23 -15 40t16.5 32.5t30.5 27.5t28 25q39 51 62.5 91 t44 76.5t42 76.5t57.5 91q86 121 166 226.5t138.5 191.5t84 149.5t3.5 100.5q-18 14 -101.5 6t-190 -42t-214 -94t-174.5 -148q-4 -6 -13.5 -30t-31.5 -34q-16 -6 -35 -3t-34 13.5t-25.5 26.5t-10.5 35z" />
<glyph unicode="3" horiz-adv-x="1138" d="M20.5 930q-8.5 37 14.5 71q16 27 36.5 28t28.5 5q80 59 193 118.5t231.5 96.5t232 40t197.5 -46q51 -29 63.5 -72t-2 -93t-50 -102t-81.5 -102.5t-98.5 -93.5t-97.5 -73q39 10 68.5 16t56.5 8t53.5 -3t57.5 -17q55 -25 97 -68t64.5 -96t20.5 -110.5t-33 -108.5 q-41 -66 -116.5 -136.5t-169 -139t-193.5 -131t-188 -111.5q-10 -6 -14.5 -14.5t-12.5 -15.5t-21.5 -10t-40.5 1q-12 2 -24 12t-19.5 26.5t-8.5 35t9 36.5q8 18 20.5 25.5t23 8.5t18.5 0t12 1q70 31 159 90.5t174 125t152.5 125.5t92.5 95q35 51 45 88t2 67t-34 51.5 t-62 41.5q-31 16 -84.5 14t-111.5 -18t-110.5 -43t-78.5 -59q-25 -18 -46.5 -21.5t-38 4.5t-28.5 22.5t-19 32.5q-8 27 3.5 51.5t32 45t44 36t41.5 23.5q49 25 104.5 66t109 88t97.5 96t67.5 92t23.5 77t-37 50q-49 20 -130 11t-173 -40.5t-186.5 -79t-170.5 -100.5 q-6 -4 -11 -17t-14 -26.5t-25.5 -22t-43.5 -1.5q-63 12 -71.5 49z" />
<glyph unicode="4" horiz-adv-x="1228" d="M39 500q-8 29 24.5 52t79.5 46q123 76 218.5 142.5t175 127t147.5 115.5t135 111q10 8 35 28.5t53.5 40t57 30.5t45.5 3q16 -8 32.5 -34.5t1.5 -61.5q-4 -10 -14 -15.5t-21.5 -10.5t-20.5 -9t-9 -12q-16 -78 -24.5 -203t-14.5 -256q51 2 69.5 5t41.5 1q4 0 13 5t21.5 9 t26.5 5.5t27 -5.5q14 -8 27.5 -24.5t17.5 -35.5t-4 -40t-35 -35q-14 -8 -24.5 -8t-19.5 3t-19.5 6t-24.5 1q-16 2 -38 -2t-79 -6q0 -47 -3 -73.5t-3 -65.5t4 -104.5t18 -190.5q2 -8 14.5 -39t-1.5 -57q-6 -14 -23.5 -26.5t-38 -15.5t-42 5t-36.5 35q-10 14 -10 24t4 19.5 t8.5 19.5t4.5 25q-12 127 -15.5 196.5t-3.5 110.5t2 67.5t2 67.5q-178 -10 -338.5 -22.5t-283.5 -4.5q-25 -4 -51.5 0.5t-49 13.5t-39 20t-20.5 22zM262 553q86 4 160 9t141.5 10.5t130 9.5t127.5 8q4 63 5 107t2 84t5.5 83.5t16.5 102.5q-111 -98 -254 -204t-334 -210z" />
<glyph unicode="5" horiz-adv-x="1038" d="M82 984.5q4 19.5 16.5 34.5t30.5 21q31 10 45 9.5t22.5 -6t14.5 -9.5t22 -2q2 18 6.5 44t18.5 46q8 12 24.5 23.5t35 15.5t37 -5t34.5 -36q14 -20 1 -38.5t-23 -41.5q35 4 65.5 8.5t75.5 7.5t110.5 4t167.5 1q14 0 38 13t50 1q14 -8 27.5 -24.5t18 -36t-4 -40 t-34.5 -34.5q-16 -8 -26.5 -8t-19 3t-17.5 6t-21 1q-119 0 -187.5 1t-114.5 -1t-83 -6t-88 -12q-14 -45 -37 -93.5t-43.5 -102.5t-32.5 -112.5t-6 -126.5q4 -31 12 -44t27.5 -6t55.5 35t95 77q57 47 132 70.5t145.5 30.5t129 0t83.5 -21q39 -20 55 -83t10 -146t-36.5 -175 t-86.5 -170q-45 -63 -125.5 -118.5t-168 -95.5t-164 -62.5t-113.5 -22.5q-33 0 -62.5 26t-41.5 50q2 6 -5.5 11t-16.5 13.5t-14 20.5t-1 31q12 45 38.5 63.5t82.5 -16.5q12 -6 10 -19.5t-4 -26.5t-1 -23.5t19 -12.5q27 -2 86.5 12.5t129 47t139 80.5t118.5 114 q35 47 59.5 106.5t37 116t13.5 101.5t-14 63q-14 18 -62 22.5t-108.5 -8t-122 -39t-104.5 -67.5q-47 -45 -100 -72.5t-102.5 -27.5t-86.5 32.5t-51 110.5q-10 45 -1 101.5t25.5 115.5t37 117.5t34.5 107.5q-18 0 -30.5 -11t-36.5 7q-25 16 -34 38t-5 41.5z" />
<glyph unicode="6" horiz-adv-x="870" d="M48 146q-15 94 2.5 190t54 187t71.5 157q31 61 63.5 119.5t71.5 119t86 126t103 139.5q2 2 5 12t8 22.5t12 23.5t20 18q18 8 39.5 9t39 -8.5t26.5 -29t5 -49.5q-2 -16 -8 -24.5t-14 -13.5t-16.5 -9.5t-14.5 -14.5q-90 -139 -169 -259t-148 -234q-41 -72 -79 -165 t-36 -226q31 39 88 84t128 79.5t148.5 53t145.5 4.5q63 -18 106 -82t51.5 -146t-24.5 -170.5t-121 -160.5q-84 -55 -159.5 -71.5t-144.5 -2.5t-132 55t-121 101q-72 72 -87 166zM233 63q4 -10 5.5 -20t9.5 -16q39 -35 82 -65t89 -41t96 -1t106 55q61 49 81.5 108.5t16.5 113 t-25 91.5t-41 44q-49 10 -100 3t-99 -28.5t-90 -55.5t-73 -79q-4 -2 -1 -25.5t-1 -37.5q-10 -14 -23.5 -27.5t-32.5 -18.5z" />
<glyph unicode="7" horiz-adv-x="1179" d="M27 1001.5q4 20.5 16 38t27 23.5q25 14 51 7t33 -7q72 -25 156.5 -23t180 17.5t196.5 40t208 45.5q6 4 24.5 13t40 15.5t42 4t30.5 -20.5q10 -16 12 -39q2 -18 -8 -43.5t-41 -54.5q-53 -47 -220 -472t-195 -554q-10 -4 -11.5 -11.5t-2.5 -17.5t-4 -22.5t-17 -24.5 q-18 -14 -40 -17t-40.5 4t-32.5 21.5t-18 34.5q-4 14 2 26.5t15 23.5t17.5 20.5t12.5 17.5q47 117 187 481.5t183 477.5q-92 -18 -178 -37t-169 -31t-165.5 -17.5t-168.5 5.5q-12 2 -20.5 -2t-16 -7.5t-17.5 -3.5t-28 11q-29 14 -37 35.5t-4 42z" />
<glyph unicode="8" horiz-adv-x="927" d="M62.5 321.5q-7.5 77.5 8 151.5t58.5 117q18 16 28.5 28.5t26.5 20.5q-31 18 -57.5 42t-36.5 50q-35 76 -20.5 143.5t46 118.5t67.5 85t48 46q29 29 79 51.5t106.5 35t115 12.5t101.5 -17q35 -14 52 -28.5t24.5 -27.5t5.5 -24.5t-4 -19.5q92 -51 109.5 -139t-68.5 -234 q-12 -25 -41 -46t-58 -38q57 -29 105.5 -84t75 -124.5t26.5 -145t-39 -145.5q-39 -74 -118.5 -128.5t-174 -75t-192.5 3t-174 107.5q-39 43 -65.5 115t-34 149.5zM170 420q-8 -47 2 -94t34.5 -95.5t55.5 -93.5q37 -55 100.5 -77.5t131 -11.5t130 56t99.5 125 q27 57 14.5 114.5t-41 105t-63.5 80t-53 42.5q-39 20 -74 22.5t-67.5 -1.5t-63.5 -9t-60 1q-27 -14 -52 -27.5t-48 -42.5q-37 -47 -45 -94zM177 849q-5 -42 18 -79t48 -57.5t66 -32.5q45 16 82 18t78 -16q59 12 110.5 40t79.5 69q18 27 32 61.5t17 67t-7 61.5t-39 45 q-18 12 -42 16.5t-46.5 5.5t-41 -1.5t-26.5 -2.5q-84 -35 -137.5 -49t-70.5 -9t5.5 30.5t89.5 70.5q-23 -8 -49.5 -21t-40.5 -22q-25 -14 -52.5 -44.5t-48 -69.5t-25.5 -81z" />
<glyph unicode="9" horiz-adv-x="995" d="M67.5 696q14.5 88 61.5 171t121 143q63 51 143 77.5t160 28.5t148.5 -18.5t111.5 -61.5q59 -59 88 -136t34 -160t-7.5 -167t-31.5 -161.5t-44 -144t-43 -111.5q-51 -125 -129 -229.5t-197 -207.5q-2 -2 -7 -12t-13 -22.5t-19.5 -22.5t-25.5 -12q-18 -4 -40 0t-37 16 t-20.5 32.5t5.5 49.5q6 16 13 23.5t14 9.5t15.5 3t16.5 5q68 55 117 105.5t86 100.5t64.5 102.5t56.5 111.5q16 35 23 54.5t11.5 35.5t8.5 35.5t14 54.5q-70 -72 -150.5 -106.5t-161.5 -35.5t-157 29.5t-133 90.5q-66 68 -88.5 154.5t-8 174.5zM188.5 691.5 q-12.5 -64.5 4 -130t71.5 -125.5q33 -37 90.5 -57.5t129 -11t150.5 57.5t157 150q27 41 29.5 92.5t-8.5 100.5t-31.5 91t-41.5 67q-33 41 -83 61.5t-107 20.5t-114.5 -21.5t-102.5 -60.5q-55 -49 -93 -109.5t-50.5 -125z" />
<glyph unicode=":" horiz-adv-x="501" d="M134 821.5q-1 36.5 22 65.5q23 27 60.5 29t66.5 -21q27 -23 30 -60.5t-20 -66.5t-61.5 -33t-67.5 23t-30 63.5zM200.5 152.5q-1.5 37.5 22.5 66.5q23 27 59.5 29t67.5 -23q29 -23 30 -58.5t-22 -66.5q-23 -29 -61.5 -31.5t-67.5 23.5q-27 23 -28.5 60.5z" />
<glyph unicode=";" horiz-adv-x="512" d="M81 -303q-7 6 4 32.5t50 84.5q35 51 53.5 92t29.5 80t20.5 76.5t27.5 80.5q14 35 42 37t52.5 -14t42 -43.5t13.5 -50.5q-6 -35 -25.5 -77t-47.5 -83t-59.5 -79t-64.5 -62q-6 -6 -26.5 -20.5t-43 -29t-42 -22.5t-26.5 -2zM157.5 706.5q-1.5 34.5 22.5 63.5q29 31 69 26 t68 -28q27 -23 30.5 -60.5t-19.5 -66.5q-10 -12 -28.5 -19.5t-38 -7.5t-40 6.5t-35.5 22.5q-27 29 -28.5 63.5z" />
<glyph unicode="&#x3c;" horiz-adv-x="747" d="M123 580q39 70 85 123t92 93t88 68.5t73 48.5q2 2 8 12.5t15.5 21.5t20.5 20.5t23 11.5q14 2 35 -3t35 -18.5t20 -35t-6 -48.5q-6 -14 -15 -20t-19.5 -9t-19.5 -6t-17 -12q-31 -20 -63 -42.5t-67.5 -51t-73.5 -67.5t-81 -91q20 -45 50 -91t63.5 -87t68.5 -76.5t64 -60.5 q2 -4 12 -8t21.5 -11.5t20.5 -17.5t13 -22q4 -16 1 -37t-15 -37t-32.5 -22.5t-51.5 4.5q-16 6 -22.5 13t-10.5 15t-8 16.5t-14 16.5q-80 57 -154 157.5t-139 252.5z" />
<glyph unicode="=" d="M162 731.5q2 20.5 10 38.5t21 27q18 12 33.5 11t27.5 -6t21.5 -11.5t13.5 -6.5q76 -4 174 -8t200.5 -7t197.5 -5t165 0q115 4 161 -1t47 -16.5t-28.5 -24.5t-67.5 -26.5t-72 -21.5t-38 -8q-70 0 -162 -3.5t-191.5 -6.5t-199.5 -3t-188 9q-12 2 -24.5 -1.5t-25 -6.5 t-23.5 -3t-24 8q-16 12 -23 32t-5 40.5zM171 382.5q3 20.5 14.5 37t23.5 24.5q16 10 30.5 7.5t22.5 -8t10 -8.5t-6 9q84 -10 182.5 -12t194.5 0t183 10.5t153 20.5q113 23 159 23.5t49 -9.5t-25.5 -28.5t-65.5 -37t-70 -31.5t-39 -15q-61 -16 -145 -29.5t-176.5 -20 t-185.5 -6.5t-173 8q-4 0 -14 -4t-23.5 -8t-29 -5t-29.5 7q-27 14 -35 34.5t-5 41z" />
<glyph unicode="&#x3e;" horiz-adv-x="768" d="M119 163.5q-2 20.5 4 35.5q6 18 17.5 26t21.5 11.5t18 3.5t10 4q31 25 77 61.5t94.5 79.5t90.5 89t64 91q-43 51 -81 89t-73.5 67t-67.5 50.5t-63 41.5q-4 2 -12 4t-18.5 6t-20.5 12.5t-16 24.5q-10 31 -5 52.5t19.5 36t34.5 18.5t39 0q27 -6 38 -32t21 -34 q31 -20 73 -48t88 -68t93 -93t88 -125q-35 -76 -83 -138t-100 -112.5t-102.5 -89.5t-88.5 -67q-12 -10 -17.5 -20.5t-9.5 -19.5t-12.5 -16.5t-26.5 -9.5q-31 -6 -50.5 4.5t-30.5 27.5t-13 37.5z" />
<glyph unicode="?" horiz-adv-x="1009" d="M61 924q-10 29 9.5 55.5t29.5 38.5q41 92 112 171t177 138q59 33 125 54.5t129.5 22.5t118.5 -22.5t96 -78.5q59 -84 71.5 -164t-10 -156t-71.5 -146.5t-109.5 -136t-127 -126t-122.5 -113.5q-27 -23 -39 -41.5t-16 -34.5q33 14 58.5 21.5t47 12.5t42 7t43.5 6 q27 16 58.5 -6.5t33.5 -69.5q2 -31 -8.5 -45t-65.5 -28q-8 -2 -12 1t-11.5 7t-19.5 6t-33 -2q-55 -18 -91 -35.5t-62.5 -28t-50 -10.5t-54.5 19q-35 20 -35 62t21.5 90t56.5 93t68 74q121 98 212 182t140 165t49 163t-61 174q-27 39 -64 52.5t-79 9t-86 -21.5t-85 -40 q-43 -25 -78.5 -56.5t-64.5 -65.5t-51.5 -65.5t-42.5 -58.5q-2 -12 -1 -23t1 -21.5t-4 -21.5t-15 -26q-18 -27 -38.5 -34t-38 -2t-31.5 20.5t-21 34.5zM348 20.5q2 30.5 25 59.5q23 27 63.5 34t71.5 -18q33 -27 32 -69.5t-24 -71.5t-66.5 -29t-70.5 29q-33 35 -31 65.5z" />
<glyph unicode="@" horiz-adv-x="1454" d="M109 463q4 96 40.5 175t91 140.5t121 107.5t132 76.5t125 46t98.5 19.5q141 10 254.5 -23.5t195.5 -102t130.5 -164t60.5 -208.5q10 -96 -24 -188t-86 -157.5t-110.5 -94.5t-95.5 2q-25 20 -39 35.5t-24 38.5q-29 -49 -68 -89t-97 -58.5t-139 -8.5t-192 64 q-82 39 -123 114.5t-44 159.5t31 165t102 130q57 43 120.5 67.5t128 25.5t129 -22.5t121.5 -78.5q2 10 2 20.5v20.5t-11 33.5t7 54.5q14 27 34.5 36t40 5t37 -15.5t25.5 -23.5q12 -16 11.5 -30.5t-6 -26t-11.5 -20.5t-6 -15q-4 -92 -10 -154.5t-9 -107.5t-3 -80t8 -72 q14 -68 50 -62.5t71.5 53.5t60.5 123t18 148q-6 76 -47 151t-107.5 131t-156.5 88t-196 23q-41 -4 -96.5 -18t-114 -42t-115.5 -66.5t-103.5 -91t-75 -118t-30.5 -145.5q-6 -236 129 -377t422 -157q74 -4 144.5 3t132 25.5t108.5 50t76 78.5q6 10 6 19.5t1 18.5t6 18.5 t22 17.5q27 14 48 12t36.5 -14t24.5 -30.5t9 -32.5q2 -18 -9 -32t-25.5 -23t-26.5 -14t-14 -9q-23 -55 -81.5 -95t-135 -66t-163.5 -36t-167 -4q-170 10 -296 63.5t-207 142.5t-118 207.5t-28 262.5zM432 365.5q0 -54.5 22.5 -102.5t67.5 -77q74 -45 133.5 -55t104.5 3 t77.5 43t54 64.5t35 66.5t19.5 50q0 25 -2 60t-2 51q-4 4 -14 16.5t-20.5 26.5t-19.5 25.5t-11 13.5q-84 82 -176.5 76t-172.5 -68q-47 -35 -71.5 -87t-24.5 -106.5z" />
<glyph unicode="A" horiz-adv-x="1091" d="M2 -106.5q0 14.5 5 25.5t11.5 18.5t6.5 11.5q8 147 55 316t106 347q-18 -8 -39.5 -9t-40.5 15q-22 19 -22 47q0 7 2 14q6 38 31 54q29 18 57.5 14t44.5 -8q94 221 182 396.5t164 273.5q43 -47 85 -119.5t82 -152.5t76 -161t64 -145q25 4 34 6.5t13.5 2.5h6.5h10 q68 14 97.5 15t34.5 -6t-9.5 -20.5t-33.5 -28t-37.5 -27.5t-22.5 -19q-10 -14 -25.5 -16.5t-28.5 -8.5q33 -84 56.5 -172t41 -175t31 -169t25.5 -152q0 -2 4 -10t9 -20.5t7 -28t-4 -29.5q-12 -31 -30.5 -43t-39 -12t-39 8t-28.5 19q-14 14 -14 29.5t5 27.5t11 21.5t6 13.5 q-10 63 -24.5 146t-34 172t-44 178.5t-54.5 168.5l-490 -75q-31 -96 -57.5 -200.5t-48 -200t-34.5 -170t-18 -109.5q-4 -25 4.5 -45.5t-6.5 -40.5q-10 -16 -29.5 -22.5t-39 -5.5t-36.5 8t-26 20q-12 18 -12 32.5zM354 752l400 53q-43 100 -90.5 202.5t-94.5 200.5 q-16 -29 -39.5 -76t-52 -107t-60.5 -131t-63 -142z" />
<glyph unicode="B" horiz-adv-x="962" d="M7 1197q-5 15 2 33.5t30 37.5q16 12 39.5 12t38.5 4q2 18 8 32.5t0 18.5q-4 16 -7 27.5t-4 21t2 18.5t13 23q21 32 53 32h6q36 -3 58 -32q14 -16 16 -30.5t-1 -24.5t-10 -18.5t-11 -14.5q-2 -6 -5.5 -11t-7.5 -17q72 19 164 35q81 14 157 14h19q84 -2 149.5 -26.5 t86.5 -82.5q12 -37 12 -74q0 -33 -10 -69q-21 -74 -67 -141.5t-107.5 -126t-122.5 -95.5q82 6 170 6q2 0 4 1q86 0 156 -22q72 -22 115 -72q40 -46 40 -129v-15q-2 -33 -2 -71t-15 -81t-51 -93t-108 -109.5t-188.5 -130t-290.5 -154.5q-8 -4 -20.5 -18.5t-30 -24.5t-41 -9 t-49.5 27q-17 26 -17 47q0 7 2 13q8 26 29 43q-29 125 -55.5 273.5t-43 305t-18.5 316.5v30q0 144 17 277q-16 -10 -24.5 -13t-37.5 13q-14 6 -25.5 17.5t-16.5 26.5zM210 924v-36q0 -34 1 -66q2 -48 6 -105q94 29 185.5 86t159.5 125q68 67 104 137q25 50 26 92q0 16 -4 31 q-8 29 -41 47q-33 17 -91 21q-11 1 -22 1q-51 -1 -117 -13q-81 -16 -186 -52q-10 -88 -15 -151t-6 -117zM221 606q10 -104 20.5 -183t20.5 -146.5t24.5 -134t32.5 -148.5q184 80 292 146.5t165.5 127t77 118t25.5 118.5q1 7 1 14q0 40 -29 66q-34 30 -91.5 44.5t-131.5 17.5 q-28 1 -55 1q-47 0 -93 -3q-74 -5 -143 -16.5t-116 -21.5z" />
<glyph unicode="C" horiz-adv-x="1251" d="M88 378q-9 62 -9 132q0 98 17 213q23 137 83.5 257t150.5 202t204 116q56 16 116 16q62 0 128 -18q158 -41 256.5 -132t149.5 -251q35 -16 36.5 -43.5t-8.5 -50.5q-6 -14 -20 -26.5t-32.5 -18.5t-38 -5t-34.5 15q-14 12 -25 39t5 54q-29 74 -56.5 122t-61.5 79.5t-78 51 t-101 37.5q-50 15 -96 15q-52 0 -100 -18q-92 -34 -161 -104.5t-115 -166.5t-62 -191q-21 -112 -20 -204q0 -38 3 -74q12 -120 50 -207.5t95.5 -145t118.5 -89.5q41 -21 87 -21q14 0 28 2q62 8 119 32.5t102 56.5t64 54q82 94 125 128q37 30 52 30q2 0 4 -1q13 -5 6 -37.5 t-22.5 -71.5t-34 -74t-26.5 -43q-37 -37 -95 -84t-129 -81t-149 -46q-20 -3 -40 -3q-57 0 -115 25q-82 35 -161 101.5t-133.5 173.5t-76.5 255z" />
<glyph unicode="D" horiz-adv-x="1183" d="M-8.5 1128q-1.5 29 20.5 54q16 20 42 28t52 13q0 8 -7 15t-13 16.5t-8 22.5t8 34q8 20 26.5 33.5t40 15.5t44 -10.5t41.5 -42.5q8 -10 9 -25.5t1 -32.5q23 10 65.5 26.5t100.5 30.5q58 15 126 22q30 3 60 3q40 0 81 -5q73 -9 146.5 -40t141.5 -92q76 -68 108.5 -146.5 t35.5 -160.5v-19q-1 -73 -21 -147q-24 -84 -60.5 -163t-83.5 -148.5t-90 -124.5q-53 -68 -137 -134.5t-178 -123t-187.5 -99.5t-165.5 -63q-10 -4 -23 -13.5t-30.5 -16.5t-37 -5t-38.5 20q-25 23 -28.5 38.5t0.5 27.5t13 25.5t13 31.5q35 205 49.5 379t15.5 314v40 q0 116 -5 204q-6 102 -13 165q-12 -10 -33.5 -11t-52.5 21q-27 14 -28.5 43zM190 -8q63 20 143.5 57t160 84t150.5 102.5t114 114.5q61 88 118 190q58 102 86 202q20 69 20 134q0 30 -4 59q-13 93 -91 165q-57 53 -121 77.5t-128 30.5q-26 2 -52 2q-38 0 -74 -5 q-61 -9 -113.5 -23.5t-93.5 -29.5t-63 -22q0 -37 4 -142q3 -84 3 -198v-60q-1 -152 -13.5 -342.5t-45.5 -395.5z" />
<glyph unicode="E" horiz-adv-x="1009" d="M13 1135.5q-5 13.5 3.5 32t32.5 46.5q16 23 33.5 27t30.5 1q-2 12 -2 27t8 25q18 29 54 30h3q34 0 55 -24q12 -12 13.5 -29.5t-0.5 -33.5q86 8 167 24.5t161 25.5q60 7 124 7q21 0 43 -1q86 -3 185 -31q18 4 39.5 -11.5t27.5 -38.5q4 -14 1 -31.5t-12 -31.5t-21.5 -24.5 t-24.5 -10.5q-23 -2 -44.5 10.5t-31.5 34.5q-88 18 -169 18q-2 -1 -4 -1q-83 0 -158.5 -11.5t-146.5 -27t-138 -23.5q0 -57 1 -132t5 -140q63 25 112.5 42t95.5 25.5t99 8.5t127 -7q72 -6 100.5 -17t30.5 -24.5t-15.5 -28t-41 -25.5t-46 -18t-28.5 -7q-80 0 -128 -1.5 t-90 -9.5t-89 -25.5t-123 -49.5q2 -96 9 -199t17.5 -196t23.5 -173t30 -131q80 20 145.5 38.5t130 35t135 35t162.5 41.5q18 4 34.5 -7.5t27 -31t12.5 -42t-8 -38.5q-18 -27 -37 -37t-35 -11t-29.5 5t-21.5 10q-125 -33 -236.5 -56.5t-234.5 -56.5q2 -10 4 -24t-2 -25 q-6 -20 -22.5 -32.5t-38 -16.5t-43 1t-33.5 22q-6 4 -9.5 16t-5.5 23q-20 -8 -43.5 -5t-33.5 9q-14 14 -18.5 29.5t-4.5 29.5t4 24.5t8 16.5q12 16 28.5 20.5t31.5 4.5q-16 51 -27.5 128.5t-19 170t-13.5 195t-8 204.5q-39 41 -39 68q0 6 1 10q9 28 36 59q-2 78 -2 146.5 v128.5q-16 -4 -32.5 -7.5t-33.5 7.5q-16 8 -29.5 18t-18.5 23.5z" />
<glyph unicode="F" horiz-adv-x="964" d="M24.5 1269.5q-4.5 18.5 0 38t16.5 31.5q16 16 37.5 20.5t38.5 0.5q0 6 -1 10t-1 8v8q-2 16 -6.5 25.5t-6.5 17t0 15.5t13 24q23 35 61 37h6q35 0 56 -26q22 -28 22 -48q0 -7 -2 -13q-10 -24 -16 -32l-2 -16q72 8 144 20q70 13 144 17q27 1 54 1q47 0 95 -4q75 -7 152 -36 q14 2 45 -4t41 -29q6 -12 6.5 -30.5t-6 -35t-20.5 -28.5t-39 -10q-27 2 -40 15.5t-17 19.5q-61 27 -133 34q-44 4 -88 4q-28 0 -56 -2q-72 -4 -143.5 -16t-132.5 -22l30 -400q39 0 58.5 3t50.5 8.5t86 13.5t166 22q51 6 81 6q12 0 20 -1q30 -3 35 -14t-9 -26.5t-34.5 -30 t-43 -25.5t-31.5 -13q-115 -25 -176 -36t-95 -16t-54.5 -6t-50.5 -1l67 -809q8 -18 15.5 -27.5t11.5 -17t3 -16.5t-7 -25q-14 -39 -52 -49q-10 -3 -20 -2q-26 0 -47 18q-31 28 -31 50v6q4 24 10 34q-8 111 -17 238.5t-18.5 245.5t-17.5 210t-12 129q-16 -8 -35 0 q-23 4 -37 17.5t-18 31t3 37t27 35.5q12 10 25.5 13t24.5 1q-2 20 -5.5 61.5t-7.5 92.5t-8 107.5t-8 107.5q-12 -8 -26.5 -14t-30.5 -2q-18 2 -28.5 16t-15 32.5z" />
<glyph unicode="G" horiz-adv-x="1155" d="M42 574q11 106 50 212.5t101.5 206t142.5 175t173 119.5q89 42 184 42h9q70 -2 120 -25.5t87 -68.5t67 -110.5t60 -151.5q6 -16 12.5 -32.5t4.5 -33t-15.5 -32t-46.5 -27.5q-31 -10 -52 -1t-32.5 28.5t-11.5 44t14 43.5q-6 16 -22.5 58t-43 86t-62.5 77q-33 30 -77 30h-8 q-76 -2 -148.5 -41.5t-135 -105.5t-113.5 -148.5t-84 -172t-44 -178.5q-5 -39 -5 -75q0 -46 8 -87t25.5 -104.5t53.5 -129.5t91 -121t141 -78q30 -8 62 -8q44 0 92 15q84 24 158.5 70t127 101.5t58.5 96.5q0 8 1 35.5t-2 58.5t-12 57.5t-30 34.5q-16 6 -49 18q-31 12 -69 12 h-6q-42 -1 -89 -24.5t-90 -85.5q-6 -27 -31.5 -45t-60.5 -12q-14 2 -28.5 13.5t-25 28.5t-14.5 37.5t0 39.5q6 27 37 45t53 16q27 16 72 47t103 52q54 19 116 19h6q64 -1 129 -48q66 -47 99 -126q21 -53 21 -113q0 -29 -5 -60q-10 -63 -48 -122.5t-92.5 -109t-121 -86 t-136 -60.5t-136.5 -31q-22 -2 -43 -2q-41 0 -78 9q-80 18 -139.5 62.5t-102.5 101t-71.5 117.5t-46 114.5t-26 91.5t-10.5 48q-18 62 -18 133q0 29 3 60z" />
<glyph unicode="H" horiz-adv-x="927" d="M-20 646q-1 6 0 12q0 31 24 55q20 20 39.5 21t32.5 -3q8 82 17 161t17.5 144.5t14.5 116.5t6 82q0 10 -5 18.5t-8 17.5t-3 19t10 27q23 35 61 37h5q35 0 57 -27q14 -18 17 -33.5t1 -27t-7 -19.5t-7 -14q0 -31 -7 -84t-15.5 -120.5t-17.5 -145.5t-11 -160q55 0 130 1 t150.5 2t143 1h108.5q0 106 2 207.5t3 187.5t3 147.5t2 88.5q0 10 -4 17t-7 15.5t-3 17.5t10 26q23 35 62 37h5q35 0 56 -27q27 -35 20.5 -57.5t-16.5 -34.5q0 -41 -2 -142.5t-5 -235.5t-6 -286.5t-7 -293t-8 -256t-7 -177.5q0 -29 7.5 -46t-15.5 -44q-25 -27 -57 -27 q-4 0 -10 1q-38 5 -56 40q-20 37 -10 58.5t21 29.5q6 43 9 112t5 153t3 181t5 197q-41 0 -108.5 -1t-143 -1t-151.5 -1t-131 -3v-45q0 -146 11 -305q13 -184 28 -348q6 -16 12 -23.5t9 -13.5t4.5 -14t-5.5 -27q-10 -39 -47 -51q-13 -4 -25 -4q-23 0 -43 14q-18 12 -26 25.5 t-9.5 26t2 21.5t5.5 15q-10 82 -16.5 174t-9.5 185.5t-4 183.5v36q0 70 3 132q-18 -8 -27.5 -12.5t-37.5 12.5q-37 16 -43 54z" />
<glyph unicode="I" horiz-adv-x="434" d="M43 -36q2 11 7 19.5t9 12.5q-6 64 -6 135q1 75 7 155q12 158 36.5 317t51 306.5t42.5 255.5q2 10 -6 28.5t11 47.5q23 35 61 37h5q35 0 56 -29q22 -26 22 -46q0 -7 -3 -13q-10 -24 -21 -35q-10 -90 -33.5 -229.5t-47.5 -299.5q-24 -159 -40 -324q-12 -121 -12 -228 q0 -39 2 -76q2 -16 6.5 -25.5t6.5 -16.5t0 -16.5t-13 -23.5q-22 -35 -60 -37h-5q-34 0 -58 27q-14 18 -17 32.5t-1 25.5z" />
<glyph unicode="J" horiz-adv-x="907" d="M-4 133q-3 25 -3 50q0 32 5 63q8 55 25 88q4 8 20 25.5t36.5 34t41 26.5t31 5t7.5 -30.5t-30 -81.5q-6 -12 -15 -53q-5 -26 -5 -52q0 -15 2 -30q4 -74 26.5 -142.5t69.5 -114.5t121 -63q26 -5 56 -5q57 0 128 20q55 14 90 69.5t56.5 123t30.5 135t9 106.5q1 24 1 51 q0 68 -4 156q-5 123 -20.5 251t-42 244.5t-67.5 190.5q-16 18 -32.5 36.5t-6.5 55.5q12 35 50 56q16 8 35 8q24 0 51 -15q18 -10 25 -24t8 -29.5t-2 -28t-5 -20.5q88 -211 112 -453q18 -173 18 -346q0 -70 -3 -141q-4 -125 -23.5 -213t-47 -147.5t-59.5 -94t-60.5 -53 t-49 -24t-26.5 -7.5q-85 -21 -156 -21q-40 0 -75 7q-99 18 -167.5 71.5t-106.5 136.5t-48 179z" />
<glyph unicode="K" horiz-adv-x="1062" d="M68 -106q8 24 14 34q-4 131 -4 275.5t2 289t5 283.5t5 260q1 60 1 114q0 56 -1 104q-2 96 -8 155q-4 10 -12.5 32.5t12.5 53.5q10 16 28.5 26.5t39 11.5t40 -4t31.5 -20q14 -16 15.5 -32.5t-2 -28.5t-8.5 -19.5t-5 -9.5q-6 -205 -6 -393t-4 -336q82 16 177 63.5 t188.5 109t176.5 129t144 124.5q10 14 31.5 29.5t46.5 11.5q18 -2 33.5 -13t24.5 -27.5t10 -35t-7 -34.5q-18 -35 -40.5 -40.5t-37.5 -2.5q-61 -57 -147 -123t-177 -125.5t-177 -105.5t-150 -64q72 -43 160 -107.5t180 -131t184.5 -125t174.5 -89.5q8 -2 19 -3t22.5 -5 t21.5 -12.5t16 -26.5q7 -16 7 -31q0 -21 -14 -39q-23 -32 -60 -36q-27 -2 -50.5 16t-27.5 29q-80 31 -180.5 92t-202.5 129.5t-194.5 133t-155.5 103.5v-94v-104.5v-141.5v-204q10 -12 15 -36t-5 -46q-8 -16 -23.5 -27.5t-34 -14.5t-37 2t-30.5 19q-25 27 -25 48q0 5 1 10z " />
<glyph unicode="L" horiz-adv-x="1142" d="M44 -30q5 34 24 50q10 125 13 199t4 130.5t2 113.5t6 148t16.5 233.5t33.5 369.5q0 4 -2 16.5t-3 26t0 27.5t5 21q14 20 34 31.5t41.5 10.5t42 -15.5t36.5 -43.5q4 -8 2 -21.5t-7 -25.5t-10.5 -21.5t-5.5 -11.5q-27 -229 -41 -378.5t-20 -247.5t-7 -160v-60.5v-56.5 q1 -55 1 -118.5t-6 -166.5q86 2 192.5 12.5t214 27t206.5 37t171 38.5q12 10 30.5 24.5t53.5 0.5q18 -6 31.5 -21.5t20.5 -34t6 -38t-11 -33.5q-14 -18 -28.5 -24.5t-28.5 -6.5t-25.5 4t-17.5 6q-88 -18 -193.5 -37.5t-214 -36t-212 -27.5t-187.5 -15q-2 -18 -14.5 -34 t-51.5 -22q-41 -6 -59 15.5t-33 50.5q-10 23 -10 47q0 8 1 17z" />
<glyph unicode="M" horiz-adv-x="1529" d="M-13 -29.5q-1 15.5 4 27.5t13 20.5t14 12.5q29 162 48.5 344t39 353t44 314.5t63.5 223.5q-10 18 -4 45.5t33 36.5q20 6 35.5 -2.5t27.5 -22.5t22.5 -30.5t22.5 -26.5q111 -162 172.5 -301.5t98 -269.5t64.5 -255t73 -256q27 141 49 298t47 309.5t52.5 291t62.5 240.5 q2 6 4 19.5t7 30t15.5 31.5t28.5 23q10 4 21.5 -5t19.5 -13q23 -4 48.5 -57.5t54 -137.5t57 -191.5t56.5 -223t53.5 -232t48 -218t39 -180.5t26.5 -118q8 -16 20 -39.5t2 -50.5q-14 -35 -57 -45q-13 -3 -24 -3q-27 0 -46 17q-29 27 -29 53q0 28 11 46q-25 92 -50.5 209.5 t-50 241.5t-49 245t-45 220t-38 169t-29.5 90q-29 -100 -55.5 -249.5t-52 -310.5t-52 -314.5t-55.5 -263.5q-2 -8 2 -27t5 -40.5t-2 -40.5t-22 -28q-16 -7 -32 -7q-19 -1 -37 9q-34 18 -49 52q-31 63 -59.5 149t-57.5 185.5t-58.5 206t-66.5 213t-80 205.5t-98 183 q-16 -43 -29.5 -121.5t-27 -177t-25.5 -209t-24.5 -220t-24.5 -210t-27 -178.5q6 -20 11.5 -40.5t-21.5 -49.5q-14 -16 -32.5 -21t-37 -2t-34 13t-23.5 27q-10 18 -11 33.5z" />
<glyph unicode="N" horiz-adv-x="1101" d="M60 1248q-5 11 -4 23q0 21 16 44q23 31 48 23.5t40 -23.5q12 0 26.5 1t26.5 -3t19.5 -15.5t7.5 -33.5q0 -8 -1 -30t-8 -44q240 -358 410 -621.5t260 -394.5q-2 63 -7 140t-7 195q-1 39 -1 85q0 91 3 208q4 175 22 435q-10 14 -18 37.5t10 56.5q8 18 25.5 26.5t37 8.5 t37 -7.5t29.5 -21.5q10 -12 11 -26.5t-3 -28.5t-9 -26.5t-7 -18.5q-10 -209 -15 -359q-5 -152 -8 -260q-2 -78 -1 -138v-46q1 -76 3.5 -135t4.5 -112.5t2 -114.5q0 -8 6 -30t2 -34q-16 -43 -46 -50t-59 7q-20 10 -26 25.5t-17 32.5q-127 188 -228 339.5t-181 272.5 t-141.5 215t-110.5 170q-10 -104 -19.5 -223t-13.5 -246q-2 -73 -2 -146q0 -55 1 -112q3 -131 22 -260q10 -14 17 -40t-5 -48q-16 -29 -51 -38q-9 -2 -17 -2q-25 0 -45 21q-26 28 -26 50v8q6 24 12 34q-16 154 -18 294q-1 39 -1 77q1 100 5 200q6 138 17 283.5t24 309.5 q-35 34 -49 66z" />
<glyph unicode="O" horiz-adv-x="1198" d="M30 576q-1 18 -1 36q0 122 42 252q48 148 175 293q63 74 139 107q75 34 151 44q51 7 101 8q23 0 46 -2q71 -5 122 -11q29 -4 52.5 -25t19.5 -55q0 -6 -5 -11q88 -49 149.5 -127.5t97.5 -174.5q35 -94 49 -198q10 -80 11 -158q0 -23 -1 -45q-4 -99 -25.5 -186.5 t-54.5 -146.5q-55 -104 -165 -168t-237 -76q-29 -3 -58 -2q-98 0 -197 32q-128 42 -222 149q-78 88 -130 207.5t-59 257.5zM148 595q4 -116 44.5 -218.5t112.5 -181.5q68 -76 140.5 -113t142.5 -45q25 -3 49 -2q45 0 87 9q64 15 118.5 45t94.5 68.5t60 75.5q43 76 61 193 q9 58 8.5 119.5t-8.5 125.5q-18 128 -77 253t-172 215q-26 12 -52 12l-26 -3q-39 -9 -55 -11q-88 -23 -131 -29t-56.5 -2t-2 16.5t33 27.5t45 29.5t37.5 22.5q-104 -16 -183 -57t-106 -76q-88 -117 -128 -237q-37 -111 -37 -218v-19z" />
<glyph unicode="P" horiz-adv-x="931" d="M27 618.5q0 18.5 8 35t24 26.5q18 10 39 9t35 -11q2 70 3 111.5t1 82.5t-1 94.5t-1 147.5q-14 -12 -30.5 -18t-38.5 6q-18 8 -27.5 25.5t-9.5 37t7 37t21 29.5q18 16 41 19t41 -1q2 23 4 45.5t-2 30.5q-14 10 -20 40t6 54q8 16 23.5 26.5t34 14.5t36 1t31.5 -15 q23 -20 17.5 -55t-9.5 -52q2 -10 0 -20t-2 -29q98 42 209 50q23 2 46 3q85 0 161 -23q96 -28 162.5 -91.5t72.5 -159.5q1 -12 1 -24q0 -66 -28 -135q-32 -81 -112 -153.5t-209 -128t-313 -79.5v-113t-1 -71.5t-3 -52t-3 -57.5t-1 -86t2 -138q10 -12 20 -36t-6 -56 q-8 -20 -26.5 -30.5t-39 -10.5t-40 9t-31.5 30q-16 29 -5 57.5t15 40.5q-4 88 -5 142t-1 88v56.5t1 49t1 63.5v103q-10 -4 -30.5 0t-37.5 16q-14 12 -22 29.5t-8 36zM254 670q141 25 244.5 65.5t171 92t97.5 105.5q25 45 25 88q0 9 -1 17q-10 80 -61.5 127t-127.5 63 q-39 8 -83 8q-40 0 -84 -8q-91 -14 -177 -57q0 -113 -1 -175t-1 -108t-1 -92t-1 -126z" />
<glyph unicode="Q" horiz-adv-x="1300" d="M32 508q-3 37 -3 75q0 95 23 190q32 132 120 247q49 61 129 111.5t172 81t185 35.5q14 1 27 1q78 0 142 -26q12 -4 26.5 -11.5t26 -14.5t15.5 -16.5t-2 -17.5q92 -41 161.5 -108.5t118 -153.5t73 -184.5t26.5 -198.5v-16q0 -92 -20 -182q-23 -97 -70 -179 q-8 -14 -21.5 -36.5t-33 -47t-45 -51t-58.5 -47.5q12 -39 24.5 -81t26.5 -81q18 -14 33.5 -31.5t15.5 -44.5q0 -18 -12 -35.5t-29.5 -28.5t-37 -13t-35.5 8q-29 18 -30 40.5t3 35.5q-16 39 -30.5 89t-28.5 91q-45 -25 -131 -42q-60 -13 -128 -13q-28 0 -59 3 q-100 7 -201.5 48t-177.5 131q-80 94 -131 217t-64 256zM148 538q10 -116 54 -227.5t117 -199.5q57 -68 134 -101t157 -40q26 -2 51 -2q53 0 102 10q73 14 120 40q-51 139 -90 232.5t-68 118.5q-18 2 -38.5 11t-35.5 44q-8 20 -2 40.5t20.5 36t34 21.5t41.5 0 q31 -8 43.5 -33.5t18.5 -39.5q41 -53 84 -148.5t90 -224.5q41 35 70 67.5t39 57.5q53 129 63 258q2 31 2 61q0 96 -23 184q-32 117 -107 215.5t-194 163.5q-54 15 -99 15q-15 0 -28 -2q-55 -6 -95 -21.5t-62.5 -32t-28.5 -16.5q-31 -8 -36 2t4.5 28.5t29 39t37.5 34.5 q-57 -18 -105.5 -42.5t-85 -49t-61.5 -45t-35 -32.5q-70 -86 -98 -197q-22 -83 -22 -169q0 -29 2 -57z" />
<glyph unicode="R" horiz-adv-x="1138" d="M6 1221.5q0 19.5 8.5 38t22.5 30.5q16 16 33.5 19.5t33.5 -0.5q-2 43 11.5 58t32 12t37 -18t26.5 -34q117 15 239 21q28 1 54 2q92 0 172 -14q104 -18 176 -64.5t88 -132.5q3 -18 3 -37q1 -46 -17 -96q-24 -70 -95 -139.5t-191 -132t-298 -111.5q43 -20 127 -60.5 t186.5 -92.5t211 -112.5t200.5 -124.5q2 -4 13.5 -5t23.5 -4t25.5 -8t19.5 -17q10 -17 10 -36q0 -16 -7 -33q-15 -38 -52 -44q-35 -4 -49.5 15.5t-22.5 29.5q-2 0 -49 26.5t-120 66.5t-162 89t-172 95.5t-150.5 83t-100.5 55.5q8 -70 12.5 -124t4.5 -112.5t-1 -129 t-1 -169.5q12 -10 18 -38.5t-6 -53.5q-8 -16 -23.5 -27.5t-34 -15.5t-37 0t-32.5 17q-10 12 -13 26t-2 29.5t4 29t5 19.5q2 106 6 174t5 126v29q0 45 -2 93q-3 64 -13 162q-18 -6 -44 -5t-52 17q-18 8 -24.5 27.5t-3.5 41t14.5 40t29.5 28.5q20 10 39.5 9t34.5 -9 q-6 68 -9.5 112t-6.5 88t-9 98t-14 145q-16 -10 -36 -16.5t-42 3.5q-18 8 -26.5 24.5t-8.5 36zM219 1233q10 -111 15.5 -176.5t8.5 -115.5t6 -99t9 -127q139 37 249.5 83t185.5 98t111 106q28 42 27 81q0 11 -2 23q-16 70 -75 104q-60 32 -144 42q-44 5 -94 6q-44 0 -92 -4 q-102 -8 -205 -21z" />
<glyph unicode="S" horiz-adv-x="968" d="M1 704q-8 32 -8 68q0 45 13 94q37 143 106.5 227.5t154.5 120.5q79 34 163 35q8 0 14 -1q92 -3 172 -29q55 -20 92 -36t64 -36.5t47.5 -47t40.5 -69.5q4 -4 12.5 -10t16.5 -16.5t13 -24.5t3 -33q-1 -38 -31 -56q-15 -10 -33 -9q-15 0 -32 8q-29 14 -33 41.5t0 48.5 q-25 37 -73 76t-117 59q-80 20 -154 20q-1 0 -2 1q-72 0 -134 -31t-110.5 -96.5t-79.5 -178.5q-6 -23 -6 -46q0 -20 4 -41q10 -44 36 -82.5t64 -67.5t83 -41q21 -5 45 -5q22 0 49 4q55 9 119 22q64 12 130 21q32 4 61 4q33 0 65 -5q60 -10 108.5 -48t77.5 -118 q24 -66 24 -128q0 -34 -8 -68q-20 -94 -79.5 -175.5t-146.5 -146t-185 -105.5q-25 -7 -46 -7q-11 0 -21 2q-30 5 -52 20.5t-37.5 35t-21.5 35.5q-16 16 -26.5 25.5t-15.5 17t-6.5 18.5t-1.5 30q0 46 32 66q22 14 46 13q10 0 21 -2q18 -4 27.5 -16t14.5 -27.5t7 -29t4 -19.5 q2 -8 4 -20.5t8 -21.5t17.5 -14t29.5 1q82 45 148.5 97t107.5 113q42 60 54 128q4 21 3 43q0 50 -20 104q-18 49 -55 68.5t-85 20.5h-7q-44 0 -96 -11q-56 -12 -112 -24.5t-108 -19.5q-22 -3 -42 -3q-28 0 -52 6q-51 14 -106.5 50t-97.5 92t-61 130z" />
<glyph unicode="T" horiz-adv-x="1187" d="M-136 1153q-3 18 1 36.5t16 33.5q20 20 55 15t52 -9q84 4 204 9q46 2 95 2q79 0 166 -5q-6 12 -6.5 32.5t10.5 39.5q16 33 56 42q10 2 19 2q28 0 50 -20q16 -18 16 -42.5t-4 -43.5q131 -2 252 -3t213 -9q16 12 46 17t54 -11q14 -10 23.5 -26.5t11.5 -35t-3.5 -36 t-19.5 -29.5q-12 -10 -26.5 -12t-28.5 0t-27.5 6t-19.5 8q-106 6 -228 9t-251 3v-218t-1 -279.5t-3 -284.5t-6 -231q16 -10 21 -39t-5 -54q-16 -35 -56 -43q-10 -2 -19 -2q-28 0 -50 19q-12 12 -15 27.5t-2 31t5 28.5t6 21q-2 72 -2 162v186.5t1 195.5t2 188.5t1 165v126.5 q-141 0 -263 -5t-204 -11q-10 -12 -40 -19.5t-54 5.5q-16 8 -27.5 23.5t-14.5 33.5z" />
<glyph unicode="U" horiz-adv-x="1060" d="M35 612q-3 40 -3 80q0 76 10 154q15 119 46 239q-10 16 -9 43t17 50q23 28 64 30q2 0 4 1q38 0 59 -31q18 -27 5 -57.5t-21 -43.5q-35 -119 -45 -237q-5 -59 -5 -116q0 -58 5 -112q10 -108 39.5 -201.5t72.5 -160.5q51 -78 113 -116t125 -46q21 -3 43 -3q41 1 81 11 q62 16 113.5 44t86 65t47.5 69q33 94 42 188q6 60 6 120q0 34 -2 68q-5 95 -21.5 196.5t-35.5 214.5q-14 10 -27.5 36.5t-4.5 53.5q6 18 19 30.5t30.5 19.5t36 6t35.5 -11q27 -16 29.5 -49t-1.5 -49q16 -70 32.5 -187.5t22.5 -246.5q3 -52 3 -103q1 -75 -5 -147 q-10 -121 -43 -199q-31 -68 -88 -122t-129.5 -87t-155.5 -43q-30 -4 -60 -4q-52 -1 -104 11q-81 18 -155 67t-129 135q-68 102 -101.5 213t-41.5 227z" />
<glyph unicode="V" horiz-adv-x="1185" d="M14 1223q2 18 12.5 34.5t26 26.5t32.5 13t36 -5q14 -6 23.5 -18t13.5 -26.5t5 -27t1 -18.5q68 -109 142.5 -233.5t146 -248.5t137 -238.5t117.5 -200.5q27 90 55.5 190t65 211t87 229.5t123.5 245.5q-6 16 -1 46t28 46q21 17 47 17q10 0 22 -3q40 -9 56 -44 q10 -29 -8.5 -55.5t-26.5 -37.5q-80 -156 -132 -286.5t-91 -248.5t-68.5 -226.5t-62.5 -221.5q12 -16 24.5 -32.5t18.5 -35t2 -37t-23 -36.5q-20 -18 -42.5 -14t-41.5 14q-12 -16 -24.5 -19t-32.5 -8q-26 -3 -52 21q-19 19 -20 46q0 9 2 19q4 23 18.5 35.5t18.5 30.5 q-63 102 -140 231t-157 266.5t-156.5 270.5t-138.5 246q-16 6 -31.5 29.5t-11.5 52.5z" />
<glyph unicode="W" horiz-adv-x="1546" d="M43 1308.5q-6 28.5 6 53.5q8 16 23.5 26.5t34 14.5t37 0t30.5 -17q10 -10 13 -25t2 -30.5t-4 -29t-5 -21.5q2 -27 10.5 -136.5t35 -269t80.5 -354t149 -389.5q10 31 24.5 94.5t31.5 139t34.5 155.5t31 145.5t21.5 107.5t6 44q-6 8 -10 23.5t-4 34t5 36t19 27.5 q23 17 53 17h9q35 -3 51 -33q2 -2 3 -27t3 -29q92 -145 160 -241.5t120 -170t96 -137t91 -145.5q8 31 21.5 115t29 194.5t31.5 236.5t31.5 242.5t30 211t26.5 143.5q-6 16 -1 45t28 45q21 16 47 16q11 -1 22 -3q40 -10 56 -44q10 -29 -6.5 -54.5t-26.5 -37.5 q-20 -106 -36.5 -226t-33 -242t-31 -238.5t-31 -218t-33.5 -180.5t-38 -124q10 -25 14 -57.5t-24 -48.5q-23 -12 -41 -8t-47 30q-63 100 -111.5 175t-87.5 132.5t-70.5 104.5t-65.5 94t-71 100.5t-84 124.5q-25 -133 -40 -221t-31.5 -161.5t-38 -148.5t-58.5 -179 q-2 -6 -2 -19.5t-5 -28t-16 -26.5t-34 -14q-31 -4 -44 8t-18 28.5t-6.5 33t-5.5 20.5q-117 209 -184.5 422t-102 392t-44.5 304q-8 103 -7 144v14q-12 12 -18 40.5z" />
<glyph unicode="X" horiz-adv-x="1116" d="M23 1139q-4 20 5 36.5t24.5 26.5t34.5 13.5t38 -3.5q16 -4 25.5 -16t14.5 -25.5t7 -25.5t4 -19q14 -27 49 -71.5t83 -102t106.5 -122t122.5 -130.5q86 106 187 253t216 292q0 14 8 27q6 10 16.5 21.5t28.5 17.5q10 3 20 3q25 0 48 -18q33 -26 33 -65q0 -31 -15.5 -46.5 t-50.5 -25.5q-59 -72 -114.5 -144.5t-106.5 -142t-98 -134t-88 -120.5q45 -49 92 -119.5t91 -144t85 -141.5t72 -113q4 -6 25.5 -12t35.5 -39q10 -16 4 -37.5t-22.5 -38t-39 -25.5t-46.5 -3q-29 10 -42.5 34.5t-11.5 40.5q-31 43 -68.5 108t-78.5 135.5t-84 138t-84 116.5 q-47 -61 -93 -130t-92.5 -136.5t-89.5 -130t-81 -113.5q-4 -6 -9.5 -31.5t-38.5 -39.5q-31 -16 -54 -11.5t-37.5 21t-20.5 39t0 43.5q6 31 26.5 44t44.5 25q37 49 81 113.5t91.5 133.5t94.5 136.5t90 122.5q-70 76 -135.5 149.5t-117.5 135t-87 106.5t-45 62 q-16 6 -32.5 23.5t-20.5 58.5z" />
<glyph unicode="Y" horiz-adv-x="1011" d="M-10 1306.5q2 18.5 10 35t22.5 27.5t32.5 13q35 6 59.5 -11t24.5 -44q57 -41 104.5 -87t101.5 -107.5t123 -144.5t167 -197q53 117 113.5 247.5t132.5 257.5q-8 16 -5 46t23 49q23 20 53 20q8 0 16 -1q40 -7 56 -40q8 -14 7 -30.5t-5 -31t-12 -24.5t-17 -12 q-90 -174 -155.5 -323.5t-118.5 -276.5q-2 -6 13.5 -10.5t21.5 -12.5q22 -27 22 -52q0 -27 -24 -52q-14 -16 -38 -12t-42 14q-33 -102 -85 -230.5t-110 -314.5q10 -16 9 -47t-23 -53q-14 -14 -33.5 -17.5t-39 0.5t-36 16.5t-24.5 28.5q-8 14 -7 30.5t6 30t13 24t16 14.5 q35 109 66 199.5t57.5 166.5t50 140.5t46.5 119.5q-111 137 -184.5 228.5t-128 155t-98.5 105.5t-95 79q-16 -4 -44 9t-38 40q-6 16 -4 34.5z" />
<glyph unicode="Z" horiz-adv-x="1024" d="M-76 1003q-4 12 -4 24q0 24 17 46q20 23 51.5 21t46.5 -7q111 33 224.5 62t224 56.5t214 57t195.5 62.5q12 12 29.5 18.5t35 8.5t31 -3.5t19.5 -13.5q10 -16 5 -31.5t-16.5 -31t-26 -30.5t-20.5 -28q-14 -33 -58 -99t-105.5 -158.5t-135 -205t-146.5 -235.5t-139.5 -253 t-115.5 -255q96 27 166.5 45.5t133 31.5t129 22.5t157.5 17.5q10 14 36.5 21.5t51.5 -3.5q18 -6 31.5 -21.5t19.5 -32.5t4 -35.5t-14 -33.5q-18 -23 -50 -26.5t-53 12.5q-96 -10 -177 -23.5t-158.5 -31t-160.5 -36.5t-182 -44q-14 -4 -31.5 -18.5t-21.5 -16.5 q-25 -10 -50.5 1t-35.5 44q-6 18 0 30.5t15.5 22t20.5 15.5t17 12q49 131 110.5 258t129.5 245t135.5 224.5t129 196.5t111.5 163.5t83 125.5q-74 -29 -163 -52.5t-184.5 -48t-193.5 -49.5t-190 -55q-10 -12 -39 -20.5t-56 1.5q-35 16 -47 53z" />
<glyph unicode="[" horiz-adv-x="567" d="M86 409q-2 126 5 268t21.5 280.5t36 265.5t46.5 223q29 10 51 18.5t45.5 9.5t49.5 -5.5t60 -24.5q16 8 44 7t57 -26q14 -12 18 -34.5t-2 -44t-19.5 -40t-31.5 -22.5q-20 -6 -34.5 -1t-25 13.5t-15.5 16.5t-7 8q-10 2 -20.5 10t-22.5 13.5t-25.5 5.5t-27.5 -13 q-16 -76 -31.5 -180t-28 -220t-20.5 -235.5t-10 -228t2 -199t18 -143.5q4 -4 5 -4t30 -4q8 0 31.5 12t46.5 4q18 -6 28.5 -21.5t14.5 -33.5t0 -36.5t-17 -33.5q-23 -23 -57.5 -18.5t-48.5 8.5q-33 0 -50.5 -2t-26.5 -2t-15 3t-19 13q-27 59 -40 163t-15 230z" />
<glyph unicode="\" horiz-adv-x="935" d="M40 1072q5 24 18.5 42.5t35 25.5t45.5 -3q37 -16 42 -36t12 -32q25 -29 78 -104.5t123.5 -177t150.5 -218t156.5 -228.5t143 -207t109.5 -154q16 -2 39 -21.5t27 -54.5q8 -37 -20.5 -64.5t-67.5 -23.5q-20 2 -31.5 12t-17.5 22.5t-9.5 25.5t-5.5 20q-55 61 -127.5 159.5 t-150.5 210t-156 227t-142.5 215t-111.5 170t-61 93.5q-16 -2 -42 14t-36 43q-6 20 -1 44z" />
<glyph unicode="]" horiz-adv-x="468" d="M34 1367q-3 19 2 38.5t19 32.5q23 20 52.5 16t48.5 -10q23 20 79 21t111 -19q25 -96 39 -225t17.5 -270.5t-2 -286t-19.5 -273.5t-34.5 -233.5t-47.5 -163.5q-23 -18 -45.5 -19.5t-56.5 5.5q-14 -10 -46 -16.5t-57 9.5q-31 23 -37 62t23 65q12 10 26.5 13.5t30 1.5 t28.5 -6.5t19 -6.5q16 -4 22.5 -1t16.5 8q12 53 24.5 144t22 202.5t14.5 235.5t4 242t-9.5 223.5t-24.5 180.5q-27 23 -48.5 9.5t-29.5 -21.5q-10 -14 -42 -23.5t-58 5.5q-16 8 -27.5 24.5t-14.5 35.5z" />
<glyph unicode="^" horiz-adv-x="845" d="M100 1229q2 29 27 50t39 26q25 29 42 54t41.5 52t63.5 57.5t111 69.5q74 -33 114 -62.5t62.5 -60.5t35.5 -62.5t38 -68.5q14 -2 35.5 -19.5t23.5 -58.5q2 -20 -7 -37.5t-23.5 -28t-33 -14.5t-34.5 0q-29 10 -39 38t-10 44q-25 31 -37 57.5t-25.5 51t-35 46t-64.5 42.5 q-49 -43 -72.5 -65.5t-36 -39t-21.5 -31t-30 -40.5q8 -16 -10 -46t-45 -38q-39 -10 -75 16.5t-34 67.5z" />
<glyph unicode="_" d="M110.5 -122.5q4.5 18.5 18.5 32.5q23 23 56.5 21.5t45.5 -15.5q74 -8 173.5 -9t203 2t199.5 9t162 10q125 10 176 7t54 -13t-29.5 -25.5t-73.5 -29.5t-78 -24.5t-43 -12.5q-61 -16 -151.5 -27.5t-191 -15.5t-200.5 -2t-182 12q-12 -14 -42 -20t-54 6q-16 8 -27.5 23.5 t-16 34t0 37z" />
<glyph unicode="`" horiz-adv-x="634" d="M127 1284q-4 33 10.5 60.5t40 41t57 6t60.5 -45.5q27 -37 31 -72t6 -72t13 -78t54 -90q61 -70 62.5 -92t-24 -19t-62.5 20.5t-51 29.5q-86 66 -136.5 145.5t-60.5 165.5z" />
<glyph unicode="a" horiz-adv-x="923" d="M22 385l-2 36q0 81 28 159q34 94 108 149q63 47 134.5 80t144.5 42q23 3 46 3q51 0 99 -14q72 -20 137 -78q0 29 -8 43q-14 12 -20.5 42t5.5 54q16 33 56 42q10 2 21 2q28 0 48 -19q10 -12 16.5 -27.5t6.5 -31t-3 -28t-12 -16.5q0 -106 7.5 -200.5t17.5 -182.5t19.5 -175 t11.5 -179q12 -10 18 -38.5t-4 -53.5q-8 -18 -25.5 -29.5t-37 -14.5t-39 1t-33.5 18q-12 12 -16.5 29.5t-2.5 35t8.5 32t14.5 22.5q0 41 -4 79t-8 75q-31 -57 -73 -114q-43 -56 -105 -90q-61 -33 -146 -33h-5q-89 1 -212 61q-90 43 -136.5 131t-54.5 188zM140 406 q1 -68 29 -129.5t79 -92.5q82 -51 148 -56q11 -1 22 -1q52 -1 93 19q50 24 87 67t61.5 90t39 88t20.5 62v129q-4 4 -15.5 17t-24.5 28.5t-24.5 28t-13.5 14.5q-47 46 -99 62q-34 10 -69 11q-19 1 -37 -3q-53 -8 -104 -35t-96 -64q-49 -39 -73 -103q-23 -62 -23 -127v-5z" />
<glyph unicode="b" horiz-adv-x="786" d="M-10 1179.5q-8 24.5 4 59.5q6 18 20.5 30.5t33 15.5t37.5 -1t34 -16q23 -20 19.5 -54t-7.5 -49q6 -78 11 -128t8.5 -93t6.5 -88t9 -111q66 31 154 34h29q73 0 141 -12q82 -15 146.5 -48t82.5 -74q27 -58 27 -127q0 -32 -6 -64q-18 -106 -103 -212q-86 -106 -195.5 -173 t-203.5 -104q-6 -4 -22.5 -12t-35 -12t-39 0t-35.5 28q-16 23 -10 45.5t6 38.5q-14 129 -27.5 285t-24.5 308.5t-20.5 284.5t-17.5 212q-14 12 -22 36.5zM172 616q6 -74 10 -119.5t8.5 -98t11.5 -124t21 -196.5q31 14 71 32.5t82 44t82 60.5t74 84q53 77 83 137q15 30 15 59 q0 30 -16 60q-23 43 -70 69q-46 28 -106 36q-27 4 -56 3q-36 1 -74 -5q-68 -10 -136 -42z" />
<glyph unicode="c" horiz-adv-x="825" d="M25 455q-3 31 -3 60q0 120 47 205q58 105 169 171q39 23 102 32q25 4 52 3q40 0 85 -8q74 -14 146.5 -51.5t130.5 -106.5q2 -2 9 -7t14 -13.5t13.5 -19t4.5 -22.5q-8 -50 -37 -70q-13 -9 -32 -9q-22 0 -50 12q-10 4 -16.5 14t-9.5 22.5t-5 22.5t-4 15q-29 39 -78 62.5 t-101 32.5q-47 8 -88 8h-10q-46 -1 -61 -11q-92 -55 -131 -133q-31 -62 -31 -159q0 -25 2 -52q2 -37 19.5 -87.5t48.5 -99.5t78 -87t112 -50q29 -5 54 -5q30 0 52 8q40 15 87 54q57 49 87 63.5t40 6.5t4 -30.5t-18.5 -49t-27.5 -49.5t-24 -29q-25 -18 -55.5 -36.5t-65 -32 t-70.5 -19.5q-18 -3 -35 -3t-34 3q-84 10 -149.5 56.5t-112.5 110t-74.5 137t-33.5 141.5z" />
<glyph unicode="d" horiz-adv-x="962" d="M31 411q-1 15 -1 30q0 71 24 139q28 82 93 131q57 43 131 73t152 40q28 3 57 4q49 0 95 -10q74 -16 137 -68q4 47 14 158.5t15 308.5q-14 10 -20.5 39.5t5.5 54.5q16 33 56 42q10 2 19 2q28 0 50 -20q23 -23 22 -57.5t-14 -44.5q-8 -133 -16 -250t-10 -247v-53 q0 -109 6 -237q8 -160 33 -380q14 -10 18 -44t-12 -57q-20 -29 -56 -32h-8q-31 0 -53 22q-20 20 -19 54t13 46q-4 49 -9 110.5t-10 102.5q-31 -49 -81 -101t-120 -82q-65 -28 -145 -28h-11q-87 2 -189 62q-78 45 -119 125t-47 167zM146 402q6 -58 34.5 -109t75.5 -78 q72 -41 132 -43h11q54 0 99 20q49 22 88 60.5t66.5 79.5t44 77.5t22.5 55.5v127q-10 8 -33.5 28.5t-28.5 24.5q-59 45 -121 57q-33 7 -65 7q-27 -1 -55 -5q-58 -10 -107 -34.5t-84 -53.5q-49 -39 -67 -97q-14 -43 -14 -86q0 -16 2 -31z" />
<glyph unicode="e" horiz-adv-x="903" d="M-1 435.5q1 21.5 12.5 40t33.5 24.5q16 4 33.5 3t23.5 -5q20 166 87 257t157 111q15 4 40 3q16 0 37 -1q52 -4 118.5 -30.5t141.5 -83t146 -152.5q4 -6 18.5 -19.5t25 -30.5t9.5 -38.5t-26 -44.5q-20 -16 -45 -15t-45 17q-18 -2 -66.5 -7t-109 -11.5t-125 -13.5 t-117.5 -14t-88 -13t-35 -13q6 -37 18.5 -83t37 -90t64.5 -77.5t101 -44.5q34 -5 62 -5q44 1 74 13q46 20 63 40q53 59 81 77.5t38 11t6 -34t-14.5 -56t-23.5 -57t-21 -36.5q-10 -10 -36 -24.5t-63 -25.5t-83 -17q-23 -3 -47 -3t-48 3q-90 12 -151.5 61t-100.5 110.5 t-56 124t-20 99.5q-29 -31 -41 -29t-32 11q-18 6 -26.5 26.5t-7.5 42zM223 508q55 12 141.5 20.5t168 14.5t140 9t56.5 5q-47 61 -95 102t-93 63t-87 30q-27 5 -52 5q-13 0 -25 -1q-43 -6 -68.5 -26.5t-42 -54.5t-26 -76t-17.5 -91z" />
<glyph unicode="f" horiz-adv-x="757" d="M33 670.5q-2 19.5 4 37t22 27.5q29 16 53.5 8t39.5 -12q25 2 63.5 0t81.5 -2q-18 119 -50 233.5t-47 211.5q-6 45 -6 84q0 48 10 88q17 75 97 116q31 2 58 2q41 0 72 -4q52 -6 94 -40t81 -105.5t92 -196.5q18 -10 33.5 -32.5t5.5 -55.5q-8 -33 -46 -48q-17 -7 -33 -7 q-20 0 -37 10q-27 14 -30 41t-3 43q-49 125 -82 182.5t-58.5 78t-49 19.5t-52.5 7q-45 -31 -46 -94v-6q0 -60 18 -139q18 -83 46.5 -181t45.5 -203h50h32.5t35 1t54.5 5q56 5 90 5q17 0 28 -1q35 -4 40 -13t-14 -23.5t-46 -27.5t-53.5 -22.5t-36.5 -11.5q-39 -6 -60.5 -9 t-36 -6t-28.5 -4t-39 -1q12 -72 20.5 -159t12.5 -170t5 -150v-19q0 -54 -5 -82q10 -12 16 -41t-8 -53q-18 -33 -57 -42q-11 -2 -21 -2q-26 0 -47 17q-12 12 -15 27.5t-2 31t5 29t6 19.5q8 29 9 97v36q0 54 -2 118q-3 85 -11 175t-19 164q-45 0 -81.5 1t-65.5 1 q-16 -12 -43 -20.5t-51 5.5q-16 8 -26.5 25.5t-12.5 37z" />
<glyph unicode="g" horiz-adv-x="796" d="M35 465q2 72 25.5 134.5t58.5 98.5q117 119 241 142q34 6 67 6q83 0 151 -41q0 23 8 41q16 35 56 43q10 2 19 2q28 0 50 -19q12 -10 15 -25.5t2 -30.5t-5 -29.5t-6 -22.5q5 -52 5 -100q0 -16 -1 -32q-2 -61 -6 -120t-5 -119v-13q0 -54 7 -110q18 -145 20 -260v-17 q0 -105 -25 -185q-26 -87 -87.5 -142t-165.5 -82q-44 -11 -86 -11q-20 0 -41 3q-60 8 -104 39t-68 83q-18 37 -18 82q0 18 3 38q8 55 28 102t39 58.5t32 -25.5q7 -23 7 -73q0 -32 -3 -75q-2 -33 10 -60.5t36.5 -44.5t59.5 -22q8 -1 17 -1q28 0 61 12q66 20 108 58t62 103 q20 63 20 154v10q-1 97 -22 232q-27 -43 -78 -76t-114 -44q-28 -5 -57 -5q-37 0 -75 8q-69 14 -133 68q-61 53 -85 125q-23 66 -23 132v11zM145 472v-11q0 -42 13 -84q16 -47 57 -82q56 -52 116 -52h3q61 1 113.5 31.5t88 79.5t46.5 95q4 35 9 57t9 43.5t5 48.5v20 q0 21 -1 50q-43 43 -96 56q-31 8 -63 8q-22 0 -45 -4q-54 -9 -105 -37.5t-90 -65.5q-25 -23 -41.5 -64t-18.5 -89z" />
<glyph unicode="h" horiz-adv-x="800" d="M23 28.5q6 28.5 20 39.5q6 156 6 280q0 46 -1 88q-3 154 -6 279q-2 94 -2 180v57q1 112 15 240q-16 12 -24 42t6 56q8 18 28.5 28.5t43 11.5t42 -6t29.5 -24q18 -35 11 -61.5t-17 -34.5q-12 -117 -15 -209q-2 -69 -2 -126v-37q1 -70 5 -119t6 -80q94 117 208 129 q15 2 29 2q96 0 177 -68q84 -72 124 -148q38 -75 48 -158q4 -34 5 -70q-1 -50 -9 -104q-14 -92 -33 -196q8 -16 3 -49.5t-30 -52.5q-16 -10 -35.5 -13t-39 2t-34 20.5t-18.5 41.5q-4 31 11.5 52.5t33.5 35.5q18 96 30 170q7 46 7 88q0 25 -3 49q-7 62 -37 118.5t-95 117.5 q-33 31 -76 39q-13 3 -27 3q-30 0 -62 -12q-46 -18 -91 -61t-84 -110q-2 -37 -1 -59.5t1 -59.5t-2 -99.5t-8 -177.5q4 -4 10 -16t9 -29.5t-2 -36t-23 -34.5q-21 -18 -48 -18q-10 1 -22 3q-41 10 -55 43q-12 25 -6 53.5z" />
<glyph unicode="i" horiz-adv-x="401" d="M99 354q1 70 7.5 142.5t18.5 156.5q-16 14 -23.5 40t11.5 57q20 33 58 40q8 2 16 2q28 0 49 -20q12 -10 17 -26.5t5 -32t-4 -28.5t-10 -19q-14 -139 -20.5 -225.5t-6.5 -145.5t6.5 -105.5t16.5 -105.5q10 -16 19 -42t-3 -46q-20 -37 -60 -43q-8 -1 -15 -1q-30 0 -52 19 q-23 23 -20.5 55.5t12.5 49.5q-11 72 -17 140q-5 58 -5 117v21zM135 1040v5q0 34 23 61q22 27 60 29h6q34 0 61 -21q27 -24 30 -60v-8q0 -32 -20 -57q-23 -29 -61 -33q-5 -1 -10 -1q-32 0 -58 24q-29 23 -31 61z" />
<glyph unicode="j" horiz-adv-x="790" d="M16 12q6 31 21.5 68t34 67.5t36 47t26.5 7.5t8 -51t-19 -128q-7 -35 -7 -64q0 -44 16 -77q26 -54 74 -84.5t104 -41.5q40 -7 71 -7q12 0 22 1q74 6 122 88t67 212q11 79 11 171q0 60 -5 126q-12 167 -55 343q-14 12 -20.5 42t5.5 54q8 16 24.5 26.5t35 14.5t36 0 t29.5 -16q10 -10 12.5 -24.5t0.5 -28t-4 -25.5t0 -18q51 -215 60 -409q2 -44 2 -85q0 -143 -24 -259q-32 -148 -106 -237.5t-184 -93.5q-11 -1 -23 -1q-46 0 -107 12q-77 16 -142.5 58t-104.5 118q-25 49 -25 114q0 37 8 80zM430 1006v6q0 34 21 61q23 27 61 29h7 q34 0 61 -21q27 -25 30 -61v-8q0 -30 -20 -56q-25 -29 -64 -32q-5 -1 -9 -1q-33 0 -58 23q-27 23 -29 60z" />
<glyph unicode="k" horiz-adv-x="903" d="M33 520q-6 27 2 44.5t22.5 27.5t31.5 14t30 6q0 115 4 201t9 161t10 146.5t8 157.5q-14 10 -23.5 36.5t10.5 57.5q12 18 31.5 27.5t39 10.5t38 -7t30.5 -23q20 -25 12.5 -55.5t-24.5 -42.5v-30q0 -93 -10 -233q-12 -163 -12 -386q63 16 114.5 35.5t96.5 41t88 44t90 45.5 q4 23 20.5 43t55.5 22q20 0 38.5 -10t29.5 -26.5t16.5 -36t-0.5 -37.5q-10 -31 -41 -42.5t-50 -6.5q-88 -53 -192.5 -103.5t-239.5 -83.5q145 -78 272.5 -175t264.5 -200q2 -2 13 -4t24.5 -7t26 -15.5t18.5 -28.5q5 -15 5 -28q0 -26 -18 -46q-24 -28 -58 -28h-9 q-31 2 -49.5 22.5t-22.5 36.5q-80 53 -141.5 101.5t-116.5 91.5t-111.5 82.5t-125.5 76.5q0 -61 -2 -101t-3.5 -75t-3.5 -76t-2 -102q0 -4 5.5 -14.5t8.5 -24.5t3 -29.5t-10 -29.5q-25 -37 -70 -37t-70 31q-10 12 -9 27.5t6 30.5t10.5 26.5t5.5 15.5q0 82 1 130t1 87t1 81 t1 112q-8 2 -19.5 2t-22 5t-20.5 19t-18 45z" />
<glyph unicode="l" horiz-adv-x="348" d="M84.5 1237q-10.5 27 11.5 57q12 18 31.5 27.5t39 10.5t38 -7t31.5 -22q18 -25 11 -55.5t-24 -43.5q6 -61 15.5 -189t15.5 -289t6 -335t-10 -325q10 -14 19.5 -42t-15.5 -57q-26 -31 -64 -31h-10q-45 4 -65 37q-16 27 -6 56.5t26 40.5q5 142 5 289v49q-1 172 -5 325.5 t-11 276.5t-15 188q-14 12 -24.5 39z" />
<glyph unicode="m" horiz-adv-x="946" d="M41 -6.5q-2 14.5 2 28t10 24.5t10 20q0 53 1.5 131.5t2.5 165t2 169t1 144.5q0 31 -3.5 57.5t-0.5 42.5q-10 10 -17.5 39t6.5 51q18 29 55 33h8q31 0 52 -27q20 -27 15 -47t-15 -37q2 -16 3 -29.5t1 -31.5q18 29 34.5 42t30 18.5t23.5 5.5h17q29 0 64.5 -15.5t66 -55.5 t48.5 -110q12 -48 11 -113q0 -30 -2 -63q10 98 30.5 167t49 112t62.5 62.5t71 21.5h4q41 0 93 -36q54 -38 90 -124t40 -226q0 -9 1 -19q0 -134 -52 -324q10 -16 6 -42t-35 -48q-23 -15 -45 -15q-14 -1 -28 5q-36 16 -43 50q-6 27 5 50.5t29 31.5q51 170 53 284v15 q0 105 -20 167q-22 68 -55 96t-47 28q-12 0 -28.5 -11t-39 -58.5t-50.5 -146.5t-58 -273q0 -16 -4 -42t-31 -42q-31 -20 -57 -20h-6q-28 3 -52 40q-16 27 -3 53.5t26 36.5q10 98 10 171q0 26 -1 50q-5 88 -21.5 139.5t-40 72t-44.5 20.5q-10 0 -23 -13.5t-26.5 -34t-25 -47 t-19.5 -50.5q0 -35 2 -70t3 -85v-56.5v-68.5q-1 -75 -7 -191q8 -14 18.5 -42t-8.5 -51q-14 -18 -32.5 -27t-38 -9t-36.5 8t-30 22q-10 12 -12 26.5z" />
<glyph unicode="n" horiz-adv-x="851" d="M59.5 827q-6.5 29 14.5 58q12 18 31.5 27.5t39 10.5t38 -7.5t30.5 -22.5q20 -25 12 -55.5t-24 -42.5q-2 -59 -5 -107.5t-8 -99.5q49 82 114 127q66 45 130 63q45 12 87 12q18 0 36 -2q59 -8 98 -32q82 -49 119 -121t47 -159q5 -46 5 -95q0 -45 -4 -93q-9 -101 -17 -212 q12 -14 16 -49v-9q0 -30 -24 -53q-29 -27 -57 -27l-13 2q-35 8 -57 35q-10 12 -11.5 26.5t3 28t12.5 25t16 15.5q10 106 18 197q5 48 5 92q1 39 -3 75q-8 76 -34.5 132.5t-87.5 92.5q-32 18 -77 18q-1 -1 -2 -1q-46 0 -98.5 -32t-108.5 -100.5t-107 -185.5 q-4 -37 -3.5 -60.5t4 -51t8.5 -69.5t9 -116q10 -10 18.5 -37.5t-14.5 -58.5q-12 -18 -31.5 -27.5t-39 -10.5t-38 7.5t-30.5 22.5q-18 25 -11 55.5t23 44.5q-6 78 -11 135.5t-8 105.5t-3 93t1 99.5t4 125t9 170.5q-14 12 -20.5 41z" />
<glyph unicode="o" horiz-adv-x="886" d="M20 368q-1 12 0 23q0 91 31 177q35 98 111 159q86 69 176 99q87 30 170 29h5q85 -1 156.5 -29.5t118.5 -77.5q45 -49 64.5 -99.5t23.5 -103.5q1 -13 0 -27q0 -41 -8 -84q-10 -58 -24 -119q-6 -29 -32 -67.5t-66.5 -79.5t-97.5 -76q-58 -34 -128 -54q-59 -17 -126 -17 q-12 1 -24 1q-81 4 -169 39q-86 35 -131.5 120t-49.5 187zM141 378q6 -68 37 -125.5t86 -82.5q58 -26 121 -26h23q76 6 142 34.5t114.5 73.5t60.5 94q13 55 23 96q10 37 9 70v6q-1 35 -14.5 67.5t-46.5 71.5q-42 49 -104 65q-42 11 -87 10q-21 0 -41 -2q-66 -7 -128 -34.5 t-105 -64.5q-53 -47 -75 -116q-17 -54 -16 -107q0 -15 1 -30z" />
<glyph unicode="p" horiz-adv-x="866" d="M22 -371.5q11 29.5 27 39.5q16 135 28.5 261t16.5 263q2 54 2 112q0 87 -4 182q-6 157 -26 356q-14 14 -19.5 43.5t8.5 54.5q10 16 28.5 25.5t39 10.5t39 -6t31.5 -22q20 -25 12 -55.5t-23 -44.5q8 -66 13.5 -118t9.5 -93q33 43 86 84t117 65q62 24 130 24h6 q70 -1 138 -44q76 -49 116 -128t44 -163v-19q0 -74 -26 -144q-31 -79 -99 -128q-55 -43 -118.5 -70.5t-129.5 -31.5q-11 -1 -22 -1q-55 0 -109 17q-64 19 -121 72q-2 -53 -13 -178t-40 -330q12 -12 20 -38q3 -7 3 -14q0 -21 -19 -46q-25 -31 -62 -31q-6 0 -11 1 q-44 5 -66 36q-18 29 -7 58.5zM227 428q-2 -18 -2 -34q0 -20 3 -36q5 -28 14.5 -46.5t18.5 -27t13 -10.5q43 -43 90 -60q39 -14 78 -14h14q46 3 92 22t87 50q49 37 69 88q16 43 16 88q0 9 -1 18q-4 54 -28.5 105.5t-65.5 87.5q-39 35 -82 41q-11 1 -23 1l-63 -11 q-43 -16 -83 -48t-71 -68.5t-51.5 -75.5t-24.5 -70z" />
<glyph unicode="q" horiz-adv-x="870" d="M20 466q-1 15 -1 30q0 74 27 145q32 86 108 141q129 96 257 104q11 1 22 1q115 0 206 -80q12 -10 37.5 -14.5t48.5 -12.5t32 -25.5t-14 -49.5q35 -35 47.5 -53.5t28.5 -43.5q27 -39 26 -56t-17.5 -19.5t-43 9t-53.5 29.5q-4 -23 -7 -59.5t-6 -71t-4 -61.5t-1 -29 q-4 -80 -10.5 -154.5t-8.5 -150.5q-1 -22 -1 -44q0 -55 4 -113q5 -81 28 -175q31 47 58.5 82t74.5 84q20 20 54 42t56.5 25t20.5 -23.5t-53 -100.5q-35 -49 -70 -105.5t-67.5 -103.5t-62 -78t-54.5 -29q-23 2 -34 10.5t-17 23t-9.5 32.5t-9.5 41q-25 102 -33 187 q-6 68 -6 130v30q2 75 9.5 144.5t11.5 141.5q-29 -35 -72 -59.5t-97 -34.5q-31 -7 -66 -7q-24 0 -49 3q-62 8 -126 40q-74 35 -115.5 112t-48.5 166zM133 475q6 -53 36 -101t75 -81q37 -25 87 -30q11 -1 22 -1q39 0 79 14q51 17 93.5 57.5t60.5 106.5q16 59 24 100 q6 32 6 58v12q-2 31 -16 54.5t-43 52.5q-55 57 -124 57q-17 0 -34 -4q-90 -16 -178 -92q-53 -43 -73 -96q-16 -42 -16 -83q0 -12 1 -24z" />
<glyph unicode="r" horiz-adv-x="770" d="M34 16.5q7 30.5 23 44.5q-10 129 -14 222.5t-4 162t3 117.5t6 89t6 75t5 78q-16 12 -24 38.5t12 57.5q12 18 30.5 27.5t39 10.5t38 -7t29.5 -23q23 -29 12.5 -59.5t-22.5 -44.5q-4 -10 -7 -49t-5 -88q68 61 133 94t125 42q27 4 51 4q31 0 59 -6q52 -11 91 -38 q61 -39 85 -90q17 -36 17 -73q0 -15 -2 -30q12 -14 21.5 -40.5t-13.5 -55.5q-12 -18 -30.5 -27.5t-39 -9.5t-38 8.5t-29.5 22.5q-23 29 -12.5 58.5t22.5 43.5q1 9 1 17q0 48 -50 82q-33 16 -77 17h-5q-42 1 -87 -15q-48 -16 -93 -48t-80 -79q-12 -16 -21.5 -26.5t-16.5 -28 t-11 -44t-4 -74.5t3 -123t11 -186q12 -10 23.5 -35.5t-11.5 -58.5q-12 -18 -31.5 -27.5t-40 -10.5t-38 7.5t-29.5 22.5q-18 25 -11 55.5z" />
<glyph unicode="s" horiz-adv-x="831" d="M35 510q-2 24 -2 46q1 82 29 146q36 80 97.5 134.5t135.5 83t135 34.5q23 2 44 2q42 0 79 -8q55 -12 94 -37.5t60.5 -60.5t21.5 -74q14 -12 24.5 -39.5t-12.5 -58.5q-24 -36 -67 -36h-2q-44 1 -70 30q-20 25 -12 55.5t24 42.5q0 75 -115 75q-29 0 -67 -5 q-55 -8 -106.5 -28.5t-91.5 -57.5q-40 -36 -62 -90q-21 -49 -20 -117v-12q2 -41 10 -74t24.5 -53.5t40 -24.5t54.5 12q59 33 115.5 46.5t103.5 14.5h10q42 0 72 -8q34 -8 49 -18q35 -25 62.5 -57.5t35.5 -78.5q2 -14 2 -29q-1 -35 -13 -81q-18 -64 -73 -151 q-29 -45 -69.5 -86t-86 -73t-89.5 -50.5t-78 -18.5q-49 0 -72 17.5t-27 42.5q-20 10 -35.5 33.5t-3.5 60.5q14 41 56 53q14 4 28 3q26 0 47 -15q23 -14 27 -35.5t0 -40.5q53 12 115.5 55.5t103.5 108.5q33 55 47.5 95t14.5 70t-10.5 48t-26.5 31q-8 8 -35 11q-10 1 -22 1 q-20 0 -44 -3q-39 -5 -89 -20.5t-105 -41.5q-23 -11 -48 -11q-18 0 -36 6q-43 15 -80 49.5t-61.5 85t-30.5 101.5z" />
<glyph unicode="t" horiz-adv-x="819" d="M45 911q23 18 53.5 15.5t44.5 -13.5q39 6 66 9.5t48.5 5.5t38.5 3t38 1q2 16 5 48t8 69.5t9 77.5t9 73q-14 10 -22.5 36t11.5 54q26 38 63 38h2q38 -1 60 -32q23 -29 13.5 -56.5t-21.5 -39.5q-6 -31 -10 -68.5t-7 -74.5t-5.5 -69t-4.5 -50q57 6 92 8t63 0t54.5 -6 t63.5 -10q2 0 11 3t21.5 4t27 0t26.5 -11q31 -23 34 -62v-6q0 -35 -36 -59q-16 -10 -30.5 -12.5t-28 2t-22.5 11.5t-15 15q-31 8 -54.5 13.5t-49.5 7.5t-61.5 0t-90.5 -7v-147t1 -179t3 -187.5t6 -174.5q-2 -33 13 -59.5t40 -37.5t51.5 -4t46.5 42q0 10 4 20t9.5 18.5 t15.5 18.5q23 20 47 20q8 0 14 -2q32 -7 45 -24q18 -23 22.5 -46.5t-15.5 -51.5q-27 -31 -51.5 -31t-24.5 -2q-53 -47 -88 -58.5t-76 -11.5q-86 0 -128 65.5t-42 207.5q-2 82 -4 168t-4 167t-3 153.5t-1 129.5q-20 0 -37 -1t-37 -2t-48 -5t-69 -10q-10 -8 -32.5 -20.5 t-55.5 10.5q-38 24 -38 58q0 35 32 58z" />
<glyph unicode="u" horiz-adv-x="854" d="M39 819q6 25 27.5 42.5t46 20.5t48 -9.5t34.5 -47.5q4 -16 1 -43.5t-14 -42.5q2 -139 11.5 -240.5t29 -175t53 -122.5t82.5 -84q52 -34 89 -34q12 0 22 3q43 14 71.5 66.5t48 135.5t38.5 175q8 37 10 66.5t2 60.5t1 67.5t7 90.5q-10 23 -15 44t11 48q18 27 41 35 t44.5 2.5t38.5 -18.5t26 -30q4 -10 2 -39.5t-15 -41.5q-10 -104 -13 -172q-2 -51 -2 -102v-34q1 -68 6 -154.5t13 -226.5q0 -2 6.5 -8t13.5 -15t11 -22.5t-2 -27.5q-23 -52 -68 -54q-2 0 -3 -1q-43 0 -70 40q-18 23 -8 45.5t8 32.5q-4 33 -5 60.5t-3 52.5 q-54 -154 -146 -194q-28 -12 -60 -12q-74 0 -169 64q-74 49 -120 116t-71 155q-24 89 -32 199q-4 57 -3 121q0 60 3 126q-14 14 -22.5 38t-4.5 44z" />
<glyph unicode="v" horiz-adv-x="858" d="M0 821q-4 18 6 41t28.5 38t45 20.5t57.5 -11.5q35 -20 37 -58t-4 -54q61 -123 111.5 -216.5t98.5 -167t94 -132t97 -109.5q18 63 41 145t47.5 170t51 179.5t53.5 175.5q-4 18 -4 45.5t16 44.5q12 12 33.5 18t42 3t39 -17t24.5 -45q8 -29 -9 -55.5t-34 -36.5 q-33 -109 -59.5 -200t-51 -175t-49 -166t-53.5 -172q-12 -37 -21 -58.5t-23.5 -26.5t-37 8.5t-57.5 47.5q-68 70 -123 135.5t-108 144.5t-109.5 179t-124.5 238q0 2 -8 6t-17.5 12t-18.5 20.5t-11 28.5z" />
<glyph unicode="w" horiz-adv-x="1054" d="M20.5 717q-8.5 31 4.5 57q8 18 28.5 28.5t43 12.5t42 -5t29.5 -24q10 -16 9 -32.5t-5 -28.5t-10 -21.5t-6 -13.5q10 -82 16 -147.5t20.5 -134t43 -149.5t81.5 -193q29 74 46.5 130t26.5 111t12.5 120t3.5 157q-8 8 -22 36q-6 12 -5 28q0 20 10 44q14 35 31.5 51.5 t35 19.5t36 -5t34.5 -21q37 -31 78 -94q43 -66 75 -120t58.5 -109.5t51 -115.5t53.5 -138q27 76 42 137t21 115q5 47 5 90v14q-1 49 -5 100q-14 12 -23.5 43t5.5 58q8 18 28.5 28.5t43 11.5t42 -6.5t29.5 -23.5q18 -37 12 -61.5t-18 -34.5q-1 -35 -1 -75v-42v-14 q0 -57 -7 -122q-8 -73 -28.5 -153t-63.5 -162q-31 -59 -55.5 -76.5t-45 -11t-37 30t-26.5 49.5q-33 80 -59.5 146.5t-54.5 127t-58.5 116t-69.5 114.5q0 -61 -3.5 -124.5t-14.5 -133.5t-32.5 -145.5t-59.5 -159.5q-23 -45 -47.5 -61.5t-49 -13.5t-44 20.5t-31.5 40.5 q-61 111 -98.5 223t-58 209.5t-27.5 167t-9 94.5q-14 10 -22.5 41z" />
<glyph unicode="x" horiz-adv-x="1011" d="M53 721q-2 12 -2 23q0 37 25 61q28 27 58 27q5 0 9 -1q18 -2 30.5 -11t20 -22.5t11.5 -27.5t6 -27q20 -18 56 -46.5t76 -62.5t79 -70t67 -68q37 51 67 91t59.5 74.5t59.5 68.5t66 77q-4 23 8.5 44t34.5 32q18 8 38 4t35 -16.5t25.5 -30t10.5 -35.5q-2 -41 -22.5 -58.5 t-43.5 -19.5q-41 -45 -71.5 -78t-58 -65.5t-55.5 -70.5t-62 -91q27 -23 61.5 -53.5t73.5 -67.5t77.5 -78t73.5 -84q18 0 46 -13t34 -52q2 -11 2 -22q0 -36 -22 -59q-24 -26 -54 -26h-8q-27 2 -41 11.5t-22 21.5t-10.5 26.5t-4.5 24.5q-31 45 -69.5 87t-76.5 77t-74 63.5 t-60 49.5q-35 -47 -66.5 -85t-65.5 -77t-69 -85t-74 -110q6 -16 -8 -42.5t-41 -37.5q-12 -4 -23 -4q-23 -1 -45 15q-32 24 -34 63v7q0 36 20 52q22 18 35 19q45 72 81 123t66.5 91t61.5 74t66 72q-78 66 -149 138.5t-138 126.5q-14 -2 -40 13t-30 40z" />
<glyph unicode="y" horiz-adv-x="909" d="M19.5 770q7.5 21 24.5 38t38.5 25.5t42.5 2.5q29 -10 44 -39t11 -45q33 -49 66 -101.5t72.5 -108t91 -114.5t122.5 -123q49 113 97.5 223.5t115.5 208.5q2 2 2.5 12.5t2.5 23.5t7 26.5t15 21.5q16 14 40 13.5t44.5 -11t34.5 -28t14 -35.5q-2 -39 -21.5 -56.5t-35.5 -21.5 q-68 -100 -116 -217t-97 -236q4 -4 9 -6t11 -8q41 -35 47.5 -57.5t-9 -33.5t-44 -12t-59.5 7q-16 -49 -42 -100.5t-55.5 -111t-61.5 -130t-58 -160.5q10 -14 9 -38.5t-32 -53.5q-16 -14 -35.5 -18.5t-38 1t-33 16.5t-18.5 27q-12 39 0.5 59.5t26.5 31.5q35 98 67.5 173.5 t61.5 139t54.5 118t45.5 107.5q-92 86 -152.5 152.5t-101.5 123t-72.5 108.5t-68.5 112q-4 4 -28.5 12t-37.5 43q-8 18 -0.5 39z" />
<glyph unicode="z" horiz-adv-x="860" d="M0 653.5q2 22.5 14 36.5q29 25 56.5 25t40.5 -8q115 33 196.5 49t150 26.5t133 19.5t142.5 25q27 23 63 28t48 -11q20 -27 17 -47.5t-16.5 -37t-33.5 -32.5t-33 -35q-68 -96 -120 -166.5t-100 -140.5t-98 -149.5t-112 -192.5q72 14 124 21.5t91 12.5t71 8t64 13 q8 12 34 24.5t52 6.5q20 -4 35 -22.5t21 -40t3 -43t-18 -33.5q-29 -24 -54 -24q-3 0 -7 1q-28 4 -45 13q-47 -12 -85 -16.5t-84 -9.5t-109.5 -15.5t-157.5 -32.5q-20 -4 -31.5 -18.5t-24 -24.5t-30 -10t-47.5 22q-16 12 -16.5 28.5t8 33t20.5 28.5t20 17q4 4 16.5 24.5 t18.5 28.5q119 227 225.5 387t188.5 264q-47 -10 -94.5 -15t-102.5 -13.5t-122.5 -22.5t-155.5 -41q-10 -14 -33 -29.5t-60 -11.5q-23 0 -37 16.5t-21 39t-5 45z" />
<glyph unicode="{" horiz-adv-x="567" d="M2 813q-16 41 7.5 76t64.5 43q27 6 46 -6.5t48 -34.5q10 -2 14 3t8 21q18 106 42 211t48.5 193t52 150.5t56.5 82.5q-2 12 5 26.5t19.5 27t29 21.5t34.5 9q63 0 82.5 -37.5t13.5 -74.5q-2 -18 -11 -29.5t-22.5 -19t-27.5 -10.5t-27 -1q-27 -20 -50 -80.5t-43.5 -149.5 t-36 -198.5t-23.5 -225.5t-8 -231.5t10 -218t31.5 -183.5t56.5 -128q20 6 51 -2t43 -35q23 -45 0.5 -85t-70.5 -50q-18 -4 -34.5 3t-28.5 19.5t-20.5 26t-8.5 19.5q-53 31 -90 110.5t-57.5 188t-26.5 233.5t4 248q0 10 -21.5 21.5t-43.5 17.5q-10 -8 -25.5 -10t-33 3t-34 18 t-24.5 38z" />
<glyph unicode="|" horiz-adv-x="401" d="M89 -127.5q5 31.5 20 45.5q-2 84 3 216t12 282.5t17.5 306.5t18.5 288t14 226t8 123q-14 10 -17 41t13 53q10 16 27.5 23.5t37 7.5t37 -8.5t29.5 -22.5q23 -27 13.5 -55.5t-21.5 -42.5q0 -41 -5 -144.5t-12.5 -238.5t-16.5 -291t-17 -302.5t-14.5 -270t-8.5 -195.5 q14 -12 19.5 -44t-17.5 -56q-12 -16 -29.5 -23.5t-36 -6.5t-35.5 8t-28 24q-16 25 -11 56.5z" />
<glyph unicode="}" horiz-adv-x="579" d="M-40 1487q5 35 50 63q23 14 46.5 13.5t43 -10t35 -20.5t21.5 -13q41 -16 77.5 -89t67.5 -179.5t54.5 -233.5t37.5 -250q29 6 70 2t63 -20q18 -12 26.5 -33t7.5 -42.5t-9.5 -42t-22.5 -32.5q-23 -20 -54.5 -12t-47.5 18q-16 2 -20.5 1t-4.5 -38q8 -109 -6 -216 t-38.5 -198.5t-54.5 -159t-56 -91.5q-4 -12 -13.5 -25.5t-22.5 -26t-29.5 -20.5t-35.5 -6q-66 4 -81 38t-5 73q4 18 13.5 28t17.5 14.5t15.5 6.5t9.5 4q49 49 79.5 153.5t42 238.5t6.5 284.5t-25.5 291t-54.5 255t-79 180.5q-18 -8 -48 -4t-52 28q-29 35 -24 70z" />
<glyph unicode="~" horiz-adv-x="1159" d="M46 1310q-7 42 15 74q16 25 51 24t50 -9q53 29 120.5 44t145.5 11q43 -2 81 -19.5t72.5 -37t66.5 -32.5t65 -5q37 10 61.5 19.5t44 17.5t37.5 18t45 23q90 45 131 57t49.5 4t-7 -30.5t-39 -47t-48.5 -47t-31 -28.5q-39 -41 -97 -67t-132 -34q-47 -6 -87 3t-77 23.5 t-71.5 32t-71.5 27.5q-43 12 -72 11t-52.5 -10t-45 -22.5t-47.5 -25.5q-16 -29 -53 -42t-62 3q-35 23 -42 65z" />
<glyph unicode="&#xa1;" horiz-adv-x="632" d="M201 -260.5q2 12.5 8 23t13 16.5t9 12q14 47 27.5 121t24 161t20.5 181t18.5 180t14.5 159t12 116q2 12 6 50t11.5 76.5t15.5 66.5t18.5 23t21.5 -57.5t25 -171.5q4 -43 4.5 -112.5t-6 -155.5t-16.5 -179t-22.5 -181t-26.5 -165t-29 -128q0 -2 3 -12.5t6 -24.5t1 -29.5 t-12 -27.5q-31 -39 -76 -33t-67 61q-6 18 -4 30.5zM332 1055q-12 37 3 71.5t48 44.5q37 16 72 1t45 -50q12 -37 -2.5 -71.5t-48.5 -44.5q-35 -12 -70 2t-47 47z" />
<glyph unicode="&#xa2;" horiz-adv-x="847" d="M45 387q8 115 32.5 187.5t64.5 116.5t95.5 67.5t124.5 40.5q-4 55 -8 116.5t-6 102.5q0 4 -6 14t-11 22.5t-7 27t4 28.5q8 16 26.5 29.5t40 16.5t43 -6t35.5 -38q8 -16 8 -31.5t-4 -28t-9 -21.5t-5 -11q2 -43 4 -71.5t4 -52.5t4 -46.5t4 -50.5q35 -10 74 -25.5t78 -35 t72.5 -44t56.5 -51.5q6 -2 18.5 -6t24.5 -12.5t20 -23.5t6 -38q-2 -57 -37.5 -72.5t-70.5 -1.5q-23 10 -34 36t-15 36q-53 59 -100.5 82t-94.5 37q4 -74 6 -144.5t5.5 -140t8.5 -141.5t15 -150q23 6 40 11.5t40 23.5q47 37 70.5 46.5t30.5 1t1 -29t-17 -44t-23.5 -44 t-20.5 -26.5q-27 -23 -56.5 -29t-52.5 -14q8 -53 16.5 -103.5t16.5 -91.5q12 -12 22.5 -40.5t-1.5 -55.5q-10 -20 -29 -33.5t-40.5 -15.5t-43 8t-35.5 39q-18 33 -10 53.5t14 30.5q-4 53 -10 100.5t-12 92.5q-90 -14 -161 20.5t-119 96t-70.5 139t-16.5 147.5zM150 369 q-2 -35 11 -86.5t44 -96.5t79.5 -73.5t116.5 -18.5q-10 84 -15 159t-8 147.5t-6 143t-7 144.5q-51 -14 -88 -35.5t-63 -56.5t-41 -90t-23 -137z" />
<glyph unicode="&#xa3;" horiz-adv-x="1212" d="M40 -98.5q-5 45.5 19.5 98.5t87 104.5t179.5 81.5q41 12 87 6t99 -22l9 40.5t9 45.5q-12 4 -29.5 6t-27.5 4q-6 -2 -19.5 -6t-28.5 -5t-29.5 3t-26.5 18q-29 35 -19 76t45 56q29 12 53.5 1.5t32.5 -20.5q14 -2 32.5 -5t35.5 -7q4 12 4 33.5t4 33.5q-10 4 -26.5 6.5 t-26.5 6.5q-8 -4 -20.5 -9.5t-28 -5.5t-29.5 4.5t-27 18.5q-29 35 -17.5 74t46.5 55q25 10 52.5 1t37.5 -20q12 -4 27.5 -6t29.5 -6q2 23 4.5 50.5t4.5 54.5q-18 0 -53 3t-72 7t-69 8t-44 8q-16 -12 -52 -12t-61 29q-14 18 -17 39.5t3 41t20.5 36t34.5 22.5q14 6 32 1 t32 -13.5t24.5 -16.5t14.5 -10q2 0 22.5 -2t50 -5t66.5 -7t74 -6q4 51 31.5 116.5t72.5 122.5t106.5 98t133.5 46q35 2 82 -12.5t82 -51.5t42 -100.5t-38 -155.5q-23 -47 -74 -82t-110.5 -57.5t-117 -34.5t-91.5 -14q-2 -33 -4.5 -53.5t-4.5 -47.5q74 -23 124 -18.5 t104 10.5q78 10 110.5 7t33.5 -13t-20.5 -24.5t-49 -28t-53 -24.5t-34.5 -13q-47 -14 -97 -24.5t-128 5.5q-4 -14 -5 -47t-5 -47q31 -4 73 -8t78 0q113 10 162 7t54.5 -14t-22.5 -26.5t-65.5 -29t-77.5 -24.5t-59 -11q-39 -4 -85 -5t-74 1q-8 -35 -14.5 -66t-12.5 -59 q61 -31 120.5 -67t113 -68.5t96.5 -59.5t71 -39q18 4 52.5 -5t50.5 -54q8 -20 4 -41t-15.5 -37t-29 -26.5t-37.5 -10.5q-29 0 -50.5 18.5t-31.5 32.5q-31 12 -73 39t-92 58.5t-105.5 67.5t-110.5 67q-29 -78 -63.5 -133.5t-87.5 -92.5q-18 -14 -59.5 -28.5t-94.5 -12 t-113.5 27t-120.5 87.5q-16 20 -21 65.5zM179.5 -37.5q-13.5 -23.5 4.5 -50.5q8 -12 35 -25.5t58.5 -19.5t62.5 -5t49 17q16 12 37.5 54t46.5 118q-33 10 -59.5 15.5t-48.5 -0.5q-35 -10 -75 -25.5t-68.5 -35t-42 -43zM713 784q43 2 86 8.5t83 20.5t71.5 40t54.5 67 q10 18 12 40.5t-5 43t-25.5 33t-51.5 10.5q-37 -2 -74 -25t-68.5 -57.5t-54 -81.5t-28.5 -99z" />
<glyph unicode="&#xa4;" horiz-adv-x="1146" d="M94 248q-2 25 16.5 44t42 33.5t43 23.5t21.5 9q-6 8 -11 15.5l-9 13.5q-29 55 -46.5 117.5t-23.5 122t-2 109.5t16 83q20 57 80 101q-33 16 -55 36q-20 16 -35.5 37t-11.5 43q6 39 34.5 62.5t67.5 23.5q29 -10 53 -30q20 -16 40 -44t28 -71q98 29 209 25.5t199 -39.5 q35 -14 65.5 -38t56.5 -53q33 31 68 54q29 18 60.5 27.5t56.5 -7.5q33 -23 46 -54.5t3 -68.5q-6 -25 -32.5 -38t-54.5 -18t-51 -6l-24 -1q27 -59 38 -124t5 -125t-30.5 -112.5t-71.5 -89.5q-25 -18 -54 -35q0 -2 12.5 -16t25 -33.5t19.5 -42t-1 -41.5q-16 -35 -51 -50 t-72 -1q-18 6 -29.5 27.5t-16.5 44t-7 40.5l-2 19q-57 -16 -111.5 -16t-106 9t-95.5 26.5t-81 40.5q0 -4 -11 -27t-28.5 -47.5t-41 -43t-50.5 -13.5q-39 8 -63.5 33.5t-26.5 64.5zM239 654q3 -46 15 -102t45 -110q27 -45 87 -77.5t134 -43t151 5t138 66.5q45 39 60.5 104.5 t3 134t-53.5 131t-104 95.5q-53 27 -122 37t-135.5 0t-125 -43t-92.5 -90q2 0 -1 -31t0 -77z" />
<glyph unicode="&#xa5;" horiz-adv-x="1077" d="M46 1155.5q3 22.5 16.5 39.5t36 25.5t55.5 2.5q41 -8 52 -33t13 -43q49 -35 73.5 -59.5t53.5 -61.5t81 -98.5t157 -167.5q39 37 75.5 85t76.5 100t84 105.5t93 100.5q-2 16 -1 43t22 47q16 16 41.5 16t50.5 -12t41 -33.5t14 -46.5q-2 -16 -21.5 -39.5t-33.5 -29.5 q-61 -70 -109.5 -135.5t-89.5 -124t-76.5 -106.5t-72.5 -81q-10 -27 -17.5 -51.5t-11.5 -52.5q37 -8 62.5 -13.5t47 -8.5t42 -5t49.5 -4q90 -8 130 -17.5t46 -19.5t-14.5 -20.5t-51 -18.5t-63.5 -13t-51 -7q-31 -4 -55.5 -4t-47 1t-48 5t-62.5 10q-4 -14 -7 -30.5t-5 -28.5 q25 -6 68.5 -14.5t86.5 -14.5q119 -16 144.5 -33.5t1 -33t-73.5 -24.5t-78 -9q-43 0 -94 3t-82 7q-8 -37 -16.5 -79t-18.5 -91t-24.5 -107.5t-34.5 -128.5q2 -10 2 -38.5t-17 -45.5q-12 -14 -34.5 -23t-46 -8t-44 14t-30.5 48q-10 29 8 56.5t33 37.5q35 92 59.5 192.5 t40.5 192.5q-33 10 -74 18.5t-57 14.5q-6 -4 -18.5 -9t-27.5 -7t-30.5 2t-27.5 16q-31 31 -25 74t41 55q29 18 56.5 8t35.5 -16q10 -2 29.5 -7t41 -10t42 -10.5t32.5 -7.5q4 14 7.5 31.5t7.5 32.5q-12 4 -35 10t-45.5 12t-42 11.5t-27.5 5.5q-14 -6 -51 -9.5t-63 21.5 q-29 35 -16.5 77t46.5 52q41 14 60.5 0t25.5 -21q10 -2 33 -8t48.5 -13t49 -14.5t39.5 -13.5q4 16 5 32.5t6 33.5q-82 82 -134.5 139t-86 96t-54 64.5t-38 44t-39 36t-58.5 40.5q-23 2 -46.5 15t-31.5 42q-6 23 -3 45.5z" />
<glyph unicode="&#xa6;" horiz-adv-x="995" d="M387 1143.5q0 66.5 6 133t15 138.5q0 2 -5.5 10.5t-9.5 19.5t-5 24.5t7 27.5q10 18 28.5 31.5t39 16.5t39 -7t28.5 -35q8 -20 8.5 -32.5t-5 -19.5t-10.5 -11t-7 -10q-6 -66 -8 -139.5t0 -148.5t5 -145.5t7 -130.5q0 -12 -1 -35.5t-4 -46t-9 -37t-16.5 -11.5t-24.5 32 t-35 94q-25 76 -34 145.5t-9 136zM399 458.5q-2 12.5 4 26.5q12 25 32 39.5t40.5 16.5t38 -10t25.5 -39q10 -33 0.5 -44.5t-13.5 -21.5q-6 -66 -8 -139.5t0 -148.5t5 -146.5t7 -130.5q0 -10 -1 -33t-5 -43.5t-10 -35.5t-16.5 -12t-25.5 29.5t-34 90.5q-16 55 -25.5 121.5 t-11.5 139t2.5 147.5t14.5 147q0 2 -4 9t-8.5 16t-6.5 21.5z" />
<glyph unicode="&#xa7;" horiz-adv-x="831" d="M55 922q2 41 21.5 107.5t63.5 128t115 104.5t175 36q39 -2 76 -14t67.5 -26.5t53 -29t35.5 -20.5q6 0 20 -1t30.5 -8t30 -24.5t17.5 -48.5t-4 -51t-25.5 -31.5t-39 -14.5t-42.5 1q-29 6 -45 33t-20 35q-18 18 -49 37.5t-63 30t-56.5 9.5t-30.5 -22q10 -16 43 -80.5 t75 -157t85 -204t72.5 -224t35.5 -217t-22 -180.5q-6 -16 -19.5 -64.5t-46.5 -98.5t-93 -87t-163 -28q-23 -18 -50.5 -26.5t-76.5 24.5q-23 14 -34 39.5t-10 51t15.5 49t43.5 36.5q39 16 74.5 -0.5t41.5 -32.5q12 -10 31 -6t36 13t29.5 20.5t12.5 19.5q4 53 -22.5 97 t-92.5 89q-80 55 -137 149.5t-94 199t-53.5 208t-10.5 179.5zM199 920q-2 -82 8 -165t37.5 -162t74 -152.5t115.5 -137.5q51 -47 79 -78t40 -49q16 86 -2.5 191.5t-59 222.5t-100 242.5t-125.5 252.5q-10 -12 -22.5 -33.5t-21.5 -46t-16 -48t-7 -37.5z" />
<glyph unicode="&#xa8;" horiz-adv-x="724" d="M172 1203.5q-2 37.5 21 66.5q25 27 61.5 28.5t67.5 -20.5q27 -23 29 -59.5t-21 -65.5t-61 -32t-68 22q-27 23 -29 60.5zM483 1215.5q-2 37.5 23 66.5q23 27 61.5 31t67.5 -23q29 -25 30 -60.5t-24 -66.5q-23 -29 -60.5 -32t-68.5 24q-27 23 -29 60.5z" />
<glyph unicode="&#xa9;" horiz-adv-x="1150" d="M80 576.5q6 99.5 48 191.5t116 160q74 66 170 94.5t194.5 22t190 -47t159.5 -114.5t96.5 -168t22.5 -190.5t-47 -186.5t-115 -158q-72 -66 -167 -96.5t-194 -25.5t-192.5 44t-160.5 111q-68 74 -97.5 169t-23.5 194.5zM193.5 559q-3.5 -76 22.5 -149.5t79 -130.5 q53 -59 123.5 -89t144.5 -32t146.5 23.5t130.5 80.5q59 53 91 123t35 144.5t-22 146.5t-78 131q-53 57 -123.5 89t-144.5 35t-146.5 -21.5t-132.5 -78.5q-61 -53 -91.5 -124.5t-34 -147.5zM309 498q-6 98 28 172.5t120 117.5q92 45 178 32t164 -109q2 -6 18.5 -18.5 t16.5 -28.5q-8 -41 -33 -58.5t-66 -1.5q-16 6 -18 29.5t-4 28.5q-39 53 -93.5 61t-109.5 -16q-61 -29 -80.5 -82.5t-13.5 -130.5q2 -35 23.5 -60.5t50 -38t61.5 -9.5t61 22q57 39 78 35.5t21 -25t-11.5 -49t-17.5 -33.5q-53 -53 -116.5 -60.5t-119 19.5t-94.5 81t-43 122z " />
<glyph unicode="&#xaa;" horiz-adv-x="923" d="M127 1193q-2 60 24.5 119.5t75.5 104.5q100 90 188.5 88t186.5 -73q-2 10 -4 21l-4 22q-12 10 -19.5 33.5t3.5 45.5q6 16 21 26.5t33.5 13.5t36 -2t29.5 -19q18 -23 15.5 -44.5t-13.5 -41.5q18 -154 41 -263.5t23 -203.5q0 -8 9 -30.5t-5 -57.5q-12 -29 -36.5 -36t-47 2 t-35 29.5t-0.5 49.5q0 29 -2 52.5t-2 39.5q-14 -39 -53 -68.5t-91 -43t-112.5 -9.5t-116.5 35q-74 39 -108.5 94.5t-36.5 115.5zM134 817.5q1 22.5 15.5 43t40.5 26.5q29 10 45.5 -2.5t26.5 -7.5q72 -8 127 -16.5t105.5 -13.5t101.5 -2t113 19q88 23 130 27t51 -5 t-8.5 -25.5t-46 -36t-62 -36t-58.5 -24.5q-61 -18 -109.5 -24.5t-96.5 -6.5t-105.5 7.5t-137.5 17.5q-8 0 -26.5 -15.5t-51.5 -3.5q-29 12 -42 34t-12 44.5zM238 1202q2 -37 23.5 -70.5t64.5 -56.5q76 -39 127 -22.5t81.5 55.5t44 81t15.5 56q2 16 -5 33.5t-17.5 31 t-19.5 22.5t-11 9q-68 47 -122 52.5t-114 -47.5q-35 -31 -52 -69t-15 -75z" />
<glyph unicode="&#xab;" horiz-adv-x="692" d="M37 494q33 57 65.5 108t62.5 90t54.5 66.5t38.5 40.5q10 33 27.5 46t50.5 17q41 4 65.5 -23.5t14.5 -72.5q-8 -41 -33 -56.5t-53 -0.5q-27 -23 -69 -83.5t-93 -144.5q35 -80 68.5 -165t80.5 -150q20 -2 45 -21.5t29 -50.5q2 -20 -7 -39.5t-24.5 -33t-36 -19.5t-40.5 0 q-31 10 -45.5 43t-10.5 55q-33 33 -60.5 79t-52 98.5t-44 107.5t-33.5 109zM279 434q33 59 57 105.5t45.5 86.5t45.5 74.5t54 73.5q0 18 16.5 46t45.5 32q39 4 70.5 -17.5t33.5 -64.5q2 -29 -7 -45t-22.5 -25.5t-29 -12.5t-25.5 -1q-23 -39 -41 -68.5t-34.5 -58.5t-36 -61.5 t-45.5 -75.5q8 -41 15 -73t18.5 -59.5t32 -53t56.5 -52.5q20 2 51 -8t42 -39q8 -20 4 -40.5t-17.5 -36t-34 -25.5t-41.5 -8q-35 2 -52 25.5t-19 43.5q-43 31 -71 67t-47 79t-34.5 91t-29.5 101z" />
<glyph unicode="&#xac;" horiz-adv-x="1662" d="M44 612.5q5 34.5 28 53.5q12 10 36.5 12t45.5 -8q195 0 354.5 -9.5t311 -21.5t311 -21.5t354.5 -9.5q71 1 65 -71q-6 -61 -11 -110.5t-9 -96.5t-6 -96.5t-2 -110.5q6 -8 8 -21.5t-1 -26t-8 -22.5t-12 -14q-33 -20 -70.5 -16t-58.5 32q-10 12 -5 36t16 32q0 104 6 182 t16 170q-178 2 -327.5 12.5t-295 20.5t-298 19.5t-338.5 9.5q-20 -16 -53 -10.5t-44 22.5q-18 29 -13 63.5z" />
<glyph unicode="&#xad;" d="M134 560.5q1 23.5 15.5 43t40.5 27.5q29 8 45.5 -4.5t26.5 -8.5q72 -8 164 -11t187.5 0t183.5 11.5t149 24.5q88 23 130 27t51.5 -5.5t-8 -25.5t-46.5 -34.5t-61.5 -36t-57.5 -23.5q-61 -18 -146 -31.5t-179 -20t-188.5 -5.5t-174.5 12q-4 0 -10 -4t-16.5 -9.5 t-22.5 -8.5t-29 3q-29 12 -42 34t-12 45.5z" />
<glyph unicode="&#xae;" horiz-adv-x="1202" d="M20 953.5q0 93.5 15.5 179.5t47.5 159.5t81 120.5q104 100 225 142t237.5 34t220 -61.5t175.5 -141.5q61 -78 82.5 -195.5t9.5 -240.5t-57 -234.5t-117 -178.5q-72 -66 -177.5 -109t-217 -54.5t-215 15.5t-170.5 98q-45 49 -77 123t-47.5 162t-15.5 181.5zM130 949.5 q1 -111.5 30.5 -214t85.5 -162.5q53 -59 134 -79.5t169 -11t171 45t142 90.5q61 53 99 146.5t49.5 196t-8 198t-72.5 152.5q-68 72 -153 113.5t-176 46t-183 -30.5t-174 -117q-59 -57 -87 -159.5t-27 -214zM236.5 1201q-3.5 13 1 27.5t10.5 24.5q16 23 39.5 23t38.5 -8 q18 6 55 22.5t83 32.5t98 26.5t98.5 4.5t84 -33t56.5 -84q6 -18 7 -57t-23.5 -83t-84 -90t-174.5 -81q20 -8 44 -13.5t58 -13.5t81 -21.5t116 -35.5q27 3 52 -15q12 -12 17 -31.5t2 -38t-19.5 -31.5t-47.5 -13q-16 0 -26 10t-21 20q-14 4 -57 16.5t-95 28t-102.5 29.5 t-81.5 25q2 -43 4.5 -59.5t2.5 -30v-36t-2 -77.5q10 -8 18 -31.5t-14 -52.5q-8 -10 -24.5 -15t-34 -4t-33 6t-21.5 17q-12 23 -8 41t14 33q0 43 2 63.5t3 30.5t1 15.5t-1 16.5t-4 35.5t-7 71.5q-33 2 -43 18.5t-7 36t17.5 38t32.5 24.5q-4 68 -9 104.5t-9 79.5 q-20 -10 -45 -4q-18 2 -28.5 13.5t-14 24.5zM406 1206q4 -23 9 -77t15 -132q115 31 173.5 59.5t83 54.5t24.5 46.5t-4 36.5q-16 55 -54.5 68.5t-83.5 6.5t-90 -27.5t-73 -35.5z" />
<glyph unicode="&#xaf;" horiz-adv-x="741" d="M59.5 1142q10.5 38 46.5 54q27 14 52.5 3t36.5 -25q61 -4 101 -7.5t76 -4.5t74.5 1t98.5 11q70 8 97.5 6t29.5 -12.5t-16.5 -24t-41 -26.5t-43 -23.5t-22.5 -10.5q-55 -16 -91 -23t-73 -8t-84 4t-123 13q-14 -14 -41.5 -20.5t-54.5 22.5q-33 33 -22.5 71z" />
<glyph unicode="&#xb0;" horiz-adv-x="780" d="M71.5 888.5q-16.5 69.5 2.5 133.5q10 39 47 92t90 97t120.5 66.5t141.5 -1.5q78 -25 128 -63.5t78 -85t38 -99.5t8 -106q-2 -78 -32.5 -128.5t-79 -81t-109 -46t-123.5 -21.5q-80 -8 -144.5 27t-106.5 91t-58.5 125.5zM186.5 912q10.5 -42 37 -77.5t68.5 -57t97 -19.5 q41 2 81 16t72.5 37t51 51.5t16.5 59.5q-8 82 -36.5 147.5t-102.5 91.5q-53 18 -100 6t-84 -39.5t-62.5 -64.5t-36.5 -68q-12 -41 -1.5 -83z" />
<glyph unicode="&#xb1;" horiz-adv-x="1071" d="M155 38.5q-1 24.5 10 46t38 30.5q29 8 44 -4.5t25 -8.5q143 -16 281.5 -1.5t263.5 46.5q88 23 130 26t51.5 -5t-8 -25.5t-46.5 -36t-62.5 -36t-58.5 -23.5q-123 -37 -254 -60.5t-290 -2.5q-10 2 -33 -11.5t-45 -7.5q-20 6 -32.5 27.5t-13.5 46zM178 590.5q2 23.5 17.5 43 t42.5 28.5q29 8 40 -3.5t19 -3.5q45 -8 95 -3t87 7q0 68 2 114t-8 104q0 10 -13.5 25.5t-0.5 47.5q12 31 33.5 43.5t44 11.5t42 -16.5t27.5 -42.5q10 -31 -1 -45t-13 -22q8 -53 10 -100.5t2 -121.5q43 4 90 2t92 7q98 18 139.5 18t44.5 -10t-22.5 -27.5t-57.5 -34t-61.5 -29 t-35.5 -14.5q-57 -12 -99.5 -19t-91.5 -13q0 -63 1 -126t9 -149q0 -4 4.5 -9t8.5 -14.5t5 -21.5t-5 -29q-12 -29 -33 -41t-43.5 -10t-42 17.5t-27.5 42.5q-10 29 2.5 43t10.5 24q-14 88 -12.5 144.5t1.5 115.5q-35 0 -85 -1t-91 -1q-8 0 -24.5 -10t-51.5 2q-29 12 -41 32.5 t-10 44z" />
<glyph unicode="&#xb2;" horiz-adv-x="1132" d="M104 1436q2 14 15.5 25.5t28 18.5t27.5 11t18 6q111 39 197.5 60.5t155 24.5t121 -10t93.5 -42q57 -37 53 -102.5t-70 -137.5q-35 -37 -67.5 -60.5t-70.5 -46t-82 -53t-101 -81.5q45 4 75.5 4h59.5t62.5 2t87.5 8q4 2 15 4t24.5 4t28 0t26.5 -10q18 -12 27.5 -40 t7.5 -53.5t-17.5 -45t-46.5 -17.5q-6 0 -20.5 4t-29.5 8.5t-28.5 9.5t-17.5 5q-47 -6 -80 -5t-66.5 3t-75.5 2t-110 -6q-29 -16 -52.5 -32.5t-44 -23t-40 4t-39.5 51.5q-12 20 -8 43.5t17 47t34.5 45t44.5 38.5q51 39 116.5 76.5t127 74.5t110.5 72t68 63q23 37 13.5 56.5 t-41.5 28t-80 4t-103 -15.5t-110.5 -28.5t-100.5 -35.5l-14.5 -14.5t-20.5 -21.5t-21.5 -20.5t-17.5 -7.5q-66 14 -77 40t-1 65z" />
<glyph unicode="&#xb3;" horiz-adv-x="784" d="M45 1341q-2 27 18 56q10 12 29 17t27 9q168 123 295 138.5t188 -56.5q33 -37 41 -82t-8.5 -88t-58 -80.5t-109.5 -62.5q115 -8 167 -50t75 -132q20 -82 -10.5 -127t-94 -73t-153 -45t-183.5 -42q-6 -2 -16 -14.5t-21 -14.5q-29 -12 -57.5 6.5t-38.5 47.5q-10 23 5.5 50 t39.5 42q14 6 27.5 1t19.5 -1q70 18 138.5 29.5t122 24.5t81 36.5t15.5 66.5q-12 39 -46 54.5t-76 18.5t-85 1t-74 4t-49 26.5t-20.5 45t10 49.5t43.5 39q70 37 121 56.5t79.5 35.5t33.5 34.5t-19 51.5q-14 18 -33.5 28.5t-53.5 5.5t-84 -30.5t-124 -79.5q-4 -4 -8 -20.5 t-15 -22.5q-23 -16 -59.5 -20t-61.5 22q-16 18 -18 45z" />
<glyph unicode="&#xb4;" horiz-adv-x="884" d="M329 1013.5q-1 16.5 54 71.5q43 43 60.5 79t22.5 70t6 70.5t11 79.5q12 49 45 56.5t65 -9t53 -48t11 -64.5q-14 -39 -24 -77t-28.5 -72.5t-52.5 -68.5t-93 -65q-10 -6 -44 -19t-59.5 -16.5t-26.5 13z" />
<glyph unicode="&#xb5;" horiz-adv-x="946" d="M57 317q2 170 31 261.5t75 118t93 16t85 -44t52 -60.5q16 -35 30.5 -61.5t27 -59t19.5 -77.5t7 -117q25 123 60.5 188.5t74.5 91t75 20.5t58 -24q27 -23 55.5 -52.5t50 -72.5t28.5 -101t-11 -134q-10 -45 -23.5 -80t-25.5 -68.5t-22.5 -70.5t-16.5 -82q-4 -41 11.5 -60.5 t44.5 -29.5q57 -23 78.5 -43.5t13.5 -35.5t-44 -21.5t-93 -0.5q-115 12 -111 166q0 45 11 86t25.5 80t30 79t27.5 85q12 47 11 84t-12 66.5t-28.5 54t-35.5 49.5q-14 16 -38 10t-49.5 -43t-51 -109.5t-44.5 -187.5q4 -6 13.5 -23.5t14.5 -40t2 -45t-24 -38.5 q-43 -33 -71.5 -17.5t-47 52t-25.5 78.5t-7 61q2 94 0 141t-10.5 78t-23.5 60.5t-36 88.5q-4 10 -21.5 34t-39 33t-41 -10.5t-27.5 -97t-1 -226t40 -396.5q20 -35 25.5 -60.5t-23.5 -54.5q-20 -20 -57 -20t-62 30q-16 20 -14 51t6 56q-41 276 -39 446z" />
<glyph unicode="&#xb6;" horiz-adv-x="931" d="M41 954q-2 47 12 76q68 143 182.5 178t266.5 -4q-6 18 -11.5 32.5t-9.5 23.5q-8 10 -17 36.5t1 49.5q14 35 54 45t75 -19q14 -12 19 -28.5t4 -34t-7 -30.5t-14 -19q4 -10 9 -35t11 -49q8 -4 20.5 -7.5t29.5 -9.5q-10 10 -8.5 30.5t10.5 31.5q23 31 59.5 36t71.5 -24 q20 -16 22 -43t-14 -43q32 17 61 -14q20 -23 15.5 -56t-27.5 -53q-10 -8 -23.5 -11t-23.5 7q8 -172 20.5 -341t20.5 -316.5t8 -261t-18 -175.5q-6 -18 -17.5 -50t-26 -61.5t-28.5 -50t-23.5 -16.5t-11.5 42t8 126q6 51 7.5 117.5t0.5 142.5t-5.5 158t-8.5 166 q-12 -16 -27.5 -17.5t-29.5 2.5q-4 -84 -10 -150.5t-12.5 -132t-10.5 -136t-6 -162.5q4 -6 10 -19.5t8 -29t-3 -30.5t-19 -28q-35 -29 -75 -20.5t-56 43.5q-10 23 -1 51.5t17 38.5q6 98 13.5 169t13.5 134t12 130t12 157q-115 10 -202.5 46t-149 85t-100.5 107.5 t-57.5 113.5t-20.5 102zM150 975q-6 -16 6 -67.5t58 -112t132 -114t225 -71.5q0 27 2 69t-2 100.5t-15 136t-38 176.5q-84 18 -141.5 23t-99 -8t-71.5 -45t-56 -87zM635 1063q20 -84 30.5 -147.5t14.5 -115.5t4 -97.5v-94.5q29 0 45 -14q-10 143 -19.5 264t-13.5 186 q-16 6 -31.5 10.5t-29.5 8.5z" />
<glyph unicode="&#xb7;" horiz-adv-x="974" d="M387 35q-2 37 21 67q23 29 60.5 31t66.5 -24q27 -23 30 -59.5t-20 -65.5t-61 -32t-68 23q-27 23 -29 60z" />
<glyph unicode="&#xb8;" horiz-adv-x="915" d="M259 -25.5q3 35.5 10 71.5t17.5 63.5t20.5 33.5q12 6 28.5 4t30 -10t20.5 -19.5t1 -25.5q-2 -6 -8 -24.5t-10 -41t-5.5 -45t9.5 -36.5q16 -20 37.5 -21.5t47 8t53.5 22.5t54.5 20.5t51 5t42.5 -22.5q25 -29 24 -72t-20.5 -90t-53.5 -95t-69.5 -86t-72.5 -61.5t-61 -23.5 q-8 -4 -30 4t-45.5 21.5t-42 32t-20.5 36.5q-8 41 19.5 66.5t72.5 15.5q39 -8 51.5 -28.5t8.5 -30.5q29 10 61.5 39.5t59 64.5t39 69t0.5 52q-10 14 -35 10t-57.5 -14t-68.5 -20.5t-68 -10.5t-56.5 17.5t-32.5 62.5q-6 23 -3 58.5z" />
<glyph unicode="&#xb9;" horiz-adv-x="856" d="M185 1327q-3 27 22 51q35 35 62.5 56.5t74.5 38.5q23 8 40 2.5t28.5 -18.5t17.5 -30.5t6 -35.5q2 -14 -6 -28.5t-8 -21.5q0 -53 2 -94t7 -81t11.5 -85t12.5 -106q2 -8 7 -15.5t5 -23.5q-4 -27 -21.5 -41t-41 -17.5t-45 4t-31.5 23.5v25q0 25 6 43q-14 70 -21.5 113.5 t-9.5 75.5t-2 58.5v63.5q-25 -25 -51.5 -21.5t-44 20.5t-20.5 44z" />
<glyph unicode="&#xba;" horiz-adv-x="878" d="M35 882.5q0 24.5 12 46t39 29.5q29 8 44 2t26 -14q72 -8 129 -17t109 -14.5t105.5 -3.5t114.5 19q88 23 131 27t51.5 -5.5t-8 -26t-45 -35t-62 -36t-58.5 -23.5q-61 -18 -111.5 -25t-101 -5t-109.5 9t-139 17q-12 -16 -37 -22t-47 2q-23 6 -33 28.5t-10 47zM111.5 1232.5 q5.5 61.5 35 121t68.5 106.5q31 35 82 59.5t108.5 30.5t111.5 -12t89 -68q35 -47 53.5 -125t-4.5 -182q-8 -37 -34.5 -85t-77.5 -79.5t-128 -32.5t-184 56q-72 37 -98.5 93t-21 117.5zM233.5 1239q-6.5 -35 4 -65.5t41.5 -45.5q29 -14 68.5 -23t78.5 -7t70 20.5t43 59.5 q12 51 11 88t-7 61.5t-15 36.5l-8 12q-37 39 -66.5 52.5t-56 9.5t-49 -22.5t-43.5 -41.5q-27 -29 -46 -64.5t-25.5 -70.5z" />
<glyph unicode="&#xbb;" horiz-adv-x="692" d="M27 129q8 41 35.5 52.5t50.5 2.5q27 23 69.5 84.5t91.5 143.5q-35 80 -67.5 165t-79.5 150q-10 0 -24.5 6t-25.5 16.5t-19.5 22.5t-6.5 29q2 41 38 67.5t77 12.5q35 -12 44 -38t5 -48q66 -70 112.5 -177.5t75.5 -216.5q-33 -59 -65.5 -109t-61 -90t-53 -68t-39.5 -40 q-18 -63 -78 -69q-41 -4 -65.5 27.5t-13.5 76.5zM281 102q-2 29 6 46.5t22.5 26.5t29.5 11t26 0q23 39 40 70t34.5 59.5t37 61.5t43.5 76q-8 39 -14 70.5t-17.5 60t-33 54.5t-58.5 52q-18 -4 -50 7.5t-42 39.5q-8 20 -3 40t18.5 36t32 25.5t40.5 7.5q35 -2 52.5 -25.5 t19.5 -42.5q43 -31 70.5 -66.5t48 -78.5t34 -91.5t29.5 -101.5q-35 -59 -58.5 -105t-45 -85t-44 -75t-53.5 -75q0 -18 -19 -47.5t-48 -34.5q-37 -4 -66.5 19.5t-31.5 64.5z" />
<glyph unicode="&#xbc;" horiz-adv-x="856" d="M31 236q-8 29 23.5 53t78.5 47q53 47 87 75.5t64.5 51t68.5 45t100 59.5q10 6 34.5 26.5t53 40t56.5 32t44 4.5t32.5 -35t2.5 -62q-4 -10 -14.5 -15t-21.5 -10t-20.5 -9t-9.5 -13q-8 -39 -13 -63.5t-8 -50t-6 -62.5t-5 -98q25 2 34 4t12 3l6 2t15 -1q8 2 21.5 6t27.5 0 q29 -8 43.5 -24.5t15.5 -35t-8.5 -36t-25.5 -29.5q-14 -10 -23.5 -12t-17.5 1t-14.5 7t-14.5 4h-9h-5t-15.5 -1t-37.5 -1q2 -49 8 -96t14 -119q2 -6 10.5 -22.5t8.5 -32.5q0 -27 -20.5 -43t-47.5 -19.5t-50.5 11t-29.5 49.5q-4 16 3 25.5t5 21.5q-4 37 -6 65.5t-4 55 t-5 52.5t-5 54q-45 4 -77 8.5t-62.5 8.5t-64.5 9t-83 13q-53 -8 -94 13.5t-51 42.5zM56 731.5q1 18.5 12.5 34.5t27.5 25q25 16 42.5 10t27.5 -10q63 -6 138 -2t149.5 13t145.5 18t130 14q18 0 47 -4.5t41 -14.5t-2 -28.5t-82 -45.5q-53 -23 -118.5 -38t-138.5 -22 t-148.5 -8t-147.5 9q-4 0 -11 -5t-17.5 -11.5t-24.5 -8.5t-29 5q-25 12 -34 31.5t-8 38zM227 285q43 -6 72 -10.5t53.5 -6.5t50 -5t60.5 -5q4 41 7 66.5t6 47l6 43t7 54.5q-55 -31 -92 -52.5t-64.5 -42t-51 -41t-54.5 -48.5zM246 1290q8 37 17 61.5t24.5 47t40 47t63.5 59.5 q23 20 42.5 19.5t32.5 -14t19.5 -36t1.5 -47.5q-2 -10 -5 -20t-1 -14q6 -57 12.5 -100.5t9.5 -89.5t4 -102.5t-1 -139.5q0 -10 5 -16.5t10 -14.5t8 -18.5t-3 -24.5q-10 -35 -49 -49.5t-80 14.5q-16 12 -20 26.5t-3 27t6 22.5t5 14q2 61 1 103t-2 76t-3 67t-2 78 q-14 -31 -40 -44.5t-49.5 -8t-37.5 24.5t-6 52z" />
<glyph unicode="&#xbd;" horiz-adv-x="856" d="M58 429.5q-3 23.5 8 41.5q8 20 21 28.5t24.5 11.5t20.5 2t13 1q221 80 361.5 103.5t224.5 -33.5q55 -37 52 -102.5t-68 -137.5q-35 -37 -68 -60.5t-70.5 -46t-82.5 -53t-103 -82.5q45 4 76 4h59.5t62.5 2.5t87 8.5q10 4 40.5 11t57.5 -13q18 -14 25.5 -34t5.5 -40.5 t-12.5 -39.5t-28.5 -32q-16 -12 -34.5 -11t-35 7t-30 13.5t-17.5 7.5q-47 -6 -79.5 -5t-66.5 3t-77 2t-111 -6q-29 -16 -52 -34t-45.5 -26t-43 2t-41.5 51q-12 20 -4 49t25.5 55.5t38 48t34.5 28.5q119 88 194 133t119 69.5t68.5 40t42.5 43.5q25 37 13.5 54.5t-45 20.5 t-85 -5t-107.5 -23.5t-112.5 -36t-101.5 -38.5q-10 -4 -25.5 -29t-31.5 -29q-27 -8 -47.5 2.5t-33 30t-15.5 43zM64 706q-1 39 26 62q14 12 26.5 14t23 0t17.5 -6t13 -6q63 -6 138 -2t149.5 13.5t145.5 18.5t130 13h28.5t47.5 -2t44 -7t19 -13q0 -14 -19 -26.5t-44 -22 t-46.5 -15.5t-25.5 -6q-53 -14 -118.5 -28.5t-136 -25t-144.5 -13.5t-145 8q-10 -8 -42 -18.5t-61 7.5q-25 16 -26 55zM282.5 1306.5q-8.5 22.5 6.5 51.5q23 43 47 63.5t59 57.5q14 14 31.5 26.5t37 14.5t40.5 -8t39 -39q4 -6 1 -19.5t-8.5 -29t-10.5 -28t-5 -16.5 q-4 -57 -3 -100t-1 -89t-9 -103.5t-24 -139.5q-2 -8 1 -18t5.5 -22.5t0 -26t-10.5 -25.5q-16 -18 -37.5 -23.5t-43 -1t-39 16.5t-21.5 29q-6 18 -3 31.5t9 23.5t13.5 17t7.5 12q10 94 19 168.5t13 150.5q-18 -20 -42.5 -21.5t-44 12t-28 36z" />
<glyph unicode="&#xbe;" horiz-adv-x="831" d="M35 664q-10 38 31 69q25 18 49 10t35 -12q63 -6 137.5 -2t149.5 13.5t146.5 18.5t131.5 13h28.5t46 -2t43 -7t19.5 -13q0 -14 -19.5 -26.5t-44 -22t-46 -15.5t-25.5 -6q-55 -14 -122 -28.5t-138.5 -25t-146 -13.5t-146.5 8q-4 0 -14.5 -4.5t-23.5 -8.5t-27.5 -5t-24.5 5 q-29 16 -39 54zM63 317q-4 29 32 48.5t85 33.5q61 37 99 58.5t73 38t76 33t107 40.5q12 6 39.5 21.5t58.5 30t60.5 21.5t43.5 -5q16 -10 27.5 -38.5t-8.5 -61.5q-6 -10 -17.5 -13.5t-24 -5.5t-21.5 -5t-9 -11q-14 -37 -23.5 -59.5t-17.5 -48t-17.5 -60.5t-23.5 -96 q25 -4 34 -3t14 2t8.5 1t13.5 -2q8 -2 22.5 -1t26.5 -4q27 -12 38 -31.5t9 -38t-13.5 -33.5t-29.5 -24q-16 -8 -26.5 -8t-17.5 4t-12 9.5t-14 7.5q-8 2 -9 2h-5t-15.5 1t-37.5 5q-8 -47 -9 -95t-6 -120q0 -6 6.5 -24.5t2.5 -30.5q-6 -27 -30 -40.5t-49.5 -11.5t-46 19.5 t-20.5 52.5q0 16 7.5 25.5t9.5 19.5q4 74 9 122t9 108q-43 12 -74.5 20t-60.5 17.5t-62.5 20.5t-78.5 28q-51 4 -89 31.5t-43 49.5zM95 1274.5q-7 19.5 1 48.5q6 18 12.5 26.5t14.5 11.5t17.5 6t19.5 9q55 41 116.5 78t120 61.5t109.5 34t87 -4t53.5 -52.5t8.5 -113 q-8 -66 -40.5 -95.5t-92.5 -63.5q57 0 107.5 -14.5t86.5 -41t55 -65.5t17 -84q-2 -61 -38.5 -101.5t-100 -65t-150.5 -35.5t-190 -15q-4 0 -11 -6.5t-17.5 -13.5t-21.5 -12t-23 -1q-41 10 -54.5 49t15.5 80q6 10 17 14t22.5 6.5t20.5 1t11 1.5q68 4 139.5 10t130 15 t96.5 23.5t38 34.5q0 63 -34 85t-81 23t-96 -5t-80 0q-33 6 -57.5 22.5t-33.5 36t-1 40t41 34.5q14 6 50 21.5t75 37t69.5 48t34.5 51.5q6 47 -15.5 58t-64.5 -5t-105.5 -55t-135.5 -90q-2 -2 -4.5 -11.5t-5.5 -20.5t-11 -21.5t-22 -16.5q-18 -6 -40 -4t-37.5 14t-22.5 31.5 zM264 330q41 -12 68.5 -21.5t52.5 -16.5t48.5 -14.5t58.5 -15.5q12 39 19 64.5t13 46t12.5 42t16.5 52.5q-59 -20 -98 -35.5t-70 -30t-58.5 -32t-62.5 -39.5z" />
<glyph unicode="&#xbf;" horiz-adv-x="1021" d="M20.5 -27q24.5 115 93 227.5t160 217t166.5 192.5q27 25 36 38.5t-13 19.5q-20 4 -47 -5.5t-58 -13.5q-12 -4 -22 -9t-20.5 -8t-22.5 -2t-27 11q-18 14 -25.5 35.5t-5 43t16.5 40t39 24.5q20 6 30.5 3t18.5 -8t15 -12t22 -9q18 -4 39.5 4t48.5 14t56.5 4t64.5 -26 q12 -10 15 -38t-6 -61.5t-27.5 -71.5t-49.5 -69q-111 -109 -193.5 -212t-132 -195.5t-61.5 -169t19 -132.5q23 -41 76 -55t122.5 -8t149.5 33.5t153 70.5q31 18 59.5 39t55.5 48.5t50.5 64.5t45.5 88q-14 14 -10 45t18 43q20 16 41 18.5t39.5 -7t31.5 -28t19 -38.5 q6 -23 -6 -43.5t-28 -28.5q-27 -68 -55.5 -114t-62.5 -80.5t-73 -63.5t-84 -61q-27 -18 -76 -40t-110.5 -37.5t-130 -22.5t-131 2.5t-113.5 38t-80 83.5q-55 106 -30.5 221zM409.5 930q4.5 45 30.5 71q12 12 30.5 15.5t38 0.5t38 -13.5t28.5 -26.5q23 -31 20 -67t-32 -58 q-29 -23 -69.5 -22t-65.5 30q-23 25 -18.5 70z" />
<glyph unicode="&#xc0;" horiz-adv-x="1105" d="M-42 -108.5q-1 16.5 3 28.5t12.5 21.5t14.5 13.5q25 68 47 126t43.5 117.5t44 126t51.5 150.5q-18 -4 -38.5 -4t-37.5 14q-14 10 -18 27.5t-1 36t11 35t21 24.5q29 18 57.5 14t44.5 -8q94 221 162.5 386t144.5 264q43 -47 92.5 -116t96.5 -145.5t88 -153.5t69 -142 q25 4 34 6t13.5 2h6.5t10 2q102 20 124.5 11t6 -29.5t-51 -43t-48.5 -26.5q-23 -8 -33 -13.5t-23 -11.5q31 -82 51.5 -158.5t35 -150.5t25.5 -144.5t23 -140.5q14 -14 23.5 -38.5t-0.5 -51.5q-6 -18 -23.5 -28.5t-37 -13.5t-38 0t-28.5 16q-29 31 -22.5 55t12.5 37 q-18 129 -48 280.5t-90 311.5l-481 -80q-31 -94 -61.5 -181.5t-57 -159t-47 -127t-30.5 -85.5q8 -18 8 -44t-17 -48q-12 -14 -30.5 -20.5t-39 -4.5t-36.5 9t-25 20q-12 18 -13 34.5zM248 1538q-4 33 11 61.5t40 41t53.5 3t50.5 -54.5q18 -39 29.5 -79.5t40.5 -75.5 q53 -61 70.5 -91t12.5 -38.5t-26.5 -1t-47 21.5t-50 28.5t-35.5 20.5q-31 16 -56.5 28.5t-45 29t-31.5 41t-16 65.5zM348 627l400 53q-45 100 -107.5 193.5t-114.5 193.5q-14 -25 -31.5 -70t-40 -103t-49 -127t-57.5 -140z" />
<glyph unicode="&#xc1;" horiz-adv-x="1105" d="M31 -143.5q4 26.5 22 41.5q12 70 21.5 161t24 188t35 194.5t50.5 179.5q-18 6 -30 20q-8 8 -16.5 25.5t-10.5 32t4 23.5t27 3q8 -2 10 -1t6 2t13.5 1t31.5 -4q27 63 65 138t81 147.5t88 139t88 114.5q39 -49 73.5 -98.5t70.5 -110t75 -137t86 -183.5q6 0 19.5 1t31.5 1 q33 0 48.5 -19.5t17.5 -44t-10.5 -47t-34.5 -28.5q-23 -4 -31 0q55 -182 98 -314t53 -212q10 -14 16.5 -39.5t-5.5 -48.5q-10 -18 -29 -27.5t-39 -9.5t-39.5 9t-28.5 28q-10 23 -4 48t15 38q-10 72 -52.5 203.5t-103.5 324.5l-463 2q-31 -78 -52.5 -177t-37.5 -199.5 t-28.5 -192.5t-20.5 -156q4 -10 8 -33.5t-14 -42.5q-18 -18 -40 -22t-40.5 2t-31.5 19.5t-17 25.5q-4 8 0 34.5zM350 721h373q-27 76 -52.5 131t-49 95t-45 67.5t-39.5 52.5q-25 -49 -48.5 -91t-48 -83t-47 -82t-43.5 -90zM496.5 1363q7.5 17 66.5 60q51 37 72.5 56.5t33 34 t24 31t42.5 48.5q25 23 54.5 17t51 -27.5t26.5 -52t-15 -57.5q-27 -33 -55.5 -51.5t-59 -30t-60.5 -17.5t-61 -14q-20 -4 -53 -11.5t-53.5 -5t-13 19.5z" />
<glyph unicode="&#xc2;" horiz-adv-x="1105" d="M27 -179q6 25 16 40q4 39 17.5 112.5t33 163.5t44 188.5t52.5 188.5q-10 -4 -30 0q-23 6 -35 28.5t-10 47t17 44t48 19.5q18 0 31.5 -1t19.5 -1q92 215 180.5 362.5t166.5 248.5q43 -47 86 -111t82.5 -132.5t75.5 -140t65 -135.5q23 4 32 4.5t13 -1t6 -2.5t10 1 q20 6 26.5 -3t4.5 -23t-10 -31.5t-17 -25.5q-12 -14 -30 -21q31 -82 52 -156.5t35.5 -145.5t24.5 -139.5t23 -138.5q18 -14 22 -40.5t0 -34.5q-4 -12 -17 -25.5t-31.5 -20t-40 -2t-40.5 22.5q-18 18 -14 42t8 34q-18 129 -49 274.5t-90 302.5l-488 -75q-31 -96 -57.5 -201 t-48 -200t-35.5 -169.5t-18 -109.5q8 -12 14 -38t-4 -48q-10 -18 -28.5 -27.5t-39 -9.5t-40 9t-27.5 28q-12 23 -6 48zM256 1319q10 29 31.5 40t38.5 9q10 18 28.5 44t50 55.5t76.5 58t109 51.5q51 -25 86 -55.5t61.5 -65.5t46 -72.5t39.5 -76.5q16 2 37 -11.5t29 -50.5 q10 -45 -19.5 -72.5t-64.5 -19.5q-29 6 -45.5 35t-11.5 45q-18 37 -35 65.5t-35.5 53t-41 47t-54.5 47.5q-43 -18 -73 -41t-49.5 -46.5t-32.5 -45t-24 -33.5q0 -23 -21.5 -43t-49.5 -20q-37 -2 -61.5 30.5t-14.5 71.5zM362 664l402 53q-41 96 -88 174t-94 176 q-18 -25 -45 -61.5t-56.5 -87t-60.5 -115t-58 -139.5z" />
<glyph unicode="&#xc3;" horiz-adv-x="1155" d="M55.5 -9.5q-0.5 15.5 5 27t11.5 19.5t8 14q25 68 41 126.5t31.5 116.5t33 123.5t45.5 149.5q-16 -6 -34.5 -9t-40.5 20q-23 25 -28 43t0 33.5t17.5 26.5t24.5 19q29 16 56.5 13.5t43.5 -6.5q47 111 82 197.5t67 157.5t62.5 127t69.5 105q43 -47 88 -116.5t88 -146.5 t81 -155.5t66 -142.5q25 4 36.5 5t17.5 1t9 -1t11 -1q51 6 65.5 -4t9.5 -25.5t-21.5 -32l-24.5 -24.5q-14 -10 -29.5 -18t-29.5 -15q31 -84 59.5 -150.5t54 -126.5t49 -120.5t45.5 -130.5q2 -4 14.5 -31.5t2.5 -56.5q-12 -31 -30.5 -43t-39 -12t-39 8t-28.5 18 q-14 14 -14.5 29.5t6 28t12.5 21.5t4 14q-41 125 -101.5 250.5t-119.5 283.5l-426 -10q-63 -190 -104.5 -338t-59.5 -211q-4 -12 -1 -20.5t6 -16.5t4 -18.5t-7 -24.5q-16 -27 -37 -36t-40 -6t-35.5 14.5t-24.5 23.5q-12 18 -12.5 33.5zM151.5 1308q-10.5 38 12.5 70 q16 27 44 30t46 -3q37 27 79 48.5t83 35.5t75.5 17t55.5 -5q33 -14 74 -34.5t81.5 -36t79.5 -20.5t68 11q82 45 121 55.5t47 -1t-7.5 -37t-40 -53t-53.5 -50t-47 -26.5q-61 -16 -106 -13.5t-83 16t-72 33t-74 35.5q-31 12 -60 10.5t-58.5 -14t-60 -32t-63.5 -39.5 q-8 -18 -28.5 -37t-59.5 -8q-43 10 -53.5 48zM408 719h340q-45 100 -89.5 187t-95.5 188q-29 -53 -61.5 -141.5t-93.5 -233.5z" />
<glyph unicode="&#xc4;" horiz-adv-x="972" d="M-29.5 -99.5q6.5 31.5 23.5 44.5q6 41 19.5 114.5t33 162.5t44 186.5t52.5 187.5q-10 -2 -21 -3t-24 3q-14 6 -26.5 20.5t-15.5 33t6.5 40t37.5 39.5q20 14 45 10t39 -8q92 215 180.5 392t163.5 276q43 -47 86 -120t84 -152.5t77 -160.5t65 -147q88 12 113.5 3t15 -27.5 t-41 -41t-53.5 -34.5q33 -84 56.5 -171t41 -174t31 -169t23.5 -152q14 -12 27.5 -36.5t-2.5 -59.5q-8 -20 -24.5 -32.5t-36 -15.5t-39 2t-31.5 19q-20 23 -18.5 55.5t13.5 49.5q-10 63 -24 145t-33.5 170t-44.5 176t-55 166l-490 -76q-31 -92 -57.5 -194.5t-48 -196.5 t-36.5 -169.5t-24 -114.5q14 -14 23.5 -36t-12.5 -55q-25 -39 -65 -39.5t-64 29.5q-20 29 -13.5 60.5zM273 1431.5q-1 36.5 22 65.5t60.5 31t68.5 -23q27 -23 29 -59.5t-23 -65.5q-23 -29 -59.5 -31.5t-67.5 23.5q-29 23 -30 59.5zM313 741l404 56q-43 98 -90 200.5 t-95 204.5q-16 -27 -42.5 -73t-56.5 -105t-61.5 -131t-58.5 -152zM585.5 1443q-1.5 38 20.5 66q23 27 61 29t68 -20q27 -23 29 -58.5t-21 -64.5q-23 -31 -61.5 -35t-67.5 22q-27 23 -28.5 61z" />
<glyph unicode="&#xc5;" horiz-adv-x="1193" d="M55 -174q-12 29 2.5 55.5t24.5 36.5q6 41 19.5 116t33 165t44 188t52.5 188q-10 0 -34 7q-10 4 -18.5 16t-12.5 27.5t-3 30t9 24.5q27 37 54.5 36t47.5 -7q45 106 81 184t74 137.5t85 104.5t115 86q82 -92 161.5 -194.5t137.5 -231.5q90 8 115.5 -1.5t15.5 -27.5 t-42 -38.5t-54 -33.5q31 -84 54 -173t41.5 -176t31 -169t22.5 -149q16 -10 27.5 -36t-0.5 -61q-10 -37 -42 -44t-67 12q-14 8 -20 22t-8.5 29.5t0 30t6.5 24.5q-12 66 -27.5 147.5t-35 171t-45.5 178.5t-56 167l-488 -76q-31 -92 -56.5 -194.5t-47 -195.5t-36.5 -169 t-21 -115q20 -16 22 -53t-20 -60q-14 -16 -36 -22t-43.5 -4t-39 14t-23.5 33zM373 1411q-2 35 16.5 64.5t47 51t62 33t64.5 9.5q57 -4 103.5 -46t50.5 -110q4 -41 -11.5 -73.5t-40 -56t-56 -36t-58.5 -10.5q-31 2 -61.5 18.5t-56 42t-43 55t-17.5 58.5zM401 717l402 53 q-20 49 -43 89t-47.5 77t-51 72.5t-51.5 74.5q-35 -29 -95 -119t-114 -247zM467 1413q0 -27 27.5 -54.5t60.5 -27.5q31 0 54.5 18.5t23.5 51.5q0 31 -15.5 56.5t-46.5 25.5q-35 0 -68.5 -19.5t-35.5 -50.5z" />
<glyph unicode="&#xc6;" horiz-adv-x="1806" d="M22 -8.5q3 14.5 10 25t15 16.5t8 10q14 70 30.5 156t39 175t53.5 177t78 164q-16 -8 -38.5 0t-33.5 30q-20 41 -2.5 79t45.5 48q29 10 56.5 2t44.5 -18q68 147 163 245.5t195 164t191.5 103.5t146.5 65q12 0 25.5 -12.5t21.5 -31t9 -42t-7 -45.5q86 -4 182.5 -1t187.5 3 t169 -8.5t129 -39.5q39 -16 61 -38q20 -18 28.5 -44t-18.5 -61q-31 -37 -57 -37t-46.5 17.5t-35 41t-16.5 31.5q-35 20 -111 24.5t-167 1.5t-182 -8t-155 -1q-12 -57 -30.5 -138t-26.5 -147q70 -4 140.5 3t141 14.5t142.5 7.5t143 -19q68 -18 94.5 -34.5t25.5 -30 t-21.5 -23.5t-46 -17t-48 -10.5t-28.5 -1.5q-61 8 -145.5 9.5t-165 -1.5t-145 -9.5t-87.5 -8.5q-12 -96 -23.5 -197.5t-18.5 -195.5t-8 -175t5 -134q82 8 145.5 17t125 17.5t131 15.5t163.5 13q18 0 39 -10t35 -28.5t18.5 -42t-12.5 -50.5q-18 -35 -43.5 -43t-50.5 -2 t-44.5 18.5t-25.5 18.5q-127 -10 -231.5 -21.5t-224.5 -21.5q0 -14 -1 -30.5t-8 -26.5q-61 -59 -122 -13q-10 8 -13.5 24.5t-5.5 31.5q-23 -4 -42 0t-36 22q-8 10 -10 25.5t0 30t7 25.5t9 15q8 8 19.5 10.5t21 4.5t15.5 4t6 10q-4 55 -1 137t9 174.5t14.5 188.5t12.5 180 l-441 -39q-68 -106 -108.5 -219t-65 -211t-35 -173t-14.5 -108q-4 -27 0 -46t-12 -37q-12 -16 -33.5 -19.5t-43 0.5t-38 15.5t-22.5 23.5q-8 20 -5 34.5zM451 848l393 26q2 4 8 11q20 86 38 153.5t34 137.5q-20 -4 -43 5t-35 25q-41 -18 -90 -45.5t-102.5 -70.5 t-105.5 -102.5t-97 -139.5z" />
<glyph unicode="&#xc7;" horiz-adv-x="1214" d="M55.5 575.5q-14.5 114.5 7.5 255.5q18 117 77 227.5t147 191.5t199.5 121t234.5 15q160 -31 264.5 -119.5t151.5 -248.5q16 -10 28 -37.5t2 -56.5q-6 -18 -20 -31.5t-32.5 -20t-38 -4.5t-34.5 15q-27 23 -28.5 49t6.5 41q-29 76 -56.5 124t-61.5 80.5t-77 52t-100 36.5 q-100 27 -192.5 -5t-165 -103t-121.5 -166t-64 -193q-20 -145 -1.5 -250t57 -178.5t90 -122.5t98.5 -84q33 -23 74 -34t91 -1t109.5 49t126.5 117q68 78 104 106.5t48 25.5t7 -30.5t-17.5 -60.5t-26.5 -61.5t-18 -36.5q-33 -57 -90.5 -108.5t-129 -82.5t-151.5 -36t-156 32 q-4 -27 -8 -45t-6 -33.5t-1 -30t9 -32.5q10 -25 46 -14.5t81 26.5t89 23.5t73 -25.5q25 -29 23.5 -72t-20.5 -90t-53 -94t-70 -85t-72.5 -61.5t-61.5 -23.5q-10 0 -34.5 -1t-50.5 4t-48.5 16.5t-24.5 35.5q-6 41 21.5 75t68.5 32q25 -2 43.5 -17.5t28.5 -29.5 q29 10 64.5 39.5t63.5 65.5t41 68.5t-1 49.5q-14 16 -41 13t-58.5 -12t-66.5 -20.5t-65.5 -10.5t-54 16.5t-31.5 60.5q-8 41 5 101.5t23 117.5q-57 51 -111.5 120t-91 160t-51 205.5z" />
<glyph unicode="&#xc8;" horiz-adv-x="1103" d="M25.5 1168.5q-13.5 31.5 29.5 72.5q16 12 33.5 12t32.5 -4v25q-4 14 -11.5 38.5t15.5 57.5q25 37 63.5 36t61.5 -32q18 -25 12 -53.5t-22 -42.5v-29q84 8 163.5 14.5t166.5 8.5t186.5 -2t222.5 -17q82 -6 113.5 -17t29.5 -23.5t-29.5 -24.5t-60.5 -21.5t-64.5 -14.5 t-43.5 -3q-96 8 -190.5 9t-181.5 -3t-165 -11t-141 -16q0 -57 -1 -135t3 -143q66 27 136.5 48.5t145 32.5t150.5 9t154 -22q68 -18 99.5 -35t37.5 -29t-7.5 -22.5t-37 -15.5t-52 -6t-51.5 3q-84 12 -154.5 11t-138 -13t-135 -34.5t-143.5 -53.5q4 -96 8 -200.5t10 -200 t16.5 -176t26.5 -130.5q72 12 138.5 25.5t136 31t143.5 37t160 42.5q8 4 35.5 17t54.5 3q14 -6 24.5 -20.5t14.5 -32t0 -36t-16 -32.5q-23 -27 -48.5 -26.5t-42.5 10.5q-127 -31 -270 -64.5t-266 -66.5q8 -14 13 -35t-1 -47q-10 -45 -46 -55.5t-69 10.5q-16 10 -26 33.5 t-15 46.5q-18 -10 -38.5 -13.5t-40.5 13.5q-33 23 -42.5 48t13.5 58q14 14 34.5 20.5t35.5 10.5q-16 53 -26.5 134t-18 179.5t-10.5 207t-5 214t-2 202.5v175q-14 -4 -30.5 -5t-34.5 13q-29 23 -42.5 54.5zM262 1518q-8 23 3 46t32.5 37.5t50.5 15.5t58 -20 q27 -20 33.5 -34.5t17 -30.5t35 -37.5t83.5 -54.5q74 -41 86.5 -61.5t-5 -26.5t-52.5 -2t-57 10q-63 20 -109.5 28.5t-79 20.5t-56 35.5t-40.5 73.5z" />
<glyph unicode="&#xc9;" horiz-adv-x="1103" d="M32 1179.5q-3 18.5 2 35t21 26.5t33.5 11t32.5 -3v25q-4 14 -11.5 38.5t15.5 57.5q25 37 63.5 36t61.5 -32q18 -25 12 -53.5t-22 -42.5v-29q84 8 153.5 22.5t144 26t164 14.5t211.5 -9q82 -8 114 -18.5t30 -23t-30 -24.5t-60.5 -21.5t-64.5 -14.5t-44 -3q-96 8 -180 2 t-159 -19.5t-142.5 -28.5t-130.5 -24q0 -29 -1 -84t-1 -116.5t1 -118.5t3 -90q66 27 110.5 42t87.5 27.5t93.5 24.5t126.5 31q68 16 98.5 17t37.5 -8t-7.5 -24.5t-38 -33t-51 -32.5t-50.5 -24q-55 -20 -96 -33.5t-84 -28.5t-95 -34.5t-128 -50.5q8 -195 17.5 -335t43.5 -241 q72 12 132.5 17.5t122 12.5t129 18.5t153.5 33.5q8 4 35.5 17.5t54.5 3.5q14 -6 24.5 -20.5t14.5 -32t0 -36t-16 -32.5q-23 -27 -48.5 -27t-42.5 11q-63 -16 -125.5 -23.5t-124 -14.5t-123 -15.5t-122.5 -24.5q8 -14 13 -35t-1 -47q-10 -45 -46 -55.5t-69 10.5 q-16 10 -26 33.5t-15 46.5q-18 -10 -38.5 -13.5t-40.5 13.5q-33 23 -40.5 51.5t11.5 54.5q12 18 33.5 22.5t36.5 8.5q-16 53 -26.5 134t-18 179.5t-10.5 207t-5 214t-2 202.5v175q-14 -4 -30.5 -5t-34.5 13q-14 12 -23.5 29.5t-12.5 36zM474 1349.5q7 18.5 67 61.5 q51 37 72.5 55.5t32.5 31.5t23.5 28.5t43.5 48.5q25 23 54.5 16.5t51 -28t26 -52t-15.5 -57.5q-27 -33 -55.5 -51.5t-59 -29.5t-60 -17t-60.5 -15q-20 -4 -53 -10t-53.5 -3t-13.5 21.5z" />
<glyph unicode="&#xca;" horiz-adv-x="1120" d="M120 1065q-1 18 5 34.5t22 24.5q20 12 42 6t36 -10q78 6 152 8t155.5 -3t178 -18t217.5 -36q82 -14 111.5 -28.5t26.5 -26.5t-30.5 -21.5t-61.5 -15.5t-65.5 -9t-44.5 -1q-96 18 -167.5 25t-132 9.5t-117 -1t-119.5 -5.5q-4 -57 -12.5 -135t-10.5 -143q68 20 123 33.5 t109.5 18.5t115 3t138.5 -14q102 -16 124.5 -35.5t2 -36t-65.5 -27t-80 -6.5q-84 8 -138 8.5t-102.5 -7t-101.5 -24t-131 -40.5q-4 -96 -3 -161.5t6 -116t14.5 -93.5t21.5 -94q72 4 138.5 19.5t136 34t143 38t162.5 33.5q8 4 35.5 15.5t54.5 -3.5q14 -6 22 -21.5t11 -32.5 t-2 -36t-19 -31q-23 -25 -50.5 -22.5t-39.5 14.5q-66 -10 -134.5 -27.5t-137 -36t-136 -36t-131.5 -27.5q6 -16 10.5 -36.5t-4.5 -45.5q-14 -45 -51 -51t-67 16q-16 10 -23.5 35t-11.5 47q-18 -10 -40 -10t-38 17q-33 27 -40 53t19 57q16 12 37 16.5t37 8.5 q-16 80 -23.5 183t-6.5 217t7.5 233.5t16.5 234.5q-14 -2 -30.5 -2t-32.5 16q-14 12 -21.5 31t-8.5 37zM264 1343q4 23 27.5 41.5t36.5 16.5q117 106 181 158.5t117.5 48.5t118 -66.5t179.5 -185.5q10 -4 31.5 -20.5t23.5 -45.5q2 -39 -19.5 -65.5t-62.5 -22.5 q-18 2 -40.5 26.5t-22.5 39.5q-88 104 -133.5 157.5t-82 57.5t-83 -40t-134.5 -132q0 -16 -11 -38t-34 -26q-37 -4 -67.5 26t-24.5 70z" />
<glyph unicode="&#xcb;" horiz-adv-x="1140" d="M17.5 1139.5q-1.5 21.5 21.5 52.5q16 18 35.5 19t36.5 -3q2 14 1 22.5t3 18.5q6 14 21.5 22.5t32.5 9.5t32.5 -5t23.5 -21q6 -12 4 -22t0 -25q178 16 328 28.5t277 16.5q25 20 47 29q20 6 41.5 1t40.5 -40q23 -43 9 -66.5t-41.5 -31.5t-55 -5t-33.5 13q-37 -4 -112 -12 t-164 -18.5t-180 -20.5t-159 -19q0 -29 -2 -75.5t-5 -98t-4 -100.5t1 -82q74 -10 163 -6t181 17.5t183.5 35t168.5 47.5q25 8 33 -7t6 -37.5t-14 -45t-29 -29.5q-106 -37 -196 -59t-172 -33.5t-161 -12.5t-163 3q4 -96 2 -182t-2 -161t3 -137.5t20 -113.5q82 23 173 44.5 t184 44t185 45t176 46.5q27 8 50 2q18 -4 31.5 -23.5t9.5 -62.5q-4 -41 -41 -60t-86 7q-63 -16 -147.5 -37.5t-171.5 -43t-172 -42t-148 -37.5l10 -32q-20 -18 -44 -21.5t-45.5 0.5t-36.5 10.5t-20 6.5l-2 4q-23 -10 -49 -6t-37 12q-29 29 -20.5 57.5t18.5 38.5 q10 16 26.5 21.5t27.5 3.5q-14 96 -15.5 234t2.5 288.5t9.5 298t5.5 262.5q-10 2 -24.5 3t-27.5 3q-23 10 -32 29q-10 16 -11.5 37.5zM282.5 1388.5q-1.5 36.5 22.5 65.5q23 29 59.5 31t67.5 -23q29 -23 30 -59.5t-22 -65.5t-60.5 -31.5t-68.5 23.5q-27 23 -28.5 59.5z M596 1400q-2 38 20 66q23 27 61 29t68 -20q27 -23 29.5 -59.5t-20.5 -67.5q-23 -29 -62 -32t-67 23q-27 23 -29 61z" />
<glyph unicode="&#xcc;" horiz-adv-x="550" d="M55 1436q-2 27 10.5 50t33 34.5t45 7.5t49.5 -31q18 -23 30.5 -52.5t27.5 -62t36.5 -64t60.5 -58.5q43 -31 42 -46.5t-23.5 -20.5t-52 -2t-42.5 9q-47 27 -86 50.5t-67.5 50t-45 58.5t-18.5 77zM149.5 -68.5q2.5 11.5 7.5 19.5t9 12q-12 131 -1 270.5t32.5 275.5t46 264 t41.5 237q2 10 -6.5 28.5t10.5 46.5q23 35 61.5 37.5t61.5 -28.5q29 -35 18.5 -59.5t-20.5 -35.5q-10 -90 -32 -209.5t-43.5 -257t-35.5 -283t-8 -284.5q2 -16 6 -25.5t6 -16.5t0 -16t-12 -24q-23 -35 -60.5 -37t-62.5 27q-14 18 -17.5 32.5t-1 26z" />
<glyph unicode="&#xcd;" horiz-adv-x="602" d="M100.5 -36q1.5 20 12.5 32q0 84 7 196.5t18.5 231.5t24.5 236.5t24.5 215t18.5 164t7 82.5q-10 14 -10 40t12 40q14 16 34.5 23.5t41 6.5t37 -9.5t22.5 -24.5t1 -40.5t-17 -35.5q0 -37 -6 -113.5t-16.5 -179t-23 -219t-23.5 -229.5t-20 -214t-12 -173q8 -6 10.5 -27.5 t-3.5 -34.5q-20 -41 -61.5 -39.5t-67.5 35.5q-12 16 -10.5 36zM258 1359.5q0 16.5 53 65.5q47 45 66.5 66.5t28 37t16.5 34t33 55.5q20 27 50 27t54.5 -18.5t35.5 -48t-5 -60.5q-20 -37 -40 -59.5t-44.5 -37t-54 -26t-68.5 -23.5l-45 -15t-56.5 -12.5t-23.5 15z" />
<glyph unicode="&#xce;" horiz-adv-x="714" d="M66 1319q10 29 31.5 40t37.5 9q61 90 117.5 140.5t115 49t124 -59.5t145.5 -187q16 2 34.5 -13.5t26.5 -52.5q10 -45 -19.5 -72.5t-64.5 -19.5q-29 6 -45 35t-12 45q-53 96 -96 141t-83 47t-80 -35.5t-85 -105.5q0 -23 -21.5 -43t-50.5 -20q-37 -2 -61.5 30.5t-13.5 71.5 zM233.5 1q2.5 11 7.5 19.5t9 12.5q-12 131 -13 283.5t7 303t21.5 291t29.5 248.5q-14 18 -16.5 34.5t16.5 45.5q23 35 63.5 35t63.5 -31q29 -35 18.5 -59.5t-20.5 -34.5q-10 -90 -19.5 -223t-17.5 -285t-11 -309.5t3 -296.5q14 -27 14 -45.5t-22 -48.5q-23 -35 -57 -31 t-58 33q-14 18 -17.5 32.5t-1 25.5z" />
<glyph unicode="&#xcf;" horiz-adv-x="518" d="M92 1398q-2 38 21 66q23 27 60.5 29t68.5 -20q27 -23 29 -59.5t-21 -65.5t-60.5 -32t-68.5 21q-27 23 -29 61zM111 -29.5q2 11.5 7 19.5t9 12q-12 131 0 290t36.5 317.5t51.5 306t43 255.5q-14 25 -16 40.5t16 43.5q23 35 63.5 33t63.5 -33q29 -35 18.5 -59.5 t-20.5 -34.5q-10 -90 -33.5 -229t-47 -299t-40 -325t-10.5 -304q2 -16 6 -25.5t6 -16.5t0 -16t-12 -24q-23 -35 -60.5 -37t-62.5 27q-14 18 -17 32.5t-1 26zM356 1463.5q-2 37.5 23 66.5q23 27 60.5 29t68.5 -23q27 -23 29 -58.5t-23 -66.5q-23 -29 -60.5 -32t-68.5 24 q-27 23 -29 60.5z" />
<glyph unicode="&#xd1;" horiz-adv-x="989" d="M-10 1293.5q4 21.5 24 39.5q18 18 35 22.5t30 -0.5t22.5 -13.5t15.5 -14.5q0 -2 2 -4q0 -2 1 -4t1 -4q16 10 36.5 7t41.5 -56q4 -10 -1 -31t-14 -45q109 -162 210.5 -315.5t188.5 -286.5t155.5 -239.5t115.5 -174.5q-2 63 -7 140t-6 195t5 293t26 433q-16 10 -23 35.5 t13 56.5q25 37 63.5 36t61.5 -32q20 -29 12 -56.5t-22 -39.5q-10 -209 -15.5 -359.5t-7.5 -258t-1 -183.5t3 -135t4.5 -112.5t2.5 -114.5q0 -16 9 -37t-9 -51q-16 -29 -53.5 -33t-61.5 18q-12 10 -11 22.5t-10 33.5q-127 188 -228 340.5t-181 274.5t-141.5 217t-110.5 171 q-16 -174 -27.5 -302t-14.5 -240.5t2 -221t19 -241.5q16 -12 24.5 -41t-13.5 -60q-25 -39 -67 -33.5t-66 35.5q-18 25 -8 53.5t26 42.5q-12 102 -19.5 185.5t-9.5 161t1 157.5t9.5 175.5t16.5 212t22 270.5q-4 10 -4 18t-6 8q-23 2 -38 14.5t-21 31t-2 40zM217 1401 q-14 39 8 72q16 25 45 28.5t45 -2.5q35 12 87.5 23.5t109.5 3.5q27 -4 51.5 -18.5t46 -28t41 -22.5t37.5 -3q117 43 169 53.5t61.5 -1t-15 -36t-61.5 -51t-76 -50.5t-59 -32q-18 -6 -46 2.5t-57 21.5t-54.5 26.5t-39.5 17.5q-61 12 -93 11t-65 -17q-4 -20 -30.5 -35.5 t-55.5 -9.5q-35 8 -49 47z" />
<glyph unicode="&#xd2;" horiz-adv-x="1234" d="M43 578.5q-8 138.5 41 287t178 291.5q78 86 174 119t182 39q100 8 203 -12q6 -2 19.5 -8.5t26 -16.5t20.5 -23.5t6 -31.5q0 -6 -4 -11q88 -49 149.5 -127.5t97 -174t49 -199t9.5 -202.5t-25.5 -186.5t-54.5 -146.5q-55 -104 -164.5 -167.5t-236.5 -76t-255 29.5t-222 149 q-78 88 -131.5 208.5t-61.5 259zM165 595q3 -116 44 -218.5t113 -181.5q68 -76 141.5 -110t145 -38t138 14.5t121 48t92.5 63t54 60.5q27 47 43 116t21 150t-6 168t-41 172t-80 161.5t-126 138.5q-39 18 -77.5 9t-55.5 -11q-88 -23 -134 -31t-62.5 -5t-9 12t23.5 22.5 t37.5 27t36.5 21.5q57 27 107 32t84 1.5t45 -9.5t-7 -2q-80 12 -157.5 2t-144.5 -32.5t-115 -52t-66 -54.5q-88 -117 -128 -237.5t-37 -236.5zM341 1573q3 31 20.5 50t46 21.5t67.5 -28.5q37 -29 46 -47.5t17.5 -34.5t29 -35.5t79.5 -48.5q20 -10 42 -26.5t24 -30 t-23.5 -21.5t-99.5 0q-80 8 -144.5 34t-95.5 105q-12 31 -9 62z" />
<glyph unicode="&#xd3;" horiz-adv-x="1265" d="M69.5 498.5q-8.5 138.5 41 287t178.5 291.5q78 86 174 119t182 39q100 8 203 -12q6 -2 19.5 -8.5t25.5 -16.5t20.5 -23.5t6.5 -31.5q0 -6 -5 -10q88 -49 149.5 -128t97.5 -174.5t49.5 -199t9.5 -202.5t-25.5 -186.5t-54.5 -146.5q-55 -104 -165 -167.5t-237 -76 t-255 29.5t-222 149q-78 88 -131 208.5t-61.5 259zM191.5 515q3.5 -116 44 -218t112.5 -182q68 -76 141.5 -110t145.5 -38t138.5 14.5t120.5 48t92 63.5t54 61q27 47 43.5 115.5t21.5 149.5t-6.5 168t-41 172t-79.5 161.5t-126 138.5q-39 18 -78 9t-55 -11q-88 -23 -134 -31 t-62.5 -5t-9.5 12t23.5 22.5t38 27t35.5 21.5q57 27 107.5 32t84.5 2t45 -9.5t-7 -2.5q-80 12 -158 2t-144.5 -32.5t-114.5 -52t-67 -54.5q-88 -117 -128 -237.5t-36.5 -236.5zM528 1301.5q2 17.5 62 62.5q49 37 66.5 59.5t24.5 42t12 43t28 64.5q25 43 61.5 51t69.5 -7 t50 -49t1 -73t-39.5 -65.5t-55.5 -48t-72 -41t-87 -44.5q-12 -6 -45 -12t-55.5 -3t-20.5 20.5z" />
<glyph unicode="&#xd4;" horiz-adv-x="1265" d="M69.5 498.5q-8.5 138.5 41 287t178.5 291.5q78 86 174 119t182 39q100 8 203 -12q6 -2 19.5 -8.5t25.5 -16.5t20.5 -23.5t6.5 -31.5q0 -6 -5 -10q88 -49 149.5 -128t97.5 -174.5t49.5 -199t9.5 -202.5t-25.5 -186.5t-54.5 -146.5q-55 -104 -165 -167.5t-237 -76 t-255 29.5t-222 149q-78 88 -131 208.5t-61.5 259zM191.5 515q3.5 -116 44 -218t112.5 -182q68 -76 141.5 -110t145.5 -38t138.5 14.5t120.5 48t92 63.5t54 61q27 47 43.5 115.5t21.5 149.5t-6.5 168t-41 172t-79.5 161.5t-126 138.5q-39 18 -78 9t-55 -11q-88 -23 -134 -31 t-62.5 -5t-9.5 12t23.5 22.5t38 27t35.5 21.5q-33 -2 -67.5 -8t-68.5 -19.5t-63.5 -35t-54.5 -52.5q-88 -117 -128 -237.5t-36.5 -236.5zM283 1313q8 39 27.5 51t35.5 10q43 80 101.5 135.5t160.5 106.5q125 -47 211 -92t105 -80q18 2 39.5 -10t29.5 -41q10 -39 -9 -72 t-66 -31q-41 0 -54.5 21.5t-15.5 42.5q-18 25 -80.5 58.5t-155.5 70.5q-33 -25 -58.5 -42.5t-48 -37t-42 -43t-37.5 -60.5q4 -16 -11.5 -45.5t-49.5 -33.5q-41 -8 -67 19.5t-15 72.5z" />
<glyph unicode="&#xd5;" horiz-adv-x="1206" d="M15.5 531.5q-7.5 138.5 41.5 287t176 291.5q78 86 174.5 119t182.5 39q100 8 205 -13q31 -2 49 -15t25.5 -29.5t4 -30t-13.5 -13.5q88 -49 149.5 -129t97.5 -175t49 -198.5t9 -203t-25.5 -186.5t-54.5 -146q-55 -104 -164.5 -166.5t-236.5 -76t-255 28.5t-222 148 q-78 88 -131 209t-60.5 259.5zM129 1332q-10 38 12 71q16 25 44 29t44 -5q37 27 80 48.5t84 36t76 18.5t53 -4q33 -14 74 -35t83 -36t81 -20t67 11q109 57 169.5 85t87 31t22.5 -11.5t-25.5 -39t-55.5 -54.5t-68.5 -57.5t-65.5 -47t-45 -21.5q-61 -16 -106.5 -12t-82 17.5 t-70.5 33t-75 35.5q-31 12 -60.5 9t-58 -15.5t-60.5 -30.5t-65 -39q-6 -20 -27.5 -38.5t-58.5 -6.5q-43 10 -53 48zM137 548q2 -116 43 -218.5t113 -182.5q68 -76 140.5 -111.5t143 -41.5t135 11.5t119 47t94.5 66t60 67.5q45 68 63.5 184.5t0 247t-78 257t-171.5 217.5 q-41 18 -79 9t-54 -11q-88 -23 -134.5 -29t-63.5 -3t-10 14t24.5 25.5t39 28t33.5 23.5q-92 -23 -160.5 -58.5t-91.5 -68.5q-90 -117 -129 -237.5t-37 -236.5z" />
<glyph unicode="&#xd6;" horiz-adv-x="1212" d="M22.5 623.5q-2.5 136.5 38.5 271.5t132 256q27 37 95 76t154 64.5t177.5 32.5t164.5 -19q66 -23 77 -43.5t1 -32.5q131 -76 202 -207t92.5 -280.5t0.5 -298t-74 -259.5q-20 -45 -74.5 -94t-128 -88t-162.5 -61.5t-182.5 -13t-183.5 56.5t-166 147q-78 102 -119.5 229 t-44 263.5zM151.5 609q4.5 -120 39 -227.5t94.5 -180.5q59 -76 129.5 -109t142.5 -37t141.5 15.5t127 50.5t97.5 64.5t54 60.5q27 53 43 128t21.5 159.5t-5 175t-39 171.5t-76 149.5t-118.5 111.5q-18 10 -41 13t-44.5 1t-37.5 -5t-25 -3q-119 -39 -171 -45t-57 7t30 37.5 t90 47.5q14 6 29.5 11t31.5 9q-55 -6 -106 -21t-93 -33.5t-73 -39t-45 -39.5q-78 -106 -111 -229t-28.5 -243zM405 1443q-2 38 23 66q23 29 59.5 31t67.5 -22q29 -23 30 -59.5t-22 -65.5t-60.5 -32t-68.5 21q-27 23 -29 61zM719 1455.5q-2 37.5 20 66.5q23 27 61 28.5 t68 -20.5q27 -23 29.5 -58.5t-20.5 -64.5q-23 -31 -62 -35t-67 23q-27 23 -29 60.5z" />
<glyph unicode="&#xd7;" horiz-adv-x="1071" d="M125 750q-16 43 9.5 79.5t72.5 32.5q23 -2 34 -23.5t23 -31.5q37 -23 79 -50.5t82 -55t75 -53t59 -46.5q12 12 44 47t68 73t66.5 72.5t42.5 51.5q2 2 5 11t7.5 20.5t14.5 22.5t29 15q35 10 65.5 -5t32.5 -68q2 -18 -5 -30.5t-17.5 -20t-19.5 -12.5t-11 -9 q-16 -14 -48 -50t-67 -76t-65.5 -76t-43.5 -50q27 -25 66 -57.5t79 -65.5t76.5 -61.5t61.5 -42.5q6 -4 16.5 -7t22.5 -7.5t22.5 -13.5t14.5 -25q18 -57 -8.5 -83t-67.5 -26q-23 0 -35 9t-20 21.5t-12.5 23t-6.5 12.5q-23 14 -60.5 41.5t-78.5 60.5t-82 66.5t-72 60.5 q-18 -20 -54 -59t-78 -82t-84 -85t-70 -67q-43 -39 -66.5 -51t-34 -8t-10.5 20.5t6 37t14.5 38.5t12.5 27q12 23 48 66.5t78 90.5t81 90t57 66q-23 18 -56.5 44t-72.5 54.5t-80 56t-78 52.5q-8 4 -30.5 9t-30.5 26z" />
<glyph unicode="&#xd8;" horiz-adv-x="1198" d="M26.5 578.5q-8.5 138.5 41 287t178.5 291.5q68 76 155.5 111t171.5 46t152 5t94 -10q14 29 18.5 48t12.5 29q2 6 5 34t22 44q16 14 41.5 12.5t47 -14t34 -34t4.5 -48.5q-10 -31 -25.5 -42t-24.5 -15q-6 -10 -19 -42t-34 -85q82 -53 137.5 -133t88 -174t45 -194.5t6 -197 t-26.5 -179.5t-53 -142q-45 -84 -125 -141.5t-176.5 -84t-202 -20t-201.5 51.5q-16 -33 -30.5 -59.5t-26.5 -51.5q-6 -12 -6 -33.5t-31 -44.5q-27 -18 -51.5 -15t-42 18.5t-24.5 39t1 49.5q10 29 26.5 32t18.5 11q29 43 60 119q-16 14 -33.5 29.5t-34.5 34.5 q-78 88 -131 208.5t-61.5 259zM148.5 595q3.5 -116 44 -218.5t112.5 -181.5q6 -8 14.5 -15.5t18.5 -17.5q45 106 99.5 236t107.5 263.5t104 259.5t94 226q-23 -2 -39 -5t-26 -5q-88 -23 -133 -30t-61.5 -3t-9.5 15t25.5 25.5t40 29t35.5 24.5q-96 -20 -166.5 -58t-95.5 -71 q-88 -117 -128 -237.5t-36.5 -236.5zM444 84q92 -45 182.5 -39t166 37t130 74.5t74.5 76.5q37 66 55.5 173.5t7.5 228.5t-58.5 241.5t-141.5 217.5q-41 -102 -92 -231.5t-106.5 -266.5t-111.5 -270t-106 -242z" />
<glyph unicode="&#xd9;" horiz-adv-x="1077" d="M36 635q-5 117 11 236.5t41 240.5q-10 23 -9 51.5t23 46.5q41 35 73 22t50 -46q8 -12 7 -26.5t-5 -28t-11 -23.5t-13 -14q-31 -176 -39 -298t4 -214.5t40 -167t66 -156.5q82 -102 179.5 -130t185.5 -10.5t154.5 65.5t89.5 98q25 55 35 145t8 198.5t-13.5 226.5t-29.5 230 q-20 10 -25.5 24.5t-7.5 31.5q-4 41 17.5 62.5t51 24.5t57.5 -12.5t34 -46.5q4 -16 1 -30.5t-14 -34.5q6 -29 15.5 -94.5t16.5 -150.5t12.5 -181t3 -186.5t-13.5 -167t-34 -123.5q-27 -53 -82 -99.5t-125.5 -76t-153.5 -41t-164 4t-156.5 62.5t-133.5 131 q-74 111 -107.5 225.5t-38.5 231.5zM250 1530q-4 33 7 62.5t32.5 44t50.5 8t57 -45.5q27 -37 36 -61.5t18.5 -48t30 -48t73.5 -59.5q66 -43 67 -60t-27 -19.5t-65.5 5t-50.5 13.5q-55 29 -96 49.5t-68.5 42t-44 48t-20.5 69.5z" />
<glyph unicode="&#xda;" horiz-adv-x="1087" d="M36 635q-5 117 11 236.5t41 240.5q2 10 2 25.5v31t2 26.5t10 15q47 29 76 19t47 -43q8 -12 6 -25.5t-8 -27t-12 -23.5t-8 -16q-31 -176 -39 -298t4 -214.5t40 -167t66 -156.5q82 -102 179.5 -130t185.5 -10.5t154.5 65.5t89.5 98q25 55 35 145t8 198.5t-13.5 226.5 t-29.5 230q-2 8 -16.5 23.5t-16.5 32.5q-4 41 17.5 62.5t51 24.5t57.5 -12.5t34 -46.5q4 -16 -5.5 -36.5t-7.5 -28.5q6 -29 15.5 -94.5t16.5 -150.5t12.5 -181t3 -186.5t-13.5 -167t-34 -123.5q-27 -53 -82 -99.5t-125.5 -76t-153.5 -41t-164 4t-156.5 62.5t-133.5 131 q-74 111 -107.5 225.5t-38.5 231.5zM550 1306.5q-3 18.5 19 43.5q43 49 64.5 71.5t35 39t26 32.5t38.5 53q20 29 51 29t55.5 -16.5t34.5 -46t-8 -58.5q-20 -37 -44.5 -52.5t-52.5 -26.5t-59.5 -27.5t-66.5 -55.5q-16 -16 -37.5 -18t-37 6t-18.5 26.5z" />
<glyph unicode="&#xdb;" horiz-adv-x="1087" d="M36 635q-5 117 11 236.5t41 240.5q-10 23 -9 51.5t23 46.5q41 35 73 22t50 -46q8 -12 7 -26.5t-5 -28t-11 -23.5t-13 -14q-31 -176 -39 -298t4 -214.5t40 -167t66 -156.5q82 -102 179.5 -130t185.5 -10.5t154.5 65.5t89.5 98q25 55 35 145t8 198.5t-13.5 226.5t-29.5 230 q-20 10 -25.5 24.5t-7.5 31.5q-4 41 17.5 62.5t51 24.5t57.5 -12.5t34 -46.5q4 -16 1 -30.5t-14 -34.5q6 -29 15.5 -94.5t16.5 -150.5t12.5 -181t3 -186.5t-13.5 -167t-34 -123.5q-27 -53 -82 -99.5t-125.5 -76t-153.5 -41t-164 4t-156.5 62.5t-133.5 131 q-74 111 -107.5 225.5t-38.5 231.5zM244 1372q8 37 28.5 50.5t36.5 11.5q31 31 53.5 54t49 44.5t58.5 45.5t81 56q63 -23 104 -44t68 -41.5t42 -40t26 -38.5q16 2 37.5 -9t31.5 -40q10 -39 -10.5 -72.5t-65.5 -29.5q-41 0 -56 20.5t-15 42.5q-10 12 -19.5 26.5t-25 30 t-41 31t-68.5 33.5q-31 -20 -54.5 -34.5t-42 -29t-36.5 -32.5t-41 -47q2 -8 0 -21.5t-9 -26t-18.5 -21.5t-29.5 -11q-39 -8 -67 19.5t-17 72.5z" />
<glyph unicode="&#xdc;" horiz-adv-x="1077" d="M38 631q-5 117 11.5 235.5t40.5 239.5q-16 14 -22.5 38.5t14.5 53.5q25 39 63.5 38t61.5 -32q20 -29 12 -56.5t-22 -41.5q-29 -180 -40.5 -310t-2 -226.5t39 -170t80.5 -143.5q63 -86 129 -126t129.5 -48t120 9.5t103.5 49t79.5 69.5t47.5 71q25 55 32 142t3.5 192.5 t-13.5 223t-22 234.5q-23 16 -27 48t23 61t63.5 33t61.5 -27q20 -25 11 -54.5t-22 -46.5q16 -115 30.5 -235.5t17.5 -234t-7 -215t-43 -177.5q-29 -68 -85 -122t-126.5 -86.5t-151.5 -44t-161 6t-153.5 66.5t-131.5 133q-74 111 -106.5 223.5t-37.5 229.5zM333.5 1284.5 q-1.5 38.5 22.5 67.5q23 27 61 28.5t66 -22.5q27 -23 30.5 -59.5t-19.5 -65.5t-61 -32t-71 22q-27 23 -28.5 61.5zM645 1295.5q-2 37.5 25 66.5q23 29 60.5 31t66.5 -23q27 -23 29 -59.5t-21 -65.5t-60.5 -32t-68.5 22q-29 23 -31 60.5z" />
<glyph unicode="&#xdd;" horiz-adv-x="1071" d="M87 1132.5q1 18.5 11.5 35t25.5 27.5t34 13q16 2 29.5 -4t23.5 -16t17.5 -20.5t13.5 -14.5q57 -41 93 -75t77 -80t98 -115.5t156 -184.5q27 57 48 101.5t44.5 85.5t50.5 87t61 109q-8 16 -7 41t26 54q12 16 29.5 21t36 1t35 -15.5t24.5 -27.5q14 -29 -2.5 -57.5 t-24.5 -40.5q-45 -86 -76.5 -147.5t-57.5 -114t-49.5 -102.5t-49.5 -113q-2 -6 13 -10.5t21 -12.5q45 -55 -2 -104q-14 -16 -37.5 -12.5t-41.5 14.5q-16 -51 -38 -100.5t-47.5 -105.5t-53 -126t-56.5 -162q10 -16 11 -44t-25 -56q-12 -16 -32 -20.5t-39 0.5t-36.5 18.5 t-25.5 29.5q-8 14 -6.5 29.5t8 29t14.5 24t12 16.5q35 109 65.5 191.5t57.5 149t50.5 123t45.5 111.5q-74 90 -125 155.5t-88 110.5t-63.5 76t-50 54.5t-49 44t-58.5 45.5q-16 -4 -38.5 5t-43.5 44q-10 16 -9 34.5zM472 1280q-1 16 54 72q43 43 65.5 67.5t33 45t16.5 46 t16 68.5q12 49 46 56t69 -9t57.5 -48t12.5 -65q-14 -39 -30.5 -65.5t-43.5 -48t-66.5 -44t-99.5 -52.5q-10 -6 -44 -19.5t-59.5 -16.5t-26.5 13z" />
<glyph unicode="&#xdf;" horiz-adv-x="1036" d="M83 901q-9 127 0 229.5t44 155.5q55 82 129 133t151.5 71.5t150.5 9.5t126 -50q55 -43 58 -88t-25.5 -88t-74.5 -83t-88 -74t-66.5 -58.5t-8.5 -38.5q6 -6 40 9t82 33.5t104.5 34t108.5 11.5t94.5 -36.5t62.5 -108.5q41 -154 24.5 -314t-69 -297t-127 -239.5t-148 -145.5 t-135 -12t-86.5 160q-23 8 -34 33.5t-7 54.5q8 41 50 58.5t79 -1.5q47 -25 35 -88q6 -68 38 -73t75 39t87 126t74.5 185.5t38.5 221t-20 230.5q-12 45 -37 62.5t-58.5 17.5t-72.5 -14.5t-80 -31.5t-81 -33.5t-74.5 -22t-61.5 7t-41 49.5q-18 47 -5 94t44 91t69.5 82t71.5 70 t52.5 53.5t9.5 31.5q-20 20 -67.5 19t-101 -18.5t-102.5 -52t-69 -81.5q-27 -61 -32 -156.5t4 -210.5t29.5 -240.5t45 -248.5t48 -234.5t40.5 -197.5q8 -2 17 -14.5t15.5 -29t7.5 -36t-7 -35.5q-10 -18 -27.5 -30.5t-37 -15.5t-39 1t-34.5 20q-20 23 -18 53.5t8 45.5 q-18 80 -45 198.5t-53.5 255.5t-49 280.5t-31.5 270.5z" />
<glyph unicode="&#xe0;" horiz-adv-x="923" d="M25.5 387q-5.5 98 30.5 190.5t110 147.5q63 47 134 74.5t142.5 29.5t142 -24.5t136.5 -85.5q2 12 4 47t4 47q-14 12 -18 34.5t16 53.5q25 39 63.5 38t61.5 -32q20 -29 12 -56.5t-22 -41.5q-10 -205 0 -401.5t12 -380.5q16 -12 22 -37t-14 -56q-25 -39 -65.5 -37.5 t-63.5 31.5q-18 27 -13 56.5t19 46.5q-4 45 -5 68.5t-5 58.5q-27 -31 -64.5 -70t-97 -61.5t-145.5 -16.5t-209 64q-90 43 -136 129t-51.5 184zM140 406.5q1 -66.5 29 -125t79 -88.5q125 -76 208 -71t135 53t81 117t45 122q12 45 4 81.5t-23.5 65.5t-33 46.5l-21.5 21.5 q-94 94 -199.5 89t-197.5 -77q-55 -41 -81 -104.5t-25 -130zM213 1325q-4 33 14.5 59.5t45 39t54 6t44.5 -36.5q18 -43 23 -76t11.5 -66.5t20.5 -72t51 -91.5t34 -72.5t-24.5 -19.5t-50 15.5t-43.5 33.5q-33 43 -63.5 77t-55 66t-41 64.5t-20.5 73.5z" />
<glyph unicode="&#xe1;" horiz-adv-x="960" d="M47 390q-4 97 31 188.5t108 146.5q63 47 135 81t145 44t144.5 -9.5t137.5 -78.5q0 12 1 24.5t3 22.5q-14 16 -20.5 44t11.5 58q10 18 27.5 27.5t37 9.5t37 -9t29.5 -28q18 -27 9 -56.5t-23 -45.5q0 -102 3 -185t8.5 -160t12.5 -155t17 -166q16 -14 28.5 -41.5t-5.5 -60.5 q-23 -41 -67 -45t-77 35q-20 27 -8 57.5t25 44.5q-4 43 -7.5 75t-7.5 62q-33 -63 -79 -121.5t-111.5 -92t-153.5 -32.5t-205 56q-90 43 -136 128t-50 182zM161 396.5q1 -68.5 29.5 -127t83.5 -83.5q125 -55 208 -39.5t135.5 66.5t82.5 120t50 122q12 37 3.5 72.5t-25.5 66.5 t-34.5 51.5t-21.5 24.5q-47 47 -99.5 61t-104.5 7t-104.5 -33.5t-97.5 -63.5q-55 -41 -80.5 -108.5t-24.5 -136zM466 1077.5q-1 20.5 36 65.5q39 49 53 83t19.5 62.5t7.5 58t20 70.5q14 33 43 39t54.5 -6t43 -39.5t11.5 -60.5q-8 -45 -23.5 -77t-38 -60.5t-52.5 -58.5 l-67 -67q-16 -16 -42.5 -26t-45 -7t-19.5 23.5z" />
<glyph unicode="&#xe2;" horiz-adv-x="1071" d="M95 366.5q-5 98.5 29 192.5t101 156q59 51 130 85t144.5 43t147.5 -12.5t139 -78.5q0 10 1 21t4 22q-14 12 -20.5 36.5t13.5 53.5q25 39 64 38t61 -32q20 -29 12 -56.5t-22 -39.5q-2 -100 2 -186.5t11.5 -167.5t17.5 -159.5t20 -164.5q14 -10 24 -36.5t-13 -57.5 q-27 -37 -67 -38t-63 29q-20 23 -14 53.5t19 47.5q-6 35 -8.5 59.5t-4.5 52.5q-31 -57 -73.5 -113.5t-105 -88t-150.5 -30.5t-211 60q-90 43 -136.5 128t-51.5 183.5zM188 1116q6 29 25.5 42t40.5 13q6 16 20.5 41t42 54.5t71.5 64.5t112 74q55 -29 92 -58.5t64.5 -60.5 t49 -63.5t46.5 -69.5q18 2 40.5 -8t32.5 -47q12 -41 -12.5 -71t-62.5 -26q-33 0 -51.5 26t-18.5 46q-23 35 -41 62.5t-36.5 51t-43 44t-59.5 41.5q-84 -47 -116 -100.5t-46 -79.5q2 -20 -12.5 -43t-55.5 -27q-45 -8 -67.5 24.5t-14.5 69.5zM214 391.5q1 -67.5 26.5 -126 t76.5 -91.5q82 -51 145.5 -61.5t112 6t83 53.5t60 84t42 96t28.5 88q12 45 4 84t-25 66.5t-34.5 45l-21.5 21.5q-47 47 -100.5 63.5t-107.5 9.5t-105.5 -32.5t-92.5 -64.5q-47 -45 -69.5 -109.5t-21.5 -132z" />
<glyph unicode="&#xe3;" horiz-adv-x="974" d="M59 426q0 76 17.5 146.5t50.5 130t82 96.5q63 47 135 69.5t145.5 18.5t145.5 -36t135 -91q2 14 3 27.5t3 25.5q-12 14 -19 39t13 53q27 39 64.5 38t60.5 -32q23 -29 13.5 -56.5t-21.5 -41.5q-4 -104 1 -188t12 -161t14.5 -155t11.5 -168q0 -4 5 -12t9 -20.5t4 -27 t-10 -28.5q-25 -39 -66 -40t-63 30q-20 27 -14 58.5t16 48.5q0 18 -1 28t-1 16.5t-1 11.5t-1 13q-27 -59 -77 -118.5t-120.5 -93.5t-162 -29.5t-199.5 69.5q-63 39 -103.5 99.5t-61 132t-20.5 147.5zM151.5 1052q-14.5 38 8.5 70q18 25 47 29t45 -2q16 6 41.5 12t53.5 10.5 t55.5 5.5t46.5 -3q16 -2 39.5 -15.5t48 -29t48 -24.5t40.5 -3q109 47 157.5 58t57 -1t-14 -38.5t-56.5 -55.5t-70 -51.5t-56 -26.5q-18 -4 -47 4t-57.5 20.5t-54 25t-40.5 16.5q-61 14 -91.5 12t-63.5 -18q-6 -18 -34 -34t-54 -9q-35 10 -49.5 48zM179 425 q-1 -83 24.5 -156.5t77.5 -104.5q82 -51 148.5 -60.5t117.5 9t89 59.5t65.5 90t45 99.5t29.5 91.5q10 43 0 82.5t-28 68.5q-23 35 -54 66q-94 94 -205.5 99t-203.5 -67q-51 -41 -78 -117.5t-28 -159.5z" />
<glyph unicode="&#xe4;" horiz-adv-x="923" d="M2 383q-6 98 27.5 192.5t107.5 149.5q63 47 135 81t144.5 44t144.5 -9.5t137 -78.5q0 12 1 25.5t3 25.5q-16 12 -22 38t14 54q25 39 64 38t61 -32q20 -29 12 -56.5t-22 -41.5q-2 -104 5 -196.5t16.5 -179.5t18.5 -172t9 -173q16 -12 22 -36.5t-14 -55.5 q-25 -39 -65.5 -40t-63.5 30q-20 25 -14 55.5t20 46.5q2 41 3.5 81t-1.5 75q-35 -63 -79.5 -121.5t-108 -91.5t-153 -31t-211.5 62q-90 43 -137.5 131t-53.5 186zM116 403.5q3 -67.5 31.5 -128t79.5 -91.5q82 -51 147.5 -60t115 8.5t84 56t60 84.5t41 94.5t25.5 85.5 q10 41 0 79.5t-26 69.5q-20 37 -51 68q-47 47 -99.5 61t-104.5 7t-104.5 -33.5t-97.5 -63.5q-55 -41 -79.5 -105.5t-21.5 -132zM147 1140q-2 38 21 66q23 29 60.5 31t68.5 -25q27 -23 29 -59.5t-21 -65.5t-60.5 -31.5t-68.5 23.5q-27 23 -29 61zM458.5 1150.5 q-1.5 37.5 20.5 66.5q25 27 62 28.5t67 -20.5q27 -23 29 -58.5t-21 -64.5q-23 -31 -61.5 -35t-67.5 23q-27 23 -28.5 60.5z" />
<glyph unicode="&#xe5;" horiz-adv-x="923" d="M8 484.5q8 97.5 55.5 181.5t124.5 131q70 39 145 61.5t147.5 20.5t141 -32t126.5 -95q4 12 6 24t6 27q-12 16 -16.5 41.5t22.5 50.5q29 35 66 31t57 -39q16 -31 5 -57.5t-28 -38.5q-16 -104 -20 -197.5t-5 -181.5t-2 -175t-10 -178q2 -6 11.5 -33.5t-13.5 -54.5 q-31 -35 -70.5 -31.5t-56.5 37.5q-20 27 -10 58t21 47q6 37 9 67.5t-1 63.5q-35 -55 -89.5 -105.5t-126 -72t-159.5 -5t-186 96.5q-86 68 -122 164t-28 193.5zM129 469q-6 -68 13.5 -131.5t66.5 -99.5q76 -59 139.5 -79t113.5 -9.5t90 43t70.5 76.5t53.5 91t39 86 q16 41 10 81t-20 73q-16 37 -43 72q-41 51 -91.5 71.5t-103.5 19.5t-108.5 -20.5t-104.5 -50.5q-55 -35 -87 -95t-38 -128zM309 1186q-2 35 16.5 64.5t47 51t62.5 33t65 8.5q57 -4 103 -45.5t50 -109.5q4 -41 -11 -74t-41 -56.5t-56.5 -35.5t-59.5 -10q-31 2 -61.5 18.5 t-56 42t-42 55t-16.5 58.5zM401 1190q0 -27 29 -55.5t62 -28.5q31 0 53 18.5t22 51.5q0 31 -14 56t-45 25q-35 0 -70 -18t-37 -49z" />
<glyph unicode="&#xe6;" horiz-adv-x="1472" d="M57.5 345q-8.5 97 23.5 188.5t105 146.5q66 49 136.5 76.5t140 28.5t136.5 -25.5t126 -81.5q2 -2 -6 3t-18.5 15.5t-17.5 24.5t-1 33q12 29 31.5 41t40 9t39 -18.5t24.5 -42.5q2 -10 3 -16t1 -12q27 29 68 61.5t76 44.5q4 2 48 10.5t104.5 -1t128 -51.5t120.5 -140 q0 -2 10 -8t22.5 -16.5t23 -24t10.5 -29.5q0 -23 -14.5 -43t-35 -29.5t-44 -5.5t-42.5 29q-2 2 -56 -19.5t-128 -49t-149.5 -56.5t-120.5 -41q4 -41 8 -85t31 -66q27 -25 48 -40.5t44.5 -25.5t51.5 -16.5t65 -10.5q90 -10 137 5.5t65 35.5q49 49 76 64.5t36 8.5t5 -29.5 t-14.5 -48t-22.5 -50.5t-20 -33q-12 -12 -38 -27.5t-61.5 -25.5t-81 -15t-94.5 1q-47 6 -102 19t-96 42q12 -25 18 -57.5t-37 -57.5q-23 -14 -44 -9t-35.5 20.5t-19.5 36t3 38.5q-4 41 -6 71t-6 65q-31 -59 -73 -113.5t-102.5 -83.5t-143.5 -19.5t-193 78.5 q-84 51 -129 140.5t-53.5 186.5zM179 356.5q5 -67.5 32 -128t68 -93.5q80 -61 144 -66.5t113.5 22.5t85 78t60.5 97q14 31 21.5 71t5.5 82t-13.5 81t-33.5 69q-37 51 -87.5 74t-103.5 23t-106.5 -19.5t-98.5 -54.5q-51 -41 -71.5 -104.5t-15.5 -131zM829 461q55 12 131 33.5 t145 43t116 39t45 17.5q-47 61 -87 90t-74 37t-60.5 4t-45.5 -8q-74 -23 -119.5 -90.5t-50.5 -165.5z" />
<glyph unicode="&#xe7;" horiz-adv-x="841" d="M29 496q8 73 30.5 125.5t54 90.5t68.5 72q35 33 106.5 52.5t153.5 16.5t159 -32.5t122 -93.5q23 -4 35 -22t14 -43q2 -18 -8 -37t-26.5 -30t-36 -15.5t-35.5 4.5q-25 12 -33 39.5t-4 48.5q-27 35 -78 52t-106.5 19t-105.5 -10t-75 -35q-29 -27 -53.5 -51t-41.5 -62 t-23.5 -97.5t4.5 -155.5q2 -16 5 -41t17 -52.5t45 -54t86 -47.5q35 -12 71 -14t66.5 1t56 11t38.5 19q72 51 96 48t20 -31t-27.5 -63.5t-45.5 -50.5q-18 -12 -50 -23t-69 -18.5t-74 -9.5t-63 8q-2 -25 -3.5 -35t-0.5 -15t5.5 -8t12.5 -11q31 -33 54.5 -34t48 7t52 12 t64.5 -16q49 -29 50 -75t-25.5 -91t-69.5 -80t-82 -41q-43 -6 -68.5 -5t-41 8.5t-24.5 21.5t-15 35q-4 12 1 23t14 20.5t21.5 14.5t22.5 7q20 4 44 -5l40 -15q23 2 42 14t30.5 26.5t13.5 29t-8 18.5q-25 10 -50.5 1t-56.5 -13.5t-67.5 10t-81.5 69.5q-16 20 -21.5 36 t-4.5 33t5 37.5t4 51.5q-53 18 -89 48t-57.5 66t-32.5 76.5t-15 83.5q-12 104 -4 177z" />
<glyph unicode="&#xe8;" horiz-adv-x="845" d="M-41.5 431.5q12.5 25.5 41.5 33.5q16 4 23.5 3t13.5 -1q18 170 85.5 268.5t158.5 116.5q25 6 78 2t119.5 -30.5t141 -82t144.5 -151.5q4 -6 15.5 -21.5t20.5 -34t12 -38t-9 -33.5q-18 -23 -45 -32t-53 7q-2 0 -43 -3t-102.5 -8t-133.5 -13t-132.5 -16.5t-100 -15.5 t-39.5 -13q2 -33 12 -77t34.5 -87t67.5 -76t115 -41q45 -6 78 -1t57.5 14.5t39.5 20.5t28 21q78 61 113.5 80t45 10.5t-2 -35t-31 -58t-39 -60.5t-27.5 -37q-12 -12 -37.5 -26.5t-61.5 -25.5t-81 -15.5t-94 1.5q-92 12 -154.5 58.5t-100.5 104t-54.5 114.5t-16.5 94 q-6 -2 -15.5 -6t-19.5 -4t-20 6t-21 27q-23 35 -10.5 60.5zM94 1337q0 33 25.5 53.5t58.5 25.5t61.5 -8t34.5 -50q10 -45 16.5 -85t15.5 -74t24.5 -63.5t46.5 -54.5q57 -51 57 -71.5t-26.5 -20.5t-62.5 14.5t-50 30.5q-33 41 -70 77t-66.5 72t-48 73.5t-16.5 80.5zM141 485 q33 10 85.5 17.5t110.5 13.5t117.5 10t106.5 7.5t76 4.5t29 3q-94 125 -185.5 170t-163.5 37q-70 -10 -114.5 -80t-61.5 -183z" />
<glyph unicode="&#xe9;" horiz-adv-x="845" d="M-44 443.5q5 25.5 32 45.5q12 10 29.5 4t23.5 -6q18 170 83.5 258.5t156.5 106.5q25 6 76 1t115.5 -32.5t138 -85t143.5 -153.5q4 -6 14 -18.5t20.5 -27t14.5 -31t-4 -30.5q-16 -27 -48 -40t-46 11q-2 0 -43 -2t-103.5 -7t-135.5 -12t-134.5 -14.5t-102.5 -14.5t-41 -11 q0 -43 10.5 -91t36 -91t69.5 -75t116 -40q92 -10 143 7.5t74 35.5q55 43 75.5 40t18.5 -26.5t-16.5 -55.5t-26.5 -46q-12 -12 -37.5 -26.5t-61.5 -25.5t-81 -15.5t-94 1.5q-94 12 -156.5 55.5t-99.5 100.5t-52.5 121.5t-13.5 122.5q-16 -4 -41.5 -3t-40.5 21 q-16 23 -11 48.5zM150 485q55 10 141 19.5t168 16.5t141 12.5t57 7.5q-47 61 -99 104t-100 69.5t-86 37t-57 6.5q-74 -20 -112.5 -89t-52.5 -184zM354 1026q-4 16 29 59q37 49 53.5 86t23.5 70t10 66.5t13 76.5q12 49 45 56.5t65 -9t53 -48t11 -64.5q-29 -78 -71.5 -147.5 t-126.5 -135.5q-10 -8 -36 -17t-45.5 -9t-23.5 16z" />
<glyph unicode="&#xea;" horiz-adv-x="890" d="M17.5 423q13.5 26 41.5 34q14 4 22.5 3t14.5 -1q18 170 86 268t158 117q25 6 77 3t118.5 -29.5t141.5 -83t146 -152.5q4 -4 17.5 -13.5t21.5 -23.5q16 -27 16.5 -54.5t-30.5 -44.5q-20 -16 -47 -13t-43 26q0 2 -40 -1t-100.5 -9.5t-130 -14.5t-129 -17t-99.5 -18.5 t-40 -17.5q0 -37 8.5 -85t33 -93t67.5 -80t112 -43q45 -6 79 -1t57.5 14t40 20.5t26.5 21.5q78 61 115 79.5t46 10.5t-2 -34.5t-30.5 -58.5t-39 -60.5t-27.5 -36.5q-12 -12 -38 -26.5t-62 -26t-81 -15.5t-94 2q-92 12 -154.5 58.5t-100.5 103.5t-55.5 114.5t-17.5 94.5 q-6 -2 -14 -6t-18.5 -4t-21.5 6t-21 26q-23 35 -9.5 61zM115 1010q6 29 25.5 43t39.5 14q6 16 21.5 41t43 54.5t71.5 64.5t112 71q100 -41 154.5 -104.5t97.5 -144.5q20 2 41 -8.5t31 -47.5q12 -43 -12.5 -72.5t-63.5 -25.5q-33 0 -51.5 26.5t-18.5 45.5q-20 39 -37.5 67.5 t-38 51t-45 42t-59.5 39.5q-43 -23 -70.5 -49t-45 -51t-28 -46.5t-18.5 -33.5q0 -20 -19.5 -42.5t-47.5 -26.5q-18 -2 -35 6t-29 21t-17 29.5t-1 35.5zM209 477q37 6 89 13.5t109.5 12.5l115 10t102.5 9t71.5 6t26.5 4q-94 125 -184 171.5t-162 35.5q-72 -10 -112 -78.5 t-56 -183.5z" />
<glyph unicode="&#xeb;" horiz-adv-x="899" d="M41 438q-4 100 34 182t93 140.5t116.5 91.5t106.5 39q25 4 77 -1t116.5 -39t132 -104.5t123.5 -193.5q2 -6 11 -19.5t17.5 -30t10 -33t-8.5 -30.5q-8 -12 -22 -21t-29.5 -13.5t-29 0t-19.5 16.5l-46 2t-113.5 4t-146.5 3t-146.5 1t-113.5 -2t-46 -8q4 -37 17 -85t46 -91 t89.5 -75t146.5 -38q90 -4 137 8.5t70 26.5q82 53 120.5 69.5t47 7.5t-6 -35t-36 -54.5t-44 -54t-30.5 -33.5q-27 -23 -103.5 -37.5t-177.5 -7.5q-117 8 -191.5 58t-118.5 114.5t-62.5 132t-20.5 110.5zM170 537q35 10 89 14t115.5 3t124 -5t111.5 -8t80 -7.5t31 -1.5 q-41 82 -81 131.5t-78 74t-74.5 31.5t-71.5 7q-37 -4 -77 -17.5t-76 -41t-61.5 -72.5t-31.5 -108zM188 1073.5q-2 36.5 21 67.5q23 27 61.5 28.5t67.5 -22.5q27 -23 29 -59.5t-21 -65.5t-60.5 -32t-68.5 22q-27 25 -29 61.5zM499.5 1084.5q-1.5 37.5 20.5 66.5 q25 29 61.5 31t67.5 -23q27 -23 29 -59.5t-21 -65.5t-60.5 -32t-68.5 22q-27 23 -28.5 60.5z" />
<glyph unicode="&#xec;" horiz-adv-x="524" d="M80 1245q6 27 28.5 53.5t51 39t57.5 2t45 -61.5q14 -43 12 -76t-4 -67.5t3 -74.5t34 -97q25 -47 18.5 -62.5t-26.5 -11.5t-43 18.5t-31 24.5q-33 43 -61.5 87t-49 85t-30.5 78t-4 63zM224 54q9 26 20 42q10 59 16 105.5t6 106t-6 144.5t-20 224q-10 14 -13.5 50t21.5 58 q27 25 66 17t57 -41q20 -33 11 -58.5t-24 -37.5q12 -82 18.5 -156t7.5 -143.5t-4 -137t-18 -139.5q10 -16 13.5 -50t-21.5 -56q-27 -25 -66.5 -18t-60.5 44q-12 20 -3 46z" />
<glyph unicode="&#xed;" horiz-adv-x="641" d="M193 366.5q0 69.5 7 142.5t19 157q-16 12 -23.5 37.5t11.5 56.5q18 33 57 41t66 -17q25 -23 21.5 -58.5t-13.5 -49.5q-14 -139 -20.5 -224t-6.5 -144.5t6.5 -105.5t16.5 -106q10 -16 17 -40.5t-3 -47.5q-16 -35 -57 -43t-68 17q-25 23 -21.5 56.5t13.5 49.5 q-12 72 -17 140.5t-5 138zM244 967.5q-4 15.5 28 58.5q39 49 55.5 86t23.5 69.5t10.5 66.5t13.5 79q12 47 45 55.5t64.5 -9t53 -49t11.5 -64.5q-14 -39 -33.5 -80t-45.5 -79t-56.5 -71t-65.5 -53q-10 -6 -35.5 -15.5t-45 -9.5t-23.5 15.5z" />
<glyph unicode="&#xee;" horiz-adv-x="845" d="M78 1036q10 29 31.5 40t37.5 9q10 18 29 44t50.5 55.5t76.5 58.5t109 51q51 -25 85.5 -55.5t61.5 -65t46.5 -72.5t39.5 -77q16 2 37 -11t29 -50q10 -45 -19.5 -73t-64.5 -20q-29 6 -45.5 35t-12.5 45q-18 37 -34.5 65.5t-35 53.5t-41 47.5t-55.5 46.5 q-43 -18 -72.5 -40.5t-49 -46t-32.5 -45t-24 -34.5q0 -23 -21.5 -43t-49.5 -20q-37 -2 -61.5 30.5t-14.5 71.5zM273.5 58q11.5 26 21.5 42q10 59 16 105.5t6 105t-6 144.5t-20 225q-6 6 -10.5 20.5t-4.5 29.5t5.5 30.5t17.5 27.5q27 25 67 21t60 -37t9 -62.5t-25 -41.5 q12 -82 18 -156t7 -143.5t-4 -137t-17 -139.5q10 -16 14 -50t-18 -56q-27 -25 -71 -18t-65 44q-12 20 -0.5 46z" />
<glyph unicode="&#xef;" horiz-adv-x="579" d="M88 1041.5q-2 37.5 21 66.5q25 29 61.5 31t67.5 -23q27 -23 29 -59.5t-21 -65.5t-61 -32t-68 22q-27 23 -29 60.5zM143 59.5q2 32.5 13 49.5q8 76 15 146.5t14.5 141t15.5 144t20 155.5q-14 14 -23.5 40t11.5 59q20 33 58 41t65 -19q25 -23 21.5 -57.5t-13.5 -48.5 q-14 -139 -23.5 -226.5t-16.5 -148t-13 -108.5t-13 -111q10 -14 19.5 -40t-2.5 -48q-20 -37 -60.5 -43t-66.5 18q-23 23 -21 55.5zM303 1004.5q-2 37.5 21 66.5q23 27 60.5 29t68.5 -21q27 -23 29 -58.5t-21 -64.5q-23 -31 -62 -34.5t-67 22.5q-27 23 -29 60.5z" />
<glyph unicode="&#xf1;" horiz-adv-x="860" d="M59.5 827q-6.5 29 14.5 58q12 18 31.5 27.5t39 10.5t38 -7.5t30.5 -22.5q20 -25 12 -55.5t-24 -42.5q-2 -59 -5 -107.5t-8 -99.5q49 82 114 127t129.5 62.5t123.5 10t98 -31.5q82 -49 119 -121t47 -159t1 -188t-17 -212q12 -14 16 -49t-24 -62q-35 -33 -70 -25.5 t-57 35.5q-10 12 -11.5 26.5t3 28t12.5 25t16 15.5q10 106 18.5 197t1 167t-34 132.5t-87.5 92.5q-33 18 -79 17.5t-98.5 -32.5t-108.5 -100.5t-107 -185.5q-4 -37 -3.5 -60.5t4 -51t8.5 -69.5t9 -116q10 -10 18.5 -37.5t-14.5 -58.5q-12 -18 -31.5 -27.5t-39 -10.5t-38 7.5 t-30.5 22.5q-18 25 -11 55.5t23 44.5q-6 78 -11 135.5t-8 105.5t-3 93t1 99.5t4 125t9 170.5q-14 12 -20.5 41zM131 1056q-14 38 8 70q18 25 47 29t45 -2q35 12 87.5 22.5t109.5 2.5q27 -4 52.5 -18.5t48 -30t41 -23.5t34.5 0q96 55 141.5 69.5t53.5 2t-10.5 -41t-49 -60.5 t-63.5 -56.5t-53 -28.5q-18 -4 -47 4.5t-58 20.5t-54.5 24.5t-39.5 16.5q-61 14 -92 12t-64 -18q-6 -18 -33.5 -34t-54.5 -9q-35 10 -49 48z" />
<glyph unicode="&#xf2;" horiz-adv-x="948" d="M37 558q4 50 16 83q25 66 93.5 109t157.5 61t184.5 12t173.5 -39q88 -35 148 -119.5t81.5 -185t0.5 -196t-95 -152.5q-115 -86 -229.5 -98.5t-210 14.5t-163 76t-85.5 86q-29 55 -46.5 117.5t-23.5 122t-2 109.5zM150.5 476q3.5 -46 15.5 -102.5t45 -109.5 q27 -45 87 -77.5t134 -43t151 5t138 66.5q45 39 60.5 104.5t3 134t-53.5 131t-104 95.5q-53 27 -122 37t-135.5 0t-125 -43t-92.5 -90q2 0 -1.5 -31t0 -77zM256 1241q-12 33 9.5 64.5t54 48t65.5 9.5t45 -56q10 -43 13 -77t10.5 -68t23.5 -70.5t53 -85.5q33 -43 29 -58.5 t-24.5 -16.5t-45 8t-34.5 19q-78 70 -124 137.5t-75 145.5z" />
<glyph unicode="&#xf3;" horiz-adv-x="913" d="M38 357.5q-5 101.5 30.5 200.5t111.5 159q63 51 154.5 80.5t182.5 34t169 -20.5t119 -80q20 -27 36.5 -74t26 -105t9 -123t-14.5 -126q-6 -29 -31.5 -68.5t-66.5 -79.5t-98.5 -76t-127 -55.5t-150.5 -16.5t-169 40q-86 35 -131 122t-50 188.5zM147.5 361.5 q6.5 -70.5 38 -130t86.5 -86.5q70 -31 149 -25.5t147.5 35t119 76t64.5 97.5q16 61 13 118.5t-12.5 102.5t-20.5 73l-11 27q-47 47 -110.5 63.5t-131 9.5t-130 -33.5t-107.5 -65.5q-55 -49 -78 -120t-16.5 -141.5zM389 936q-4 16 29 59q37 49 53 86t23.5 70t10.5 66.5 t13 76.5q12 49 45 56.5t64.5 -9t53 -48t11.5 -64.5q-29 -78 -75 -144.5t-123 -138.5q-10 -8 -35 -17t-45.5 -9t-24.5 16z" />
<glyph unicode="&#xf4;" horiz-adv-x="921" d="M21.5 389.5q9.5 67.5 35 131t67.5 115.5t97 85q74 43 168 57.5t184.5 1t164 -52.5t104.5 -100q14 -31 29.5 -75t18.5 -99.5t-11.5 -120t-57.5 -137.5q-16 -27 -50 -63t-82 -68.5t-108.5 -57t-130 -31t-147.5 11t-158 68.5q-53 33 -82.5 86.5t-40 117t-1 131zM86 901 q8 39 27.5 51.5t36.5 10.5q20 39 41.5 77.5t47 73.5t61.5 65.5t87 55.5q61 -23 106.5 -51.5t76 -58t49 -55.5t28.5 -44q18 2 40 -10t30 -41q10 -39 -9.5 -72t-66.5 -31q-41 0 -54.5 21.5t-15.5 42.5q-10 12 -22 32.5t-31.5 44t-50.5 47t-76 42.5q-33 -25 -54.5 -47.5 t-38.5 -47t-33.5 -53t-35.5 -65.5q2 -8 -2 -20.5t-12 -25t-20.5 -22.5t-26.5 -12q-35 -4 -63.5 21.5t-18.5 70.5zM129 378q-6 -71 15.5 -134.5t72.5 -100.5q61 -43 137 -49t146.5 12.5t130 55.5t88.5 80q43 68 53 126t4 101t-12 55l-19 37q-39 55 -99 82t-127.5 32 t-134.5 -10.5t-118 -46.5q-61 -39 -96 -104t-41 -136z" />
<glyph unicode="&#xf5;" horiz-adv-x="905" d="M39 352.5q-4 69.5 11.5 135t48 124t83.5 97.5q66 49 152 87t174 47t168 -16.5t131 -101.5q70 -102 77 -203.5t-20 -224.5q-6 -29 -31.5 -69t-66.5 -79.5t-98.5 -75.5t-127 -54.5t-150.5 -16.5t-169 39q-57 23 -96 71t-60.5 109.5t-25.5 131zM149.5 357.5 q6.5 -70.5 38 -130t86.5 -86.5q70 -33 149 -27.5t147.5 35t119 76t64.5 97.5q16 61 13 118.5t-12.5 102.5t-20.5 73l-11 27q-47 47 -110.5 63.5t-131 9.5t-130 -34t-107.5 -66q-55 -49 -78 -118.5t-16.5 -140zM156.5 942q-13.5 37 7.5 72q14 27 41.5 32t50.5 -2q33 16 84 33 t111 13q27 -2 51 -13.5t46.5 -24t43 -19.5t37.5 -1q102 37 147 44t51.5 -4t-16.5 -34.5t-53.5 -48t-61.5 -45t-41 -22.5q-23 -6 -53.5 2t-60 21t-56 24.5t-41.5 11.5q-55 -2 -84.5 -8t-60.5 -23q-4 -23 -24.5 -43t-59.5 -10q-45 8 -58.5 45z" />
<glyph unicode="&#xf6;" horiz-adv-x="927" d="M59.5 523.5q6.5 70.5 32 133t74.5 103.5q63 55 154.5 78.5t183.5 18.5t172 -37t121 -87q20 -27 42.5 -67.5t35 -94t10.5 -121t-33 -147.5q-10 -29 -32.5 -69.5t-55.5 -80.5t-78 -75t-104.5 -53.5t-133 -15.5t-161.5 40q-57 23 -102.5 74t-75 115.5t-43 139.5t-7 145.5z M147 1140q-2 38 21 66q23 29 60.5 31t68.5 -25q27 -23 29 -59.5t-21 -65.5t-60.5 -31.5t-68.5 23.5q-27 23 -29 61zM163 540q-9 -77 11.5 -155t66.5 -144.5t101 -93.5q70 -33 133.5 -25.5t115.5 38t91 78t59 94.5q31 74 31 133t-13.5 100t-29.5 63l-16 23 q-47 47 -111.5 69.5t-133.5 23.5t-132.5 -19t-108.5 -59q-55 -49 -64 -126zM458.5 1150.5q-1.5 37.5 20.5 66.5q25 27 62 28.5t67 -20.5q27 -23 29 -58.5t-21 -64.5q-25 -31 -62.5 -35t-66.5 23q-27 23 -28.5 60.5z" />
<glyph unicode="&#xf7;" horiz-adv-x="1167" d="M85 447.5q1 21.5 9 40t21 26.5q35 23 56.5 12.5t37.5 -26.5q76 -4 167 -7.5t185 -6.5t182 -4t158 1q115 4 161 -1t47 -16t-28.5 -24.5t-67.5 -27t-72 -21.5t-38 -8q-70 0 -154.5 -4t-176 -7t-184.5 -4t-181 7q-16 -14 -42 -15.5t-48 13.5q-18 10 -25.5 30.5t-6.5 42z M487 128.5q-2 37.5 21 68.5q23 27 60.5 28.5t66.5 -22.5q27 -23 30 -59.5t-20 -65.5t-60.5 -32t-68.5 22q-27 23 -29 60.5zM508 703.5q-2 37.5 20 68.5q23 27 61 29t66 -23q27 -23 30.5 -59.5t-19.5 -65.5t-61 -32t-68 22q-27 23 -29 60.5z" />
<glyph unicode="&#xf8;" horiz-adv-x="1013" d="M93 345q-3 99 32 195.5t108 155.5q111 88 229 115t218 4q10 18 21.5 34.5t19.5 33.5q-4 18 -3 43.5t21 40.5q14 10 36 11t42.5 -6t35.5 -21.5t19 -35.5q6 -31 -9 -59.5t-38 -32.5q-8 -10 -17 -23.5t-20 -29.5q18 -10 37 -23.5t35 -29.5q45 -49 67.5 -100.5t26.5 -105.5 t-6 -110.5t-30 -115.5q-12 -37 -56.5 -96.5t-117 -109.5t-170 -78t-214.5 -1q-8 -18 -24.5 -53t-35.5 -74t-38.5 -75t-36 -58.5t-26 -24.5t-7 29t17.5 100.5t50 190.5q-80 39 -122 125t-45 185zM213 365.5q2 -64.5 26.5 -122t69.5 -89.5q31 57 68 126.5t77 142.5t80.5 144.5 t77.5 132.5q-84 6 -168 -23.5t-139 -78.5q-49 -43 -71.5 -105.5t-20.5 -127zM416 113q63 -8 125.5 7t116 45t91.5 68.5t50 79.5q18 55 27.5 97.5t7 77t-17.5 67.5t-48 72q-16 20 -45 41q-37 -59 -79 -131t-82 -146t-78 -145.5t-68 -132.5z" />
<glyph unicode="&#xf9;" horiz-adv-x="899" d="M67.5 773q-4.5 15 4.5 30q27 47 70.5 51t80.5 -43q4 -6 4 -19.5t-2 -27.5t-5 -26.5t-3 -14.5q-10 -141 -5 -243.5t26.5 -176.5t58.5 -121t90 -78q59 -35 100 -17.5t67 71t42 136.5t27 177q4 37 5 57.5t-1 40t-5.5 48t-5.5 81.5q-16 29 -22 46.5t10 46.5q14 27 41 37 t51.5 4.5t44 -23.5t23.5 -47q-2 -12 -9 -28.5t-5 -22.5q0 -70 1 -117t4 -87t7 -76t12 -83t18.5 -109.5t24.5 -154.5q0 -2 6 -8t13.5 -15.5t12.5 -22t3 -26.5q-8 -29 -25.5 -43t-38 -17t-41 6t-36.5 28q-20 23 -12 45t6 32q-6 33 -10.5 60t-8.5 49q-37 -156 -129 -199 t-227 23q-137 66 -200.5 252t-29.5 461q0 4 -7 14t-14 22.5t-11.5 27.5zM160 1354q0 33 25.5 53t58 24.5t61.5 -9t37 -50.5q10 -45 15 -84t14.5 -72.5t24.5 -63t46 -56.5q57 -51 57.5 -70.5t-26.5 -20.5t-62.5 13t-50.5 31q-33 41 -69.5 77.5t-66 72.5t-48 74t-16.5 81z" />
<glyph unicode="&#xfa;" horiz-adv-x="862" d="M39 799q6 25 27.5 45t46 27.5t48 -2t34.5 -44.5q2 -8 1 -21t-4.5 -26.5t-6.5 -25t-3 -13.5q2 -139 11.5 -240.5t29 -175t53 -122.5t82.5 -84q68 -45 111 -31t71.5 66.5t48 135.5t38.5 175q8 37 10 66.5t2 60.5t1 67.5t7 90.5q0 4 -3 14t-6 23.5t-3 27.5t8 27q18 27 45 34 t51.5 0.5t42 -27t17.5 -48.5q-2 -12 -10.5 -28.5t-8.5 -22.5q-10 -104 -13 -172t-2 -136.5t6 -154.5t13 -226q0 -2 6.5 -8t13.5 -15t11 -22.5t-2 -27.5q-23 -53 -68 -54.5t-73 39.5q-18 23 -8 45.5t8 32.5q-4 33 -5 60.5t-3 52.5q-51 -154 -142.5 -194t-232.5 52 q-129 82 -182.5 262.5t-40.5 454.5q0 10 -15.5 25.5t-11.5 36.5zM332 1001.5q-2 16.5 30 59.5q39 49 55.5 86t22.5 70.5t9.5 67.5t15.5 77q12 49 44 56t64.5 -9t54 -49t9.5 -66q-29 -78 -69 -153.5t-130 -128.5q-16 -10 -42.5 -19.5t-44 -8.5t-19.5 17.5z" />
<glyph unicode="&#xfb;" horiz-adv-x="862" d="M40.5 778q-13.5 27 4.5 56q29 45 75 48t81 -46q4 -6 4 -19.5t-3 -29t-8.5 -29t-11.5 -19.5q2 -139 -5 -238.5t-7 -170t17.5 -117.5t68.5 -80q88 -59 153.5 -50t110.5 63.5t70.5 139.5t36.5 177q4 37 5 66.5t3 60.5t4 67.5t8 90.5q-12 23 -16 44t12 48q18 27 45 34 t51.5 0.5t42 -27t17.5 -48.5q-2 -12 -4 -23.5t-15 -27.5q-10 -104 -13 -172t-2 -136.5t6 -154.5t13 -226q0 -2 6.5 -8t13.5 -15t11 -22.5t-2 -27.5q-23 -53 -68 -54.5t-73 39.5q-18 23 -8 45.5t8 32.5q-4 33 -5 60.5t-3 50.5q-25 -76 -76 -123t-115.5 -63.5t-138.5 -2 t-144 59.5q-66 39 -95 111.5t-37.5 165.5t-3.5 204t12 225q-12 14 -25.5 41zM104 1012q8 39 29 52t37 11q20 39 40.5 77t46.5 73t61.5 65.5t87.5 55.5q61 -23 106 -51.5t77 -58.5t50 -55.5t29 -43.5q16 2 37.5 -10.5t31.5 -41.5q10 -37 -14.5 -69.5t-60.5 -30.5 q-29 2 -48.5 21.5t-21.5 40.5q-10 12 -22.5 33.5t-33 45t-50 46t-74.5 40.5q-33 -25 -55.5 -47t-40 -46.5t-33 -52.5t-33.5 -65q2 -8 -2 -21t-13.5 -25.5t-21.5 -21.5t-27 -11q-35 -4 -63.5 21.5t-18.5 68.5z" />
<glyph unicode="&#xfc;" horiz-adv-x="839" d="M43.5 778q-10.5 23 3.5 51q8 16 26.5 29.5t40 17t43 -6t36.5 -38.5q18 -33 9 -57t-20 -35q2 -139 6.5 -236t26 -170t68.5 -126t133 -103q68 -41 113.5 -15t70.5 110t29 224t-11 329q-8 23 -14 44t10 48q18 27 45 34t51.5 0.5t42 -27t17.5 -48.5q-2 -12 -5 -24.5 t-13 -26.5q2 -102 4 -171t5 -138.5t9 -156.5t14 -227q0 -2 6.5 -8t13.5 -15t11 -22.5t-2 -27.5q-23 -53 -68 -54.5t-73 39.5q-18 23 -8 45.5t8 32.5q-4 33 -3 46.5t-1 35.5q-25 -76 -57.5 -117t-72.5 -53t-86 0t-102 41q-102 53 -161.5 132t-88 174t-35 205t0.5 224 q-12 18 -22.5 41zM193.5 1131.5q-0.5 37.5 21.5 66.5q23 29 60.5 31t68.5 -23q27 -23 29 -59.5t-23 -65.5q-23 -29 -59.5 -31.5t-67.5 21.5q-29 23 -29.5 60.5zM506 1143q-2 37 20 65q23 29 61 31t68 -22q27 -23 29.5 -58.5t-20.5 -64.5q-23 -31 -62 -35t-67 24 q-27 23 -29 60z" />
<glyph unicode="&#xfd;" horiz-adv-x="909" d="M20 731q-8 18 0.5 39t25.5 37t38.5 25.5t40.5 3.5q39 -16 49 -42t6 -42q33 -49 66 -101.5t72.5 -108t91 -114.5t122.5 -123q49 113 97.5 223.5t115.5 208.5q2 2 1 11.5t0.5 21.5t6.5 25.5t19 25.5q14 14 36.5 13.5t44 -11t37 -28t15.5 -35.5q-2 -39 -21.5 -56.5 t-35.5 -21.5q-68 -100 -116 -217t-97 -236q4 -4 9 -6t11 -8q41 -35 47.5 -58.5t-10 -35.5t-46.5 -15.5t-60 5.5q-16 -49 -42 -98.5t-54.5 -108t-59.5 -128t-57 -159.5q10 -14 9 -38.5t-32 -53.5q-16 -14 -35.5 -18.5t-38 1t-33 16.5t-18.5 27q-12 39 0.5 59.5t26.5 31.5 q35 98 67.5 173.5t61.5 139t54.5 118t45.5 107.5q-92 86 -152.5 152.5t-101.5 123t-72.5 108.5t-68.5 112q-4 4 -28.5 12t-37.5 43zM329 1013.5q-1 16.5 54 71.5q43 43 60.5 79t22.5 70t6 70.5t11 79.5q12 49 45 56.5t65 -9t53 -48t11 -64.5q-14 -39 -24 -77t-28.5 -72.5 t-52.5 -68.5t-93 -65q-10 -6 -44 -19t-59.5 -16.5t-26.5 13z" />
<glyph unicode="&#xff;" horiz-adv-x="903" d="M50 825q5 23 19.5 40.5t36 24.5t48.5 1q29 -8 41 -30.5t20 -45.5q33 -49 59.5 -111.5t60.5 -130t80 -136t117 -132.5q49 113 90.5 227.5t94.5 229.5q0 2 -2 16.5t-2 30.5t6 32.5t22 24.5q20 10 45 10.5t45.5 -9t34 -27.5t11.5 -45q-4 -29 -27 -52.5t-27 -29.5 q-53 -125 -99 -247t-93 -245q31 -6 47 -40t-14 -66q-12 -14 -36 -15.5t-42 6.5q-16 -49 -28.5 -83.5t-27 -74.5t-35 -96.5t-51.5 -144.5q8 -18 6.5 -43.5t-34.5 -46.5q-18 -12 -42 -12t-43.5 9t-32.5 27.5t-13 47.5t19.5 46t37.5 27q29 92 47.5 149.5t31.5 99.5t26.5 79 t33.5 90q-92 86 -146 161t-89 142.5t-60.5 129t-62.5 120.5q-2 2 -11.5 3t-21.5 6.5t-22.5 13.5t-16.5 26q-6 20 -1 43zM239.5 1097q-1.5 38 22.5 66q23 27 59.5 29t67.5 -23q29 -23 31 -59.5t-23 -65.5q-23 -29 -60.5 -30.5t-68.5 22.5q-27 23 -28.5 61zM553 1107.5 q-2 37.5 20 66.5q23 27 61 28.5t68 -20.5q27 -23 29.5 -59.5t-20.5 -67.5q-23 -29 -62 -32t-67 24q-27 23 -29 60.5z" />
<glyph unicode="&#x152;" horiz-adv-x="1726" d="M28 544.5q-1 145.5 43 285t126 249.5q39 53 116.5 93t164.5 61.5t170 21.5t136 -26q12 -6 24.5 -17.5t22.5 -21.5q12 -12 25 -27q10 0 22.5 1t22.5 1q-12 -4 -23.5 5.5t-17.5 24.5t-5 33.5t11 35.5q10 16 26.5 25t35 12.5t35 0t28.5 -11.5q31 -29 31 -63.5t-10 -55.5 q78 6 156.5 16.5t152.5 15.5t136.5 2t107.5 -21q6 6 22.5 8t33.5 -1t32.5 -13.5t23.5 -26.5q18 -35 4 -74t-43 -49q-41 -10 -71.5 6.5t-42.5 38.5q-33 18 -95.5 20.5t-136 -4t-148.5 -16.5t-134 -16q0 -8 -1 -17.5t-1 -19.5q29 -41 29.5 -77t11.5 -83q61 18 112 32.5 t101.5 24t101.5 8.5t111 -14q70 -16 100.5 -29.5t33.5 -26.5t-14.5 -22.5t-42 -16.5t-48 -11t-34.5 -2q-104 12 -199 -3.5t-222 -60.5q8 -104 14 -224t-12 -243q8 -63 17 -116.5t22 -89.5q72 20 119.5 28t94 12.5t100.5 7.5t140 15q2 8 15.5 18.5t30 15.5t34.5 4t35 -11 q16 -10 25.5 -26.5t12.5 -35t0 -35t-11 -28.5q-29 -31 -64 -31t-57 12q-61 -10 -116.5 -14t-108 -8t-104.5 -11.5t-108 -21.5q-4 -10 -8 -18q-8 -18 -14 -23q-16 -12 -32.5 -12t-31 4t-24.5 10t-14 6l-3 2q-35 -12 -62.5 -4t-31.5 43q-57 -41 -133 -72.5t-164 -34.5 t-181 30.5t-185 121.5q-111 111 -163 250t-53 284.5zM151.5 510q6.5 -121 49.5 -227.5t114 -182.5q68 -70 137.5 -100.5t134 -31.5t122 21.5t102.5 56.5t73 75t36 76q18 78 25 180t4 207.5t-14 207t-32 179.5q-20 29 -40.5 55.5t-57.5 42.5q-20 8 -43 11t-43.5 2t-36.5 -4 t-25 -3q-109 -45 -147.5 -47t-36.5 17.5t27.5 47t46.5 42.5q-92 -20 -161 -56.5t-93 -68.5q-80 -121 -114 -250t-27.5 -250z" />
<glyph unicode="&#x153;" horiz-adv-x="1472" d="M77.5 518q18.5 98 86.5 158q57 49 137 78.5t163 35t158.5 -17t125.5 -78.5q12 -14 30.5 -33.5t34.5 -44.5q14 39 44 78t70 70t88 47t99 10q49 -6 82 -17t64.5 -38t67.5 -74t89 -125q4 -6 13.5 -23.5t16.5 -38t7 -41t-14 -34.5q-20 -20 -48 -28.5t-44 12.5q-2 2 -29 -1 t-70 -9.5t-96 -14.5t-104.5 -16t-97.5 -17.5t-74 -17.5q2 -27 2 -51.5t-11 -61.5q12 -31 39 -53t62 -37.5t74.5 -22t78.5 0.5q92 16 146.5 42.5t77.5 43.5q53 43 73.5 38.5t21.5 -28t-11.5 -54t-24.5 -44.5q-12 -12 -40 -28.5t-65.5 -33t-85 -30t-96.5 -21.5q-29 -6 -71.5 1 t-88 22.5t-86.5 41t-63 56.5q-35 -41 -79 -77t-103.5 -55.5t-135 -17.5t-174.5 39q-92 35 -152.5 121t-83 188.5t-4 200.5zM184.5 466q-10.5 -71 8 -141.5t61.5 -131t104 -87.5q76 -33 146.5 -24.5t125 40.5t86.5 81t32 98q-8 -6 -36 -4t-44 18q-6 6 -9.5 20.5t-2.5 31 t8.5 31t21.5 20.5q18 10 36 8t30 -8q0 41 -12.5 75.5t-27 60.5t-26.5 41l-12 15q-53 47 -114.5 63.5t-120 9.5t-109.5 -33.5t-88 -63.5q-47 -49 -57.5 -120zM868 438q53 10 130 23.5t148 25t121 19.5t48 10q-37 53 -57.5 90t-38 60.5t-40 37t-65.5 17.5q-109 12 -162 -61.5 t-84 -221.5z" />
<glyph unicode="&#x178;" horiz-adv-x="1175" d="M58 1259.5q5 22.5 19.5 40t36 24.5t48.5 1q29 -8 41 -30.5t16 -43.5q53 -35 99.5 -76.5t99.5 -102t121.5 -142.5t167.5 -199q53 117 113.5 251t131.5 265q-2 10 -3 26.5t0 35t9.5 34t24.5 23.5q20 10 45 10t45.5 -9t33.5 -27.5t11 -45.5q-4 -29 -18.5 -52t-32.5 -32 q-92 -168 -153.5 -308t-114.5 -269q-2 -6 10 -20.5t20 -20.5q45 -57 -4 -107q-12 -14 -41.5 -5t-48.5 20q-6 -10 -21.5 -41t-35 -72t-44 -90t-48.5 -98q-57 -117 -125 -256q8 -18 3 -50t-38 -53q-18 -12 -42 -12t-43 9t-32.5 27.5t-13.5 47.5t19.5 43t37.5 25 q45 98 97.5 206.5t95.5 200.5q51 109 100 211q-111 137 -183.5 229.5t-125.5 154.5t-98 104t-99 79q-20 -2 -44.5 7.5t-35.5 44.5q-6 20 -1 42.5zM379 1418.5q-2 37.5 22 66.5q23 27 61 29t68 -21q27 -23 29.5 -59.5t-22.5 -65.5q-23 -29 -60 -32t-67 22q-29 23 -31 60.5z M692 1429.5q-2 36.5 21 65.5t60.5 31t68.5 -23q27 -23 29 -59.5t-21 -67.5q-23 -29 -61.5 -32t-67.5 26q-27 23 -29 59.5z" />
<glyph unicode="&#x2c6;" horiz-adv-x="921" d="M86 950q8 39 27.5 51.5t36.5 10.5q20 39 41.5 77.5t47 73.5t61.5 66t87 55q61 -23 106.5 -51.5t76 -58t49 -55t28.5 -44.5q18 2 40 -10t30 -41q10 -39 -9.5 -71.5t-66.5 -30.5q-41 0 -54.5 21.5t-15.5 41.5q-10 12 -22 32.5t-31.5 44t-50.5 47.5t-76 42 q-33 -25 -54.5 -47.5t-38.5 -47t-33.5 -53t-35.5 -65.5q4 -16 -11 -46t-50 -34q-41 -8 -66.5 19.5t-15.5 72.5z" />
<glyph unicode="&#x2dc;" horiz-adv-x="1073" d="M47 1267q-10 38 12 70q16 27 44 30t44 -3q37 27 80 48.5t84 35.5t76 17t53 -5q33 -14 74 -34.5t83 -36t81 -20.5t67 11q143 78 206 101.5t72 12.5t-23.5 -46t-79 -74t-92.5 -70.5t-64 -35.5q-61 -16 -106.5 -13.5t-82 16t-70.5 33t-75 35.5q-31 12 -60.5 10.5t-58 -14 t-60.5 -32t-65 -39.5q-6 -18 -27.5 -37t-58.5 -8q-43 10 -53 48z" />
<glyph unicode="&#x2000;" horiz-adv-x="823" />
<glyph unicode="&#x2001;" horiz-adv-x="1647" />
<glyph unicode="&#x2002;" horiz-adv-x="823" />
<glyph unicode="&#x2003;" horiz-adv-x="1647" />
<glyph unicode="&#x2004;" horiz-adv-x="549" />
<glyph unicode="&#x2005;" horiz-adv-x="411" />
<glyph unicode="&#x2006;" horiz-adv-x="274" />
<glyph unicode="&#x2007;" horiz-adv-x="274" />
<glyph unicode="&#x2008;" horiz-adv-x="205" />
<glyph unicode="&#x2009;" horiz-adv-x="329" />
<glyph unicode="&#x200a;" horiz-adv-x="91" />
<glyph unicode="&#x2010;" d="M134 560.5q1 23.5 15.5 43t40.5 27.5q29 8 45.5 -4.5t26.5 -8.5q72 -8 164 -11t187.5 0t183.5 11.5t149 24.5q88 23 130 27t51.5 -5.5t-8 -25.5t-46.5 -34.5t-61.5 -36t-57.5 -23.5q-61 -18 -146 -31.5t-179 -20t-188.5 -5.5t-174.5 12q-4 0 -10 -4t-16.5 -9.5 t-22.5 -8.5t-29 3q-29 12 -42 34t-12 45.5z" />
<glyph unicode="&#x2011;" d="M134 560.5q1 23.5 15.5 43t40.5 27.5q29 8 45.5 -4.5t26.5 -8.5q72 -8 164 -11t187.5 0t183.5 11.5t149 24.5q88 23 130 27t51.5 -5.5t-8 -25.5t-46.5 -34.5t-61.5 -36t-57.5 -23.5q-61 -18 -146 -31.5t-179 -20t-188.5 -5.5t-174.5 12q-4 0 -10 -4t-16.5 -9.5 t-22.5 -8.5t-29 3q-29 12 -42 34t-12 45.5z" />
<glyph unicode="&#x2012;" d="M134 560.5q1 23.5 15.5 43t40.5 27.5q29 8 45.5 -4.5t26.5 -8.5q72 -8 164 -11t187.5 0t183.5 11.5t149 24.5q88 23 130 27t51.5 -5.5t-8 -25.5t-46.5 -34.5t-61.5 -36t-57.5 -23.5q-61 -18 -146 -31.5t-179 -20t-188.5 -5.5t-174.5 12q-4 0 -10 -4t-16.5 -9.5 t-22.5 -8.5t-29 3q-29 12 -42 34t-12 45.5z" />
<glyph unicode="&#x2013;" horiz-adv-x="974" d="M27 436.5q2 18.5 9 33.5t19 24q35 23 69 13.5t50 -26.5q154 -6 294 -16t282 0q82 6 115.5 1t35.5 -16.5t-19.5 -25.5t-49 -26.5t-52 -21.5t-28.5 -9q-70 0 -136.5 -4.5t-136 -7.5t-144.5 -4t-163 7q-8 -6 -23.5 -11t-34 -5t-37 5t-30.5 20q-12 14 -17 32.5t-3 37z" />
<glyph unicode="&#x2014;" horiz-adv-x="2336" d="M90 739.5q2 18.5 9 33.5t20 24q35 23 68.5 13.5t50.5 -26.5q39 -2 131 -4t220 -3t281.5 -3t310 -4t309 -3t278.5 -2t217.5 -1h125.5q115 4 161 -1t47 -16.5t-28.5 -24.5t-67.5 -26.5t-71.5 -21.5t-37.5 -8q-35 0 -125.5 -1t-215 -2t-275 -3.5t-306.5 -3.5t-308.5 -2 t-282.5 -1t-226 2t-139 7q-8 -6 -23.5 -11.5t-34 -5.5t-37 5t-30.5 20q-12 14 -17.5 32.5t-3.5 37z" />
<glyph unicode="&#x2018;" horiz-adv-x="397" d="M68.5 1103q9.5 54 35 100t62.5 77q12 10 43 26.5t55.5 20.5t30.5 -14.5t-33 -75.5q-27 -41 -22.5 -67.5t18.5 -55.5t29.5 -68t11.5 -102q-2 -39 -24.5 -64.5t-52 -34.5t-60.5 -1t-47 35q-35 53 -45.5 111.5t-1 112.5z" />
<glyph unicode="&#x2019;" horiz-adv-x="446" d="M71 872.5q3 24.5 35 75.5q33 51 38.5 85t0 62.5t-12.5 60.5t3 81q6 43 30.5 56.5t55.5 5t62 -33t49 -53.5q33 -53 33 -97t-26 -84t-74 -80t-111 -89q-18 -14 -40 -21t-34 0t-9 31.5z" />
<glyph unicode="&#x201a;" horiz-adv-x="485" d="M128 -216q-1 26 34 87q31 53 32 86t-10.5 62.5t-25 61.5t-13.5 81q0 45 22.5 62.5t53.5 15.5t64.5 -18.5t56.5 -41.5q43 -47 50 -91t-11.5 -89t-58 -95t-93.5 -110q-14 -16 -39.5 -29.5t-43 -10.5t-18.5 29z" />
<glyph unicode="&#x201c;" horiz-adv-x="671" d="M67.5 1001.5q0.5 57.5 18.5 109.5t48 96t59 75q10 10 42.5 25.5t59.5 16.5t29 -19.5t-50 -81.5q-33 -39 -27.5 -76t24 -74t35.5 -74.5t9 -80.5q-10 -59 -40.5 -82t-64.5 -21t-65.5 22.5t-46.5 49.5q-31 57 -30.5 114.5zM340 982q-8 44 8.5 90t56 96.5t93.5 109.5 q14 16 36.5 27.5t38 6.5t14.5 -32t-34 -82q-27 -45 -24 -72.5t17.5 -52t30 -54.5t15.5 -79q0 -45 -22.5 -67.5t-54.5 -26.5t-65.5 8t-58.5 37q-43 47 -51 91z" />
<glyph unicode="&#x201d;" horiz-adv-x="671" d="M87 848.5q-1 25.5 34 87.5q31 53 32 86t-10.5 62.5t-25 61.5t-13.5 81q0 45 23 62.5t53.5 15.5t64 -18.5t56.5 -41.5q43 -47 50 -91t-11 -89t-58 -95t-94 -110q-14 -16 -39.5 -29.5t-43 -10.5t-18.5 28.5zM346 831.5q0 22.5 55 83.5q33 37 32 75t-12 78t-23.5 81t-4.5 84 q10 57 42 81.5t68 23.5t67.5 -26.5t41.5 -64.5q16 -61 19.5 -110.5t-10 -93.5t-47 -88t-91.5 -99q-18 -14 -53 -29.5t-59.5 -16.5t-24.5 21.5z" />
<glyph unicode="&#x201e;" horiz-adv-x="770" d="M128 -195.5q-1 25.5 34 86.5q31 53 32 86t-10.5 63t-25 61.5t-13.5 80.5q0 45 22.5 62.5t53.5 15.5t64.5 -18t56.5 -41q43 -47 50 -91t-11.5 -89.5t-58 -95.5t-93.5 -109q-14 -16 -39.5 -29.5t-43 -10.5t-18.5 28.5zM387 -213q0 23 55 84q33 37 32 75t-12 77.5 t-23.5 80.5t-4.5 84q10 57 42 82t68 24t67.5 -26.5t41.5 -64.5q16 -61 19.5 -110.5t-10 -93.5t-47 -88t-91.5 -99q-18 -14 -53 -29.5t-59.5 -17t-24.5 21.5z" />
<glyph unicode="&#x2022;" horiz-adv-x="1368" d="M190.5 708.5q-8.5 98.5 21.5 190.5t91.5 170t140.5 125q92 55 174 74.5t153 12.5t130.5 -35.5t106.5 -67.5q80 -66 120.5 -155t41.5 -185.5t-36.5 -188.5t-115.5 -164q-37 -35 -97.5 -62.5t-132 -45t-148.5 -20.5t-149.5 12.5t-135 52.5t-101.5 100q-55 88 -63.5 186.5z " />
<glyph unicode="&#x2026;" horiz-adv-x="1153" d="M57 75q-2 38 21 68q23 27 60.5 29t66.5 -25q27 -23 30 -59t-20 -65t-60.5 -32t-68.5 23q-27 23 -29 61zM467 103.5q-2 37.5 20 68.5q23 27 61 29t66 -23q27 -23 30.5 -59.5t-19.5 -65.5t-61 -32t-68 22q-27 23 -29 60.5zM837.5 45.5q-1.5 36.5 20.5 67.5q23 25 66 26.5 t71 -20.5q27 -23 25 -59.5t-25 -65.5t-60.5 -32t-68.5 22q-27 25 -28.5 61.5z" />
<glyph unicode="&#x202f;" horiz-adv-x="329" />
<glyph unicode="&#x2039;" horiz-adv-x="522" d="M97 532.5q1 40.5 17.5 91t51.5 116t90 165.5q2 41 28.5 71t57.5 28q12 0 29.5 -7.5t33 -21.5t24.5 -36.5t5 -53.5q-2 -10 -11 -23.5t-22.5 -24t-29 -15.5t-29.5 -1q-43 -78 -69.5 -131t-40 -95t-13.5 -78t10.5 -78t31 -97t48.5 -135q33 -4 51.5 -39t6.5 -66 q-16 -43 -60.5 -62.5t-79.5 1.5q-16 8 -24 23.5t-9 32t0 30.5t3 23q-31 102 -53.5 170.5t-35 120t-11.5 92z" />
<glyph unicode="&#x203a;" horiz-adv-x="522" d="M45 109q2 10 11.5 21t21.5 20.5t24.5 14.5t22.5 3q43 78 69.5 136t40 107.5t13.5 93.5t-10.5 94t-31 110.5t-48.5 140.5q-29 16 -43.5 45t-1.5 59q8 20 25.5 33.5t37 19t40 0t36.5 -17.5q29 -25 30 -55.5t-3 -46.5q31 -104 53 -176t32.5 -127.5t9.5 -103.5t-19.5 -102 t-53.5 -124t-90 -170q-2 -41 -30.5 -64.5t-59.5 -21.5q-12 0 -26.5 6t-27 19.5t-19.5 34t-3 51.5z" />
<glyph unicode="&#x205f;" horiz-adv-x="411" />
<glyph unicode="&#x2122;" horiz-adv-x="1906" d="M37 1294.5q-4 18.5 0 37t16 32.5q10 12 25.5 15t31 1t30 -5t22.5 -5q39 2 67.5 7t61.5 8.5t75 5.5t105 -2q-4 14 -7 28.5t7 36.5q6 18 20.5 29.5t33 14.5t38 -2t33.5 -17q18 -18 18 -44t-4 -44q111 2 191 18t155 18q4 23 6.5 48.5t30.5 33.5q45 10 63.5 -10t49.5 -74 q14 -23 25.5 -40t5.5 -39q37 -92 60.5 -167t39.5 -140.5t27.5 -124t23.5 -119.5q18 109 34.5 188.5t38 150t53.5 140t79 158.5q2 6 7 18t13.5 26.5t19.5 25.5t28 14q23 4 43 -7.5t34 -21.5q16 -18 35 -74.5t37.5 -135.5t36.5 -172t36.5 -184.5t34 -171t29.5 -133.5 q4 -8 11.5 -16t13.5 -19.5t7 -25t-9 -29.5q-16 -39 -58.5 -47t-68.5 17q-31 29 -29 56.5t10 41.5q-39 141 -60.5 271t-35.5 229.5t-23.5 161t-21.5 65.5q-43 -80 -71.5 -155.5t-51 -155.5t-42 -166t-42.5 -187q-2 -8 -2 -29.5t-2 -45t-4 -42t-8 -22.5q-14 -10 -32.5 -9 t-36 10t-31 23.5t-19.5 30.5q-41 104 -77 229.5t-62 233.5q-33 127 -58 252q-23 -45 -40 -120.5t-33.5 -171t-34.5 -208t-39 -231.5q8 -18 12 -38.5t-22 -49.5q-14 -16 -32.5 -21.5t-37 -3.5t-34 12.5t-23.5 26.5q-10 18 -11 35t4 29t13 20t14 13q23 129 38.5 232 t29.5 191.5t28.5 161t36.5 140.5q-72 -6 -143.5 -18.5t-165.5 -14.5q0 -156 13.5 -318.5t7.5 -343.5q16 -10 21 -38.5t-5 -53.5q-8 -18 -23.5 -29.5t-34 -14.5t-37 1t-32.5 17q-10 10 -13 25t-2 30.5t4 30t5 20.5q-4 213 -15.5 374t-11.5 300q-68 0 -109.5 -2t-72.5 -6 t-58.5 -8.5t-66.5 -6.5q-10 -10 -40 -17t-54 5q-16 8 -27.5 23.5t-15.5 34z" />
<glyph unicode="&#x25fc;" horiz-adv-x="890" d="M0 0v891h891v-891h-891z" />
<glyph unicode="&#xfb01;" horiz-adv-x="819" d="M33 670.5q-2 19.5 4 37t22 27.5q29 16 53.5 8t39.5 -12q25 2 63.5 0t81.5 -2q-18 119 -50 233.5t-46.5 212t3 172t97.5 115.5q78 4 129 -3t91 -34.5t78 -80t91 -136.5q18 -10 33.5 -32.5t5.5 -55.5q-8 -33 -46 -48t-71 3q-27 14 -29.5 41t-2.5 43q-41 82 -72 120 t-57.5 52.5t-51 15.5t-53.5 9q-45 -31 -46 -93.5t17.5 -145.5t47 -181t45.5 -203h66.5t51 1t48 3t57.5 6q23 18 51.5 19.5t50.5 -19.5q12 -10 17.5 -26.5t5.5 -31.5t-4 -28.5t-11 -19.5q-14 -139 -20 -225t-6 -145.5t6 -105.5t16 -106q10 -16 19.5 -42t-2.5 -46 q-20 -37 -60.5 -43t-66.5 19q-23 23 -21 55.5t13 48.5q-25 145 -20 286.5t28 307.5q-47 -6 -93.5 -11t-109.5 -5q12 -72 20.5 -159t12.5 -170t5 -150.5t-5 -100.5q10 -12 16 -41t-8 -53q-18 -33 -57 -42t-68 15q-12 12 -15 27.5t-2 31t5 29t6 19.5q8 29 9 97.5t-2 153.5 t-11 175t-19 164q-45 0 -81.5 1t-65.5 1q-16 -12 -43 -20.5t-51 5.5q-16 8 -26.5 25.5t-12.5 37zM592 908.5q-4 37.5 20 66.5q23 27 61 29t66 -21q27 -23 30.5 -59.5t-19.5 -65.5t-60 -33t-65 23q-29 23 -33 60.5z" />
<glyph unicode="&#xfb02;" horiz-adv-x="905" d="M62.5 700.5q15.5 14.5 93.5 14.5q43 0 70.5 7t70.5 7q-18 119 -50 233.5t-46.5 212t3 172t97.5 115.5q78 4 129 -10t84 -45t52.5 -74t33.5 -96q18 -10 33.5 -32.5t5.5 -55.5q-8 -33 -46 -48.5t-71 3.5q-27 14 -30 40.5t-3 43.5q-18 90 -52 120.5t-91 47.5 q-45 -31 -46 -93.5t17.5 -145.5t47 -181t45.5 -203q29 0 69.5 4t80.5 17.5t75 38t53 65.5t15 74t-5 78q0 25 -6 45t-11 39.5t-7 39t2 44.5q12 61 35.5 94t54.5 43t67.5 1t75.5 -30q39 -23 51.5 -58.5t8.5 -75.5t-19.5 -77t-31.5 -57q-31 -43 -59 -68.5t-50 -68.5 q-8 -135 -13 -279.5t-6.5 -273.5t3 -228.5t12.5 -146.5q10 -16 19.5 -42t-3.5 -46q-20 -37 -60 -43t-67 18q-23 23 -20.5 55.5t12.5 49.5q-8 45 -11 130t-2 191.5t4 224t9 232.5q-27 -35 -62.5 -54.5t-72.5 -29.5t-71 -12t-54 -2q12 -72 20.5 -159t12.5 -170t5 -150.5 t-5 -100.5q10 -12 16 -41t-8 -53q-18 -33 -57 -42t-68 15q-12 12 -15 27.5t-2 31t5 29t6 19.5q8 29 9 97.5t-2 153.5t-11 175t-19 164h-79.5t-75.5 2q-16 0 -47 15t-47.5 31.5t-1 31zM773 1098.5q11 -35.5 18 -60.5q29 27 55.5 54.5t30.5 62.5q0 10 -5.5 23.5t-15.5 22.5 t-22.5 14.5t-24.5 1.5q-16 -4 -21.5 -17.5t-11.5 -30.5q-14 -35 -3 -70.5z" />
</font>
</defs>
</svg>
