<?xml version="1.0" standalone="no"?>
<!DOCTYPE svg PUBLIC "-//W3C//DTD SVG 1.1//EN" "http://www.w3.org/Graphics/SVG/1.1/DTD/svg11.dtd" >
<svg xmlns="http://www.w3.org/2000/svg" xmlns:xlink="http://www.w3.org/1999/xlink" version="1.1">
<metadata>
Created by FontForge 20170731 at Sun Aug 21 19:23:31 2005
 By Aleksey,,,
URW Software, Copyright 1994 by URW
</metadata>
<defs>
<font id="FlashD-Bold" horiz-adv-x="500" >
  <font-face 
    font-family="Flash D"
    font-weight="700"
    font-style="italic"
    font-stretch="normal"
    units-per-em="1000"
    panose-1="2 0 8 6 3 0 0 9 0 4"
    ascent="800"
    descent="-200"
    x-height="474"
    cap-height="657"
    bbox="-254 -240 972 943"
    underline-thickness="87"
    underline-position="-222"
    slope="-22"
    unicode-range="U+0020-FB02"
  />
<missing-glyph horiz-adv-x="250" 
 />
    <glyph glyph-name=".notdef" horiz-adv-x="250" 
 />
    <glyph glyph-name=".null" horiz-adv-x="0" 
 />
    <glyph glyph-name="nonmarkingreturn" horiz-adv-x="250" 
 />
    <glyph glyph-name="space" unicode=" " horiz-adv-x="250" 
 />
    <glyph glyph-name="exclam" unicode="!" horiz-adv-x="270" 
d="M147 608q3 8 5.5 16.5t5.5 17.5q3 11 6 15t11 8q11 7 14 8t8 1q10 0 16.5 -2.5t17.5 -11.5q10 -8 16 -12t10.5 -6t9 -3.5t12.5 -3.5q5 -2 14 -11.5t13 -17.5q5 -12 5 -28q0 -9 -3 -17.5t-13 -30.5q-2 -3 -2.5 -4t-1 -2.5l-1.5 -4.5t-3 -10l-7.5 -22.5t-7.5 -20.5
q-11 -32 -28.5 -76t-39.5 -92q-5 -11 -10 -21.5t-10 -21.5q-3 -6 -4 -9t-2 -4.5t-1.5 -3t-1.5 -6.5q-16 -44 -33 -44q-3 0 -15.5 4.5t-20.5 8.5t-14.5 9t-18.5 17q-5 5 -10.5 9.5t-10.5 9.5q-22 22 -22 31q0 2 2 7.5t7 18.5t14.5 35t24.5 58q7 18 12 30.5t10 27.5t12 37
t18 60zM-3 161q11 32 34 33q8 1 24.5 -8t36.5 -23q14 -11 22.5 -18t13 -12.5t6 -11t1.5 -12.5q0 -27 -19 -68q-10 -21 -15.5 -32.5t-10 -16.5t-9 -6t-12.5 -1q-11 0 -20 5t-29 22q-6 5 -13.5 9.5t-15.5 9.5q-21 11 -28.5 19t-7.5 19q0 5 0.5 9t2.5 8.5t6 10.5t11 16
q6 8 9 14.5t5 11.5z" />
    <glyph glyph-name="quotedbl" unicode="&#x22;" horiz-adv-x="413" 
d="M123 453l-15 3q-7 1 -16 12t-9 19q0 3 7.5 20.5t18.5 40.5t23.5 47.5t22.5 41.5q5 7 8.5 13.5t7.5 13.5q7 14 10.5 18t8.5 4q8 0 20 -6t23.5 -14t20 -16.5t8.5 -14.5q0 -2 -2 -6t-7 -13q-11 -21 -19.5 -38t-16 -35t-16 -40t-19.5 -53q-5 -16 -30 -16q-6 0 -10 2t-11 10z
M281 455l-10 1q-7 1 -16 12t-9 19q0 3 5.5 16t14.5 32t21 42.5t25 47.5q20 37 28 49t13 12q8 0 20 -6t23.5 -14t20 -16.5t8.5 -14.5q0 -2 -2 -6t-7 -13q-12 -23 -20 -39.5t-15.5 -34t-15.5 -38.5t-20 -54q-5 -16 -30 -16q-6 0 -10 2t-11 10z" />
    <glyph glyph-name="numbersign" unicode="#" horiz-adv-x="534" 
d="M142 470q9 0 11.5 1.5t4.5 9.5q1 4 6.5 17t13 32t17.5 41.5t20 45.5q7 16 11.5 25t8.5 13.5t8 5t12 0.5q11 0 18.5 -2t23.5 -8q3 -2 5 -2.5t11 -3.5q9 -4 12 -6t3 -6q0 -3 -6.5 -20t-15.5 -39t-18.5 -43t-15.5 -32q-4 -10 -4 -12q0 -8 6.5 -13t15.5 -5h8t11 1h8h13
q4 -1 7.5 -1h5.5q7 0 11 1.5t8 9t9.5 24.5t14.5 49q0 1 1.5 5t6 14t12 27.5t19.5 44.5q7 17 27 17q11 0 18.5 -2t23.5 -8q3 -2 5 -2.5t11 -3.5q9 -4 12 -6t3 -6q0 -3 -4 -14.5t-10 -27.5t-13.5 -33.5t-14.5 -31.5q-11 -25 -15 -35t-5 -17q0 -10 4 -10l68 4q4 0 9.5 -8
t5.5 -15q0 -6 -3 -15t-7.5 -17.5t-10 -15.5t-10.5 -10q-14 -7 -74 -7h-13.5t-6.5 -1q-7 0 -14 -22l-9 -23l-9 -23q-7 -17 -8 -20t-1 -5q0 -4 2.5 -5t13.5 -1q25 0 40 -0.5t23 -3t10.5 -7.5t2.5 -13t-3 -17.5t-7.5 -18.5t-10 -15.5t-10.5 -9.5q-14 -7 -70 -7h-24.5t-7.5 -1
q-6 0 -10 -14q-3 -8 -6 -15t-7 -13q-5 -10 -12 -26t-13.5 -31.5t-11 -28t-5.5 -15.5q-13 -39 -25 -39q-1 0 -5 2l-16 4l-54 7q-13 2 -13 11q0 2 3 8l8 16l3 8q2 6 2.5 8t1.5 3t1.5 3t2.5 8q4 10 8.5 20.5t9.5 22.5q4 8 7 15.5t6 15.5l6 15l3 7q1 1 1 1.5t1 1.5q0 1 1 1
q0 2 -3.5 4t-8.5 2h-14l-37 -1h-5h-13q-5 0 -7 -2t-5 -8q-3 -8 -6.5 -16.5t-7.5 -16.5q-32 -73 -42 -101q-13 -39 -25 -39q1 0 -5 2l-16 4l-54 7q-13 0 -13 11q0 2 3 8l6 12t5 12q4 11 10 25.5t11.5 28.5t10.5 25.5t7 16.5q7 14 9 19.5t2 7.5q0 3 -2.5 3.5t-10.5 0.5
q-32 -1 -44 4.5t-12 19.5q0 16 9.5 34.5t20.5 24.5q8 4 24.5 5.5t48.5 1.5q5 0 6.5 1.5t6.5 11.5q11 27 18 43t10.5 25t5 12.5t1.5 4.5q0 5 -7 5q-6 0 -11 -1h-6q-32 0 -43 5t-11 19q0 9 6 25t13 24q8 9 25 13t51 4h11zM207 341l-4 -8q-3 -8 -6.5 -16t-6.5 -17l-6 -14
q-1 -2 -1 -4t3.5 -4t6.5 -2q6 0 15 0.5t18 0.5h16.5h10.5h5q8 0 11.5 3.5t8.5 16.5q2 5 4 9.5t4 9.5q14 32 19.5 45t4.5 14q0 5 -8 5l-7 1h-14q-52 0 -55 -1q-4 -2 -6.5 -6t-6.5 -17z" />
    <glyph glyph-name="dollar" unicode="$" horiz-adv-x="402" 
d="M63 101q-18 9 -35 22.5t-30 28t-21 28.5t-8 24q0 11 10 31.5t25 39.5q13 16 21.5 21.5t21.5 5.5q11 0 15.5 -3.5t9.5 -14.5q13 -29 20 -38.5t16 -9.5q16 0 32 9.5t16 19.5q0 9 -20 19q-67 32 -67 95q0 26 4 46t13 36.5t23.5 31t35.5 29.5q10 7 24 13.5t28 12.5t26.5 10
t21.5 6l16 4q6 6 7 14q3 8 9 20t13 23t13.5 18.5t8.5 7.5l15 -3l11 1q11 0 13 -18q1 -7 1.5 -11.5t1 -8.5t1.5 -10t3 -16q-2 -14 -2.5 -16.5t-0.5 -5.5q0 -5 4 -8t5.5 -4.5t8.5 -6.5q2 -2 6.5 -5t10.5 -8q13 -11 13 -24q0 -32 -3.5 -50t-14.5 -33q-6 -9 -28.5 -17t-41.5 -8
q-9 0 -21.5 4.5t-11.5 7.5l4 26q0 2 -4 6t-6 4q-1 0 -4 -1.5t-22 -9.5q-6 -3 -14.5 -10.5t-8.5 -9.5q0 -5 13 -14.5t50 -32.5q17 -11 26.5 -34t9.5 -55q0 -17 -1.5 -29.5t-6 -23t-12.5 -21t-20 -23.5t-19.5 -20.5t-17 -14.5t-25.5 -15.5t-44 -23.5q-14 -8 -22.5 -13.5
t-14 -11t-10.5 -12.5t-11 -19q-5 -8 -6.5 -10.5t-9.5 -8.5q-4 -2 -5.5 -3.5l-9.5 -9.5q-6 -5 -17 -11.5t-13 -6.5q-5 0 -7 3t-2 13q0 3 -0.5 6t-3.5 18q2 7 5 14q2 6 4 12.5t4 11.5q2 8 2 15v5z" />
    <glyph glyph-name="percent" unicode="%" horiz-adv-x="761" 
d="M178 621q8 0 23 -16q3 -3 4 -3t1.5 0.5t4.5 3.5q3 3 9.5 7.5t14 9t13.5 8t8 3.5q10 0 21 -11t19.5 -28.5t14 -39.5t5.5 -44q0 -39 -17.5 -82t-44 -78.5t-58 -59t-60.5 -23.5q-27 0 -67 39q-28 28 -28 60q0 25 7 54t19 58t29 57t37 51q14 15 26 24.5t19 9.5zM142 370
l12 14q4 5 11 16.5t14 24.5t13.5 25.5t9.5 20.5q6 15 9 23.5t4.5 13t1.5 5.5v3q0 4 -1 7q-1 5 -1 10q-3 -5 -5.5 -8.5t-10.5 -14.5q-9 -14 -18.5 -33.5t-17.5 -39.5t-14.5 -38.5t-8.5 -31.5zM145 -8l-15 5l-54 7q-11 2 -11 9q0 2 7 11q8 8 14 17q4 5 3.5 4.5t3.5 4.5
q10 14 19 26t22 29.5t32.5 43t51.5 65.5l66 84t62 79t51.5 67.5t36.5 48.5q20 27 35.5 47.5t29.5 38.5t28.5 36t32.5 40q15 18 22.5 22.5t23.5 4.5q8 0 15 -2t18 -7l8 -4t10 -4q13 -7 13 -13q0 -4 -7 -11q-5 -6 -9 -11l-8 -10t-4 -5.5t-4 -5.5q-4 -6 -5.5 -8t-2.5 -3.5
t-2.5 -3.5t-5.5 -8q-9 -11 -18 -21.5t-18 -22.5q-18 -23 -36 -44.5t-36 -43.5q-15 -20 -29.5 -39t-28.5 -39q-8 -10 -11 -14t-5 -6.5t-4.5 -6t-9.5 -12.5q-53 -72 -111 -144q-32 -41 -50.5 -64t-30.5 -38.5t-21 -27.5t-22 -31q-18 -25 -26 -33t-14 -8zM536 355q8 0 23 -16
q3 -3 4 -3t1.5 0.5t4.5 3.5q3 3 9.5 7.5t14 9t13.5 7.5t8 3q10 0 21 -11t19.5 -28.5t14 -39.5t5.5 -43q0 -39 -17.5 -82t-44 -78.5t-58 -59t-60.5 -23.5q-27 0 -67 39q-28 28 -28 60q0 25 7 54t19 58t29 57t37 51q14 15 26 24.5t19 9.5zM500 104l11 13q4 5 11.5 16.5
t14.5 24.5t13.5 26t9.5 21q6 15 9 23.5t4.5 13t1.5 5.5v3q0 4 -1 7q-1 2 -1 4t-1 5q-3 -5 -5 -8t-10 -14q-9 -14 -18.5 -33.5t-17.5 -40t-14.5 -39t-8.5 -30.5z" />
    <glyph glyph-name="ampersand" unicode="&#x26;" horiz-adv-x="601" 
d="M245 278q0 14 13 23.5t43 17.5q28 7 50.5 12t43 8t41 4.5t44.5 1.5q26 0 38 -3t20 -11q18 -16 18 -41q0 -2 -0.5 -4t-2 -6t-5 -11.5t-9.5 -21.5l-3.5 -10.5t-3.5 -8.5l-2 -12q-2 -6 -27 -6q-10 0 -20.5 -1t-21.5 -3l-42 -3q-14 -2 -14 -10q1 0 1 -1q0 -3 1 -4
q2 -3 4.5 -14t2.5 -14q0 -8 -6 -22.5t-13 -20.5q-6 -6 -18 -14.5t-27 -19t-32.5 -21t-33.5 -19.5q-31 -17 -73 -28t-76 -11q-13 0 -24 2.5t-22 9.5t-24 18t-30 29t-28 32t-17.5 27.5t-9 28t-2.5 32.5q0 48 17.5 95.5t46.5 79.5q28 32 78 61q15 10 15 15q0 2 -5 10t-8.5 22.5
t-3.5 29.5q0 38 29 73t90 70q39 23 77.5 36.5t65.5 13.5q22 0 46 -9t45 -26q24 -19 34.5 -40.5t10.5 -53.5q0 -50 -31 -81q-14 -15 -35 -24.5t-38 -9.5q-9 0 -20.5 5t-22 12t-17.5 15t-7 14q0 7 5 20.5t13 27.5q1 1 1 5q0 8 -6 8q-2 0 -6.5 -2.5t-27.5 -18.5q-6 -3 -12 -11
t-11 -17t-8.5 -17.5t-3.5 -14.5q0 -4 3.5 -13.5t5.5 -12.5q3 -5 6.5 -7t20.5 -10q12 -5 12 -22q0 -11 -8 -24q-5 -8 -8 -9.5t-13 -1.5q-24 -2 -52 -20.5t-49 -48.5q-7 -10 -11 -16t-8 -13.5t-8.5 -18t-11.5 -28.5q-12 -29 -15.5 -38.5t-3.5 -13.5q0 -10 15 -10q6 0 10 0.5
t8.5 2t11 5.5t17.5 11q23 14 29 18.5t9 8.5q2 2 5.5 8.5t3.5 7.5q-3 6 -5 11t-4 8q-2 4 -3 7z" />
    <glyph glyph-name="quotesingle" unicode="'" horiz-adv-x="251" 
d="M123 453l-15 3q-7 1 -16 12t-9 19q0 3 7.5 20.5t18.5 40.5t23.5 47.5t22.5 41.5q5 7 8.5 13.5t7.5 13.5q7 14 10.5 18t8.5 4q8 0 20 -6t23.5 -14t20 -16.5t8.5 -14.5q0 -2 -2 -6t-7 -13q-11 -21 -19.5 -38t-16 -35t-16 -40t-19.5 -53q-5 -16 -30 -16q-6 0 -10 2t-11 10z
" />
    <glyph glyph-name="parenleft" unicode="(" horiz-adv-x="404" 
d="M372 747q24 0 59 -43q18 -23 24.5 -33.5t6.5 -18.5q0 -3 -1 -5.5t-4.5 -7t-11.5 -12t-23 -20.5q-48 -42 -90 -94t-75 -109q-32 -54 -46.5 -103t-14.5 -103q0 -45 13 -91.5t38 -91.5q6 -12 6 -22q0 -5 -0.5 -8t-5 -7.5t-14 -11.5t-26.5 -19q-6 -5 -15 -9.5t-19 -8.5
t-18.5 -6.5t-12.5 -2.5q-14 0 -27.5 20t-37.5 75q-15 33 -24.5 84.5t-9.5 99.5q0 108 45.5 217t130.5 201q22 25 46.5 48.5t46 41.5t37.5 29t23 11z" />
    <glyph glyph-name="parenright" unicode=")" horiz-adv-x="404" 
d="M240 747q7 0 14 -4.5t14.5 -15.5t17 -29.5t21.5 -45.5q7 -17 13 -38.5t10.5 -46t7 -50t2.5 -49.5q0 -108 -46 -217.5t-130 -200.5q-22 -24 -46 -47.5t-45.5 -42t-38 -29.5t-23.5 -11q-25 0 -59 43q-17 22 -24 33t-7 19q0 3 1 5.5t4.5 7t11.5 12t23 20.5q48 42 90 94
t75 109q32 54 46.5 103t14.5 103q0 45 -13 91.5t-38 91.5q-6 12 -6 22q0 4 0.5 7.5t5 8t14 11.5t26.5 19q6 4 15 9t18.5 9t18 6.5t12.5 2.5z" />
    <glyph glyph-name="asterisk" unicode="*" horiz-adv-x="359" 
d="M356 506l-14 -1q-20 0 -25.5 -1.5t-5.5 -6.5q0 -1 2.5 -5t18.5 -24q11 -17 14.5 -23t3.5 -11q0 -12 -14 -23q-17 -14 -31.5 -21.5t-24.5 -7.5q-12 0 -21 12q-2 2 -4.5 9t-5.5 16t-5.5 17.5t-3.5 12.5q-3 18 -10 18q-2 0 -9 -5q-46 -42 -63 -42q-9 0 -20 14l-12 17
q-18 25 -18 33q0 13 25 27q23 12 32 18t9 10q0 5 -25 18q-21 9 -34.5 20t-13.5 18q0 2 3 9t7 15.5t9 17.5t10 15q9 13 16 13t25 -13t31 -27q7 -9 12 -9q3 0 4.5 1t3 7.5t3.5 19.5t6 37q3 13 13 13q5 0 17 -1.5t20 -3.5q15 -4 23.5 -6.5t13 -5t5.5 -5.5t1 -7q0 -2 -1.5 -8.5
t-4 -14.5t-5 -16.5t-4.5 -14.5q-5 -11 -5 -16q0 -7 6 -7t14 3q6 2 14 4.5t15.5 5t14 4t8.5 1.5q8 0 12.5 -6.5t10.5 -25.5q8 -24 8 -47q0 -11 -6.5 -14.5t-24.5 -5.5z" />
    <glyph glyph-name="plus" unicode="+" horiz-adv-x="533" 
d="M135 296h-39q-26 0 -33.5 4t-7.5 17q0 10 4.5 23.5t9.5 21.5q7 10 19.5 13t41.5 3h18.5t35.5 -1h37h5l5 12q4 8 7 17l6 18q14 37 22.5 58t15 30.5t14.5 11.5t20 2q44 0 44 -21q0 -5 -1.5 -11.5t-6.5 -18.5l-20 -50q-6 -14 -9 -22t-4.5 -12.5t-3 -7t-2.5 -6.5h92
q30 0 38.5 -3.5t8.5 -15.5q0 -11 -5.5 -26t-13.5 -25q-5 -7 -16 -9t-37 -2h-13.5t-23.5 1l-42 1h-21q0 -1 -3.5 -10t-5.5 -12q-2 -7 -4.5 -14t-7.5 -19q-12 -35 -19.5 -54t-14.5 -28t-15.5 -11t-22.5 -2q-40 0 -40 20q0 10 11 35l36 93h-59z" />
    <glyph glyph-name="comma" unicode="," horiz-adv-x="230" 
d="M-50 4q-37 10 -37 47q0 6 0.5 11.5t3 13t6.5 18.5t11 30q13 33 19 42.5t15 9.5h2t5 -1.5t11.5 -4.5t21.5 -8q8 -3 14.5 -8t18.5 -19l8 -8l6 -6t7 -6t10 -9l6.5 -6.5t3.5 -5.5t1 -7.5v-13.5q0 -52 -57 -94q-10 -8 -22.5 -15t-25 -12.5t-22.5 -9t-16 -3.5q-10 0 -10 9
q0 16 13 41q5 8 7 15z" />
    <glyph glyph-name="hyphen" unicode="-" horiz-adv-x="350" 
d="M109 161q-8 -1 -17.5 -1h-21.5h-17t-13 1q-14 1 -22.5 1.5t-9.5 0.5l-58 -1q-8 0 -15 7.5t-7 15.5q0 5 3 15t7 21t9 21.5t10 16.5q21 30 47 30q10 0 49 -3h17h13t19 1q14 0 35 0.5t45.5 1t50 0.5h48.5q14 0 22.5 -5.5t8.5 -14.5q0 -8 -7 -22t-27 -51q-20 -36 -53 -36
l-89 2z" />
    <glyph glyph-name="period" unicode="." horiz-adv-x="230" 
d="M71 61l-11 -25q-14 -38 -38 -38q-9 0 -20.5 6t-37.5 24q-23 17 -33.5 29t-10.5 24q0 1 0.5 3t1.5 7t3 14.5t6 26.5q2 9 6.5 20t14.5 30q12 25 33 25q4 0 7 -0.5t7 -3t11 -7.5t19 -15q6 -7 20 -14l5 -3l6 -2q24 -11 32.5 -18t8.5 -17t-18 -43z" />
    <glyph glyph-name="slash" unicode="/" horiz-adv-x="294" 
d="M380 708q17 -6 21 -9t4 -10q0 -4 -0.5 -6.5t-2.5 -7t-6.5 -12.5t-13.5 -22q-17 -28 -27 -45t-20.5 -33t-24 -37t-37.5 -58q-12 -22 -24.5 -43.5t-25.5 -44.5q-6 -11 -8.5 -15.5t-4 -7t-4 -6.5t-8.5 -15q-30 -51 -63 -108q-8 -13 -11 -18t-5.5 -8.5t-5.5 -8.5t-11 -18
q-29 -46 -45.5 -73t-27 -44.5t-18 -30.5t-17.5 -32q-15 -27 -22 -36t-15 -9q-2 0 -3.5 0.5t-8.5 2.5q-5 1 -8 1.5t-8.5 1.5t-14 2t-23.5 3q-21 3 -26.5 6t-5.5 11q0 1 13 24t32.5 56t42 71t42.5 70q13 21 30 49.5t36 59.5t38 62.5t35.5 59t29 49t18.5 32.5q17 30 29 51
t23.5 40t24.5 40t32 51q13 20 20.5 25t25.5 5q15 0 34 -8z" />
    <glyph glyph-name="zero" unicode="0" horiz-adv-x="484" 
d="M223 638q8 0 14 -4.5t23 -23.5q6 -8 10 -8l5.5 3.5t12 8t12 8t6.5 4.5q6 5 9.5 8t7 5.5t7.5 5l12 7.5q13 9 20 9q10 0 26.5 -17t29.5 -40q18 -32 28.5 -75t10.5 -86q0 -73 -33.5 -156.5t-93.5 -163.5q-42 -55 -90.5 -87.5t-89.5 -32.5q-42 0 -111 70q-47 48 -47 106
q0 45 11.5 97t32.5 104.5t50 103.5t64 93q22 27 42.5 44t30.5 17zM286 488l-1 -0.5t-4 -5l-9 -13.5t-17 -25q-5 -7 -14 -25t-19 -39.5t-19.5 -43t-13.5 -34.5q-6 -19 -12 -37t-13 -35q-12 -24 -12 -45q0 -13 6 -13q13 0 81 121q9 17 19.5 41t19.5 48.5t14.5 45t5.5 29.5
t-4 20t-8 11z" />
    <glyph glyph-name="one" unicode="1" horiz-adv-x="320" 
d="M117 407l8 9q6 6 6 10t-3 5t-15 2q-13 10 -17.5 20.5t-7.5 34.5l-3 22q-1 5 -1.5 8.5t-0.5 6.5q0 14 10.5 23.5t36.5 18.5q8 4 17 7t17 6q9 3 18.5 6.5t19.5 7.5q11 3 21.5 6.5t21.5 6.5q11 5 19.5 9t14.5 8q14 8 20 8q8 0 16 -7.5t21 -27.5q2 -4 3 -5.5t5 -6.5
q11 -17 13.5 -22.5t2.5 -14.5v-5.5t-1.5 -6.5t-4.5 -11t-9 -19q-2 -5 -8 -18.5t-16 -34.5q-8 -17 -26 -51t-45.5 -82t-63.5 -108.5t-78 -130.5q-10 -18 -17.5 -31t-13.5 -23q-8 -15 -14.5 -21t-16.5 -6q-8 0 -11 2.5t-17 16.5q-13 11 -21.5 14.5t-22.5 5.5q-6 1 -11.5 8
t-10 17.5t-7 23.5t-2.5 26q0 7 0.5 12t3.5 12t8.5 16.5t15.5 25.5q3 5 5.5 9t8 12.5t15 24.5t26.5 45q2 2 14 19.5t30 43.5q7 9 13 17.5t11 17.5l6 9l5 9z" />
    <glyph glyph-name="two" unicode="2" horiz-adv-x="460" 
d="M130 20q-19 -4 -30 -6t-20 -3.5t-18.5 -2.5t-25.5 -3q-17 -3 -26 -3q-12 0 -21.5 10.5t-22.5 38.5l-6 12t-7 12q-13 18 -13 22q0 1 1.5 6t3 11t3.5 11.5t3 7.5q3 8 10.5 15t21.5 17q12 8 24.5 17.5t27.5 22.5t35 31t48 44q20 18 35 33.5t28.5 31.5t28 35.5t33.5 46.5
q7 10 14 20.5t12 20t8.5 16.5t3.5 10q0 5 -6 10.5t-12 5.5q-8 0 -23.5 -5t-29.5 -12q-15 -8 -27 -13.5t-20 -8.5q-5 -3 -6.5 -3.5t-7.5 -0.5q-3 0 -23 -10q-3 0 -6 9q-9 16 -19 33t-21 36q-14 20 -14 31q0 4 6 15t10 15q3 3 6 4.5t11.5 5.5t26 11t49.5 19q9 3 22.5 6.5
t29.5 6t31 4t27 1.5q30 0 57.5 -14t48 -38t32.5 -55.5t12 -67.5q0 -23 -4.5 -43.5t-15 -42t-27 -45.5t-41.5 -52q-15 -17 -24 -26.5t-17.5 -18t-20 -18t-30.5 -24.5q-6 -5 -9.5 -8.5t-7 -6.5t-8 -6.5t-12.5 -10.5q-8 -5 -8 -8q0 -6 12 -6q2 0 3.5 0.5t10.5 2.5q15 4 20 4.5
t19 1.5q7 0 11 0.5t22 4.5q4 1 10 1q18 0 35 -31q2 -3 2.5 -5t4.5 -12q4 -13 6 -17.5t7 -18.5q0 -2 -3.5 -11.5t-7.5 -16.5q-2 -5 -4.5 -9.5t-4.5 -9.5q-5 -14 -7.5 -16.5t-11.5 -4.5h-2.5t-5.5 -0.5t-12.5 -2t-23.5 -3.5l-56 2z" />
    <glyph glyph-name="three" unicode="3" horiz-adv-x="420" 
d="M97 412l5 1q4 1 12 2t22 4q2 1 4.5 1h15.5q6 0 10 0.5t9.5 4.5t14.5 11.5t25 22.5q56 51 56 52q0 4 -5.5 7t-13.5 3q-5 0 -20.5 -4t-33.5 -10t-34.5 -12.5t-22.5 -10.5q-14 -8 -21 -8q-8 0 -13 8.5t-12 31.5q-3 10 -7 19t-9 19q-6 15 -6 23q0 7 5 20t13 24q7 11 22.5 18
t52.5 15q76 16 104 16q23 0 46.5 -6.5t44.5 -19.5q5 -3 9 -6t8.5 -9t10 -16t13.5 -26q10 -19 15.5 -30.5t8.5 -19t3.5 -13t0.5 -12.5q0 -13 -6 -30t-16.5 -35t-25 -36.5t-30.5 -33.5q-9 -8 -12 -12t-3 -7q0 -6 7 -13q5 -7 11.5 -16t16.5 -26q7 -11 9.5 -20.5t2.5 -24.5
q0 -87 -99 -171q-51 -44 -101.5 -64t-110.5 -20q-17 0 -28.5 1.5t-22.5 5.5t-23.5 11.5t-29.5 19.5q-16 12 -25.5 20t-15 14.5t-7.5 12t-2 13.5q0 13 8 33.5t26 52.5q10 17 18 23t22 6q44 0 52 -4q5 -2 7.5 -7t13.5 -30q5 -14 8.5 -18t11.5 -4q12 0 33.5 11.5t41.5 28.5
q47 38 47 70q0 8 -4.5 16.5t-7.5 6.5q-18 -8 -30 -13t-15 -5q-8 0 -18 9t-18.5 22.5t-15 29t-6.5 27.5q-2 23 -5 28q-2 2 -2 3l-1 1q7 11 8 13t3 7z" />
    <glyph glyph-name="four" unicode="4" horiz-adv-x="520" 
d="M459 470q23 -22 23 -39q0 -8 -4 -16.5t-15 -22.5l-6 -8t-6 -9q-3 -4 -3 -3.5t-3 -4.5q-5 -10 -12 -17q-3 -5 -3 -4.5t-4 -2.5q-9 -6 -9 -7t3.5 -2.5t14.5 -6.5l25 1q8 -1 14.5 -11.5t6.5 -24.5q0 -6 -0.5 -10.5t-2.5 -10t-6.5 -13t-11.5 -19.5l-4 -12q-4 -11 -11.5 -19
t-15.5 -10q-20 -2 -36.5 -4t-35.5 -4q-3 0 -5.5 0.5t-4.5 0.5q-3 0 -4 1q-14 -2 -38 -50q-10 -21 -16 -33.5t-11 -22t-10.5 -20t-15.5 -27.5q-7 -17 -12 -22t-21 -9q-11 -2 -18 -3.5t-13 -1.5q-14 0 -32 9q-6 3 -9.5 5t-6.5 5t-6 8t-8 14q-4 9 -14 12q-12 8 -16.5 14.5
t-4.5 15.5q0 8 1.5 12.5t9.5 15.5q6 10 12 19.5t12 20.5q7 13 9.5 17.5t8.5 13.5q3 3 3 4q0 5 -10 8.5t-27 3.5q-23 0 -37 2t-23.5 8t-15 16.5t-11.5 28.5q-19 60 -19 98q0 11 1.5 19t7.5 17t18.5 21t34.5 33q37 34 58 53t33 29.5t18 15.5t14 10q91 62 140 89.5t68 27.5
q11 0 22.5 -9t19.5 -23q10 -19 16 -39t6 -33q0 -21 -20 -30q-12 -6 -19.5 -11.5t-7.5 -7.5q0 -3 7 -8q5 -4 8.5 -8t6.5 -8zM339 472q-13 -5 -20.5 -8t-12.5 -5.5l-8 -4t-6 -4.5q-17 -17 -29 -28t-19 -16q-20 -17 -24.5 -21t-9.5 -10q-8 -8 -12 -12.5t-6 -6.5q-7 -6 -7 -7
q0 -4 10.5 -7.5t21.5 -3.5q16 0 23 2.5t10 9.5q5 9 6.5 12t9.5 11q30 35 47 58.5t23 37.5z" />
    <glyph glyph-name="five" unicode="5" horiz-adv-x="430" 
d="M141 559l9 22q15 33 28.5 47t31.5 14q3 0 13.5 -0.5t25.5 -2.5q1 0 13 -0.5t26.5 -1t29 -0.5h20.5q5 0 14.5 1t21 3t22.5 4.5t20 4.5q12 4 24 4q25 0 29 -41l3 -29q1 -8 1.5 -14.5t0.5 -11.5q0 -21 -11.5 -34.5t-42.5 -27.5q-20 -9 -32 -14t-20 -7.5t-14 -3t-14 -0.5
t-14 1t-32 6q-4 1 -12 1q-9 0 -19 -15q-11 -20 -11 -28q0 -6 5 -6l38 1q5 0 14 -4t19 -9.5t18.5 -12.5t13.5 -13q6 -8 12 -22.5t11 -31t8 -34t3 -31.5q0 -25 -11 -54.5t-30 -59t-44 -55.5t-53 -45q-15 -10 -39 -20t-50.5 -18t-52 -13t-42.5 -5q-21 0 -51.5 14.5t-59.5 38.5
q-41 33 -41 70q0 9 5 23.5t12.5 29.5t16 27.5t15.5 17.5q9 6 32.5 11.5t42.5 5.5q17 0 29 -15.5t12 -38.5q0 -3 -1 -5q0 -2 -0.5 -3t-0.5 -2v-1q0 -5 7 -10.5t12 -5.5q13 0 33.5 14t40 34t33 41t13.5 35q0 8 -3.5 10t-15.5 4q-15 2 -17.5 2h-3.5q-4 0 -8.5 -1.5t-15.5 -5.5
q-27 -11 -43 -11q-8 0 -13 5.5t-19 28.5q-14 24 -22 41t-8 25q0 3 3 11t11 23.5t20.5 39.5t32.5 60z" />
    <glyph glyph-name="six" unicode="6" horiz-adv-x="474" 
d="M323 434q5 0 19 -12.5t25 -26.5q20 -25 31.5 -54.5t11.5 -55.5q0 -27 -7.5 -56t-21 -56.5t-32.5 -53t-43 -45.5q-85 -72 -159 -72q-32 0 -55 11.5t-49 40.5q-20 22 -32.5 37.5t-19.5 29t-9 27.5t-2 34q0 96 47 196t134 188q65 67 119 93q19 10 34.5 15.5t23.5 5.5
q12 0 29 -11t33 -26t27.5 -31.5t11.5 -27.5q0 -10 -8.5 -16t-34.5 -15q-12 -4 -20.5 -8t-18.5 -11t-23.5 -19t-34.5 -31q-12 -12 -19 -18.5t-11 -11.5t-6 -10t-5 -12q3 -1 6 -1zM224 289q-2 0 -8 -1.5t-13.5 -4t-14 -4.5t-8.5 -3q-14 -7 -24 -48q-2 -5 -4 -12.5t-4 -18.5
q-6 -15 -6 -25q0 -6 3 -10.5t8 -4.5t18 13.5t31 37.5q7 9 13.5 20t12 20.5t9 17t3.5 10.5q0 11 -16 13z" />
    <glyph glyph-name="seven" unicode="7" horiz-adv-x="379" 
d="M122 649l34 1l40 -2q51 7 83.5 11.5t46.5 7.5q16 3 30 3q38 0 67 -56q3 -6 6.5 -16.5l7 -21t5.5 -20t2 -13.5q0 -7 -3 -15t-13 -24.5t-29.5 -45.5t-52.5 -77q-1 -1 -2.5 -3t-8 -11.5t-20 -29.5t-37.5 -55.5t-61 -90t-91 -133.5q-23 -33 -34.5 -45t-21.5 -12q-12 0 -26 8
t-17 9t-5 3q-8 4 -10 7.5t-5 22.5q-1 9 -25 22q-30 16 -30 37q0 7 5 17.5t19.5 31t40.5 53.5t69 86q151 189 156 192q8 6 8 10t-3.5 6t-8.5 2q-2 0 -6.5 -1t-27.5 -9q-6 -2 -18 -4t-26.5 -3.5t-29.5 -2.5t-27 -1q-14 0 -20 9t-14 42q-6 26 -8.5 40.5t-2.5 22.5q0 49 35 49z
" />
    <glyph glyph-name="eight" unicode="8" horiz-adv-x="501" 
d="M343 667q16 0 25 -7.5t17 -27.5q6 -17 10 -25t11 -21q10 8 14.5 14.5t9.5 17.5q6 16 12.5 22t16.5 6q18 0 48 -33q28 -31 28 -70q0 -19 -7 -34.5t-24 -38.5q-60 -76 -103 -103q-23 -15 -29.5 -20.5t-6.5 -11.5q0 -3 3 -9q14 -23 19 -43t5 -48q0 -51 -29.5 -98.5
t-82.5 -81.5q-39 -25 -80.5 -38.5t-79.5 -13.5q-64 0 -108 44q-24 24 -39 59t-15 66q0 20 8 47t22 50q14 22 41.5 44.5t78.5 53.5q10 7 10 10q0 1 -5 8q-33 39 -33 78q0 49 29 95t77 73q14 8 27.5 14t28.5 10t34 6.5t43 4.5zM126 191q-14 -21 -16 -24.5t-2 -4.5q0 -3 4 -5.5
t9 -2.5q27 0 72 28q24 16 30.5 23t6.5 18q0 9 -1.5 12.5t-9.5 14.5q-1 1 -5 7q-18 -6 -29.5 -13.5t-30.5 -25.5zM303 519q-27 0 -42 -8.5t-15 -24.5q0 -3 3 -7q3 -5 4 -6.5t3 -6.5q5 -9 11 -9q4 0 16 7t25 16t22.5 17.5t9.5 11.5q0 5 -8.5 7.5t-28.5 2.5z" />
    <glyph glyph-name="nine" unicode="9" horiz-adv-x="460" 
d="M15 58l-16 6q-8 3 -11 6t-5 11q-2 12 -4 18q-2 5 -2 7v4q0 13 8.5 20t35.5 18q13 4 39 19.5t51.5 33t45 33t19.5 19.5q0 5 -12 5q-1 -1 -3 -1t-4.5 -0.5t-4.5 -0.5q-2 -1 -7 -1q-18 0 -36 12.5t-33 32t-24.5 43t-9.5 46.5q0 28 7.5 58t21 59.5t32 56.5t41.5 48
q82 76 154 76q32 0 64.5 -15.5t56.5 -42.5q21 -23 35 -56t14 -60q0 -24 -6.5 -56t-17.5 -66t-25.5 -67t-30.5 -60q-35 -57 -81 -105t-117 -102q-41 -31 -59 -42.5t-29 -11.5q-8 0 -14.5 4t-19.5 15q-8 7 -18.5 15.5t-18.5 13.5zM299 534q-7 0 -46 -39q-20 -21 -31.5 -41
t-11.5 -36q0 -14 16 -14q7 0 16 2.5t32 12.5q8 3 13 14t11 37q2 9 4.5 17.5t4.5 16.5q1 5 1.5 8t0.5 6q0 16 -10 16z" />
    <glyph glyph-name="colon" unicode=":" horiz-adv-x="230" 
d="M91 61l-11 -25q-14 -38 -38 -38q-9 0 -20.5 6t-37.5 24q-23 17 -33.5 29t-10.5 24q0 1 0.5 3t1.5 7t3 14.5t6 26.5q2 9 6.5 20t14.5 30q12 25 33 25q4 0 7 -0.5t7 -3t11 -7.5t19 -15q6 -7 20 -14l5 -3l6 -2q24 -11 32.5 -18t8.5 -17t-18 -43zM155 260q-14 -38 -38 -38
q-9 0 -20.5 6t-37.5 24q-23 17 -33.5 29t-10.5 24q0 1 0.5 3t1.5 7t3 14.5t6 26.5q2 9 6.5 20t14.5 30q12 25 33 25q4 0 7 -0.5t7 -3t11 -7.5t19 -15q10 -12 31 -19q24 -11 32.5 -18t8.5 -17t-18 -43q-3 -5 -6 -11l-6 -12z" />
    <glyph glyph-name="semicolon" unicode=";" horiz-adv-x="230" 
d="M-37 4q-37 10 -37 47q0 6 0.5 11.5t3 13t6.5 18.5t11 30q13 33 19 42.5t15 9.5h2t5 -1.5t11.5 -4.5t21.5 -8q8 -3 14.5 -8t18.5 -19l8 -8l6 -6t7 -6t10 -9l6.5 -6.5t3.5 -5.5t1 -7.5v-13.5q0 -52 -57 -94q-10 -8 -22.5 -15t-25 -12.5t-22.5 -9t-16 -3.5q-10 0 -10 9
q0 16 13 41q5 8 7 15zM128 208q-14 -38 -38 -38q-9 0 -20.5 6t-37.5 24q-23 17 -33.5 29t-10.5 24q0 1 0.5 3t1.5 7t3 14.5t6 26.5q2 9 6.5 20t14.5 30q12 25 33 25q4 0 7 -0.5t7 -3t11 -7.5t19 -15q10 -12 31 -19q24 -11 32.5 -18t8.5 -17t-18 -43q-3 -5 -6 -11l-6 -12z
" />
    <glyph glyph-name="less" unicode="&#x3c;" 
d="M466 472l-264 -139l264 -138v-160l-433 232v134l433 230v-159z" />
    <glyph glyph-name="equal" unicode="=" horiz-adv-x="533" 
d="M430 444q29 0 37.5 -3.5t8.5 -15.5q0 -11 -5.5 -26t-13.5 -25q-5 -6 -16 -8.5t-37 -2.5l-49 1q-9 1 -16.5 1h-13.5h-13t-19 -1h-49.5t-83.5 -1h-39q-25 0 -33 4t-8 16q0 10 4.5 24t9.5 22q7 10 19.5 13t41.5 3h17.5t35.5 -1h37h185zM381 310q30 0 38.5 -3.5t8.5 -16.5
q0 -11 -5.5 -25t-13.5 -25q-5 -6 -16 -8.5t-37 -2.5l-49 1q-8 1 -16 1h-14h-32q-19 -1 -52 -1t-82 -1h-39q-26 0 -33.5 4t-7.5 17q0 10 4.5 23.5t9.5 21.5q7 10 19.5 13t41.5 3h17.5t36.5 -1h37h184z" />
    <glyph glyph-name="greater" unicode="&#x3e;" 
d="M466 401v-134l-433 -232v160l264 138l-264 139v159z" />
    <glyph glyph-name="question" unicode="?" horiz-adv-x="386" 
d="M279 324q15 -3 25.5 -14.5t10.5 -25.5q0 -20 -14.5 -37.5t-46.5 -37.5q-21 -14 -35.5 -19.5t-25.5 -5.5q-6 0 -16 3.5t-20 9.5t-20 13.5t-16 14.5q-21 24 -21 51q0 13 5.5 30t18.5 40t34 53.5t52 71.5q16 21 26.5 36t18 26.5t12.5 21.5l11 22q-42 -17 -70 -25.5t-39 -8.5
t-22.5 9t-21.5 23.5t-16 31.5t-6 34q0 33 52 54q12 5 28 9.5t33.5 8t35 5.5t31.5 2q30 0 57 -12.5t47.5 -34.5t32.5 -50.5t12 -59.5q0 -58 -52 -128q-5 -6 -16.5 -19t-30.5 -33q-19 -21 -29.5 -32t-15.5 -16.5t-6.5 -7.5t-2.5 -3zM97 183q5 0 12 -4.5t25 -19.5q3 -2 9 -7.5
t13 -10.5t12 -9.5t6 -4.5q20 -14 26 -22t6 -20q0 -9 -5 -28.5t-12 -36.5q-8 -21 -16.5 -28.5t-25.5 -7.5q-16 0 -32.5 8t-36.5 26q-10 9 -18 31.5t-8 40.5q0 6 0.5 9.5t2 9.5t5.5 15.5t12 27.5q8 21 12.5 26t12.5 5z" />
    <glyph glyph-name="at" unicode="@" horiz-adv-x="667" 
d="M429 618q-45 0 -99.5 -20t-98.5 -52q-42 -32 -78 -75.5t-59 -93.5q-21 -45 -34 -96.5t-13 -92.5q0 -129 175 -129q20 0 33 0.5t27 2.5t34 7t55 14q25 7 34 7q10 0 19 -12.5t9 -26.5q0 -19 -30 -31q-89 -34 -177 -34q-57 0 -106 13t-82 38q-31 23 -48.5 63t-17.5 88
q0 40 11 86t30.5 92t46 88t57.5 74q36 37 79 67t88.5 51.5t92 33t90.5 11.5q35 0 71 -12t57 -29q29 -25 45.5 -69.5t16.5 -101.5q0 -38 -8 -76.5t-22.5 -75t-35.5 -69t-47 -57.5q-59 -57 -129 -57h-11.5t-9.5 1t-12 3t-20 6q-12 3 -25 6q-16 4 -21 7t-13 15q-5 7 -9 7
q-1 0 -7 -4q-12 -11 -29 -18.5t-28 -7.5q-13 0 -27.5 10.5t-26.5 26.5t-19.5 35t-7.5 37q0 21 5.5 47t14.5 50q28 72 110 134q9 7 20.5 13.5t22.5 11.5t21 8t16 3q12 0 16 -18q2 -7 6 -12.5t6 -5.5t4 3t11 21q7 16 29 16q6 0 9.5 -0.5t7.5 -3t10 -7t15 -13.5q8 -8 17 -13
q11 -8 15.5 -12.5t4.5 -9.5q0 -2 -0.5 -4.5t-4 -10.5t-11 -23.5t-20.5 -44.5q-26 -54 -39.5 -100t-13.5 -76q0 -15 14 -15q22 0 48 28t48.5 69.5t37.5 89.5t15 89q0 30 -11.5 55t-32 43t-49 28t-62.5 10zM330 346l4 9q2 7 4 11.5t4 8.5q1 10 6 18q3 3 3 6t-4 3
q-6 0 -14 -5.5t-16.5 -15t-16 -21.5t-12.5 -24q-5 -14 -12 -27q-5 -10 -5 -16q0 -10 7 -10q2 0 12.5 6.5t18.5 13.5q6 4 9 7t4.5 5.5t2 5.5t1.5 8z" />
    <glyph glyph-name="A" unicode="A" horiz-adv-x="486" 
d="M-49 79l-6 8l-6 7q-5 7 -5 17q0 4 2.5 12t6.5 17.5t9 19t10 17.5q9 15 11 19t2 10v4.5t-1 5.5q-2 11 -2.5 14t-1.5 13v7t-2 13q0 18 31 29q10 4 15.5 7t10 8.5t9 14.5t10.5 26q0 3 2 5l6 4l7 4l6 10q5 7 9 15t7 18q4 9 8 17t9 15q3 4 3.5 5.5t1.5 2.5t2 2.5t4 4.5
q6 9 13 16l9 18q4 7 17 24t31.5 39.5t40 47.5t42.5 48q10 11 16.5 17.5t11 10t9 4.5t10.5 1t9 -1.5t16 -11.5q5 -4 10 -7.5t13 -6.5q29 -16 46 -30t17 -23q0 -5 -4.5 -14t-11.5 -17q-5 -5 -5 -9q0 -5 9 -9q2 -2 6 -5.5t8.5 -7t8 -7.5t4.5 -5q2 -2 6 -13t4 -13q0 -1 -2 -9
q-1 -5 -1.5 -9t-1.5 -13q0 -14 -5.5 -45.5t-14.5 -74t-21 -93.5t-25 -105q-14 -45 -23.5 -78t-15.5 -56q-5 -14 -15 -23.5t-21 -10.5l-7 -1l-6 -2q-6 -2 -7 -2q-12 0 -35 14q-3 2 -6 5t-20 21q-8 7 -24 13q-21 8 -21 29q0 8 2 14t11 23l4 8t6 12.5t5.5 12l2.5 5.5
q1 8 1.5 9.5t2.5 6.5q2 4 3.5 9.5t1.5 9.5q0 10 -30 10q-6 0 -9 -1t-7 -3t-7 -3t-11 -2q-7 -2 -11 -3t-6.5 -3.5t-5 -8t-6.5 -14.5q-8 -18 -15 -35t-13 -32q-8 -21 -14 -34t-11 -20t-10.5 -9.5t-12.5 -2.5q-6 0 -43 12q-8 2 -13 5t-9.5 8.5t-9.5 14t-12 22.5zM293 436l1 6
q1 1 1 5q0 11 -8 11q-7 0 -21.5 -18t-31.5 -46q-5 -8 -11.5 -20.5t-12 -24t-9.5 -20.5t-4 -11q0 -10 14 -10q6 1 13.5 1h16.5q11 1 15.5 6t11.5 27q6 20 9.5 32t6 20t4 16t4.5 21z" />
    <glyph glyph-name="B" unicode="B" horiz-adv-x="516" 
d="M105 44q-10 0 -21 -17q-15 -25 -31 -25q-6 0 -8 1.5t-10 10.5q-4 4 -12 7q-11 7 -14 13q-8 8 -15 17t-14 17q-5 6 -10 12.5t-11 11.5q-6 6 -6 9q2 6 3 12.5t2 12.5q0 6 1 8t6 10l6 12t5 12q5 9 10.5 19.5t11.5 21.5l12 21q1 3 13 26.5t27 53.5t30 59.5t22 43.5
q5 10 8.5 17.5t6.5 13.5q8 17 10 22t2 10q0 6 -2 9t-15 14q-4 4 -6.5 18.5t-2.5 33.5q0 23 1 37.5t3.5 23t7.5 13t14 8.5q29 15 77 23.5t101 8.5q43 0 79 -7.5t60 -21.5q16 -9 29.5 -24t23.5 -33.5t15.5 -39.5t5.5 -42q0 -47 -38 -102q-8 -10 -12.5 -16.5t-10.5 -12.5
t-15.5 -14t-26.5 -22q-10 -8 -10 -16q0 -5 1 -7.5t9 -14.5q3 -5 4 -8.5t5 -20.5q4 -15 4 -30q0 -50 -101 -160q-34 -38 -69 -60.5t-60 -22.5q-26 0 -47 19q-13 12 -16.5 15t-6.5 5q-5 2 -6 3l-6 6q-6 6 -13 6zM328 517q-14 0 -21 -9.5t-15 -37.5q-3 -10 -5.5 -17t-5.5 -12
q-6 -9 -6 -15q0 -8 9 -8q6 0 20 10.5t28.5 24t26 26.5t11.5 18q0 8 -13.5 14t-28.5 6zM229 283q-6 0 -9.5 -0.5t-6.5 -4.5t-7 -12.5t-11 -24.5q-3 -8 -6 -15t-7 -13l-4 -7l-4 -7q-8 -15 -11.5 -22t-3.5 -10q0 -7 10 -7q20 0 41.5 16t38.5 43q21 34 21 47q0 11 -7.5 14
t-33.5 3z" />
    <glyph glyph-name="C" unicode="C" horiz-adv-x="458" 
d="M326 210l11 3q3 0 7.5 -7t9 -16.5t7.5 -19.5t3 -16q0 -10 -7 -29t-15 -34q-10 -17 -33 -33.5t-51.5 -30.5t-59 -22.5t-55.5 -8.5q-23 0 -44 12t-51 42q-20 19 -31.5 33t-17.5 27t-8 27.5t-2 35.5q0 42 9 89.5t25 94.5t38.5 90.5t48.5 77.5q22 29 53 56t63.5 47.5t63.5 33
t55 12.5t57 -16.5t58 -39.5q25 -24 25 -62q0 -20 -3 -41t-8.5 -39t-13 -31.5t-15.5 -19.5q-6 -5 -18 -10t-25 -9.5t-25.5 -7.5t-19.5 -3q-5 0 -6.5 1.5t-6.5 9.5q-3 4 -5 4q-11 1 -18 9t-7 19q0 14 13 42q5 12 8 18t4.5 10t1.5 6.5v5.5q0 13 -8 13q-7 0 -19 -10t-26 -26.5
t-28 -37.5t-26 -43q-35 -67 -53.5 -123t-18.5 -97q0 -17 7.5 -28.5t18.5 -11.5q8 0 25.5 6t36.5 14t35 16.5t22 14.5t7 6z" />
    <glyph glyph-name="D" unicode="D" horiz-adv-x="544" 
d="M132 465q5 12 5 14q0 8 -12 19q-11 11 -14.5 18.5t-3.5 20.5v7.5t1 8.5l1 30q0 33 8.5 48t30.5 20q9 3 29 5.5t43.5 5t47 4t39.5 1.5q48 0 81.5 -12t61.5 -39q16 -16 31 -38t25.5 -45.5t17 -47.5t6.5 -44q0 -16 -5 -39.5t-14.5 -51.5t-23 -58.5t-29.5 -61.5
q-37 -72 -85 -121.5t-114 -84.5q-65 -35 -93 -35q-7 0 -12 4t-22 21q-8 8 -18 15t-14 7q-5 0 -8 -3t-14 -20q-8 -15 -24 -15q-11 0 -23 8t-37 35q-23 23 -31 36t-8 25q0 9 2 17.5t10 24.5t25.5 44l47.5 76q8 12 20.5 35.5t25 49t22 48t12.5 32.5zM305 514q-12 0 -21 -3
t-9 -7q0 -2 2 -4t14 -11q6 -5 6 -16q0 -15 -12.5 -53.5t-30.5 -82.5t-38 -85t-35 -62q-4 -4 -4 -8q0 -9 13 -9q17 0 42.5 25.5t54.5 70.5q16 25 31 55t27 58.5t19 52t7 36.5q0 20 -17 31.5t-49 11.5z" />
    <glyph glyph-name="E" unicode="E" horiz-adv-x="442" 
d="M204 264q-6 0 -10 -1t-8 -5.5t-9.5 -15.5t-15.5 -30q-3 -7 -6.5 -13.5t-7.5 -13.5q-13 -23 -13 -33t12 -10h6q6 1 10.5 1h26.5h7.5t8.5 0.5t14 1t26 2.5l24 -1q11 2 13.5 2.5t4.5 0.5q9 0 17 -11q2 -4 6 -13t4 -11q0 -6 -8 -22q-12 -27 -11 -43q0 -5 -1 -6.5t-8 -7.5
q-5 -5 -18 -21q-3 -3 -9 -4.5t-34 -4.5q-4 0 -7 -0.5t-7 -1t-11 -1.5t-19 -3q-8 -2 -21.5 -2.5t-31.5 -1.5q-5 0 -19 -1t-37 -3h-13q-17 0 -27 6t-24 25q-26 36 -41 68t-15 52q0 11 2.5 19.5t13.5 31.5q8 17 14.5 32t11.5 29q3 8 5.5 13t4.5 9.5t4.5 8.5t7.5 11q3 5 5 9.5
t2.5 9.5t1 13t0.5 20l-1 18q2 6 16 24q2 4 4.5 4.5t16.5 0.5q10 5 13 8t4 8q5 7 11 18q5 9 13.5 22t19.5 30q2 5 5.5 8.5t7.5 8.5t4 4.5t4 3.5q10 10 10 15q0 3 -1.5 7.5t-8.5 29.5q-1 3 -1 15q0 26 5 39.5t16 18.5q7 3 23.5 6.5t38 6t44.5 4t43 1.5q36 0 67.5 -4t48.5 -12
q12 -5 17.5 -14.5t12.5 -33.5l6 -18t5 -18q6 -17 6 -26q0 -13 -9 -24.5t-20 -11.5q-5 0 -8.5 1.5t-17.5 10.5l-13 2l-21 2q-10 2 -13 3t-5 1q-14 -2 -22 -3t-11 -1q-9 0 -11 -1t-6 -6q-2 -2 -3.5 -4.5t-12.5 -17.5q-3 -5 -6.5 -9.5t-6.5 -9.5q-6 -5 -7 -7t-2 -9
q-1 -3 -2 -4.5t-6 -7.5q-6 -5 -10.5 -14t-3.5 -12q1 -7 30 -7l23 -2l19 -1q24 -1 32.5 -8t9.5 -26l1 -17l3 -23v-6q0 -10 -8 -18q-5 -6 -9 -9l-8 -11q-3 -4 -11 -8.5t-12 -3.5l-39 5l-37 -3h-2q-4 0 -6 1h-16h-24z" />
    <glyph glyph-name="F" unicode="F" horiz-adv-x="414" 
d="M242 260h-6.5t-8.5 1h-4q-9 0 -14 -15q-3 -10 -5 -16.5t-4.5 -13t-6.5 -16t-11 -26.5q-3 -8 -5.5 -13t-5 -11t-6 -15.5t-10.5 -26.5q-16 -39 -25 -61t-14 -32.5t-7 -13.5t-4 -5q-7 -7 -23 -7q-8 0 -12 2.5t-12 12.5q-20 28 -58 31q-12 0 -17 2.5t-10 10.5q-10 18 -10 38
q0 12 1.5 20.5t6 20t13.5 28.5t24 44l19 39q4 5 7 12.5t7 15.5q4 7 5 10t1 5l-1 7q-5 13 -8 27.5t-3 23.5q0 15 8.5 25t22.5 12q11 1 16 5t9 17l10 31q8 17 14 32t11 29q4 11 4.5 13.5t0.5 5.5q0 2 -5 16q-3 6 -6 18t-5.5 25t-4.5 24.5t-2 16.5q0 6 7 13t17 12
q11 4 28.5 8.5t38.5 8.5t43 6.5t42 3.5l57 3q8 1 14.5 1h11.5q12 0 26 -7t38 -24q15 -11 21 -20.5t6 -22.5v-5t-1 -8v-14q-1 -27 -6 -35.5t-22 -8.5h-12q-7 1 -14 1h-11q-7 0 -20 -1t-27.5 -2t-27 -2t-18.5 -2q-7 -2 -9 -5t-2 -14q0 -17 -2.5 -28t-10.5 -33q-5 -12 -6.5 -18
t-1.5 -10q0 -9 13 -9q2 0 5.5 0.5t20.5 2.5l30 1q14 0 21 -5.5t15 -22.5q2 -3 4 -10t4 -14.5t3.5 -14.5t1.5 -10q0 -5 -1.5 -7t-9.5 -11q-4 -4 -7 -8t-6 -9q-18 -28 -29 -28q-3 0 -5 1l-14 1h-6t-10 -1z" />
    <glyph glyph-name="G" unicode="G" horiz-adv-x="528" 
d="M362 665q31 0 58 -11t47.5 -30t32.5 -44t12 -53q0 -50 -47 -86q-19 -14 -33 -14q-6 0 -14.5 1.5t-18 3.5t-18.5 4.5t-15 5.5q-20 8 -20 28q0 3 1 6.5t8 21.5q2 6 2 11q0 12 -10 12q-6 0 -19 -12t-29 -30t-31.5 -40t-25.5 -41q-19 -35 -34 -69t-25.5 -64t-16.5 -54.5
t-6 -42.5q0 -5 3.5 -9.5t7.5 -4.5q7 0 16 9t33 40q12 15 18.5 23.5t9.5 13t3.5 7t0.5 6.5q0 2 -0.5 4.5l-1.5 7.5q-2 7 -3 15.5t-1 16.5q0 12 0.5 19t5 12t14 9.5t27.5 11.5q1 0 19.5 1.5t42 2.5t46 2t31.5 1q17 0 30 -16t13 -39q0 -25 -18 -59q-8 -15 -12.5 -18t-19.5 -5
q-14 -1 -26 -4t-12 -6l4 -6q1 -1 2 -7t2.5 -13t2 -13.5t0.5 -8.5t-1 -4t-4.5 -7.5t-10.5 -15t-20 -27.5q-9 -13 -10 -14q-29 -25 -45.5 -38.5t-25.5 -21t-15 -11.5t-14 -9q-22 -14 -36 -19t-29 -5q-25 0 -55.5 13.5t-59.5 38.5q-41 34 -58.5 69t-17.5 83q0 46 11 96t31 98
t48 92.5t61 79.5q48 51 104.5 78.5t110.5 27.5z" />
    <glyph glyph-name="H" unicode="H" horiz-adv-x="555" 
d="M64 17q-6 1 -13.5 2t-15.5 3q-14 3 -20.5 8.5t-16.5 26.5q-23 47 -23 58q0 3 3 11q3 11 5.5 18.5t5 14.5t5.5 15t7 19q5 12 9.5 24.5t9.5 24.5q8 24 16 44q6 13 6 20q0 2 -3 21t-6 39q2 11 6.5 15.5t19.5 9.5q9 3 13.5 5.5t7.5 5t4.5 6.5t3.5 11l18 44l29 71l30 64
q7 12 15 33q4 8 3.5 8t3.5 9q12 19 22.5 26t27.5 7q9 0 16 -1.5t14 -6t16 -12.5t23 -22l18 -18q7 -7 11.5 -10.5t6 -6.5t2 -6t0.5 -7t-0.5 -7.5t-3.5 -10.5t-9 -20t-18 -37l-6 -12t-7 -12q-7 -12 -11.5 -20.5t-6.5 -13.5q-8 -16 -10 -18l-4 -8q0 -10 16 -10q3 0 6.5 0.5
t8.5 1.5l22 2q9 1 11.5 2.5t5.5 12.5q4 8 7.5 16.5t8.5 17.5l17 35l8 17l18 39l9 19q6 11 11.5 22.5t11.5 23.5q10 24 19 33.5t22 9.5q15 0 38 -20q10 -9 16 -14.5t9 -9t4.5 -7t3.5 -8.5q11 -24 19 -47t8 -28q0 -12 -11 -32q-32 -69 -55.5 -120t-40.5 -90.5t-28.5 -70.5
t-19.5 -60.5t-14.5 -60.5t-12.5 -69q-1 -18 -4.5 -25t-14.5 -14q-18 -10 -32 -10q-5 0 -8.5 0.5t-7.5 2t-10 5.5t-16 12q-7 6 -9.5 7.5t-10.5 4.5q-12 4 -18.5 6.5t-10.5 4.5t-6.5 4t-5.5 5q-16 16 -16 34q0 11 6 29q6 16 9 25t5 15.5t3.5 11.5t3.5 14q6 20 11.5 37t10.5 33
q5 14 6 17t1 8q0 4 -3 7t-6 3q-5 0 -22 -7l-21 -4q-11 0 -14 -2.5t-7 -14.5l-13 -39q-4 -9 -7 -18t-6 -19q-2 -5 -2.5 -7t-1 -3.5l-1 -3t-1.5 -5.5l-14 -54l-17 -53q-5 -27 -12.5 -37.5t-24.5 -10.5q-6 0 -9 2t-16 13z" />
    <glyph glyph-name="I" unicode="I" horiz-adv-x="294" 
d="M303 521l-5 -12q-7 -19 -15 -36l-16 -34q-12 -26 -19.5 -42t-13 -27.5t-9 -20.5t-7.5 -21q-8 -18 -14.5 -37t-14.5 -39q-5 -11 -9 -21.5t-9 -21.5q-23 -71 -33 -102q-5 -12 -6 -15.5t-3 -11.5l-5 -23q-4 -15 -6.5 -23.5t-5.5 -13.5t-6.5 -7.5t-9.5 -4.5l-10 -4
q-12 -6 -27 -10t-24 -4q-7 0 -9 6q-3 5 -10 14q-2 3 -4.5 6.5t-14.5 22.5l-11 10l-7 5q-14 8 -18 14t-4 15q0 5 1.5 12.5t6.5 21.5q4 9 7 18.5t6 19.5q5 14 10 28.5t10 31.5q11 26 21 51t21 49q8 20 14.5 37.5t13.5 33.5q4 9 5.5 12.5t2 5.5t2 5.5t4.5 12.5q13 33 22 56
t16.5 39.5t13.5 29t13 23.5q4 7 7.5 13.5t6.5 14.5q4 8 3.5 8t0.5 7q2 10 3.5 13.5t10.5 11.5q11 11 17 15t11 4q4 0 13.5 -3t20.5 -8t22 -11t19 -12q7 -5 14 -12.5t12.5 -16t9 -17t3.5 -14.5t-6 -18z" />
    <glyph glyph-name="J" unicode="J" horiz-adv-x="424" 
d="M95 296q8 -4 14 -6q4 -2 4 -11q0 -4 -1.5 -11t-8.5 -30q-2 -6 -2.5 -8t-3.5 -10q-4 -10 -7.5 -20.5l-7.5 -22.5q-5 -15 -5 -20q0 -13 8 -13q4 0 14 11t21.5 28.5t23.5 38t20 39.5q13 30 26 62.5t27 71t30 84.5t35 103q9 26 14 40t9 21.5t8 9.5t11 4t16.5 3t16.5 1
q12 0 19.5 -4.5t27.5 -24.5q13 -13 20.5 -21t11.5 -14t5.5 -11t1.5 -11q0 -5 -4 -24t-10 -43t-13 -49t-13 -42q-41 -125 -77 -203t-76 -124q-39 -46 -87 -73t-90 -27q-26 0 -51 12.5t-60 41.5q-28 23 -38 37.5t-10 31.5q0 9 4 26t10.5 37.5t15.5 42.5t18 41q7 14 14.5 21.5
t22.5 14.5q26 13 39 13l19 1q5 2 9 3t7 2q4 1 7 2q1 -1 3.5 -4t4.5 -8z" />
    <glyph glyph-name="K" unicode="K" horiz-adv-x="522" 
d="M73 373q10 22 23 55.5t25.5 67.5t22.5 62.5t13 40.5q7 25 12.5 40t10.5 23.5t11 11.5t15 3q16 0 35.5 -6.5t60.5 -24.5q31 -14 31 -39q0 -9 -3.5 -21t-11.5 -30q-5 -9 -9.5 -19.5t-8.5 -22.5q-5 -11 -9.5 -22t-10.5 -22q-11 -17 -11 -30t10 -13q6 0 23 16t36 39
q5 5 32 43t78 110q16 24 25 33t17 9q4 0 19 -8t22 -14q5 -5 11.5 -16.5t12 -25t9 -26.5t3.5 -22q0 -17 -9.5 -36t-33.5 -53q-4 -5 -5.5 -7t-2 -3t-2 -3t-5.5 -7q-8 -11 -14.5 -20.5t-13.5 -20.5q-11 -17 -19 -27.5t-17.5 -19t-23.5 -17.5t-37 -23q-11 -5 -13.5 -8t-2.5 -11
q0 -13 9 -107q3 -30 6 -49t8 -35t13 -33t22 -43q5 -10 5 -18q0 -7 -8 -20q-3 -3 -11 -4l-8 -2q-7 -3 -9 -3.5t-10 -0.5h-20q-15 -3 -22 -8q-20 -10 -28.5 -13t-14.5 -3q-12 0 -29 9t-28 20t-15.5 28t-9.5 55q-3 23 -4.5 45t-1.5 37l1 57q0 12 -3 21.5t-8 9.5
q-4 0 -9.5 -11.5t-10.5 -31.5q-4 -15 -11.5 -37.5t-16 -46.5t-17 -46t-14.5 -35q-11 -25 -18.5 -35.5t-13.5 -10.5q-4 0 -15 8q-5 4 -18.5 7.5t-24.5 5.5q-18 1 -23 4t-16 18q-12 15 -18 23t-9 13t-3.5 8.5t-0.5 9.5q0 14 9 37q5 10 8.5 20t8.5 21q7 20 14 39t15 36z" />
    <glyph glyph-name="L" unicode="L" horiz-adv-x="401" 
d="M170 176q-2 -6 -2 -10q0 -12 23 -12q15 0 48 6l29 5l22 5q7 3 9 3q5 0 11.5 -5.5t12 -13t9.5 -16t4 -14.5t-2.5 -17t-7 -23t-9.5 -23t-9 -18q-6 -10 -12 -13.5t-20 -8.5q-17 -5 -26 -7.5t-14.5 -4t-9.5 -2.5t-10 -2q-16 -2 -32 -5.5t-32 -6.5q-14 -3 -17 -3.5t-8 -0.5
t-15 1t-20.5 2.5t-19.5 2.5t-11 2q-5 2 -13 8.5t-16 15.5t-15 18t-11 17q-12 25 -19 38.5t-10 20.5t-3.5 9.5t-0.5 5.5q0 1 0.5 3t3 10t8 24.5l15.5 46.5q7 20 11.5 33.5t10 26t12 27t17.5 37.5q12 26 23.5 51.5t23.5 50.5q15 34 24 54t18 38.5t21.5 41.5t33.5 62
q13 22 19.5 28t20.5 6q11 0 24.5 -5t20.5 -12q25 -23 39 -36t20.5 -20t7.5 -11t1 -9q0 -3 -0.5 -5t-2.5 -5.5t-6 -11t-12 -20.5q-7 -12 -12 -21.5t-12 -22t-16 -32t-24 -50.5q-19 -39 -30.5 -64t-19 -42t-12 -31t-10.5 -31q-3 -11 -6 -20.5t-7 -20.5z" />
    <glyph glyph-name="M" unicode="M" horiz-adv-x="698" 
d="M243 401q-6 -5 -9.5 -8t-5.5 -6t-3.5 -7.5t-3.5 -11.5q-5 -17 -10.5 -33.5t-11.5 -31.5q-9 -24 -18.5 -48t-19.5 -49q-9 -20 -16.5 -42t-14.5 -47l-17 -57q-17 -58 -40 -58q-4 0 -6.5 0.5t-5.5 2.5t-7.5 6l-13.5 12l-3 3l-3 2l-21 5h-12q-8 0 -16.5 8t-15.5 20t-12 26.5
t-5 27.5q0 22 14.5 60t46.5 99q18 34 43 82.5t57 112.5q13 25 28 52t30 53t30 50t29 43q16 24 44 24q7 0 11.5 -0.5t11.5 -4.5t19 -12t34 -23q26 -17 34 -31.5t8 -43.5q0 -43 -1 -63.5t-5 -36.5v-4q0 -9 6 -9q4 0 10 11q3 7 15 23t27.5 36t32.5 40.5t32 37.5q29 33 52 51.5
t34 18.5q9 0 26 -14t46 -46q14 -16 23.5 -34t9.5 -29t-9 -30q-62 -171 -93 -292t-35 -206q-1 -14 -7 -21t-26 -15q-8 -4 -14 -6t-10 -4t-8 -3q-15 0 -56 31q-45 36 -45 64v3t1.5 8.5t3.5 21t7 40.5q4 23 15 55.5t33 86.5q8 20 11 29.5t3 14.5q0 6 -6 6q-4 0 -7 -8
q-2 -3 -4 -7.5t-6 -10.5q-2 -5 -2 -4.5t-3 -4.5q-8 -11 -13 -19t-9 -15.5t-8 -15.5t-10 -19q-8 -14 -15 -28.5t-15 -29.5q-14 -26 -22 -40.5t-12.5 -24.5t-7 -17.5t-5.5 -17.5q-7 -25 -14 -34.5t-20 -9.5q-11 0 -21 6t-24 20l-9.5 9.5t-10.5 9.5q-20 17 -25.5 24t-5.5 21
q0 13 4.5 40.5t11.5 58.5q2 6 4.5 23t7.5 44q2 11 5 25.5t8 33.5q4 17 6.5 29.5t1.5 14.5z" />
    <glyph glyph-name="N" unicode="N" horiz-adv-x="538" 
d="M313 507v-58q0 -23 2 -41t5 -18q1 0 1.5 1t2.5 6t5.5 16.5t10.5 32.5q13 42 27 79t36 87q13 29 21.5 40.5t19.5 11.5t27.5 -11.5t48.5 -40.5q15 -14 23.5 -22t12 -13t4.5 -8.5t1 -9.5q0 -5 -1 -10t-7 -17.5t-18.5 -36.5t-35.5 -69q-23 -53 -42 -100t-35.5 -94t-32.5 -97
t-33 -107q-5 -21 -12 -29.5t-20 -8.5q-10 0 -21 4t-41 21q-33 17 -42 28.5t-9 34.5l2 51v22.5v41.5t-0.5 40l-0.5 18q-3 24 -4.5 37t-2 19t-1 7t-1.5 1q-2 0 -5 -10.5t-12 -44.5q-3 -11 -6.5 -23t-9 -29t-13 -40t-18.5 -56q-5 -9 -8 -19.5t-6 -22.5q-2 -5 -2.5 -7t-0.5 -3.5
t-0.5 -3.5t-1.5 -8q-10 -52 -36 -52q-17 0 -31.5 10t-22.5 27q-2 4 -3.5 7.5t-3.5 7.5q-1 3 -4.5 6t-20.5 15q-14 11 -23.5 26.5t-9.5 28.5q0 15 17.5 61t50.5 119q21 45 39.5 90t34 87.5t27 80.5t19.5 70q10 41 47 41q6 0 10.5 -2t25.5 -14l14 -6t15 -6q13 -6 21.5 -11
t13 -13.5t6 -21t2.5 -33.5z" />
    <glyph glyph-name="O" unicode="O" horiz-adv-x="540" 
d="M316 689q5 -1 14.5 -10t19.5 -23q9 -12 14.5 -19t9 -10t6 -4t5.5 -1q2 0 5 1.5t20 9.5q10 6 25 6q14 0 23 -6.5t18 -26.5q36 -71 36 -144q0 -41 -8.5 -85.5t-25 -88t-39.5 -84.5t-51 -76q-24 -30 -54 -56.5t-60.5 -46t-60 -30.5t-52.5 -11q-21 0 -43.5 13.5t-60.5 49.5
q-20 18 -32.5 31.5t-19 25.5t-9 24.5t-2.5 28.5q0 31 5 67t14 72.5t21.5 71t27.5 64.5q31 61 63.5 104t76.5 83q27 23 41.5 36t22.5 19t12.5 7.5t10.5 2.5q7 0 27 5zM318 485q-7 0 -17 -12t-33 -49q-15 -25 -25.5 -43t-19.5 -36.5t-17.5 -40.5t-19.5 -54q-5 -12 -10 -26
t-11 -29q-5 -15 -5 -26q0 -8 3 -14t7 -6t16 13t27 33.5t31 46t29 49.5q18 33 30 57t19 43t10 34t3 29t-4.5 22.5t-12.5 8.5z" />
    <glyph glyph-name="P" unicode="P" horiz-adv-x="518" 
d="M216 250q-9 0 -25 -53q-3 -9 -5 -15.5t-5 -15.5t-8.5 -23t-14.5 -37q-2 -6 -3.5 -10t-3 -9.5t-4.5 -13.5t-7 -22q-12 -38 -21.5 -50.5t-27.5 -12.5q-5 0 -8.5 0.5t-7.5 2.5t-9 7.5t-14 14.5q-3 4 -7.5 7t-9.5 7q-8 5 -16.5 10t-18.5 10q-34 18 -34 46q0 13 17.5 60
t48.5 118q28 65 44 101.5t26.5 58t18.5 35.5t21 35q11 19 11 29q0 5 -3 14q-3 7 -4.5 11t-3 9.5t-3.5 14.5t-5 24q0 11 17 22t44 19.5t61 14t69 5.5q33 0 57.5 -2.5t43.5 -8.5t34.5 -16.5t30.5 -26.5q25 -26 40 -59.5t15 -62.5q0 -20 -9 -46.5t-25 -55.5t-38 -58.5
t-48 -56.5q-15 -16 -36 -32.5t-42 -30t-38.5 -22.5t-25.5 -9q-9 0 -18 8t-21 27q-14 22 -20 30t-9 8zM302 461q-3 -5 -8.5 -16.5l-11 -23t-9 -21t-3.5 -11.5q0 -10 6 -10l30 17q10 6 16 10t11.5 9.5t10.5 13t14 20.5q10 14 15 22l7.5 12t3 5.5t0.5 3.5q0 6 -6.5 10.5
t-14.5 4.5q-4 0 -6.5 -0.5t-9.5 -2.5q-6 -2 -10.5 -3t-9.5 -2q-4 -1 -5.5 -3t-5.5 -11z" />
    <glyph glyph-name="Q" unicode="Q" horiz-adv-x="524" 
d="M398 -45q-17 -17 -28 -23.5t-22 -6.5q-15 0 -29 19t-36 71q-5 9 -10 9q-3 0 -9 -6q-14 -14 -38.5 -23.5t-46.5 -9.5q-48 0 -110 59q-38 36 -54 67t-16 71q0 32 5.5 68.5t15.5 73.5t24 72.5t31 65.5q62 109 199 195q46 29 74 29q22 0 41 -11.5t45 -40.5q33 -36 33 -48
q0 -8 -7 -14t-27 -16q-10 -5 -10 -8q0 -2 10 -7q3 -2 12 -8.5t18 -12.5q29 -23 29 -67q0 -21 -3.5 -47t-9.5 -53.5t-14 -55t-17 -50.5q-6 -15 -10 -24t-8.5 -17.5t-9.5 -17t-14 -21.5q-6 -11 -6 -17q0 -5 3 -14t8 -19t11 -20t12 -17q14 -17 18 -25.5t4 -21.5q0 -15 -6 -24.5
t-24 -26.5q-5 -5 -5 -4.5t-5 -4.5zM175 201l-3 -14q-5 -13 -5 -22q0 -16 11 -16q2 0 5.5 3.5t14.5 17.5q2 3 8 11l12 18v26.5t1 17.5q1 10 2.5 16t5 10t11 7t20.5 7q11 3 14 5.5t8 13.5q23 58 34 95t11 58q0 11 -2.5 17.5t-7.5 6.5q-3 0 -10 -7t-16 -17t-18 -22.5t-16 -22.5
q-32 -53 -51.5 -99t-24.5 -81z" />
    <glyph glyph-name="R" unicode="R" horiz-adv-x="540" 
d="M202 667l8 3q6 1 24.5 3.5t41.5 4.5t45.5 3.5t36.5 1.5q40 0 77.5 -14.5t62.5 -40.5q23 -24 38.5 -61.5t15.5 -70.5q0 -31 -16 -61.5t-54 -70.5q-23 -23 -41 -37.5t-41 -25.5l-18 -9t-9 -5.5t-3.5 -5.5t-0.5 -8q0 -9 0.5 -16.5t2 -17t4.5 -23t8 -35.5q9 -39 13 -54t9 -22
l22 -30q7 -12 7 -25q0 -15 -4 -20t-24 -13l-24 -12q-14 -7 -34 -15t-25 -8q-8 0 -18.5 6t-21.5 15.5t-22 22t-18 24.5q-15 26 -22 58t-8 78q-3 71 -8 72q-5 -15 -11 -35q-5 -17 -12.5 -43t-18.5 -61q-19 -64 -31.5 -91t-22.5 -27q-5 0 -8.5 2t-22.5 16q-9 6 -16 8t-26 5
q-14 2 -19.5 7t-15.5 23q-9 15 -14 23.5t-7 13.5t-2.5 7.5t-0.5 6.5q0 14 16 58.5t51 123.5q6 14 10 23t10 23.5t16 38.5t28 67q7 17 14 32.5t15 31.5q10 22 10 30q0 6 -8 27q-5 14 -7 25t-2 28q0 15 1.5 19.5t8.5 7.5l10 5t7 4q2 2 6.5 3t21.5 3zM295 466l-5 -8
q-12 -23 -12 -27q0 -9 7 -9q3 0 11 6q5 2 9.5 5l10.5 7q5 3 5.5 3t5.5 2q12 6 24 15t21.5 18.5t15.5 18.5t6 15q0 15 -23 17q-45 0 -50 -5q-2 -1 -3 -2t-3 -5t-4.5 -12t-7.5 -23z" />
    <glyph glyph-name="S" unicode="S" horiz-adv-x="469" 
d="M28 224q9 0 18.5 0.5t20.5 1.5q12 0 20.5 -9t10.5 -23q2 -21 4.5 -27t11.5 -6q7 0 20.5 5t27.5 12q20 11 26.5 18t6.5 17q0 7 -5.5 14t-21.5 18q-8 6 -18 15.5t-20.5 20.5t-20 22.5t-16.5 21.5q-12 16 -17 33t-5 40q0 54 11.5 91.5t37.5 66.5q46 51 117.5 81t148.5 30
q26 0 44.5 -6t33.5 -20q21 -21 34.5 -49.5t13.5 -52.5q0 -14 -5.5 -27t-17.5 -31q-12 -14 -21 -30q-3 -5 -6 -10.5t-5 -10.5q-7 -14 -13.5 -18t-23.5 -4q-21 0 -42.5 4t-38.5 10.5t-28 14t-11 15.5q0 5 2 10t13 23q7 11 7 15q0 6 -6 6q-1 0 -5 -2q-8 -6 -21 -13
q-12 -5 -19 -8.5l-11 -5.5t-7 -4.5t-6 -5.5q-16 -14 -16 -22q0 -3 1 -5.5t7.5 -9t21 -18.5t40.5 -34q40 -35 56 -65t16 -73q0 -34 -14.5 -72t-38.5 -67q-42 -54 -151 -90q-33 -11 -58 -16t-45 -5q-26 0 -45 13t-45 47q-37 49 -37 70q0 15 24 50q5 7 9.5 13.5t9.5 13.5
q7 14 10 16.5t14 5.5q3 1 4 1.5t6 2.5z" />
    <glyph glyph-name="T" unicode="T" horiz-adv-x="348" 
d="M307 483q2 -10 3 -13t1 -5q0 -6 -7 -22q-15 -29 -31.5 -68t-41.5 -107q-11 -34 -21.5 -68.5t-19.5 -69.5l-31 -86q-6 -31 -14 -43t-23 -12q-3 0 -14 3.5t-23.5 8t-24 9t-15.5 7.5q-8 5 -17 16.5t-17.5 24.5t-14 25.5t-5.5 19.5q0 15 11.5 48.5t37.5 93.5q5 11 16.5 40
t30.5 77q7 19 16.5 40t21.5 46q7 15 11 25t4 14q0 12 -9 12q-1 0 -11 -4q-6 -4 -21 -8.5t-20 -4.5q-16 0 -23 11.5t-9 41.5l-7 39q-3 15 -3 27q0 21 16.5 31t63.5 17q32 5 62.5 7.5t57.5 3.5q19 1 30 1.5t21 1t22 1t33 1.5q10 0 16 -0.5t11 -4.5t11.5 -11.5t17.5 -21.5
q14 -19 23.5 -33.5t9.5 -19.5q0 -2 -0.5 -3t-2 -5t-6 -12t-11.5 -23q-10 -18 -32 -18h-12t-24 1h-14q-15 0 -20.5 -1t-7.5 -4z" />
    <glyph glyph-name="U" unicode="U" horiz-adv-x="545" 
d="M313 617q15 -8 15 -16q0 -2 -7 -12q-8 -14 -11 -25l-3 -6l-2 -6q-6 -18 -12.5 -35t-14.5 -34q-18 -45 -35.5 -93.5t-31 -90.5t-21.5 -74.5t-8 -46.5q0 -13 4 -22t10 -9q4 0 14 12.5t22.5 33.5t27.5 49t29 60q12 25 20.5 45.5t16 40t14 40.5t14.5 48q13 47 20.5 73
t11.5 39t5 17t2 7q5 29 11 40t20 11q10 0 28.5 -10.5t54.5 -35.5q17 -12 24 -27.5t7 -39.5q0 -31 -9 -75t-24.5 -93.5t-36 -99.5t-43.5 -92q-54 -99 -111 -150t-114 -51q-33 0 -69.5 16.5t-64.5 45.5q-26 26 -37 55.5t-11 70.5q0 33 3 62t11 61.5t21 70t33 86.5
q24 58 37 89.5t19.5 47t9.5 20t7 9.5q4 4 17 11t28.5 14t30 11.5t21.5 4.5q8 0 11 -2.5t12 -16.5q4 -9 16 -16z" />
    <glyph glyph-name="V" unicode="V" horiz-adv-x="487" 
d="M200 264q6 5 9.5 8.5t6.5 8.5t6.5 12.5t9.5 20.5l36 69q12 21 21 39t20 42.5t25.5 61.5t38.5 96q8 30 17 41t26 11q39 0 67 -46q7 -12 11 -18.5t7 -11l6 -9t8 -11.5q11 -15 14 -21.5t3 -13.5q0 -5 -7.5 -23.5t-18 -42.5t-23 -48.5t-22.5 -41.5q-16 -28 -40 -63.5
t-50.5 -72.5t-53.5 -72.5t-50 -62.5l-59 -71q-23 -32 -38 -44t-31 -12q-36 0 -89 55q-21 21 -28 32.5t-7 25.5q0 12 3 29t6 33.5t5 33.5q5 31 9.5 61.5t9.5 62.5l21 125q1 9 1.5 12.5t0.5 6t0.5 6t2.5 12.5q6 33 15 72q11 27 17 66q1 13 2 20.5t4.5 11.5t10.5 6.5t19 5.5
q8 2 15 3t14 3q19 6 26 6q9 0 28.5 -11.5t40.5 -28.5q20 -17 20 -39q0 -10 -4 -27.5t-13 -47.5q-11 -29 -18 -61q-2 -8 -3 -11l-1.5 -4.5l-1.5 -4.5t-3 -11q-7 -26 -14 -53t-15 -53q-6 -20 -10.5 -37t-3.5 -19z" />
    <glyph glyph-name="W" unicode="W" horiz-adv-x="687" 
d="M718 513l-7 -15l-4 -7q-8 -20 -17 -38.5t-17 -35.5q-11 -23 -23.5 -46t-25.5 -46t-25 -44.5t-24 -42.5q-15 -27 -24 -43t-16.5 -29t-16.5 -28l-24 -40q-8 -13 -16.5 -27.5t-18.5 -31.5q-17 -30 -27.5 -41t-21.5 -11q-8 0 -13.5 2.5t-26.5 17.5q-40 29 -41 29
q-14 12 -21.5 25t-6.5 24q2 12 2 15.5t1 14.5q1 28 6 63q2 8 3 17l2 18q2 18 3 26t1 9q5 17 5 24q0 11 -6 11q-2 0 -44 -70q-6 -9 -12 -19.5t-13 -21.5q-14 -23 -31 -52t-38 -64q-15 -29 -26.5 -40t-26.5 -11q-10 0 -18.5 5t-23.5 20q-5 4 -11 9t-14 11q-14 9 -22 14.5
t-12.5 10t-5.5 9.5t-1 13q0 11 4 26q1 5 3 17.5t6.5 40.5t11.5 75.5t18 123.5q5 31 9.5 59t10.5 54q4 34 9 57q1 7 1.5 9.5t1 4t0.5 4.5t1 10q3 26 5.5 41t5.5 23t7 12t12 8q12 6 26.5 10t24.5 4t18.5 -5.5t28.5 -24.5q8 -9 21 -19q9 -8 15 -14t5 -8q-5 -27 -8 -43t-5.5 -27
t-6.5 -22t-10 -29q-7 -20 -12.5 -39.5t-10.5 -39.5q-3 -9 -6 -22.5t-7 -32.5q-6 -19 -7.5 -25t-1.5 -8q0 -14 7 -14q5 0 19.5 24t33.5 62q14 29 22 46.5t14 29.5t11.5 22.5t14.5 26.5q12 21 19 35.5t11.5 25.5t7.5 21t5 22q6 37 26 37q26 0 64 -32q13 -13 26 -22
q15 -12 15 -21q0 -5 -0.5 -9.5t-2.5 -15t-6 -30t-11 -52.5q-3 -22 -5.5 -38.5t-4.5 -29.5q-2 -17 -3.5 -31.5t-3.5 -25.5q-1 -7 -1.5 -13t-0.5 -11q0 -9 1.5 -15t4.5 -6t9 11.5t12 30.5q12 35 27 64q10 22 18.5 45t16.5 48q5 16 10.5 31.5t11.5 32.5q7 17 11 28.5t5 13.5
q5 17 9 23.5t15 11.5q12 6 18.5 9t10.5 4.5t6 1.5h4q4 0 6.5 -0.5t6.5 -3t10.5 -7.5t18.5 -15q41 -34 42 -35q16 -19 16 -41q0 -8 -2 -11.5t-13 -16.5z" />
    <glyph glyph-name="X" unicode="X" horiz-adv-x="464" 
d="M101 93l-8 -14q-5 -8 -10 -15.5t-10 -15.5q-7 -11 -7 -11.5t-2 -4.5q-8 -20 -14.5 -26.5t-15.5 -6.5q-10 0 -20.5 9.5t-15.5 23.5q-7 16 -9.5 20t-7.5 5q-9 3 -17 9l-14 6l-10 2q-5 2 -6.5 14.5t-1.5 43.5q0 7 0.5 12t5 12t13 19t25.5 34q3 4 13 16.5t23 28.5t28 33.5
t27.5 32.5t21 25t9.5 12q17 16 26 25.5t13.5 14.5t5 8t0.5 8q0 2 -8 31.5t-27 96.5q-6 21 -8.5 33t-2.5 19q0 14 15 27.5t36 20.5q3 1 8.5 3.5t13.5 7.5q15 8 33.5 14.5t29.5 6.5q13 0 19.5 -9t10.5 -31l8 -32q2 -8 3.5 -16t3.5 -17q5 -31 13 -31q1 0 8 7l17 16l9 8
q25 20 42.5 36.5t31.5 32.5t23.5 22t19.5 6q16 0 28 -14.5t26 -50.5q7 -17 10.5 -32t3.5 -25q0 -19 -31 -47q-17 -15 -26.5 -24t-17 -16t-15 -14.5l-20.5 -20.5q-8 -8 -22 -21.5t-33 -31.5q-17 -15 -17 -28q0 -5 4 -14q2 -12 3.5 -25t2.5 -25q1 -14 2.5 -30.5t3.5 -42.5
l8 -65q3 -23 3 -48q0 -20 -4.5 -29.5t-21.5 -21.5l-26 -21q-18 -15 -28 -23t-15.5 -11.5t-8 -4t-5.5 0.5q-19 6 -29.5 9.5t-16 5.5t-7.5 3t-5 2q-14 8 -14 45v20.5t0.5 14.5t2 16.5t3.5 25.5q1 6 1.5 9.5t0.5 8.5t0.5 13t1.5 22v19q0 13 -8 15q-2 0 -9 -12q-3 -6 -7 -13
t-10 -15q-9 -13 -17 -25l-16 -24z" />
    <glyph glyph-name="Y" unicode="Y" horiz-adv-x="443" 
d="M42 -19q-5 0 -16 9.5t-19 20.5q-21 30 -21 50q0 6 1.5 11t6 11t14 15t26.5 24q14 12 31.5 31.5t32.5 39t25.5 35t10.5 20.5t-4 8t-22 13q-10 6 -16.5 12.5t-11 17t-7.5 26.5t-6 40q-5 44 -8 81.5t-3 60.5q0 18 1 38.5t3 39.5t4.5 34.5t4.5 23.5q4 11 21.5 17.5t45.5 6.5
q9 0 15 -0.5t12 -2t15 -6t25 -11.5q28 -13 35.5 -20t7.5 -20q0 -2 -1.5 -11t-4.5 -22.5t-6 -30t-6 -31.5q-2 -7 -2.5 -24.5t-0.5 -41.5q0 -12 4 -21t9 -9t10.5 11t15.5 37q7 17 13.5 31t13.5 28q11 24 19 41t13.5 30.5t9.5 25.5t8 26q6 24 15.5 34t24.5 10q20 0 55 -28
q46 -39 46 -68q0 -12 -5 -32.5t-14 -46t-22 -54.5t-28 -59q-48 -95 -82 -155t-62 -98q-24 -33 -37 -51t-20 -28t-11 -15.5t-9 -12.5q-18 -26 -29 -41t-19 -22.5t-15 -9t-17 -1.5q-14 0 -23 6q-17 10 -18 10z" />
    <glyph glyph-name="Z" unicode="Z" horiz-adv-x="433" 
d="M207 20q-8 0 -21.5 -0.5t-28 -2l-29 -3t-24.5 -2.5q-3 0 -5.5 -0.5t-9.5 -2.5t-20.5 -5.5t-37.5 -10.5q-18 -5 -25 -5q-17 0 -32 31l-10 21q-6 11 -12 21t-14 19q-4 5 -4 15t8 24.5t29 42.5q17 23 27.5 36.5t20 25t21.5 25t33 37.5l111 124q9 9 17.5 18t17.5 17
q6 7 9 9.5t4 4t1.5 2t2.5 3.5q7 13 19 23q7 5 7 8q0 7 -11 7q-3 0 -5 -0.5t-10 -3.5q-9 -2 -18.5 -4t-20.5 -4q-20 -2 -28.5 -5t-16.5 -8q-9 -6 -11 -6t-9 5t-11 10q-4 4 -9 35q-1 7 -2 11.5t-2.5 10t-5 13.5t-9.5 23q-3 6 -3 14q0 17 33 32q2 1 14 3.5t28.5 6l33 7
t27.5 5.5q9 1 30 3t45.5 4t47.5 3t36 1q30 0 35 -14q2 -6 3.5 -8.5t9.5 -12.5q2 -5 6 -11q3 -5 7 -13t9 -19q10 -18 11.5 -22.5t1.5 -12.5q0 -14 -8 -29.5t-28 -41.5q-10 -11 -19.5 -23t-19.5 -26l-51 -70l-72 -90l-51 -62q-22 -26 -22 -32q0 -10 12 -10q7 0 27 5l33 3l25 3
q5 1 8.5 1h6.5q8 0 14 -3.5t20 -17.5q10 -11 16 -20.5t6 -16.5q0 -5 -3.5 -15t-9 -21.5t-12 -23t-12.5 -18.5q-9 -11 -12.5 -12.5t-14.5 -2.5q-4 0 -46 -3z" />
    <glyph glyph-name="bracketleft" unicode="[" horiz-adv-x="299" 
d="M402 672l-7 -17q-9 -22 -29 -22q-4 0 -31 3h-9q-17 0 -22.5 -2.5t-10.5 -11.5q-6 -12 -10.5 -20t-10 -21.5t-14 -36.5t-24.5 -64q-15 -42 -33 -84q-4 -10 -5.5 -14t-2.5 -6.5t-2.5 -6.5t-5.5 -14q-13 -29 -24.5 -59t-22.5 -61l-63 -163q-1 -9 -8 -17l-4 -8q0 -5 11.5 -9
t25.5 -3q50 2 50 -24q0 -9 -24 -58q-5 -10 -9 -13t-13 -3h-2q-9 1 -20.5 1h-18.5h-6.5t-17 -0.5l-40.5 -1.5t-76 -2q-13 -1 -23.5 -1h-18.5q-20 0 -20 13q0 5 8 19l5 12l2 6q2 8 5.5 17t13.5 32q9 20 17.5 41t17.5 43q14 38 29.5 75t30.5 74q3 7 16.5 41t30.5 77.5t34 89
t29 77.5q56 154 68 170q5 8 17.5 10.5t40.5 2.5h7q5 -1 12 -1l92 2q48 0 66.5 -3.5t18.5 -11.5q0 -5 -5 -15z" />
    <glyph glyph-name="backslash" unicode="\" horiz-adv-x="467" 
d="M117 731q41 0 51 -31q15 -45 29.5 -94.5t33.5 -121.5q3 -11 10 -37t16 -59.5t20 -71.5t21 -73t18.5 -64t13.5 -45q10 -32 20 -66.5t20 -72.5q4 -12 9 -32q0 -2 0.5 -2.5t0.5 -1.5t1 -1q0 -7 -4.5 -11.5t-10.5 -3.5q-30 4 -50 6t-31 2t-16.5 9.5t-13.5 44.5
q-6 23 -12.5 45t-13.5 45q-3 11 -4.5 15.5t-2.5 7t-2.5 7t-4.5 15.5l-18 60q-9 31 -17 60.5t-16 60.5q-9 38 -18.5 74.5t-20.5 71.5q-18 57 -33 105.5t-27 90.5q-11 33 -11 43q0 17 11 19q51 6 52 6z" />
    <glyph glyph-name="bracketright" unicode="]" horiz-adv-x="299" 
d="M-56 -67q-49 0 -67.5 3.5t-18.5 11.5q0 6 5 14q9 15 15 33l3 8l4 8q9 22 30 22q1 0 9 -0.5t21 -1.5h8q17 0 23 2.5t11 11.5q6 12 10.5 20t10 21.5t14 36.5t24.5 64l49 125l24 60t23 60l63 163q2 3 3.5 7.5t4.5 9.5l4 8q0 5 -11.5 9t-25.5 3q-50 -2 -50 24q0 8 24 58
q5 10 9 13t13 3h2q10 -1 21 -1h19h17t25 1q14 0 35 0.5l42 1t38.5 1t23.5 0.5q20 0 20 -13q0 -5 -8 -19q-2 -4 -3.5 -8.5t-3.5 -9.5q-2 -8 -5.5 -16.5t-13.5 -31.5q-9 -21 -17.5 -42t-17.5 -43q-5 -17 -11.5 -33.5t-13.5 -30.5l-35 -84q-4 -8 -17.5 -41.5t-30 -77.5
t-34 -89.5t-28.5 -76.5q-56 -154 -68 -170q-5 -8 -17.5 -10.5t-40.5 -2.5h-7q-2 1 -7 1h-7z" />
    <glyph glyph-name="asciicircum" unicode="^" 
d="M13 347l148 324h178l148 -324h-141l-96 216l-96 -216h-141z" />
    <glyph glyph-name="underscore" unicode="_" 
d="M314 -92v-87h-494v87h494z" />
    <glyph glyph-name="grave" unicode="`" 
d="M396 756q24 0 32 -17q3 -6 21 -97q2 -14 3.5 -27.5t1.5 -29.5q0 -19 -40 -19q-8 0 -18.5 5.5t-19.5 14.5q-2 1 -3 2.5t-3.5 5t-8 10t-14.5 18.5q-5 5 -4.5 5t-4.5 6l-10 10l-10 10q-14 13 -22 21.5t-12.5 14.5t-5.5 10t-1 9q0 12 35 26q10 4 23 8t25 7t22 5t14 2z" />
    <glyph glyph-name="a" unicode="a" horiz-adv-x="443" 
d="M409 370l-8 -18t-9 -18q-4 -9 -3.5 -9t-4.5 -9q-10 -22 -17 -37t-11.5 -27t-7.5 -22t-5 -21q-11 -44 -17 -69t-9.5 -42t-5 -32t-3.5 -37q-2 -27 -10 -35.5t-34 -12.5q-2 0 -19 10q-12 4 -30 9q-16 4 -25 7t-14.5 6t-9.5 7t-8 11q-7 10 -12 10q-3 0 -9 -6q-16 -14 -39 -24
t-37 -10q-17 0 -36 14t-34.5 35t-26 46t-10.5 48q0 29 7 63.5t20 66.5q34 93 145 177q12 9 27 17.5t30 15.5t28 11t21 4t13 -5t9 -19q2 -9 7 -16.5t8 -7.5t5.5 4t14.5 28q9 21 38 21q7 0 12 -0.5t10.5 -3.5t13 -9.5t19.5 -18.5q6 -5 11.5 -9.5t11.5 -7.5q15 -10 21 -16.5
t6 -13.5q0 -4 -5 -16zM216 323q-7 0 -14 -4.5t-18 -16.5q-11 -11 -17.5 -18.5t-11 -14t-8.5 -14t-8 -19.5q-4 -10 -7.5 -19t-8.5 -17q-7 -11 -7 -22q0 -13 9 -13q2 0 16 9t25 17q16 12 18.5 16.5t3.5 19.5q2 11 11 33q3 5 5.5 11.5t5.5 15.5q5 19 8 24q4 4 4 7q0 5 -6 5z
" />
    <glyph glyph-name="b" unicode="b" horiz-adv-x="449" 
d="M129 636l6 21q5 27 13.5 38t23.5 11q7 0 10.5 -2t20.5 -12q9 -6 37 -20q25 -14 35 -25.5t10 -28.5q0 -9 -2.5 -22.5t-7 -28.5t-9.5 -29.5t-11 -26.5q-9 -17 -9 -31q0 -8 6 -8q4 0 6 1.5t13 10.5q5 4 8 5t15 4q3 0 23 5q5 0 13.5 -5.5t18 -13.5t18 -18.5t14.5 -20.5
t11 -23.5t9 -28.5t6.5 -29.5t2.5 -24.5q0 -23 -10 -54t-27.5 -65t-42 -69.5t-53.5 -68.5q-35 -39 -63 -60t-45 -21q-10 0 -26.5 8t-21.5 15q-8 11 -14 20t-12 17q-7 9 -10 9t-10.5 -10.5t-10.5 -18.5q-2 -7 -4 -11t-5 -7t-8.5 -6t-15.5 -8q-4 0 -12 5t-18 12.5t-20.5 17.5
t-18.5 19q-31 34 -31 58q0 7 0.5 12t4 12.5t10 21t18.5 36.5q18 40 33.5 75.5t29.5 70t26.5 69t25.5 72.5l18 54t19 55zM215 320l-10 -2q-14 1 -28.5 -24.5t-36.5 -84.5q-2 -4 -4 -8.5t-4 -10.5q-3 -5 -3 -4.5t-3 -3.5q-4 -4 -4 -7q0 -6 8 -6q14 0 33.5 18t41.5 50
q6 9 14 22.5t15 26.5t11.5 23t4.5 12q0 5 -4.5 8.5t-10.5 3.5q-4 0 -11 -5z" />
    <glyph glyph-name="c" unicode="c" horiz-adv-x="380" 
d="M268 92q-1 -9 -2 -14.5t-3 -9.5t-6 -8t-11 -10q-20 -18 -33.5 -27t-27.5 -14q-10 -4 -23 -7.5t-26 -6t-24.5 -4t-19.5 -1.5q-25 0 -50 14.5t-45.5 38t-33 52t-12.5 57.5q0 33 10.5 70t28.5 72t43 67t55 56q16 13 36.5 25t40.5 21t38.5 14.5t30.5 5.5q20 0 49 -12.5
t51 -30.5q10 -8 16 -15.5t9.5 -16.5t4.5 -20.5t1 -29.5q0 -32 -6 -49t-22 -31q-14 -13 -32.5 -23t-26.5 -10q-4 0 -17 5l-19 9q-29 11 -29 24q0 1 14 34q5 10 5 15q0 6 -8 8q-6 1 -22.5 -14t-28.5 -32q-25 -36 -39 -68.5t-14 -53.5q0 -31 32 -31q7 0 12.5 0.5t12 3.5t15 9
t22.5 16q10 7 18 7q5 0 8.5 -2t10.5 -9q5 -6 7 -8t9 -7q9 -9 9 -16q0 -3 -5 -20z" />
    <glyph glyph-name="d" unicode="d" horiz-adv-x="447" 
d="M479 634l15 -14q10 -7 13.5 -13.5t3.5 -16.5q0 -7 -1 -12t-3.5 -11.5t-8 -16t-14.5 -24.5q-14 -23 -23 -46q-3 -6 -4 -8.5t-1.5 -4t-1.5 -3.5l-4 -8q-11 -28 -22.5 -55.5t-23.5 -54.5q-19 -42 -33.5 -82t-26.5 -80t-21 -80.5t-16 -85.5q-6 -30 -27 -30q-22 0 -73 20
q-11 4 -17 7t-10 6t-6.5 8l-6.5 13q-3 8 -9 8q-3 0 -9 -6q-4 -2 -9.5 -6t-30.5 -19q-15 -9 -21.5 -11.5t-14.5 -2.5q-30 0 -72 48q-12 14 -20 26t-12.5 24t-6.5 25.5t-2 30.5q0 72 32 138.5t92 118.5q14 13 37 28.5t46 29t42 22.5t26 9q21 0 33 -33q5 -12 9 -12q5 0 16 32
q7 16 24 46q11 17 20.5 38.5t19.5 47.5q8 21 13 33t11 17.5t14.5 7t22.5 1.5q29 0 42 -32q2 -2 3.5 -5l3.5 -7zM220 337l-4.5 -4t-10 -9.5l-11 -11l-8.5 -8.5q-12 -16 -19.5 -25.5t-12.5 -17t-8.5 -14t-7.5 -16.5q-7 -14 -11 -23.5t-6.5 -15.5t-3 -10.5t-0.5 -8.5
q0 -13 11 -13q4 0 14 5t20 13q14 11 17 15t5 15q2 8 11 35t23 60q8 18 8 23q0 9 -6 11z" />
    <glyph glyph-name="e" unicode="e" horiz-adv-x="397" 
d="M232 488q28 0 53.5 -11t45 -29.5t31 -42.5t11.5 -51q0 -56 -29 -101.5t-77 -66.5q-20 -9 -46 -15t-45 -6q-16 0 -39 23q-7 7 -10 7q-5 0 -8 -7t-3 -18q0 -51 32 -51q21 0 42.5 3.5t41.5 11.5q11 4 18 4q15 0 27 -21q3 -5 5.5 -12t2.5 -9q0 -1 -3 -9.5t-7 -19l-8 -21
t-7 -16.5q-2 -4 -4 -6.5t-7 -4.5t-13.5 -5t-23.5 -8q-20 -6 -31.5 -9.5t-19.5 -5t-16.5 -1.5h-22.5q-37 0 -68.5 12.5t-54.5 34.5t-36 52.5t-13 65.5q0 33 9 68t25 68.5t39 64t52 54.5q49 42 85.5 60t71.5 18zM233 363q-2 0 -9 -7q-4 -5 -8 -8.5t-9 -8.5q-21 -20 -35 -38
t-14 -24q0 -8 9 -8q3 0 9.5 2t14 4.5t13.5 5.5t8 5q4 4 9 11.5t9 16t6.5 16.5t2.5 13q0 20 -6 20z" />
    <glyph glyph-name="f" unicode="f" horiz-adv-x="268" 
d="M-4 8q-14 2 -18.5 4t-13.5 13q-5 6 -9 11.5t-9 10.5q-11 14 -11 22t5 23q4 13 7.5 24.5t7.5 22.5l24 80q5 15 9.5 29.5t9.5 28.5q7 17 14.5 35.5t16.5 38.5q6 13 6 20q0 4 -1 7q-5 22 -5 45q0 10 4.5 14.5t20.5 9.5q12 4 15.5 8t8.5 18q4 12 38 82q13 26 33 49t43.5 40.5
t49 27.5t48.5 10q46 0 84 -41q15 -15 20 -27t5 -31q0 -20 -6 -37t-16 -27q-9 -8 -21 -11.5t-33 -3.5q-18 0 -22.5 4.5t-8.5 28.5q-3 14 -8 14t-13.5 -13t-16.5 -30q-5 -11 -6.5 -13.5t-3.5 -6.5q-4 -9 -4 -11q0 -6 8 -6q4 0 6 1h5q8 0 11.5 -4t9.5 -23l6 -13q5 -11 6 -14
t1 -9q0 -5 -1.5 -8.5t-9.5 -11.5q-9 -10 -17 -35q-8 -24 -18 -24q-4 0 -7 1q-10 2 -24 2t-21.5 -1t-13.5 -7.5t-11.5 -19.5t-14.5 -37q-6 -14 -9.5 -24t-6.5 -19.5t-6 -21t-7 -29.5q-33 -128 -33 -132q-2 -23 -4 -31t-9 -13q-11 -9 -27 -9q-12 0 -17 1.5t-21 12.5z" />
    <glyph glyph-name="g" unicode="g" horiz-adv-x="445" 
d="M282 478q17 5 20 5q12 0 26 -12t27 -29t21.5 -37t8.5 -36t-24 -20q-15 -2 -21 -4.5t-6 -7.5q0 -3 7 -8q19 -16 24.5 -23.5t5.5 -18.5q0 -14 -2.5 -28.5t-9 -34t-17.5 -46t-27 -63.5q-27 -61 -50.5 -107t-46 -80.5t-45 -59.5t-47.5 -46q-14 -11 -32.5 -20.5t-39.5 -17
t-41.5 -12t-36.5 -4.5q-2 0 -4.5 -1t-16.5 -7q-8 16 -12 20.5t-14 14.5q-17 17 -24.5 34.5t-7.5 43.5t3.5 32t18.5 7l35 5l43 8q12 1 18.5 2t11.5 3.5t9.5 6t11.5 10.5q17 17 28.5 32t11.5 21q0 5 -7 5q-1 0 -3 -0.5t-14 -5.5q-9 -3 -25.5 -6.5t-22.5 -3.5t-10.5 1t-9 4.5
t-9.5 11t-12 20.5q-3 5 -6 10.5t-7 11.5q-10 15 -15.5 24t-8.5 15.5t-3.5 12t-0.5 13.5q0 12 3.5 30.5t9.5 40t14 44t17 41.5q19 39 53 73.5t89 69.5q38 25 72.5 40.5t59.5 19.5zM215 294q-2 0 -9 -5q-11 -11 -24 -19q-8 -6 -14.5 -11.5t-13.5 -14.5t-16 -22.5t-24 -35.5
q-2 -4 -5.5 -10.5t-6.5 -13.5t-5 -13t-2 -7q0 -6 7 -6q3 0 9.5 2.5t15 6t16.5 7.5t14 8q3 2 9 11.5t13.5 24.5t15.5 33l16 36q3 9 9 17q3 4 3 6q0 6 -8 6z" />
    <glyph glyph-name="h" unicode="h" horiz-adv-x="437" 
d="M110 137l-26 -61q-5 -12 -8.5 -24.5t-5.5 -24.5q-2 -20 -8.5 -25.5t-25.5 -5.5q-8 0 -11 2t-9 12q-12 17 -21 22t-26 6q-6 0 -13.5 7t-14 17t-10.5 21.5t-4 20.5q0 14 11 41q5 13 10 25.5t10 24.5q7 20 14 38.5t15 37.5l54 112q13 31 24 58t21 53l13 32.5t11 27t15 35
t26 56.5q11 24 19.5 33t20.5 9q14 0 32 -9.5t34.5 -23t27.5 -29t11 -27.5q0 -6 -5 -17.5t-23 -47.5q-16 -31 -23 -46.5t-7 -19.5q0 -8 6 -8q2 0 10 6q4 3 11.5 7t16.5 7.5t17 6t13 2.5q29 0 53 -33q11 -15 19.5 -39.5t8.5 -41.5q0 -8 -3 -21.5t-9 -29.5q-5 -15 -10 -29.5
t-10 -29.5l-14 -42t-15 -41q-7 -19 -11.5 -30.5t-6.5 -19t-3.5 -12t-2.5 -8.5q-4 -15 -7.5 -28t-6.5 -24q-4 -17 -4.5 -23t-2.5 -16q-2 -11 -4.5 -14t-16.5 -9q-19 -8 -22.5 -9t-7.5 -1q-3 0 -11.5 4t-18.5 9t-19.5 11t-15.5 11t-12.5 13t-11.5 16t-8.5 15.5t-3.5 12.5
q0 1 0.5 3t2.5 9t6.5 22t13.5 42q4 11 7 19t8 19.5t13 30t23 49.5q13 27 13 39q0 11 -18 11q-10 0 -20 -6t-15 -15q-3 -5 -9 -19.5t-13 -32.5t-13 -35.5t-9 -27.5z" />
    <glyph glyph-name="i" unicode="i" horiz-adv-x="237" 
d="M66 21q-3 -11 -6.5 -15t-14.5 -9q-18 -7 -29 -7q-8 0 -14.5 4.5t-16.5 18.5q-3 3 -6 6.5t-7 6.5l-13 4l-10 2q-5 0 -11.5 6.5t-12 15t-9 18t-3.5 17.5q0 6 10 30.5t26.5 61.5t38.5 83t47 95l54 103q10 14 19 14q12 0 30 -9.5t31 -22.5q23 -22 35.5 -39.5t12.5 -26.5
q0 -5 -3 -11.5t-14 -26.5q-35 -65 -69 -150q-32 -80 -45 -114q-3 -8 -6 -15t-5 -14zM264 509q-2 -5 -3.5 -9t-3.5 -8q-5 -11 -15.5 -20.5t-19.5 -9.5q-21 0 -62 38q-23 20 -30.5 30t-7.5 21t8.5 35t19.5 45q9 16 14 25.5t9.5 14t8.5 5.5t11 1q10 0 22.5 -8t41.5 -35
q5 -6 16 -10q4 -2 3.5 -2t4.5 -2q14 -8 19.5 -14.5t5.5 -18.5q0 -11 -4.5 -20.5t-20.5 -29.5q-6 -6 -10 -13z" />
    <glyph glyph-name="j" unicode="j" horiz-adv-x="237" 
d="M-222 -151q-4 0 -9.5 5t-10.5 12t-8.5 14.5t-3.5 12.5q0 4 0.5 6.5t4.5 6t12.5 8t23.5 13.5q19 16 31.5 28.5t27 32.5t34.5 54t55 95q39 72 63.5 118.5t40.5 79t25.5 57.5t18.5 53q4 12 7.5 18.5t10 11t17.5 6.5t29 5q6 -1 9.5 -4t16.5 -20q4 -5 6 -8t11 -15
q25 -32 25 -55q0 -15 -9.5 -42t-29.5 -71q-18 -40 -31.5 -68t-24.5 -50.5t-21.5 -42.5t-23.5 -43t-30 -53t-42 -72q-14 -24 -24.5 -41.5t-19.5 -30t-18 -23t-20 -21.5t-17.5 -14.5t-17.5 -3.5q-17 0 -34 8t-27 20q-12 13 -15 15zM208 687q16 0 38 -10.5t40 -26.5
q25 -24 25 -45q0 -8 -2.5 -15t-10.5 -20q-6 -11 -10.5 -19.5t-11.5 -22.5q-8 -17 -13.5 -23t-17.5 -11q-17 -7 -27 -7q-13 0 -23.5 6.5t-27.5 25.5q-18 20 -24.5 28.5t-6.5 14.5q0 1 3 10l7 21t9 24.5l9 22.5q6 16 11 25t9.5 14t10 6.5t13.5 1.5z" />
    <glyph glyph-name="k" unicode="k" horiz-adv-x="415" 
d="M-44 60q-7 9 -14 11q-4 3 -7.5 6t-7.5 5q-13 11 -13 24q0 3 9.5 25.5t24 55t31 69t31.5 66.5q19 37 30 60t17.5 37t9.5 22t6 17q21 57 37 99.5t30 80.5q4 11 7.5 17.5t6.5 7.5q10 4 16 6.5t10.5 4t8 3t9.5 4.5q13 -2 20.5 -3t12 -3t8.5 -5t10 -8q43 -37 43 -59
q0 -8 -13 -40t-36 -85q-10 -23 -19.5 -46t-17.5 -41.5t-13 -31.5t-5 -14q0 -9 7 -9q3 0 9 4t13 10.5t14.5 14t13.5 14.5q7 10 12 16t9.5 13.5t11.5 19t19 31.5q8 14 19.5 23.5t19.5 9.5q4 0 8.5 -1.5t25.5 -9.5q11 -4 15 -9.5t12 -24.5q13 -37 13 -48q0 -10 -11.5 -31.5
t-39.5 -63.5q-10 -15 -31.5 -33t-40.5 -26q-10 -5 -13 -8t-3 -10q0 -18 3.5 -41t8.5 -40q3 -10 7 -22.5t8.5 -24.5t7.5 -21t5 -12q12 -18 12 -25q0 -18 -44 -24q-10 -2 -16.5 -3.5t-13.5 -4t-14.5 -6t-19.5 -9.5q-14 -6 -22 -6q-14 0 -24 15t-25 59q-5 12 -7.5 20t-3.5 16
t-1.5 17t-0.5 23q0 42 -1.5 58t-6.5 16q-2 0 -4 -4.5t-8 -24.5q-1 -3 -1.5 -5t-2 -6t-4 -10.5t-6.5 -18.5q-3 -8 -5.5 -16t-5.5 -16q-5 -16 -10.5 -32.5t-11.5 -33.5q-5 -12 -8 -15t-14 -7q-26 -8 -31.5 -9.5t-10.5 -1.5q-4 0 -7 1t-6 4.5t-8 10.5t-13 20z" />
    <glyph glyph-name="l" unicode="l" horiz-adv-x="237" 
d="M-41 188q2 6 2.5 8.5t1 4.5t2 5t5.5 12q3 8 4 11t2 4.5t2 4.5t4 11q3 7 4.5 10t2 5t2 4.5t4.5 10.5q12 28 23.5 56t22.5 55q17 43 30 74.5t24 55.5t20 42.5t19 36.5l30 56q3 7 5.5 11.5t5 7t6.5 4l12 4.5q13 5 15.5 5.5t6.5 0.5q9 0 15 -4.5t20 -23.5q9 -11 16.5 -16
t18.5 -9q12 -5 16 -8.5t4 -12.5q0 -5 -1 -10.5t-4 -12.5t-8 -16.5t-13 -24.5q-17 -33 -37.5 -77.5t-41 -93.5t-40.5 -100t-36.5 -97t-29 -84t-17.5 -61q-8 -36 -25 -34q-12 2 -22.5 2.5t-19.5 1.5q-8 1 -9.5 2t-6.5 6q-29 33 -44.5 57t-15.5 35q0 9 7 24z" />
    <glyph glyph-name="m" unicode="m" horiz-adv-x="639" 
d="M-5 15q-1 0 -10.5 11t-40.5 46q-11 13 -13 17.5t-2 14.5q0 6 0.5 9.5t2.5 9.5t6.5 16.5t13.5 28.5q11 23 24.5 53.5t27 63l27 65t24.5 60.5q15 38 17 53q3 26 10 34.5t26 8.5q9 0 23 -5.5t28.5 -14.5t27 -20t18.5 -21q8 6 11.5 8t11.5 5q10 3 13 4t13 6q6 3 17 3
q10 5 17 7t12 4q12 5 18 5q10 0 18 -3.5t25 -14.5q4 -5 9 -12l6 -13q7 -12 13 -12q2 0 10 6q6 4 16.5 9t22 9.5t22.5 7t17 2.5q19 0 37 -10.5t32 -27t22.5 -38t8.5 -43.5q0 -76 -67 -250q-13 -30 -17 -57q-2 -11 -3 -17.5t-3.5 -11t-6.5 -8.5l-10 -10q-15 -12 -29 -12
q-8 0 -15 1.5t-14.5 6.5t-17.5 13t-24 22q-13 12 -20 19t-10.5 11.5t-4 7.5t-0.5 7t1 9.5t8.5 24t22.5 57.5t44 110q6 15 6 27q0 16 -8 16l-22 -10q-10 -5 -14.5 -10.5t-8.5 -18.5q-5 -15 -9.5 -30t-9.5 -31q-11 -34 -18.5 -56.5t-9.5 -27.5q-5 -23 -10.5 -38t-10.5 -21
q-8 -11 -13 -19t-5 -11l1 -28q0 -2 -4.5 -4.5t-10.5 -4.5l-12 -4t-10 -2q-7 0 -10 2t-17 14l-14 5l-19 2q-9 1 -12.5 3.5t-8.5 13.5q-7 13 -9 17t-8 14q-5 9 -6.5 13.5t-1.5 11.5t0.5 12t3.5 12.5t9 20t17 34.5q9 21 15 36l4 9l4 9q5 10 9.5 21.5t9.5 24.5q13 26 13 36
q0 9 -10 9q-11 0 -25 -12q-5 -5 -9 -10t-8 -11.5t-8 -16.5t-9 -25l-17 -41l-8 -20q-14 -27 -28 -67l-23 -70q-6 -17 -16 -27.5t-21 -10.5h-4t-5 0.5t-9 2t-16 3.5z" />
    <glyph glyph-name="n" unicode="n" horiz-adv-x="446" 
d="M186 312q-9 -5 -11.5 -8.5t-6.5 -17.5q-2 -8 -2.5 -8t-3.5 -8l-13 -32q-4 -9 -7.5 -18t-7.5 -17l-16 -45q-4 -14 -8 -27t-9 -27l-22 -49q-11 -29 -17 -37t-18 -8q-10 0 -24 7.5t-44 28.5q-17 12 -27 20t-15.5 14.5t-7.5 12t-2 12.5q0 4 2.5 12t9 23.5t17 39.5t27.5 60
q18 40 29.5 66t20 48t15.5 44.5t16 56.5q14 52 41 52q6 0 14 -3t25 -12q6 -2 12.5 -5t13.5 -8q14 -4 18 -10l5 -11q3 -8 9 -8q3 0 11 5q7 5 19 11t24 11.5t21.5 9t13.5 3.5q11 0 28 -13.5t33 -34.5q36 -45 36 -92q0 -19 -7.5 -53t-20.5 -76.5t-31 -91t-38 -96.5
q-8 -18 -15 -24.5t-22 -11.5q-14 -4 -22 -6.5t-12 -3.5t-5.5 -1h-2.5q-7 0 -21.5 10t-29 23.5t-25.5 26.5t-11 20q0 6 6 17q6 12 10 18.5t7 13t6.5 14.5t9.5 22q3 6 4.5 10t4 9t6 13t10.5 22q16 34 26.5 66.5t10.5 46.5q0 10 -9 10q-2 0 -4.5 -1.5t-13.5 -9.5z" />
    <glyph glyph-name="o" unicode="o" horiz-adv-x="452" 
d="M315 421q4 0 12 -2t16.5 -5t16 -6.5t10.5 -6.5q8 -7 13 -32.5t5 -60.5q0 -53 -20.5 -106.5t-57.5 -99.5q-21 -26 -45 -47t-49.5 -36t-51 -23t-48.5 -8q-29 0 -58 15.5t-52 40.5t-38 55.5t-15 60.5q0 27 8.5 59t23.5 65t35.5 64.5t44.5 56.5q20 22 49.5 45t61.5 43
q15 10 27.5 13.5t28.5 3.5q19 0 28 -9.5t21 -39.5q3 -7 6 -13.5t5 -13.5q3 -9 9 -12zM118 173q-8 -13 -8 -23q0 -11 8 -11q4 0 17 11.5t27 26.5q5 6 9.5 12t10.5 15t15 24l24 40q14 24 14 47q0 7 -2.5 12t-7.5 5q-3 0 -6.5 -3.5t-16.5 -18.5q-19 -23 -29.5 -36t-17 -22
t-10 -16.5t-9.5 -20.5z" />
    <glyph glyph-name="p" unicode="p" horiz-adv-x="455" 
d="M-108 -165q-8 0 -17.5 8t-14.5 20q-5 11 -10.5 24.5t-5.5 17.5q0 9 11 31q5 14 10 27.5t10 25.5q7 15 15 31.5t17 36.5l5.5 11t2.5 5.5t2.5 5.5t6.5 11q12 22 24.5 49t24.5 55t23.5 56t20.5 52q5 14 9.5 26t9.5 23q8 14 8 21q-2 11 -5 22l-4 18t-3 14q0 6 8 12t21 11
q11 4 14.5 6.5t6.5 10.5q3 18 6 29q3 17 15 29.5t26 12.5q9 0 13.5 -3t19.5 -17q5 -3 9 -6.5t9 -7.5q6 -5 10.5 -9t8.5 -8q8 -8 15 -8q9 0 20.5 1.5t20.5 3.5t15.5 3t8.5 1q19 0 39 -15.5t36.5 -40t27.5 -54.5t11 -58q0 -61 -27.5 -125t-76.5 -116q-38 -42 -73 -67t-54 -25
q-9 0 -22.5 7t-22.5 16q-2 2 -7 9.5t-16 21.5q-6 9 -11 9q-4 0 -15 -23t-34 -80q-5 -11 -8.5 -20t-7.5 -17q-5 -11 -7.5 -17t-4.5 -12t-4 -13t-5 -20q-11 -39 -35 -39q-7 0 -11.5 3t-14.5 13q-9 12 -15 12zM172 192q13 13 26 31.5t23.5 37.5t16.5 36t6 28q0 15 -25 15
q-14 0 -20.5 -7.5t-11.5 -30.5l-3.5 -10.5t-4.5 -13t-8.5 -22t-14.5 -36.5q-5 -12 -10.5 -24t-12.5 -25q-1 -2 -1 -6q0 -8 6 -8q4 0 9 8z" />
    <glyph glyph-name="q" unicode="q" horiz-adv-x="459" 
d="M96 15q-12 -3 -19 -7q-5 -2 -9 -3t-5 -1q-8 0 -20 7t-25 17.5t-25.5 24t-19.5 25.5q-8 13 -11.5 25t-3.5 27q0 46 13 92t36 87t56 75.5t72 57.5q14 8 39 18.5t50.5 19.5t47.5 15t31 6t17 -2.5t11 -6.5q2 -3 2.5 -7.5t5.5 -28.5q2 -14 6.5 -16.5t23.5 -2.5q11 0 17 -3
t12 -11q12 -18 22 -28q6 -6 7 -8.5t1 -7.5t-0.5 -8.5t-3.5 -10.5t-9 -19.5t-18 -35.5q-18 -38 -36.5 -82t-35.5 -90t-32 -92t-26.5 -87t-19 -75.5t-8.5 -57.5q-3 -19 -11 -26t-26 -7q-10 0 -20 3.5t-28 12.5l-35 17q-39 19 -39 42q0 5 2.5 17t7 28t9.5 33.5t11 34.5
q8 20 10 27t2 10q0 9 -7 9q-1 0 -5 -2zM237 332q-1 0 -4.5 -2.5t-24.5 -16.5q-5 -3 -12.5 -11t-16 -17t-15.5 -17.5t-10 -14.5q-14 -25 -21 -38.5t-10.5 -20.5t-4 -10t-0.5 -7q0 -13 10 -13q3 0 15.5 7t21.5 15q12 9 15.5 11.5t5.5 4.5q1 2 3 8.5t5 15.5q1 1 6.5 12.5t12 25
t12 25t6.5 12.5q12 16 12 21q0 10 -6 10z" />
    <glyph glyph-name="r" unicode="r" horiz-adv-x="302" 
d="M-37 19q-2 0 -9.5 3.5t-13.5 7.5q-2 1 -6.5 10t-8.5 20t-7 21.5t-3 15.5t0.5 9t3.5 11t9 18t17 31q26 55 45 99t32.5 79t22 63t12.5 51q5 18 7.5 21.5t14.5 6.5l7 2q7 3 13 3q5 0 14 -3.5t27 -12.5q25 -13 33.5 -18.5t13.5 -13.5q4 -7 7 -7q2 0 15 7.5t43 26.5q6 3 11 3
q10 0 22.5 -11.5t17.5 -25.5q4 -9 8 -24t4 -20q0 -10 -28 -71q-12 -26 -17 -33.5t-13 -7.5q-2 0 -15 4.5t-27 9.5q-6 2 -7 2q-2 0 -7.5 -1t-11.5 -2.5t-11 -2.5t-6 -2q-3 -2 -4.5 -4t-3 -5t-3.5 -9.5t-6 -17.5q-6 -15 -15.5 -40.5t-21 -56.5t-24 -64.5t-24.5 -64.5
q-13 -40 -31 -40q-5 0 -10 3t-16 12q-20 19 -37 19h-4t-5 -1h-4z" />
    <glyph glyph-name="s" unicode="s" horiz-adv-x="382" 
d="M230 366q-3 -2 -9.5 -4.5t-16.5 -6.5q-3 -1 -7.5 -4t-9 -7t-7.5 -7t-3 -4q0 -3 15 -14t36 -24q55 -33 55 -105q0 -16 -1.5 -28t-6 -23t-11.5 -21.5t-18 -22.5q-22 -24 -47 -43.5t-50.5 -33.5t-51 -21.5t-47.5 -7.5q-13 0 -23.5 2t-21.5 8t-24 16.5t-31 27.5
q-24 22 -32 35.5t-8 32.5q0 8 1 14.5t4 13t9.5 16t17.5 23.5q13 17 23 24t24 7q12 0 16.5 -3.5t11.5 -20.5q8 -17 18.5 -29t18.5 -12q5 0 16.5 3t16.5 6q4 2 11 10.5t7 10.5q0 4 -4.5 7t-18.5 10t-27.5 17.5t-26.5 24.5q-18 19 -18 57q0 31 9.5 62t26.5 57q13 18 37.5 33.5
t66.5 31.5q64 24 98 24q24 0 50.5 -10t46.5 -27q12 -10 17 -20t5 -25q0 -28 -13 -60q-5 -14 -12 -19.5t-26 -11.5q-12 -3 -24 -5t-23 -2q-22 0 -27 5.5t-6 28.5q0 14 -6 14z" />
    <glyph glyph-name="t" unicode="t" horiz-adv-x="299" 
d="M260 575l12 -6q26 -14 26 -27q0 -4 -6.5 -18.5t-21.5 -45.5q-1 -1 -1 -4q0 -5 12 -5q12 -1 17 -4t7 -12q3 -8 5.5 -15t4.5 -12q2 -6 2.5 -8.5t0.5 -8.5q0 -14 -1.5 -20t-8.5 -18l-5.5 -11t-8.5 -19q-3 -5 -5.5 -8t-10 -4.5t-21 -2t-38.5 -0.5q-13 0 -17 -3t-11 -16
q-7 -14 -11 -22.5t-7 -16.5t-7 -19t-11 -30q-7 -20 -11.5 -33.5t-6.5 -23.5t-3 -18t-1 -18v-13t1.5 -9.5t4.5 -10t9 -14.5q13 -23 19 -30q2 -4 2 -6q0 -5 -11.5 -14.5t-27 -19t-31 -16.5t-24.5 -7q-15 0 -47 26q-39 32 -54 53t-15 44q0 15 3.5 34t11.5 44t21 57.5t31 75.5
q9 19 9 32q0 5 -1 10q-3 22 -3 38q0 12 0.5 18.5t4.5 11t12 7.5t22 8q13 4 16 8.5t8 21.5q2 7 5 14.5t11 22.5q5 8 8.5 16.5t7.5 18.5q16 38 28 51t31 13q8 0 20.5 -5t32.5 -18z" />
    <glyph glyph-name="u" unicode="u" horiz-adv-x="457" 
d="M156 61q-2 0 -7 -5q-8 -8 -20.5 -16.5t-26 -16t-26.5 -12.5t-20 -5q-15 0 -32 13t-31 33t-23 43.5t-9 45.5q0 9 3 26t8.5 38t12 43.5t14.5 42.5q1 2 3.5 8.5t10 24.5t21 51t36.5 87q15 35 39 35q12 0 29.5 -9.5t34 -22.5t28.5 -27t12 -24q0 -4 -7 -20q-5 -9 -8.5 -17.5
t-6.5 -16.5q-5 -13 -9.5 -25t-9.5 -25q-8 -18 -15 -37t-12.5 -36.5t-9 -30.5t-3.5 -18q0 -11 9 -11q2 0 10 5q4 2 9 5t10 5q11 6 13.5 9.5t4.5 17.5q4 17 18.5 59t45.5 124q19 49 30 66.5t24 17.5q10 0 31 -3q6 -1 9 -4t11 -14q9 -11 14.5 -17.5t10.5 -10t10.5 -6t14.5 -4.5
q13 -5 13 -20q0 -8 -3.5 -20t-12.5 -33q-20 -50 -34 -89.5t-25.5 -77.5t-21 -78.5t-19.5 -93.5q-3 -26 -18 -26l-9.5 2.5t-20.5 5.5t-20 6t-10 3q-17 6 -26.5 9.5t-14 5.5t-6 3t-2.5 2q-1 2 -3 5t-10 19q-5 11 -8 11z" />
    <glyph glyph-name="v" unicode="v" horiz-adv-x="401" 
d="M356 428l22 -23q8 -10 8 -19q0 -4 -2 -12.5t-5 -19t-7 -21.5t-8 -20q-3 -8 -17 -32t-30.5 -51t-31 -49.5t-18.5 -27.5q-29 -34 -56 -65.5t-53 -60.5q-32 -38 -55 -38q-17 0 -51 15q-6 3 -9 5.5t-15 14.5l-6 6t-6 5q-14 11 -17 16t-3 20l2 50q1 42 2 66t2 43.5t2.5 41
t3.5 57.5q1 9 1 15v9l-1 78q0 31 13 49q6 9 25 9q15 0 29.5 -3t23.5 -8q10 -6 15.5 -9t9 -5t6 -3t6.5 -3q25 -13 32.5 -21t7.5 -22q0 -19 -6 -46q-5 -19 -7 -33l-4 -28q0 -13 -2 -24.5t-6 -25.5q-7 -14 -7 -27q0 -10 5 -10q1 0 7.5 13t15.5 33.5t19.5 45t19.5 47.5t16 42
t9 28q9 34 17.5 46t23.5 12q6 0 14 -2t22 -7q20 -8 26 -13.5t11 -20.5z" />
    <glyph glyph-name="w" unicode="w" horiz-adv-x="608" 
d="M430 408q5 11 10 22.5t10 23.5q8 18 18 24.5t32 6.5q16 0 27.5 -6t23.5 -20q16 -19 25.5 -41t9.5 -39q0 -13 -7.5 -29.5t-30.5 -51.5q-15 -23 -30 -47.5t-29 -48.5q-29 -53 -62 -101q-8 -12 -15.5 -24t-15.5 -24q-6 -9 -8.5 -13t-3.5 -5.5t-1.5 -2t-1.5 -2.5
q-12 -23 -22 -32t-23 -9q-11 0 -30.5 9t-46.5 26q-14 9 -19.5 17.5t-5.5 21.5q0 14 3 41q1 11 1.5 22t0.5 23v18t-1 24q-11 -15 -19 -27t-23 -37q-11 -17 -17 -27t-13.5 -20t-18.5 -22.5t-30 -34.5q-14 -17 -19 -20.5t-12 -3.5q-14 0 -30 6.5t-24 16.5l-18 19
q-11 8 -17.5 12.5t-9.5 8.5t-3.5 8t-0.5 10q0 20 4 55t12 86q2 20 4 42t4 46q1 18 5.5 56t9.5 84q1 10 2.5 16t4.5 10.5t8 8.5t13 9q18 11 34 11q14 0 23.5 -4.5t19.5 -15.5q12 -14 17 -18t19 -10q17 -7 17 -19q0 -6 -2.5 -23t-6 -37t-7.5 -40t-7 -32q-7 -25 -7 -33t1 -8
q3 0 5.5 3.5t13.5 26.5q2 4 3.5 6.5t3.5 6t6.5 10t12.5 18.5q5 8 9.5 16t8.5 17q12 28 18.5 43.5t11 25.5t8 18t8.5 20q9 16 27 16q6 0 13.5 -2t15.5 -5t15 -6.5t11 -6.5l31 -28q5 -5 6.5 -7.5t1.5 -10.5q0 -5 -1 -14t-3 -23q-2 -11 -3.5 -22t-3.5 -22q-2 -12 -4 -23.5
t-4 -22.5q-3 -17 -4 -23.5t-1 -7.5l2 -10q4 6 7 9.5t5 7.5t4.5 10t6.5 16q6 14 12 27.5t12 27.5z" />
    <glyph glyph-name="x" unicode="x" horiz-adv-x="414" 
d="M219 421q9 7 14 12t10 9.5t11.5 11l18.5 18.5q14 14 31 24t27 10t18 -10.5t25 -47.5q14 -31 19 -44.5t5 -19.5t-1 -10t-5.5 -9.5t-14.5 -13.5t-28 -22q-23 -18 -41 -31.5t-32 -24.5q-12 -9 -12 -19q0 -5 2.5 -15.5t8.5 -30.5q4 -13 9 -36.5t9.5 -48t7.5 -45t3 -28.5
q0 -10 -9 -15t-30 -7q-11 -1 -16 -2.5t-12 -5.5q-7 -7 -13.5 -12.5t-13.5 -10.5q-4 -4 -18 -7t-25 -3q-33 0 -33 27l1 83q0 20 -3.5 34t-8.5 15q-2 0 -9 -12q-3 -5 -6.5 -10.5t-8.5 -12.5q-4 -4 -3.5 -4t-4.5 -6q-5 -7 -13.5 -21t-21.5 -36q-13 -20 -24 -29t-23 -9
q-9 0 -14.5 5.5t-19.5 25.5l-3 5l-4 5q-9 10 -18 17q-17 14 -23.5 25.5t-6.5 25.5q0 13 9.5 29.5t30.5 39.5q32 36 49.5 55t25.5 27q12 12 19.5 19t11 12t5 8.5t1.5 7.5q0 7 -17 40q-5 9 -10 21.5t-9.5 24t-7 21t-2.5 14.5q0 10 11 24t26.5 27t33 21.5t30.5 8.5q9 0 25 -5
t21 -10q10 -9 22 -54q5 -18 8.5 -25.5t6.5 -7.5z" />
    <glyph glyph-name="y" unicode="y" horiz-adv-x="409" 
d="M-18 214q2 54 9 106.5t21 115.5q2 11 4 17t4.5 9.5t7 6.5t12.5 7q11 6 14.5 7.5t5.5 1.5q5 0 25 -12t38 -26q21 -16 33 -25t17.5 -15.5t6.5 -12t1 -14.5q0 -8 -3 -22.5t-14 -53.5l-7 -31q-8 -48 -12 -82l-6 -28l-2 -14l15 18l1.5 3t7 17.5t17.5 44.5t34 86q1 2 4 12t7 24
t8 30.5t8 31.5t7 27t4 17q5 17 9 22t15 5q23 0 39.5 -7.5t31.5 -24.5q18 -20 26 -38t8 -38q0 -48 -39 -135.5t-110 -199.5q-17 -27 -28 -44t-24 -33.5t-31.5 -37t-49.5 -54.5q-35 -37 -55 -58t-32.5 -31t-21 -12.5t-19.5 -2.5q-19 0 -28.5 6.5t-21.5 26.5q-6 13 -15 20
q-5 5 -9 9.5t-9 9.5q-16 16 -16 31q0 19 5 27t20 14q30 13 51 26.5t47 38.5q6 5 12 12.5t11.5 15t9 14t3.5 8.5q0 5 -3 8.5t-21 17.5q-15 11 -23 23.5t-8 23.5q0 7 1.5 20.5t3.5 33.5z" />
    <glyph glyph-name="z" unicode="z" horiz-adv-x="409" 
d="M108 6q-12 0 -20.5 -1t-18 -2.5t-21.5 -4.5t-30 -8q-9 -2 -17 -3t-15 -1q-17 0 -25.5 9.5t-17.5 38.5q-15 51 -15 64q0 11 6 23t21.5 28.5t42.5 39.5t69 56q25 19 41 32t26.5 22t17.5 16t13 15q-9 -1 -15 -1.5t-13 -3t-18 -6.5t-30 -12q-3 -1 -5.5 -1.5t-6.5 -0.5
q-9 0 -18 6.5t-13 16.5q-5 14 -9 40t-4 48q0 19 18 28.5t62 14.5q18 2 34.5 4t31.5 4q33 4 55.5 5.5t44.5 1.5q17 0 27.5 -0.5t17 -3t11.5 -8t11 -15.5q17 -27 27.5 -50t10.5 -36q0 -6 -1 -10.5t-5 -10t-12 -13t-21 -18.5q-8 -5 -14 -11.5t-13 -14.5q-6 -7 -6 -6.5t-6 -6.5
q-32 -35 -51 -55t-31 -31.5t-19.5 -18t-16.5 -12.5q-6 -3 -6 -6q0 -4 10 -4h5l29 3l24 1l21 3h5q18 0 29 -16q8 -11 13 -23t5 -18q0 -9 -7 -24q-3 -6 -5.5 -12.5t-4.5 -12.5q-9 -22 -18 -29.5t-26 -7.5l-58 1z" />
    <glyph glyph-name="braceleft" unicode="{" horiz-adv-x="377" 
d="M401 737q8 0 13.5 -0.5t14 -3t22.5 -8.5t39 -16q8 -4 10.5 -6.5t2.5 -8.5q0 -12 -6.5 -27.5t-15.5 -23.5q-2 -2 -8 -4.5t-12.5 -5t-12.5 -4.5t-9 -2q-2 0 -10 2q-17 5 -27.5 8t-18.5 4.5t-14 2t-13 0.5q-9 0 -16.5 -4.5t-17 -21t-24 -48t-37.5 -84.5q-14 -32 -24 -52.5
t-20.5 -34.5t-22.5 -25t-30 -24q-8 -6 -13.5 -14.5t-5.5 -16.5q0 -5 1 -8t9 -18q5 -12 5 -25q0 -8 -1 -15t-7 -25.5t-19 -54.5t-37 -102q-3 -11 -5 -21t-2 -17q0 -13 12 -13q6 0 18 1.5t26.5 4t27.5 5.5t20 5q10 2 12 2q8 0 17 -6.5t9 -13.5q0 -11 -7 -25.5t-17 -25.5
l-3.5 -3.5t-5.5 -3t-11.5 -4t-21.5 -6.5q-26 -8 -40 -12.5t-23 -6.5t-14.5 -2.5t-13.5 -0.5q-10 0 -29.5 2.5t-27.5 4.5q-27 6 -48 52q-5 9 -9.5 18.5t-9.5 20.5q-10 19 -10 27q0 10 4 25t12.5 37t22.5 53t35 74q5 13 5 22q0 5 -1.5 7.5t-11.5 16.5q-5 10 -5 14q0 2 2 8.5
t5 14.5t6.5 15.5t5.5 11.5q2 3 4 5.5t5.5 5.5t11 7.5t20.5 13.5q7 5 11.5 10t8 13t8 21t10.5 36q5 18 15 42t20.5 46.5t21 40.5t16.5 24t24 20t38.5 29.5t40 29t28.5 19.5q17 11 43 16.5t55 5.5z" />
    <glyph glyph-name="bar" unicode="|" 
d="M330 667v-834h-161v834h161z" />
    <glyph glyph-name="braceright" unicode="}" horiz-adv-x="403" 
d="M200 620l-31 -5l-16 -4q-9 -3 -13 -3q-8 0 -16.5 8t-8.5 14q0 14 9 34t20 31l3.5 3.5t6 3t13 4t23.5 7.5q28 9 44.5 14t26 7.5t16 3t15.5 0.5q6 0 15 -0.5t18.5 -1.5t18 -2.5t12.5 -2.5q31 -9 54 -59q12 -25 18.5 -39t9.5 -21.5t3.5 -11t0.5 -7.5q0 -5 -5 -23t-13 -38
q-3 -10 -5.5 -16.5t-7.5 -17.5t-14.5 -29.5t-25.5 -52.5q-6 -12 -6 -24q0 -5 2 -8.5t13 -19.5q6 -8 6 -14q0 -3 -0.5 -5.5t-2.5 -8t-5.5 -15t-10.5 -25.5q-1 -3 -2.5 -6t-6.5 -6.5t-14 -10t-25 -16.5q-18 -10 -26 -35q-3 -11 -6 -21.5t-6 -21.5q-4 -15 -11.5 -33.5
t-16.5 -36.5t-18 -32.5t-15 -20.5q-7 -7 -27 -22.5t-43 -33t-45 -33t-32 -21.5q-20 -11 -49 -17.5t-61 -6.5q-9 0 -15.5 0.5t-15.5 3.5t-24.5 9.5t-43.5 18.5q-10 4 -12.5 7t-2.5 9q0 13 7.5 31.5t17.5 28.5q3 3 9 7t13 7t13.5 5.5t9.5 2.5q4 0 12 -3q56 -17 85 -17
q11 0 18 5t17 21q13 21 21.5 37t21.5 45q16 37 27.5 60t23 39t24.5 28t33 27q24 18 24 37q0 5 -1.5 8t-10.5 20q-6 12 -6 28q0 7 1 15t4 18.5t8.5 25.5t13.5 37q20 55 29 85t9 46q0 14 -13 14q-5 0 -10 -0.5t-10 -1.5z" />
    <glyph glyph-name="asciitilde" unicode="~" horiz-adv-x="667" 
d="M92 613q29 72 65 106t85 34q11 0 21 -1.5t24.5 -6t36.5 -13.5t58 -24q28 -12 49 -12q20 0 34.5 13.5t33.5 45.5l77 -64q-14 -34 -24.5 -53t-23.5 -35q-21 -26 -47.5 -39.5t-55.5 -13.5q-9 0 -16.5 1t-20.5 5.5t-35.5 13t-60.5 24.5q-35 14 -55 14t-34 -13t-34 -47z" />
    <glyph glyph-name="nonbreakingspace" unicode="&#xa0;" horiz-adv-x="250" 
 />
    <glyph glyph-name="exclamdown" unicode="&#xa1;" horiz-adv-x="270" 
d="M201 427l7 -6q22 -22 22 -31q0 -2 -2 -7.5t-7 -18.5t-14.5 -35t-24.5 -58q-8 -18 -12.5 -30.5t-9.5 -28t-12 -37.5t-18 -59l-17 -57l-7 -23l-4 -11q-3 -11 -5 -13.5t-12 -9.5q-13 -9 -21 -9q-11 0 -17 2.5t-18 11.5q-5 4 -11.5 8.5t-14.5 9.5q-10 4 -13 4.5t-9 2.5
q-5 2 -14 11.5t-13 17.5q-5 12 -5 28q0 4 0.5 8t2 9t5 12.5t8.5 18.5q7 15 12.5 31t10.5 33q21 66 68 168q11 22 20 43q3 6 4 8.5t1.5 4t1 3.5t2.5 7q9 24 16.5 33.5t16.5 10.5q2 0 15 -4.5t21 -8.5t14.5 -9t18.5 -17zM262 505q-5 -15 -13.5 -24t-18.5 -9q-22 0 -63 32
q-14 10 -22.5 17t-13 12.5t-6 11t-1.5 12.5q0 28 19 69q10 21 15.5 32.5t10 16.5t9.5 6t13 1q10 0 19 -5t29 -22q4 -3 9 -6t10 -8l5 -3l5 -2q22 -11 29 -19t7 -19q0 -10 -3 -17.5t-17 -27.5q-5 -7 -8.5 -13.5t-5.5 -11.5z" />
    <glyph glyph-name="cent" unicode="&#xa2;" horiz-adv-x="404" 
d="M270 409q6 10 6 15q0 7 -7 7q-11 0 -28.5 -18.5t-34 -44.5t-28.5 -53t-12 -45q0 -31 38 -31q9 0 17 4t20 13q13 11 19.5 14.5t12.5 3.5t9.5 -2t9.5 -8q4 -5 7.5 -8.5l7.5 -7.5q10 -9 9 -15q-3 -26 -5.5 -40t-5.5 -22t-8.5 -13.5t-14.5 -13.5q-23 -20 -57.5 -33t-65.5 -15
q-4 -6 -5.5 -8.5t-7.5 -9.5q-6 -6 -7.5 -9t-3.5 -9q-3 -11 -7 -15l-18 -21q-10 -4 -20 -11l-10 -7l-6 -4q-3 -4 -6 -4q-4 0 -9 13.5t-5 23.5q0 5 4 13q3 9 5.5 15t3.5 11q2 2 2 5t1 19q1 7 1.5 11t2.5 10q-38 34 -53.5 63.5t-15.5 67.5q0 33 9.5 68t27 68.5t42 64.5t54.5 56
q16 13 27.5 21.5t23.5 14.5t27.5 11t39.5 11l12 4l6 9l13 25q11 21 21 33.5t17 12.5q-1 0 9 -2l5 -1h9q6 0 10.5 -18t4.5 -40q0 -23 -6 -50q47 -27 47 -73q0 -31 -4 -49.5t-14 -32.5q-13 -17 -32.5 -29.5t-33.5 -12.5q-6 0 -34 12q-22 9 -25.5 11.5t-3.5 8.5q0 5 4 13l5 13z
" />
    <glyph glyph-name="sterling" unicode="&#xa3;" horiz-adv-x="562" 
d="M81 201l5 6q4 6 4 7q0 5 -5 8.5t-13 2.5q-20 -2 -45 -3.5t-43 -1.5q-29 0 -29 40q0 26 25 57q10 12 30 20.5t38 8.5q2 0 8 -0.5t14 -1.5q4 -1 8 -1q18 0 28 0.5t15.5 2t7.5 5t4 10.5q7 25 20.5 53.5t30 56.5t35 53.5t36.5 44.5q38 41 89.5 63.5t106.5 22.5q51 0 83.5 -30
t32.5 -78q0 -23 -11 -53.5t-27 -51.5q-3 -5 -6 -9t-7 -8q-5 -8 -5 -7.5t-1 -1.5q-5 -10 -7.5 -12.5t-9.5 -2.5q-14 0 -24 2.5t-36 12.5q-31 11 -39.5 16.5t-8.5 13.5q0 3 0.5 4.5t2 4.5t5.5 8.5t11 15.5q10 12 10 20q0 7 -6 7q-3 0 -6 -3q-4 -2 -7.5 -4t-8.5 -4l-4 -2l-4 -2
q-15 -8 -26 -15t-20 -16.5t-16.5 -22.5t-16.5 -31q-10 -22 -14 -32t-4 -15t4 -6t22 -1q1 0 9 2q23 5 32 6t19 1q12 0 17 -4t10 -17q1 -4 11 -15q5 -7 5 -12t-3 -11.5t-15 -25.5q-6 -9 -11 -19q-4 -7 -7 -11t-9.5 -6t-18 -3.5t-32.5 -3.5l-32 -4q-5 -1 -8 -1.5t-4 -0.5l-34 1
q-4 0 -8 -7.5t-12 -26.5q-8 -20 -18 -37.5t-15 -22.5q-5 -7 -5 -8q0 -5 5 -8t13 -2q101 8 104 9q40 6 62 11.5t43 13.5q15 6 25 6t20.5 -10t10.5 -19q0 -3 -5 -15q-2 -7 -4 -13t-4 -11q-5 -12 -13 -29.5t-14 -27.5q-4 -7 -23.5 -11t-60.5 -7q-25 -2 -55.5 -3.5t-60 -3
t-54 -2.5t-37.5 -1q-21 0 -51.5 1t-60 2.5t-53 3t-31.5 3.5q-13 3 -18 11t-5 27q0 20 29 55q12 16 18.5 21t13.5 5q2 0 5 -0.5t17 -2.5q6 -1 10 -1.5t21 -2.5l8 -2q13 0 27 28q0 1 0.5 2.5t2 5t4 10.5t7.5 19z" />
    <glyph glyph-name="currency" unicode="&#xa4;" horiz-adv-x="539" 
d="M167 181q-7 0 -18 -11q-21 -21 -33.5 -29.5t-23.5 -8.5q-7 0 -16.5 8t-18.5 19.5t-15 24t-6 22.5q0 4 1 7.5t4 8t9.5 12t18.5 19.5q8 8 10 10.5t2 7.5q0 3 -0.5 6t-5.5 14q-5 13 -8.5 30.5t-3.5 33.5q0 20 4.5 41t11.5 34q5 9 6.5 12.5t1.5 7.5q0 3 -1 6t-6 8t-16 15
t-30 27q-6 6 -6 16q0 19 28 40q27 21 41 21q8 0 23.5 -10.5t35.5 -28.5q7 -7 10.5 -9t7.5 -2q1 0 9 2q25 9 39.5 12t35.5 3q11 0 20 -0.5t18 -2.5t19.5 -5.5t25.5 -9.5q1 -1 6 -1q3 0 5.5 1.5t8.5 7.5t16.5 17t28.5 30q6 6 16 6q19 0 40 -28q21 -29 21 -40q0 -15 -28 -45
q-13 -14 -18 -21.5t-5 -13.5q0 -3 1 -6t8 -20q5 -11 8 -30t3 -35q0 -15 -3.5 -32.5t-8.5 -31.5l-4 -12t-1 -6q0 -6 12 -18q25 -24 34 -37t9 -24q0 -7 -8 -16.5t-19.5 -18.5t-24.5 -15t-22 -6q-5 0 -8 1t-8 4t-12 10l-19 19q-8 8 -11 9.5t-8 1.5q-4 0 -7 -1t-20 -9
q-11 -5 -30 -8t-35 -3q-23 0 -39 3.5t-42 14.5q-8 2 -10 2zM256 448q-18 0 -34.5 -7.5t-29 -20t-19.5 -29t-7 -35.5t7 -35.5t19.5 -29t29.5 -19.5t36 -7q38 0 64.5 26.5t26.5 64.5q0 39 -27 65.5t-66 26.5z" />
    <glyph glyph-name="yen" unicode="&#xa5;" horiz-adv-x="549" 
d="M118 412q-5 39 -7.5 66.5t-2.5 53.5q0 19 1 41.5t3 43t4.5 37t4.5 23.5q4 10 24.5 17t46.5 7q14 0 36 -8t45 -21q25 -16 25 -39q0 -7 -2.5 -18t-8.5 -31l-5.5 -22t-3.5 -21t-1.5 -24.5t-0.5 -34.5q0 -14 3.5 -24.5t8.5 -10.5q4 0 11.5 13.5t17.5 36.5q6 15 12 29.5
t13 28.5l10 22t10 23q3 7 6 13.5t6 15t6.5 20.5t9.5 30q14 43 42 43q23 0 57 -27q23 -18 33.5 -34.5t10.5 -33.5q0 -11 -4 -29t-12 -47q-2 -7 -13 -31t-32 -67q-2 -5 -3.5 -9.5t-3.5 -9.5q6 2 9 2h6q19 0 23 -11q6 -18 8 -22q5 -8 8.5 -16.5t2.5 -13.5q0 -3 -8 -13
q-8 -8 -11 -17q-6 -13 -10.5 -20.5t-9 -11t-10 -5t-15.5 -2.5l-35 -2q-17 -3 -22 -3q-4 0 -8 1q-4 -5 -8 -11.5t-9 -19.5l14 1q13 2 24.5 3t22.5 2q3 0 6 0.5t5 0.5q3 0 5 1q7 -1 9 -5t10 -23l7 -12q5 -8 5 -14q0 -4 -3.5 -12t-11.5 -23l-10 -18q-8 -16 -11 -16
q-9 -2 -14.5 -2.5t-10 -1.5t-10.5 -2.5t-16 -4.5l-25 1q-21 -3 -25.5 -3.5t-9.5 -0.5h-4h-5t-9 0.5t-16 1.5l-11 1l-3.5 -7t-4.5 -6.5t-7.5 -10t-13.5 -17.5q-4 -6 -6.5 -9.5t-6 -8t-8 -11.5t-13.5 -19q-22 -31 -34 -41.5t-28 -10.5q-10 0 -23 6l-20 7l-22 1q-2 0 -11.5 4.5
t-15.5 8.5q-5 3 -11.5 11.5t-12 18.5t-9 20t-3.5 17q0 8 8 19.5t20 20.5l-11 -1l-15 -2h-6q-13 0 -14 13q-3 16 -6 30q0 5 6 17l6 17q3 8 6 13t5 6l13 7q6 4 11 8t10 9q8 9 16 11q1 0 13.5 -1.5t32.5 -3.5q3 -1 8 -1h5h5t8.5 0.5t15.5 1.5q6 10 8 14t2 9q0 8 -10 9
q-4 -1 -18.5 -2t-40.5 -3q-21 1 -32.5 2t-17 2.5t-7.5 4t-3 6.5q-1 2 -1 3t-1 6q-2 7 -2.5 9.5l-2.5 12.5q7 8 8 10.5t1 10.5l4 8q2 5 4.5 11t6.5 15q8 14 12.5 18t12.5 3q4 1 7 1t5 1z" />
    <glyph glyph-name="brokenbar" unicode="&#xa6;" 
d="M330 667v-354h-161v354h161zM330 153v-320h-161v320h161z" />
    <glyph glyph-name="section" unicode="&#xa7;" horiz-adv-x="542" 
d="M312 134q8 -20 10.5 -34t2.5 -31q0 -42 -20.5 -76.5t-57.5 -56.5q-21 -12 -46 -22t-50.5 -17t-51.5 -11t-48 -4q-66 0 -104 34t-38 93q0 11 6.5 19t30.5 25q37 27 102 27q17 0 17 -15q0 -2 -0.5 -4t-4.5 -15q-1 -2 -1 -7q0 -10 6 -18t14 -8t25 5t32 12q24 12 24 37
q0 11 -3.5 17.5t-15.5 16.5q-44 36 -90 93q-13 16 -21 27t-12.5 21t-6 19.5t-1.5 21.5q0 76 57 125q12 10 25.5 19.5t27 16.5t24.5 11.5t18 4.5q9 0 9 3t-4 6q-5 6 -9 26t-4 40q0 37 20.5 69t56 55.5t83.5 37t104 13.5q162 0 162 -93q0 -17 -8 -35.5t-26 -44.5
q-14 -18 -28.5 -29t-25.5 -11q-9 0 -30 5t-35 10q-30 11 -30 28q0 7 2 11t15 22q2 4 2 7q0 13 -16 13q-4 0 -11.5 -1t-15.5 -3t-15 -4t-10 -3q-12 -6 -21.5 -18.5t-9.5 -22.5q0 -8 6.5 -18.5t14.5 -17.5q10 -8 15.5 -12.5t10 -8.5t9 -9t12.5 -14q5 -5 17 -16t31 -28
q7 -8 15 -21.5t15 -29.5t11 -31.5t4 -26.5q0 -26 -14 -57t-34 -51q-23 -22 -54.5 -40t-63.5 -26zM206 392q0 -14 -3 -18t-17 -10q-22 -8 -22 -30q0 -7 3 -12.5t17 -21.5q14 -18 27.5 -33t21.5 -21q5 -5 9.5 -9t8.5 -8q7 -10 12 -10q17 0 31.5 17.5t14.5 36.5q0 15 -6.5 26
t-28.5 31q-17 19 -33 36q-6 6 -14.5 15.5t-20.5 20.5v-10z" />
    <glyph glyph-name="dieresis" unicode="&#xa8;" 
d="M329 608q-19 -36 -44 -36q-12 0 -25 7t-23.5 18t-17 24.5t-6.5 26.5q0 11 3.5 23t12.5 34q12 27 24 39t29 12q16 0 54 -29q26 -20 26 -44q0 -10 -5.5 -23t-19.5 -38zM455 755q8 0 24.5 -9t33.5 -23q10 -8 16.5 -18.5t6.5 -18.5q0 -5 -5 -18.5t-12 -29t-14 -29t-11 -18.5
q-14 -15 -35 -15q-14 0 -26.5 6t-22.5 16.5t-16 23.5t-6 27t7 35.5t21 46.5q13 24 39 24z" />
    <glyph glyph-name="copyright" unicode="&#xa9;" horiz-adv-x="814" 
d="M391 686q71 0 134.5 -28t111 -75.5t75 -111t27.5 -135.5t-28 -136t-76 -111.5t-112.5 -75t-137.5 -27.5q-74 0 -138 27.5t-112 75.5t-75.5 112t-27.5 138q0 72 28 135.5t77 110.5t114 74t140 27zM381 622q-57 0 -107 -23t-88 -62t-60 -91t-22 -110q0 -59 22 -111
t60.5 -91t89.5 -61.5t109 -22.5q59 0 110.5 22.5t89.5 61.5t60 91.5t22 112.5q0 59 -22.5 111t-61 90.5t-90.5 60.5t-112 22zM443 260l7 2q2 0 5 -4t6 -10t5 -12t2 -9q0 -16 -10.5 -32.5t-27.5 -27.5q-23 -14 -49.5 -23t-46.5 -9q-15 0 -27.5 6.5t-32.5 24.5
q-12 12 -19.5 20t-11.5 16.5t-5.5 17.5t-1.5 23q0 24 5 50t14.5 52.5t22 50.5t27.5 43q13 17 31.5 32.5t38 27.5t38.5 19t34 7q14 0 35 -9t36 -23q17 -14 17 -39q0 -24 -6.5 -45t-16.5 -28q-4 -3 -11 -6t-15 -6t-15.5 -4.5t-11.5 -1.5t-5.5 0.5t-7.5 5.5q-4 2 -6 4l-4 4
l-3 3q-3 3 -3 9q0 8 7 24q5 11 6.5 14.5t1.5 7.5q0 7 -4 7t-11 -6t-15 -15t-16.5 -20.5t-14.5 -23.5q-40 -77 -40 -124q0 -11 4 -17.5t12 -6.5q4 0 14.5 3.5t22 8t21 9.5t12.5 8q1 1 2 1.5t2 1.5l1 1z" />
    <glyph glyph-name="ordfeminine" unicode="&#xaa;" horiz-adv-x="308" 
d="M209 311q-21 5 -27 8.5t-11 12.5l-2 2q-1 0 -1 1q-1 0 -4 -3t-9 -6.5t-13.5 -7t-15 -5.5t-11.5 -2q-12 0 -24.5 8.5t-23 21t-17 28.5t-6.5 31q0 39 16.5 77t45.5 67q31 31 63 50t53 19q11 0 16 -17q2 -6 6 -12q7 31 35 31q11 0 16.5 -3t21.5 -17l13 -10q19 -12 19 -20
q0 -2 -0.5 -4t-3.5 -8t-9 -19t-17 -36q-19 -36 -30 -76t-17 -92q-3 -31 -30 -31q-2 0 -4 0.5t-11 5.5zM158 418q18 10 24.5 16t6.5 14q5 12 9 24t9 23l3 6q-17 -7 -34 -32t-23 -53z" />
    <glyph glyph-name="guillemotleft" unicode="&#xab;" horiz-adv-x="492" 
d="M430 450q7 0 12 -2.5t13 -10.5q18 -18 24.5 -27t6.5 -17q0 -10 -5.5 -17.5t-21.5 -19.5q-9 -7 -24.5 -20.5t-32 -29t-30.5 -29t-19 -20.5q-15 -17 -15 -29q0 -4 1.5 -10t7.5 -19t17.5 -35t31.5 -59q1 -3 1 -12q0 -11 -6 -18t-21 -15t-31.5 -13t-27.5 -5q-9 0 -15 2.5
t-12.5 10.5t-15 23.5t-21.5 41.5q-14 28 -22.5 47t-13.5 32.5t-7 23t-2 18.5t3 18t10.5 20t21 24.5t33.5 32.5q4 4 16.5 14.5t27.5 23t29 23.5t22 17q28 22 41 29t24 7zM222 450q7 0 12 -2.5t13 -10.5q18 -17 24.5 -26.5t6.5 -17.5q0 -10 -5.5 -17.5t-21.5 -19.5
q-9 -7 -24.5 -21t-31.5 -29t-30 -29t-19 -20q-15 -17 -15 -29q0 -4 1.5 -10t7.5 -19t17.5 -35t31.5 -59q1 -3 1 -12q0 -11 -6 -18t-21 -15t-31.5 -13t-27.5 -5q-9 0 -15 2.5t-12.5 10.5t-15 23.5t-21.5 41.5q-14 28 -23 47t-14 32.5t-6.5 23t-1.5 18.5t3 18t10.5 20t21 24.5
t33.5 32.5q4 4 16.5 14.5t27 23t28.5 23.5t22 17q28 22 41 29t24 7z" />
    <glyph glyph-name="logicalnot" unicode="&#xac;" 
d="M310 152h-277v140h433v-292h-156v152z" />
    <glyph glyph-name="sfthyphen" unicode="&#xad;" horiz-adv-x="350" 
d="M109 161q-8 -1 -17.5 -1h-21.5h-17t-13 1q-14 1 -22.5 1.5t-9.5 0.5l-58 -1q-8 0 -15 7.5t-7 15.5q0 5 3 15t7 21t9 21.5t10 16.5q21 30 47 30q10 0 49 -3h17h13t19 1q14 0 35 0.5t45.5 1t50 0.5h48.5q14 0 22.5 -5.5t8.5 -14.5q0 -8 -7 -22t-27 -51q-20 -36 -53 -36
l-89 2z" />
    <glyph glyph-name="registered" unicode="&#xae;" horiz-adv-x="814" 
d="M384 686q71 0 134.5 -28t111 -75.5t75 -111t27.5 -135.5t-28 -136t-76 -111.5t-112.5 -75t-137.5 -27.5q-74 0 -138 27.5t-112 75.5t-75.5 112t-27.5 138q0 72 28 135.5t77 110.5t114 74t140 27zM374 622q-57 0 -107 -23t-88 -62t-60 -91t-22 -110q0 -59 22 -111
t60.5 -91t89.5 -61.5t109 -22.5q59 0 110.5 22.5t89.5 61.5t60 91.5t22 112.5q0 59 -22.5 111t-61 90.5t-90.5 60.5t-112 22zM343 290q-1 -1 -1 -2t-0.5 -1.5t-0.5 -2.5q-1 -6 -5 -19.5t-8.5 -29.5t-9.5 -32t-9 -26q-10 -31 -21 -31q-3 0 -5.5 1t-13.5 9q-6 4 -10 5t-16 3
q-8 2 -12 4.5t-10 12.5q-12 18 -14 22t-2 9t10.5 33t25 64t30 72t26.5 57q5 12 5 16q0 3 -5 15q-7 15 -7 30q0 13 5.5 17.5t28.5 9.5q21 5 50 8t54 3q26 0 49 -8.5t39.5 -23.5t26 -35t9.5 -43q0 -13 -7.5 -29t-20.5 -31t-29 -28.5t-34 -21.5q-13 -6 -15 -7.5t-2 -5.5
q0 -8 2.5 -22.5t7.5 -30.5q4 -14 6.5 -22t5.5 -14t6.5 -11t10.5 -14q5 -7 5 -15q0 -9 -2.5 -12t-15.5 -8q-49 -20 -51 -20q-9 0 -24.5 12.5t-25.5 26.5q-10 15 -14.5 32.5t-6.5 45.5q-2 18 -3 30q0 8 -2 8zM396 412l-3 -5q-7 -11 -7 -14q0 -5 3 -5t6 3q13 8 19 10
q13 6 26 18t13 18q0 10 -13 10q-26 0 -30 -2q-2 -1 -3 -3.5t-7 -19.5z" />
    <glyph glyph-name="macron" unicode="&#xaf;" 
d="M315 587q-45 0 -69 0.5t-32 1.5q-24 3 -24 23q0 10 3 18t14 29q8 16 13 24t7 10q16 14 47 14h16.5t24.5 -1h24h26q23 1 35.5 1h20.5q6 0 18.5 -0.5t26 -1t24.5 -1.5t14 -1q13 -1 13 -18q0 -25 -30 -64q-16 -21 -27 -27.5t-29 -6.5l-59 1h-11t-17 -1h-29z" />
    <glyph glyph-name="degree" unicode="&#xb0;" horiz-adv-x="428" 
d="M284 656h30q23 0 35 -4.5t28 -18.5q38 -35 38 -94q0 -34 -12 -63.5t-32.5 -51.5t-48.5 -34.5t-59 -12.5q-35 0 -65 12t-52.5 33t-35 49.5t-12.5 61.5q0 31 9.5 55t33.5 54q23 29 35.5 39t26.5 10q4 0 13 -3t18.5 -7.5t18 -9.5t12.5 -9q5 -5 6.5 -5.5t6.5 -0.5h6zM248 595
l-13 14q-6 6 -11 6q-4 0 -8.5 -4.5l-18.5 -18.5q-26 -31 -26 -62q0 -18 7.5 -34t19.5 -28t28 -19t34 -7q35 0 58 26t23 65q0 28 -18 43q-12 11 -22 14t-32 2z" />
    <glyph glyph-name="plusminus" unicode="&#xb1;" horiz-adv-x="533" 
d="M135 336h-39q-26 0 -34 4t-8 17q0 10 4.5 23.5t10.5 21.5q6 10 18.5 13t42.5 3h17t36 -1h37h6l5 12q3 10 6.5 18.5t6.5 16.5q14 37 22.5 58t15 30.5t14 11.5t19.5 2q45 0 45 -21q0 -5 -1.5 -10.5t-6.5 -19.5l-20 -50q-6 -14 -9 -22t-5 -12.5t-3.5 -7t-2.5 -6.5h93
q29 0 37.5 -3.5t8.5 -15.5q0 -11 -5 -26t-13 -25q-5 -7 -16.5 -9t-37.5 -2h-13.5t-23.5 1l-42 1h-20q-6 -15 -13.5 -34.5t-16.5 -42.5q-9 -26 -15.5 -40.5t-12.5 -22t-14.5 -9t-21.5 -1.5q-40 0 -40 20q0 5 2 11.5t9 23.5l37 93h-59zM294 130q30 0 38.5 -3.5t8.5 -15.5
q0 -11 -5.5 -26t-13.5 -25q-5 -6 -16 -8.5t-37 -2.5l-49 1q-8 1 -16 1h-14h-32q-15 0 -26 -0.5t-25 -0.5t-33.5 -0.5t-49.5 -0.5h-39q-25 0 -33 4t-8 17q0 10 4.5 23.5t9.5 21.5q7 10 19.5 13t41.5 3h17.5t36.5 -1h37h184z" />
    <glyph glyph-name="twosuperior" unicode="&#xb2;" horiz-adv-x="364" 
d="M176 279q-12 -2 -18.5 -3.5t-12 -2t-11.5 -1.5t-16 -2q-5 -1 -9 -1.5t-7 -0.5q-8 0 -14.5 6.5t-15.5 23.5q-2 4 -4 7.5t-4 6.5q-9 12 -9 15q3 11 5 17t4.5 10.5t6.5 7.5t12 8q14 9 32.5 24t36.5 31.5t34.5 32.5t25.5 28q22 29 35 48.5t13 25.5q0 8 -8 8q-10 0 -43 -16
l-9 -4q-5 -2 -6 -2.5t-6 -2.5q-7 -4 -14 -4t-10 3t-8 12q-5 8 -10.5 17t-8.5 12q-9 13 -9 21q0 18 38 32q19 7 32.5 11.5t25 7t21.5 3.5t22 1q19 0 37 -8.5t31 -23.5t21 -34.5t8 -41.5q0 -26 -12 -50.5t-42 -56.5q-9 -11 -15 -17t-11.5 -11t-12 -10.5t-18.5 -14.5
q-5 -4 -10.5 -9t-12.5 -12q18 4 21.5 4.5t7.5 0.5q9 1 11.5 1t10.5 1q6 2 7.5 2h4.5q6 0 11 -4.5t13 -15.5q0 -1 2.5 -6t4.5 -10.5t4 -10.5l2 -5q0 -3 -2.5 -9t-9.5 -20q-5 -10 -7 -11.5t-9 -3.5q-6 -2 -14.5 -3t-12.5 -1l-35 1z" />
    <glyph glyph-name="threesuperior" unicode="&#xb3;" horiz-adv-x="364" 
d="M248 556l8 5q11 5 11 8q0 2 -3 3.5t-6 1.5t-12 -2.5t-19.5 -5.5t-20.5 -6.5t-15 -5.5q-12 -5 -16 -5q-5 0 -8.5 5t-8.5 19q-2 5 -5 10.5t-5 11.5q-5 10 -5 14q0 5 4 14.5t8 14.5q5 8 15.5 11.5t33.5 8.5q46 10 65 10q30 0 59 -15q6 -3 13.5 -13.5t14.5 -23t12 -25
t5 -19.5q0 -15 -14 -39.5t-34 -42.5q-6 -5 -6 -8q0 -2 2.5 -5t10.5 -14q10 -12 13 -20.5t3 -20.5q0 -53 -61 -102q-32 -27 -64 -39t-70 -12q-21 0 -33 4.5t-33 18.5t-27 21t-6 16q0 16 21 52q7 12 15 16t26 4t22.5 -3t12.5 -22q5 -12 12 -12q9 0 20.5 6.5t22.5 16t18.5 19.5
t7.5 18q0 10 -8 10q-5 0 -15 -6q-5 -3 -9 -3q-7 0 -15 7t-14.5 18t-11 24t-4.5 25q0 22 47 22q7 0 15.5 6t17.5 16z" />
    <glyph glyph-name="acute" unicode="&#xb4;" 
d="M328 589q-21 -11 -33.5 -14.5t-23.5 -3.5q-14 0 -23.5 5.5t-9.5 13.5q0 5 19.5 29t48.5 56q20 22 31.5 34.5t18.5 18t12.5 6.5t13.5 1q6 0 11.5 -1t13 -4.5t19 -10t28.5 -16.5q31 -17 31 -28q0 -6 -3 -11t-14.5 -11.5t-34.5 -17t-63 -28.5z" />
    <glyph glyph-name="mu" unicode="&#xb5;" horiz-adv-x="533" 
d="M-5 119q3 11 5.5 22t4.5 22l7 44q3 16 6.5 30.5t10 34t16.5 47.5t26 71q13 39 27 72q13 35 35 35q12 0 29.5 -9.5t34 -22.5t28 -27.5t11.5 -23.5q0 -4 -7 -20l-10 -22l-5 -12q-5 -12 -9.5 -24.5t-9.5 -25.5q-8 -17 -15 -36.5t-12.5 -36.5t-9 -30.5t-3.5 -18.5
q0 -11 9 -11q2 0 10 5q4 2 9 5t10 5q11 6 13.5 9.5t5.5 17.5q1 9 5 21.5t11.5 33.5t19 52t28.5 76q10 26 17 42.5t13.5 25.5t12.5 12.5t14 3.5q13 -1 20.5 -2t12 -3t7.5 -5.5t8 -10.5q8 -11 13.5 -17.5t10.5 -10t11 -6t15 -4.5q13 -4 13 -20q0 -8 -3.5 -19.5t-12.5 -33.5
q-20 -51 -34.5 -90t-25.5 -76.5t-20.5 -78t-19.5 -94.5q-5 -26 -18 -26l-9.5 2.5t-20.5 5.5t-20 6t-10 3q-17 6 -26.5 9.5t-14 5.5t-6 3t-2.5 2q-2 2 -3.5 5l-9.5 19q-6 11 -9 11q-1 0 -6 -5q-7 -7 -19 -16l-5 -4l-5 -2q-14 -7 -21.5 -11.5t-12 -9.5t-7.5 -12t-7 -19
q-9 -29 -14.5 -48.5t-9 -36.5t-6.5 -34.5t-6 -41.5q-2 -18 -10 -25.5t-25 -7.5q-5 0 -8 0.5t-8.5 3t-15 8t-25.5 15.5q-24 15 -32 24t-8 23q0 11 7.5 42.5t18.5 70.5q3 9 4.5 14.5l3 11t3.5 11.5t5 17z" />
    <glyph glyph-name="paragraph" unicode="&#xb6;" horiz-adv-x="559" 
d="M496 667l16 -1q8 0 14.5 -4.5t18.5 -18.5q9 -11 12 -14.5t14 -11.5q8 -7 10 -9.5t2 -5.5q0 -8 -21 -32q-3 -3 -4 -4.5t-1.5 -2.5l-1.5 -3t-3 -8q-8 -22 -13 -41q-3 -11 -12 -34.5t-23 -55.5q-66 -173 -103.5 -294t-50.5 -206q-12 -58 -68 -58q-11 0 -23 3.5t-21.5 9
t-16 12t-6.5 12.5q0 4 10 21q8 13 11 35q7 17 13.5 34t11.5 36q16 46 33 90q23 62 41 108.5t31 78.5l18 46l9 24q7 25 15 36q17 32 26 55.5t9 32.5q0 12 -21 18q-5 2 -14.5 4t-10.5 2q-5 -1 -13.5 -15.5t-12.5 -28.5q-6 -21 -17 -43q-5 -13 -10 -24.5t-11 -27.5t-14.5 -39
t-21.5 -57q-10 -26 -20 -53l-20 -54l-39 -99l-27 -77q-5 -14 -9 -26t-8 -22q-3 -6 -5.5 -13.5t-4.5 -16.5q-3 -15 -6 -21t-9 -6q-2 0 -3.5 0.5t-7 2t-15.5 5.5t-29 12q-5 2 -9 7.5t-4 11.5q0 10 7.5 36t18.5 58q8 17 14 35.5t12 39.5q2 8 5 17.5t6 19.5q2 6 2.5 8t1 3
t1.5 2.5l3 4.5q5 10 5 14q0 10 -10 10q-2 0 -38 -13q-13 -5 -14 -5q-7 0 -16.5 7t-19.5 18t-19 25.5t-15 28.5q-8 19 -8 41q0 17 3.5 39.5t9.5 46.5t14 48t18 45q62 134 209 189q52 19 77 26t39 7q11 0 18.5 -0.5t17 -2.5t25.5 -6.5t43 -11.5h5z" />
    <glyph glyph-name="glyph121" unicode="&#xb7;" horiz-adv-x="230" 
d="M128 186q-14 -38 -38 -38q-9 0 -20.5 6t-37.5 24q-23 17 -33.5 29t-10.5 24q0 1 0.5 3t1.5 7t3 14.5t6 26.5q2 9 6.5 20t14.5 30q12 25 33 25q4 0 7 -0.5t7 -3t11 -7.5t19 -15l10 -6t10 -8l5 -3l6 -2q24 -11 32.5 -18t8.5 -17t-18 -43q-3 -5 -6 -11l-6 -12z" />
    <glyph glyph-name="cedilla" unicode="&#xb8;" 
d="M188 0q-7 -12 -11 -23t-4 -17t10 -12q24 -16 24 -49t-26 -56.5t-63 -23.5q-31 0 -58 21q-8 6 -14.5 13.5t-6.5 11.5t3 7t17 14l7 7q10 11 15 11q2 0 4.5 -2t16.5 -13q10 -8 20 -8q8 0 14 7t6 16q0 11 -6 16.5t-24 10.5q-13 2 -13 15q0 6 6 18.5t20 35.5h63z" />
    <glyph glyph-name="onesuperior" unicode="&#xb9;" horiz-adv-x="364" 
d="M191 286q-11 -19 -24 -19q-5 0 -7.5 1.5t-11.5 10.5q-8 6 -12.5 8t-13.5 3q-8 1 -15 15.5t-7 30.5q0 5 0.5 8t2 7t5 10t9.5 16q39 61 42 66q13 18 16.5 22.5t8.5 13.5q14 22 14 21q13 11 13 16q0 2 -1.5 3.5t-12.5 7.5q-7 4 -11 29l-3 13q-1 5 -1 11q0 9 7.5 15t24.5 13
l21 7q5 2 11 4t13 4q6 2 12.5 4t13.5 4q14 5 20 9q9 6 14 6q4 0 11 -6t14 -14t11.5 -17t4.5 -15q0 -2 -3 -11t-7.5 -20t-9.5 -22t-9 -17q-35 -62 -57.5 -100t-32.5 -55q-16 -24 -32 -52z" />
    <glyph glyph-name="ordmasculine" unicode="&#xba;" horiz-adv-x="304" 
d="M220 615q20 0 27 -16q4 -8 8.5 -18t5.5 -13q2 -5 7 -5q12 0 30 -8q13 -5 18 -18.5t5 -43.5q0 -35 -15.5 -69.5t-40 -62.5t-56 -45t-62.5 -17q-18 0 -37 9.5t-34 24.5t-24.5 34t-9.5 38q0 16 5.5 35.5t15.5 39.5t22.5 39t27.5 33q14 14 32.5 28t37.5 25q10 5 18 7.5
t19 2.5zM148 396q10 6 22 19t22.5 28.5t18 30t7.5 23.5q0 5 -4 5q-2 0 -2.5 -1t-5.5 -7q-1 -2 -6.5 -8.5t-16.5 -18.5q-8 -10 -19 -32t-16 -39z" />
    <glyph glyph-name="guillemotright" unicode="&#xbb;" horiz-adv-x="492" 
d="M127 446q9 0 15.5 -2t13.5 -10t15 -23.5t22 -42.5q14 -29 22.5 -48t13.5 -32t7 -22.5t2 -18.5q0 -10 -3 -19t-10.5 -20t-21 -24.5t-33.5 -32.5q-4 -4 -16.5 -14.5t-27 -23t-29 -23.5t-21.5 -17q-14 -11 -24 -18t-17 -11t-12.5 -5.5t-11.5 -1.5q-7 0 -12 2.5t-13 10.5
q-18 18 -24.5 27t-6.5 17q0 10 5.5 18t21.5 19q9 7 24.5 21t32 29.5t30 29t18.5 19.5q15 18 15 29q0 4 -1.5 10t-7.5 18.5t-17.5 35t-31.5 60.5q-1 3 -1 12q0 11 6 18t21 15q14 8 30.5 13t26.5 5zM337 446q9 0 15 -2.5t12.5 -10.5t15 -23.5t21.5 -41.5q14 -29 22.5 -48
t13.5 -32t7 -22t2 -18q0 -10 -3 -19.5t-10.5 -20.5t-21 -24.5t-33.5 -32.5q-4 -4 -16.5 -14.5t-27 -22.5t-29 -23.5t-21.5 -17.5q-29 -23 -42 -29.5t-24 -6.5q-7 0 -12 2.5t-13 10.5q-19 19 -25 27.5t-6 16.5q0 10 5.5 18t21.5 19q9 7 24.5 21t32 29.5t30.5 29t19 19.5
q15 18 15 29q0 4 -2 10.5t-8 19t-17.5 35t-30.5 59.5q-1 3 -1 12q0 12 8 20.5t27 16.5q33 14 51 14z" />
    <glyph glyph-name="onequarter" unicode="&#xbc;" horiz-adv-x="871" 
d="M191 286q-11 -19 -24 -19q-5 0 -7.5 1.5t-11.5 10.5q-8 6 -12.5 8t-13.5 3q-8 1 -15 15.5t-7 30.5q0 5 0.5 8t2 7t5 10t9.5 16q39 61 42 66q13 18 16.5 22.5t8.5 13.5q14 22 14 21q13 11 13 16q0 2 -1.5 3.5t-12.5 7.5q-7 4 -11 29l-3 13q-1 5 -1 11q0 9 7.5 15t24.5 13
l21 7q5 2 11 4t13 4q6 2 12.5 4t13.5 4q14 5 20 9q9 6 14 6q4 0 11 -6t14 -14t11.5 -17t4.5 -15q0 -2 -3 -11t-7.5 -20t-9.5 -22t-9 -17q-35 -62 -57.5 -100t-32.5 -55q-16 -24 -32 -52zM190 -8l-15 5l-54 7q-11 2 -11 9q0 2 7 11l14 17l7 9q10 14 19 26t22 29.5t32.5 43
t51.5 65.5l66 84t62 79t51.5 67.5t36.5 48.5q20 27 35.5 47.5t29.5 38.5t28.5 36t32.5 40q15 18 22.5 22.5t23.5 4.5q8 0 15 -2t18 -7l8 -4t10 -4q13 -7 13 -13q0 -4 -7 -11q-5 -6 -9 -11l-8 -10t-4 -5.5t-4 -5.5q-4 -6 -5.5 -8t-2.5 -3.5t-2.5 -3.5t-5.5 -8
q-9 -11 -18 -21.5t-18 -22.5q-18 -23 -36 -44.5t-36 -43.5q-15 -20 -29.5 -39t-28.5 -39q-8 -10 -11 -14t-5 -6.5t-4.5 -6t-9.5 -12.5q-53 -72 -111 -144q-32 -41 -50.5 -64t-30.5 -38.5t-21 -27.5t-22 -31q-18 -25 -26 -33t-14 -8zM547 33q-14 8 -14 19q0 6 1.5 9t9.5 15
q4 6 15 24q1 2 2 3.5t2 3.5t2 3q0 5 -6.5 6.5t-36.5 3.5q-14 1 -20.5 8.5t-14.5 29.5q-6 19 -8.5 30.5t-2.5 23.5q0 7 1 11.5t4.5 10t11.5 13t22 19.5q22 20 34.5 31.5t20 17.5t11.5 9.5t9 6.5q57 37 87.5 53.5t43.5 16.5q7 0 14.5 -6t14 -15.5t10.5 -20.5t4 -21
q0 -5 -0.5 -7.5t-3 -5.5t-7.5 -6.5l-15 -10.5q9 -11 21 -21q13 -11 16.5 -16.5t3.5 -12.5t-6.5 -17t-29.5 -40l8 -2h3q4 1 8 1q8 0 13 -7t5 -17q0 -8 -1.5 -12.5t-9.5 -15.5q-1 -2 -2 -4.5t-2 -5.5q-2 -8 -8.5 -14t-12.5 -7q-9 -1 -14 -1.5t-9.5 -1l-9 -1t-12.5 -1.5
q-2 0 -3 0.5t-2 0.5t-2 1q-6 0 -20 -27q-8 -17 -15.5 -32t-15.5 -29q-3 -7 -5.5 -10.5t-4.5 -5.5t-5 -3.5t-9 -2.5q-14 -3 -20 -3q-9 0 -22 5q-8 5 -10.5 7t-8.5 13zM651 238q5 5 10.5 13t18.5 26q-14 -6 -21.5 -11.5t-20.5 -18.5q-5 -5 -11 -9.5t-14 -9.5q-6 -5 -10 -8
t-4 -5q0 -3 6.5 -6.5t12.5 -3.5q5 0 7.5 2t6.5 10z" />
    <glyph glyph-name="onehalf" unicode="&#xbd;" horiz-adv-x="871" 
d="M191 286q-11 -19 -24 -19q-5 0 -7.5 1.5t-11.5 10.5q-8 6 -12.5 8t-13.5 3q-8 1 -15 15.5t-7 30.5q0 5 0.5 8t2 7t5 10t9.5 16q39 61 42 66q13 18 16.5 22.5t8.5 13.5q14 22 14 21q13 11 13 16q0 2 -1.5 3.5t-12.5 7.5q-7 4 -11 29l-3 13q-1 5 -1 11q0 9 7.5 15t24.5 13
l21 7q5 2 11 4t13 4q6 2 12.5 4t13.5 4q14 5 20 9q9 6 14 6q4 0 11 -6t14 -14t11.5 -17t4.5 -15q0 -2 -3 -11t-7.5 -20t-9.5 -22t-9 -17q-35 -62 -57.5 -100t-32.5 -55q-16 -24 -32 -52zM190 -8l-15 5l-54 7q-11 2 -11 9q0 2 7 11l14 17l7 9q10 14 19 26t22 29.5t32.5 43
t51.5 65.5l66 84t62 79t51.5 67.5t36.5 48.5q20 27 35.5 47.5t29.5 38.5t28.5 36t32.5 40q15 18 22.5 22.5t23.5 4.5q8 0 15 -2t18 -7l8 -4t10 -4q13 -7 13 -13q0 -4 -7 -11q-5 -6 -9 -11l-8 -10t-4 -5.5t-4 -5.5q-4 -6 -5.5 -8t-2.5 -3.5t-2.5 -3.5t-5.5 -8
q-9 -11 -18 -21.5t-18 -22.5q-18 -23 -36 -44.5t-36 -43.5q-15 -20 -29.5 -39t-28.5 -39q-8 -10 -11 -14t-5 -6.5t-4.5 -6t-9.5 -12.5q-53 -72 -111 -144q-32 -41 -50.5 -64t-30.5 -38.5t-21 -27.5t-22 -31q-18 -25 -26 -33t-14 -8zM573 12q-12 -2 -18.5 -3.5t-12 -2
t-11.5 -1.5t-16 -2q-5 -1 -9 -1.5t-7 -0.5q-8 0 -14.5 6.5t-15.5 23.5q-3 9 -8 14q-9 12 -9 15q3 11 5 17t4.5 10.5t6.5 7.5t12 8q14 9 32.5 24t36.5 31.5t34.5 32.5t25.5 28q22 29 35 48.5t13 25.5q0 8 -8 8q-10 0 -43 -16q-4 -2 -6 -2.5t-4 -1.5q-4 -1 -12 -5
q-5 -4 -14 -4q-7 0 -10 3t-7 12q-5 8 -11 17t-9 12q-9 13 -9 21q0 18 38 32q19 7 32.5 11.5t25 7t22 3.5t22.5 1q19 0 37 -8.5t31 -23.5t21 -34.5t8 -41.5q0 -26 -12 -50.5t-42 -56.5q-9 -11 -15 -17t-11.5 -11t-12 -10.5t-18.5 -14.5q-5 -4 -10.5 -9t-12.5 -12
q18 4 21.5 4.5t7.5 0.5q9 1 11.5 1t10.5 1q6 2 7.5 2h4.5q6 0 11 -4.5t13 -15.5q0 -1 2.5 -6t4.5 -10.5t4 -10.5l2 -5q0 -3 -2.5 -9t-9.5 -20q-5 -10 -7 -11.5t-9 -3.5q-6 -2 -14.5 -3t-12.5 -1l-35 1z" />
    <glyph glyph-name="threequarters" unicode="&#xbe;" horiz-adv-x="871" 
d="M248 556l8 5q11 5 11 8q0 2 -3 3.5t-6 1.5t-12 -2.5t-19.5 -5.5t-20.5 -6.5t-15 -5.5q-12 -5 -16 -5q-5 0 -8.5 5t-8.5 19q-2 5 -5 10.5t-5 11.5q-5 10 -5 14q0 5 4 14.5t8 14.5q5 8 15.5 11.5t33.5 8.5q46 10 65 10q30 0 59 -15q6 -3 13.5 -13.5t14.5 -23t12 -25
t5 -19.5q0 -15 -14 -39.5t-34 -42.5q-6 -5 -6 -8q0 -2 2.5 -5t10.5 -14q10 -12 13 -20.5t3 -20.5q0 -53 -61 -102q-32 -27 -64 -39t-70 -12q-21 0 -33 4.5t-33 18.5t-27 21t-6 16q0 16 21 52q7 12 15 16t26 4t22.5 -3t12.5 -22q5 -12 12 -12q9 0 20.5 6.5t22.5 16t18.5 19.5
t7.5 18q0 10 -8 10q-5 0 -15 -6q-5 -3 -9 -3q-7 0 -15 7t-14.5 18t-11 24t-4.5 25q0 22 47 22q7 0 15.5 6t17.5 16zM203 -8l-15 5l-54 7q-11 2 -11 9q0 2 7 11q13 13 21 26q10 14 19 26t22 29.5t32.5 43t51.5 65.5l66 84t62 79t51.5 67.5t36.5 48.5q20 27 35.5 47.5
t29.5 38.5t28.5 36t32.5 40q15 18 22.5 22.5t23.5 4.5q8 0 15 -2t18 -7l8 -4t10 -4q13 -7 13 -13q0 -4 -7 -11q-5 -6 -9 -11l-8 -10t-4 -5.5t-4 -5.5q-4 -6 -5.5 -8t-2.5 -3.5t-2.5 -3.5t-5.5 -8q-9 -11 -18 -21.5t-18 -22.5q-18 -23 -36 -44.5t-36 -43.5q-15 -20 -29.5 -39
t-28.5 -39q-8 -10 -11 -14t-5 -6.5t-4.5 -6t-9.5 -12.5q-53 -72 -111 -144q-32 -41 -50.5 -64t-30.5 -38.5t-21 -27.5t-22 -31q-18 -25 -26 -33t-14 -8zM751 199h3q4 1 8 1q8 0 13 -7t5 -17q0 -8 -1.5 -12.5t-9.5 -15.5q-1 -2 -2 -4.5t-2 -5.5q-2 -8 -8.5 -14t-12.5 -7
q-9 -1 -14 -1.5t-9.5 -1l-9 -1t-12.5 -1.5q-2 0 -3 0.5t-2 0.5t-2 1q-6 0 -20 -27q-6 -13 -9.5 -20l-6.5 -13l-6 -12t-9 -16q-3 -7 -5.5 -10.5t-4.5 -5.5t-5 -3.5t-9 -2.5q-14 -3 -20 -3q-9 0 -22 5q-8 5 -10.5 7t-8.5 13q-1 1 -9 7q-14 8 -14 19q0 6 1.5 9t9.5 15l4.5 7.5
t9.5 16.5q1 2 2 3.5t2 3.5t2 3q0 5 -6.5 6.5t-36.5 3.5q-14 1 -20.5 8.5t-13.5 29.5q-6 19 -8.5 30.5t-2.5 23.5q0 7 1 11.5t4.5 10t11.5 13t22 19.5q22 20 34.5 31.5t20 17.5t11.5 9.5t9 6.5q57 37 87.5 53.5t43.5 16.5q7 0 14.5 -6t14 -15.5t10.5 -20.5t4 -21
q0 -5 -0.5 -7.5t-3 -5.5t-7.5 -6.5l-15 -10.5q9 -11 21 -21q13 -11 16.5 -16.5t3.5 -12.5t-6.5 -17t-29.5 -40zM679 277q-14 -6 -21 -11.5t-20 -18.5l-8.5 -8.5t-7.5 -5.5q-5 -3 -4.5 -3t-4.5 -2q-6 -5 -10 -8t-4 -5q0 -3 6.5 -6.5t12.5 -3.5q5 0 7 2t7 10q5 5 9.5 10.5
t9.5 10.5t10.5 13t17.5 26z" />
    <glyph glyph-name="questiondown" unicode="&#xbf;" horiz-adv-x="386" 
d="M95 381q-15 3 -25.5 14.5t-10.5 24.5q0 20 14.5 37.5t46.5 37.5q21 14 35.5 19.5t25.5 5.5q6 0 16 -3.5t20 -9.5t20 -13.5t16 -14.5q21 -24 21 -51q0 -14 -5.5 -30.5t-18.5 -39t-34 -53t-52 -71.5q-16 -21 -26.5 -36t-18 -26.5t-12.5 -21.5l-11 -22q46 17 72 25t37 8
t22.5 -9t21.5 -23.5t16 -32t6 -33.5q0 -33 -52 -54q-12 -5 -28 -9.5t-33.5 -8t-35 -5.5t-31.5 -2q-30 0 -57 12.5t-47.5 34.5t-32.5 50t-12 60q0 58 52 128q4 5 6.5 8t7 8t12 13t21.5 23q51 55 54 60zM200 577q-20 14 -26 22t-6 20q0 8 5 28t12 37q8 22 17 29t27 7
q29 0 67 -34q10 -9 18 -31.5t8 -40.5q0 -6 -0.5 -9.5t-2 -9.5t-6 -15.5t-11.5 -27.5q-8 -20 -12 -25.5t-12 -5.5q-7 0 -13.5 4.5t-24.5 19.5z" />
    <glyph glyph-name="Agrave" unicode="&#xc0;" horiz-adv-x="486" 
d="M-49 79l-6 8l-6 7q-5 7 -5 17q0 4 2.5 12t6.5 17.5t9 19t10 17.5q9 15 11 19t2 10v4.5t-1 5.5q-2 11 -2.5 14t-1.5 13v7t-2 13q0 18 31 29q10 4 15.5 7t10 8.5t9 14.5t10.5 26q0 3 2 5l6 4l7 4l6 10q5 7 9 15t7 18q4 9 8 17t9 15q3 4 3.5 5.5t1.5 2.5t2 2.5t4 4.5
q6 9 13 16l9 18q4 7 17 24t31.5 39.5t40 47.5t42.5 48q10 11 16.5 17.5t11 10t9 4.5t10.5 1t9 -1.5t16 -11.5q5 -4 10 -7.5t13 -6.5q29 -16 46 -30t17 -23q0 -5 -4.5 -14t-11.5 -17q-5 -5 -5 -9q0 -5 9 -9q2 -2 6 -5.5t8.5 -7t8 -7.5t4.5 -5q2 -2 6 -13t4 -13q0 -1 -2 -9
q-1 -5 -1.5 -9t-1.5 -13q0 -14 -5.5 -45.5t-14.5 -74t-21 -93.5t-25 -105q-14 -45 -23.5 -78t-15.5 -56q-5 -14 -15 -23.5t-21 -10.5l-7 -1l-6 -2q-6 -2 -7 -2q-12 0 -35 14q-3 2 -6 5t-20 21q-8 7 -24 13q-21 8 -21 29q0 8 2 14t11 23l4 8t6 12.5t5.5 12l2.5 5.5
q1 8 1.5 9.5t2.5 6.5q2 4 3.5 9.5t1.5 9.5q0 10 -30 10q-6 0 -9 -1t-7 -3t-7 -3t-11 -2q-7 -2 -11 -3t-6.5 -3.5t-5 -8t-6.5 -14.5q-8 -18 -15 -35t-13 -32q-8 -21 -14 -34t-11 -20t-10.5 -9.5t-12.5 -2.5q-6 0 -43 12q-8 2 -13 5t-9.5 8.5t-9.5 14t-12 22.5zM293 436l1 6
q1 1 1 5q0 11 -8 11q-7 0 -21.5 -18t-31.5 -46q-5 -8 -11.5 -20.5t-12 -24t-9.5 -20.5t-4 -11q0 -10 14 -10q6 1 13.5 1h16.5q11 1 15.5 6t11.5 27q6 20 9.5 32t6 20t4 16t4.5 21zM441 924q18 0 27 -41q2 -14 4.5 -26t6.5 -21q9 -32 14 -59.5t5 -42.5q0 -6 -7.5 -12
t-14.5 -6t-16 7t-32 29q-8 8 -20.5 20t-29.5 28q-20 20 -35 38t-15 24q0 7 4 10t24 11q3 1 11 5t17 8t16.5 8t9.5 5q19 11 22.5 13t8.5 2z" />
    <glyph glyph-name="Aacute" unicode="&#xc1;" horiz-adv-x="486" 
d="M-49 79l-6 8l-6 7q-5 7 -5 17q0 4 2.5 12t6.5 17.5t9 19t10 17.5q9 15 11 19t2 10v4.5t-1 5.5q-2 11 -2.5 14t-1.5 13v7t-2 13q0 18 31 29q10 4 15.5 7t10 8.5t9 14.5t10.5 26q0 3 2 5l6 4l7 4l6 10q5 7 9 15t7 18q4 9 8 17t9 15q3 4 3.5 5.5t1.5 2.5t2 2.5t4 4.5
q6 9 13 16l9 18q4 7 17 24t31.5 39.5t40 47.5t42.5 48q10 11 16.5 17.5t11 10t9 4.5t10.5 1t9 -1.5t16 -11.5q5 -4 10 -7.5t13 -6.5q29 -16 46 -30t17 -23q0 -5 -4.5 -14t-11.5 -17q-5 -5 -5 -9q0 -5 9 -9q2 -2 6 -5.5t8.5 -7t8 -7.5t4.5 -5q2 -2 6 -13t4 -13q0 -1 -2 -9
q-1 -5 -1.5 -9t-1.5 -13q0 -14 -5.5 -45.5t-14.5 -74t-21 -93.5t-25 -105q-14 -45 -23.5 -78t-15.5 -56q-5 -14 -15 -23.5t-21 -10.5l-7 -1l-6 -2q-6 -2 -7 -2q-12 0 -35 14q-3 2 -6 5t-20 21q-8 7 -24 13q-21 8 -21 29q0 8 2 14t11 23l4 8t6 12.5t5.5 12l2.5 5.5
q1 8 1.5 9.5t2.5 6.5q2 4 3.5 9.5t1.5 9.5q0 10 -30 10q-6 0 -9 -1t-7 -3t-7 -3t-11 -2q-7 -2 -11 -3t-6.5 -3.5t-5 -8t-6.5 -14.5q-8 -18 -15 -35t-13 -32q-8 -21 -14 -34t-11 -20t-10.5 -9.5t-12.5 -2.5q-6 0 -43 12q-8 2 -13 5t-9.5 8.5t-9.5 14t-12 22.5zM293 436l1 6
q1 1 1 5q0 11 -8 11q-7 0 -21.5 -18t-31.5 -46q-5 -8 -11.5 -20.5t-12 -24t-9.5 -20.5t-4 -11q0 -10 14 -10q6 1 13.5 1h16.5q11 1 15.5 6t11.5 27q6 20 9.5 32t6 20t4 16t4.5 21zM407 924q5 -3 13 -7q6 -3 15.5 -8t22.5 -11q9 -5 14.5 -7.5t9 -4l7 -3t9.5 -3.5
q12 -5 16.5 -9t4.5 -9q0 -8 -16.5 -27t-54.5 -55q-5 -5 -12.5 -12t-16.5 -16q-23 -22 -32 -29t-16 -7q-8 0 -15 6.5t-7 13.5q0 14 5.5 42.5t13.5 57.5q7 22 11 47q8 41 28 41z" />
    <glyph glyph-name="Acircumflex" unicode="&#xc2;" horiz-adv-x="486" 
d="M-49 79l-6 8l-6 7q-5 7 -5 17q0 4 2.5 12t6.5 17.5t9 19t10 17.5q9 15 11 19t2 10v4.5t-1 5.5q-2 11 -2.5 14t-1.5 13v7t-2 13q0 18 31 29q10 4 15.5 7t10 8.5t9 14.5t10.5 26q0 3 2 5l6 4l7 4l6 10q5 7 9 15t7 18q4 9 8 17t9 15q3 4 3.5 5.5t1.5 2.5t2 2.5t4 4.5
q6 9 13 16l9 18q4 7 17 24t31.5 39.5t40 47.5t42.5 48q10 11 16.5 17.5t11 10t9 4.5t10.5 1t9 -1.5t16 -11.5q5 -4 10 -7.5t13 -6.5q29 -16 46 -30t17 -23q0 -5 -4.5 -14t-11.5 -17q-5 -5 -5 -9q0 -5 9 -9q2 -2 6 -5.5t8.5 -7t8 -7.5t4.5 -5q2 -2 6 -13t4 -13q0 -1 -2 -9
q-1 -5 -1.5 -9t-1.5 -13q0 -14 -5.5 -45.5t-14.5 -74t-21 -93.5t-25 -105q-14 -45 -23.5 -78t-15.5 -56q-5 -14 -15 -23.5t-21 -10.5l-7 -1l-6 -2q-6 -2 -7 -2q-12 0 -35 14q-3 2 -6 5t-20 21q-8 7 -24 13q-21 8 -21 29q0 8 2 14t11 23l4 8t6 12.5t5.5 12l2.5 5.5
q1 8 1.5 9.5t2.5 6.5q2 4 3.5 9.5t1.5 9.5q0 10 -30 10q-6 0 -9 -1t-7 -3t-7 -3t-11 -2q-7 -2 -11 -3t-6.5 -3.5t-5 -8t-6.5 -14.5q-8 -18 -15 -35t-13 -32q-8 -21 -14 -34t-11 -20t-10.5 -9.5t-12.5 -2.5q-6 0 -43 12q-8 2 -13 5t-9.5 8.5t-9.5 14t-12 22.5zM293 436l1 6
q1 1 1 5q0 11 -8 11q-7 0 -21.5 -18t-31.5 -46q-5 -8 -11.5 -20.5t-12 -24t-9.5 -20.5t-4 -11q0 -10 14 -10q6 1 13.5 1h16.5q11 1 15.5 6t11.5 27q6 20 9.5 32t6 20t4 16t4.5 21zM482 734q-17 -6 -24 -6q-11 0 -21.5 7t-32.5 28q-5 5 -11.5 9.5t-19.5 12.5
q-32 -35 -51 -48.5t-35 -13.5q-8 0 -24 3.5t-24 6.5q-14 6 -14 16q0 4 2 8.5t8 10.5t17 15t29 23q9 7 22.5 19t46.5 42q13 12 22.5 15.5t29.5 3.5q14 0 25.5 -4t24.5 -15q12 -9 18.5 -14t11 -8t7.5 -5.5t8 -6.5q32 -23 49 -39t17 -23q0 -4 -4 -9.5t-8 -7.5l-1.5 -0.5
t-6.5 -2t-16.5 -5t-32.5 -9.5z" />
    <glyph glyph-name="Atilde" unicode="&#xc3;" horiz-adv-x="486" 
d="M-49 79l-6 8l-6 7q-5 7 -5 17q0 4 2.5 12t6.5 17.5t9 19t10 17.5q9 15 11 19t2 10v4.5t-1 5.5q-2 11 -2.5 14t-1.5 13v7t-2 13q0 18 31 29q10 4 15.5 7t10 8.5t9 14.5t10.5 26q0 3 2 5l6 4l7 4l6 10q5 7 9 15t7 18q4 9 8 17t9 15q3 4 3.5 5.5t1.5 2.5t2 2.5t4 4.5
q6 9 13 16l9 18q4 7 17 24t31.5 39.5t40 47.5t42.5 48q10 11 16.5 17.5t11 10t9 4.5t10.5 1t9 -1.5t16 -11.5q5 -4 10 -7.5t13 -6.5q29 -16 46 -30t17 -23q0 -5 -4.5 -14t-11.5 -17q-5 -5 -5 -9q0 -5 9 -9q2 -2 6 -5.5t8.5 -7t8 -7.5t4.5 -5q2 -2 6 -13t4 -13q0 -1 -2 -9
q-1 -5 -1.5 -9t-1.5 -13q0 -14 -5.5 -45.5t-14.5 -74t-21 -93.5t-25 -105q-14 -45 -23.5 -78t-15.5 -56q-5 -14 -15 -23.5t-21 -10.5l-7 -1l-6 -2q-6 -2 -7 -2q-12 0 -35 14q-3 2 -6 5t-20 21q-8 7 -24 13q-21 8 -21 29q0 8 2 14t11 23l4 8t6 12.5t5.5 12l2.5 5.5
q1 8 1.5 9.5t2.5 6.5q2 4 3.5 9.5t1.5 9.5q0 10 -30 10q-6 0 -9 -1t-7 -3t-7 -3t-11 -2q-7 -2 -11 -3t-6.5 -3.5t-5 -8t-6.5 -14.5q-8 -18 -15 -35t-13 -32q-8 -21 -14 -34t-11 -20t-10.5 -9.5t-12.5 -2.5q-6 0 -43 12q-8 2 -13 5t-9.5 8.5t-9.5 14t-12 22.5zM293 436l1 6
q1 1 1 5q0 11 -8 11q-7 0 -21.5 -18t-31.5 -46q-5 -8 -11.5 -20.5t-12 -24t-9.5 -20.5t-4 -11q0 -10 14 -10q6 1 13.5 1h16.5q11 1 15.5 6t11.5 27q6 20 9.5 32t6 20t4 16t4.5 21zM382 875q42 0 93 -34q4 -3 6 -3q5 0 11 8q13 14 26 23t23 9q5 0 9.5 -2t14.5 -9
q24 -18 29.5 -24t5.5 -14q0 -7 -9.5 -18.5t-33.5 -33.5q-44 -43 -110 -43q-12 0 -20.5 1t-18.5 4.5t-23.5 11.5t-35.5 22q-5 3 -9 3t-10 -8q-13 -20 -24 -29t-22 -9q-5 0 -14 5.5t-30 21.5q-12 10 -12 22q0 8 9.5 22.5t25.5 29.5q22 21 53 32.5t66 11.5z" />
    <glyph glyph-name="Adieresis" unicode="&#xc4;" horiz-adv-x="486" 
d="M-49 79l-6 8l-6 7q-5 7 -5 17q0 4 2.5 12t6.5 17.5t9 19t10 17.5q9 15 11 19t2 10v4.5t-1 5.5q-2 11 -2.5 14t-1.5 13v7t-2 13q0 18 31 29q10 4 15.5 7t10 8.5t9 14.5t10.5 26q0 3 2 5l6 4l7 4l6 10q5 7 9 15t7 18q4 9 8 17t9 15q3 4 3.5 5.5t1.5 2.5t2 2.5t4 4.5
q6 9 13 16l9 18q4 7 17 24t31.5 39.5t40 47.5t42.5 48q10 11 16.5 17.5t11 10t9 4.5t10.5 1t9 -1.5t16 -11.5q5 -4 10 -7.5t13 -6.5q29 -16 46 -30t17 -23q0 -5 -4.5 -14t-11.5 -17q-5 -5 -5 -9q0 -5 9 -9q2 -2 6 -5.5t8.5 -7t8 -7.5t4.5 -5q2 -2 6 -13t4 -13q0 -1 -2 -9
q-1 -5 -1.5 -9t-1.5 -13q0 -14 -5.5 -45.5t-14.5 -74t-21 -93.5t-25 -105q-14 -45 -23.5 -78t-15.5 -56q-5 -14 -15 -23.5t-21 -10.5l-7 -1l-6 -2q-6 -2 -7 -2q-12 0 -35 14q-3 2 -6 5t-20 21q-8 7 -24 13q-21 8 -21 29q0 8 2 14t11 23l4 8t6 12.5t5.5 12l2.5 5.5
q1 8 1.5 9.5t2.5 6.5q2 4 3.5 9.5t1.5 9.5q0 10 -30 10q-6 0 -9 -1t-7 -3t-7 -3t-11 -2q-7 -2 -11 -3t-6.5 -3.5t-5 -8t-6.5 -14.5q-8 -18 -15 -35t-13 -32q-8 -21 -14 -34t-11 -20t-10.5 -9.5t-12.5 -2.5q-6 0 -43 12q-8 2 -13 5t-9.5 8.5t-9.5 14t-12 22.5zM293 436l1 6
q1 1 1 5q0 11 -8 11q-7 0 -21.5 -18t-31.5 -46q-5 -8 -11.5 -20.5t-12 -24t-9.5 -20.5t-4 -11q0 -10 14 -10q6 1 13.5 1h16.5q11 1 15.5 6t11.5 27q6 20 9.5 32t6 20t4 16t4.5 21zM548 878q48 0 48 -42q0 -5 -1 -14.5t-2.5 -20t-2.5 -19.5t-2 -11q-2 -4 -4 -7t-7 -6
t-14 -6.5t-25 -8.5q-17 -6 -27 -9.5t-16 -5t-10 -2t-8 -0.5q-24 0 -24 39q0 18 6 45q3 14 9.5 24.5t20.5 24.5q19 19 59 19zM401 797q0 -19 -10.5 -29t-37.5 -18q-17 -4 -27 -11q-15 -7 -21 -9t-12 -2q-29 0 -29 44q0 39 7.5 59t24.5 29t37 14.5t36 5.5q12 0 23 -10t11 -21
q-1 -2 -1 -4q-1 -2 -1 -4.5t-1 -5.5t-1 -10t1 -11z" />
    <glyph glyph-name="Aring" unicode="&#xc5;" horiz-adv-x="486" 
d="M-49 79l-6 8l-6 7q-5 7 -5 17q0 4 2.5 12t6.5 17.5t9 19t10 17.5q9 15 11 19t2 10v4.5t-1 5.5q-2 11 -2.5 14t-1.5 13v7t-2 13q0 18 31 29q10 4 15.5 7t10 8.5t9 14.5t10.5 26q0 3 2 5l6 4l7 4l6 10q5 7 9 15t7 18q4 9 8 17t9 15q3 4 3.5 5.5t1.5 2.5t2 2.5t4 4.5
q6 9 13 16l9 18q4 7 17 24t31.5 39.5t40 47.5t42.5 48q10 11 16.5 17.5t11 10t9 4.5t10.5 1t9 -1.5t16 -11.5q5 -4 10 -7.5t13 -6.5q29 -16 46 -30t17 -23q0 -5 -4.5 -14t-11.5 -17q-5 -5 -5 -9q0 -5 9 -9q2 -2 6 -5.5t8.5 -7t8 -7.5t4.5 -5q2 -2 6 -13t4 -13q0 -1 -2 -9
q-1 -5 -1.5 -9t-1.5 -13q0 -14 -5.5 -45.5t-14.5 -74t-21 -93.5t-25 -105q-14 -45 -23.5 -78t-15.5 -56q-5 -14 -15 -23.5t-21 -10.5l-7 -1l-6 -2q-6 -2 -7 -2q-12 0 -35 14q-3 2 -6 5t-20 21q-8 7 -24 13q-21 8 -21 29q0 8 2 14t11 23l4 8t6 12.5t5.5 12l2.5 5.5
q1 8 1.5 9.5t2.5 6.5q2 4 3.5 9.5t1.5 9.5q0 10 -30 10q-6 0 -9 -1t-7 -3t-7 -3t-11 -2q-7 -2 -11 -3t-6.5 -3.5t-5 -8t-6.5 -14.5q-8 -18 -15 -35t-13 -32q-8 -21 -14 -34t-11 -20t-10.5 -9.5t-12.5 -2.5q-6 0 -43 12q-8 2 -13 5t-9.5 8.5t-9.5 14t-12 22.5zM293 436l1 6
q1 1 1 5q0 11 -8 11q-7 0 -21.5 -18t-31.5 -46q-5 -8 -11.5 -20.5t-12 -24t-9.5 -20.5t-4 -11q0 -10 14 -10q6 1 13.5 1h16.5q11 1 15.5 6t11.5 27q6 20 9.5 32t6 20t4 16t4.5 21zM397 943q4 0 13 -1t18 -3t17 -4t11 -3q11 -5 19 -15.5t19 -34.5q6 -11 9 -18.5t5 -14
t2.5 -12.5t0.5 -15q0 -17 -10 -36.5t-25.5 -36.5t-33.5 -28t-33 -11q-71 0 -94 26q-5 5 -10.5 15.5t-10 22t-8 22t-3.5 16.5q0 29 35 85q28 46 79 46zM399 858q-14 0 -22 -10.5t-8 -27.5q0 -13 10.5 -22.5t24.5 -9.5q8 0 16.5 12t8.5 23q0 3 -2 9.5t-4 11.5q-6 14 -24 14z
" />
    <glyph glyph-name="AE" unicode="&#xc6;" horiz-adv-x="705" 
d="M742 564q4 -12 4 -21q0 -11 -10 -25t-18 -14q-5 0 -21 9h-2t-8 1t-17.5 3t-32.5 5q-1 0 -11 -1.5t-30 -3.5q-9 -1 -13 -4.5t-13 -20.5q-3 -7 -5 -11t-4 -7t-4.5 -6t-6.5 -8q-4 -6 -5 -8t-6 -9q-8 -14 -9.5 -16.5t-3.5 -5.5q-2 -2 -2 -3t-1 -2t-1 -2q0 -5 5 -8.5t12 -2.5
l32 2q23 -3 35.5 -5t19 -4.5t8.5 -7t5 -12.5q1 -3 1.5 -6t1.5 -8.5t1.5 -16.5t1.5 -30l-3.5 -7t-16.5 -26q-4 -5 -14.5 -10.5t-15.5 -4.5l-33 3l-18 -1l-35 1q-17 -1 -26.5 -1.5t-14.5 -0.5t-7 -0.5t-4 -0.5q-5 -1 -7.5 -3.5t-6.5 -13.5l-7.5 -15t-7.5 -14q-4 -8 -8.5 -19
t-9 -22.5t-7.5 -20t-3 -11.5q0 -2 1 -5t2 -3l31 6q1 -1 3 -1q2 -1 4 -1t4 -1q3 -2 13 -2q29 0 47 1t26 3q13 3 20 3q10 0 18.5 -12.5t8.5 -26.5q0 -5 -3.5 -13.5t-8.5 -16.5q-7 -10 -7 -14l2 -22q-11 -8 -13 -10t-4 -7q-2 -2 -3.5 -5l-3.5 -7q0 -4 -29 -8t-96 -9
q-21 -2 -35 -3t-21 -3q-23 -3 -38 -3q-9 0 -15.5 1t-12 4t-12.5 9.5t-17 17.5q-8 9 -26 26q-20 20 -27 31.5t-7 26.5t4 32t9 25t5 9q0 6 -8.5 10t-22.5 4q-6 0 -14 -1t-16.5 -3t-15 -4t-8.5 -3q-3 -2 -4.5 -3.5t-3.5 -5.5t-5 -11t-9 -20q-2 -5 -3.5 -8t-4 -9t-8 -16
t-14.5 -29q-14 -31 -23 -41.5t-23 -10.5q-2 0 -9 1.5t-14.5 4t-14.5 4.5t-10 4q-9 5 -13.5 11t-14.5 23l-10.5 21t-9.5 16q-7 10 -8.5 14.5t-1.5 9.5t1 9.5t5 12t11.5 19.5t20.5 32q10 14 10 27q0 1 -0.5 4.5t-1.5 9.5q-1 3 -1 7q0 18 0.5 28.5t4 15.5t10.5 8t20 6
q14 4 25 19q7 10 13.5 20t13.5 21q57 85 111 153t99 108q30 27 50 37t44 10q9 0 13 -2t18 -15q10 -7 15 -7t18 5q6 2 21 5t32 5.5t33.5 4.5t26.5 2q58 0 89.5 -3.5t55.5 -11.5q11 -3 17.5 -7t11.5 -11t9 -19t9 -33zM333 487q-6 0 -19.5 -12t-29 -30t-31 -39.5t-26.5 -41.5
q-2 -5 -5 -10t-5 -10l-4 -6l-3 -3q-6 -9 -6 -13q0 -6 14.5 -10.5t37.5 -4.5q12 0 21.5 10t23.5 36q8 15 16.5 33t15 35t11 30t4.5 18q0 18 -15 18z" />
    <glyph glyph-name="Ccedilla" unicode="&#xc7;" horiz-adv-x="458" 
d="M326 210l12 3q2 0 6.5 -7t9 -17t7.5 -19.5t3 -15.5q0 -21 -22 -63q-7 -12 -28.5 -29.5t-50.5 -32.5l-13 -6.5t-13 -5.5t-22 -7t-39 -11q-11 -3 -19 -13.5t-8 -22.5q0 -6 2.5 -9t17.5 -15q9 -7 15 -21t6 -28q0 -17 -7.5 -32.5t-21 -27.5t-31 -19t-36.5 -7q-31 0 -62 22
q-9 7 -16.5 15t-7.5 12t2.5 7t17.5 15q3 2 7 8q12 13 18 13q2 0 4.5 -2t16.5 -13q11 -8 21 -8q8 0 14 6t6 14q0 11 -7 17.5t-26 11.5q-6 2 -10.5 6.5t-4.5 10.5q0 3 2 9.5t5.5 14t7 15.5t6.5 13q9 12 9 19q0 3 -1 4.5t-5.5 5.5t-14.5 11t-29 19q-58 40 -58 125
q0 41 9.5 88.5t25.5 94.5t38 90.5t48 76.5q23 30 54 57t63.5 47.5t64 32.5t55.5 12q11 0 25.5 -4.5t30 -12t30.5 -17.5t27 -22q25 -24 25 -62q0 -20 -3 -41t-8.5 -39t-13 -31.5t-15.5 -19.5q-6 -5 -18 -10t-25 -9.5t-25.5 -7.5t-19.5 -3q-5 0 -6.5 1.5t-6.5 9.5q-3 4 -5 4
q-11 1 -18 9t-7 19q0 14 13 42q5 12 8 18t4.5 10t1.5 6.5v5.5q0 13 -8 13q-7 0 -19 -10t-26 -26.5t-28 -37.5t-26 -43q-35 -66 -53.5 -123t-18.5 -97q0 -17 7.5 -28.5t18.5 -11.5q8 0 25.5 6t36.5 14t35 16.5t22 14.5q4 6 7 6z" />
    <glyph glyph-name="Egrave" unicode="&#xc8;" horiz-adv-x="442" 
d="M204 264q-6 0 -10 -1t-8 -5.5t-9.5 -15.5t-15.5 -30q-3 -7 -6.5 -13.5t-7.5 -13.5q-13 -23 -13 -33t12 -10h6q6 1 10.5 1h26.5h7.5t8.5 0.5t14 1t26 2.5l24 -1q11 2 13.5 2.5t4.5 0.5q9 0 17 -11q2 -4 6 -13t4 -11q0 -6 -8 -22q-12 -27 -11 -43q0 -5 -1 -6.5t-8 -7.5
q-5 -5 -18 -21q-3 -3 -9 -4.5t-34 -4.5q-4 0 -7 -0.5t-7 -1t-11 -1.5t-19 -3q-8 -2 -21.5 -2.5t-31.5 -1.5q-5 0 -19 -1t-37 -3h-13q-17 0 -27 6t-24 25q-26 36 -41 68t-15 52q0 11 2.5 19.5t13.5 31.5q8 17 14.5 32t11.5 29q3 8 5.5 13t4.5 9.5t4.5 8.5t7.5 11q3 5 5 9.5
t2.5 9.5t1 13t0.5 20l-1 18q2 6 16 24q2 4 4.5 4.5t16.5 0.5q10 5 13 8t4 8q5 7 11 18q5 9 13.5 22t19.5 30q2 5 5.5 8.5t7.5 8.5t4 4.5t4 3.5q10 10 10 15q0 3 -1.5 7.5t-8.5 29.5q-1 3 -1 15q0 26 5 39.5t16 18.5q7 3 23.5 6.5t38 6t44.5 4t43 1.5q36 0 67.5 -4t48.5 -12
q12 -5 17.5 -14.5t12.5 -33.5l6 -18t5 -18q6 -17 6 -26q0 -13 -9 -24.5t-20 -11.5q-5 0 -8.5 1.5t-17.5 10.5l-13 2l-21 2q-10 2 -13 3t-5 1q-14 -2 -22 -3t-11 -1q-9 0 -11 -1t-6 -6q-2 -2 -3.5 -4.5t-12.5 -17.5q-3 -5 -6.5 -9.5t-6.5 -9.5q-6 -5 -7 -7t-2 -9
q-1 -3 -2 -4.5t-6 -7.5q-6 -5 -10.5 -14t-3.5 -12q1 -7 30 -7l23 -2l19 -1q24 -1 32.5 -8t9.5 -26l1 -17l3 -23v-6q0 -10 -8 -18q-5 -6 -9 -9l-8 -11q-3 -4 -11 -8.5t-12 -3.5l-39 5l-37 -3h-2q-4 0 -6 1h-16h-24zM392 924q18 0 27 -41q2 -14 4.5 -26t6.5 -21
q9 -32 14 -59.5t5 -42.5q0 -6 -7.5 -12t-14.5 -6t-16 7t-32 29q-8 8 -20.5 20t-29.5 28q-20 20 -35 38t-15 24q0 7 4 10t24 11q3 1 11 5t17 8t16.5 8t9.5 5q19 11 22.5 13t8.5 2z" />
    <glyph glyph-name="Eacute" unicode="&#xc9;" horiz-adv-x="442" 
d="M204 264q-6 0 -10 -1t-8 -5.5t-9.5 -15.5t-15.5 -30q-3 -7 -6.5 -13.5t-7.5 -13.5q-13 -23 -13 -33t12 -10h6q6 1 10.5 1h26.5h7.5t8.5 0.5t14 1t26 2.5l24 -1q11 2 13.5 2.5t4.5 0.5q9 0 17 -11q2 -4 6 -13t4 -11q0 -6 -8 -22q-12 -27 -11 -43q0 -5 -1 -6.5t-8 -7.5
q-5 -5 -18 -21q-3 -3 -9 -4.5t-34 -4.5q-4 0 -7 -0.5t-7 -1t-11 -1.5t-19 -3q-8 -2 -21.5 -2.5t-31.5 -1.5q-5 0 -19 -1t-37 -3h-13q-17 0 -27 6t-24 25q-26 36 -41 68t-15 52q0 11 2.5 19.5t13.5 31.5q8 17 14.5 32t11.5 29q3 8 5.5 13t4.5 9.5t4.5 8.5t7.5 11q3 5 5 9.5
t2.5 9.5t1 13t0.5 20l-1 18q2 6 16 24q2 4 4.5 4.5t16.5 0.5q10 5 13 8t4 8q5 7 11 18q5 9 13.5 22t19.5 30q2 5 5.5 8.5t7.5 8.5t4 4.5t4 3.5q10 10 10 15q0 3 -1.5 7.5t-8.5 29.5q-1 3 -1 15q0 26 5 39.5t16 18.5q7 3 23.5 6.5t38 6t44.5 4t43 1.5q36 0 67.5 -4t48.5 -12
q12 -5 17.5 -14.5t12.5 -33.5l6 -18t5 -18q6 -17 6 -26q0 -13 -9 -24.5t-20 -11.5q-5 0 -8.5 1.5t-17.5 10.5l-13 2l-21 2q-10 2 -13 3t-5 1q-14 -2 -22 -3t-11 -1q-9 0 -11 -1t-6 -6q-2 -2 -3.5 -4.5t-12.5 -17.5q-3 -5 -6.5 -9.5t-6.5 -9.5q-6 -5 -7 -7t-2 -9
q-1 -3 -2 -4.5t-6 -7.5q-6 -5 -10.5 -14t-3.5 -12q1 -7 30 -7l23 -2l19 -1q24 -1 32.5 -8t9.5 -26l1 -17l3 -23v-6q0 -10 -8 -18q-5 -6 -9 -9l-8 -11q-3 -4 -11 -8.5t-12 -3.5l-39 5l-37 -3h-2q-4 0 -6 1h-16h-24zM372 924q5 -3 13 -7q6 -3 15.5 -8t22.5 -11q9 -5 14.5 -7.5
t9 -4l7 -3t9.5 -3.5q12 -5 16.5 -9t4.5 -9q0 -8 -16.5 -27t-54.5 -55q-5 -5 -12.5 -12t-16.5 -16q-23 -22 -32 -29t-16 -7q-8 0 -15 6.5t-7 13.5q0 14 5.5 42.5t13.5 57.5q7 22 11 47q8 41 28 41z" />
    <glyph glyph-name="Ecircumflex" unicode="&#xca;" horiz-adv-x="442" 
d="M204 264q-6 0 -10 -1t-8 -5.5t-9.5 -15.5t-15.5 -30q-3 -7 -6.5 -13.5t-7.5 -13.5q-13 -23 -13 -33t12 -10h6q6 1 10.5 1h26.5h7.5t8.5 0.5t14 1t26 2.5l24 -1q11 2 13.5 2.5t4.5 0.5q9 0 17 -11q2 -4 6 -13t4 -11q0 -6 -8 -22q-12 -27 -11 -43q0 -5 -1 -6.5t-8 -7.5
q-5 -5 -18 -21q-3 -3 -9 -4.5t-34 -4.5q-4 0 -7 -0.5t-7 -1t-11 -1.5t-19 -3q-8 -2 -21.5 -2.5t-31.5 -1.5q-5 0 -19 -1t-37 -3h-13q-17 0 -27 6t-24 25q-26 36 -41 68t-15 52q0 11 2.5 19.5t13.5 31.5q8 17 14.5 32t11.5 29q3 8 5.5 13t4.5 9.5t4.5 8.5t7.5 11q3 5 5 9.5
t2.5 9.5t1 13t0.5 20l-1 18q2 6 16 24q2 4 4.5 4.5t16.5 0.5q10 5 13 8t4 8q5 7 11 18q5 9 13.5 22t19.5 30q2 5 5.5 8.5t7.5 8.5t4 4.5t4 3.5q10 10 10 15q0 3 -1.5 7.5t-8.5 29.5q-1 3 -1 15q0 26 5 39.5t16 18.5q7 3 23.5 6.5t38 6t44.5 4t43 1.5q36 0 67.5 -4t48.5 -12
q12 -5 17.5 -14.5t12.5 -33.5l6 -18t5 -18q6 -17 6 -26q0 -13 -9 -24.5t-20 -11.5q-5 0 -8.5 1.5t-17.5 10.5l-13 2l-21 2q-10 2 -13 3t-5 1q-14 -2 -22 -3t-11 -1q-9 0 -11 -1t-6 -6q-2 -2 -3.5 -4.5t-12.5 -17.5q-3 -5 -6.5 -9.5t-6.5 -9.5q-6 -5 -7 -7t-2 -9
q-1 -3 -2 -4.5t-6 -7.5q-6 -5 -10.5 -14t-3.5 -12q1 -7 30 -7l23 -2l19 -1q24 -1 32.5 -8t9.5 -26l1 -17l3 -23v-6q0 -10 -8 -18q-5 -6 -9 -9l-8 -11q-3 -4 -11 -8.5t-12 -3.5l-39 5l-37 -3h-2q-4 0 -6 1h-16h-24zM460 734q-17 -6 -24 -6q-11 0 -21.5 7t-32.5 28
q-5 5 -11.5 9.5t-19.5 12.5q-32 -35 -51 -48.5t-35 -13.5q-8 0 -24 3.5t-24 6.5q-14 6 -14 16q0 4 2 8.5t8 10.5t17 15t29 23q9 7 22.5 19t46.5 42q13 12 22.5 15.5t29.5 3.5q14 0 25.5 -4t24.5 -15q12 -9 18.5 -14t11 -8t7.5 -5.5t8 -6.5q32 -23 49 -39t17 -23
q0 -4 -4 -9.5t-8 -7.5l-1.5 -0.5t-6.5 -2t-16.5 -5t-32.5 -9.5z" />
    <glyph glyph-name="Edieresis" unicode="&#xcb;" horiz-adv-x="442" 
d="M204 264q-6 0 -10 -1t-8 -5.5t-9.5 -15.5t-15.5 -30q-3 -7 -6.5 -13.5t-7.5 -13.5q-13 -23 -13 -33t12 -10h6q6 1 10.5 1h26.5h7.5t8.5 0.5t14 1t26 2.5l24 -1q11 2 13.5 2.5t4.5 0.5q9 0 17 -11q2 -4 6 -13t4 -11q0 -6 -8 -22q-12 -27 -11 -43q0 -5 -1 -6.5t-8 -7.5
q-5 -5 -18 -21q-3 -3 -9 -4.5t-34 -4.5q-4 0 -7 -0.5t-7 -1t-11 -1.5t-19 -3q-8 -2 -21.5 -2.5t-31.5 -1.5q-5 0 -19 -1t-37 -3h-13q-17 0 -27 6t-24 25q-26 36 -41 68t-15 52q0 11 2.5 19.5t13.5 31.5q8 17 14.5 32t11.5 29q3 8 5.5 13t4.5 9.5t4.5 8.5t7.5 11q3 5 5 9.5
t2.5 9.5t1 13t0.5 20l-1 18q2 6 16 24q2 4 4.5 4.5t16.5 0.5q10 5 13 8t4 8q5 7 11 18q5 9 13.5 22t19.5 30q2 5 5.5 8.5t7.5 8.5t4 4.5t4 3.5q10 10 10 15q0 3 -1.5 7.5t-8.5 29.5q-1 3 -1 15q0 26 5 39.5t16 18.5q7 3 23.5 6.5t38 6t44.5 4t43 1.5q36 0 67.5 -4t48.5 -12
q12 -5 17.5 -14.5t12.5 -33.5l6 -18t5 -18q6 -17 6 -26q0 -13 -9 -24.5t-20 -11.5q-5 0 -8.5 1.5t-17.5 10.5l-13 2l-21 2q-10 2 -13 3t-5 1q-14 -2 -22 -3t-11 -1q-9 0 -11 -1t-6 -6q-2 -2 -3.5 -4.5t-12.5 -17.5q-3 -5 -6.5 -9.5t-6.5 -9.5q-6 -5 -7 -7t-2 -9
q-1 -3 -2 -4.5t-6 -7.5q-6 -5 -10.5 -14t-3.5 -12q1 -7 30 -7l23 -2l19 -1q24 -1 32.5 -8t9.5 -26l1 -17l3 -23v-6q0 -10 -8 -18q-5 -6 -9 -9l-8 -11q-3 -4 -11 -8.5t-12 -3.5l-39 5l-37 -3h-2q-4 0 -6 1h-16h-24zM513 878q48 0 48 -42q0 -5 -1 -14.5t-2.5 -20t-2.5 -19.5
t-2 -11q-2 -4 -4 -7t-7 -6t-14 -6.5t-25 -8.5q-17 -6 -27 -9.5t-16 -5t-10 -2t-8 -0.5q-24 0 -24 39q0 18 6 45q3 14 9.5 24.5t20.5 24.5q19 19 59 19zM364 814q1 -5 1 -9v-6q0 -20 -10 -30.5t-38 -18.5q-9 -3 -15.5 -5.5t-11.5 -5.5q-14 -7 -20 -9t-12 -2q-29 0 -29 44
q0 39 7.5 59t24.5 29t37 14.5t36 5.5q12 0 23 -10t11 -21q-1 -2 -1 -4q-1 -2 -1 -4.5t-1 -5.5t-1 -11v-10z" />
    <glyph glyph-name="Igrave" unicode="&#xcc;" horiz-adv-x="294" 
d="M303 521l-5 -12q-7 -19 -15 -36l-16 -34q-12 -26 -19.5 -42t-13 -27.5t-9 -20.5t-7.5 -21q-8 -18 -14.5 -37t-14.5 -39q-5 -11 -9 -21.5t-9 -21.5q-23 -71 -33 -102q-5 -12 -6 -15.5t-3 -11.5l-5 -23q-4 -15 -6.5 -23.5t-5.5 -13.5t-6.5 -7.5t-9.5 -4.5l-10 -4
q-12 -6 -27 -10t-24 -4q-7 0 -9 6q-3 5 -10 14q-2 3 -4.5 6.5t-14.5 22.5l-11 10l-7 5q-14 8 -18 14t-4 15q0 5 1.5 12.5t6.5 21.5q4 9 7 18.5t6 19.5q5 14 10 28.5t10 31.5q11 26 21 51t21 49q8 20 14.5 37.5t13.5 33.5q4 9 5.5 12.5t2 5.5t2 5.5t4.5 12.5q13 33 22 56
t16.5 39.5t13.5 29t13 23.5q4 7 7.5 13.5t6.5 14.5q4 8 3.5 8t0.5 7q2 10 3.5 13.5t10.5 11.5q11 11 17 15t11 4q4 0 13.5 -3t20.5 -8t22 -11t19 -12q7 -5 14 -12.5t12.5 -16t9 -17t3.5 -14.5t-6 -18zM346 924q18 0 27 -41q2 -14 4.5 -26t6.5 -21q9 -32 14 -59.5t5 -42.5
q0 -6 -7.5 -12t-14.5 -6t-16 7t-32 29q-8 8 -20.5 20t-29.5 28q-20 20 -35 38t-15 24q0 7 4 10t24 11q3 1 11 5t17 8t16.5 8t9.5 5q19 11 22.5 13t8.5 2z" />
    <glyph glyph-name="Iacute" unicode="&#xcd;" horiz-adv-x="294" 
d="M303 521l-5 -12q-7 -19 -15 -36l-16 -34q-12 -26 -19.5 -42t-13 -27.5t-9 -20.5t-7.5 -21q-8 -18 -14.5 -37t-14.5 -39q-5 -11 -9 -21.5t-9 -21.5q-23 -71 -33 -102q-5 -12 -6 -15.5t-3 -11.5l-5 -23q-4 -15 -6.5 -23.5t-5.5 -13.5t-6.5 -7.5t-9.5 -4.5l-10 -4
q-12 -6 -27 -10t-24 -4q-7 0 -9 6q-3 5 -10 14q-2 3 -4.5 6.5t-14.5 22.5l-11 10l-7 5q-14 8 -18 14t-4 15q0 5 1.5 12.5t6.5 21.5q4 9 7 18.5t6 19.5q5 14 10 28.5t10 31.5q11 26 21 51t21 49q8 20 14.5 37.5t13.5 33.5q4 9 5.5 12.5t2 5.5t2 5.5t4.5 12.5q13 33 22 56
t16.5 39.5t13.5 29t13 23.5q4 7 7.5 13.5t6.5 14.5q4 8 3.5 8t0.5 7q2 10 3.5 13.5t10.5 11.5q11 11 17 15t11 4q4 0 13.5 -3t20.5 -8t22 -11t19 -12q7 -5 14 -12.5t12.5 -16t9 -17t3.5 -14.5t-6 -18zM312 924q5 -3 13 -7q6 -3 15.5 -8t22.5 -11q9 -5 14.5 -7.5t9 -4l7 -3
t9.5 -3.5q12 -5 16.5 -9t4.5 -9q0 -8 -16.5 -27t-54.5 -55q-5 -5 -12.5 -12t-16.5 -16q-23 -22 -32 -29t-16 -7q-8 0 -15 6.5t-7 13.5q0 14 5.5 42.5t13.5 57.5q7 22 11 47q8 41 28 41z" />
    <glyph glyph-name="Icircumflex" unicode="&#xce;" horiz-adv-x="294" 
d="M303 521l-5 -12q-7 -19 -15 -36l-16 -34q-12 -26 -19.5 -42t-13 -27.5t-9 -20.5t-7.5 -21q-8 -18 -14.5 -37t-14.5 -39q-5 -11 -9 -21.5t-9 -21.5q-23 -71 -33 -102q-5 -12 -6 -15.5t-3 -11.5l-5 -23q-4 -15 -6.5 -23.5t-5.5 -13.5t-6.5 -7.5t-9.5 -4.5l-10 -4
q-12 -6 -27 -10t-24 -4q-7 0 -9 6q-3 5 -10 14q-2 3 -4.5 6.5t-14.5 22.5l-11 10l-7 5q-14 8 -18 14t-4 15q0 5 1.5 12.5t6.5 21.5q4 9 7 18.5t6 19.5q5 14 10 28.5t10 31.5q11 26 21 51t21 49q8 20 14.5 37.5t13.5 33.5q4 9 5.5 12.5t2 5.5t2 5.5t4.5 12.5q13 33 22 56
t16.5 39.5t13.5 29t13 23.5q4 7 7.5 13.5t6.5 14.5q4 8 3.5 8t0.5 7q2 10 3.5 13.5t10.5 11.5q11 11 17 15t11 4q4 0 13.5 -3t20.5 -8t22 -11t19 -12q7 -5 14 -12.5t12.5 -16t9 -17t3.5 -14.5t-6 -18zM387 734q-17 -6 -24 -6q-11 0 -21.5 7t-32.5 28q-5 5 -11.5 9.5
t-19.5 12.5q-32 -35 -51 -48.5t-35 -13.5q-8 0 -24 3.5t-24 6.5q-14 6 -14 16q0 4 2 8.5t8 10.5t17 15t29 23q9 7 22.5 19t46.5 42q13 12 22.5 15.5t29.5 3.5q14 0 25.5 -4t24.5 -15q12 -9 18.5 -14t11 -8t7.5 -5.5t8 -6.5q32 -23 49 -39t17 -23q0 -4 -4 -9.5t-8 -7.5
l-1.5 -0.5t-6.5 -2t-16.5 -5t-32.5 -9.5z" />
    <glyph glyph-name="Idieresis" unicode="&#xcf;" horiz-adv-x="294" 
d="M303 521l-5 -12q-7 -19 -15 -36l-16 -34q-12 -26 -19.5 -42t-13 -27.5t-9 -20.5t-7.5 -21q-8 -18 -14.5 -37t-14.5 -39q-5 -11 -9 -21.5t-9 -21.5q-23 -71 -33 -102q-5 -12 -6 -15.5t-3 -11.5l-5 -23q-4 -15 -6.5 -23.5t-5.5 -13.5t-6.5 -7.5t-9.5 -4.5l-10 -4
q-12 -6 -27 -10t-24 -4q-7 0 -9 6q-3 5 -10 14q-2 3 -4.5 6.5t-14.5 22.5l-11 10l-7 5q-14 8 -18 14t-4 15q0 5 1.5 12.5t6.5 21.5q4 9 7 18.5t6 19.5q5 14 10 28.5t10 31.5q11 26 21 51t21 49q8 20 14.5 37.5t13.5 33.5q4 9 5.5 12.5t2 5.5t2 5.5t4.5 12.5q13 33 22 56
t16.5 39.5t13.5 29t13 23.5q4 7 7.5 13.5t6.5 14.5q4 8 3.5 8t0.5 7q2 10 3.5 13.5t10.5 11.5q11 11 17 15t11 4q4 0 13.5 -3t20.5 -8t22 -11t19 -12q7 -5 14 -12.5t12.5 -16t9 -17t3.5 -14.5t-6 -18zM426 893q48 0 48 -47q0 -5 -1 -16t-2.5 -23t-2.5 -21.5t-2 -12.5
q-2 -5 -4 -8t-7.5 -6t-14.5 -7t-25 -10q-17 -7 -27 -10.5t-16 -5.5t-10 -2.5t-8 -0.5q-24 0 -24 44q0 8 1.5 21.5t4.5 28.5t9.5 27.5t20.5 26.5q19 22 60 22zM276 821q1 -7 1 -11.5v-6.5q0 -23 -10 -34.5t-38 -20.5q-8 -3 -14.5 -6t-13.5 -5q-14 -8 -20.5 -10.5t-12.5 -2.5
q-29 0 -29 50q0 43 7.5 65.5t24.5 33.5q17 10 37.5 16t36.5 6q11 0 18 -7q6 -5 11 -14t5 -14q0 -1 -0.5 -5t-1.5 -10q-1 -4 -1 -14v-10z" />
    <glyph glyph-name="Eth" unicode="&#xd0;" horiz-adv-x="544" 
d="M48 289l-18 2q-13 2 -17 10t-4 33l-2 27q-1 4 -1 9q0 4 1 5.5t7 7.5q2 2 4.5 5t4.5 8q6 8 13.5 15.5t10.5 7.5t5 -0.5t10 -4.5l31 -1l17 3q2 0 4 -1l5 14q4 10 7 19t6 17q5 12 5 14q0 8 -12 19q-11 11 -14.5 18.5t-3.5 20.5v7t1 9l1 30q0 33 8.5 48t30.5 20q9 3 29 5.5
t43.5 5t47 4t39.5 1.5q48 0 81.5 -12t61.5 -39q16 -16 31 -37.5t25.5 -45t17 -47.5t6.5 -43q0 -35 -19.5 -92.5t-51.5 -120.5q-38 -72 -86 -121.5t-114 -84.5q-65 -35 -93 -35q-7 0 -12.5 4t-21.5 21q-8 8 -18 15t-14 7q-5 0 -7.5 -3t-13.5 -20q-9 -15 -24 -15q-12 0 -24 8
t-37 35q-23 23 -31 36t-8 25q0 9 2 17.5t10 24t25.5 43.5t47.5 77q4 6 6.5 11t7.5 13zM236 297q-6 -15 -14 -31.5t-16 -31.5t-14.5 -27t-10.5 -17q-4 -4 -4 -8q0 -9 13 -9q17 0 43 25.5t54 70.5q16 26 31 56t27 58t19 51.5t7 37.5q0 20 -17.5 31t-48.5 11q-12 0 -21 -3
t-9 -7q0 -2 2 -4t14 -11q6 -5 6 -16q0 -7 -2.5 -18t-9.5 -35q13 -5 17 -14.5t4 -37.5v-8.5t-1.5 -7t-4 -9t-7.5 -14.5q-6 -12 -10.5 -18.5t-8.5 -9.5t-9 -4t-14 -1h-6.5t-8.5 1z" />
    <glyph glyph-name="Ntilde" unicode="&#xd1;" horiz-adv-x="538" 
d="M313 507v-58q0 -23 2 -41t5 -18q1 0 1.5 1t2.5 6t5.5 16.5t10.5 32.5q13 42 27 79t36 87q13 29 21.5 40.5t19.5 11.5t27.5 -11.5t48.5 -40.5q15 -14 23.5 -22t12 -13t4.5 -8.5t1 -9.5q0 -5 -1 -10t-7 -17.5t-18.5 -36.5t-35.5 -69q-23 -53 -42 -100t-35.5 -94t-32.5 -97
t-33 -107q-5 -21 -12 -29.5t-20 -8.5q-10 0 -21 4t-41 21q-33 17 -42 28.5t-9 34.5l2 51v22.5v41.5t-0.5 40l-0.5 18q-3 24 -4.5 37t-2 19t-1 7t-1.5 1q-2 0 -5 -10.5t-12 -44.5q-3 -11 -6.5 -23t-9 -29t-13 -40t-18.5 -56q-5 -9 -8 -19.5t-6 -22.5q-2 -5 -2.5 -7t-0.5 -3.5
t-0.5 -3.5t-1.5 -8q-10 -52 -36 -52q-17 0 -31.5 10t-22.5 27q-2 4 -3.5 7.5t-3.5 7.5q-1 3 -4.5 6t-20.5 15q-14 11 -23.5 26.5t-9.5 28.5q0 15 17.5 61t50.5 119q21 45 39.5 90t34 87.5t27 80.5t19.5 70q10 41 47 41q6 0 10.5 -2t25.5 -14l14 -6t15 -6q13 -6 21.5 -11
t13 -13.5t6 -21t2.5 -33.5zM409 875q42 0 93 -34q4 -3 6 -3q5 0 11 8q13 14 26 23t23 9q5 0 9.5 -2t14.5 -9q24 -18 29.5 -24t5.5 -14q0 -7 -9.5 -18.5t-33.5 -33.5q-44 -43 -110 -43q-12 0 -20.5 1t-18.5 4.5t-23.5 11.5t-35.5 22q-5 3 -9 3t-10 -8q-13 -20 -24 -29t-22 -9
q-5 0 -14 5.5t-30 21.5q-12 10 -12 22q0 8 9.5 22.5t25.5 29.5q22 21 53 32.5t66 11.5z" />
    <glyph glyph-name="Ograve" unicode="&#xd2;" horiz-adv-x="540" 
d="M316 689q5 -1 14.5 -10t19.5 -23q9 -12 14.5 -19t9 -10t6 -4t5.5 -1q2 0 5 1.5t20 9.5q10 6 25 6q14 0 23 -6.5t18 -26.5q36 -71 36 -144q0 -41 -8.5 -85.5t-25 -88t-39.5 -84.5t-51 -76q-24 -30 -54 -56.5t-60.5 -46t-60 -30.5t-52.5 -11q-21 0 -43.5 13.5t-60.5 49.5
q-20 18 -32.5 31.5t-19 25.5t-9 24.5t-2.5 28.5q0 31 5 67t14 72.5t21.5 71t27.5 64.5q31 61 63.5 104t76.5 83q27 23 41.5 36t22.5 19t12.5 7.5t10.5 2.5q7 0 27 5zM318 485q-7 0 -17 -12t-33 -49q-15 -25 -25.5 -43t-19.5 -36.5t-17.5 -40.5t-19.5 -54q-5 -12 -10 -26
t-11 -29q-5 -15 -5 -26q0 -8 3 -14t7 -6t16 13t27 33.5t31 46t29 49.5q18 33 30 57t19 43t10 34t3 29t-4.5 22.5t-12.5 8.5zM468 924q18 0 27 -41q2 -14 4.5 -26t6.5 -21q9 -32 14 -59.5t5 -42.5q0 -6 -7.5 -12t-14.5 -6t-16 7t-32 29q-8 8 -20.5 20t-29.5 28q-20 20 -35 38
t-15 24q0 7 4 10t24 11q3 1 11 5t17 8t16.5 8t9.5 5q19 11 22.5 13t8.5 2z" />
    <glyph glyph-name="Oacute" unicode="&#xd3;" horiz-adv-x="540" 
d="M316 689q5 -1 14.5 -10t19.5 -23q9 -12 14.5 -19t9 -10t6 -4t5.5 -1q2 0 5 1.5t20 9.5q10 6 25 6q14 0 23 -6.5t18 -26.5q36 -71 36 -144q0 -41 -8.5 -85.5t-25 -88t-39.5 -84.5t-51 -76q-24 -30 -54 -56.5t-60.5 -46t-60 -30.5t-52.5 -11q-21 0 -43.5 13.5t-60.5 49.5
q-20 18 -32.5 31.5t-19 25.5t-9 24.5t-2.5 28.5q0 31 5 67t14 72.5t21.5 71t27.5 64.5q31 61 63.5 104t76.5 83q27 23 41.5 36t22.5 19t12.5 7.5t10.5 2.5q7 0 27 5zM318 485q-7 0 -17 -12t-33 -49q-15 -25 -25.5 -43t-19.5 -36.5t-17.5 -40.5t-19.5 -54q-5 -12 -10 -26
t-11 -29q-5 -15 -5 -26q0 -8 3 -14t7 -6t16 13t27 33.5t31 46t29 49.5q18 33 30 57t19 43t10 34t3 29t-4.5 22.5t-12.5 8.5zM434 924q5 -3 13 -7q6 -3 15.5 -8t22.5 -11q9 -5 14.5 -7.5t9 -4l7 -3t9.5 -3.5q12 -5 16.5 -9t4.5 -9q0 -8 -16.5 -27t-54.5 -55q-5 -5 -12.5 -12
t-16.5 -16q-23 -22 -32 -29t-16 -7q-8 0 -15 6.5t-7 13.5q0 14 5.5 42.5t13.5 57.5q7 22 11 47q8 41 28 41z" />
    <glyph glyph-name="Ocircumflex" unicode="&#xd4;" horiz-adv-x="540" 
d="M316 689q5 -1 14.5 -10t19.5 -23q9 -12 14.5 -19t9 -10t6 -4t5.5 -1q2 0 5 1.5t20 9.5q10 6 25 6q14 0 23 -6.5t18 -26.5q36 -71 36 -144q0 -41 -8.5 -85.5t-25 -88t-39.5 -84.5t-51 -76q-24 -30 -54 -56.5t-60.5 -46t-60 -30.5t-52.5 -11q-21 0 -43.5 13.5t-60.5 49.5
q-20 18 -32.5 31.5t-19 25.5t-9 24.5t-2.5 28.5q0 31 5 67t14 72.5t21.5 71t27.5 64.5q31 61 63.5 104t76.5 83q27 23 41.5 36t22.5 19t12.5 7.5t10.5 2.5q7 0 27 5zM318 485q-7 0 -17 -12t-33 -49q-15 -25 -25.5 -43t-19.5 -36.5t-17.5 -40.5t-19.5 -54q-5 -12 -10 -26
t-11 -29q-5 -15 -5 -26q0 -8 3 -14t7 -6t16 13t27 33.5t31 46t29 49.5q18 33 30 57t19 43t10 34t3 29t-4.5 22.5t-12.5 8.5zM509 734q-17 -6 -24 -6q-11 0 -21.5 7t-32.5 28q-5 5 -11.5 9.5t-19.5 12.5q-32 -35 -51 -48.5t-35 -13.5q-8 0 -24 3.5t-24 6.5q-14 6 -14 16
q0 4 2 8.5t8 10.5t17 15t29 23q9 7 22.5 19t46.5 42q13 12 22.5 15.5t29.5 3.5q14 0 25.5 -4t24.5 -15q12 -9 18.5 -14t11 -8t7.5 -5.5t8 -6.5q32 -23 49 -39t17 -23q0 -4 -4 -9.5t-8 -7.5l-1.5 -0.5t-6.5 -2t-16.5 -5t-32.5 -9.5z" />
    <glyph glyph-name="Otilde" unicode="&#xd5;" horiz-adv-x="540" 
d="M316 689q5 -1 14.5 -10t19.5 -23q9 -12 14.5 -19t9 -10t6 -4t5.5 -1q2 0 5 1.5t20 9.5q10 6 25 6q14 0 23 -6.5t18 -26.5q36 -71 36 -144q0 -41 -8.5 -85.5t-25 -88t-39.5 -84.5t-51 -76q-24 -30 -54 -56.5t-60.5 -46t-60 -30.5t-52.5 -11q-21 0 -43.5 13.5t-60.5 49.5
q-20 18 -32.5 31.5t-19 25.5t-9 24.5t-2.5 28.5q0 31 5 67t14 72.5t21.5 71t27.5 64.5q31 61 63.5 104t76.5 83q27 23 41.5 36t22.5 19t12.5 7.5t10.5 2.5q7 0 27 5zM318 485q-7 0 -17 -12t-33 -49q-15 -25 -25.5 -43t-19.5 -36.5t-17.5 -40.5t-19.5 -54q-5 -12 -10 -26
t-11 -29q-5 -15 -5 -26q0 -8 3 -14t7 -6t16 13t27 33.5t31 46t29 49.5q18 33 30 57t19 43t10 34t3 29t-4.5 22.5t-12.5 8.5zM410 875q42 0 93 -34q4 -3 6 -3q5 0 11 8q13 14 26 23t23 9q5 0 9.5 -2t14.5 -9q24 -18 29.5 -24t5.5 -14q0 -7 -9.5 -18.5t-33.5 -33.5
q-44 -43 -110 -43q-12 0 -20.5 1t-18.5 4.5t-23.5 11.5t-35.5 22q-5 3 -9 3t-10 -8q-13 -20 -24 -29t-22 -9q-5 0 -14 5.5t-30 21.5q-12 10 -12 22q0 8 9.5 22.5t25.5 29.5q22 21 53 32.5t66 11.5z" />
    <glyph glyph-name="Odieresis" unicode="&#xd6;" horiz-adv-x="540" 
d="M316 689q5 -1 14.5 -10t19.5 -23q9 -12 14.5 -19t9 -10t6 -4t5.5 -1q2 0 5 1.5t20 9.5q10 6 25 6q14 0 23 -6.5t18 -26.5q36 -71 36 -144q0 -41 -8.5 -85.5t-25 -88t-39.5 -84.5t-51 -76q-24 -30 -54 -56.5t-60.5 -46t-60 -30.5t-52.5 -11q-21 0 -43.5 13.5t-60.5 49.5
q-20 18 -32.5 31.5t-19 25.5t-9 24.5t-2.5 28.5q0 31 5 67t14 72.5t21.5 71t27.5 64.5q31 61 63.5 104t76.5 83q27 23 41.5 36t22.5 19t12.5 7.5t10.5 2.5q7 0 27 5zM318 485q-7 0 -17 -12t-33 -49q-15 -25 -25.5 -43t-19.5 -36.5t-17.5 -40.5t-19.5 -54q-5 -12 -10 -26
t-11 -29q-5 -15 -5 -26q0 -8 3 -14t7 -6t16 13t27 33.5t31 46t29 49.5q18 33 30 57t19 43t10 34t3 29t-4.5 22.5t-12.5 8.5zM576 878q48 0 48 -42q0 -5 -1 -14.5t-2.5 -20t-2.5 -19.5t-2 -11q-2 -4 -4 -7t-7 -6t-14 -6.5t-25 -8.5q-17 -6 -27 -9.5t-16 -5t-10 -2t-8 -0.5
q-24 0 -24 39q0 18 6 45q3 14 9.5 24.5t20.5 24.5q19 19 59 19zM427 814q1 -5 1 -9v-6q0 -20 -10 -30.5t-38 -18.5q-9 -3 -15.5 -6t-11.5 -5q-15 -7 -21 -9t-12 -2q-29 0 -29 44q0 39 7.5 59t24.5 29t37 14.5t36 5.5q12 0 23 -10t11 -21q-1 -2 -1 -4t-0.5 -4.5t-0.5 -5.5
q-1 -3 -1 -11v-10z" />
    <glyph glyph-name="multiply" unicode="&#xd7;" horiz-adv-x="533" 
d="M232 279q-7 -5 -13.5 -9.5t-13.5 -9.5q-10 -7 -19.5 -13.5t-17.5 -13.5l-39 -31q-12 -10 -25 -16.5t-20 -6.5q-11 0 -20 9q-8 8 -16.5 21.5t-8.5 18.5q0 4 4 9.5t14.5 14t30 22.5t51.5 35q14 8 25 16l12 9l16 11q-6 10 -8 13.5t-9 14.5q-14 22 -22.5 36t-13.5 23.5
t-7 14.5t-2 9q0 15 31 34q2 1 5 1.5t20 4.5q12 0 26 -23l23 -40l16 -27q3 -7 8 -13l99 71q5 5 11 9.5t12 9.5q16 13 28 13q8 0 13 -3.5t13 -13.5q17 -23 17 -33q0 -5 -2.5 -9t-12 -12t-28 -21t-49.5 -34q-17 -11 -23.5 -15.5t-18.5 -13.5l-21 -15q7 -12 11.5 -19t14.5 -21
q37 -55 37 -65q0 -7 -5.5 -14.5t-13.5 -13.5t-17.5 -10t-18.5 -4q-7 0 -12 5t-16 22z" />
    <glyph glyph-name="Oslash" unicode="&#xd8;" horiz-adv-x="551" 
d="M514 496q3 -18 4 -28.5t1 -21.5q0 -33 -8.5 -73t-23.5 -80.5t-35.5 -79.5t-44.5 -71q-26 -34 -57 -63.5t-63 -51t-63 -33.5t-56 -12q-21 0 -42.5 12t-55.5 42q-16 14 -25.5 23.5t-20.5 23.5q-29 -30 -44.5 -43t-25.5 -13q-6 0 -16.5 6t-10.5 9l1 18q0 1 -1 2q-2 2 -3 4
q-2 6 -2 10q0 7 14 15q13 6 21 17q5 5 4.5 5t4.5 5q10 11 16.5 17t17.5 16v16q0 24 4.5 55t12.5 64t19 65.5t23 59.5q21 46 55.5 95t71.5 88.5t71.5 65t56.5 25.5q9 0 13 -2.5t19 -18.5q3 -4 10 -11l18 -18q13 -16 17 -16q1 0 2 1t5 3t10.5 4.5t13.5 4.5t14 3.5t11 1.5
q6 0 10.5 -2.5t10 -10t12 -20t16.5 -33.5q2 -4 4 -7t4 -7q22 15 36.5 24t23.5 14t14 6.5t9 1.5q16 0 24 -20l6 -18q0 -5 -10 -10q-10 -6 -16 -10t-19 -12q-9 -7 -18.5 -13t-20.5 -12l-13 -8zM351 447q0 54 -20 54q-13 0 -29 -15.5t-31 -41.5q-29 -49 -44 -75.5t-17 -31.5
q6 5 12 9l12 8q11 8 21.5 17t21.5 18q9 8 18.5 14.5t19.5 13.5q16 12 22.5 17.5t13.5 12.5zM326 349q-16 -9 -20 -12.5t-13 -12.5t-19 -18t-23 -20q-18 -15 -37 -31.5t-39 -34.5q-3 -2 -6 -4.5t-7 -4.5l-2 -11q-3 -11 -3 -15q0 -2 2 -12t4 -16q3 -12 15 -12q11 0 23.5 10.5
t31.5 35.5q10 13 16.5 21.5t11 15.5t8.5 13.5t9 16.5z" />
    <glyph glyph-name="Ugrave" unicode="&#xd9;" horiz-adv-x="545" 
d="M313 617q15 -8 15 -16q0 -2 -7 -12q-8 -14 -11 -25l-3 -6l-2 -6q-6 -18 -12.5 -35t-14.5 -34q-18 -45 -35.5 -93.5t-31 -90.5t-21.5 -74.5t-8 -46.5q0 -13 4 -22t10 -9q4 0 14 12.5t22.5 33.5t27.5 49t29 60q12 25 20.5 45.5t16 40t14 40.5t14.5 48q13 47 20.5 73
t11.5 39t5 17t2 7q5 29 11 40t20 11q10 0 28.5 -10.5t54.5 -35.5q17 -12 24 -27.5t7 -39.5q0 -31 -9 -75t-24.5 -93.5t-36 -99.5t-43.5 -92q-54 -99 -111 -150t-114 -51q-33 0 -69.5 16.5t-64.5 45.5q-26 26 -37 55.5t-11 70.5q0 33 3 62t11 61.5t21 70t33 86.5
q24 58 37 89.5t19.5 47t9.5 20t7 9.5q4 4 17 11t28.5 14t30 11.5t21.5 4.5q8 0 11 -2.5t12 -16.5q4 -9 16 -16zM444 924q18 0 27 -41q2 -14 4.5 -26t6.5 -21q9 -32 14 -59.5t5 -42.5q0 -6 -7.5 -12t-14.5 -6t-16 7t-32 29q-8 8 -20.5 20t-29.5 28q-20 20 -35 38t-15 24
q0 7 4 10t24 11q3 1 11 5t17 8t16.5 8t9.5 5q19 11 22.5 13t8.5 2z" />
    <glyph glyph-name="Uacute" unicode="&#xda;" horiz-adv-x="545" 
d="M313 617q15 -8 15 -16q0 -2 -7 -12q-8 -14 -11 -25l-3 -6l-2 -6q-6 -18 -12.5 -35t-14.5 -34q-18 -45 -35.5 -93.5t-31 -90.5t-21.5 -74.5t-8 -46.5q0 -13 4 -22t10 -9q4 0 14 12.5t22.5 33.5t27.5 49t29 60q12 25 20.5 45.5t16 40t14 40.5t14.5 48q13 47 20.5 73
t11.5 39t5 17t2 7q5 29 11 40t20 11q10 0 28.5 -10.5t54.5 -35.5q17 -12 24 -27.5t7 -39.5q0 -31 -9 -75t-24.5 -93.5t-36 -99.5t-43.5 -92q-54 -99 -111 -150t-114 -51q-33 0 -69.5 16.5t-64.5 45.5q-26 26 -37 55.5t-11 70.5q0 33 3 62t11 61.5t21 70t33 86.5
q24 58 37 89.5t19.5 47t9.5 20t7 9.5q4 4 17 11t28.5 14t30 11.5t21.5 4.5q8 0 11 -2.5t12 -16.5q4 -9 16 -16zM437 924q5 -3 13 -7q6 -3 15.5 -8t22.5 -11q9 -5 14.5 -7.5t9 -4l7 -3t9.5 -3.5q12 -5 16.5 -9t4.5 -9q0 -8 -16.5 -27t-54.5 -55q-5 -5 -12.5 -12t-16.5 -16
q-23 -22 -32 -29t-16 -7q-8 0 -15 6.5t-7 13.5q0 14 5.5 42.5t13.5 57.5q7 22 11 47q8 41 28 41z" />
    <glyph glyph-name="Ucircumflex" unicode="&#xdb;" horiz-adv-x="545" 
d="M313 617q15 -8 15 -16q0 -2 -7 -12q-8 -14 -11 -25l-3 -6l-2 -6q-6 -18 -12.5 -35t-14.5 -34q-18 -45 -35.5 -93.5t-31 -90.5t-21.5 -74.5t-8 -46.5q0 -13 4 -22t10 -9q4 0 14 12.5t22.5 33.5t27.5 49t29 60q12 25 20.5 45.5t16 40t14 40.5t14.5 48q13 47 20.5 73
t11.5 39t5 17t2 7q5 29 11 40t20 11q10 0 28.5 -10.5t54.5 -35.5q17 -12 24 -27.5t7 -39.5q0 -31 -9 -75t-24.5 -93.5t-36 -99.5t-43.5 -92q-54 -99 -111 -150t-114 -51q-33 0 -69.5 16.5t-64.5 45.5q-26 26 -37 55.5t-11 70.5q0 33 3 62t11 61.5t21 70t33 86.5
q24 58 37 89.5t19.5 47t9.5 20t7 9.5q4 4 17 11t28.5 14t30 11.5t21.5 4.5q8 0 11 -2.5t12 -16.5q4 -9 16 -16zM491 734q-17 -6 -24 -6q-11 0 -21.5 7t-32.5 28q-5 5 -11.5 9.5t-19.5 12.5q-32 -35 -51 -48.5t-35 -13.5q-8 0 -24 3.5t-24 6.5q-14 6 -14 16q0 4 2 8.5t8 10.5
t17 15t29 23q9 7 22.5 19t46.5 42q13 12 22.5 15.5t29.5 3.5q14 0 25.5 -4t24.5 -15q12 -9 18.5 -14t11 -8t7.5 -5.5t8 -6.5q32 -23 49 -39t17 -23q0 -4 -4 -9.5t-8 -7.5l-1.5 -0.5t-6.5 -2t-16.5 -5t-32.5 -9.5z" />
    <glyph glyph-name="Udieresis" unicode="&#xdc;" horiz-adv-x="545" 
d="M313 617q15 -8 15 -16q0 -2 -7 -12q-8 -14 -11 -25l-3 -6l-2 -6q-6 -18 -12.5 -35t-14.5 -34q-18 -45 -35.5 -93.5t-31 -90.5t-21.5 -74.5t-8 -46.5q0 -13 4 -22t10 -9q4 0 14 12.5t22.5 33.5t27.5 49t29 60q12 25 20.5 45.5t16 40t14 40.5t14.5 48q13 47 20.5 73
t11.5 39t5 17t2 7q5 29 11 40t20 11q10 0 28.5 -10.5t54.5 -35.5q17 -12 24 -27.5t7 -39.5q0 -31 -9 -75t-24.5 -93.5t-36 -99.5t-43.5 -92q-54 -99 -111 -150t-114 -51q-33 0 -69.5 16.5t-64.5 45.5q-26 26 -37 55.5t-11 70.5q0 33 3 62t11 61.5t21 70t33 86.5
q24 58 37 89.5t19.5 47t9.5 20t7 9.5q4 4 17 11t28.5 14t30 11.5t21.5 4.5q8 0 11 -2.5t12 -16.5q4 -9 16 -16zM565 878q48 0 48 -42q0 -5 -1 -14.5t-2.5 -20t-2.5 -19.5t-2 -11q-2 -4 -4 -7t-7 -6t-14 -6.5t-25 -8.5q-17 -6 -27 -9.5t-16 -5t-10 -2t-8 -0.5q-24 0 -24 39
q0 18 6 45q3 14 9.5 24.5t20.5 24.5q19 19 59 19zM416 814q1 -5 1 -9v-6q0 -20 -10 -30.5t-38 -18.5q-9 -3 -15.5 -6t-11.5 -5q-15 -7 -21 -9t-12 -2q-29 0 -29 44q0 39 7.5 59t24.5 29t37 14.5t36 5.5q12 0 23 -10t11 -21q-1 -2 -1 -4t-0.5 -4.5t-0.5 -5.5q-1 -3 -1 -11
v-10z" />
    <glyph glyph-name="Yacute" unicode="&#xdd;" horiz-adv-x="443" 
d="M42 -19q-5 0 -16 9.5t-19 20.5q-21 30 -21 50q0 6 1.5 11t6 11t14 15t26.5 24q14 12 31.5 31.5t32.5 39t25.5 35t10.5 20.5t-4 8t-22 13q-10 6 -16.5 12.5t-11 17t-7.5 26.5t-6 40q-5 44 -8 81.5t-3 60.5q0 18 1 38.5t3 39.5t4.5 34.5t4.5 23.5q4 11 21.5 17.5t45.5 6.5
q9 0 15 -0.5t12 -2t15 -6t25 -11.5q28 -13 35.5 -20t7.5 -20q0 -2 -1.5 -11t-4.5 -22.5t-6 -30t-6 -31.5q-2 -7 -2.5 -24.5t-0.5 -41.5q0 -12 4 -21t9 -9t10.5 11t15.5 37q7 17 13.5 31t13.5 28q11 24 19 41t13.5 30.5t9.5 25.5t8 26q6 24 15.5 34t24.5 10q20 0 55 -28
q46 -39 46 -68q0 -12 -5 -32.5t-14 -46t-22 -54.5t-28 -59q-48 -95 -82 -155t-62 -98q-24 -33 -37 -51t-20 -28t-11 -15.5t-9 -12.5q-18 -26 -29 -41t-19 -22.5t-15 -9t-17 -1.5q-14 0 -23 6q-17 10 -18 10zM353 924q5 -3 13 -7q6 -3 15.5 -8t22.5 -11q9 -5 14.5 -7.5t9 -4
l7 -3t9.5 -3.5q12 -5 16.5 -9t4.5 -9q0 -8 -16.5 -27t-54.5 -55q-5 -5 -12.5 -12t-16.5 -16q-23 -22 -32 -29t-16 -7q-8 0 -15 6.5t-7 13.5q0 14 5.5 42.5t13.5 57.5q7 22 11 47q8 41 28 41z" />
    <glyph glyph-name="Thorn" unicode="&#xde;" horiz-adv-x="518" 
d="M389 566q11 0 27.5 -12t33.5 -32q55 -64 55 -120q0 -32 -15 -67.5t-48 -81.5q-32 -46 -63.5 -77t-69.5 -55q-22 -14 -41 -23t-25 -9t-10 1.5t-9.5 7.5t-14 18.5t-23.5 35.5q-6 11 -11 11q-7 0 -16.5 -27t-24.5 -90q-5 -21 -17 -33t-27 -12q-5 0 -8.5 0.5t-7 2.5t-9 7.5
l-14.5 14.5q-4 3 -8 6.5t-9 7.5q-10 5 -18.5 10t-16.5 10q-34 18 -34 46q0 11 5.5 27.5t20.5 52.5q22 54 37.5 91t27.5 63.5t21.5 46t20.5 38.5q10 18 10 35q0 7 -1 10t-7 14l-12 24q-3 6 -3 9q0 9 13.5 17.5t31.5 11.5q12 2 18.5 3.5t10.5 4t6.5 7t5.5 12.5q8 20 12.5 35.5
t5.5 25.5q1 9 3 13t10 12q11 11 17.5 15t11.5 4t15.5 -4t23 -10t24.5 -12.5t19 -12.5q12 -10 18.5 -23t14.5 -40q3 -11 11 -11zM322 419q-4 0 -6.5 -0.5t-9.5 -2.5q-5 -2 -10 -3t-9 -2q-5 -1 -6.5 -3t-5.5 -11q-7 -12 -14 -26l-15 -30q-16 -31 -16 -40q0 -11 8 -11
q2 0 10.5 5.5t18.5 13t19.5 15t13.5 12.5q5 6 12.5 16.5t14 21.5t11.5 19.5t5 10.5q0 6 -6 10.5t-15 4.5z" />
    <glyph glyph-name="germandbls" unicode="&#xdf;" horiz-adv-x="511" 
d="M-65 11q-14 0 -14 11q0 6 6 28t15.5 51.5t20.5 61t21 55.5q8 20 28 74t54 145q15 41 29 72.5t27 55t26 40t27 27.5q13 10 28.5 19.5t32 16.5t32 11t27.5 4q15 0 33 -5t36 -13.5t33 -19t24 -21.5q8 -11 16 -27.5t14 -35.5t10 -38t4 -33q0 -28 -12.5 -60.5t-32.5 -57.5
q-7 -8 -13.5 -13.5t-19.5 -14.5q11 -8 15 -13.5t11 -20.5q9 -22 14.5 -45t5.5 -41q0 -16 -6 -37t-15.5 -44t-23 -45.5t-28.5 -40.5q-62 -74 -134 -74q-48 0 -79 37q-17 20 -27 44.5t-10 44.5q0 5 1 12t3 15l4 19l2 10l11 5l16 9q1 0 2 0.5t2 0.5t1 1l32 -2q-1 0 9 4
q10 5 17 5q6 0 7.5 -1.5t3.5 -9.5q1 -4 6 -7q2 -2 3 -5t1 -11v-8q-1 -8 -1.5 -13t-0.5 -7q0 -12 12 -12t16 19l12 36q6 16 9.5 24.5t5 14t2 9t0.5 8.5v8t-1 9l-2 17q0 14 -1.5 17.5t-11.5 14.5q-16 14 -22 14q-3 0 -12 -3q-3 -1 -9 -1q-22 0 -22 22q0 24 46 63q11 9 17.5 15
t10.5 11t6.5 10t5.5 13q3 9 4.5 19.5t1.5 19.5q0 55 -20 55q-2 0 -12.5 -6.5t-17.5 -11.5q-7 -6 -12.5 -15.5t-13.5 -26.5q-5 -12 -11 -24t-12 -25q-15 -32 -25.5 -56t-22.5 -54t-27.5 -72.5t-40.5 -110.5q-4 -26 -8 -43t-8 -22q-2 -2 -3 -3.5t-2 -3.5t-2 -3l2 -33
q0 -5 -15.5 -10t-28.5 -5h-6t-8.5 0.5t-15 1.5t-27.5 3z" />
    <glyph glyph-name="agrave" unicode="&#xe0;" horiz-adv-x="443" 
d="M409 370l-8 -18t-9 -18q-4 -9 -3.5 -9t-4.5 -9q-10 -22 -17 -37t-11.5 -27t-7.5 -22t-5 -21q-11 -44 -17 -69t-9.5 -42t-5 -32t-3.5 -37q-2 -27 -10 -35.5t-34 -12.5q-2 0 -19 10q-12 4 -30 9q-16 4 -25 7t-14.5 6t-9.5 7t-8 11q-7 10 -12 10q-3 0 -9 -6q-16 -14 -39 -24
t-37 -10q-17 0 -36 14t-34.5 35t-26 46t-10.5 48q0 29 7 63.5t20 66.5q34 93 145 177q12 9 27 17.5t30 15.5t28 11t21 4t13 -5t9 -19q2 -9 7 -16.5t8 -7.5t5.5 4t14.5 28q9 21 38 21q7 0 12 -0.5t10.5 -3.5t13 -9.5t19.5 -18.5q6 -5 11.5 -9.5t11.5 -7.5q15 -10 21 -16.5
t6 -13.5q0 -4 -5 -16zM216 323q-7 0 -14 -4.5t-18 -16.5q-11 -11 -17.5 -18.5t-11 -14t-8.5 -14t-8 -19.5q-4 -10 -7.5 -19t-8.5 -17q-7 -11 -7 -22q0 -13 9 -13q2 0 16 9t25 17q16 12 18.5 16.5t3.5 19.5q2 11 11 33q3 5 5.5 11.5t5.5 15.5q5 19 8 24q4 4 4 7q0 5 -6 5z
M367 756q24 0 32 -17q3 -6 21 -97q2 -14 3.5 -27.5t1.5 -29.5q0 -19 -40 -19q-8 0 -18.5 5.5t-19.5 14.5q-2 1 -3 2.5t-3.5 5t-8 10t-14.5 18.5q-5 5 -4.5 5t-4.5 6l-10 10l-10 10q-14 13 -22 21.5t-12.5 14.5t-5.5 10t-1 9q0 12 35 26q10 4 23 8t25 7t22 5t14 2z" />
    <glyph glyph-name="aacute" unicode="&#xe1;" horiz-adv-x="443" 
d="M409 370l-8 -18t-9 -18q-4 -9 -3.5 -9t-4.5 -9q-10 -22 -17 -37t-11.5 -27t-7.5 -22t-5 -21q-11 -44 -17 -69t-9.5 -42t-5 -32t-3.5 -37q-2 -27 -10 -35.5t-34 -12.5q-2 0 -19 10q-12 4 -30 9q-16 4 -25 7t-14.5 6t-9.5 7t-8 11q-7 10 -12 10q-3 0 -9 -6q-16 -14 -39 -24
t-37 -10q-17 0 -36 14t-34.5 35t-26 46t-10.5 48q0 29 7 63.5t20 66.5q34 93 145 177q12 9 27 17.5t30 15.5t28 11t21 4t13 -5t9 -19q2 -9 7 -16.5t8 -7.5t5.5 4t14.5 28q9 21 38 21q7 0 12 -0.5t10.5 -3.5t13 -9.5t19.5 -18.5q6 -5 11.5 -9.5t11.5 -7.5q15 -10 21 -16.5
t6 -13.5q0 -4 -5 -16zM216 323q-7 0 -14 -4.5t-18 -16.5q-11 -11 -17.5 -18.5t-11 -14t-8.5 -14t-8 -19.5q-4 -10 -7.5 -19t-8.5 -17q-7 -11 -7 -22q0 -13 9 -13q2 0 16 9t25 17q16 12 18.5 16.5t3.5 19.5q2 11 11 33q3 5 5.5 11.5t5.5 15.5q5 19 8 24q4 4 4 7q0 5 -6 5z
M299 589q-21 -11 -33.5 -14.5t-23.5 -3.5q-14 0 -23.5 5.5t-9.5 13.5q0 5 19.5 29t48.5 56q20 22 31.5 34.5t18.5 18t12.5 6.5t13.5 1q6 0 11.5 -1t13 -4.5t19 -10t28.5 -16.5q31 -17 31 -28q0 -6 -3 -11t-14.5 -11.5t-34.5 -17t-63 -28.5z" />
    <glyph glyph-name="acircumflex" unicode="&#xe2;" horiz-adv-x="443" 
d="M409 370l-8 -18t-9 -18q-4 -9 -3.5 -9t-4.5 -9q-10 -22 -17 -37t-11.5 -27t-7.5 -22t-5 -21q-11 -44 -17 -69t-9.5 -42t-5 -32t-3.5 -37q-2 -27 -10 -35.5t-34 -12.5q-2 0 -19 10q-12 4 -30 9q-16 4 -25 7t-14.5 6t-9.5 7t-8 11q-7 10 -12 10q-3 0 -9 -6q-16 -14 -39 -24
t-37 -10q-17 0 -36 14t-34.5 35t-26 46t-10.5 48q0 29 7 63.5t20 66.5q34 93 145 177q12 9 27 17.5t30 15.5t28 11t21 4t13 -5t9 -19q2 -9 7 -16.5t8 -7.5t5.5 4t14.5 28q9 21 38 21q7 0 12 -0.5t10.5 -3.5t13 -9.5t19.5 -18.5q6 -5 11.5 -9.5t11.5 -7.5q15 -10 21 -16.5
t6 -13.5q0 -4 -5 -16zM216 323q-7 0 -14 -4.5t-18 -16.5q-11 -11 -17.5 -18.5t-11 -14t-8.5 -14t-8 -19.5q-4 -10 -7.5 -19t-8.5 -17q-7 -11 -7 -22q0 -13 9 -13q2 0 16 9t25 17q16 12 18.5 16.5t3.5 19.5q2 11 11 33q3 5 5.5 11.5t5.5 15.5q5 19 8 24q4 4 4 7q0 5 -6 5z
M414 581q-14 -7 -22 -7q-11 0 -20.5 7.5t-30.5 33.5q-5 5 -11 10.5t-18 15.5q-83 -57 -113 -57q-16 0 -28 6t-12 14q0 9 13.5 25t44.5 44q15 14 33 30.5t38 36.5q13 12 23 16t25 4q16 0 26.5 -4.5t23.5 -17.5q12 -11 18.5 -17t10.5 -10l6.5 -6.5t7.5 -6.5q62 -57 62 -74
q0 -4 -4 -11t-8 -9l-53 -19z" />
    <glyph glyph-name="atilde" unicode="&#xe3;" horiz-adv-x="443" 
d="M409 370l-8 -18t-9 -18q-4 -9 -3.5 -9t-4.5 -9q-10 -22 -17 -37t-11.5 -27t-7.5 -22t-5 -21q-11 -44 -17 -69t-9.5 -42t-5 -32t-3.5 -37q-2 -27 -10 -35.5t-34 -12.5q-2 0 -19 10q-12 4 -30 9q-16 4 -25 7t-14.5 6t-9.5 7t-8 11q-7 10 -12 10q-3 0 -9 -6q-16 -14 -39 -24
t-37 -10q-17 0 -36 14t-34.5 35t-26 46t-10.5 48q0 29 7 63.5t20 66.5q34 93 145 177q12 9 27 17.5t30 15.5t28 11t21 4t13 -5t9 -19q2 -9 7 -16.5t8 -7.5t5.5 4t14.5 28q9 21 38 21q7 0 12 -0.5t10.5 -3.5t13 -9.5t19.5 -18.5q6 -5 11.5 -9.5t11.5 -7.5q15 -10 21 -16.5
t6 -13.5q0 -4 -5 -16zM216 323q-7 0 -14 -4.5t-18 -16.5q-11 -11 -17.5 -18.5t-11 -14t-8.5 -14t-8 -19.5q-4 -10 -7.5 -19t-8.5 -17q-7 -11 -7 -22q0 -13 9 -13q2 0 16 9t25 17q16 12 18.5 16.5t3.5 19.5q2 11 11 33q3 5 5.5 11.5t5.5 15.5q5 19 8 24q4 4 4 7q0 5 -6 5z
M317 723q20 0 44.5 -8t45.5 -20q4 -3 6 -3q3 0 9 6q22 27 39 27q5 0 9.5 -2t12.5 -9q12 -10 18.5 -15.5t10 -9t4 -6.5t0.5 -7q0 -8 -9 -20t-30 -33q-23 -22 -47.5 -32.5t-56.5 -10.5q-20 0 -39 6t-54 26q-5 3 -8 3q-5 0 -9 -7q-11 -17 -19.5 -24.5t-18.5 -7.5q-5 0 -13 5.5
t-27 21.5q-11 11 -11 22q0 9 9 24t23 29q43 45 111 45z" />
    <glyph glyph-name="adieresis" unicode="&#xe4;" horiz-adv-x="443" 
d="M409 370l-8 -18t-9 -18q-4 -9 -3.5 -9t-4.5 -9q-10 -22 -17 -37t-11.5 -27t-7.5 -22t-5 -21q-11 -44 -17 -69t-9.5 -42t-5 -32t-3.5 -37q-2 -27 -10 -35.5t-34 -12.5q-2 0 -19 10q-12 4 -30 9q-16 4 -25 7t-14.5 6t-9.5 7t-8 11q-7 10 -12 10q-3 0 -9 -6q-16 -14 -39 -24
t-37 -10q-17 0 -36 14t-34.5 35t-26 46t-10.5 48q0 29 7 63.5t20 66.5q34 93 145 177q12 9 27 17.5t30 15.5t28 11t21 4t13 -5t9 -19q2 -9 7 -16.5t8 -7.5t5.5 4t14.5 28q9 21 38 21q7 0 12 -0.5t10.5 -3.5t13 -9.5t19.5 -18.5q6 -5 11.5 -9.5t11.5 -7.5q15 -10 21 -16.5
t6 -13.5q0 -4 -5 -16zM216 323q-7 0 -14 -4.5t-18 -16.5q-11 -11 -17.5 -18.5t-11 -14t-8.5 -14t-8 -19.5q-4 -10 -7.5 -19t-8.5 -17q-7 -11 -7 -22q0 -13 9 -13q2 0 16 9t25 17q16 12 18.5 16.5t3.5 19.5q2 11 11 33q3 5 5.5 11.5t5.5 15.5q5 19 8 24q4 4 4 7q0 5 -6 5z
M252 756q16 0 54 -29q26 -20 26 -44q0 -10 -5.5 -23t-19.5 -38q-5 -7 -8 -14q-19 -36 -44 -36q-12 0 -25 7t-23.5 18t-17 24.5t-6.5 26.5q0 11 3.5 23t12.5 34q12 27 24 39t29 12zM425 755q8 0 24.5 -9t33.5 -23q10 -8 16.5 -18.5t6.5 -18.5q0 -5 -5 -18.5t-12 -29t-14 -29
t-11 -18.5q-14 -15 -35 -15q-14 0 -26.5 6t-22.5 16.5t-16 23.5t-6 27t7 35.5t21 46.5q13 24 39 24z" />
    <glyph glyph-name="aring" unicode="&#xe5;" horiz-adv-x="443" 
d="M409 370l-8 -18t-9 -18q-4 -9 -3.5 -9t-4.5 -9q-10 -22 -17 -37t-11.5 -27t-7.5 -22t-5 -21q-11 -44 -17 -69t-9.5 -42t-5 -32t-3.5 -37q-2 -27 -10 -35.5t-34 -12.5q-2 0 -19 10q-12 4 -30 9q-16 4 -25 7t-14.5 6t-9.5 7t-8 11q-7 10 -12 10q-3 0 -9 -6q-16 -14 -39 -24
t-37 -10q-17 0 -36 14t-34.5 35t-26 46t-10.5 48q0 29 7 63.5t20 66.5q34 93 145 177q12 9 27 17.5t30 15.5t28 11t21 4t13 -5t9 -19q2 -9 7 -16.5t8 -7.5t5.5 4t14.5 28q9 21 38 21q7 0 12 -0.5t10.5 -3.5t13 -9.5t19.5 -18.5q6 -5 11.5 -9.5t11.5 -7.5q15 -10 21 -16.5
t6 -13.5q0 -4 -5 -16zM216 323q-7 0 -14 -4.5t-18 -16.5q-11 -11 -17.5 -18.5t-11 -14t-8.5 -14t-8 -19.5q-4 -10 -7.5 -19t-8.5 -17q-7 -11 -7 -22q0 -13 9 -13q2 0 16 9t25 17q16 12 18.5 16.5t3.5 19.5q2 11 11 33q3 5 5.5 11.5t5.5 15.5q5 19 8 24q4 4 4 7q0 5 -6 5z
M345 783q4 0 13 -1t18 -3t17 -4t11 -3q11 -5 19 -15.5t19 -34.5q6 -11 9 -18.5t5 -14t2.5 -12.5t0.5 -15q0 -17 -10 -36.5t-25.5 -36.5t-33.5 -28t-33 -11q-71 0 -94 26q-5 5 -10.5 15.5t-10 22t-8 22t-3.5 16.5q0 29 35 85q28 46 79 46zM347 698q-14 0 -22 -10.5t-8 -27.5
q0 -13 10.5 -22.5t24.5 -9.5q8 0 16.5 12t8.5 23q0 3 -2 9.5t-4 11.5q-6 14 -24 14z" />
    <glyph glyph-name="ae" unicode="&#xe6;" horiz-adv-x="615" 
d="M297 141q-3 -7 -12 -14q-6 -6 -6 -8t5 -8t9 -8q6 -5 13 -5q5 0 11.5 2t16.5 5q10 4 16 6.5t11 5.5t10.5 8t15.5 14q29 26 54 26q14 0 27 -5t23 -15q8 -6 15.5 -18.5t7.5 -17.5q0 -9 -24 -33t-57 -49t-63.5 -38.5t-53.5 -13.5q-30 0 -61 16t-57 45q-32 -29 -63 -44.5
t-57 -15.5q-22 0 -44.5 12.5t-40.5 32.5t-29.5 44.5t-11.5 48.5q0 12 5 29t14 36.5t21 40t26 38.5q39 51 79 51q7 0 19 -2t25 -4.5t24 -5.5t16 -6q4 -3 7 -3q7 0 14 16.5t7 32.5q0 20 -13 33.5t-33 13.5q-21 0 -41.5 -8t-55.5 -31q-13 -8 -21 -8q-15 0 -25 19.5t-10 48.5
q0 6 3 10t14 12q14 10 28 27q32 32 85 48q18 6 38.5 10t31.5 4t25 -3.5t26.5 -8.5t23.5 -11.5t16 -13.5q6 -7 9 -11t6 -7t6 -6.5t8 -9.5q7 -7 8 -7q3 0 8 6q12 13 31 25t40 21t42 14.5t38 5.5q18 0 37.5 -11t29.5 -27q11 -17 17 -43t6 -55q0 -32 -7.5 -60.5t-19.5 -42.5
t-38 -29t-59.5 -28.5t-70 -24t-68.5 -14.5q-10 -2 -13 -4t-7 -11zM161 219q-1 0 -6.5 -2.5t-12 -6t-12.5 -7.5l-9 -6q-39 -33 -39 -88q0 -6 3 -11.5t6 -5.5q2 0 11 8.5t18 19.5t17.5 26.5t13.5 29.5q6 17 11 24q7 8 7 12q0 5 -8 7zM453 393q-14 0 -34.5 -10.5t-30.5 -21.5
q-5 -7 -7 -10t-5 -12q-2 -8 -4.5 -14.5t-5.5 -12.5q-3 -8 -3.5 -9.5t-0.5 -3.5q0 -9 6 -9q2 0 9 5q5 2 10.5 4.5t11.5 6.5q29 13 54 49q5 5 12 17q7 9 7 11q0 4 -5.5 7t-13.5 3z" />
    <glyph glyph-name="ccedilla" unicode="&#xe7;" horiz-adv-x="380" 
d="M268 92q-1 -11 -3 -17.5t-7 -13t-16 -15t-30 -23.5q-14 -9 -25 -13.5t-30 -8.5q-14 -3 -28.5 -5.5t-29.5 -4.5q-19 -5 -19 -29q0 -5 1.5 -7.5t8.5 -6.5q24 -16 24 -49t-26 -56.5t-63 -23.5q-31 0 -58 21q-8 6 -14.5 13.5t-6.5 11.5t3 7t17 14l7 7q10 11 15 11q2 0 4.5 -2
t16.5 -13q10 -8 20 -8q8 0 14 7t6 16q0 11 -6 16.5t-24 10.5q-13 3 -13 15q0 8 8 22.5t16 21.5q13 11 13 15q0 1 -0.5 2.5t-5 5t-13.5 10t-26 18.5q-9 6 -17 19t-15 29t-11 33t-4 32q0 33 10.5 69t29 71.5t43.5 67t54 55.5q16 13 36.5 25t41 21t39 14.5t30.5 5.5
q20 0 48.5 -12.5t50.5 -30.5q10 -8 16 -15.5t9.5 -16.5t4.5 -20.5t1 -29.5q0 -32 -6 -49t-22 -31q-14 -13 -32.5 -23t-26.5 -10q-4 0 -17 5q-8 3 -19 9q-29 11 -29 24q0 1 14 34q5 10 5 15q0 8 -7 8q-8 0 -23.5 -14t-28.5 -32q-25 -35 -39.5 -68.5t-14.5 -53.5q0 -31 33 -31
q7 0 12.5 0.5t11.5 3.5t15 9t23 16q10 7 18 7q5 0 8.5 -2t10.5 -9q5 -6 7 -8t9 -7q9 -9 9 -16q0 -3 -5 -20z" />
    <glyph glyph-name="egrave" unicode="&#xe8;" horiz-adv-x="397" 
d="M232 488q28 0 53.5 -11t45 -29.5t31 -42.5t11.5 -51q0 -56 -29 -101.5t-77 -66.5q-20 -9 -46 -15t-45 -6q-16 0 -39 23q-7 7 -10 7q-5 0 -8 -7t-3 -18q0 -51 32 -51q21 0 42.5 3.5t41.5 11.5q11 4 18 4q15 0 27 -21q3 -5 5.5 -12t2.5 -9q0 -1 -3 -9.5t-7 -19l-8 -21
t-7 -16.5q-2 -4 -4 -6.5t-7 -4.5t-13.5 -5t-23.5 -8q-20 -6 -31.5 -9.5t-19.5 -5t-16.5 -1.5h-22.5q-37 0 -68.5 12.5t-54.5 34.5t-36 52.5t-13 65.5q0 33 9 68t25 68.5t39 64t52 54.5q49 42 85.5 60t71.5 18zM233 363q-2 0 -9 -7q-4 -5 -8 -8.5t-9 -8.5q-21 -20 -35 -38
t-14 -24q0 -8 9 -8q3 0 9.5 2t14 4.5t13.5 5.5t8 5q4 4 9 11.5t9 16t6.5 16.5t2.5 13q0 20 -6 20zM318 756q24 0 32 -17q3 -6 21 -97q2 -14 3.5 -27.5t1.5 -29.5q0 -19 -40 -19q-8 0 -18.5 5.5t-19.5 14.5q-2 1 -3 2.5t-3.5 5t-8 10t-14.5 18.5q-5 5 -4.5 5t-4.5 6l-10 10
l-10 10q-14 13 -22 21.5t-12.5 14.5t-5.5 10t-1 9q0 12 35 26q10 4 23 8t25 7t22 5t14 2z" />
    <glyph glyph-name="eacute" unicode="&#xe9;" horiz-adv-x="397" 
d="M232 488q28 0 53.5 -11t45 -29.5t31 -42.5t11.5 -51q0 -56 -29 -101.5t-77 -66.5q-20 -9 -46 -15t-45 -6q-16 0 -39 23q-7 7 -10 7q-5 0 -8 -7t-3 -18q0 -51 32 -51q21 0 42.5 3.5t41.5 11.5q11 4 18 4q15 0 27 -21q3 -5 5.5 -12t2.5 -9q0 -1 -3 -9.5t-7 -19l-8 -21
t-7 -16.5q-2 -4 -4 -6.5t-7 -4.5t-13.5 -5t-23.5 -8q-20 -6 -31.5 -9.5t-19.5 -5t-16.5 -1.5h-22.5q-37 0 -68.5 12.5t-54.5 34.5t-36 52.5t-13 65.5q0 33 9 68t25 68.5t39 64t52 54.5q49 42 85.5 60t71.5 18zM233 363q-2 0 -9 -7q-4 -5 -8 -8.5t-9 -8.5q-21 -20 -35 -38
t-14 -24q0 -8 9 -8q3 0 9.5 2t14 4.5t13.5 5.5t8 5q4 4 9 11.5t9 16t6.5 16.5t2.5 13q0 20 -6 20zM277 589q-21 -11 -33.5 -14.5t-23.5 -3.5q-14 0 -23.5 5.5t-9.5 13.5q0 5 19.5 29t48.5 56q20 22 31.5 34.5t18.5 18t12.5 6.5t13.5 1q6 0 11.5 -1t13 -4.5t19 -10
t28.5 -16.5q31 -17 31 -28q0 -6 -3 -11t-14.5 -11.5t-34.5 -17t-63 -28.5z" />
    <glyph glyph-name="ecircumflex" unicode="&#xea;" horiz-adv-x="397" 
d="M232 488q28 0 53.5 -11t45 -29.5t31 -42.5t11.5 -51q0 -56 -29 -101.5t-77 -66.5q-20 -9 -46 -15t-45 -6q-16 0 -39 23q-7 7 -10 7q-5 0 -8 -7t-3 -18q0 -51 32 -51q21 0 42.5 3.5t41.5 11.5q11 4 18 4q15 0 27 -21q3 -5 5.5 -12t2.5 -9q0 -1 -3 -9.5t-7 -19l-8 -21
t-7 -16.5q-2 -4 -4 -6.5t-7 -4.5t-13.5 -5t-23.5 -8q-20 -6 -31.5 -9.5t-19.5 -5t-16.5 -1.5h-22.5q-37 0 -68.5 12.5t-54.5 34.5t-36 52.5t-13 65.5q0 33 9 68t25 68.5t39 64t52 54.5q49 42 85.5 60t71.5 18zM233 363q-2 0 -9 -7q-4 -5 -8 -8.5t-9 -8.5q-21 -20 -35 -38
t-14 -24q0 -8 9 -8q3 0 9.5 2t14 4.5t13.5 5.5t8 5q4 4 9 11.5t9 16t6.5 16.5t2.5 13q0 20 -6 20zM392 581q-14 -7 -22 -7q-11 0 -20.5 7.5t-30.5 33.5q-5 5 -11 10.5t-18 15.5q-83 -57 -113 -57q-16 0 -28 6t-12 14q0 9 13.5 25t44.5 44q15 14 33 30.5t38 36.5q13 12 23 16
t25 4q16 0 26.5 -4.5t23.5 -17.5q12 -11 18.5 -17t10.5 -10l6.5 -6.5t7.5 -6.5q62 -57 62 -74q0 -4 -4 -11t-8 -9l-53 -19z" />
    <glyph glyph-name="edieresis" unicode="&#xeb;" horiz-adv-x="397" 
d="M232 488q28 0 53.5 -11t45 -29.5t31 -42.5t11.5 -51q0 -56 -29 -101.5t-77 -66.5q-20 -9 -46 -15t-45 -6q-16 0 -39 23q-7 7 -10 7q-5 0 -8 -7t-3 -18q0 -51 32 -51q21 0 42.5 3.5t41.5 11.5q11 4 18 4q15 0 27 -21q3 -5 5.5 -12t2.5 -9q0 -1 -3 -9.5t-7 -19l-8 -21
t-7 -16.5q-2 -4 -4 -6.5t-7 -4.5t-13.5 -5t-23.5 -8q-20 -6 -31.5 -9.5t-19.5 -5t-16.5 -1.5h-22.5q-37 0 -68.5 12.5t-54.5 34.5t-36 52.5t-13 65.5q0 33 9 68t25 68.5t39 64t52 54.5q49 42 85.5 60t71.5 18zM233 363q-2 0 -9 -7q-4 -5 -8 -8.5t-9 -8.5q-21 -20 -35 -38
t-14 -24q0 -8 9 -8q3 0 9.5 2t14 4.5t13.5 5.5t8 5q4 4 9 11.5t9 16t6.5 16.5t2.5 13q0 20 -6 20zM230 756q16 0 54 -29q26 -20 26 -44q0 -10 -5.5 -23t-19.5 -38q-5 -7 -8 -14q-19 -36 -44 -36q-12 0 -25 7t-23.5 18t-17 24.5t-6.5 26.5q0 11 3.5 23t12.5 34q12 27 24 39
t29 12zM403 755q8 0 24.5 -9t33.5 -23q10 -8 16.5 -18.5t6.5 -18.5q0 -5 -5 -18.5t-12 -29t-14 -29t-11 -18.5q-14 -15 -35 -15q-14 0 -26.5 6t-22.5 16.5t-16 23.5t-6 27t7 35.5t21 46.5q13 24 39 24z" />
    <glyph glyph-name="igrave" unicode="&#xec;" horiz-adv-x="237" 
d="M66 21q-3 -11 -6.5 -15t-14.5 -9q-18 -7 -29 -7q-8 0 -14.5 4.5t-16.5 18.5q-3 3 -6 6.5t-7 6.5l-13 4l-10 2q-5 0 -11.5 6.5t-12 15t-9 18t-3.5 17.5q0 6 10 30.5t26.5 61.5t38.5 83t47 95l54 103q10 14 19 14q12 0 30 -9.5t31 -22.5q23 -22 35.5 -39.5t12.5 -26.5
q0 -5 -3 -11.5t-14 -26.5q-35 -65 -69 -150q-32 -80 -45 -114q-3 -8 -6 -15t-5 -14zM238 756q24 0 32 -17q3 -6 21 -97q2 -14 3.5 -27.5t1.5 -29.5q0 -19 -40 -19q-8 0 -18.5 5.5t-19.5 14.5q-2 1 -3 2.5t-3.5 5t-8 10t-14.5 18.5q-5 5 -4.5 5t-4.5 6l-10 10l-10 10
q-14 13 -22 21.5t-12.5 14.5t-5.5 10t-1 9q0 12 35 26q10 4 23 8t25 7t22 5t14 2z" />
    <glyph glyph-name="iacute" unicode="&#xed;" horiz-adv-x="237" 
d="M66 21q-3 -11 -6.5 -15t-14.5 -9q-18 -7 -29 -7q-8 0 -14.5 4.5t-16.5 18.5q-3 3 -6 6.5t-7 6.5l-13 4l-10 2q-5 0 -11.5 6.5t-12 15t-9 18t-3.5 17.5q0 6 10 30.5t26.5 61.5t38.5 83t47 95l54 103q10 14 19 14q12 0 30 -9.5t31 -22.5q23 -22 35.5 -39.5t12.5 -26.5
q0 -5 -3 -11.5t-14 -26.5q-35 -65 -69 -150q-32 -80 -45 -114q-3 -8 -6 -15t-5 -14zM223 589q-21 -11 -33.5 -14.5t-23.5 -3.5q-14 0 -23.5 5.5t-9.5 13.5q0 5 19.5 29t48.5 56q20 22 31.5 34.5t18.5 18t12.5 6.5t13.5 1q6 0 11.5 -1t13 -4.5t19 -10t28.5 -16.5
q31 -17 31 -28q0 -6 -3 -11t-14.5 -11.5t-34.5 -17t-63 -28.5z" />
    <glyph glyph-name="icircumflex" unicode="&#xee;" horiz-adv-x="237" 
d="M66 21q-3 -11 -6.5 -15t-14.5 -9q-18 -7 -29 -7q-8 0 -14.5 4.5t-16.5 18.5q-3 3 -6 6.5t-7 6.5l-13 4l-10 2q-5 0 -11.5 6.5t-12 15t-9 18t-3.5 17.5q0 6 10 30.5t26.5 61.5t38.5 83t47 95l54 103q10 14 19 14q12 0 30 -9.5t31 -22.5q23 -22 35.5 -39.5t12.5 -26.5
q0 -5 -3 -11.5t-14 -26.5q-35 -65 -69 -150q-32 -80 -45 -114q-3 -8 -6 -15t-5 -14zM311 581q-14 -7 -22 -7q-11 0 -20.5 7.5t-30.5 33.5q-5 5 -11 10.5t-18 15.5q-83 -57 -113 -57q-16 0 -28 6t-12 14q0 9 13.5 25t44.5 44q15 14 33 30.5t38 36.5q13 12 23 16t25 4
q16 0 26.5 -4.5t23.5 -17.5q12 -11 18.5 -17t10.5 -10l6.5 -6.5t7.5 -6.5q62 -57 62 -74q0 -4 -4 -11t-8 -9l-53 -19z" />
    <glyph glyph-name="idieresis" unicode="&#xef;" horiz-adv-x="237" 
d="M66 21q-3 -11 -6.5 -15t-14.5 -9q-18 -7 -29 -7q-8 0 -14.5 4.5t-16.5 18.5q-3 3 -6 6.5t-7 6.5l-13 4l-10 2q-5 0 -11.5 6.5t-12 15t-9 18t-3.5 17.5q0 6 10 30.5t26.5 61.5t38.5 83t47 95l54 103q10 14 19 14q12 0 30 -9.5t31 -22.5q23 -22 35.5 -39.5t12.5 -26.5
q0 -5 -3 -11.5t-14 -26.5q-35 -65 -69 -150q-32 -80 -45 -114q-3 -8 -6 -15t-5 -14zM173 613q-16 -32 -40 -32q-11 0 -22.5 6.5t-20.5 16t-15 21.5t-6 24q0 10 3 20.5t12 30.5q11 25 21.5 35.5t25.5 10.5q14 0 49 -26q23 -19 23 -39q0 -9 -4.5 -20.5t-18.5 -34.5zM297 746
q9 0 21.5 -7t24.5 -16.5t20 -20.5t8 -18q0 -4 -4.5 -16.5t-10.5 -26t-12.5 -26t-10.5 -16.5q-12 -14 -32 -14q-12 0 -23.5 5.5t-20.5 15t-14.5 21.5t-5.5 24q0 26 25 73q13 22 35 22z" />
    <glyph glyph-name="eth" unicode="&#xf0;" horiz-adv-x="458" 
d="M226 541q2 18 -7 18l-9 -4q-21 -6 -45 -18q-1 -1 -5 -1q-26 0 -26 24l-2 11q-1 3 -1 5q0 4 3.5 5.5t14.5 6.5q3 1 16 6.5t36 15.5q12 6 12 15q0 4 -6 15q-1 3 -3 9.5t-3.5 13.5t-2.5 13.5t-1 10.5q0 6 4.5 13.5t10.5 14t12.5 11.5t11.5 5q3 0 13 -3t22 -6.5t23 -7.5
t17 -7q15 -8 19.5 -12.5t10.5 -16.5q1 -6 7 -6q5 0 14 6l17 7l10.5 3.5t7.5 3.5q7 3 10 3t8.5 -3t11 -7t9.5 -8t4 -6q0 -4 -2.5 -6t-14.5 -8l-6 -3t-11 -6q-3 -2 -8.5 -4.5t-11.5 -5.5t-11 -5t-6 -3q-9 -4 -9 -11q0 -3 0.5 -7t1.5 -9q0 -1 0.5 -3.5t3 -16.5t7 -43.5
t13.5 -84.5q3 -20 5.5 -41t5 -40.5t3.5 -35t1 -24.5q0 -55 -25 -110.5t-64 -100.5t-87.5 -73.5t-96.5 -28.5q-28 0 -57 16t-52 40.5t-38 55.5t-15 61q0 36 14.5 82t40.5 93q18 32 50.5 67.5t68.5 61.5q22 16 57 16q11 0 19 -5q7 -6 12 -6q4 0 4 6q0 5 -0.5 9.5t-1.5 9.5z
M239 345q-3 0 -6.5 -3.5t-16.5 -18.5q-20 -23 -30.5 -36t-17 -22t-10 -16.5t-9.5 -20.5q-9 -17 -18 -42q-8 -13 -8 -23q0 -11 8 -11q4 0 17 11.5t27 26.5q6 6 10.5 12t10.5 15t15 24l24 40q14 24 14 47q0 7 -2.5 12t-7.5 5z" />
    <glyph glyph-name="ntilde" unicode="&#xf1;" horiz-adv-x="446" 
d="M186 312q-9 -5 -11.5 -8.5t-6.5 -17.5q-2 -8 -2.5 -8t-3.5 -8l-13 -32q-4 -9 -7.5 -18t-7.5 -17l-16 -45q-4 -14 -8 -27t-9 -27l-22 -49q-11 -29 -17 -37t-18 -8q-10 0 -24 7.5t-44 28.5q-17 12 -27 20t-15.5 14.5t-7.5 12t-2 12.5q0 4 2.5 12t9 23.5t17 39.5t27.5 60
q18 40 29.5 66t20 48t15.5 44.5t16 56.5q14 52 41 52q6 0 14 -3t25 -12q6 -2 12.5 -5t13.5 -8q14 -4 18 -10l5 -11q3 -8 9 -8q3 0 11 5q7 5 19 11t24 11.5t21.5 9t13.5 3.5q11 0 28 -13.5t33 -34.5q36 -45 36 -92q0 -19 -7.5 -53t-20.5 -76.5t-31 -91t-38 -96.5
q-8 -18 -15 -24.5t-22 -11.5q-14 -4 -22 -6.5t-12 -3.5t-5.5 -1h-2.5q-7 0 -21.5 10t-29 23.5t-25.5 26.5t-11 20q0 6 6 17q6 12 10 18.5t7 13t6.5 14.5t9.5 22q3 6 4.5 10t4 9t6 13t10.5 22q16 34 26.5 66.5t10.5 46.5q0 10 -9 10q-2 0 -4.5 -1.5t-13.5 -9.5zM260 723
q20 0 44.5 -8t45.5 -20q4 -3 6 -3q3 0 9 6q22 27 39 27q5 0 9.5 -2t12.5 -9q12 -10 18.5 -15.5t10 -9t4 -6.5t0.5 -7q0 -8 -9 -20t-30 -33q-23 -22 -47.5 -32.5t-56.5 -10.5q-20 0 -39 6t-54 26q-5 3 -8 3q-5 0 -9 -7q-11 -17 -19.5 -24.5t-18.5 -7.5q-5 0 -13 5.5t-27 21.5
q-11 11 -11 22q0 9 9 24t23 29q43 45 111 45z" />
    <glyph glyph-name="ograve" unicode="&#xf2;" horiz-adv-x="452" 
d="M315 421q4 0 12 -2t16.5 -5t16 -6.5t10.5 -6.5q8 -7 13 -32.5t5 -60.5q0 -53 -20.5 -106.5t-57.5 -99.5q-21 -26 -45 -47t-49.5 -36t-51 -23t-48.5 -8q-29 0 -58 15.5t-52 40.5t-38 55.5t-15 60.5q0 27 8.5 59t23.5 65t35.5 64.5t44.5 56.5q20 22 49.5 45t61.5 43
q15 10 27.5 13.5t28.5 3.5q19 0 28 -9.5t21 -39.5q3 -7 6 -13.5t5 -13.5q3 -9 9 -12zM118 173q-8 -13 -8 -23q0 -11 8 -11q4 0 17 11.5t27 26.5q5 6 9.5 12t10.5 15t15 24l24 40q14 24 14 47q0 7 -2.5 12t-7.5 5q-3 0 -6.5 -3.5t-16.5 -18.5q-19 -23 -29.5 -36t-17 -22
t-10 -16.5t-9.5 -20.5zM372 756q24 0 32 -17q3 -6 21 -97q2 -14 3.5 -27.5t1.5 -29.5q0 -19 -40 -19q-8 0 -18.5 5.5t-19.5 14.5q-2 1 -3 2.5t-3.5 5t-8 10t-14.5 18.5q-5 5 -4.5 5t-4.5 6l-10 10l-10 10q-14 13 -22 21.5t-12.5 14.5t-5.5 10t-1 9q0 12 35 26q10 4 23 8
t25 7t22 5t14 2z" />
    <glyph glyph-name="oacute" unicode="&#xf3;" horiz-adv-x="452" 
d="M315 421q4 0 12 -2t16.5 -5t16 -6.5t10.5 -6.5q8 -7 13 -32.5t5 -60.5q0 -53 -20.5 -106.5t-57.5 -99.5q-21 -26 -45 -47t-49.5 -36t-51 -23t-48.5 -8q-29 0 -58 15.5t-52 40.5t-38 55.5t-15 60.5q0 27 8.5 59t23.5 65t35.5 64.5t44.5 56.5q20 22 49.5 45t61.5 43
q15 10 27.5 13.5t28.5 3.5q19 0 28 -9.5t21 -39.5q3 -7 6 -13.5t5 -13.5q3 -9 9 -12zM118 173q-8 -13 -8 -23q0 -11 8 -11q4 0 17 11.5t27 26.5q5 6 9.5 12t10.5 15t15 24l24 40q14 24 14 47q0 7 -2.5 12t-7.5 5q-3 0 -6.5 -3.5t-16.5 -18.5q-19 -23 -29.5 -36t-17 -22
t-10 -16.5t-9.5 -20.5zM304 589q-21 -11 -33.5 -14.5t-23.5 -3.5q-14 0 -23.5 5.5t-9.5 13.5q0 5 19.5 29t48.5 56q20 22 31.5 34.5t18.5 18t12.5 6.5t13.5 1q6 0 11.5 -1t13 -4.5t19 -10t28.5 -16.5q31 -17 31 -28q0 -6 -3 -11t-14.5 -11.5t-34.5 -17t-63 -28.5z" />
    <glyph glyph-name="ocircumflex" unicode="&#xf4;" horiz-adv-x="452" 
d="M315 421q4 0 12 -2t16.5 -5t16 -6.5t10.5 -6.5q8 -7 13 -32.5t5 -60.5q0 -53 -20.5 -106.5t-57.5 -99.5q-21 -26 -45 -47t-49.5 -36t-51 -23t-48.5 -8q-29 0 -58 15.5t-52 40.5t-38 55.5t-15 60.5q0 27 8.5 59t23.5 65t35.5 64.5t44.5 56.5q20 22 49.5 45t61.5 43
q15 10 27.5 13.5t28.5 3.5q19 0 28 -9.5t21 -39.5q3 -7 6 -13.5t5 -13.5q3 -9 9 -12zM118 173q-8 -13 -8 -23q0 -11 8 -11q4 0 17 11.5t27 26.5q5 6 9.5 12t10.5 15t15 24l24 40q14 24 14 47q0 7 -2.5 12t-7.5 5q-3 0 -6.5 -3.5t-16.5 -18.5q-19 -23 -29.5 -36t-17 -22
t-10 -16.5t-9.5 -20.5zM418 581q-14 -7 -22 -7q-11 0 -20.5 7.5t-30.5 33.5q-5 5 -11 10.5t-18 15.5q-83 -57 -113 -57q-16 0 -28 6t-12 14q0 9 13.5 25t44.5 44q15 14 33 30.5t38 36.5q13 12 23 16t25 4q16 0 26.5 -4.5t23.5 -17.5q12 -11 18.5 -17t10.5 -10l6.5 -6.5
t7.5 -6.5q62 -57 62 -74q0 -4 -4 -11t-8 -9l-53 -19z" />
    <glyph glyph-name="otilde" unicode="&#xf5;" horiz-adv-x="452" 
d="M315 421q4 0 12 -2t16.5 -5t16 -6.5t10.5 -6.5q8 -7 13 -32.5t5 -60.5q0 -53 -20.5 -106.5t-57.5 -99.5q-21 -26 -45 -47t-49.5 -36t-51 -23t-48.5 -8q-29 0 -58 15.5t-52 40.5t-38 55.5t-15 60.5q0 27 8.5 59t23.5 65t35.5 64.5t44.5 56.5q20 22 49.5 45t61.5 43
q15 10 27.5 13.5t28.5 3.5q19 0 28 -9.5t21 -39.5q3 -7 6 -13.5t5 -13.5q3 -9 9 -12zM118 173q-8 -13 -8 -23q0 -11 8 -11q4 0 17 11.5t27 26.5q5 6 9.5 12t10.5 15t15 24l24 40q14 24 14 47q0 7 -2.5 12t-7.5 5q-3 0 -6.5 -3.5t-16.5 -18.5q-19 -23 -29.5 -36t-17 -22
t-10 -16.5t-9.5 -20.5zM322 723q20 0 44.5 -8t45.5 -20q4 -3 6 -3q3 0 9 6q22 27 39 27q5 0 9.5 -2t12.5 -9q12 -10 18.5 -15.5t10 -9t4 -6.5t0.5 -7q0 -8 -9 -20t-30 -33q-23 -22 -47.5 -32.5t-56.5 -10.5q-20 0 -39 6t-54 26q-5 3 -8 3q-5 0 -9 -7q-11 -17 -19.5 -24.5
t-18.5 -7.5q-5 0 -13 5.5t-27 21.5q-11 11 -11 22q0 9 9 24t23 29q43 45 111 45z" />
    <glyph glyph-name="odieresis" unicode="&#xf6;" horiz-adv-x="452" 
d="M315 421q4 0 12 -2t16.5 -5t16 -6.5t10.5 -6.5q8 -7 13 -32.5t5 -60.5q0 -53 -20.5 -106.5t-57.5 -99.5q-21 -26 -45 -47t-49.5 -36t-51 -23t-48.5 -8q-29 0 -58 15.5t-52 40.5t-38 55.5t-15 60.5q0 27 8.5 59t23.5 65t35.5 64.5t44.5 56.5q20 22 49.5 45t61.5 43
q15 10 27.5 13.5t28.5 3.5q19 0 28 -9.5t21 -39.5q3 -7 6 -13.5t5 -13.5q3 -9 9 -12zM118 173q-8 -13 -8 -23q0 -11 8 -11q4 0 17 11.5t27 26.5q5 6 9.5 12t10.5 15t15 24l24 40q14 24 14 47q0 7 -2.5 12t-7.5 5q-3 0 -6.5 -3.5t-16.5 -18.5q-19 -23 -29.5 -36t-17 -22
t-10 -16.5t-9.5 -20.5zM257 756q16 0 54 -29q26 -20 26 -44q0 -10 -5.5 -23t-19.5 -38q-5 -7 -8 -14q-19 -36 -44 -36q-12 0 -25 7t-23.5 18t-17 24.5t-6.5 26.5q0 11 3.5 23t12.5 34q12 27 24 39t29 12zM430 755q8 0 24.5 -9t33.5 -23q10 -8 16.5 -18.5t6.5 -18.5
q0 -5 -5 -18.5t-12 -29t-14 -29t-11 -18.5q-14 -15 -35 -15q-14 0 -26.5 6t-22.5 16.5t-16 23.5t-6 27t7 35.5t21 46.5q13 24 39 24z" />
    <glyph glyph-name="divide" unicode="&#xf7;" horiz-adv-x="533" 
d="M408 377q30 0 38.5 -3.5t8.5 -15.5q0 -11 -5.5 -26t-13.5 -25q-5 -6 -16 -8.5t-37 -2.5l-49 1q-9 1 -16.5 1h-13.5h-13t-19 -1h-50t-84 -1h-39q-26 0 -33.5 4t-7.5 17q0 10 4.5 23.5t9.5 21.5q7 10 19.5 13t41.5 3h17.5t36.5 -1h37h184zM347 439q-3 -16 -15 -16
q-5 0 -16.5 5t-33.5 17q-29 14 -29 37q0 22 19 66q7 14 13.5 20t15.5 6q5 0 16 -4.5t31 -15.5q28 -15 28 -29v-4t-1.5 -5t-4.5 -9.5t-8 -17.5q-6 -14 -9 -25zM240 143q-3 -9 -5 -17.5t-4 -16.5q-3 -16 -15 -16q-5 0 -16.5 5t-33.5 17q-29 14 -29 37t20 66q11 26 28 26
q5 0 16 -4.5t31 -15.5q28 -15 28 -29v-4t-1.5 -5t-4.5 -9.5t-8 -17.5z" />
    <glyph glyph-name="oslash" unicode="&#xf8;" horiz-adv-x="465" 
d="M345 404q10 -3 16 -5.5t10 -5.5t7.5 -8.5t9.5 -15.5q11 7 26 14t20 7q3 0 9.5 -3t12.5 -7t10.5 -8.5t4.5 -6.5q0 -5 -24 -20t-55 -30q1 -7 1 -12v-8q0 -20 -5.5 -46t-15 -52.5t-21.5 -50.5t-25 -40q-20 -25 -54 -53t-67 -48q-24 -14 -40.5 -19.5t-33.5 -5.5
q-48 0 -115 51q-20 16 -28 25t-12 26q-7 -5 -9 -6t-10 -4t-16 -7t-17 -9q-8 -5 -10 -5.5t-7 -0.5q-26 0 -29 25l-2 12l-2 6q0 2 0.5 3t4 3.5t11.5 6t22 9.5q5 2 9 4.5t8 5.5q11 6 16 8.5t15 5.5q-1 6 -1.5 10.5t-0.5 6.5q0 7 4.5 27t11 43t13.5 44t11 29q42 83 130 150
q39 30 63 42t44 12q32 0 42 -29q3 -8 4.5 -12.5t3.5 -9t5 -11t8 -16.5q2 -2 4 -4.5t4 -6.5l17 -2zM205 205q-8 -6 -11 -7.5t-10 -5.5q-9 -5 -16 -9t-14 -9q-5 -4 -11.5 -7.5t-25.5 -12.5l-12 -6q-2 -5 -2 -8.5v-5.5q0 -16 13 -16q9 0 22.5 9t24.5 22q19 24 36 42zM250 306
q0 14 -3.5 17.5t-16.5 3.5q-6 0 -9.5 -0.5t-8 -4t-11 -10.5t-18.5 -20q-6 -7 -10.5 -12.5t-9 -11.5t-9 -13.5t-10.5 -19.5q5 1 9 3l8 4q8 5 15.5 10t15.5 10q19 12 32.5 18.5t26.5 11.5z" />
    <glyph glyph-name="ugrave" unicode="&#xf9;" horiz-adv-x="457" 
d="M156 61q-2 0 -7 -5q-8 -8 -20.5 -16.5t-26 -16t-26.5 -12.5t-20 -5q-15 0 -32 13t-31 33t-23 43.5t-9 45.5q0 9 3 26t8.5 38t12 43.5t14.5 42.5q1 2 3.5 8.5t10 24.5t21 51t36.5 87q15 35 39 35q12 0 29.5 -9.5t34 -22.5t28.5 -27t12 -24q0 -4 -7 -20q-5 -9 -8.5 -17.5
t-6.5 -16.5q-5 -13 -9.5 -25t-9.5 -25q-8 -18 -15 -37t-12.5 -36.5t-9 -30.5t-3.5 -18q0 -11 9 -11q2 0 10 5q4 2 9 5t10 5q11 6 13.5 9.5t4.5 17.5q4 17 18.5 59t45.5 124q19 49 30 66.5t24 17.5q10 0 31 -3q6 -1 9 -4t11 -14q9 -11 14.5 -17.5t10.5 -10t10.5 -6t14.5 -4.5
q13 -5 13 -20q0 -8 -3.5 -20t-12.5 -33q-20 -50 -34 -89.5t-25.5 -77.5t-21 -78.5t-19.5 -93.5q-3 -26 -18 -26l-9.5 2.5t-20.5 5.5t-20 6t-10 3q-17 6 -26.5 9.5t-14 5.5t-6 3t-2.5 2q-1 2 -3 5t-10 19q-5 11 -8 11zM314 756q24 0 32 -17q3 -6 21 -97q2 -14 3.5 -27.5
t1.5 -29.5q0 -19 -40 -19q-8 0 -18.5 5.5t-19.5 14.5q-2 1 -3 2.5t-3.5 5t-8 10t-14.5 18.5q-5 5 -4.5 5t-4.5 6l-10 10l-10 10q-14 13 -22 21.5t-12.5 14.5t-5.5 10t-1 9q0 12 35 26q10 4 23 8t25 7t22 5t14 2z" />
    <glyph glyph-name="uacute" unicode="&#xfa;" horiz-adv-x="457" 
d="M156 61q-2 0 -7 -5q-8 -8 -20.5 -16.5t-26 -16t-26.5 -12.5t-20 -5q-15 0 -32 13t-31 33t-23 43.5t-9 45.5q0 9 3 26t8.5 38t12 43.5t14.5 42.5q1 2 3.5 8.5t10 24.5t21 51t36.5 87q15 35 39 35q12 0 29.5 -9.5t34 -22.5t28.5 -27t12 -24q0 -4 -7 -20q-5 -9 -8.5 -17.5
t-6.5 -16.5q-5 -13 -9.5 -25t-9.5 -25q-8 -18 -15 -37t-12.5 -36.5t-9 -30.5t-3.5 -18q0 -11 9 -11q2 0 10 5q4 2 9 5t10 5q11 6 13.5 9.5t4.5 17.5q4 17 18.5 59t45.5 124q19 49 30 66.5t24 17.5q10 0 31 -3q6 -1 9 -4t11 -14q9 -11 14.5 -17.5t10.5 -10t10.5 -6t14.5 -4.5
q13 -5 13 -20q0 -8 -3.5 -20t-12.5 -33q-20 -50 -34 -89.5t-25.5 -77.5t-21 -78.5t-19.5 -93.5q-3 -26 -18 -26l-9.5 2.5t-20.5 5.5t-20 6t-10 3q-17 6 -26.5 9.5t-14 5.5t-6 3t-2.5 2q-1 2 -3 5t-10 19q-5 11 -8 11zM306 589q-21 -11 -33.5 -14.5t-23.5 -3.5
q-14 0 -23.5 5.5t-9.5 13.5q0 5 19.5 29t48.5 56q20 22 31.5 34.5t18.5 18t12.5 6.5t13.5 1q6 0 11.5 -1t13 -4.5t19 -10t28.5 -16.5q31 -17 31 -28q0 -6 -3 -11t-14.5 -11.5t-34.5 -17t-63 -28.5z" />
    <glyph glyph-name="ucircumflex" unicode="&#xfb;" horiz-adv-x="457" 
d="M156 61q-2 0 -7 -5q-8 -8 -20.5 -16.5t-26 -16t-26.5 -12.5t-20 -5q-15 0 -32 13t-31 33t-23 43.5t-9 45.5q0 9 3 26t8.5 38t12 43.5t14.5 42.5q1 2 3.5 8.5t10 24.5t21 51t36.5 87q15 35 39 35q12 0 29.5 -9.5t34 -22.5t28.5 -27t12 -24q0 -4 -7 -20q-5 -9 -8.5 -17.5
t-6.5 -16.5q-5 -13 -9.5 -25t-9.5 -25q-8 -18 -15 -37t-12.5 -36.5t-9 -30.5t-3.5 -18q0 -11 9 -11q2 0 10 5q4 2 9 5t10 5q11 6 13.5 9.5t4.5 17.5q4 17 18.5 59t45.5 124q19 49 30 66.5t24 17.5q10 0 31 -3q6 -1 9 -4t11 -14q9 -11 14.5 -17.5t10.5 -10t10.5 -6t14.5 -4.5
q13 -5 13 -20q0 -8 -3.5 -20t-12.5 -33q-20 -50 -34 -89.5t-25.5 -77.5t-21 -78.5t-19.5 -93.5q-3 -26 -18 -26l-9.5 2.5t-20.5 5.5t-20 6t-10 3q-17 6 -26.5 9.5t-14 5.5t-6 3t-2.5 2q-1 2 -3 5t-10 19q-5 11 -8 11zM421 581q-14 -7 -22 -7q-11 0 -20.5 7.5t-30.5 33.5
q-5 5 -11 10.5t-18 15.5q-83 -57 -113 -57q-16 0 -28 6t-12 14q0 9 13.5 25t44.5 44q15 14 33 30.5t38 36.5q13 12 23 16t25 4q16 0 26.5 -4.5t23.5 -17.5q12 -11 18.5 -17t10.5 -10l6.5 -6.5t7.5 -6.5q62 -57 62 -74q0 -4 -4 -11t-8 -9l-53 -19z" />
    <glyph glyph-name="udieresis" unicode="&#xfc;" horiz-adv-x="457" 
d="M156 61q-2 0 -7 -5q-8 -8 -20.5 -16.5t-26 -16t-26.5 -12.5t-20 -5q-15 0 -32 13t-31 33t-23 43.5t-9 45.5q0 9 3 26t8.5 38t12 43.5t14.5 42.5q1 2 3.5 8.5t10 24.5t21 51t36.5 87q15 35 39 35q12 0 29.5 -9.5t34 -22.5t28.5 -27t12 -24q0 -4 -7 -20q-5 -9 -8.5 -17.5
t-6.5 -16.5q-5 -13 -9.5 -25t-9.5 -25q-8 -18 -15 -37t-12.5 -36.5t-9 -30.5t-3.5 -18q0 -11 9 -11q2 0 10 5q4 2 9 5t10 5q11 6 13.5 9.5t4.5 17.5q4 17 18.5 59t45.5 124q19 49 30 66.5t24 17.5q10 0 31 -3q6 -1 9 -4t11 -14q9 -11 14.5 -17.5t10.5 -10t10.5 -6t14.5 -4.5
q13 -5 13 -20q0 -8 -3.5 -20t-12.5 -33q-20 -50 -34 -89.5t-25.5 -77.5t-21 -78.5t-19.5 -93.5q-3 -26 -18 -26l-9.5 2.5t-20.5 5.5t-20 6t-10 3q-17 6 -26.5 9.5t-14 5.5t-6 3t-2.5 2q-1 2 -3 5t-10 19q-5 11 -8 11zM260 756q16 0 54 -29q26 -20 26 -44q0 -10 -5.5 -23
t-19.5 -38q-5 -7 -8 -14q-19 -36 -44 -36q-12 0 -25 7t-23.5 18t-17 24.5t-6.5 26.5q0 11 3.5 23t12.5 34q12 27 24 39t29 12zM433 755q8 0 24.5 -9t33.5 -23q10 -8 16.5 -18.5t6.5 -18.5q0 -5 -5 -18.5t-12 -29t-14 -29t-11 -18.5q-14 -15 -35 -15q-14 0 -26.5 6
t-22.5 16.5t-16 23.5t-6 27t7 35.5t21 46.5q13 24 39 24z" />
    <glyph glyph-name="yacute" unicode="&#xfd;" horiz-adv-x="409" 
d="M-18 214q2 54 9 106.5t21 115.5q2 11 4 17t4.5 9.5t7 6.5t12.5 7q11 6 14.5 7.5t5.5 1.5q5 0 25 -12t38 -26q21 -16 33 -25t17.5 -15.5t6.5 -12t1 -14.5q0 -8 -3 -22.5t-14 -53.5l-7 -31q-8 -48 -12 -82l-6 -28l-2 -14l15 18l1.5 3t7 17.5t17.5 44.5t34 86q1 2 4 12t7 24
t8 30.5t8 31.5t7 27t4 17q5 17 9 22t15 5q23 0 39.5 -7.5t31.5 -24.5q18 -20 26 -38t8 -38q0 -48 -39 -135.5t-110 -199.5q-17 -27 -28 -44t-24 -33.5t-31.5 -37t-49.5 -54.5q-35 -37 -55 -58t-32.5 -31t-21 -12.5t-19.5 -2.5q-19 0 -28.5 6.5t-21.5 26.5q-6 13 -15 20
q-5 5 -9 9.5t-9 9.5q-16 16 -16 31q0 19 5 27t20 14q30 13 51 26.5t47 38.5q6 5 12 12.5t11.5 15t9 14t3.5 8.5q0 5 -3 8.5t-21 17.5q-15 11 -23 23.5t-8 23.5q0 7 1.5 20.5t3.5 33.5zM283 589q-21 -11 -33.5 -14.5t-23.5 -3.5q-14 0 -23.5 5.5t-9.5 13.5q0 5 19.5 29
t48.5 56q20 22 31.5 34.5t18.5 18t12.5 6.5t13.5 1q6 0 11.5 -1t13 -4.5t19 -10t28.5 -16.5q31 -17 31 -28q0 -6 -3 -11t-14.5 -11.5t-34.5 -17t-63 -28.5z" />
    <glyph glyph-name="thorn" unicode="&#xfe;" horiz-adv-x="458" 
d="M25 -91q-13 -28 -16 -40l-6 -22q-11 -39 -34 -39q-7 0 -11 2.5t-15 13.5l-11 10l-28 2q-23 0 -38 28q-6 11 -10 22.5t-4 18.5q0 8 7 27q3 7 5.5 13t4.5 12q5 15 9.5 26t11 25t16 33.5t24.5 49.5q16 31 26 52.5t19.5 43t20 47.5t27.5 68q5 13 10 25l10 24q3 8 4 12t1 9
q0 8 -1 12.5t-5 23.5q-1 5 -2 12t-1 10t1 5t5 4t11.5 5.5t20.5 8.5q11 4 17.5 12t14.5 25l19 42l14 31.5t11.5 25.5t11 24.5t12.5 28.5q6 15 9.5 18.5t19.5 8.5q13 5 15.5 5.5t6.5 0.5q8 0 14.5 -4.5t20.5 -23.5q9 -11 16.5 -16t18.5 -9q12 -5 16 -9t4 -12q0 -6 -1 -10.5
t-5 -13.5t-12 -24.5t-22 -41.5q-8 -16 -8 -20q0 -3 2 -3.5t16 -0.5t31.5 -12t34.5 -35q21 -25 33.5 -58.5t12.5 -63.5q0 -60 -27.5 -124t-76.5 -116q-39 -42 -74 -67t-53 -25q-9 0 -22.5 7t-22.5 16q-2 2 -23 31q-6 9 -10 9q-3 0 -6 -4t-8.5 -15.5t-14.5 -31.5t-22 -52z
M226 340q-14 0 -20.5 -7.5t-12.5 -30.5l-3.5 -10.5t-4.5 -12.5t-8.5 -21.5t-14.5 -37.5q-9 -23 -23 -49q-1 -2 -1 -6q0 -8 6 -8q4 0 9 8q6 7 12.5 13.5l13.5 13.5q13 13 26 31.5t23 37.5t16.5 36t6.5 28q0 15 -25 15z" />
    <glyph glyph-name="ydieresis" unicode="&#xff;" horiz-adv-x="409" 
d="M-18 214q2 54 9 106.5t21 115.5q2 11 4 17t4.5 9.5t7 6.5t12.5 7q11 6 14.5 7.5t5.5 1.5q5 0 25 -12t38 -26q21 -16 33 -25t17.5 -15.5t6.5 -12t1 -14.5q0 -8 -3 -22.5t-14 -53.5l-7 -31q-8 -48 -12 -82l-6 -28l-2 -14l15 18l1.5 3t7 17.5t17.5 44.5t34 86q1 2 4 12t7 24
t8 30.5t8 31.5t7 27t4 17q5 17 9 22t15 5q23 0 39.5 -7.5t31.5 -24.5q18 -20 26 -38t8 -38q0 -48 -39 -135.5t-110 -199.5q-17 -27 -28 -44t-24 -33.5t-31.5 -37t-49.5 -54.5q-35 -37 -55 -58t-32.5 -31t-21 -12.5t-19.5 -2.5q-19 0 -28.5 6.5t-21.5 26.5q-6 13 -15 20
q-5 5 -9 9.5t-9 9.5q-16 16 -16 31q0 19 5 27t20 14q30 13 51 26.5t47 38.5q6 5 12 12.5t11.5 15t9 14t3.5 8.5q0 5 -3 8.5t-21 17.5q-15 11 -23 23.5t-8 23.5q0 7 1.5 20.5t3.5 33.5zM183 756q16 0 54 -29q26 -20 26 -44q0 -10 -5.5 -23t-19.5 -38q-5 -7 -8 -14
q-19 -36 -44 -36q-12 0 -25 7t-23.5 18t-17 24.5t-6.5 26.5q0 11 3.5 23t12.5 34q12 27 24 39t29 12zM356 755q8 0 24.5 -9t33.5 -23q10 -8 16.5 -18.5t6.5 -18.5q0 -5 -5 -18.5t-12 -29t-14 -29t-11 -18.5q-14 -15 -35 -15q-14 0 -26.5 6t-22.5 16.5t-16 23.5t-6 27t7 35.5
t21 46.5q13 24 39 24z" />
    <glyph glyph-name="dotlessi" unicode="&#x131;" horiz-adv-x="237" 
d="M66 21q-3 -11 -6.5 -15t-14.5 -9q-18 -7 -29 -7q-8 0 -14.5 4.5t-16.5 18.5q-3 3 -6 6.5t-7 6.5l-13 4l-10 2q-5 0 -11.5 6.5t-12 15t-9 18t-3.5 17.5q0 6 10 30.5t26.5 61.5t38.5 83t47 95l54 103q10 14 19 14q12 0 30 -9.5t31 -22.5q23 -22 35.5 -39.5t12.5 -26.5
q0 -5 -3 -11.5t-14 -26.5q-35 -65 -69 -150q-32 -80 -45 -114q-3 -8 -6 -15t-5 -14z" />
    <glyph glyph-name="Lslash" unicode="&#x141;" horiz-adv-x="429" 
d="M221 242q-5 -13 -9 -25l-8 -24q-3 -10 -7 -17q-3 -6 -3 -8q0 -6 6 -10t14 -4q9 0 23.5 1.5t30.5 4t29.5 5t21.5 5.5l6 1.5t4 0.5q10 0 22 -17q5 -8 9 -18t4 -14q0 -2 -2 -10.5t-4.5 -18.5t-5 -19t-3.5 -11q-8 -17 -16.5 -25.5t-22.5 -13.5q-20 -7 -44 -13.5t-48 -11
t-45 -7.5t-36 -3q-26 0 -44 8t-35 26q-24 27 -40.5 58t-16.5 50v5.5t1.5 7t4 13.5t7.5 26l2 9q-7 0 -10.5 -1t-9.5 -3q-7 -4 -11 -4t-6 1t-4 5t-4 13t-6 25q-1 7 -2 10t-7 14q5 22 9 35t8.5 20t11 10.5t17.5 6.5q26 8 49 18t37 18q18 40 36 78q19 42 32.5 70.5t24 49.5
t20 39t21.5 39t19 27.5t18 6.5q14 0 34 -10.5t40 -28.5q17 -16 30 -32.5t13 -23.5q0 -2 -0.5 -4t-2.5 -5.5t-6.5 -10.5t-13.5 -20q-8 -14 -15 -27.5t-13 -25.5l-15 -28q5 1 13 4q7 2 16.5 5t23.5 8q9 3 12 3q4 0 5 -3t3 -14l5 -14q4 -7 4 -13q0 -5 -4 -13l-5 -21l-1 -15
q-5 -21 -7 -27t-4 -10l-13 -10l-23 -9q-23 -8 -39 -18q-20 -10 -32 -14t-26 -7z" />
    <glyph glyph-name="lslash" unicode="&#x142;" horiz-adv-x="320" 
d="M341 379q0 -1 -1 -2t-8 -7q-2 -2 -3.5 -3t-12.5 -4q-4 -2 -8.5 -4t-9.5 -4q-22 -13 -58 -27q-5 -2 -13 -6q-12 -28 -20 -46.5t-14.5 -35t-12.5 -34t-13 -41.5l-17 -54l-9 -27q-3 -8 -5.5 -15t-4.5 -15q-4 -11 -3.5 -10.5t-1.5 -4.5q-5 -21 -12.5 -28.5t-21.5 -7.5
q-13 0 -22 1t-16 4t-12.5 8t-11.5 13q-22 29 -35 50.5t-13 29.5q0 3 3.5 14.5t9.5 27t13 34t14 35.5l5 13q-15 -5 -22 -8.5t-24 -14.5q-12 -9 -20 -9q-9 0 -9 8q0 2 0.5 3l4.5 9l2 9l3 12l3 5q1 1 1 1.5t1 1.5q0 1 1 1l-6 24q-1 2 25.5 14.5t61.5 27.5l12 5l6 12t5 12l24 65
q6 17 19 45.5t28.5 62t33.5 69t35 66.5q4 8 7 12.5t6 7.5t6.5 4.5t10.5 3.5q13 5 15.5 5.5t7.5 0.5q9 0 15.5 -5t20.5 -22q2 -4 6.5 -8t12.5 -10l14 -7q21 -11 21 -26q0 -4 -4.5 -16.5t-12.5 -30t-18 -38.5t-20 -40q-8 -14 -15 -27.5t-13 -27.5q-2 -4 -3 -8t-3 -9l9 2
q9 3 12.5 5.5t5.5 4.5l12 6l7 2l17 8q7 5 9 5q6 0 6 -6l-1 -8l2 -15q0 -4 -5 -7q-2 -2 -2.5 -3t-1.5 -2t-2 -1z" />
    <glyph glyph-name="OE" unicode="&#x152;" horiz-adv-x="705" 
d="M483 5q-12 -2 -24 -3.5t-24 -3.5q-6 -1 -20 -2.5t-30 -2.5t-30 -1.5t-21 -0.5q-20 0 -33.5 8.5t-26.5 28.5q-30 -18 -60.5 -29.5t-50.5 -11.5q-23 0 -58.5 25t-78.5 72q-16 18 -22.5 37t-6.5 50q0 62 18 131t50 134q16 31 31.5 57t32.5 48.5t35.5 42.5t41.5 40
q26 23 40.5 35.5t22.5 18.5t12.5 7t10.5 2q7 0 28 7l10 -11l21 -21l19 -26q9 -12 16 -12q1 0 2 1q1 0 5 2l17 5l17 4q11 4 16 4q3 0 11 -3q6 1 11 2t19 2.5t42 3.5t79 5q2 0 14 -2t26.5 -4t27.5 -4.5t17 -3.5q16 -5 21.5 -11.5t12.5 -29.5q2 -8 2.5 -10.5t4.5 -11.5
q5 -13 7.5 -20t4 -11.5t1.5 -8.5v-10q0 -16 -8 -26.5t-21 -10.5q-4 0 -6.5 1t-8.5 6q-7 5 -8.5 5.5t-5.5 0.5q-6 1 -8.5 1.5t-10.5 3.5l-20 -2q-1 0 -4 1q-3 0 -11 2q-3 1 -9 1q-8 0 -17 -0.5t-11 -2.5q-3 -2 -11.5 -12t-13.5 -18l-11 -18q-7 -8 -8 -10t-2 -9q-1 -2 -2 -3.5
t-7 -6.5q-5 -5 -6.5 -8t-5.5 -19q2 -3 4.5 -3.5t17.5 -1.5h9t14 -1l15 -1q10 0 14 -0.5t19 -3.5q11 -3 13.5 -5t5.5 -13q4 -13 4 -21q1 -5 1 -11t1 -13t1 -8.5v-3.5q0 -8 -2 -12t-14 -17q-7 -8 -11.5 -12.5t-8 -6.5t-7.5 -2.5t-10 -0.5h-17.5t-17.5 1q-10 0 -15.5 0.5
t-10.5 0.5h-10.5h-14.5l-34 1q-5 0 -9 -1.5t-8 -6t-9.5 -13t-13.5 -23.5q-3 -5 -8 -15.5t-10 -22t-8.5 -20.5t-3.5 -10q0 -11 16 -11l91 2h15.5t9 0.5t7 1.5t8.5 3q2 1 5 1q9 0 19 -14t10 -27q0 -7 -7 -17q-7 -9 -8 -11.5t-2 -10.5q0 -3 -0.5 -5t-3.5 -12l1 -10
q-13 -11 -21 -23q-5 -6 -9.5 -7.5t-16.5 -3.5zM166 197q-5 -13 -5 -24q0 -8 3.5 -14t8.5 -6q3 0 15 13.5t26.5 32t28.5 39.5t22 36l12.5 25t7.5 14t4.5 8.5t4.5 8.5q8 14 12.5 22t7.5 13.5t5 11.5l5 15q14 45 14 68q0 11 -5.5 20t-12.5 9q-9 0 -25 -21.5t-35 -55
t-38.5 -75.5t-34.5 -84z" />
    <glyph glyph-name="oe" unicode="&#x153;" horiz-adv-x="637" 
d="M234 36q-4 -2 -7 -4t-5 -3q-22 -14 -36.5 -22.5t-25.5 -13t-20.5 -6t-20.5 -1.5q-30 0 -60 15t-55 39t-40.5 53.5t-15.5 58.5q0 26 9.5 60.5t25 69.5t35.5 67t41 53q10 10 24 22.5t29 24.5t30.5 23t28.5 19q14 9 25.5 12.5t25.5 3.5q36 0 59 -38q2 -6 4 -13q2 -6 4 -15
t6 -21q9 7 11 8l6 3q6 1 12 5l19 14q7 4 22.5 10t33.5 11.5t34.5 9t25.5 3.5q27 0 59.5 -14.5t55.5 -36.5q31 -31 31 -74q0 -30 -8 -58t-21.5 -51.5t-33 -41.5t-41.5 -27q-5 -2 -18.5 -5t-28.5 -7t-28 -6.5t-16 -2.5q-9 0 -20.5 6.5t-19.5 17.5q-6 8 -10 8t-7.5 -8.5
t-3.5 -19.5q0 -50 38 -50q14 0 37.5 5t38.5 11q13 5 19 5t12 -4t11.5 -10.5t9 -14t3.5 -13.5q0 -5 -2 -11t-11 -24l-7 -19q-2 -8 -4 -12.5t-5.5 -7.5t-9.5 -5.5t-17 -5.5q-27 -8 -42.5 -12t-26.5 -6t-20.5 -2.5t-24.5 -0.5q-38 0 -60 9t-42 32q-6 8 -11 8h-1zM464 358
q-3 0 -15 -13t-29 -33q-5 -5 -9.5 -10.5t-9.5 -12.5q-10 -9 -10 -17t8 -8q4 0 10 3q3 2 7.5 3.5t9.5 3.5q15 5 21.5 11.5t11.5 20.5q10 24 11.5 29t1.5 10q0 13 -8 13zM220 328q-8 0 -27 -22.5t-38.5 -52.5t-34 -59t-14.5 -42q0 -16 6 -16q1 0 7 5t13.5 11t14.5 12t9 9
q34 41 54.5 80t20.5 62q0 13 -11 13z" />
    <glyph glyph-name="Scaron" unicode="&#x160;" horiz-adv-x="469" 
d="M28 224q9 0 18.5 0.5t20.5 1.5q12 0 20.5 -9t10.5 -23q2 -21 4.5 -27t11.5 -6q7 0 20.5 5t27.5 12q20 11 26.5 18t6.5 17q0 7 -5.5 14t-21.5 18q-8 6 -18 15.5t-20.5 20.5t-20 22.5t-16.5 21.5q-12 16 -17 33t-5 40q0 54 11.5 91.5t37.5 66.5q46 51 117.5 81t148.5 30
q26 0 44.5 -6t33.5 -20q21 -21 34.5 -49.5t13.5 -52.5q0 -14 -5.5 -27t-17.5 -31q-12 -14 -21 -30q-3 -5 -6 -10.5t-5 -10.5q-7 -14 -13.5 -18t-23.5 -4q-21 0 -42.5 4t-38.5 10.5t-28 14t-11 15.5q0 5 2 10t13 23q7 11 7 15q0 6 -6 6q-1 0 -5 -2q-8 -6 -21 -13
q-12 -5 -19 -8.5l-11 -5.5t-7 -4.5t-6 -5.5q-16 -14 -16 -22q0 -3 1 -5.5t7.5 -9t21 -18.5t40.5 -34q40 -35 56 -65t16 -73q0 -34 -14.5 -72t-38.5 -67q-42 -54 -151 -90q-33 -11 -58 -16t-45 -5q-26 0 -45 13t-45 47q-37 49 -37 70q0 15 24 50q5 7 9.5 13.5t9.5 13.5
q7 14 10 16.5t14 5.5q3 1 4 1.5t6 2.5zM434 823q69 62 102 62q19 0 33 -7.5t14 -17.5q0 -5 -2 -9t-7.5 -10t-16.5 -15t-29 -24q-8 -7 -22 -20t-44 -41q-13 -12 -22 -15.5t-29 -3.5q-14 0 -26 4t-26 15q-17 12 -28.5 20.5t-18.5 13.5q-71 48 -71 64t28 21q5 2 16 5t36 10
q18 6 24 6q11 0 22 -7t34 -28q5 -5 12 -10t21 -13z" />
    <glyph glyph-name="scaron" unicode="&#x161;" horiz-adv-x="382" 
d="M230 366q-3 -2 -9.5 -4.5t-16.5 -6.5q-3 -1 -7.5 -4t-9 -7t-7.5 -7t-3 -4q0 -3 15 -14t36 -24q55 -33 55 -105q0 -16 -1.5 -28t-6 -23t-11.5 -21.5t-18 -22.5q-22 -24 -47 -43.5t-50.5 -33.5t-51 -21.5t-47.5 -7.5q-13 0 -23.5 2t-21.5 8t-24 16.5t-31 27.5
q-24 22 -32 35.5t-8 32.5q0 8 1 14.5t4 13t9.5 16t17.5 23.5q13 17 23 24t24 7q12 0 16.5 -3.5t11.5 -20.5q8 -17 18.5 -29t18.5 -12q5 0 16.5 3t16.5 6q4 2 11 10.5t7 10.5q0 4 -4.5 7t-18.5 10t-27.5 17.5t-26.5 24.5q-18 19 -18 57q0 31 9.5 62t26.5 57q13 18 37.5 33.5
t66.5 31.5q64 24 98 24q24 0 50.5 -10t46.5 -27q12 -10 17 -20t5 -25q0 -28 -13 -60q-5 -14 -12 -19.5t-26 -11.5q-12 -3 -24 -5t-23 -2q-22 0 -27 5.5t-6 28.5q0 14 -6 14zM242 744q14 7 22 7q11 0 20.5 -7.5t30.5 -33.5q7 -9 30 -27q81 58 113 58q16 0 28 -6t12 -14
q0 -16 -58 -70q-16 -14 -34 -31t-38 -36q-13 -12 -22.5 -16t-25.5 -4q-15 0 -26 4.5t-24 17.5q-15 14 -25.5 24.5t-16.5 15.5q-63 58 -63 75q0 3 4 10.5t8 9.5l53 19z" />
    <glyph glyph-name="Ydieresis" unicode="&#x178;" horiz-adv-x="443" 
d="M42 -19q-5 0 -16 9.5t-19 20.5q-21 30 -21 50q0 6 1.5 11t6 11t14 15t26.5 24q14 12 31.5 31.5t32.5 39t25.5 35t10.5 20.5t-4 8t-22 13q-10 6 -16.5 12.5t-11 17t-7.5 26.5t-6 40q-5 44 -8 81.5t-3 60.5q0 18 1 38.5t3 39.5t4.5 34.5t4.5 23.5q4 11 21.5 17.5t45.5 6.5
q9 0 15 -0.5t12 -2t15 -6t25 -11.5q28 -13 35.5 -20t7.5 -20q0 -2 -1.5 -11t-4.5 -22.5t-6 -30t-6 -31.5q-2 -7 -2.5 -24.5t-0.5 -41.5q0 -12 4 -21t9 -9t10.5 11t15.5 37q7 17 13.5 31t13.5 28q11 24 19 41t13.5 30.5t9.5 25.5t8 26q6 24 15.5 34t24.5 10q20 0 55 -28
q46 -39 46 -68q0 -12 -5 -32.5t-14 -46t-22 -54.5t-28 -59q-48 -95 -82 -155t-62 -98q-24 -33 -37 -51t-20 -28t-11 -15.5t-9 -12.5q-18 -26 -29 -41t-19 -22.5t-15 -9t-17 -1.5q-14 0 -23 6q-17 10 -18 10zM461 878q48 0 48 -42q0 -5 -1 -14.5t-2.5 -20t-2.5 -19.5t-2 -11
q-2 -4 -4 -7t-7 -6t-14 -6.5t-25 -8.5q-17 -6 -27 -9.5t-16 -5t-10 -2t-8 -0.5q-24 0 -24 39q0 18 6 45q3 14 9.5 24.5t20.5 24.5q19 19 59 19zM312 814q1 -5 1 -9v-6q0 -20 -10 -30.5t-38 -18.5q-12 -3 -18 -7q-5 -2 -4.5 -2t-4.5 -2q-15 -7 -21 -9t-12 -2q-29 0 -29 44
q0 39 7.5 59t24.5 29t37 14.5t36 5.5q12 0 23 -10t11 -21q-1 -2 -1 -4t-0.5 -4.5t-0.5 -5.5q-1 -3 -1 -11v-10z" />
    <glyph glyph-name="Zcaron" unicode="&#x17d;" horiz-adv-x="433" 
d="M207 20q-8 0 -21.5 -0.5t-28 -2l-29 -3t-24.5 -2.5q-3 0 -5.5 -0.5t-9.5 -2.5t-20.5 -5.5t-37.5 -10.5q-18 -5 -25 -5q-17 0 -32 31l-10 21q-6 11 -12 21t-14 19q-4 5 -4 15t8 24.5t29 42.5q17 23 27.5 36.5t20 25t21.5 25t33 37.5l111 124q9 9 17.5 18t17.5 17
q6 7 9 9.5t4 4t1.5 2t2.5 3.5q7 13 19 23q7 5 7 8q0 7 -11 7q-3 0 -5 -0.5t-10 -3.5q-9 -2 -18.5 -4t-20.5 -4q-20 -2 -28.5 -5t-16.5 -8q-9 -6 -11 -6t-9 5t-11 10q-4 4 -9 35q-1 7 -2 11.5t-2.5 10t-5 13.5t-9.5 23q-3 6 -3 14q0 17 33 32q2 1 14 3.5t28.5 6l33 7
t27.5 5.5q9 1 30 3t45.5 4t47.5 3t36 1q30 0 35 -14q2 -6 3.5 -8.5t9.5 -12.5q2 -5 6 -11q3 -5 7 -13t9 -19q10 -18 11.5 -22.5t1.5 -12.5q0 -14 -8 -29.5t-28 -41.5q-10 -11 -19.5 -23t-19.5 -26l-51 -70l-72 -90l-51 -62q-22 -26 -22 -32q0 -10 12 -10q7 0 27 5l33 3l25 3
q5 1 8.5 1h6.5q8 0 14 -3.5t20 -17.5q10 -11 16 -20.5t6 -16.5q0 -5 -3.5 -15t-9 -21.5t-12 -23t-12.5 -18.5q-9 -11 -12.5 -12.5t-14.5 -2.5q-4 0 -46 -3zM389 823q69 62 102 62q19 0 33 -7.5t14 -17.5q0 -5 -2 -9t-7.5 -10t-16.5 -15t-29 -24q-8 -7 -22 -20t-44 -41
q-13 -12 -22 -15.5t-29 -3.5q-14 0 -26 4t-26 15q-17 12 -28.5 20.5t-18.5 13.5q-71 48 -71 64t28 21q5 2 16 5t36 10q18 6 24 6q11 0 22 -7t34 -28q5 -5 12 -10t21 -13z" />
    <glyph glyph-name="zcaron" unicode="&#x17e;" horiz-adv-x="409" 
d="M108 6q-12 0 -20.5 -1t-18 -2.5t-21.5 -4.5t-30 -8q-9 -2 -17 -3t-15 -1q-17 0 -25.5 9.5t-17.5 38.5q-15 51 -15 64q0 11 6 23t21.5 28.5t42.5 39.5t69 56q25 19 41 32t26.5 22t17.5 16t13 15q-9 -1 -15 -1.5t-13 -3t-18 -6.5t-30 -12q-3 -1 -5.5 -1.5t-6.5 -0.5
q-9 0 -18 6.5t-13 16.5q-5 14 -9 40t-4 48q0 19 18 28.5t62 14.5q18 2 34.5 4t31.5 4q33 4 55.5 5.5t44.5 1.5q17 0 27.5 -0.5t17 -3t11.5 -8t11 -15.5q17 -27 27.5 -50t10.5 -36q0 -6 -1 -10.5t-5 -10t-12 -13t-21 -18.5q-8 -5 -14 -11.5t-13 -14.5q-6 -7 -6 -6.5t-6 -6.5
q-32 -35 -51 -55t-31 -31.5t-19.5 -18t-16.5 -12.5q-6 -3 -6 -6q0 -4 10 -4h5l29 3l24 1l21 3h5q18 0 29 -16q8 -11 13 -23t5 -18q0 -9 -7 -24q-3 -6 -5.5 -12.5t-4.5 -12.5q-9 -22 -18 -29.5t-26 -7.5l-58 1zM190 744q14 7 22 7q11 0 20.5 -7.5t30.5 -33.5q7 -9 30 -27
q81 58 113 58q16 0 28 -6t12 -14q0 -16 -58 -70q-16 -14 -34 -31t-38 -36q-13 -12 -22.5 -16t-25.5 -4q-15 0 -26 4.5t-24 17.5q-15 14 -25.5 24.5t-16.5 15.5q-63 58 -63 75q0 3 4 10.5t8 9.5l53 19z" />
    <glyph glyph-name="florin" unicode="&#x192;" horiz-adv-x="413" 
d="M332 532q-11 -20 -15 -28.5t-4 -13.5q0 -9 11 -9q5 0 8 1q5 1 9 1.5t9 0.5q12 0 17 -4.5t13 -24.5q1 -5 5 -13q7 -12 8 -15t1 -8t-2 -8.5t-10 -12.5q-10 -10 -20 -35q-8 -24 -21 -24l-15 3q-67 0 -75 -5q-10 -7 -22 -34.5t-25 -72.5q-4 -14 -6.5 -23.5t-6.5 -23
t-11 -35.5t-20 -62l-51 -164q-11 -25 -23 -33t-35 -8q-8 0 -12.5 2t-22.5 13l-23 5q-14 1 -19.5 3.5t-15.5 13.5q-19 19 -26 29.5t-7 18.5q0 5 6 19q10 21 17 47q7 19 13.5 38t14.5 38q4 10 5.5 13.5t2 6t2 6t5.5 12.5q12 31 23 59.5t21 55.5q5 16 11.5 32.5t13.5 33.5
l16 33q7 13 7 23q0 3 -3 17q-1 6 -1.5 13.5t-0.5 18.5t5 15t23 9q13 4 17.5 8.5t9.5 18.5q3 8 9 22t14 30.5l16 33t16 30.5q14 25 36.5 48.5t49 41t55 28t53.5 10.5q53 0 96 -41q16 -15 21.5 -27t5.5 -32t-7 -37t-18 -27q-10 -8 -23 -11.5t-38 -3.5q-9 0 -14.5 0.5t-9 4
t-5.5 10t-5 18.5q-4 14 -9 14t-15 -13.5t-18 -30.5z" />
    <glyph glyph-name="circumflex" unicode="&#x2c6;" 
d="M443 581q-14 -7 -22 -7q-11 0 -20.5 7.5t-30.5 33.5q-5 5 -11 10.5t-18 15.5q-83 -57 -113 -57q-16 0 -28 6t-12 14q0 9 13.5 25t44.5 44q15 14 33 30.5t38 36.5q13 12 23 16t25 4q16 0 26.5 -4.5t23.5 -17.5q12 -11 18.5 -17t10.5 -10l6.5 -6.5t7.5 -6.5q62 -57 62 -74
q0 -4 -4 -11t-8 -9l-53 -19z" />
    <glyph glyph-name="caron" unicode="&#x2c7;" 
d="M302 744q14 7 22 7q11 0 20.5 -7.5t30.5 -33.5q7 -9 30 -27q81 58 113 58q16 0 28 -6t12 -14q0 -16 -58 -70q-16 -14 -34 -31t-38 -36q-13 -12 -22.5 -16t-25.5 -4q-15 0 -26 4.5t-24 17.5q-15 14 -25.5 24.5t-16.5 15.5q-63 58 -63 75q0 3 4 10.5t8 9.5l53 19z" />
    <glyph glyph-name="breve" unicode="&#x2d8;" 
d="M551 715q2 -8 2 -9q0 -21 -51 -68q-17 -16 -33 -27t-32 -18t-33 -10t-38 -3q-41 0 -69 12.5t-52 41.5q-16 19 -25 35t-9 24t6.5 13t24.5 12q25 10 40.5 13.5t32.5 3.5q8 0 10.5 -3t6.5 -14q1 -3 3 -7t15 -23q8 -11 14.5 -14.5t20.5 -3.5q20 0 39 11t46 40q12 12 33 12
q5 0 6.5 -0.5t8.5 -3.5q9 -4 11.5 -4.5t8.5 -2.5q5 -2 6.5 -2.5t6.5 -4.5z" />
    <glyph glyph-name="dotaccent" unicode="&#x2d9;" 
d="M348 755q8 0 24.5 -9t33.5 -23q10 -8 16.5 -18.5t6.5 -18.5q0 -5 -5 -18.5t-12 -29t-14 -29t-11 -18.5q-14 -15 -35 -15q-14 0 -26.5 6t-22.5 16.5t-16 23.5t-6 27t7 35.5t21 46.5q13 24 39 24z" />
    <glyph glyph-name="ring" unicode="&#x2da;" 
d="M374 783q4 0 13 -1t18 -3t17 -4t11 -3q11 -5 19 -15.5t19 -34.5q6 -11 9 -18.5t5 -14t2.5 -12.5t0.5 -15q0 -17 -10 -36.5t-25.5 -36.5t-33.5 -28t-33 -11q-71 0 -94 26q-5 5 -10.5 15.5t-10 22t-8 22t-3.5 16.5q0 29 35 85q28 46 79 46zM376 698q-14 0 -22 -10.5
t-8 -27.5q0 -13 10.5 -22.5t24.5 -9.5q8 0 16.5 12t8.5 23q0 3 -2 9.5t-4 11.5q-6 14 -24 14z" />
    <glyph glyph-name="ogonek" unicode="&#x2db;" 
d="M243 -9q-3 -3 -7.5 -10t-8 -15.5t-6 -17.5t-2.5 -15q0 -8 5 -13.5t11 -5.5q3 0 11.5 3t16.5 6q6 3 11 3q3 0 4 -4q2 -3 3.5 -4.5t8.5 -3.5q16 -5 16 -16q0 -8 -9.5 -16t-24 -15t-32 -11.5t-33.5 -4.5q-57 0 -57 50q0 7 4 21.5t10 28.5q9 21 20 34.5t28 24.5q33 0 60 3
l-9 -8z" />
    <glyph glyph-name="tilde" unicode="&#x2dc;" 
d="M346 723q20 0 44.5 -8t45.5 -20q4 -3 6 -3q3 0 9 6q22 27 39 27q5 0 9.5 -2t12.5 -9q12 -10 18.5 -15.5t10 -9t4 -6.5t0.5 -7q0 -8 -9 -20t-30 -33q-23 -22 -47.5 -32.5t-56.5 -10.5q-20 0 -39 6t-54 26q-5 3 -8 3q-5 0 -9 -7q-11 -17 -19.5 -24.5t-18.5 -7.5
q-5 0 -13 5.5t-27 21.5q-11 11 -11 22q0 9 9 24t23 29q43 45 111 45z" />
    <glyph glyph-name="hungarumlaut" unicode="&#x2dd;" 
d="M322 734q9 0 24.5 -6.5t31 -15.5t26.5 -18t11 -14q0 -6 -2.5 -10t-13 -10t-31.5 -15.5t-57 -25.5q-20 -8 -37 -17q-20 -9 -31 -12.5t-22 -3.5q-12 0 -20.5 5t-8.5 12q0 4 17.5 26.5t43.5 50.5q18 20 28.5 31t17 16t11 6t12.5 1zM524 734q9 0 24.5 -6.5t31 -15.5t26.5 -18
t11 -14q0 -6 -2.5 -10t-13 -10t-31.5 -15.5t-57 -25.5q-9 -5 -18 -9t-19 -8q-20 -9 -31 -12.5t-22 -3.5q-12 0 -20.5 5t-8.5 12q0 4 17.5 26.5t43.5 50.5q18 20 28.5 31t17 16t11 6t12.5 1z" />
    <glyph glyph-name="endash" unicode="&#x2013;" horiz-adv-x="567" 
d="M72 292l404 2q25 -2 25 -17q0 -13 -32 -68q-21 -33 -48 -33l-58 1h-3.5t-6.5 -1q-11 -1 -27 -1h-37h-33.5t-31.5 1t-46.5 2t-80.5 4q-40 -2 -62 -3t-32.5 -1.5t-13 -0.5h-3.5q-15 0 -24 5t-9 14q0 5 2.5 15t6.5 20.5t9 20t9 15.5q11 15 22 21t25 6z" />
    <glyph glyph-name="emdash" unicode="&#x2014;" horiz-adv-x="597" 
d="M-27 171q-17 0 -26.5 5.5t-9.5 14.5q0 6 3 16t7 21t9 21t9 16q12 16 23 22.5t28 6.5l46 -2l472 2q26 -2 26 -18q0 -12 -34 -71q-21 -35 -50 -35l-61 2h-3.5t-6.5 -1q-16 -1 -37 -1.5t-49 -0.5h-42.5t-36.5 1t-51.5 2t-86.5 4z" />
    <glyph glyph-name="quoteleft" unicode="&#x2018;" horiz-adv-x="226" 
d="M238 634q25 -11 31.5 -19t6.5 -26q0 -11 -2.5 -20.5t-10.5 -29.5q-5 -9 -10 -25l-2 -6l-2 -6q-14 -39 -29 -39q-2 0 -5.5 1t-26.5 8q-11 4 -16.5 8t-18.5 16q-3 4 -6.5 7.5l-7.5 7.5l-4 4l-4 3q-8 8 -13 13.5t-7.5 11.5t-3.5 13.5t-1 18.5q0 17 5 27.5t22 30.5q7 7 11 12
t8 8t8.5 6t12.5 8q22 12 34 19t18.5 10t9.5 3.5t7 0.5q16 0 16 -16q0 -7 -8 -23q-5 -8 -7 -13.5t-5 -13.5z" />
    <glyph glyph-name="quoteright" unicode="&#x2019;" horiz-adv-x="226" 
d="M144 529q-25 12 -31.5 19.5t-6.5 26.5q0 10 2.5 20t10.5 29q3 6 5.5 12.5t4.5 12.5l2 6l2 6q13 39 29 39q2 0 5.5 -1t26.5 -8q11 -4 16.5 -8t17.5 -16q5 -6 11 -11.5t12 -10.5q8 -8 13 -13.5t7.5 -11.5t3.5 -13.5t1 -18.5q0 -17 -5 -27.5t-22 -30.5q-7 -8 -11.5 -12.5
t-8.5 -8t-9 -6.5t-12 -7q-22 -12 -34 -19t-18.5 -10t-9.5 -3.5t-7 -0.5q-16 0 -16 16q0 5 2 9.5t7 14.5q5 8 7 13t5 13z" />
    <glyph glyph-name="quotesinglbase" unicode="&#x201a;" horiz-adv-x="230" 
d="M-50 4q-37 10 -37 47q0 6 0.5 11.5t3 13t6.5 18.5t11 30q13 33 19 42.5t15 9.5h2t5 -1.5t11.5 -4.5t21.5 -8q8 -3 14.5 -8t18.5 -19l8 -8l6 -6t7 -6t10 -9l6.5 -6.5t3.5 -5.5t1 -7.5v-13.5q0 -52 -57 -94q-10 -8 -22.5 -15t-25 -12.5t-22.5 -9t-16 -3.5q-10 0 -10 9
q0 16 13 41q5 8 7 15z" />
    <glyph glyph-name="quotedblleft" unicode="&#x201c;" horiz-adv-x="426" 
d="M232 634q21 -8 28.5 -17.5t7.5 -29.5q0 -11 -3 -22.5t-9 -26.5q-2 -6 -4.5 -12t-5.5 -12q-4 -9 -3.5 -9t-0.5 -2q-8 -23 -14 -32t-15 -9q-5 0 -14 3.5t-19.5 8.5t-19.5 10.5t-12 9.5q-8 9 -13 14t-8.5 9t-7 7t-9.5 9l-8 7q-2 2 -2.5 11.5t-0.5 23.5q0 22 12.5 39.5
t47.5 44.5q10 7 22.5 14.5t24 13.5t20.5 10t14 4q11 0 11 -10q0 -8 -3 -17t-11 -27zM433 633q15 -2 25.5 -14t10.5 -28q0 -12 -6 -31.5t-17 -42.5l-5 -12.5t-4 -9.5q-9 -22 -13.5 -27.5t-13.5 -5.5q-3 0 -11.5 4t-18.5 9.5t-19 11t-13 9.5l-13 13l-8.5 8.5t-6.5 7t-9 9.5
q-8 8 -9.5 12.5t-1.5 21.5q0 26 11.5 45t41.5 44q10 8 17 13t15 9t20 9t33 14q3 -1 9 -8t6 -10q0 -2 -3.5 -9t-8.5 -18q-4 -8 -5 -15q-2 -3 -3 -9z" />
    <glyph glyph-name="quotedblright" unicode="&#x201d;" horiz-adv-x="426" 
d="M466 624q2 -2 2.5 -11.5t0.5 -23.5q0 -11 -3 -20.5t-9.5 -19t-18 -20.5t-29.5 -24q-9 -7 -21 -14.5t-23.5 -13.5t-21 -10t-13.5 -4q-12 0 -12 12q0 10 13 42q2 2 2.5 5t2.5 8q-20 8 -27.5 17.5t-7.5 28.5q0 11 3 22.5t9 26.5q4 8 7.5 17t6.5 19q8 23 14 31.5t15 8.5
q4 0 13.5 -3.5t19.5 -8.5t19 -10t13 -9q8 -9 12.5 -14.5t8 -9l7 -7t9.5 -8.5zM133 521q0 3 3 9q-16 2 -26.5 14.5t-10.5 28.5q0 12 6 31.5t17 42.5l9 22q9 22 13.5 27.5t13.5 5.5q3 0 12 -4t19 -9.5t19 -11t12 -9.5l13 -13l8.5 -8.5t6.5 -7t9 -9.5q8 -8 9.5 -12.5t1.5 -22.5
q0 -26 -11.5 -45t-41.5 -43q-11 -8 -17 -13t-11.5 -8t-13 -6.5t-19.5 -8.5q-8 -4 -13 -5.5t-7 -2.5q-3 -1 -4 -2q-3 0 -9 8t-6 10t3.5 9t8.5 18z" />
    <glyph glyph-name="quotedblbase" unicode="&#x201e;" horiz-adv-x="426" 
d="M273 100q2 -2 2.5 -11.5t0.5 -23.5q0 -11 -3 -20.5t-9.5 -19t-18 -20.5t-29.5 -24q-9 -7 -21 -14.5t-23.5 -13.5t-21 -10t-13.5 -4q-12 0 -12 12q0 10 13 42q2 2 2.5 5t2.5 8q-20 8 -27.5 17.5t-7.5 29.5q0 11 3 22.5t9 26.5q4 9 7.5 18t6.5 18q8 23 14 31.5t15 8.5
q4 0 13.5 -3.5t19.5 -8.5t19 -10.5t13 -9.5q8 -9 12.5 -14t8 -9t7 -7t9.5 -9zM-60 -2q0 3 3 9q-16 2 -26.5 14t-10.5 28q0 27 23 75q4 9 5 11.5t4 10.5q9 21 13.5 26.5t13.5 5.5q3 0 12 -4t19 -9.5t19 -11t12 -9.5q11 -11 20 -20.5t17 -17.5t9.5 -12.5t1.5 -21.5
q0 -26 -11.5 -45t-41.5 -44q-11 -8 -17.5 -13t-14.5 -9t-20 -9t-33 -14q-3 1 -9 8t-6 10q0 2 3.5 9t8.5 18z" />
    <glyph glyph-name="dagger" unicode="&#x2020;" horiz-adv-x="504" 
d="M182 506q12 0 18.5 0.5t10.5 2t6.5 4.5t4.5 9l7 15l4 7q17 27 28 60q11 26 15.5 36t12.5 18q18 23 35 23q2 0 13 -2.5t13 -3.5q9 -4 20 -7.5t24 -8.5q5 -2 12 -3.5t15 -3.5q11 -2 14 -4t3 -10t-3.5 -20.5t-9.5 -27t-13.5 -29t-14.5 -25.5q-2 -2 -4.5 -11t-2.5 -11
q0 -4 2.5 -4.5t19.5 -2.5q9 0 16.5 -0.5t15 -0.5h17h23.5q20 0 32.5 -6t12.5 -14q0 -5 -7.5 -20.5t-21.5 -38.5l-24 -46q-9 -19 -15 -26t-12 -7q-4 0 -13 3q-12 3 -20.5 5t-15.5 3.5t-14.5 2t-18.5 1.5l-27 3q-4 1 -7.5 1h-5.5q-7 0 -9 -8l-4 -10l-9 -16q-6 -12 -9.5 -19.5
t-6 -15t-4 -17.5t-4.5 -26l-7 -17.5t-6 -11.5q-6 -10 -9.5 -16t-6.5 -13t-6.5 -17.5t-9.5 -29.5l-6 -18t-6 -19l-6 -18q-7 -15 -12 -41l-6 -28q-8 -40 -53 -40q-11 0 -18.5 3.5t-17.5 14.5l-19 21l-12 12t-12 13q-15 15 -15 36q0 7 1 14t4 16.5t8.5 23.5t15.5 37
q6 12 16.5 39.5t21 55.5t18.5 50t8 24q0 8 -13 8q-7 0 -18.5 -0.5t-23.5 -1.5t-22 -2.5t-14 -2.5q-14 -3 -20 -3q-7 0 -13.5 5.5t-6.5 10.5t4 10q2 4 7.5 22t8.5 32q8 43 23 59t50 18l23 3q10 1 17 1.5t12 0.5h22z" />
    <glyph glyph-name="daggerdbl" unicode="&#x2021;" horiz-adv-x="504" 
d="M412 660l9 -3q11 -1 14.5 -3.5t3.5 -9.5q0 -5 -2.5 -15.5t-7 -22.5t-10 -24.5t-11.5 -22.5q-3 -6 -3 -10q0 -9 10 -9h3h4.5t5.5 1l55 -1q56 0 56 -19q0 -9 -26 -53q-6 -10 -12 -20.5t-11 -21.5q-16 -30 -26 -30q-4 0 -13 3q-6 2 -19 4.5t-28.5 4.5t-30.5 3.5t-24 1.5
q-6 0 -9 -4t-11 -22q-2 -4 -3.5 -8t-3.5 -8q-2 -5 -2 -4.5t-2 -3.5l-2 -6q0 -5 6 -8t15 -3h10t12 1h8h6l34 -1h31q20 0 33 -5.5t13 -14.5q0 -3 -8 -18.5t-19 -33.5q-6 -10 -11.5 -20.5t-11.5 -21.5q-8 -17 -14 -23.5t-12 -6.5q-4 0 -13 3q-6 2 -20 4.5t-29.5 4.5t-31.5 3.5
t-26 1.5q-19 0 -26 -4.5t-12 -18.5q-8 -25 -16.5 -49.5t-17.5 -50.5q-8 -20 -11 -41l-6 -29q-8 -40 -54 -40q-11 0 -18.5 4t-17.5 14q-5 6 -9.5 11t-9.5 10q-6 7 -12.5 13t-12.5 12q-15 17 -15 38q0 7 4 23t7 24q7 16 11 25t6.5 15t4.5 11t5 13q1 1 1 2q0 6 -16 6
q-11 0 -32.5 -1.5t-29.5 -3.5q-14 -3 -21 -3t-13.5 5t-6.5 10q0 3 3 9q1 1 3 6.5t4.5 13t4.5 15t3 13.5q3 20 8 33t13 21t20 12t30 5l22 2l30 2h23q7 0 9 1.5t5 9.5q1 2 5 14t8 21q1 2 1 5q0 6 -10 4h-23q-5 0 -13.5 -0.5t-17.5 -1t-17 -1.5t-14 -2q-15 -3 -22 -3
q-6 0 -12.5 5t-6.5 10q0 3 3 9q2 5 7.5 21.5t7.5 27.5q6 39 20.5 53.5t50.5 16.5l22 2l30 2h21l26 2l14 2l5 8q4 7 7 13.5t6 12.5q3 5 5.5 10.5t4.5 10.5t2.5 5t2.5 5l10 25t8 16.5t8 11.5t10 11q8 8 13 11t12 3q3 0 14.5 -2t13.5 -4q7 -3 11 -5t8 -3.5t9.5 -3t15.5 -4.5z
" />
    <glyph glyph-name="bullet" unicode="&#x2022;" horiz-adv-x="667" 
d="M336 477q28 0 53 -11t43.5 -30t29.5 -44.5t11 -53.5q0 -29 -11 -54t-29.5 -43.5t-44 -29.5t-53.5 -11q-29 0 -54.5 11t-44 29.5t-29.5 43.5t-11 54t11 54.5t30 44t44.5 29.5t54.5 11z" />
    <glyph glyph-name="ellipsis" unicode="&#x2026;" horiz-adv-x="691" 
d="M71 61l-11 -25q-14 -38 -38 -38q-9 0 -20.5 6t-37.5 24q-23 17 -33.5 29t-10.5 24q0 1 0.5 3t1.5 7t3 14.5t6 26.5q2 9 6.5 20t14.5 30q12 25 33 25q4 0 7 -0.5t7 -3t11 -7.5t19 -15q6 -7 20 -14l5 -3l6 -2q24 -11 32.5 -18t8.5 -17t-18 -43zM290 162q24 -11 32.5 -18
t8.5 -17q0 -5 -4.5 -16t-13.5 -27l-12 -23l-11 -25q-14 -38 -38 -38q-9 0 -20.5 6t-37.5 24q-23 17 -33.5 29t-10.5 24q0 1 0.5 3t1.5 7.5t3 14.5t6 26q2 9 6.5 20.5t14.5 29.5q12 25 33 25q4 0 6.5 -0.5t6.5 -3t11 -7.5t20 -15l5 -4l5 -3zM536 69q-11 -20 -15 -33
q-14 -38 -38 -38q-9 0 -20.5 6t-37.5 24q-23 17 -33.5 29t-10.5 24q0 1 0.5 3t1.5 7t3 14.5t6 26.5q2 9 6.5 20t14.5 30q12 25 33 25q4 0 6.5 -0.5t6.5 -3t11 -7.5t20 -15l5 -4l5 -3q9 -6 21 -12q24 -11 32.5 -18t8.5 -17t-18 -43z" />
    <glyph glyph-name="perthousand" unicode="&#x2030;" horiz-adv-x="1056" 
d="M181 621q8 0 23 -16q3 -3 4 -3t1.5 0.5t4.5 3.5q3 3 9.5 7.5t14 9t13.5 8t8 3.5q10 0 21 -11t19.5 -28.5t14 -39.5t5.5 -44q0 -39 -17.5 -82t-44 -78.5t-58 -59t-60.5 -23.5q-27 0 -67 39q-28 28 -28 60q0 25 7 54t19 58t29 57t37 51q14 15 26 24.5t19 9.5zM145 370
l12 14q4 5 11 16.5t14 24.5t13.5 25.5t9.5 20.5q6 15 9 23.5t4.5 13t1.5 5.5v3q0 4 -1 7q-1 5 -1 10q-3 -5 -5.5 -8.5t-10.5 -14.5q-9 -14 -18.5 -33.5t-17.5 -39.5t-14.5 -38.5t-8.5 -31.5zM148 -8l-15 5l-54 7q-11 2 -11 9q0 2 7 11q8 8 14 17q4 5 3.5 4.5t3.5 4.5
q10 14 19 26t22 29.5t32.5 43t51.5 65.5l66 84t62 79t51.5 67.5t36.5 48.5q20 27 35.5 47.5t29.5 38.5t28.5 36t32.5 40q15 18 22.5 22.5t23.5 4.5q8 0 15 -2t18 -7l8 -4t10 -4q13 -7 13 -13q0 -4 -7 -11q-5 -6 -9 -11l-8 -10t-4 -5.5t-4 -5.5q-4 -6 -5.5 -8t-2.5 -3.5
t-2.5 -3.5t-5.5 -8q-9 -11 -18 -21.5t-18 -22.5q-18 -23 -36 -44.5t-36 -43.5q-15 -20 -29.5 -39t-28.5 -39q-8 -10 -11 -14t-5 -6.5t-4.5 -6t-9.5 -12.5q-53 -72 -111 -144q-32 -41 -50.5 -64t-30.5 -38.5t-21 -27.5t-22 -31q-18 -25 -26 -33t-14 -8zM539 355q8 0 23 -16
q3 -3 4 -3t1.5 0.5t4.5 3.5q3 3 9.5 7.5t14 9t13.5 7.5t8 3q10 0 21 -11t19.5 -28.5t14 -39.5t5.5 -43q0 -39 -17.5 -82t-44 -78.5t-58 -59t-60.5 -23.5q-27 0 -67 39q-28 28 -28 60q0 25 7 54t19 58t29 57t37 51q14 15 26 24.5t19 9.5zM503 104l11 13q4 5 11.5 16.5
t14.5 24.5t13.5 26t9.5 21q6 15 9 23.5t4.5 13t1.5 5.5v3q0 4 -1 7q-1 2 -1 4t-1 5q-3 -5 -5 -8t-10 -14q-9 -14 -18.5 -33.5t-17.5 -40t-14.5 -39t-8.5 -30.5zM834 355q8 0 23 -16q3 -3 4 -3t1.5 0.5t4.5 3.5q3 3 9.5 7.5t14 9t13.5 7.5t8 3q10 0 21 -11t19.5 -28.5
t14 -39.5t5.5 -43q0 -39 -17.5 -82t-44 -78.5t-58 -59t-60.5 -23.5q-27 0 -67 39q-28 28 -28 60q0 25 7 54t19 58t29 57t37 51q14 15 26 24.5t19 9.5zM798 104l11 13q8 9 19 28.5t21 40.5t17 39t7 25q0 4 -1 7t-1 9q-3 -5 -5.5 -8t-10.5 -14q-9 -14 -18.5 -33.5t-17.5 -40
t-14.5 -39t-8.5 -30.5z" />
    <glyph glyph-name="guilsinglleft" unicode="&#x2039;" horiz-adv-x="285" 
d="M207 451q7 0 12 -2.5t13 -10.5q18 -17 24.5 -26.5t6.5 -17.5q0 -10 -5.5 -18t-21.5 -19q-8 -6 -24 -20t-32.5 -29.5t-30.5 -29.5t-19 -20q-15 -18 -15 -29q0 -5 2 -11t8 -18.5t17.5 -35t31.5 -59.5q1 -3 1 -12q0 -11 -6 -18t-21 -15t-32 -13t-28 -5q-8 0 -14 2.5
t-13 10.5t-15.5 23.5t-21.5 41.5q-14 28 -22.5 47t-13.5 32.5t-7 22.5t-2 18q0 10 3 19.5t10.5 20t20.5 24.5t34 33q4 4 16.5 14.5t27 22.5t29 23.5t22.5 17.5q28 22 41 29t24 7z" />
    <glyph glyph-name="guilsinglright" unicode="&#x203a;" horiz-adv-x="282" 
d="M92 444q9 0 15.5 -2t13.5 -10t15 -23.5t22 -42.5q14 -29 22.5 -48t13.5 -32t7 -22.5t2 -18.5q0 -10 -3 -19t-10.5 -20t-21 -24.5t-33.5 -32.5q-4 -4 -16.5 -14.5t-27 -23t-29 -23.5t-21.5 -17q-14 -11 -24 -18t-17 -11t-12.5 -5.5t-11.5 -1.5q-7 0 -12 2.5t-13 10.5
q-18 18 -24.5 27t-6.5 17q0 10 5.5 17.5t21.5 19.5q9 7 24.5 21t32 29.5t30 29t18.5 19.5q15 18 15 29q0 4 -1.5 10t-7.5 18.5t-17.5 35t-31.5 60.5q-1 3 -1 12q0 11 6 18t21 15q14 8 30.5 13t26.5 5z" />
    <glyph glyph-name="fraction" unicode="&#x2044;" horiz-adv-x="143" 
d="M-173 -8l-15 5l-54 7q-11 2 -11 9q0 2 7 11l14 17l7 9q10 14 19 26t22 29.5t32.5 43t51.5 65.5l66 84t62 79t51.5 67.5t36.5 48.5q20 27 35.5 47.5t29.5 38.5t28.5 36t32.5 40q15 18 22.5 22.5t23.5 4.5q8 0 15 -2t18 -7l8 -4t10 -4q13 -7 13 -13q0 -4 -7 -11
q-5 -6 -9 -11l-8 -10t-4 -5.5t-4 -5.5q-4 -6 -5.5 -8t-2.5 -3.5t-2.5 -3.5t-5.5 -8q-9 -11 -18 -21.5t-18 -22.5q-18 -23 -36 -44.5t-36 -43.5q-15 -20 -29.5 -39t-28.5 -39q-8 -10 -11 -14t-5 -6.5t-4.5 -6t-9.5 -12.5q-53 -72 -111 -144q-32 -41 -50.5 -64t-30.5 -38.5
t-21 -27.5t-22 -31q-18 -25 -26 -33t-14 -8z" />
    <glyph glyph-name="trademark" unicode="&#x2122;" horiz-adv-x="617" 
d="M180 364l-17 -48q-4 -20 -9.5 -27.5t-15.5 -7.5q-3 0 -9.5 2t-14 4.5t-14.5 5t-10 4.5q-5 3 -11 10t-11 14.5t-8.5 14.5t-3.5 12t1.5 11.5t5.5 17.5t10.5 27t17.5 40l18 49q8 18 12.5 28t7 17t4.5 12.5t5 14.5q-7 -1 -9 -1.5t-8 -2.5q-8 -4 -16 -4q-11 0 -15.5 6.5
t-6.5 25.5l-4 21q-1 5 -1.5 8.5t-0.5 7.5q0 14 11 20t40 11q30 5 134 9q6 0 9.5 -0.5t7 -2.5t7.5 -6.5t11 -12.5q21 -24 21 -32q0 -5 -7 -17t-11 -15q-9 -6 -28 -6q-7 0 -11 1h-5q-14 0 -14 -6q0 -2 3 -6q3 -5 3 -8q0 -5 -2 -10.5t-14 -30.5q-2 -4 -7.5 -18t-11.5 -29.5
t-10.5 -28.5t-4.5 -14zM274 305h-11q-11 0 -21.5 17t-10.5 33q0 22 35 89q7 14 12 23t10 19l12.5 25t21.5 42q9 17 19 34.5t19.5 33.5t18 28t13.5 18q12 13 27 13q4 0 7.5 -0.5t8.5 -2.5t13.5 -7.5t24.5 -14.5q13 -7 16.5 -17t3.5 -36v-9v-5v-4.5t-2 -15.5q15 17 25.5 28.5
t17.5 19t12 12.5t9 10q16 16 31 26.5t23 10.5q6 0 17.5 -8.5t22 -20t18.5 -23.5t8 -19q0 -5 -5 -18q-16 -46 -27 -79t-18.5 -60.5t-12.5 -53.5t-10 -57q-1 -23 -2 -30t-6 -12t-18.5 -11t-19.5 -6q-9 0 -33 18q-28 19 -28 38q0 9 3 23.5t7.5 31.5t10.5 34.5t12 31.5
q5 10 5.5 13.5t2.5 12.5l-10 -18q-23 -38 -42 -73.5t-24 -52.5t-10.5 -23t-14.5 -6q-11 0 -29 15q-2 3 -5 5.5t-6 5.5q-14 10 -17 14t-3 12q0 10 2.5 24t8.5 40l4 29q2 18 7 34q4 12 4 20v13q-1 -10 -1.5 -12.5t-5.5 -9.5q-3 -8 -6 -17.5t-6 -19.5q-5 -13 -10.5 -26.5
t-10.5 -27.5q-4 -11 -6.5 -17.5t-5.5 -14.5t-6 -19.5t-9 -30.5q-5 -17 -12.5 -26.5t-15.5 -9.5q-5 0 -7.5 1.5t-13.5 10.5z" />
    <glyph glyph-name="minus" unicode="&#x2212;" horiz-adv-x="533" 
d="M408 377q30 0 38.5 -3.5t8.5 -15.5q0 -11 -5.5 -26t-13.5 -25q-5 -6 -16 -8.5t-37 -2.5l-49 1q-9 1 -16.5 1h-13.5h-13t-19 -1h-50t-84 -1h-39q-26 0 -33.5 4t-7.5 17q0 10 4.5 23.5t9.5 21.5q7 10 19.5 13t41.5 3h17.5t36.5 -1h37h184z" />
    <glyph glyph-name="fi" unicode="&#xfb01;" horiz-adv-x="464" 
d="M315 56l-10 -40q-3 -12 -8 -16.5t-20 -12.5q-15 -5 -22 -5q-8 0 -14 4t-17 16q-11 14 -22 16l-16 2q-6 1 -13 7t-12.5 14.5t-9.5 18t-4 17.5q0 7 6 24l8 22l8 22q6 18 12 35t13 33l36 90q2 5 3 9.5t1 6.5q0 5 -5 6.5t-31 1.5q-7 0 -11.5 -2t-9 -8.5t-10 -19.5t-13.5 -34
q-6 -16 -9.5 -25.5t-7 -21t-8 -28t-11.5 -46.5q-15 -58 -20.5 -80.5t-5.5 -24.5q-2 -32 -11 -42.5t-35 -10.5q-7 0 -11 1.5t-20 12.5l-20 6q-14 1 -18.5 3t-13.5 13q-17 20 -23 29.5t-6 17.5q0 5 5 20q10 24 15 47q15 49 24.5 80t17.5 53.5t15.5 39.5t17.5 38q6 13 6 20
q0 2 -1 7t-3 13q-1 5 -1.5 13t-0.5 19t4 15t21 9q12 5 15.5 8.5t8.5 17.5q2 7 11 26.5t26 55.5q15 31 32 50.5t47 40.5q29 21 61 28.5t88 7.5q43 0 69 -9t50 -32q10 -10 15.5 -16.5t8.5 -12.5t4 -12.5t1 -16.5q0 -88 -78 -88q-18 0 -30 3q-7 1 -11 2.5t-7.5 5t-7.5 10
t-11 18.5q-9 17 -41 17q-36 0 -54 -43q-2 -8 -4.5 -13l-3.5 -7q-4 -5 -4 -9q0 -8 11 -8q3 0 8.5 1t23.5 3q18 3 33 3q20 0 36.5 -8.5t41.5 -31.5q20 -20 28.5 -31t8.5 -20q0 -4 -2.5 -10.5t-11.5 -26.5q-16 -35 -30 -72t-28 -82q-7 -21 -13.5 -41.5t-12.5 -41.5z" />
    <glyph glyph-name="fl" unicode="&#xfb02;" horiz-adv-x="452" 
d="M-5 3q-14 2 -18.5 4t-13.5 13q-17 20 -23 29.5t-6 17.5q0 5 5 20q5 11 8.5 23t6.5 23q15 48 24.5 80t17.5 54.5t15.5 40t17.5 37.5q6 13 6 20q0 2 -1 7.5t-3 13.5q-1 5 -1.5 12.5t-0.5 18.5t4 15.5t21 9.5q12 4 15.5 7.5t8.5 17.5q2 7 11.5 28t25.5 55q14 26 31.5 46.5
t46.5 43.5q26 20 50.5 28.5t51.5 8.5q10 0 30.5 -1.5t42.5 -4t40 -5t23 -3.5q5 -2 9.5 -3.5t11 -6t16.5 -11.5t27 -19q14 -10 18.5 -15.5t4.5 -13.5q0 -9 -4.5 -20.5t-21.5 -41.5q-17 -34 -37.5 -79t-41 -94t-40.5 -99.5t-36.5 -96.5t-29 -84t-17.5 -61q-6 -36 -25 -34
q-18 2 -23 2.5t-17 1.5q-5 1 -8 1.5t-6.5 3.5t-9 9.5t-14.5 17.5q-21 26 -30 41.5t-9 26.5q0 6 5.5 24t14 43t19 53t21.5 52q12 29 23.5 56.5t22.5 55.5q12 31 24.5 61t25.5 60l24 53q2 6 2 9q0 13 -21 13q-9 0 -15.5 -2t-12.5 -9t-12.5 -20t-15.5 -35q-2 -5 -4.5 -10
t-4.5 -10q-4 -5 -4 -11q0 -4 1.5 -4.5t11.5 -2.5q4 -1 7.5 -6.5t3.5 -10.5q0 -7 -5 -22q-3 -6 -5.5 -12.5t-4.5 -12.5q-11 -23 -18 -51q-3 -8 -5.5 -12.5t-6.5 -6.5t-9.5 -2.5t-14.5 -0.5q-7 0 -11.5 -1.5t-9 -7.5t-9.5 -19t-13 -36q-7 -20 -12.5 -36t-11.5 -39.5
t-14.5 -58.5t-22.5 -92q-2 -32 -10 -42.5t-31 -10.5h-8t-6 1.5t-8 4.5t-13 8z" />
    <glyph glyph-name="periodcentered" horiz-adv-x="230" 
d="M128 186q-14 -38 -38 -38q-9 0 -20.5 6t-37.5 24q-23 17 -33.5 29t-10.5 24q0 1 0.5 3t1.5 7t3 14.5t6 26.5q2 9 6.5 20t14.5 30q12 25 33 25q4 0 7 -0.5t7 -3t11 -7.5t19 -15l10 -6t10 -8l5 -3l6 -2q24 -11 32.5 -18t8.5 -17t-18 -43q-3 -5 -6 -11l-6 -12z" />
  </font>
</defs>
</svg>
