<?xml version="1.0" standalone="no"?>
<!DOCTYPE svg PUBLIC "-//W3C//DTD SVG 1.1//EN" "http://www.w3.org/Graphics/SVG/1.1/DTD/svg11.dtd" >
<svg xmlns="http://www.w3.org/2000/svg" xmlns:xlink="http://www.w3.org/1999/xlink" version="1.1">
<metadata>
Created by FontForge 20170731 at Tue Nov 23 14:11:13 2021
 By Aleksey,,,
Copyright (c) 2007 Monotype Imaging Inc. Soho is designed by Sebastian Lester. All rights reserved.
</metadata>
<defs>
<font id="SohoGothicPro-Regular" horiz-adv-x="935" >
  <font-face 
    font-family="Soho Gothic Pro"
    font-weight="400"
    font-stretch="normal"
    units-per-em="2048"
    panose-1="2 11 5 3 3 5 4 2 2 4"
    ascent="1602"
    descent="-446"
    x-height="1126"
    cap-height="1522"
    bbox="-154 -608 2916 2341"
    underline-thickness="102"
    underline-position="-307"
    unicode-range="U+0020-FE6A"
  />
<missing-glyph horiz-adv-x="1024" 
d="M25 0v1362h972v-1362h-972zM180 1266l332 -498l330 498h-662zM123 1178v-992q0 -1 82.5 123t164.5 249l83 124zM901 1178l-332 -496l332 -498v994zM842 98l-330 496l-332 -496h662z" />
    <glyph glyph-name="f_f" unicode="ff" horiz-adv-x="1488" 
d="M1104 0h-182v973h-484v-973h-184v973l-213 20v133h213v136q0 61 4.5 104.5t21.5 93t47.5 80.5t85.5 51.5t132 20.5q117 0 219 -29v-125q-124 8 -199 8q-30 0 -51.5 -5t-35.5 -17.5t-22 -26.5t-12 -41t-5 -50.5t-1 -63.5v-136h484v136q0 50 3 87t12.5 80.5t29.5 73.5
t50.5 56.5t79.5 39.5t113 13q118 0 220 -29v-125q-124 8 -199 8q-36 0 -59.5 -8.5t-37.5 -21.5t-20.5 -41.5t-8 -55.5t-1.5 -77v-136h319v-153h-319v-973z" />
    <glyph glyph-name="f_i" unicode="fi" horiz-adv-x="1273" 
d="M436 0h-182v973l-215 20v133h215v136q0 65 4.5 109.5t21.5 94t47 78.5t84.5 48.5t131.5 19.5q117 0 219 -29v-125q-124 8 -199 8q-36 0 -59.5 -8.5t-37.5 -21.5t-20.5 -41.5t-8 -55.5t-1.5 -77v-136h668v-1126h-184v973h-484v-973zM1106 1335h-188v250h188v-250z" />
    <glyph glyph-name="f_l" unicode="fl" horiz-adv-x="1286" 
d="M436 0h-182v973l-215 20v133h215v136q0 194 84.5 272t267.5 78q45 0 101 -3.5t89 -7t83.5 -10t52.5 -6.5h184v-1585h-184v1452q-164 14 -303 14q-57 0 -89.5 -6.5t-58 -28t-35.5 -62t-10 -107.5v-136h320v-153h-320v-973z" />
    <glyph glyph-name="f_f_i" unicode="ffi" horiz-adv-x="1937" 
d="M1767 0h-184v973h-479v-973h-182v973h-484v-973h-184v973l-213 20v133h213v136q0 63 4.5 107t21.5 93t47.5 79.5t85.5 50.5t132 20q117 0 219 -29v-125q-124 8 -199 8q-36 0 -59 -8.5t-37 -21.5t-20.5 -41t-8.5 -56t-2 -77v-136h484v136q0 44 2 76.5t9 71t19 66t33.5 55
t51.5 44t74 27t99 10.5q118 0 220 -29v-125q-124 8 -199 8q-36 0 -59 -8.5t-37 -21.5t-20.5 -41t-8.5 -56t-2 -77v-136h663v-1126zM1772 1335h-191v250h191v-250z" />
    <glyph glyph-name="f_f_l" unicode="ffl" horiz-adv-x="1949" 
d="M1780 0h-185v1452q-165 14 -299 14q-58 0 -90.5 -6.5t-57.5 -28t-34.5 -61.5t-9.5 -108v-136h319v-153h-319v-973h-184v973h-482v-973h-184v973l-213 20v133h213v136q0 62 4.5 106.5t22 93.5t48 79.5t85 50.5t131.5 20q117 0 219 -29v-125q-124 8 -199 8
q-36 0 -59.5 -8.5t-37.5 -21.5t-20.5 -41.5t-8 -55.5t-1.5 -77v-136h482v136q0 194 84.5 272t269.5 78q44 0 98.5 -3.5t87.5 -7t82.5 -10t52.5 -6.5h185v-1585z" />
    <glyph glyph-name="f_b" unicode="fb" horiz-adv-x="1943" 
d="M436 0h-182v973l-215 20v133h215v136q0 189 83.5 269.5t260.5 80.5q45 0 96.5 -3.5t76 -6t84 -10t63.5 -7.5h182v-502q138 76 305 76q219 0 322.5 -117t103.5 -362v-193q0 -267 -123.5 -391.5t-376.5 -124.5q-140 0 -413 29v1452q-152 12 -300 12q-54 0 -84.5 -6.5
t-55 -27t-33.5 -61t-9 -107.5v-136h320v-153h-320v-973zM1102 145q132 -10 235 -10q163 0 236.5 79t73.5 275v193q0 171 -60 243t-205 72q-60 0 -141 -13.5t-139 -45.5v-793z" />
    <glyph glyph-name="f_f_b" unicode="ffb" horiz-adv-x="2619" 
d="M1112 0h-182v973h-492v-973h-184v973l-213 16v137h213v136q0 51 3 87t12 80t29 74t51 56.5t81 39.5t115 13q94 0 217 -29v-125q-15 1 -53 3t-73.5 3.5t-66.5 1.5q-46 0 -73 -10.5t-39.5 -39.5t-15.5 -60t-3 -94v-136h492v136q0 189 83.5 269.5t260.5 80.5q165 0 319 -27
h183v-502q138 76 305 76q219 0 322.5 -117t103.5 -362v-193q0 -267 -123.5 -391.5t-376.5 -124.5q-141 0 -414 29v1452q-129 12 -299 12q-54 0 -84.5 -6.5t-55 -27t-33.5 -61t-9 -107.5v-136h320v-153h-320v-973zM2322 489v193q0 171 -59.5 243t-204.5 72q-60 0 -141 -13.5
t-139 -45.5v-793q113 -10 235 -10q163 0 236 79t73 275z" />
    <glyph glyph-name="f_h" unicode="fh" horiz-adv-x="1984" 
d="M1831 0h-184v713q0 163 -47 222.5t-166 59.5q-165 0 -330 -80v-915h-182v1452q-179 14 -291 14q-58 0 -90.5 -6.5t-58 -28t-35 -61.5t-9.5 -108v-136h320v-153h-320v-973h-184v973l-213 20v133h213v136q0 193 87 271.5t271 78.5q124 0 310 -27h182v-522q179 92 366 92
q184 0 272.5 -107t88.5 -329v-719z" />
    <glyph glyph-name="f_f_h" unicode="ffh" horiz-adv-x="2650" 
d="M2497 0h-185v713q0 163 -47 222.5t-166 59.5q-87 0 -175.5 -24.5t-151.5 -55.5v-915h-185v1452q-178 14 -291 14q-58 0 -90.5 -6.5t-57.5 -28t-34.5 -61.5t-9.5 -108v-136h319v-153h-319v-973h-182v973h-484v-973h-184v973l-213 20v133h213v136q0 51 3 87t12 80t29 74
t51 56.5t81 39.5t115 13q117 0 219 -29v-125q-124 8 -199 8q-36 0 -59.5 -8.5t-37.5 -21.5t-20.5 -41.5t-8 -55.5t-1.5 -77v-136h484v136q0 193 86 271.5t270 78.5q123 0 309 -27h185v-522q174 92 364 92q185 0 273 -107t88 -329v-719z" />
    <glyph glyph-name="f_j" unicode="fj" horiz-adv-x="1273" 
d="M438 0h-184v973l-213 20v133h213v136q0 60 4.5 104t22 93.5t48 80.5t85.5 51.5t131 20.5q117 0 219 -29v-125q-124 8 -199 8q-36 0 -59 -8.5t-37 -21.5t-20.5 -41t-8.5 -56t-2 -77v-136h666v-1263q0 -173 -62.5 -246.5t-214.5 -73.5q-77 0 -145 15v133q54 -4 121 -4
q73 0 95 35.5t22 140.5v1110h-482v-973zM1106 1335h-191v250h191v-250z" />
    <glyph glyph-name="f_f_j" unicode="ffj" horiz-adv-x="1939" 
d="M1104 0h-184v973h-484v-973h-182v973l-215 20v133h215v136q0 60 4.5 104t22 93.5t47.5 80.5t84.5 51.5t130.5 20.5q117 0 219 -29v-125q-124 8 -199 8q-35 0 -59 -9t-37.5 -23t-20 -42.5t-8.5 -55.5t-2 -74v-136h484v136q0 61 4.5 104.5t21.5 93t47 80.5t85 51.5
t132 20.5q116 0 217 -29v-125q-124 8 -196 8q-36 0 -59.5 -8.5t-37.5 -21.5t-20.5 -41.5t-8 -55.5t-1.5 -77v-136h665v-1263q0 -173 -62 -246.5t-214 -73.5q-85 0 -145 15v133q50 -4 120 -4q72 0 94.5 36t22.5 140v1110h-481v-973zM1772 1335h-191v250h191v-250z" />
    <glyph glyph-name="f_k" unicode="fk" horiz-adv-x="1832" 
d="M1802 0h-243l-455 559v-559h-182v1452q-179 14 -291 14q-58 0 -90.5 -6.5t-58 -28t-35 -61.5t-9.5 -108v-136h320v-153h-320v-973h-184v973l-213 20v133h213v136q0 193 87 271.5t271 78.5q124 0 310 -27h182v-967l452 508h238l-487 -534z" />
    <glyph glyph-name="f_f_k" unicode="ffk" horiz-adv-x="2498" 
d="M2468 0h-244l-455 559v-559h-184v1452q-179 14 -289 14q-58 0 -90.5 -6.5t-57.5 -28t-34.5 -61.5t-9.5 -108v-136h319v-153h-319v-973h-184v973h-482v-973h-184v973l-213 20v133h213v136q0 61 4.5 104.5t21.5 93t47.5 80.5t85.5 51.5t132 20.5q117 0 219 -29v-125
q-124 8 -199 8q-36 0 -59.5 -8.5t-37.5 -21.5t-20.5 -41.5t-8 -55.5t-1.5 -77v-136h482v136q0 193 87 271.5t269 78.5q123 0 309 -27h184v-967l453 508h238l-488 -534z" />
    <glyph glyph-name=".notdef" horiz-adv-x="1024" 
d="M25 0v1362h972v-1362h-972zM180 1266l332 -498l330 498h-662zM123 1178v-992q0 -1 82.5 123t164.5 249l83 124zM901 1178l-332 -496l332 -498v994zM842 98l-330 496l-332 -496h662z" />
    <glyph glyph-name=".null" horiz-adv-x="0" 
 />
    <glyph glyph-name="nonmarkingreturn" horiz-adv-x="682" 
 />
    <glyph glyph-name="space" unicode=" " horiz-adv-x="391" 
 />
    <glyph glyph-name="exclam" unicode="!" horiz-adv-x="514" 
d="M350 0h-186v276h186v-276zM356 1585l-18 -1190h-160l-20 1190h198z" />
    <glyph glyph-name="quotedbl" unicode="&#x22;" horiz-adv-x="692" 
d="M41 1063l25 491h186l-74 -491h-137zM651 1554l-73 -491h-138l25 491h186z" />
    <glyph glyph-name="numbersign" unicode="#" horiz-adv-x="1517" 
d="M1343 403h-294l-45 -403h-164l43 403h-344l-43 -403h-166l45 403h-203v158h219l41 383h-260v156h279l47 422h164l-46 -422h342l50 422h163l-45 -422h217v-156h-235l-41 -383h276v-158zM942 944h-344l-41 -383h344z" />
    <glyph glyph-name="dollar" unicode="$" horiz-adv-x="1269" 
d="M541 -246v219q-109 4 -211.5 17t-145.5 24v148q233 -27 434 -27q158 0 235 59.5t77 190.5q0 93 -44 151.5t-163 112.5l-260 117q-160 71 -236.5 165.5t-76.5 246.5q0 165 97 255t294 109v209h178v-207q105 -3 203 -15t145 -24v-149q-239 26 -414 26q-159 0 -236 -45
t-77 -159q0 -90 43 -145.5t162 -108.5l262 -115q164 -72 239.5 -170t75.5 -254q0 -180 -101.5 -284t-301.5 -124v-223h-178z" />
    <glyph glyph-name="percent" unicode="%" horiz-adv-x="2187" 
d="M2066 397q0 -204 -93 -310.5t-267 -106.5t-267 106.5t-93 310.5v117q0 204 93 310t267 106t267 -106t93 -310v-117zM1903 397v117q0 154 -52 215.5t-145 61.5t-145 -61.5t-52 -215.5v-117q0 -155 52 -216.5t145 -61.5t145 61.5t52 216.5zM1667 1522l-971 -1522h-184
l971 1522h184zM838 1012q0 -420 -359 -420q-97 0 -168 31.5t-112 89.5t-60.5 132t-19.5 167v112q0 93 19.5 167.5t60.5 132t112 89t168 31.5q359 0 359 -420v-112zM674 1012v112q0 155 -46.5 218t-148.5 63q-101 0 -148.5 -66t-47.5 -215v-112q0 -154 46.5 -217.5
t149.5 -63.5q102 0 148.5 63t46.5 218z" />
    <glyph glyph-name="ampersand" unicode="&#x26;" horiz-adv-x="1513" 
d="M1210 0l-125 133q-168 -162 -467 -162q-235 0 -365 101.5t-130 320.5q0 146 76.5 255.5t232.5 197.5q-46 50 -66 73t-52.5 66t-47 73.5t-26 74t-11.5 88.5q0 170 109 247.5t336 77.5q208 0 373 -33v-147q-167 16 -373 16q-141 0 -197.5 -33t-56.5 -126q0 -64 40 -126.5
t150 -181.5l475 -514q52 136 62 347l-125 14v141h399v-141l-118 -14q-13 -292 -107 -467l229 -248v-33h-215zM616 125q244 0 369 119l-448 489q-111 -65 -166.5 -141t-55.5 -199q0 -268 301 -268z" />
    <glyph glyph-name="quotesingle" unicode="'" horiz-adv-x="292" 
d="M252 1554l-74 -491h-137l25 491h186z" />
    <glyph glyph-name="parenleft" unicode="(" horiz-adv-x="729" 
d="M649 -424h-178q-59 72 -112.5 162.5t-104.5 212t-81 275t-30 315.5q0 168 30 325t81 279.5t104 213.5t113 163h178q-157 -212 -239 -443.5t-82 -537.5q0 -296 82 -525t239 -440z" />
    <glyph glyph-name="parenright" unicode=")" horiz-adv-x="729" 
d="M584 541q0 -162 -30 -315.5t-80.5 -274.5t-103.5 -212t-112 -163h-180q159 211 241 442t82 537q0 297 -82.5 527t-240.5 440h180q59 -72 112 -163t103.5 -213.5t80.5 -279.5t30 -325z" />
    <glyph glyph-name="asterisk" unicode="*" horiz-adv-x="1089" 
d="M950 1231l-143 -47q-84 -26 -152 -39q48 -45 101 -117l88 -121l-129 -94l-88 121q-36 48 -84 131q-24 -46 -82 -129l-86 -123l-131 94l88 123q43 62 98 117q-59 11 -147 39l-144 45l49 153l144 -47q84 -26 143 -55q-10 85 -10 152v151h160v-151q0 -70 -13 -156
q33 17 146 57l143 49z" />
    <glyph glyph-name="plus" unicode="+" horiz-adv-x="1437" 
d="M1231 725h-436v-440h-150v440h-440v149h440v441h150v-441h436v-149z" />
    <glyph glyph-name="comma" unicode="," horiz-adv-x="567" 
d="M457 283l-238 -465h-168l191 465h215z" />
    <glyph glyph-name="hyphen" unicode="-" horiz-adv-x="811" 
d="M657 522h-505v154h505v-154z" />
    <glyph glyph-name="period" unicode="." horiz-adv-x="516" 
d="M350 0h-184v283h184v-283z" />
    <glyph glyph-name="slash" unicode="/" horiz-adv-x="841" 
d="M821 1522l-622 -1522h-179l625 1522h176z" />
    <glyph glyph-name="zero" unicode="0" horiz-adv-x="1306" 
d="M1188 612q0 -315 -138.5 -478t-396.5 -163q-257 0 -395.5 163t-138.5 478v293q0 316 138 478.5t396 162.5t396.5 -162.5t138.5 -478.5v-293zM999 612v293q0 479 -346 479t-346 -479v-293q0 -479 346 -479t346 479z" />
    <glyph glyph-name="one" unicode="1" horiz-adv-x="1144" 
d="M1020 0h-893v154l354 12v1175l-356 -114v164l405 143h138v-1368l352 -12v-154z" />
    <glyph glyph-name="two" unicode="2" horiz-adv-x="1208" 
d="M1073 0h-942v193q0 101 17 178t49 137.5t91.5 116t129.5 101.5t178 105q186 100 246.5 170.5t60.5 176.5q0 116 -77.5 161t-268.5 45q-203 0 -391 -30v145q209 47 401 47q268 0 396.5 -87.5t128.5 -280.5q0 -147 -85 -257t-307 -229q-167 -89 -245.5 -154.5t-109 -141
t-30.5 -201.5v-29h758v-166z" />
    <glyph glyph-name="three" unicode="3" horiz-adv-x="1222" 
d="M1102 412q0 -123 -35.5 -209t-106 -136.5t-166 -73t-225.5 -22.5q-187 0 -415 54v141q244 -33 413 -33q91 0 151.5 11.5t106.5 42t67 85.5t21 140v51q0 46 -4.5 78.5t-20 66.5t-42.5 54.5t-74.5 33.5t-114.5 13h-440v157h440q67 0 114.5 14t74.5 36t42.5 57t20 68t4.5 79
q0 155 -72.5 209.5t-275.5 54.5q-167 0 -405 -28v145q50 11 175.5 28t233.5 17q139 0 235 -20.5t165 -69.5t101 -131.5t32 -204.5q0 -109 -44.5 -197t-139.5 -135q184 -93 184 -325v-51z" />
    <glyph glyph-name="four" unicode="4" horiz-adv-x="1337" 
d="M1237 401h-231v-401h-189v401h-721v193l695 928h215v-957h231v-164zM817 565v703l-532 -703h532z" />
    <glyph glyph-name="five" unicode="5" horiz-adv-x="1198" 
d="M1079 424q0 -240 -138.5 -346.5t-416.5 -106.5q-190 0 -420 49v150q4 -1 75 -9.5t111 -13t108 -9.5t122 -5q205 0 289 64.5t84 226.5v59q0 105 -30.5 162t-111 85t-231.5 28h-385l66 764h823v-168h-664l-38 -434h206q290 0 420.5 -103t130.5 -334v-59z" />
    <glyph glyph-name="six" unicode="6" horiz-adv-x="1292" 
d="M1171 453q0 -86 -19 -157.5t-50 -120.5t-75 -86.5t-89 -59t-97 -35.5t-94 -18.5t-85 -4.5q-65 0 -116 4.5t-110 20t-102.5 41.5t-86 71.5t-69 108t-43 153.5t-16.5 205v396q0 144 29 248t94 179t176 111.5t270 36.5q202 0 416 -45v-147q-240 30 -412 30q-74 0 -132 -10.5
t-98.5 -27.5t-69 -47t-45 -61t-25.5 -77t-12 -88.5t-3 -101.5v-72q72 21 175.5 34t181.5 13q70 0 127 -6t117.5 -21t105.5 -44t82 -72.5t56 -110.5t19 -153v-86zM983 453v77q0 84 -21 137.5t-66.5 81t-100.5 37t-140 9.5q-186 0 -348 -39v-191q0 -130 24 -216.5t73 -133
t110 -64.5t148 -18q66 0 123 18.5t102 56t70.5 100.5t25.5 145z" />
    <glyph glyph-name="seven" unicode="7" horiz-adv-x="1179" 
d="M1092 1321l-664 -1321h-211l698 1354h-809v168h986v-201z" />
    <glyph glyph-name="eight" unicode="8" horiz-adv-x="1339" 
d="M1210 438q0 -73 -10.5 -133.5t-27.5 -105.5t-45 -80.5t-56.5 -59t-69.5 -40.5t-76 -26t-84 -14t-86 -6.5t-89 -1.5q-51 0 -87 1.5t-84.5 6.5t-83.5 14t-75.5 26t-69 40.5t-56.5 59t-45 80.5t-27.5 105.5t-10.5 133.5q0 135 40.5 217.5t125.5 135.5q-160 96 -160 319
q0 108 31.5 188t81 126.5t123.5 75t144.5 37.5t158.5 9q86 0 155.5 -9t142.5 -37.5t122 -74.5t80.5 -126.5t31.5 -188.5q0 -223 -160 -319q85 -53 125.5 -135.5t40.5 -217.5zM1022 438q-2 147 -48.5 210t-166.5 63h-277q-120 0 -167.5 -63.5t-47.5 -209.5q0 -81 18 -137.5
t46 -89t77 -50.5t97 -23t119 -5q69 0 116 5t95 23t76 50.5t45.5 89t17.5 137.5zM1018 1110q0 71 -17.5 121.5t-46.5 79.5t-76.5 46t-95.5 22t-116 5q-66 0 -113 -5t-94 -22t-75.5 -46t-46.5 -79.5t-18 -121.5q0 -120 47 -180t164 -60h277q117 0 164 60t47 180z" />
    <glyph glyph-name="nine" unicode="9" horiz-adv-x="1292" 
d="M1171 547q0 -144 -29 -248t-94 -179t-176 -112t-270 -37q-202 0 -416 45v148q248 -31 412 -31q74 0 132 10.5t98.5 28t69 47t45 61t25.5 77.5t12 88.5t3 101.5v71q-72 -21 -175.5 -34t-180.5 -13q-70 0 -127 6t-118 21t-106 44.5t-82 73t-56 110.5t-19 153v86
q0 86 19 157.5t50 120t75 86t89.5 59.5t97 35.5t94 18t85.5 4.5q65 0 116 -4.5t109.5 -20t102.5 -41.5t86 -71.5t68.5 -108t43 -153.5t16.5 -205v-395zM983 762v190q0 130 -24 216.5t-72.5 133t-109.5 64.5t-148 18q-67 0 -123.5 -18.5t-101.5 -55.5t-71 -100t-26 -145v-78
q0 -68 15 -115.5t40.5 -76.5t68.5 -45t89.5 -21.5t114.5 -5.5q186 0 348 39z" />
    <glyph glyph-name="colon" unicode=":" horiz-adv-x="528" 
d="M356 0h-186v283h186v-283zM356 844h-186v282h186v-282z" />
    <glyph glyph-name="semicolon" unicode=";" horiz-adv-x="548" 
d="M401 283l-241 -465h-162l190 465h213zM377 844h-187v282h187v-282z" />
    <glyph glyph-name="less" unicode="&#x3c;" horiz-adv-x="1437" 
d="M1141 285h-252l-594 516l594 514h252l-596 -514z" />
    <glyph glyph-name="equal" unicode="=" horiz-adv-x="1437" 
d="M1176 651v-151h-916v151h916zM1176 950h-916v154h916v-154z" />
    <glyph glyph-name="greater" unicode="&#x3e;" horiz-adv-x="1437" 
d="M1141 801l-596 -516h-250l594 516l-594 514h250z" />
    <glyph glyph-name="question" unicode="?" horiz-adv-x="966" 
d="M424 0h-184v283h184v-283zM61 1425v140q174 47 338 47q213 0 320.5 -81.5t107.5 -268.5q0 -101 -46.5 -190.5t-166.5 -209.5q-70 -70 -108 -116.5t-57.5 -91.5t-24 -78.5t-4.5 -94.5v-86h-180v86q0 97 12 158t56.5 134.5t133.5 160.5q116 113 155.5 180.5t39.5 147.5
q0 111 -60.5 149.5t-193.5 38.5q-91 0 -322 -25z" />
    <glyph glyph-name="at" unicode="@" horiz-adv-x="1708" 
d="M1595 754q0 -116 -22.5 -210.5t-75 -176.5t-135 -137.5t-207.5 -87t-287 -31.5q-213 0 -310 75t-97 232q0 138 18.5 240t51 166.5t83.5 103.5t109.5 54t136.5 15q173 0 334 -41l-68 -673q324 73 324 473q0 236 -128.5 350.5t-395.5 114.5q-284 0 -439 -139t-211 -464
q-24 -144 -24 -282q0 -79 14 -142.5t50 -120t93.5 -95t148.5 -60.5t210 -22q73 0 161.5 4.5t139 8t64.5 5.5v-102q-201 -31 -363 -31q-177 0 -306 40t-205 115.5t-112 174.5t-36 225q0 153 24 297q61 375 252.5 542.5t538.5 167.5q335 0 502 -151.5t167 -437.5zM1006 838
q-52 8 -144 8q-47 0 -78 -7.5t-62.5 -32.5t-49.5 -71t-29.5 -125t-11.5 -192q0 -95 52 -130.5t181 -35.5q53 0 86 2z" />
    <glyph glyph-name="A" unicode="A" horiz-adv-x="1357" 
d="M1307 0h-201l-158 498h-545l-161 -498h-191l498 1522h260zM891 670l-143 444q-38 116 -62 250h-20q-31 -157 -62 -250l-145 -444h432z" />
    <glyph glyph-name="B" unicode="B" horiz-adv-x="1308" 
d="M1196 428q0 -77 -16.5 -139t-45.5 -106.5t-74 -77t-96 -52.5t-118 -32t-133 -16.5t-148 -4.5h-391v1522h401q85 0 151 -4t132 -15.5t114.5 -31t90.5 -50.5t68.5 -73.5t41.5 -102t15 -133.5q0 -104 -52 -194.5t-155 -133.5q215 -82 215 -356zM1006 428q0 67 -16 116
t-53 87.5t-104.5 58t-164.5 19.5h-306v-543h203q92 0 155 5.5t121 21.5t91.5 44.5t53.5 76t20 114.5zM997 1112q0 43 -6.5 76.5t-22 58t-33.5 42.5t-49 30t-59.5 19t-73 10.5t-82.5 4.5t-96 1h-213v-484h306q96 0 162 17t102 51t50.5 75.5t14.5 98.5z" />
    <glyph glyph-name="C" unicode="C" horiz-adv-x="1140" 
d="M1079 6q-213 -35 -352 -35q-91 0 -166.5 12.5t-147 40.5t-124.5 78.5t-93.5 122.5t-61.5 175.5t-21 234.5v252q0 113 16 205t44.5 159.5t72 119t93.5 84.5t114 53.5t130 29t144 8.5q139 0 352 -35v-153q-235 20 -352 20q-111 0 -188 -24t-132 -80.5t-80.5 -151.5
t-25.5 -235v-252q0 -140 25.5 -235.5t80.5 -152.5t132 -81.5t188 -24.5q129 0 352 19v-154z" />
    <glyph glyph-name="D" unicode="D" horiz-adv-x="1380" 
d="M1268 639q0 -149 -36 -263.5t-114 -200.5t-208 -130.5t-310 -44.5h-426v1522h426q174 0 303.5 -44.5t208.5 -129t117.5 -199.5t38.5 -262v-248zM1077 639v248q0 253 -120 360t-373 107h-222v-1188h222q252 0 372.5 109.5t120.5 363.5z" />
    <glyph glyph-name="E" unicode="E" horiz-adv-x="1187" 
d="M1075 0h-901v1522h901v-168h-713v-480h670v-169h-670v-539h713v-166z" />
    <glyph glyph-name="F" unicode="F" horiz-adv-x="1167" 
d="M1075 1354h-713v-480h670v-169h-670v-705h-188v1522h901v-168z" />
    <glyph glyph-name="G" unicode="G" horiz-adv-x="1298" 
d="M1165 14q-219 -43 -448 -43q-106 0 -193 19.5t-165 66.5t-131 120.5t-84 187.5t-31 262v268q0 155 35 272.5t91 188t137.5 114.5t163 60t179.5 16q222 0 446 -39v-151q-73 6 -216 14t-204 8q-84 0 -145.5 -10t-120.5 -40.5t-95.5 -82.5t-58.5 -140t-22 -210v-268
q0 -143 28 -238.5t86.5 -149t135.5 -75t188 -21.5q129 0 236 7v641h188v-777z" />
    <glyph glyph-name="H" unicode="H" horiz-adv-x="1486" 
d="M1313 0h-189v719h-762v-719h-188v1522h188v-633h762v633h189v-1522z" />
    <glyph glyph-name="I" unicode="I" horiz-adv-x="536" 
d="M362 0h-188v1522h188v-1522z" />
    <glyph glyph-name="J" unicode="J" horiz-adv-x="534" 
d="M360 -123q0 -173 -69 -249.5t-244 -76.5q-98 0 -151 17v141h32q49 0 75 0.5t57 3t44.5 6t29.5 13t21.5 20t11 30t6.5 41t1 54.5v1645h186v-1645z" />
    <glyph glyph-name="K" unicode="K" horiz-adv-x="1298" 
d="M1268 0h-258l-637 733v-733h-189v1522h189v-715l653 715h242l-686 -748z" />
    <glyph glyph-name="L" unicode="L" horiz-adv-x="1110" 
d="M1059 0h-885v1522h188v-1356h697v-166z" />
    <glyph glyph-name="M" unicode="M" horiz-adv-x="1665" 
d="M1491 0h-186v989q0 110 10 283h-4q-14 -35 -109 -234l-256 -546h-231l-250 546q-35 78 -109 234h-4q8 -208 8 -283v-989h-186v1522h248l315 -686q14 -29 29 -64l33 -77t28 -64h4q4 10 95 209l319 682h246v-1522z" />
    <glyph glyph-name="N" unicode="N" horiz-adv-x="1445" 
d="M1272 0h-268l-537 1092q-102 209 -123 258h-4q10 -167 10 -318v-1032h-176v1522h270l531 -1063q58 -117 123 -260h4q-10 151 -10 333v990h180v-1522z" />
    <glyph glyph-name="O" unicode="O" horiz-adv-x="1400" 
d="M1288 651q0 -326 -152 -503t-436 -177q-283 0 -435 177t-152 503v217q0 326 151.5 502t435.5 176t436 -176t152 -502v-217zM1098 651v217q0 267 -106 388.5t-292 121.5t-291.5 -121.5t-105.5 -388.5v-217q0 -267 105.5 -389.5t291.5 -122.5t292 122.5t106 389.5z" />
    <glyph glyph-name="P" unicode="P" horiz-adv-x="1239" 
d="M1167 1047q0 -74 -14.5 -134.5t-35 -105.5t-63 -79.5t-77.5 -57t-100 -38t-110 -23.5t-128 -12t-132.5 -4.5t-144.5 -0.5v-592h-188v1522q49 0 146.5 1t144.5 1q97 0 160.5 -2.5t144.5 -12.5t132.5 -29t106.5 -54t86 -85t51.5 -124.5t20.5 -169.5zM977 1047
q0 64 -12.5 111.5t-30 80.5t-55 54.5t-71 34t-96.5 18t-112 7t-137 1.5h-101v-596h62q111 0 170.5 2t134 10.5t111.5 26.5t73.5 50t50 81t13.5 119z" />
    <glyph glyph-name="Q" unicode="Q" horiz-adv-x="1400" 
d="M1288 651q0 -297 -128.5 -471t-366.5 -203v-112q0 -63 24.5 -82t112.5 -19h174v-129q-97 -20 -227 -20q-52 0 -90 5.5t-73.5 21.5t-57.5 43.5t-35 72.5t-13 107v112q-240 29 -367.5 202t-127.5 472v217q0 326 151.5 502t435.5 176t436 -176t152 -502v-217zM1098 651v217
q0 267 -106 388.5t-292 121.5t-291.5 -121.5t-105.5 -388.5v-217q0 -267 105.5 -389.5t291.5 -122.5t292 122.5t106 389.5z" />
    <glyph glyph-name="R" unicode="R" horiz-adv-x="1304" 
d="M1264 0h-224l-358 594q-41 -2 -143 -2h-177v-592h-188v1522h358q114 0 202 -10.5t172.5 -41t139.5 -81t88 -134.5t33 -198q0 -175 -72.5 -275.5t-211.5 -148.5zM977 1057q0 75 -19 128t-52 86t-90.5 51.5t-123 25t-160.5 6.5h-170v-596h177q117 0 194.5 13t134.5 46.5
t83 92t26 147.5z" />
    <glyph glyph-name="S" unicode="S" horiz-adv-x="1198" 
d="M1085 385q0 -200 -127 -307t-376 -107q-123 0 -252.5 14.5t-182.5 28.5v148q233 -27 435 -27q158 0 234.5 59.5t76.5 190.5q0 93 -44 151.5t-163 112.5l-260 117q-160 71 -236.5 165.5t-76.5 246.5q0 187 123 277.5t374 90.5q122 0 245 -14t175 -27v-149q-239 26 -414 26
q-159 0 -236 -45t-77 -159q0 -90 43 -145.5t162 -108.5l262 -115q164 -72 239.5 -170t75.5 -254z" />
    <glyph glyph-name="T" unicode="T" horiz-adv-x="1249" 
d="M1188 1354h-469v-1354h-189v1354h-469v168h1127v-168z" />
    <glyph glyph-name="U" unicode="U" horiz-adv-x="1431" 
d="M1268 633q0 -330 -138.5 -496t-412.5 -166q-553 0 -553 662v889h188v-869q0 -281 79.5 -396.5t285.5 -115.5q204 0 284 116t80 396v869h187v-889z" />
    <glyph glyph-name="V" unicode="V" horiz-adv-x="1378" 
d="M1317 1522l-502 -1522h-252l-502 1522h201l361 -1116q13 -38 25 -83t25 -101.5t19 -78.5h4q41 184 68 263l360 1116h193z" />
    <glyph glyph-name="W" unicode="W" horiz-adv-x="1843" 
d="M1751 1522l-274 -1522h-301l-207 942q-7 33 -21.5 97.5t-21.5 97.5h-6q-7 -33 -21.5 -97.5t-21.5 -97.5l-205 -942h-305l-275 1522h201l178 -1069q8 -50 24.5 -151.5t24.5 -151.5h10q12 50 33 150.5t33 150.5l182 845h295l184 -852q10 -49 32 -147t32 -147h10
q13 99 47 303l181 1069h192z" />
    <glyph glyph-name="X" unicode="X" horiz-adv-x="1376" 
d="M1315 0h-230l-413 627l-402 -627h-209l506 774l-501 748h223l409 -615l398 615h209l-506 -756z" />
    <glyph glyph-name="Y" unicode="Y" horiz-adv-x="1284" 
d="M1243 1522l-508 -920v-602h-186v602l-508 920h207l276 -502q82 -151 117 -242h12q10 27 27 62.5t30 59t35.5 65t30.5 55.5l275 502h192z" />
    <glyph glyph-name="Z" unicode="Z" horiz-adv-x="1277" 
d="M1165 0h-1052v209l821 1145h-791v168h994v-207l-820 -1149h848v-166z" />
    <glyph glyph-name="bracketleft" unicode="[" horiz-adv-x="827" 
d="M709 -426h-476v1948h476v-158h-293v-1636h293v-154z" />
    <glyph glyph-name="backslash" unicode="\" horiz-adv-x="905" 
d="M852 0h-178l-623 1522h176z" />
    <glyph glyph-name="bracketright" unicode="]" horiz-adv-x="827" 
d="M592 -426h-475v154h293v1638h-293v156h475v-1948z" />
    <glyph glyph-name="asciicircum" unicode="^" horiz-adv-x="1437" 
d="M1210 850h-200l-293 586l-291 -586h-203l338 678h311z" />
    <glyph glyph-name="underscore" unicode="_" horiz-adv-x="1175" 
d="M1186 -217h-1198v121h1198v-121z" />
    <glyph glyph-name="grave" unicode="`" 
d="M602 1262h-184l-307 315h223z" />
    <glyph glyph-name="a" unicode="a" horiz-adv-x="1116" 
d="M973 0h-176v76q-152 -105 -359 -105q-336 0 -336 320v41q0 87 24.5 150t66.5 101t110.5 60t142 29.5t175.5 7.5h167v82q0 77 -9 120t-39 71t-79 37t-137 9q-137 0 -348 -24v131q39 14 144 31.5t219 17.5q93 0 162.5 -11t117 -34.5t78 -54.5t47.5 -78t23 -96.5t6 -118.5
v-762zM788 205v336h-167q-96 0 -153.5 -7.5t-101.5 -29.5t-61.5 -63.5t-17.5 -108.5v-56q0 -90 48.5 -125.5t139.5 -35.5q89 0 178 29.5t135 60.5z" />
    <glyph glyph-name="b" unicode="b" horiz-adv-x="1183" 
d="M1071 487q0 -267 -123.5 -391.5t-376.5 -124.5q-140 0 -413 29v1585h184v-502q138 76 303 76q218 0 322 -117t104 -362v-193zM887 489v193q0 171 -60 243t-204 72q-62 0 -143 -13.5t-138 -45.5v-793q127 -10 233 -10q163 0 237.5 79t74.5 275z" />
    <glyph glyph-name="c" unicode="c" horiz-adv-x="976" 
d="M885 10q-127 -39 -322 -39q-226 0 -338 131t-112 377v170q0 247 111.5 376.5t338.5 129.5q195 0 322 -39v-139q-196 20 -295 20q-57 0 -100 -9t-80.5 -32.5t-61.5 -62.5t-37.5 -100t-13.5 -144v-170q0 -103 20 -173t60 -108t90.5 -53.5t122.5 -15.5q90 0 295 21v-140z
" />
    <glyph glyph-name="d" unicode="d" horiz-adv-x="1183" 
d="M1026 0h-178v57q-145 -86 -316 -86q-203 0 -311 119t-108 363v194q0 99 16 177.5t46.5 133.5t71.5 94t94.5 61t111 32t125.5 10q119 0 264 -29v459h184v-1585zM842 199v774q-149 26 -252 26q-59 0 -101 -7.5t-80.5 -29.5t-61.5 -61t-36.5 -102t-13.5 -152v-194
q0 -168 64.5 -246t205.5 -78q132 0 275 70z" />
    <glyph glyph-name="e" unicode="e" horiz-adv-x="1185" 
d="M1073 496h-776v-23q0 -47 2.5 -81t10.5 -72t22.5 -64t40 -51.5t61 -40.5t87 -24t116.5 -9q199 0 393 33v-148q-176 -45 -401 -45q-149 0 -249 32.5t-159 103t-83.5 168t-24.5 239.5v86q0 269 120 412t357 143q246 0 364.5 -144.5t118.5 -432.5v-82zM883 647v21
q0 48 -5 87.5t-22.5 86t-47.5 78.5t-85.5 53.5t-130.5 21.5q-293 0 -293 -327v-21h584z" />
    <glyph glyph-name="f" unicode="f" horiz-adv-x="823" 
d="M758 973h-320v-973h-184v973l-213 16v137h213v136q0 61 4.5 104.5t21.5 93t47.5 80.5t85.5 51.5t132 20.5q111 0 217 -29v-125q-15 1 -53 3t-73.5 3.5t-66.5 1.5q-46 0 -73 -10.5t-39.5 -39.5t-15.5 -60t-3 -94v-136h320v-153z" />
    <glyph glyph-name="g" unicode="g" horiz-adv-x="1183" 
d="M1026 -63q0 -74 -10.5 -130t-39 -108t-76 -84.5t-125 -52t-183.5 -19.5q-112 0 -240.5 15.5t-173.5 25.5v133q246 -16 414 -16q82 0 133 14t76 46.5t33 71.5t8 104v57q-130 -21 -228 -21q-123 0 -212.5 26.5t-156 86t-99.5 161.5t-33 247v141q0 264 120.5 392t387.5 128
q171 0 405 -29v-1189zM842 147v838q-80 14 -221 14q-184 0 -254 -86t-70 -278v-141q0 -142 33 -221t100.5 -111.5t185.5 -32.5q57 0 128.5 6.5t97.5 11.5z" />
    <glyph glyph-name="h" unicode="h" horiz-adv-x="1220" 
d="M1067 0h-184v713q0 163 -47 222.5t-166 59.5q-165 0 -330 -80v-915h-182v1585h182v-522q179 92 367 92q184 0 272 -107t88 -329v-719z" />
    <glyph glyph-name="i" unicode="i" horiz-adv-x="524" 
d="M354 0h-184v1126h184v-1126zM356 1335h-186v250h186v-250z" />
    <glyph glyph-name="j" unicode="j" horiz-adv-x="524" 
d="M354 -137q0 -180 -62 -250t-222 -70q-88 0 -138 11v135q11 0 52.5 -1t68.5 -1q73 0 95 35.5t22 140.5v1263h184v-1263zM356 1335h-186v250h186v-250z" />
    <glyph glyph-name="k" unicode="k" horiz-adv-x="1069" 
d="M1038 0h-243l-455 559v-559h-182v1585h182v-967l453 508h237l-487 -534z" />
    <glyph glyph-name="l" unicode="l" horiz-adv-x="522" 
d="M352 0h-182v1585h182v-1585z" />
    <glyph glyph-name="m" unicode="m" horiz-adv-x="1753" 
d="M1599 0h-184v748q0 38 -0.5 56.5t-2.5 48.5t-6 44t-12 34t-20 29.5t-29.5 19.5t-42 13.5t-55.5 3.5q-122 0 -284 -94q8 -53 8 -155v-748h-185v748v50.5t-1.5 44t-4 41t-7.5 33t-12.5 29.5t-19 21t-27 17t-36 9t-45.5 4q-122 0 -293 -98v-899h-182v1126h182v-88
q158 117 336 117t248 -121q184 121 348 121q94 0 159.5 -28t97.5 -62.5t49 -99.5t19 -104.5t2 -110.5v-2v-748z" />
    <glyph glyph-name="n" unicode="n" horiz-adv-x="1220" 
d="M1067 0h-184v719q0 159 -37.5 218.5t-151.5 59.5q-127 0 -354 -100v-897h-182v1126h182v-88q111 57 199.5 87t175.5 30q88 0 151 -20t102 -54t61 -91t30 -120t8 -151v-719z" />
    <glyph glyph-name="o" unicode="o" horiz-adv-x="1185" 
d="M1073 481q0 -248 -122.5 -379t-358.5 -131q-235 0 -357 131.5t-122 378.5v164q0 247 122 378.5t357 131.5q236 0 358.5 -131t122.5 -379v-164zM889 481v164q0 183 -71 265.5t-226 82.5q-153 0 -224 -83t-71 -265v-164q0 -183 70.5 -265.5t224.5 -82.5q155 0 226 82.5
t71 265.5z" />
    <glyph glyph-name="p" unicode="p" horiz-adv-x="1181" 
d="M1069 520q0 -127 -24 -223.5t-65.5 -157.5t-103.5 -99.5t-130.5 -53.5t-153.5 -15q-124 0 -252 33v-434h-182v1556h176v-75q149 104 328 104q201 0 304 -124t103 -400v-111zM887 520v111q0 200 -61.5 281t-192.5 81q-68 0 -132 -18t-161 -66v-751q158 -31 252 -31
q73 0 123 15.5t91 56.5t61 120.5t20 200.5z" />
    <glyph glyph-name="q" unicode="q" horiz-adv-x="1183" 
d="M1026 -430h-182v481q-172 -80 -342 -80q-202 0 -295.5 122t-93.5 403v112q0 160 31 267t97.5 168.5t157.5 86.5t224 25q175 0 403 -31v-1554zM842 201v782q-132 10 -224 10q-71 0 -117 -7.5t-88 -30t-65.5 -65t-37 -112t-13.5 -170.5v-112q0 -204 50.5 -283.5
t184.5 -79.5q143 0 310 68z" />
    <glyph glyph-name="r" unicode="r" horiz-adv-x="770" 
d="M739 991q-109 0 -221.5 -27t-177.5 -69v-895h-182v1126h180v-90q150 119 401 119v-164z" />
    <glyph glyph-name="s" unicode="s" horiz-adv-x="987" 
d="M905 285q0 -314 -420 -314q-105 0 -217 16t-151 29v142q12 -1 86 -9.5t145 -14t131 -5.5q138 0 190 37t52 115q0 75 -41 113t-186 100l-82 34q-166 70 -238 148.5t-72 197.5q0 142 99 211.5t309 69.5q102 0 201.5 -14t138.5 -27v-137q-198 20 -332 20q-129 0 -180 -24.5
t-51 -98.5q0 -66 38 -104t158 -90l82 -35q138 -61 207 -108t101 -105.5t32 -146.5z" />
    <glyph glyph-name="t" unicode="t" horiz-adv-x="825" 
d="M764 2q-96 -31 -207 -31q-154 0 -216 64t-62 223v715l-228 16v137h228v293h184v-293h301v-153h-301v-707q0 -97 19 -122t96 -25q98 0 186 10v-127z" />
    <glyph glyph-name="u" unicode="u" horiz-adv-x="1220" 
d="M1063 0h-184v88q-231 -117 -392 -117q-81 0 -141.5 22.5t-96.5 60t-58 95.5t-29.5 119t-7.5 140v718h182v-718q0 -160 37.5 -219.5t152.5 -59.5q126 0 353 100v897h184v-1126z" />
    <glyph glyph-name="v" unicode="v" horiz-adv-x="1097" 
d="M1051 1126l-375 -1126h-254l-375 1126h199l215 -692q20 -63 50.5 -167.5t41.5 -141.5q57 216 86 309l213 692h199z" />
    <glyph glyph-name="w" unicode="w" horiz-adv-x="1701" 
d="M1640 1126l-254 -1126h-260l-208 676q-46 146 -62 227h-8q-16 -81 -62 -227l-208 -676h-261l-256 1126h189l149 -696q38 -188 45 -291h11q14 47 38.5 145t38.5 144l187 606h266l186 -606q14 -47 39.5 -145t38.5 -144h11q7 103 45 291l149 696h186z" />
    <glyph glyph-name="x" unicode="x" horiz-adv-x="1093" 
d="M47 0l399 573l-376 553h206l279 -409l272 409h205l-381 -551l396 -575h-207l-295 430l-291 -430h-207z" />
    <glyph glyph-name="y" unicode="y" horiz-adv-x="1120" 
d="M1073 1126l-428 -1226q-26 -74 -47 -121.5t-52.5 -96.5t-68.5 -76.5t-90 -45t-121 -17.5q-117 0 -219 21v141q117 -8 213 -8q79 0 116.5 44.5t86.5 176.5l31 82l-437 1126h203l229 -632q28 -81 95 -299q38 158 86 301l207 630h196z" />
    <glyph glyph-name="z" unicode="z" horiz-adv-x="999" 
d="M907 0h-825v207l627 766h-600v153h796v-190l-637 -784h639v-152z" />
    <glyph glyph-name="braceleft" unicode="{" horiz-adv-x="843" 
d="M721 -430h-131q-86 0 -148 13t-100.5 35.5t-60 59.5t-29.5 78.5t-8 98.5v376q0 100 -26 147t-107 103v129q55 38 81.5 67.5t39 71t12.5 109.5v379q0 59 8 100.5t29.5 78.5t60 59t100 34.5t148.5 12.5h129v-156h-129q-58 0 -89 -4.5t-49 -21t-22 -38t-4 -65.5v-379
q0 -116 -33 -188t-110 -125q76 -55 109.5 -127t33.5 -187v-376q0 -59 10 -84t43.5 -36t110.5 -11h131v-154z" />
    <glyph glyph-name="bar" unicode="|" horiz-adv-x="647" 
d="M414 -430h-183v1952h183v-1952z" />
    <glyph glyph-name="braceright" unicode="}" horiz-adv-x="843" 
d="M733 481q-81 -56 -107 -103t-26 -147v-376q0 -57 -8 -98.5t-29.5 -78.5t-60 -59.5t-100.5 -35.5t-148 -13h-131v154h131q77 0 110.5 11t43.5 36t10 84v376q0 115 33.5 187t109.5 127q-77 53 -110 125t-33 188v379q0 44 -4 65.5t-22 38t-49 21t-89 4.5h-129v156h129
q87 0 148.5 -12.5t100 -34.5t60 -59t29.5 -78.5t8 -100.5v-379q0 -68 12.5 -109.5t39 -71t81.5 -67.5v-129z" />
    <glyph glyph-name="asciitilde" unicode="~" horiz-adv-x="1437" 
d="M1196 981q0 -66 -10 -114.5t-34.5 -88t-70.5 -60t-112 -20.5q-137 0 -236 82l-129 105q-44 37 -68.5 51t-58.5 14q-54 0 -72 -33t-18 -108v-92h-147v92q0 136 55.5 210.5t183.5 74.5q58 0 102.5 -22t108.5 -73l123 -98q75 -59 148 -59q55 0 71.5 33t16.5 106v96h147v-96z
" />
    <glyph glyph-name="uni00A0" unicode="&#xa0;" horiz-adv-x="391" 
 />
    <glyph glyph-name="exclamdown" unicode="&#xa1;" horiz-adv-x="514" 
d="M356 -461h-198l20 1190h160zM350 1124v-276h-186v276h186z" />
    <glyph glyph-name="cent" unicode="&#xa2;" horiz-adv-x="1015" 
d="M895 1116v-139q-196 20 -295 20q-57 0 -100 -9t-80.5 -32.5t-61.5 -62.5t-37.5 -100t-13.5 -144v-170q0 -103 20 -173t60 -108t90.5 -53.5t122.5 -15.5q89 0 295 21v-140q-99 -30 -246 -37v-219h-168v223q-180 26 -269 154t-89 348v170q0 449 358 500v219h168v-215
q147 -7 246 -37z" />
    <glyph glyph-name="sterling" unicode="&#xa3;" horiz-adv-x="1277" 
d="M1143 1505v-147q-220 24 -377 24q-65 0 -110 -7t-77.5 -26t-51 -43.5t-29 -68.5t-14 -91t-3.5 -120v-156h510v-155h-510v-314q0 -134 -73 -241h735v-160h-942v143q49 52 70.5 122t21.5 136v314h-160v155h160v156q0 108 11.5 185.5t41.5 143.5t82 106.5t132.5 62.5
t193.5 22q222 0 389 -41z" />
    <glyph glyph-name="currency" unicode="&#xa4;" horiz-adv-x="1335" 
d="M1180 393l-129 -129l-156 154q-108 -68 -227 -68q-129 0 -230 68l-155 -152l-127 127l153 154q-67 106 -67 229q0 130 67 230l-153 153l127 127l155 -151q101 65 230 65q128 0 229 -65l154 149l129 -125l-154 -153q68 -114 68 -230q0 -123 -68 -229zM940 776
q0 115 -81 197t-191 82q-111 0 -192 -82t-81 -197q0 -114 81.5 -196t191.5 -82t191 81.5t81 196.5z" />
    <glyph glyph-name="yen" unicode="&#xa5;" horiz-adv-x="1329" 
d="M1221 489h-463v-489h-187v489h-465v148h445l-111 203h-334v147h252l-295 535h207l277 -502q82 -151 117 -242h12q10 27 27 62.5t30 59t35.5 65t30.5 55.5l274 502h193l-295 -535h250v-147h-332l-113 -203h445v-148z" />
    <glyph glyph-name="brokenbar" unicode="&#xa6;" horiz-adv-x="647" 
d="M414 -424h-183v811h183v-811zM414 1522v-809h-183v809h183z" />
    <glyph glyph-name="section" unicode="&#xa7;" horiz-adv-x="1327" 
d="M215 -406v156q234 -26 424 -26q174 0 241.5 57t67.5 178q0 49 -6 78t-29 64.5t-71 69t-129 75.5l-258 133q-148 76 -212.5 169t-64.5 224q0 117 51 209q-51 79 -51 205q0 181 119 270.5t379 89.5q225 0 420 -41v-155q-3 0 -94 8.5t-168 13t-150 4.5q-122 0 -190.5 -22
t-93.5 -61.5t-25 -106.5q0 -88 41.5 -144t167.5 -118l247 -121q179 -87 248.5 -183.5t69.5 -228.5q0 -113 -57 -213q57 -96 57 -219q0 -87 -28 -158.5t-86 -128t-156.5 -87.5t-229.5 -31q-123 0 -252 13.5t-182 26.5zM958 303v51q0 40 -2 65t-9.5 52t-20.5 45t-36.5 39.5
t-56.5 41t-81 42.5l-248 121q-25 12 -44 23t-36.5 23t-24.5 16.5t-25 19t-20 16.5v-61q0 -65 4.5 -98t27.5 -64t56.5 -51.5t104.5 -55.5l254 -127q33 -16 157 -98z" />
    <glyph glyph-name="dieresis" unicode="&#xa8;" 
d="M786 1317h-165v242h165v-242zM319 1559v-242h-167v242h167z" />
    <glyph glyph-name="copyright" unicode="&#xa9;" horiz-adv-x="1730" 
d="M1573 772q0 -174 -53 -315t-147.5 -235t-225.5 -144.5t-287 -50.5q-155 0 -286.5 50.5t-226.5 144.5t-148.5 235.5t-53.5 314.5q0 172 53.5 313t148.5 235t226.5 145t286.5 51q156 0 287 -51t225.5 -145.5t147.5 -235t53 -312.5zM1425 772q0 279 -156 442.5t-409 163.5
q-252 0 -407.5 -163.5t-155.5 -442.5q0 -282 155 -446t408 -164t409 164t156 446zM872 334q-180 0 -275 96.5t-95 278.5v127q0 185 94.5 278.5t275.5 93.5q158 0 230 -20v-131q-120 14 -221 14q-124 0 -168.5 -51.5t-44.5 -183.5v-127q0 -131 45 -184.5t168 -53.5
q101 0 221 14v-131q-72 -20 -230 -20z" />
    <glyph glyph-name="ordfeminine" unicode="&#xaa;" horiz-adv-x="886" 
d="M721 889h-143v49q-102 -66 -240 -66q-101 0 -161 49.5t-60 149.5v21q0 46 12 81.5t36.5 58t53.5 37t72 22t82.5 10t93.5 2.5h102v38q0 83 -31 109.5t-135 26.5q-81 0 -235 -15v97q116 32 258 32q91 0 149 -15t90 -48t44 -76.5t12 -110.5v-452zM571 1038v166h-104
q-118 0 -160.5 -20t-42.5 -90v-27q0 -50 29 -65t88 -15q52 0 107 17t83 34z" />
    <glyph glyph-name="guillemotleft" unicode="&#xab;" horiz-adv-x="1384" 
d="M1268 166h-217l-334 426l334 422h217l-324 -422zM342 592l324 -426h-217l-334 426l334 422h217z" />
    <glyph glyph-name="logicalnot" unicode="&#xac;" horiz-adv-x="1437" 
d="M1176 500h-154v450h-762v154h916v-604z" />
    <glyph glyph-name="uni00AD" unicode="&#xad;" horiz-adv-x="811" 
d="M657 522h-505v154h505v-154z" />
    <glyph glyph-name="registered" unicode="&#xae;" horiz-adv-x="1396" 
d="M1243 975q0 -263 -149 -421.5t-400 -158.5t-400 158.5t-149 421.5q0 264 148.5 421.5t400.5 157.5t400.5 -157.5t148.5 -421.5zM1118 975q0 218 -113 341.5t-311 123.5q-200 0 -313 -123.5t-113 -341.5q0 -221 113 -344t313 -123q199 0 311.5 123.5t112.5 343.5zM989 666
h-155l-164 243h-35h-35v-243h-129v657q74 2 178 2q53 0 93.5 -4.5t78.5 -17.5t62.5 -34.5t39.5 -57.5t15 -85v-6q0 -147 -131 -188zM807 1120v6q0 61 -35.5 78t-122.5 17h-49v-211h51q82 0 119 23.5t37 86.5z" />
    <glyph glyph-name="macron" unicode="&#xaf;" 
d="M819 1341h-702v144h702v-144z" />
    <glyph glyph-name="degree" unicode="&#xb0;" horiz-adv-x="929" 
d="M821 1190q0 -147 -104 -249.5t-252 -102.5t-251 102t-103 250t103 251t251 103t252 -103t104 -251zM666 1190q0 90 -58.5 147.5t-144.5 57.5q-85 0 -143 -58t-58 -147q0 -88 58.5 -146.5t142.5 -58.5q86 0 144.5 58.5t58.5 146.5z" />
    <glyph glyph-name="plusminus" unicode="&#xb1;" horiz-adv-x="1437" 
d="M1223 0h-1012v152h1012v-152zM1231 786h-436v-440h-150v440h-440v150h440v440h150v-440h436v-150z" />
    <glyph glyph-name="two.superior" unicode="&#xb2;" horiz-adv-x="911" 
d="M139 1470v111q36 9 129.5 20t175.5 11q172 0 256 -54.5t84 -173.5q0 -94 -56.5 -158t-203.5 -136q-149 -73 -191 -121.5t-42 -145.5v-12h481v-131h-647v115q0 105 30.5 174.5t91.5 118t177 104.5q66 32 103.5 54t57.5 44t25.5 40.5t5.5 49.5q0 58 -43.5 82.5t-146.5 24.5
q-70 0 -287 -17z" />
    <glyph glyph-name="three.superior" unicode="&#xb3;" horiz-adv-x="905" 
d="M420 662q-78 0 -169 11t-120 19v113q217 -17 277 -17q108 0 155 31t47 119q0 40 -5 65t-20.5 46.5t-47.5 31t-84 9.5h-279v122h281q50 0 82.5 10.5t47.5 32.5t20 45.5t5 59.5q0 70 -42.5 97.5t-159.5 27.5q-60 0 -277 -17v113q30 8 120.5 19.5t168.5 11.5
q183 0 270.5 -55.5t87.5 -188.5q0 -160 -116 -217q116 -53 116 -217q0 -145 -89 -208.5t-269 -63.5z" />
    <glyph glyph-name="acute" unicode="&#xb4;" 
d="M801 1577l-307 -315h-185l269 315h223z" />
    <glyph glyph-name="mu" unicode="&#xb5;" horiz-adv-x="1320" 
d="M1114 0h-184v88q-231 -117 -391 -117q-86 0 -150 25v-426h-184v1556h182v-718q0 -159 38 -219t153 -60q125 0 352 100v897h184v-1126z" />
    <glyph glyph-name="paragraph" unicode="&#xb6;" horiz-adv-x="1507" 
d="M879 -406v932h-95q-119 0 -211.5 12.5t-176 45.5t-138.5 87t-87 140.5t-32 202.5v20q0 87 17 157t46.5 120.5t76 88t99.5 61t123.5 37.5t141.5 19t160 5h536v-1928h-172v1770h-116v-1770h-172z" />
    <glyph glyph-name="periodcentered" unicode="&#xb7;" horiz-adv-x="516" 
d="M350 614h-186v283h186v-283z" />
    <glyph glyph-name="cedilla" unicode="&#xb8;" 
d="M616 -139l-278 -291h-188l237 291h229z" />
    <glyph glyph-name="one.superior" unicode="&#xb9;" horiz-adv-x="880" 
d="M750 680h-594v121l213 6v635l-215 -68v137l262 88h121v-792l213 -6v-121z" />
    <glyph glyph-name="ordmasculine" unicode="&#xba;" horiz-adv-x="897" 
d="M780 1198q0 -160 -85 -244t-246 -84t-246.5 84t-85.5 244v68q0 160 85 242.5t247 82.5t246.5 -82t84.5 -243v-68zM629 1198v68q0 107 -42 153.5t-138 46.5q-95 0 -138 -47t-43 -153v-68q0 -107 42.5 -154t138.5 -47q95 0 137.5 47t42.5 154z" />
    <glyph glyph-name="guillemotright" unicode="&#xbb;" horiz-adv-x="1384" 
d="M1270 592l-334 -426h-217l323 426l-323 422h217zM332 1014l336 -422l-336 -426h-217l325 426l-325 422h217z" />
    <glyph glyph-name="onequarter" unicode="&#xbc;" horiz-adv-x="1931" 
d="M1612 1522l-969 -1522h-184l968 1522h185zM735 614h-594v121l213 6v635l-215 -67v137l262 88h121v-793l213 -6v-121zM1671 0h-168v225h-461v135l467 553h162v-563h144v-125h-144v-225zM1507 350v371l-311 -371h311z" />
    <glyph glyph-name="onehalf" unicode="&#xbd;" horiz-adv-x="2117" 
d="M1612 1522l-969 -1522h-184l968 1522h185zM735 614h-594v121l213 6v635l-215 -67v137l262 88h121v-793l213 -6v-121zM1376 791v110q36 9 129.5 20t175.5 11q173 0 256.5 -54.5t83.5 -172.5q0 -95 -56.5 -160.5t-203.5 -136.5q-104 -51 -150.5 -85.5t-64.5 -73.5t-18 -106
v-12h481v-131h-647v115q0 79 15 135t53 102t91 81t140 77t128 71.5t52.5 53.5t11.5 65q0 58 -43.5 82.5t-146.5 24.5q-83 0 -287 -16z" />
    <glyph glyph-name="threequarters" unicode="&#xbe;" horiz-adv-x="2025" 
d="M1630 1522l-971 -1522h-184l971 1522h184zM1751 0h-168v225h-461v135l467 553h162v-563h143v-125h-143v-225zM1587 350v371l-311 -371h311zM420 596q-78 0 -168.5 11.5t-120.5 19.5v112q204 -16 277 -16q108 0 155 30.5t47 118.5q0 40 -5 65t-20.5 46.5t-47.5 31t-84 9.5
h-279v123h281q50 0 82.5 10.5t47.5 32.5t20 45t5 59q0 70 -42.5 97.5t-159.5 27.5q-73 0 -277 -16v113q29 8 120 19t169 11q183 0 270.5 -55.5t87.5 -187.5q0 -161 -116 -218q116 -53 116 -217q0 -145 -89 -208.5t-269 -63.5z" />
    <glyph glyph-name="questiondown" unicode="&#xbf;" horiz-adv-x="966" 
d="M905 -438q-174 -47 -338 -47q-212 0 -320 78.5t-108 254.5v17q0 101 46.5 190t166.5 209q70 71 108.5 117t58 90.5t24 78.5t4.5 95v86h180v-86q0 -72 -6.5 -120t-27 -103t-61.5 -109t-108 -120q-116 -113 -155 -180.5t-39 -147.5v-17q0 -99 61 -135.5t193 -36.5
q90 0 321 25v-139zM727 844h-184v282h184v-282z" />
    <glyph glyph-name="Agrave" unicode="&#xc0;" horiz-adv-x="1357" 
d="M1307 0h-201l-158 498h-545l-161 -498h-191l498 1522h260zM891 670l-143 444q-38 116 -62 250h-20q-31 -157 -62 -250l-145 -444h432zM864 1616h-184l-307 315h223z" />
    <glyph glyph-name="Aacute" unicode="&#xc1;" horiz-adv-x="1357" 
d="M1307 0h-201l-158 498h-545l-161 -498h-191l498 1522h260zM891 670l-143 444q-38 116 -62 250h-20q-31 -157 -62 -250l-145 -444h432zM1028 1931l-307 -315h-184l268 315h223z" />
    <glyph glyph-name="Acircumflex" unicode="&#xc2;" horiz-adv-x="1357" 
d="M1307 0h-201l-158 498h-545l-161 -498h-191l498 1522h260zM891 670l-143 444q-38 116 -62 250h-20q-31 -157 -62 -250l-145 -444h432zM1073 1616h-184l-215 215l-213 -215h-185l277 315h244z" />
    <glyph glyph-name="Atilde" unicode="&#xc3;" horiz-adv-x="1357" 
d="M1307 0h-201l-158 498h-545l-161 -498h-191l498 1522h260zM891 670l-143 444q-38 116 -62 250h-20q-31 -157 -62 -250l-145 -444h432zM1083 1858q0 -124 -45 -189t-153 -65q-102 0 -209 84l-84 67q-36 31 -61 44t-56 13q-41 0 -56.5 -30t-15.5 -94v-70h-133v70
q0 254 205 254q57 0 101 -18t98 -60l86 -70q72 -59 121 -59q42 0 56.5 29t14.5 94v69h131v-69z" />
    <glyph glyph-name="Adieresis" unicode="&#xc4;" horiz-adv-x="1357" 
d="M1307 0h-201l-158 498h-545l-161 -498h-191l498 1522h260zM891 670l-143 444q-38 116 -62 250h-20q-31 -157 -62 -250l-145 -444h432zM993 1657h-166v241h166v-241zM526 1898v-241h-168v241h168z" />
    <glyph glyph-name="Aring" unicode="&#xc5;" horiz-adv-x="1357" 
d="M1307 0h-201l-158 498h-545l-161 -498h-191l498 1522h260zM891 670l-143 444q-38 116 -62 250h-20q-31 -157 -62 -250l-145 -444h432zM918 1800q0 -113 -65 -168t-171 -55q-108 0 -175 55t-67 168t67 168t175 55q106 0 171 -55t65 -168zM795 1800q0 113 -113 113
q-115 0 -115 -113q0 -112 115 -112q50 0 81.5 26.5t31.5 85.5z" />
    <glyph glyph-name="AE" unicode="&#xc6;" horiz-adv-x="1974" 
d="M1862 0h-899v498h-541l-158 -498h-192l491 1522h1299v-168h-713v-480h672v-169h-672v-539h713v-166zM963 666v690h-271q-9 -30 -31 -108t-36 -122l-148 -460h486z" />
    <glyph glyph-name="Ccedilla" unicode="&#xc7;" horiz-adv-x="1140" 
d="M1079 6q-213 -35 -352 -35q-91 0 -166.5 12.5t-147 40.5t-124.5 78.5t-93.5 122.5t-61.5 175.5t-21 234.5v252q0 113 16 205t44.5 159.5t72 119t93.5 84.5t114 53.5t130 29t144 8.5q139 0 352 -35v-153q-235 20 -352 20q-111 0 -188 -24t-132 -80.5t-80.5 -151.5
t-25.5 -235v-252q0 -140 25.5 -235.5t80.5 -152.5t132 -81.5t188 -24.5q129 0 352 19v-154zM803 -139l-279 -291h-188l237 291h230z" />
    <glyph glyph-name="Egrave" unicode="&#xc8;" horiz-adv-x="1187" 
d="M1075 0h-901v1522h901v-168h-713v-480h670v-169h-670v-539h713v-166zM760 1616h-185l-307 315h224z" />
    <glyph glyph-name="Eacute" unicode="&#xc9;" horiz-adv-x="1187" 
d="M1075 0h-901v1522h901v-168h-713v-480h670v-169h-670v-539h713v-166zM1004 1931l-308 -315h-184l268 315h224z" />
    <glyph glyph-name="Ecircumflex" unicode="&#xca;" horiz-adv-x="1187" 
d="M1075 0h-901v1522h901v-168h-713v-480h670v-169h-670v-539h713v-166zM1024 1616h-184l-215 215l-213 -215h-185l277 315h244z" />
    <glyph glyph-name="Edieresis" unicode="&#xcb;" horiz-adv-x="1187" 
d="M1075 0h-901v1522h901v-168h-713v-480h670v-169h-670v-539h713v-166zM944 1657h-166v241h166v-241zM477 1898v-241h-168v241h168z" />
    <glyph glyph-name="Igrave" unicode="&#xcc;" horiz-adv-x="536" 
d="M362 0h-188v1522h188v-1522zM465 1616h-184l-308 315h224z" />
    <glyph glyph-name="Iacute" unicode="&#xcd;" horiz-adv-x="536" 
d="M362 0h-188v1522h188v-1522zM627 1929l-308 -315h-184l268 315h224z" />
    <glyph glyph-name="Icircumflex" unicode="&#xce;" horiz-adv-x="536" 
d="M362 0h-188v1522h188v-1522zM668 1616h-185l-215 215l-213 -215h-184l276 315h244z" />
    <glyph glyph-name="Idieresis" unicode="&#xcf;" horiz-adv-x="536" 
d="M362 0h-188v1522h188v-1522zM584 1657h-166v241h166v-241zM117 1898v-241h-168v241h168z" />
    <glyph glyph-name="Eth" unicode="&#xd0;" horiz-adv-x="1380" 
d="M1268 639q0 -149 -36 -263.5t-114 -200.5t-208 -130.5t-310 -44.5h-426v707h-108v165h108v650h426q174 0 303.5 -44.5t208.5 -129t117.5 -199.5t38.5 -262v-248zM1077 639v248q0 253 -120 360t-373 107h-222v-482h308v-165h-308v-541h222q252 0 372.5 109.5t120.5 363.5z
" />
    <glyph glyph-name="Ntilde" unicode="&#xd1;" horiz-adv-x="1445" 
d="M1272 0h-268l-537 1092q-102 209 -123 258h-4q10 -167 10 -318v-1032h-176v1522h270l531 -1063q58 -117 123 -260h4q-10 151 -10 333v990h180v-1522zM1126 1853q0 -124 -45 -189t-153 -65q-102 0 -209 84l-84 68q-36 31 -61 44t-56 13q-41 0 -56.5 -30.5t-15.5 -94.5v-69
h-133v69q0 254 205 254q57 0 101 -17.5t98 -59.5l86 -70q72 -59 121 -59q42 0 56.5 28.5t14.5 93.5v70h131v-70z" />
    <glyph glyph-name="Ograve" unicode="&#xd2;" horiz-adv-x="1400" 
d="M1288 651q0 -326 -152 -503t-436 -177q-283 0 -435 177t-152 503v217q0 326 151.5 502t435.5 176t436 -176t152 -502v-217zM1098 651v217q0 267 -106 388.5t-292 121.5t-291.5 -121.5t-105.5 -388.5v-217q0 -267 105.5 -389.5t291.5 -122.5t292 122.5t106 389.5z
M862 1616h-184l-307 315h223z" />
    <glyph glyph-name="Oacute" unicode="&#xd3;" horiz-adv-x="1400" 
d="M1288 651q0 -326 -152 -503t-436 -177q-283 0 -435 177t-152 503v217q0 326 151.5 502t435.5 176t436 -176t152 -502v-217zM1098 651v217q0 267 -106 388.5t-292 121.5t-291.5 -121.5t-105.5 -388.5v-217q0 -267 105.5 -389.5t291.5 -122.5t292 122.5t106 389.5z
M1034 1931l-307 -315h-184l268 315h223z" />
    <glyph glyph-name="Ocircumflex" unicode="&#xd4;" horiz-adv-x="1400" 
d="M1288 651q0 -326 -152 -503t-436 -177q-283 0 -435 177t-152 503v217q0 326 151.5 502t435.5 176t436 -176t152 -502v-217zM1098 651v217q0 267 -106 388.5t-292 121.5t-291.5 -121.5t-105.5 -388.5v-217q0 -267 105.5 -389.5t291.5 -122.5t292 122.5t106 389.5z
M1098 1614h-185l-215 215l-213 -215h-184l277 315h243z" />
    <glyph glyph-name="Otilde" unicode="&#xd5;" horiz-adv-x="1400" 
d="M1288 651q0 -326 -152 -503t-436 -177q-283 0 -435 177t-152 503v217q0 326 151.5 502t435.5 176t436 -176t152 -502v-217zM1098 651v217q0 267 -106 388.5t-292 121.5t-291.5 -121.5t-105.5 -388.5v-217q0 -267 105.5 -389.5t291.5 -122.5t292 122.5t106 389.5z
M1106 1853q0 -124 -45.5 -189t-153.5 -65q-102 0 -209 84l-84 68q-36 31 -60.5 44t-55.5 13q-41 0 -56.5 -30.5t-15.5 -94.5v-69h-133v69q0 254 205 254q57 0 100.5 -17.5t97.5 -59.5l86 -70q72 -59 121 -59q42 0 57 29t15 93v70h131v-70z" />
    <glyph glyph-name="Odieresis" unicode="&#xd6;" horiz-adv-x="1400" 
d="M1288 651q0 -326 -152 -503t-436 -177q-283 0 -435 177t-152 503v217q0 326 151.5 502t435.5 176t436 -176t152 -502v-217zM1098 651v217q0 267 -106 388.5t-292 121.5t-291.5 -121.5t-105.5 -388.5v-217q0 -267 105.5 -389.5t291.5 -122.5t292 122.5t106 389.5z
M1018 1659h-166v242h166v-242zM551 1901v-242h-168v242h168z" />
    <glyph glyph-name="multiply" unicode="&#xd7;" horiz-adv-x="1437" 
d="M1133 489l-107 -104l-307 307l-311 -311l-105 104l311 314l-313 311l105 104l313 -311l309 311l107 -106l-312 -311z" />
    <glyph glyph-name="Oslash" unicode="&#xd8;" horiz-adv-x="1400" 
d="M1288 651q0 -326 -152 -503t-436 -177q-236 0 -381 121l-65 -92h-195l156 217q-102 167 -102 434v217q0 326 151.5 502t435.5 176q230 0 379 -121l68 95h194l-155 -217q102 -167 102 -435v-217zM973 1276q-99 102 -273 102q-186 0 -291.5 -121.5t-105.5 -388.5v-217
q0 -156 37 -260zM1098 651v217q0 156 -37 260l-635 -886q100 -103 274 -103q186 0 292 122.5t106 389.5z" />
    <glyph glyph-name="Ugrave" unicode="&#xd9;" horiz-adv-x="1431" 
d="M1268 633q0 -330 -138.5 -496t-412.5 -166q-553 0 -553 662v889h188v-869q0 -281 79.5 -396.5t285.5 -115.5q204 0 284 116t80 396v869h187v-889zM846 1616h-184l-308 315h224z" />
    <glyph glyph-name="Uacute" unicode="&#xda;" horiz-adv-x="1431" 
d="M1268 633q0 -330 -138.5 -496t-412.5 -166q-553 0 -553 662v889h188v-869q0 -281 79.5 -396.5t285.5 -115.5q204 0 284 116t80 396v869h187v-889zM1083 1933l-307 -315h-184l268 315h223z" />
    <glyph glyph-name="Ucircumflex" unicode="&#xdb;" horiz-adv-x="1431" 
d="M1268 633q0 -330 -138.5 -496t-412.5 -166q-553 0 -553 662v889h188v-869q0 -281 79.5 -396.5t285.5 -115.5q204 0 284 116t80 396v869h187v-889zM1116 1616h-184l-215 215l-213 -215h-185l277 315h244z" />
    <glyph glyph-name="Udieresis" unicode="&#xdc;" horiz-adv-x="1431" 
d="M1268 633q0 -330 -138.5 -496t-412.5 -166q-553 0 -553 662v889h188v-869q0 -281 79.5 -396.5t285.5 -115.5q204 0 284 116t80 396v869h187v-889zM1030 1657h-166v241h166v-241zM563 1898v-241h-168v241h168z" />
    <glyph glyph-name="Yacute" unicode="&#xdd;" horiz-adv-x="1284" 
d="M1243 1522l-508 -920v-602h-186v602l-508 920h207l276 -502q82 -151 117 -242h12q10 27 27 62.5t30 59t35.5 65t30.5 55.5l275 502h192zM1018 1931l-307 -315h-185l269 315h223z" />
    <glyph glyph-name="Thorn" unicode="&#xde;" horiz-adv-x="1259" 
d="M362 0h-188v1522h188v-267h201q114 0 199.5 -10t169 -38.5t137 -77t86 -130t33.5 -192.5v-27q0 -112 -32.5 -194t-86 -131.5t-136.5 -79t-169.5 -39.5t-200.5 -10h-201v-326zM997 780v27q-1 72 -19.5 122.5t-51 82t-88.5 49t-119 23.5t-156 6h-201v-596h201q93 0 157 6.5
t120 24t88.5 49.5t50.5 82.5t18 123.5z" />
    <glyph glyph-name="germandbls" unicode="&#xdf;" horiz-adv-x="1282" 
d="M1159 440q0 -214 -124.5 -334t-383.5 -120q-59 0 -125 6v143q61 -2 119 -2q175 0 254.5 72.5t79.5 236.5v47q0 132 -82.5 200.5t-261.5 68.5h-109v145h109q170 0 240.5 69.5t70.5 196.5v23q0 126 -64.5 193t-224.5 67q-115 0 -180.5 -39.5t-97 -134.5t-31.5 -262v-1016
h-184v1016q0 296 115 446t378 150q235 0 352 -115t117 -305v-23q0 -116 -48.5 -200.5t-145.5 -128.5q108 -43 167.5 -134t59.5 -217v-49z" />
    <glyph glyph-name="agrave" unicode="&#xe0;" horiz-adv-x="1116" 
d="M973 0h-176v76q-152 -105 -359 -105q-336 0 -336 320v41q0 87 24.5 150t66.5 101t110.5 60t142 29.5t175.5 7.5h167v82q0 77 -9 120t-39 71t-79 37t-137 9q-137 0 -348 -24v131q39 14 144 31.5t219 17.5q93 0 162.5 -11t117 -34.5t78 -54.5t47.5 -78t23 -96.5t6 -118.5
v-762zM788 205v336h-167q-96 0 -153.5 -7.5t-101.5 -29.5t-61.5 -63.5t-17.5 -108.5v-56q0 -90 48.5 -125.5t139.5 -35.5q89 0 178 29.5t135 60.5zM711 1262h-185l-307 315h223z" />
    <glyph glyph-name="aacute" unicode="&#xe1;" horiz-adv-x="1116" 
d="M973 0h-176v76q-152 -105 -359 -105q-336 0 -336 320v41q0 87 24.5 150t66.5 101t110.5 60t142 29.5t175.5 7.5h167v82q0 77 -9 120t-39 71t-79 37t-137 9q-137 0 -348 -24v131q39 14 144 31.5t219 17.5q93 0 162.5 -11t117 -34.5t78 -54.5t47.5 -78t23 -96.5t6 -118.5
v-762zM788 205v336h-167q-96 0 -153.5 -7.5t-101.5 -29.5t-61.5 -63.5t-17.5 -108.5v-56q0 -90 48.5 -125.5t139.5 -35.5q89 0 178 29.5t135 60.5zM922 1577l-308 -315h-184l268 315h224z" />
    <glyph glyph-name="acircumflex" unicode="&#xe2;" horiz-adv-x="1116" 
d="M973 0h-176v76q-152 -105 -359 -105q-336 0 -336 320v41q0 87 24.5 150t66.5 101t110.5 60t142 29.5t175.5 7.5h167v82q0 77 -9 120t-39 71t-79 37t-137 9q-137 0 -348 -24v131q39 14 144 31.5t219 17.5q93 0 162.5 -11t117 -34.5t78 -54.5t47.5 -78t23 -96.5t6 -118.5
v-762zM788 205v336h-167q-96 0 -153.5 -7.5t-101.5 -29.5t-61.5 -63.5t-17.5 -108.5v-56q0 -90 48.5 -125.5t139.5 -35.5q89 0 178 29.5t135 60.5zM961 1262h-185l-215 215l-213 -215h-184l276 315h244z" />
    <glyph glyph-name="atilde" unicode="&#xe3;" horiz-adv-x="1116" 
d="M973 0h-176v76q-152 -105 -359 -105q-336 0 -336 320v41q0 87 24.5 150t66.5 101t110.5 60t142 29.5t175.5 7.5h167v82q0 77 -9 120t-39 71t-79 37t-137 9q-137 0 -348 -24v131q39 14 144 31.5t219 17.5q93 0 162.5 -11t117 -34.5t78 -54.5t47.5 -78t23 -96.5t6 -118.5
v-762zM788 205v336h-167q-96 0 -153.5 -7.5t-101.5 -29.5t-61.5 -63.5t-17.5 -108.5v-56q0 -90 48.5 -125.5t139.5 -35.5q89 0 178 29.5t135 60.5zM969 1507q0 -124 -45.5 -189t-153.5 -65q-102 0 -209 84l-84 68q-36 31 -61 44t-56 13q-41 0 -56 -30.5t-15 -94.5v-69h-133
v69q0 254 204 254q57 0 101 -18t98 -60l86 -69q38 -31 64.5 -45.5t56.5 -14.5q42 0 57 29.5t15 93.5v70h131v-70z" />
    <glyph glyph-name="adieresis" unicode="&#xe4;" horiz-adv-x="1116" 
d="M973 0h-176v76q-152 -105 -359 -105q-336 0 -336 320v41q0 87 24.5 150t66.5 101t110.5 60t142 29.5t175.5 7.5h167v82q0 77 -9 120t-39 71t-79 37t-137 9q-137 0 -348 -24v131q39 14 144 31.5t219 17.5q93 0 162.5 -11t117 -34.5t78 -54.5t47.5 -78t23 -96.5t6 -118.5
v-762zM788 205v336h-167q-96 0 -153.5 -7.5t-101.5 -29.5t-61.5 -63.5t-17.5 -108.5v-56q0 -90 48.5 -125.5t139.5 -35.5q89 0 178 29.5t135 60.5zM881 1317h-166v242h166v-242zM414 1559v-242h-168v242h168z" />
    <glyph glyph-name="aring" unicode="&#xe5;" horiz-adv-x="1116" 
d="M973 0h-176v76q-152 -105 -359 -105q-336 0 -336 320v41q0 87 24.5 150t66.5 101t110.5 60t142 29.5t175.5 7.5h167v82q0 77 -9 120t-39 71t-79 37t-137 9q-137 0 -348 -24v131q39 14 144 31.5t219 17.5q93 0 162.5 -11t117 -34.5t78 -54.5t47.5 -78t23 -96.5t6 -118.5
v-762zM788 205v336h-167q-96 0 -153.5 -7.5t-101.5 -29.5t-61.5 -63.5t-17.5 -108.5v-56q0 -90 48.5 -125.5t139.5 -35.5q89 0 178 29.5t135 60.5zM821 1454q0 -113 -64.5 -168t-170.5 -55q-108 0 -175 55t-67 168t67 168t175 55q106 0 170.5 -55t64.5 -168zM698 1454
q0 113 -112 113q-115 0 -115 -113t115 -113q50 0 81 27t31 86z" />
    <glyph glyph-name="ae" unicode="&#xe6;" horiz-adv-x="1861" 
d="M1708 16q-180 -45 -399 -45q-302 0 -420 140q-107 -72 -213 -106t-238 -34q-336 0 -336 320v41q0 87 24.5 150t66.5 101t110.5 60t142 29.5t175.5 7.5h167v82q0 77 -9 120t-39 71t-79 37t-137 9q-137 0 -348 -24v131q39 14 144 31.5t219 17.5q169 0 251 -31t125 -96
q122 125 353 125q243 0 362 -144t119 -415v-98h-774v-23q0 -68 4.5 -111.5t24 -92.5t54.5 -77t99 -46.5t156 -18.5q179 0 395 37v-148zM1561 647v21q0 48 -5 87.5t-23 86t-48.5 78.5t-86 53.5t-130.5 21.5q-291 0 -291 -327v-21h584zM788 205v336h-167q-96 0 -153.5 -7.5
t-101.5 -29.5t-61.5 -63.5t-17.5 -108.5v-56q0 -90 48.5 -125.5t139.5 -35.5q89 0 178 29.5t135 60.5z" />
    <glyph glyph-name="ccedilla" unicode="&#xe7;" horiz-adv-x="976" 
d="M885 10q-127 -39 -322 -39q-226 0 -338 131t-112 377v170q0 247 111.5 376.5t338.5 129.5q195 0 322 -39v-139q-196 20 -295 20q-57 0 -100 -9t-80.5 -32.5t-61.5 -62.5t-37.5 -100t-13.5 -144v-170q0 -103 20 -173t60 -108t90.5 -53.5t122.5 -15.5q90 0 295 21v-140z
M686 -139l-278 -291h-189l238 291h229z" />
    <glyph glyph-name="egrave" unicode="&#xe8;" horiz-adv-x="1185" 
d="M1073 496h-776v-23q0 -47 2.5 -81t10.5 -72t22.5 -64t40 -51.5t61 -40.5t87 -24t116.5 -9q199 0 393 33v-148q-176 -45 -401 -45q-149 0 -249 32.5t-159 103t-83.5 168t-24.5 239.5v86q0 269 120 412t357 143q246 0 364.5 -144.5t118.5 -432.5v-82zM883 647v21
q0 48 -5 87.5t-22.5 86t-47.5 78.5t-85.5 53.5t-130.5 21.5q-293 0 -293 -327v-21h584zM770 1262h-184l-307 315h223z" />
    <glyph glyph-name="eacute" unicode="&#xe9;" horiz-adv-x="1185" 
d="M1073 496h-776v-23q0 -47 2.5 -81t10.5 -72t22.5 -64t40 -51.5t61 -40.5t87 -24t116.5 -9q199 0 393 33v-148q-176 -45 -401 -45q-149 0 -249 32.5t-159 103t-83.5 168t-24.5 239.5v86q0 269 120 412t357 143q246 0 364.5 -144.5t118.5 -432.5v-82zM883 647v21
q0 48 -5 87.5t-22.5 86t-47.5 78.5t-85.5 53.5t-130.5 21.5q-293 0 -293 -327v-21h584zM983 1577l-307 -315h-184l268 315h223z" />
    <glyph glyph-name="ecircumflex" unicode="&#xea;" horiz-adv-x="1185" 
d="M1073 496h-776v-23q0 -47 2.5 -81t10.5 -72t22.5 -64t40 -51.5t61 -40.5t87 -24t116.5 -9q199 0 393 33v-148q-176 -45 -401 -45q-149 0 -249 32.5t-159 103t-83.5 168t-24.5 239.5v86q0 269 120 412t357 143q246 0 364.5 -144.5t118.5 -432.5v-82zM883 647v21
q0 48 -5 87.5t-22.5 86t-47.5 78.5t-85.5 53.5t-130.5 21.5q-293 0 -293 -327v-21h584zM999 1262h-184l-215 215l-213 -215h-184l276 315h244z" />
    <glyph glyph-name="edieresis" unicode="&#xeb;" horiz-adv-x="1185" 
d="M1073 496h-776v-23q0 -47 2.5 -81t10.5 -72t22.5 -64t40 -51.5t61 -40.5t87 -24t116.5 -9q199 0 393 33v-148q-176 -45 -401 -45q-149 0 -249 32.5t-159 103t-83.5 168t-24.5 239.5v86q0 269 120 412t357 143q246 0 364.5 -144.5t118.5 -432.5v-82zM883 647v21
q0 48 -5 87.5t-22.5 86t-47.5 78.5t-85.5 53.5t-130.5 21.5q-293 0 -293 -327v-21h584zM911 1317h-166v242h166v-242zM444 1559v-242h-168v242h168z" />
    <glyph glyph-name="igrave" unicode="&#xec;" horiz-adv-x="524" 
d="M354 0h-184v1126h184v-1126zM420 1262h-184l-308 315h224z" />
    <glyph glyph-name="iacute" unicode="&#xed;" horiz-adv-x="524" 
d="M354 0h-184v1126h184v-1126zM590 1577l-307 -315h-185l269 315h223z" />
    <glyph glyph-name="icircumflex" unicode="&#xee;" horiz-adv-x="524" 
d="M354 0h-184v1126h184v-1126zM662 1262h-185l-215 215l-213 -215h-184l276 315h244z" />
    <glyph glyph-name="idieresis" unicode="&#xef;" horiz-adv-x="524" 
d="M354 0h-184v1126h184v-1126zM582 1317h-166v242h166v-242zM115 1559v-242h-168v242h168z" />
    <glyph glyph-name="eth" unicode="&#xf0;" horiz-adv-x="1185" 
d="M1073 483q0 -250 -122 -380t-359 -130q-236 0 -357.5 130t-121.5 380v138q0 251 121.5 380t357.5 129q136 0 233 -57q-74 200 -239 289l-275 -178l-73 98l206 141q-131 31 -247 31q-27 0 -47 -2v147q34 3 57 3q219 0 391 -68l164 104l76 -96l-109 -76q344 -226 344 -845
v-138zM889 483v138q0 187 -70.5 269.5t-226.5 82.5q-154 0 -224.5 -83t-70.5 -269v-138q0 -185 70 -267.5t225 -82.5q156 0 226.5 82t70.5 268z" />
    <glyph glyph-name="ntilde" unicode="&#xf1;" horiz-adv-x="1220" 
d="M1067 0h-184v719q0 159 -37.5 218.5t-151.5 59.5q-127 0 -354 -100v-897h-182v1126h182v-88q111 57 199.5 87t175.5 30q88 0 151 -20t102 -54t61 -91t30 -120t8 -151v-719zM1014 1507q0 -124 -45.5 -189t-153.5 -65q-102 0 -209 84l-84 68q-36 31 -60.5 44t-55.5 13
q-41 0 -56.5 -30.5t-15.5 -94.5v-69h-133v69q0 254 205 254q57 0 100.5 -17.5t97.5 -60.5l86 -69q38 -31 64.5 -45.5t56.5 -14.5q42 0 57 29.5t15 93.5v70h131v-70z" />
    <glyph glyph-name="ograve" unicode="&#xf2;" horiz-adv-x="1185" 
d="M1073 481q0 -248 -122.5 -379t-358.5 -131q-235 0 -357 131.5t-122 378.5v164q0 247 122 378.5t357 131.5q236 0 358.5 -131t122.5 -379v-164zM889 481v164q0 183 -71 265.5t-226 82.5q-153 0 -224 -83t-71 -265v-164q0 -183 70.5 -265.5t224.5 -82.5q155 0 226 82.5
t71 265.5zM754 1262h-185l-307 315h223z" />
    <glyph glyph-name="oacute" unicode="&#xf3;" horiz-adv-x="1185" 
d="M1073 481q0 -248 -122.5 -379t-358.5 -131q-235 0 -357 131.5t-122 378.5v164q0 247 122 378.5t357 131.5q236 0 358.5 -131t122.5 -379v-164zM889 481v164q0 183 -71 265.5t-226 82.5q-153 0 -224 -83t-71 -265v-164q0 -183 70.5 -265.5t224.5 -82.5q155 0 226 82.5
t71 265.5zM944 1577l-307 -315h-184l268 315h223z" />
    <glyph glyph-name="ocircumflex" unicode="&#xf4;" horiz-adv-x="1185" 
d="M1073 481q0 -248 -122.5 -379t-358.5 -131q-235 0 -357 131.5t-122 378.5v164q0 247 122 378.5t357 131.5q236 0 358.5 -131t122.5 -379v-164zM889 481v164q0 183 -71 265.5t-226 82.5q-153 0 -224 -83t-71 -265v-164q0 -183 70.5 -265.5t224.5 -82.5q155 0 226 82.5
t71 265.5zM991 1262h-184l-215 215l-213 -215h-184l276 315h244z" />
    <glyph glyph-name="otilde" unicode="&#xf5;" horiz-adv-x="1185" 
d="M1073 481q0 -248 -122.5 -379t-358.5 -131q-235 0 -357 131.5t-122 378.5v164q0 247 122 378.5t357 131.5q236 0 358.5 -131t122.5 -379v-164zM889 481v164q0 183 -71 265.5t-226 82.5q-153 0 -224 -83t-71 -265v-164q0 -183 70.5 -265.5t224.5 -82.5q155 0 226 82.5
t71 265.5zM999 1507q0 -124 -45 -189t-153 -65q-102 0 -209 84l-84 68q-36 31 -61 44t-56 13q-41 0 -56.5 -30.5t-15.5 -94.5v-69h-133v69q0 254 205 254q57 0 101 -18t98 -60l86 -69q38 -31 64.5 -45.5t56.5 -14.5q42 0 56.5 29t14.5 94v70h131v-70z" />
    <glyph glyph-name="odieresis" unicode="&#xf6;" horiz-adv-x="1185" 
d="M1073 481q0 -248 -122.5 -379t-358.5 -131q-235 0 -357 131.5t-122 378.5v164q0 247 122 378.5t357 131.5q236 0 358.5 -131t122.5 -379v-164zM889 481v164q0 183 -71 265.5t-226 82.5q-153 0 -224 -83t-71 -265v-164q0 -183 70.5 -265.5t224.5 -82.5q155 0 226 82.5
t71 265.5zM909 1317h-166v242h166v-242zM442 1559v-242h-168v242h168z" />
    <glyph glyph-name="divide" unicode="&#xf7;" horiz-adv-x="1437" 
d="M813 240h-188v274h188v-274zM1206 877v-152h-977v152h977zM813 1081h-188v273h188v-273z" />
    <glyph glyph-name="oslash" unicode="&#xf8;" horiz-adv-x="1185" 
d="M1073 481q0 -248 -122.5 -379t-358.5 -131q-170 0 -285 70l-69 -90h-191l150 196q-84 128 -84 334v164q0 248 121.5 379t357.5 131q185 0 307 -86l82 107h190l-170 -222q72 -126 72 -309v-164zM889 481v164q0 64 -15 141l-464 -608q68 -45 182 -45q154 0 225.5 83
t71.5 265zM795 932q-70 61 -203 61q-154 0 -224.5 -82.5t-70.5 -265.5v-164q0 -107 20 -174z" />
    <glyph glyph-name="ugrave" unicode="&#xf9;" horiz-adv-x="1220" 
d="M1063 0h-184v88q-231 -117 -392 -117q-81 0 -141.5 22.5t-96.5 60t-58 95.5t-29.5 119t-7.5 140v718h182v-718q0 -160 37.5 -219.5t152.5 -59.5q126 0 353 100v897h184v-1126zM748 1262h-185l-307 315h223z" />
    <glyph glyph-name="uacute" unicode="&#xfa;" horiz-adv-x="1220" 
d="M1063 0h-184v88q-231 -117 -392 -117q-81 0 -141.5 22.5t-96.5 60t-58 95.5t-29.5 119t-7.5 140v718h182v-718q0 -160 37.5 -219.5t152.5 -59.5q126 0 353 100v897h184v-1126zM991 1577l-307 -315h-184l268 315h223z" />
    <glyph glyph-name="ucircumflex" unicode="&#xfb;" horiz-adv-x="1220" 
d="M1063 0h-184v88q-231 -117 -392 -117q-81 0 -141.5 22.5t-96.5 60t-58 95.5t-29.5 119t-7.5 140v718h182v-718q0 -160 37.5 -219.5t152.5 -59.5q126 0 353 100v897h184v-1126zM1012 1262h-185l-215 215l-213 -215h-184l277 315h243z" />
    <glyph glyph-name="udieresis" unicode="&#xfc;" horiz-adv-x="1220" 
d="M1063 0h-184v88q-231 -117 -392 -117q-81 0 -141.5 22.5t-96.5 60t-58 95.5t-29.5 119t-7.5 140v718h182v-718q0 -160 37.5 -219.5t152.5 -59.5q126 0 353 100v897h184v-1126zM930 1317h-166v242h166v-242zM463 1559v-242h-168v242h168z" />
    <glyph glyph-name="yacute" unicode="&#xfd;" horiz-adv-x="1120" 
d="M1073 1126l-428 -1226q-26 -74 -47 -121.5t-52.5 -96.5t-68.5 -76.5t-90 -45t-121 -17.5q-117 0 -219 21v141q117 -8 213 -8q79 0 116.5 44.5t86.5 176.5l31 82l-437 1126h203l229 -632q43 -122 91 -299h4q38 158 86 301l207 630h196zM946 1577l-307 -315h-184l268 315
h223z" />
    <glyph glyph-name="thorn" unicode="&#xfe;" horiz-adv-x="1181" 
d="M340 -430h-182v2015h182v-532q154 102 313 102q203 0 309.5 -122.5t106.5 -373.5v-172q0 -514 -475 -514q-96 0 -254 31v-434zM887 487v172q0 175 -62.5 254.5t-191.5 79.5q-68 0 -132 -18t-161 -66v-751q167 -29 252 -29q72 0 123 15.5t91.5 54.5t60.5 110.5t20 177.5z
" />
    <glyph glyph-name="ydieresis" unicode="&#xff;" horiz-adv-x="1120" 
d="M1073 1126l-428 -1226q-26 -74 -47 -121.5t-52.5 -96.5t-68.5 -76.5t-90 -45t-121 -17.5q-117 0 -219 21v141q117 -8 213 -8q79 0 116.5 44.5t86.5 176.5l31 82l-437 1126h203l229 -632q43 -122 91 -299h4q38 158 86 301l207 630h196zM901 1317h-166v242h166v-242z
M434 1559v-242h-168v242h168z" />
    <glyph glyph-name="Amacron" unicode="&#x100;" horiz-adv-x="1357" 
d="M1307 0h-201l-158 498h-545l-161 -498h-191l498 1522h260zM891 670l-143 444q-38 116 -62 250h-20q-31 -157 -62 -250l-145 -444h432zM1030 1688h-702v143h702v-143z" />
    <glyph glyph-name="amacron" unicode="&#x101;" horiz-adv-x="1116" 
d="M973 0h-176v76q-152 -105 -359 -105q-336 0 -336 320v41q0 87 24.5 150t66.5 101t110.5 60t142 29.5t175.5 7.5h167v82q0 77 -9 120t-39 71t-79 37t-137 9q-137 0 -348 -24v131q39 14 144 31.5t219 17.5q93 0 162.5 -11t117 -34.5t78 -54.5t47.5 -78t23 -96.5t6 -118.5
v-762zM788 205v336h-167q-96 0 -153.5 -7.5t-101.5 -29.5t-61.5 -63.5t-17.5 -108.5v-56q0 -90 48.5 -125.5t139.5 -35.5q89 0 178 29.5t135 60.5zM913 1341h-702v144h702v-144z" />
    <glyph glyph-name="Abreve" unicode="&#x102;" horiz-adv-x="1357" 
d="M1307 0h-201l-158 498h-545l-161 -498h-191l498 1522h260zM891 670l-143 444q-38 116 -62 250h-20q-31 -157 -62 -250l-145 -444h432zM1024 1933q-25 -317 -346 -317q-322 0 -344 317h137q10 -106 59.5 -150t147.5 -44q99 0 148 43.5t61 150.5h137z" />
    <glyph glyph-name="abreve" unicode="&#x103;" horiz-adv-x="1116" 
d="M973 0h-176v76q-152 -105 -359 -105q-336 0 -336 320v41q0 87 24.5 150t66.5 101t110.5 60t142 29.5t175.5 7.5h167v82q0 77 -9 120t-39 71t-79 37t-137 9q-137 0 -348 -24v131q39 14 144 31.5t219 17.5q93 0 162.5 -11t117 -34.5t78 -54.5t47.5 -78t23 -96.5t6 -118.5
v-762zM788 205v336h-167q-96 0 -153.5 -7.5t-101.5 -29.5t-61.5 -63.5t-17.5 -108.5v-56q0 -90 48.5 -125.5t139.5 -35.5q89 0 178 29.5t135 60.5zM922 1579q-25 -317 -347 -317t-344 317h138q10 -106 59 -150.5t147 -44.5q99 0 148 44t61 151h138z" />
    <glyph glyph-name="Aogonek" unicode="&#x104;" horiz-adv-x="1357" 
d="M1307 -424q-57 -20 -174 -20q-127 0 -194 53.5t-67 148.5q0 69 60 137.5t168 120.5l-152 482h-545l-161 -498h-191l498 1522h260l498 -1522q-168 -77 -223.5 -130t-55.5 -103q0 -95 121 -95q7 0 158 11v-107zM891 670l-143 444q-38 116 -62 250h-20q-31 -157 -62 -250
l-145 -444h432z" />
    <glyph glyph-name="aogonek" unicode="&#x105;" horiz-adv-x="1116" 
d="M973 -424q-57 -20 -174 -20q-127 0 -193.5 53.5t-66.5 148.5q0 43 19 79t58.5 66t79.5 52t101 49v88q-175 -121 -359 -121q-336 0 -336 320v41q0 87 24.5 150t66.5 101t110.5 60t142 29.5t175.5 7.5h167v82q0 77 -9 120t-39 71t-79 37t-137 9q-137 0 -348 -24v131
q39 14 144 31.5t219 17.5q93 0 162.5 -11t117 -34.5t78 -54.5t47.5 -78t23 -96.5t6 -118.5v-762q-168 -77 -223.5 -130t-55.5 -103q0 -95 121 -95q7 0 158 11v-107zM788 221v320h-167q-96 0 -153.5 -7.5t-101.5 -29.5t-61.5 -63.5t-17.5 -108.5v-56q0 -90 48.5 -125.5
t139.5 -35.5q87 0 172 34.5t141 71.5z" />
    <glyph glyph-name="Cacute" unicode="&#x106;" horiz-adv-x="1140" 
d="M1079 6q-213 -35 -352 -35q-91 0 -166.5 12.5t-147 40.5t-124.5 78.5t-93.5 122.5t-61.5 175.5t-21 234.5v252q0 113 16 205t44.5 159.5t72 119t93.5 84.5t114 53.5t130 29t144 8.5q139 0 352 -35v-153q-235 20 -352 20q-111 0 -188 -24t-132 -80.5t-80.5 -151.5
t-25.5 -235v-252q0 -140 25.5 -235.5t80.5 -152.5t132 -81.5t188 -24.5q129 0 352 19v-154zM1055 1931l-307 -315h-185l268 315h224z" />
    <glyph glyph-name="cacute" unicode="&#x107;" horiz-adv-x="976" 
d="M885 10q-127 -39 -322 -39q-226 0 -338 131t-112 377v170q0 247 111.5 376.5t338.5 129.5q195 0 322 -39v-139q-196 20 -295 20q-57 0 -100 -9t-80.5 -32.5t-61.5 -62.5t-37.5 -100t-13.5 -144v-170q0 -103 20 -173t60 -108t90.5 -53.5t122.5 -15.5q90 0 295 21v-140z
M944 1577l-307 -315h-184l268 315h223z" />
    <glyph glyph-name="Ccircumflex" unicode="&#x108;" horiz-adv-x="1140" 
d="M1079 6q-213 -35 -352 -35q-91 0 -166.5 12.5t-147 40.5t-124.5 78.5t-93.5 122.5t-61.5 175.5t-21 234.5v252q0 113 16 205t44.5 159.5t72 119t93.5 84.5t114 53.5t130 29t144 8.5q139 0 352 -35v-153q-235 20 -352 20q-111 0 -188 -24t-132 -80.5t-80.5 -151.5
t-25.5 -235v-252q0 -140 25.5 -235.5t80.5 -152.5t132 -81.5t188 -24.5q129 0 352 19v-154zM1049 1616h-185l-215 215l-213 -215h-184l276 315h244z" />
    <glyph glyph-name="ccircumflex" unicode="&#x109;" horiz-adv-x="976" 
d="M885 10q-127 -39 -322 -39q-226 0 -338 131t-112 377v170q0 247 111.5 376.5t338.5 129.5q195 0 322 -39v-139q-196 20 -295 20q-57 0 -100 -9t-80.5 -32.5t-61.5 -62.5t-37.5 -100t-13.5 -144v-170q0 -103 20 -173t60 -108t90.5 -53.5t122.5 -15.5q90 0 295 21v-140z
M950 1262h-184l-215 215l-213 -215h-184l276 315h244z" />
    <glyph glyph-name="Cdotaccent" unicode="&#x10a;" horiz-adv-x="1140" 
d="M1079 6q-213 -35 -352 -35q-91 0 -166.5 12.5t-147 40.5t-124.5 78.5t-93.5 122.5t-61.5 175.5t-21 234.5v252q0 113 16 205t44.5 159.5t72 119t93.5 84.5t114 53.5t130 29t144 8.5q139 0 352 -35v-153q-235 20 -352 20q-111 0 -188 -24t-132 -80.5t-80.5 -151.5
t-25.5 -235v-252q0 -140 25.5 -235.5t80.5 -152.5t132 -81.5t188 -24.5q129 0 352 19v-154zM776 1657h-182v246h182v-246z" />
    <glyph glyph-name="cdotaccent" unicode="&#x10b;" horiz-adv-x="976" 
d="M885 10q-127 -39 -322 -39q-226 0 -338 131t-112 377v170q0 247 111.5 376.5t338.5 129.5q195 0 322 -39v-139q-196 20 -295 20q-57 0 -100 -9t-80.5 -32.5t-61.5 -62.5t-37.5 -100t-13.5 -144v-170q0 -103 20 -173t60 -108t90.5 -53.5t122.5 -15.5q90 0 295 21v-140z
M672 1333h-183v246h183v-246z" />
    <glyph glyph-name="Ccaron" unicode="&#x10c;" horiz-adv-x="1140" 
d="M1079 6q-213 -35 -352 -35q-91 0 -166.5 12.5t-147 40.5t-124.5 78.5t-93.5 122.5t-61.5 175.5t-21 234.5v252q0 113 16 205t44.5 159.5t72 119t93.5 84.5t114 53.5t130 29t144 8.5q139 0 352 -35v-153q-235 20 -352 20q-111 0 -188 -24t-132 -80.5t-80.5 -151.5
t-25.5 -235v-252q0 -140 25.5 -235.5t80.5 -152.5t132 -81.5t188 -24.5q129 0 352 19v-154zM287 1931h184l213 -217l215 217h184l-276 -315h-244z" />
    <glyph glyph-name="ccaron" unicode="&#x10d;" horiz-adv-x="976" 
d="M885 10q-127 -39 -322 -39q-226 0 -338 131t-112 377v170q0 247 111.5 376.5t338.5 129.5q195 0 322 -39v-139q-196 20 -295 20q-57 0 -100 -9t-80.5 -32.5t-61.5 -62.5t-37.5 -100t-13.5 -144v-170q0 -103 20 -173t60 -108t90.5 -53.5t122.5 -15.5q90 0 295 21v-140z
M160 1577h184l213 -217l215 217h184l-276 -315h-244z" />
    <glyph glyph-name="Dcaron" unicode="&#x10e;" horiz-adv-x="1380" 
d="M1268 639q0 -149 -36 -263.5t-114 -200.5t-208 -130.5t-310 -44.5h-426v1522h426q174 0 303.5 -44.5t208.5 -129t117.5 -199.5t38.5 -262v-248zM1077 639v248q0 253 -120 360t-373 107h-222v-1188h222q252 0 372.5 109.5t120.5 363.5zM291 1929h184l213 -217l215 217h184
l-276 -315h-244z" />
    <glyph glyph-name="dcaron" unicode="&#x10f;" horiz-adv-x="1415" 
d="M1026 0h-178v57q-145 -86 -316 -86q-203 0 -311 119t-108 363v194q0 99 16 177.5t46.5 133.5t71.5 94t94.5 61t111 32t125.5 10q119 0 264 -29v459h184v-1585zM842 199v774q-149 26 -252 26q-59 0 -101 -7.5t-80.5 -29.5t-61.5 -61t-36.5 -102t-13.5 -152v-194
q0 -168 64.5 -246t205.5 -78q132 0 275 70zM1456 1585l-151 -469h-142l99 469h194z" />
    <glyph glyph-name="Dcroat" unicode="&#x110;" horiz-adv-x="1380" 
d="M1268 639q0 -149 -36 -263.5t-114 -200.5t-208 -130.5t-310 -44.5h-426v707h-108v165h108v650h426q174 0 303.5 -44.5t208.5 -129t117.5 -199.5t38.5 -262v-248zM1077 639v248q0 253 -120 360t-373 107h-222v-482h308v-165h-308v-541h222q252 0 372.5 109.5t120.5 363.5z
" />
    <glyph glyph-name="dcroat" unicode="&#x111;" horiz-adv-x="1200" 
d="M842 1585h184v-141h123v-160h-123v-1284h-178v57q-145 -86 -316 -86q-203 0 -311 119t-108 363v194q0 99 16 177.5t46.5 133.5t71.5 94t94.5 61t111 32t125.5 10q119 0 264 -29v158h-350v160h350v141zM842 199v774q-149 26 -252 26q-59 0 -101 -7.5t-80.5 -29.5
t-61.5 -61t-36.5 -102t-13.5 -152v-194q0 -168 64.5 -246t205.5 -78q132 0 275 70z" />
    <glyph glyph-name="Emacron" unicode="&#x112;" horiz-adv-x="1187" 
d="M1075 0h-901v1522h901v-168h-713v-480h670v-169h-670v-539h713v-166zM983 1688h-702v143h702v-143z" />
    <glyph glyph-name="emacron" unicode="&#x113;" horiz-adv-x="1185" 
d="M1073 496h-776v-23q0 -47 2.5 -81t10.5 -72t22.5 -64t40 -51.5t61 -40.5t87 -24t116.5 -9q199 0 393 33v-148q-176 -45 -401 -45q-149 0 -249 32.5t-159 103t-83.5 168t-24.5 239.5v86q0 269 120 412t357 143q246 0 364.5 -144.5t118.5 -432.5v-82zM883 647v21
q0 48 -5 87.5t-22.5 86t-47.5 78.5t-85.5 53.5t-130.5 21.5q-293 0 -293 -327v-21h584zM938 1341h-702v144h702v-144z" />
    <glyph glyph-name="Ebreve" unicode="&#x114;" horiz-adv-x="1187" 
d="M1075 0h-901v1522h901v-168h-713v-480h670v-169h-670v-539h713v-166zM983 1933q-25 -317 -346 -317q-322 0 -344 317h137q10 -106 59.5 -150t147.5 -44q99 0 148 43.5t61 150.5h137z" />
    <glyph glyph-name="ebreve" unicode="&#x115;" horiz-adv-x="1185" 
d="M1073 496h-776v-23q0 -47 2.5 -81t10.5 -72t22.5 -64t40 -51.5t61 -40.5t87 -24t116.5 -9q199 0 393 33v-148q-176 -45 -401 -45q-149 0 -249 32.5t-159 103t-83.5 168t-24.5 239.5v86q0 269 120 412t357 143q246 0 364.5 -144.5t118.5 -432.5v-82zM883 647v21
q0 48 -5 87.5t-22.5 86t-47.5 78.5t-85.5 53.5t-130.5 21.5q-293 0 -293 -327v-21h584zM940 1577q-25 -317 -346 -317q-322 0 -344 317h137q10 -106 59.5 -150.5t147.5 -44.5q99 0 148 44t61 151h137z" />
    <glyph glyph-name="Edotaccent" unicode="&#x116;" horiz-adv-x="1187" 
d="M1075 0h-901v1522h901v-168h-713v-480h670v-169h-670v-539h713v-166zM717 1657h-182v246h182v-246z" />
    <glyph glyph-name="edotaccent" unicode="&#x117;" horiz-adv-x="1185" 
d="M1073 496h-776v-23q0 -47 2.5 -81t10.5 -72t22.5 -64t40 -51.5t61 -40.5t87 -24t116.5 -9q199 0 393 33v-148q-176 -45 -401 -45q-149 0 -249 32.5t-159 103t-83.5 168t-24.5 239.5v86q0 269 120 412t357 143q246 0 364.5 -144.5t118.5 -432.5v-82zM883 647v21
q0 48 -5 87.5t-22.5 86t-47.5 78.5t-85.5 53.5t-130.5 21.5q-293 0 -293 -327v-21h584zM678 1333h-182v246h182v-246z" />
    <glyph glyph-name="Eogonek" unicode="&#x118;" horiz-adv-x="1187" 
d="M1075 -424q-57 -20 -174 -20q-127 0 -193.5 53.5t-66.5 148.5q0 65 51 128t146 114h-664v1522h901v-168h-713v-480h670v-169h-670v-539h713v-166q-88 -41 -146.5 -76t-85.5 -63.5t-36.5 -49t-9.5 -44.5q0 -95 121 -95q6 0 157 11v-107z" />
    <glyph glyph-name="eogonek" unicode="&#x119;" horiz-adv-x="1185" 
d="M1059 -424q-57 -20 -174 -20q-127 0 -193.5 53.5t-66.5 148.5q0 121 141 219q-64 -6 -137 -6q-149 0 -249 32.5t-159 103t-83.5 168t-24.5 239.5v86q0 269 120 412t357 143q246 0 364.5 -144.5t118.5 -432.5v-82h-776v-23q0 -47 2.5 -81t10.5 -72t22.5 -64t40 -51.5
t61 -40.5t87 -24t116.5 -9q199 0 393 33v-148q-71 -38 -120.5 -71.5t-74 -56.5t-38 -48t-15.5 -38.5t-2 -34.5q0 -95 121 -95q7 0 158 11v-107zM883 647v21q0 48 -5 87.5t-22.5 86t-47.5 78.5t-85.5 53.5t-130.5 21.5q-293 0 -293 -327v-21h584z" />
    <glyph glyph-name="Ecaron" unicode="&#x11a;" horiz-adv-x="1187" 
d="M1075 0h-901v1522h901v-168h-713v-480h670v-169h-670v-539h713v-166zM238 1931h184l213 -217l215 217h184l-276 -315h-244z" />
    <glyph glyph-name="ecaron" unicode="&#x11b;" horiz-adv-x="1185" 
d="M1073 496h-776v-23q0 -47 2.5 -81t10.5 -72t22.5 -64t40 -51.5t61 -40.5t87 -24t116.5 -9q199 0 393 33v-148q-176 -45 -401 -45q-149 0 -249 32.5t-159 103t-83.5 168t-24.5 239.5v86q0 269 120 412t357 143q246 0 364.5 -144.5t118.5 -432.5v-82zM883 647v21
q0 48 -5 87.5t-22.5 86t-47.5 78.5t-85.5 53.5t-130.5 21.5q-293 0 -293 -327v-21h584zM217 1577h184l213 -217l215 217h185l-277 -315h-243z" />
    <glyph glyph-name="Gcircumflex" unicode="&#x11c;" horiz-adv-x="1298" 
d="M1165 14q-219 -43 -448 -43q-106 0 -193 19.5t-165 66.5t-131 120.5t-84 187.5t-31 262v268q0 155 35 272.5t91 188t137.5 114.5t163 60t179.5 16q222 0 446 -39v-151q-73 6 -216 14t-204 8q-84 0 -145.5 -10t-120.5 -40.5t-95.5 -82.5t-58.5 -140t-22 -210v-268
q0 -143 28 -238.5t86.5 -149t135.5 -75t188 -21.5q129 0 236 7v641h188v-777zM1083 1616h-184l-215 215l-213 -215h-184l276 315h244z" />
    <glyph glyph-name="gcircumflex" unicode="&#x11d;" horiz-adv-x="1183" 
d="M1026 -63q0 -74 -10.5 -130t-39 -108t-76 -84.5t-125 -52t-183.5 -19.5q-112 0 -240.5 15.5t-173.5 25.5v133q246 -16 414 -16q82 0 133 14t76 46.5t33 71.5t8 104v57q-130 -21 -228 -21q-123 0 -212.5 26.5t-156 86t-99.5 161.5t-33 247v141q0 264 120.5 392t387.5 128
q171 0 405 -29v-1189zM842 147v838q-80 14 -221 14q-184 0 -254 -86t-70 -278v-141q0 -142 33 -221t100.5 -111.5t185.5 -32.5q57 0 128.5 6.5t97.5 11.5zM997 1262h-184l-215 215l-213 -215h-184l276 315h244z" />
    <glyph glyph-name="Gbreve" unicode="&#x11e;" horiz-adv-x="1298" 
d="M1165 14q-219 -43 -448 -43q-106 0 -193 19.5t-165 66.5t-131 120.5t-84 187.5t-31 262v268q0 155 35 272.5t91 188t137.5 114.5t163 60t179.5 16q222 0 446 -39v-151q-73 6 -216 14t-204 8q-84 0 -145.5 -10t-120.5 -40.5t-95.5 -82.5t-58.5 -140t-22 -210v-268
q0 -143 28 -238.5t86.5 -149t135.5 -75t188 -21.5q129 0 236 7v641h188v-777zM1055 1931q-25 -317 -346 -317q-322 0 -344 317h137q10 -106 59.5 -150t147.5 -44q99 0 148 43.5t61 150.5h137z" />
    <glyph glyph-name="gbreve" unicode="&#x11f;" horiz-adv-x="1183" 
d="M1026 -63q0 -74 -10.5 -130t-39 -108t-76 -84.5t-125 -52t-183.5 -19.5q-112 0 -240.5 15.5t-173.5 25.5v133q246 -16 414 -16q82 0 133 14t76 46.5t33 71.5t8 104v57q-130 -21 -228 -21q-123 0 -212.5 26.5t-156 86t-99.5 161.5t-33 247v141q0 264 120.5 392t387.5 128
q171 0 405 -29v-1189zM842 147v838q-80 14 -221 14q-184 0 -254 -86t-70 -278v-141q0 -142 33 -221t100.5 -111.5t185.5 -32.5q57 0 128.5 6.5t97.5 11.5zM944 1577q-25 -317 -346 -317q-322 0 -344 317h137q10 -106 59.5 -150.5t147.5 -44.5q99 0 148 44t61 151h137z" />
    <glyph glyph-name="Gdotaccent" unicode="&#x120;" horiz-adv-x="1298" 
d="M1165 14q-219 -43 -448 -43q-106 0 -193 19.5t-165 66.5t-131 120.5t-84 187.5t-31 262v268q0 155 35 272.5t91 188t137.5 114.5t163 60t179.5 16q222 0 446 -39v-151q-73 6 -216 14t-204 8q-84 0 -145.5 -10t-120.5 -40.5t-95.5 -82.5t-58.5 -140t-22 -210v-268
q0 -143 28 -238.5t86.5 -149t135.5 -75t188 -21.5q129 0 236 7v641h188v-777zM799 1657h-183v246h183v-246z" />
    <glyph glyph-name="gdotaccent" unicode="&#x121;" horiz-adv-x="1183" 
d="M1026 -63q0 -74 -10.5 -130t-39 -108t-76 -84.5t-125 -52t-183.5 -19.5q-112 0 -240.5 15.5t-173.5 25.5v133q246 -16 414 -16q82 0 133 14t76 46.5t33 71.5t8 104v57q-130 -21 -228 -21q-123 0 -212.5 26.5t-156 86t-99.5 161.5t-33 247v141q0 264 120.5 392t387.5 128
q171 0 405 -29v-1189zM842 147v838q-80 14 -221 14q-184 0 -254 -86t-70 -278v-141q0 -142 33 -221t100.5 -111.5t185.5 -32.5q57 0 128.5 6.5t97.5 11.5zM690 1333h-182v246h182v-246z" />
    <glyph glyph-name="Gcommaaccent" unicode="&#x122;" horiz-adv-x="1298" 
d="M1165 14q-219 -43 -448 -43q-106 0 -193 19.5t-165 66.5t-131 120.5t-84 187.5t-31 262v268q0 155 35 272.5t91 188t137.5 114.5t163 60t179.5 16q222 0 446 -39v-151q-73 6 -216 14t-204 8q-84 0 -145.5 -10t-120.5 -40.5t-95.5 -82.5t-58.5 -140t-22 -210v-268
q0 -143 28 -238.5t86.5 -149t135.5 -75t188 -21.5q129 0 236 7v641h188v-777zM823 -139l-182 -291h-168l137 291h213z" />
    <glyph glyph-name="gcommaaccent" unicode="&#x123;" horiz-adv-x="1183" 
d="M1026 -63q0 -74 -10.5 -130t-39 -108t-76 -84.5t-125 -52t-183.5 -19.5q-112 0 -240.5 15.5t-173.5 25.5v133q246 -16 414 -16q82 0 133 14t76 46.5t33 71.5t8 104v57q-130 -21 -228 -21q-123 0 -212.5 26.5t-156 86t-99.5 161.5t-33 247v141q0 264 120.5 392t387.5 128
q171 0 405 -29v-1189zM842 147v838q-80 14 -221 14q-184 0 -254 -86t-70 -278v-141q0 -142 33 -221t100.5 -111.5t185.5 -32.5q57 0 128.5 6.5t97.5 11.5zM514 1262l182 290h168l-137 -290h-213z" />
    <glyph glyph-name="Hcircumflex" unicode="&#x124;" horiz-adv-x="1486" 
d="M1313 0h-189v719h-762v-719h-188v1522h188v-633h762v633h189v-1522zM1147 1614h-184l-215 215l-213 -215h-185l277 315h243z" />
    <glyph glyph-name="hcircumflex" unicode="&#x125;" horiz-adv-x="1220" 
d="M1067 0h-184v713q0 163 -47 222.5t-166 59.5q-165 0 -330 -80v-915h-182v1585h182v-522q179 92 367 92q184 0 272 -107t88 -329v-719zM1006 1616h-185l-215 215l-213 -215h-184l276 315h244z" />
    <glyph glyph-name="Hbar" unicode="&#x126;" horiz-adv-x="1486" 
d="M43 1108v147h131v267h188v-267h762v267h189v-267h133v-147h-133v-1108h-189v719h-762v-719h-188v1108h-131zM362 889h762v219h-762v-219z" />
    <glyph glyph-name="hbar" unicode="&#x127;" horiz-adv-x="1220" 
d="M39 1292v152h119v141h184v-141h356v-152h-356v-229q174 92 365 92q185 0 272.5 -107t87.5 -329v-719h-184v713q0 163 -47 222.5t-166 59.5q-163 0 -328 -80v-915h-184v1292h-119z" />
    <glyph glyph-name="Itilde" unicode="&#x128;" horiz-adv-x="536" 
d="M362 0h-188v1522h188v-1522zM672 1855q0 -123 -45.5 -188t-153.5 -65q-102 0 -209 84l-84 67q-36 31 -61 44t-56 13q-41 0 -56 -30t-15 -94v-70h-133v70q0 253 204 253q57 0 101 -17.5t98 -59.5l86 -70q72 -59 121 -59q42 0 57 29t15 93v70h131v-70z" />
    <glyph glyph-name="itilde" unicode="&#x129;" horiz-adv-x="524" 
d="M354 0h-184v1126h184v-1126zM670 1507q0 -124 -45.5 -189t-153.5 -65q-102 0 -209 84l-84 68q-36 31 -61 44t-56 13q-41 0 -56 -30.5t-15 -94.5v-69h-133v69q0 254 204 254q57 0 101 -18t98 -60l86 -69q38 -31 64.5 -45.5t56.5 -14.5q42 0 57 29.5t15 93.5v70h131v-70z
" />
    <glyph glyph-name="Imacron" unicode="&#x12a;" horiz-adv-x="536" 
d="M362 0h-188v1522h188v-1522zM621 1688h-703v143h703v-143z" />
    <glyph glyph-name="imacron" unicode="&#x12b;" horiz-adv-x="524" 
d="M354 0h-184v1126h184v-1126zM614 1341h-702v144h702v-144z" />
    <glyph glyph-name="Ibreve" unicode="&#x12c;" horiz-adv-x="536" 
d="M362 0h-188v1522h188v-1522zM614 1933q-25 -317 -346 -317q-322 0 -344 317h137q10 -106 59.5 -150t147.5 -44q99 0 148 43.5t61 150.5h137z" />
    <glyph glyph-name="ibreve" unicode="&#x12d;" horiz-adv-x="524" 
d="M354 0h-184v1126h184v-1126zM608 1577q-25 -317 -346 -317q-322 0 -344 317h137q10 -106 59.5 -150.5t147.5 -44.5q99 0 148 44t61 151h137z" />
    <glyph glyph-name="Iogonek" unicode="&#x12e;" horiz-adv-x="536" 
d="M469 -424q-57 -20 -174 -20q-260 0 -260 202q0 146 139 242v1522h188v-1522q-172 -101 -172 -233q0 -95 123 -95q5 0 156 11v-107z" />
    <glyph glyph-name="iogonek" unicode="&#x12f;" horiz-adv-x="524" 
d="M475 -424q-58 -20 -174 -20q-127 0 -193.5 53.5t-66.5 148.5q0 132 129 248v1120h184v-1126q-157 -120 -157 -233q0 -45 27 -70t93 -25q26 0 51.5 1.5t57 5t49.5 4.5v-107zM356 1335h-186v250h186v-250z" />
    <glyph glyph-name="Idotaccent" unicode="&#x130;" horiz-adv-x="536" 
d="M362 0h-188v1522h188v-1522zM360 1657h-182v246h182v-246z" />
    <glyph glyph-name="dotlessi" unicode="&#x131;" horiz-adv-x="524" 
d="M354 0h-184v1126h184v-1126z" />
    <glyph glyph-name="IJ" unicode="&#x132;" horiz-adv-x="1071" 
d="M362 0h-188v1522h188v-1522zM897 -123q0 -173 -69 -249.5t-244 -76.5q-99 0 -152 17v141h139q48 0 75.5 8t42 30.5t18.5 50.5t4 79v1645h186v-1645z" />
    <glyph glyph-name="ij" unicode="&#x133;" horiz-adv-x="1067" 
d="M358 0h-184v1126h184v-1126zM360 1335h-186v250h186v-250zM893 -137q0 -180 -62.5 -250t-222.5 -70q-88 0 -137 11v135q11 0 52.5 -1t68.5 -1q73 0 95 35.5t22 140.5v1263h184v-1263zM895 1335h-186v250h186v-250z" />
    <glyph glyph-name="Jcircumflex" unicode="&#x134;" horiz-adv-x="534" 
d="M360 -123q0 -173 -69 -249.5t-244 -76.5q-98 0 -151 17v141h139q48 0 75.5 8t41.5 30.5t18 50.5t4 79v1645h186v-1645zM666 1616h-185l-215 215l-213 -215h-184l276 315h244z" />
    <glyph glyph-name="jcircumflex" unicode="&#x135;" horiz-adv-x="524" 
d="M354 -135q0 -180 -62 -250t-222 -70q-88 0 -138 11v135q11 0 52.5 -1t68.5 -1q73 0 95 35.5t22 140.5v1261h184v-1261zM662 1262h-185l-215 215l-213 -215h-184l276 315h244z" />
    <glyph glyph-name="Kcommaaccent" unicode="&#x136;" horiz-adv-x="1298" 
d="M1268 0h-258l-637 733v-733h-189v1522h189v-715l653 715h242l-686 -748zM823 -139l-182 -291h-168l137 291h213z" />
    <glyph glyph-name="kcommaaccent" unicode="&#x137;" horiz-adv-x="1069" 
d="M1038 0h-243l-455 559v-559h-182v1585h182v-967l453 508h237l-487 -534zM662 -139l-183 -291h-168l138 291h213z" />
    <glyph glyph-name="kgreenlandic" unicode="&#x138;" horiz-adv-x="1069" 
d="M1038 0h-243l-455 559v-559h-182v1126h182v-508l453 508h237l-487 -534z" />
    <glyph glyph-name="Lacute" unicode="&#x139;" horiz-adv-x="1110" 
d="M1059 0h-885v1522h188v-1356h697v-166zM975 1931l-307 -315h-185l269 315h223z" />
    <glyph glyph-name="lacute" unicode="&#x13a;" horiz-adv-x="522" 
d="M352 0h-182v1585h182v-1585zM621 1931l-308 -315h-184l268 315h224z" />
    <glyph glyph-name="Lcommaaccent" unicode="&#x13b;" horiz-adv-x="1110" 
d="M1059 0h-885v1522h188v-1356h697v-166zM748 -139l-183 -291h-168l138 291h213z" />
    <glyph glyph-name="lcommaaccent" unicode="&#x13c;" horiz-adv-x="522" 
d="M352 0h-182v1585h182v-1585zM367 -139l-183 -291h-168l138 291h213z" />
    <glyph glyph-name="Lcaron" unicode="&#x13d;" horiz-adv-x="1110" 
d="M1059 0h-885v1522h188v-1356h697v-166zM920 1583l-152 -469h-141l98 469h195z" />
    <glyph glyph-name="lcaron" unicode="&#x13e;" horiz-adv-x="753" 
d="M352 0h-182v1585h182v-1585zM795 1585l-152 -469h-141l98 469h195z" />
    <glyph glyph-name="Ldot" unicode="&#x13f;" horiz-adv-x="1110" 
d="M1059 0h-885v1522h188v-1356h697v-166zM799 713h-187v282h187v-282z" />
    <glyph glyph-name="ldot" unicode="&#x140;" horiz-adv-x="757" 
d="M352 0h-182v1585h182v-1585zM717 614h-187v283h187v-283z" />
    <glyph glyph-name="Lslash" unicode="&#x141;" horiz-adv-x="1148" 
d="M39 408v221l174 166v727h188v-537l213 213v-221l-213 -213v-598h697v-166h-885v578z" />
    <glyph glyph-name="lslash" unicode="&#x142;" horiz-adv-x="522" 
d="M354 0h-184v606l-131 -127v223l131 127v756h184v-569l127 123v-224l-127 -122v-793z" />
    <glyph glyph-name="Nacute" unicode="&#x143;" horiz-adv-x="1445" 
d="M1272 0h-268l-537 1092q-102 209 -123 258h-4q10 -167 10 -318v-1032h-176v1522h270l531 -1063q58 -117 123 -260h4q-10 151 -10 333v990h180v-1522zM1098 1931l-307 -315h-185l268 315h224z" />
    <glyph glyph-name="nacute" unicode="&#x144;" horiz-adv-x="1220" 
d="M1067 0h-184v719q0 159 -37.5 218.5t-151.5 59.5q-127 0 -354 -100v-897h-182v1126h182v-88q111 57 199.5 87t175.5 30q88 0 151 -20t102 -54t61 -91t30 -120t8 -151v-719zM995 1577l-307 -315h-184l268 315h223z" />
    <glyph glyph-name="Ncommaaccent" unicode="&#x145;" horiz-adv-x="1445" 
d="M1272 0h-268l-537 1092q-102 209 -123 258h-4q10 -167 10 -318v-1032h-176v1522h270l531 -1063q58 -117 123 -260h4q-10 151 -10 333v990h180v-1522zM860 -139l-182 -291h-168l137 291h213z" />
    <glyph glyph-name="ncommaaccent" unicode="&#x146;" horiz-adv-x="1220" 
d="M1067 0h-184v719q0 159 -37.5 218.5t-151.5 59.5q-127 0 -354 -100v-897h-182v1126h182v-88q111 57 199.5 87t175.5 30q88 0 151 -20t102 -54t61 -91t30 -120t8 -151v-719zM723 -139l-182 -291h-168l137 291h213z" />
    <glyph glyph-name="Ncaron" unicode="&#x147;" horiz-adv-x="1445" 
d="M1272 0h-268l-537 1092q-102 209 -123 258h-4q10 -167 10 -318v-1032h-176v1522h270l531 -1063q58 -117 123 -260h4q-10 151 -10 333v990h180v-1522zM324 1931h184l213 -217l215 217h184l-276 -315h-244z" />
    <glyph glyph-name="ncaron" unicode="&#x148;" horiz-adv-x="1220" 
d="M1067 0h-184v719q0 159 -37.5 218.5t-151.5 59.5q-127 0 -354 -100v-897h-182v1126h182v-88q111 57 199.5 87t175.5 30q88 0 151 -20t102 -54t61 -91t30 -120t8 -151v-719zM227 1577h185l213 -217l215 217h184l-276 -315h-244z" />
    <glyph glyph-name="napostrophe" unicode="&#x149;" horiz-adv-x="1343" 
d="M1188 0h-184v719q0 159 -37.5 218.5t-151.5 59.5q-127 0 -354 -100v-897h-182v1126h182v-88q111 57 199.5 87t175.5 30q88 0 151 -20t102 -54t61 -91t30 -120t8 -151v-719zM285 1585l-152 -469h-141l98 469h195z" />
    <glyph glyph-name="Eng" unicode="&#x14a;" horiz-adv-x="1445" 
d="M1272 -123q0 -172 -70.5 -249t-245.5 -77q-94 0 -151 17v141h141q47 0 74 8t41 30.5t18 50.5t4 79v123l-616 1092q-64 112 -123 258h-4q10 -167 10 -318v-1032h-176v1522h250l530 -934q95 -169 144 -301h4q-10 151 -10 375v860h180v-1645z" />
    <glyph glyph-name="eng" unicode="&#x14b;" horiz-adv-x="1220" 
d="M158 1126h182v-88q225 117 377 117q88 0 150.5 -20t101 -54t60.5 -91t30 -120t8 -151v-852q0 -173 -62 -246.5t-214 -73.5q-79 0 -146 15v133q54 -4 121 -4q73 0 95 35.5t22 140.5v852q0 159 -37.5 218.5t-149.5 59.5q-131 0 -354 -100v-897h-184v1126z" />
    <glyph glyph-name="Omacron" unicode="&#x14c;" horiz-adv-x="1400" 
d="M1288 651q0 -326 -152 -503t-436 -177q-283 0 -435 177t-152 503v217q0 326 151.5 502t435.5 176t436 -176t152 -502v-217zM1098 651v217q0 267 -106 388.5t-292 121.5t-291.5 -121.5t-105.5 -388.5v-217q0 -267 105.5 -389.5t291.5 -122.5t292 122.5t106 389.5z
M1051 1688h-703v143h703v-143z" />
    <glyph glyph-name="omacron" unicode="&#x14d;" horiz-adv-x="1185" 
d="M1073 481q0 -248 -122.5 -379t-358.5 -131q-235 0 -357 131.5t-122 378.5v164q0 247 122 378.5t357 131.5q236 0 358.5 -131t122.5 -379v-164zM889 481v164q0 183 -71 265.5t-226 82.5q-153 0 -224 -83t-71 -265v-164q0 -183 70.5 -265.5t224.5 -82.5q155 0 226 82.5
t71 265.5zM944 1341h-702v144h702v-144z" />
    <glyph glyph-name="Obreve" unicode="&#x14e;" horiz-adv-x="1400" 
d="M1288 651q0 -326 -152 -503t-436 -177q-283 0 -435 177t-152 503v217q0 326 151.5 502t435.5 176t436 -176t152 -502v-217zM1098 651v217q0 267 -106 388.5t-292 121.5t-291.5 -121.5t-105.5 -388.5v-217q0 -267 105.5 -389.5t291.5 -122.5t292 122.5t106 389.5z
M1044 1931q-25 -317 -346 -317q-322 0 -344 317h138q10 -106 59 -150t147 -44q99 0 148 43.5t61 150.5h137z" />
    <glyph glyph-name="obreve" unicode="&#x14f;" horiz-adv-x="1185" 
d="M1073 481q0 -248 -122.5 -379t-358.5 -131q-235 0 -357 131.5t-122 378.5v164q0 247 122 378.5t357 131.5q236 0 358.5 -131t122.5 -379v-164zM889 481v164q0 183 -71 265.5t-226 82.5q-153 0 -224 -83t-71 -265v-164q0 -183 70.5 -265.5t224.5 -82.5q155 0 226 82.5
t71 265.5zM938 1577q-25 -317 -346 -317q-322 0 -344 317h137q10 -106 59.5 -150.5t147.5 -44.5q99 0 148 44t61 151h137z" />
    <glyph glyph-name="Ohungarumlaut" unicode="&#x150;" horiz-adv-x="1400" 
d="M1288 651q0 -326 -152 -503t-436 -177q-283 0 -435 177t-152 503v217q0 326 151.5 502t435.5 176t436 -176t152 -502v-217zM1098 651v217q0 267 -106 388.5t-292 121.5t-291.5 -121.5t-105.5 -388.5v-217q0 -267 105.5 -389.5t291.5 -122.5t292 122.5t106 389.5z
M1294 1929l-307 -315h-186l270 315h223zM635 1929h225l-307 -315h-186z" />
    <glyph glyph-name="ohungarumlaut" unicode="&#x151;" horiz-adv-x="1185" 
d="M1073 481q0 -248 -122.5 -379t-358.5 -131q-235 0 -357 131.5t-122 378.5v164q0 247 122 378.5t357 131.5q236 0 358.5 -131t122.5 -379v-164zM889 481v164q0 183 -71 265.5t-226 82.5q-153 0 -224 -83t-71 -265v-164q0 -183 70.5 -265.5t224.5 -82.5q155 0 226 82.5
t71 265.5zM1200 1577l-307 -315h-186l270 315h223zM541 1577h225l-307 -315h-187z" />
    <glyph glyph-name="OE" unicode="&#x152;" horiz-adv-x="1970" 
d="M1858 166v-166h-865q-23 -3 -66.5 -10t-67 -10t-64 -6t-84.5 -3q-294 0 -446 176t-152 504v217q0 328 151.5 503t444.5 175q123 0 284 -24h865v-168h-713v-480h670v-169h-670v-539h713zM956 160v1196q-146 22 -245 22q-408 0 -408 -510v-217q0 -512 408 -512q97 0 245 21
z" />
    <glyph glyph-name="oe" unicode="&#x153;" horiz-adv-x="1961" 
d="M1849 496h-776v-23q0 -47 2 -80t10 -72.5t22 -65.5t39 -52t60.5 -41.5t87.5 -25t119 -9.5q177 0 393 37v-148q-176 -45 -399 -45q-310 0 -430 160q-122 -160 -385 -160q-235 0 -357 131.5t-122 378.5v164q0 247 122 378.5t357 131.5q266 0 391 -166q119 166 383 166
q244 0 363.5 -144.5t119.5 -416.5v-98zM1659 647v21q0 48 -5 87.5t-22.5 87t-47.5 79t-85.5 53.5t-130.5 22q-73 0 -127.5 -20.5t-85 -51t-49.5 -73t-24.5 -77.5t-6.5 -75v-53h584zM889 481v164q0 183 -71 267.5t-226 84.5q-153 0 -224 -84.5t-71 -267.5v-164
q0 -183 70.5 -266.5t224.5 -83.5q155 0 226 83.5t71 266.5z" />
    <glyph glyph-name="Racute" unicode="&#x154;" horiz-adv-x="1304" 
d="M1264 0h-224l-358 594q-41 -2 -143 -2h-177v-592h-188v1522h358q80 0 146.5 -5t133 -18.5t118.5 -35t97.5 -56.5t75.5 -81.5t47 -111t17 -143.5v-14q0 -175 -72.5 -275.5t-211.5 -148.5zM977 1057v14q0 71 -18.5 121.5t-52 82t-91 49t-123 24t-160.5 6.5h-170v-596h177
q117 0 194.5 13t134.5 46.5t83 92t26 147.5zM979 1931l-307 -315h-185l269 315h223z" />
    <glyph glyph-name="racute" unicode="&#x155;" horiz-adv-x="770" 
d="M739 991q-109 0 -221.5 -27t-177.5 -69v-895h-182v1126h180v-90q150 119 401 119v-164zM836 1577l-308 -315h-184l268 315h224z" />
    <glyph glyph-name="Rcommaaccent" unicode="&#x156;" horiz-adv-x="1304" 
d="M1264 0h-224l-358 594q-41 -2 -143 -2h-177v-592h-188v1522h358q80 0 146.5 -5t133 -18.5t118.5 -35t97.5 -56.5t75.5 -81.5t47 -111t17 -143.5v-14q0 -175 -72.5 -275.5t-211.5 -148.5zM977 1057v14q0 71 -18.5 121.5t-52 82t-91 49t-123 24t-160.5 6.5h-170v-596h177
q117 0 194.5 13t134.5 46.5t83 92t26 147.5zM803 -139l-182 -291h-168l137 291h213z" />
    <glyph glyph-name="rcommaaccent" unicode="&#x157;" horiz-adv-x="770" 
d="M739 991q-109 0 -221.5 -27t-177.5 -69v-895h-182v1126h180v-90q150 119 401 119v-164zM522 -139l-182 -291h-168l137 291h213z" />
    <glyph glyph-name="Rcaron" unicode="&#x158;" horiz-adv-x="1304" 
d="M1264 0h-224l-358 594q-41 -2 -143 -2h-177v-592h-188v1522h358q80 0 146.5 -5t133 -18.5t118.5 -35t97.5 -56.5t75.5 -81.5t47 -111t17 -143.5v-14q0 -175 -72.5 -275.5t-211.5 -148.5zM977 1057v14q0 71 -18.5 121.5t-52 82t-91 49t-123 24t-160.5 6.5h-170v-596h177
q117 0 194.5 13t134.5 46.5t83 92t26 147.5zM254 1929h184l213 -217l215 217h185l-277 -315h-244z" />
    <glyph glyph-name="rcaron" unicode="&#x159;" horiz-adv-x="770" 
d="M739 991q-109 0 -221.5 -27t-177.5 -69v-895h-182v1126h180v-90q150 119 401 119v-164zM51 1577h185l213 -217l215 217h184l-277 -315h-243z" />
    <glyph glyph-name="Sacute" unicode="&#x15a;" horiz-adv-x="1198" 
d="M1085 385q0 -200 -127 -307t-376 -107q-123 0 -252.5 14.5t-182.5 28.5v148q233 -27 435 -27q158 0 234.5 59.5t76.5 190.5q0 94 -44.5 152.5t-162.5 111.5l-260 117q-160 71 -236.5 165.5t-76.5 246.5q0 187 123 277.5t374 90.5q122 0 245 -14t175 -27v-149
q-239 26 -414 26q-159 0 -236 -45t-77 -159q0 -90 43 -145.5t162 -108.5l262 -115q164 -72 239.5 -170t75.5 -254zM969 1931l-307 -315h-185l268 315h224z" />
    <glyph glyph-name="sacute" unicode="&#x15b;" horiz-adv-x="987" 
d="M905 285q0 -314 -420 -314q-105 0 -217 16t-151 29v142q12 -1 86 -9.5t145 -14t131 -5.5q138 0 190 37t52 115q0 75 -41 113t-186 100l-82 34q-166 70 -238 148.5t-72 197.5q0 142 99 211.5t309 69.5q102 0 201.5 -14t138.5 -27v-137q-198 20 -332 20q-129 0 -180 -24.5
t-51 -98.5q0 -66 38 -104t158 -90l82 -35q138 -61 207 -108t101 -105.5t32 -146.5zM891 1577l-307 -315h-185l269 315h223z" />
    <glyph glyph-name="Scircumflex" unicode="&#x15c;" horiz-adv-x="1198" 
d="M1085 385q0 -200 -127 -307t-376 -107q-123 0 -252.5 14.5t-182.5 28.5v148q233 -27 435 -27q158 0 234.5 59.5t76.5 190.5q0 94 -44.5 152.5t-162.5 111.5l-260 117q-160 71 -236.5 165.5t-76.5 246.5q0 187 123 277.5t374 90.5q122 0 245 -14t175 -27v-149
q-239 26 -414 26q-159 0 -236 -45t-77 -159q0 -90 43 -145.5t162 -108.5l262 -115q164 -72 239.5 -170t75.5 -254zM977 1616h-184l-215 215l-213 -215h-185l277 315h243z" />
    <glyph glyph-name="scircumflex" unicode="&#x15d;" horiz-adv-x="987" 
d="M905 285q0 -314 -420 -314q-105 0 -217 16t-151 29v142q12 -1 86 -9.5t145 -14t131 -5.5q138 0 190 37t52 115q0 75 -41 113t-186 100l-82 34q-166 70 -238 148.5t-72 197.5q0 142 99 211.5t309 69.5q102 0 201.5 -14t138.5 -27v-137q-198 20 -332 20q-129 0 -180 -24.5
t-51 -98.5q0 -66 38 -104t158 -90l82 -35q138 -61 207 -108t101 -105.5t32 -146.5zM887 1262h-185l-215 215l-213 -215h-184l277 315h243z" />
    <glyph glyph-name="Scedilla" unicode="&#x15e;" horiz-adv-x="1198" 
d="M1085 385q0 -200 -127 -307t-376 -107q-123 0 -252.5 14.5t-182.5 28.5v148q233 -27 435 -27q158 0 234.5 59.5t76.5 190.5q0 94 -44.5 152.5t-162.5 111.5l-260 117q-160 71 -236.5 165.5t-76.5 246.5q0 187 123 277.5t374 90.5q122 0 245 -14t175 -27v-149
q-239 26 -414 26q-159 0 -236 -45t-77 -159q0 -90 43 -145.5t162 -108.5l262 -115q164 -72 239.5 -170t75.5 -254zM758 -139l-279 -291h-188l237 291h230z" />
    <glyph glyph-name="scedilla" unicode="&#x15f;" horiz-adv-x="987" 
d="M905 285q0 -314 -420 -314q-105 0 -217 16t-151 29v142q12 -1 86 -9.5t145 -14t131 -5.5q138 0 190 37t52 115q0 75 -41 113t-186 100l-82 34q-166 70 -238 148.5t-72 197.5q0 142 99 211.5t309 69.5q102 0 201.5 -14t138.5 -27v-137q-198 20 -332 20q-129 0 -180 -24.5
t-51 -98.5q0 -66 38 -104t158 -90l82 -35q138 -61 207 -108t101 -105.5t32 -146.5zM666 -139l-279 -291h-188l237 291h230z" />
    <glyph glyph-name="Scaron" unicode="&#x160;" horiz-adv-x="1198" 
d="M1085 385q0 -200 -127 -307t-376 -107q-123 0 -252.5 14.5t-182.5 28.5v148q233 -27 435 -27q158 0 234.5 59.5t76.5 190.5q0 94 -44.5 152.5t-162.5 111.5l-260 117q-160 71 -236.5 165.5t-76.5 246.5q0 187 123 277.5t374 90.5q122 0 245 -14t175 -27v-149
q-239 26 -414 26q-159 0 -236 -45t-77 -159q0 -90 43 -145.5t162 -108.5l262 -115q164 -72 239.5 -170t75.5 -254zM201 1929h184l213 -217l215 217h184l-276 -315h-244z" />
    <glyph glyph-name="scaron" unicode="&#x161;" horiz-adv-x="987" 
d="M905 285q0 -314 -420 -314q-105 0 -217 16t-151 29v142q12 -1 86 -9.5t145 -14t131 -5.5q138 0 190 37t52 115q0 75 -41 113t-186 100l-82 34q-166 70 -238 148.5t-72 197.5q0 142 99 211.5t309 69.5q102 0 201.5 -14t138.5 -27v-137q-198 20 -332 20q-129 0 -180 -24.5
t-51 -98.5q0 -66 38 -104t158 -90l82 -35q138 -61 207 -108t101 -105.5t32 -146.5zM104 1577h185l213 -217l215 217h184l-276 -315h-244z" />
    <glyph glyph-name="Tcedilla" unicode="&#x162;" horiz-adv-x="1249" 
d="M1188 1354h-469v-1354h-189v1354h-469v168h1127v-168zM739 -139l-182 -291h-168l137 291h213z" />
    <glyph glyph-name="tcedilla" unicode="&#x163;" horiz-adv-x="825" 
d="M764 2q-96 -31 -207 -31q-154 0 -216 64t-62 223v715l-228 16v137h228v293h184v-293h301v-153h-301v-707q0 -97 19 -122t96 -25q98 0 186 10v-127zM621 -139l-183 -291h-168l138 291h213z" />
    <glyph glyph-name="Tcaron" unicode="&#x164;" horiz-adv-x="1249" 
d="M1188 1354h-469v-1354h-189v1354h-469v168h1127v-168zM225 1929h185l213 -217l215 217h184l-277 -315h-243z" />
    <glyph glyph-name="tcaron" unicode="&#x165;" horiz-adv-x="825" 
d="M764 2q-96 -31 -207 -31q-154 0 -216 64t-62 223v715l-228 16v137h228v293h184v-293h301v-153h-301v-707q0 -97 19 -122t96 -25q98 0 186 10v-127zM844 1585l-125 -330h-141l71 330h195z" />
    <glyph glyph-name="Tbar" unicode="&#x166;" horiz-adv-x="1249" 
d="M1188 1354h-469v-402h420v-166h-420v-786h-189v786h-417v166h417v402h-469v168h1127v-168z" />
    <glyph glyph-name="tbar" unicode="&#x167;" horiz-adv-x="825" 
d="M762 657h-301v-391q0 -96 19.5 -120.5t97.5 -24.5t184 8v-127q-28 -10 -88 -19.5t-119 -9.5q-153 0 -214.5 63t-61.5 222v399l-228 21v133h228v162l-228 16v137h228v293h182v-293h301v-153h-301v-162h301v-154z" />
    <glyph glyph-name="Utilde" unicode="&#x168;" horiz-adv-x="1431" 
d="M1268 633q0 -330 -138.5 -496t-412.5 -166q-553 0 -553 662v889h188v-869q0 -281 79.5 -396.5t285.5 -115.5q204 0 284 116t80 396v869h187v-889zM1128 1855q0 -124 -45 -188.5t-153 -64.5q-102 0 -209 84l-84 67q-36 31 -61 44t-56 13q-41 0 -56 -30t-15 -94v-70h-134
v70q0 253 205 253q57 0 101 -17.5t98 -59.5l86 -70q72 -59 121 -59q42 0 56.5 28.5t14.5 93.5v70h131v-70z" />
    <glyph glyph-name="utilde" unicode="&#x169;" horiz-adv-x="1220" 
d="M1063 0h-184v88q-231 -117 -392 -117q-81 0 -141.5 22.5t-96.5 60t-58 95.5t-29.5 119t-7.5 140v718h182v-718q0 -160 37.5 -219.5t152.5 -59.5q126 0 353 100v897h184v-1126zM1020 1507q0 -124 -45.5 -189t-153.5 -65q-102 0 -209 84l-84 68q-36 31 -60.5 44t-55.5 13
q-41 0 -56.5 -30.5t-15.5 -94.5v-69h-133v69q0 254 205 254q57 0 100.5 -17.5t97.5 -60.5l86 -69q38 -31 64.5 -45.5t56.5 -14.5q42 0 57 29.5t15 93.5v70h131v-70z" />
    <glyph glyph-name="Umacron" unicode="&#x16a;" horiz-adv-x="1431" 
d="M1268 633q0 -330 -138.5 -496t-412.5 -166q-553 0 -553 662v889h188v-869q0 -281 79.5 -396.5t285.5 -115.5q204 0 284 116t80 396v869h187v-889zM1067 1688h-702v143h702v-143z" />
    <glyph glyph-name="umacron" unicode="&#x16b;" horiz-adv-x="1220" 
d="M1063 0h-184v88q-231 -117 -392 -117q-81 0 -141.5 22.5t-96.5 60t-58 95.5t-29.5 119t-7.5 140v718h182v-718q0 -160 37.5 -219.5t152.5 -59.5q126 0 353 100v897h184v-1126zM965 1341h-703v144h703v-144z" />
    <glyph glyph-name="Ubreve" unicode="&#x16c;" horiz-adv-x="1431" 
d="M1268 633q0 -330 -138.5 -496t-412.5 -166q-553 0 -553 662v889h188v-869q0 -281 79.5 -396.5t285.5 -115.5q204 0 284 116t80 396v869h187v-889zM1061 1913q-25 -318 -346 -318q-322 0 -344 318h137q10 -106 59.5 -150.5t147.5 -44.5q99 0 148 44t61 151h137z" />
    <glyph glyph-name="ubreve" unicode="&#x16d;" horiz-adv-x="1220" 
d="M1063 0h-184v88q-231 -117 -392 -117q-81 0 -141.5 22.5t-96.5 60t-58 95.5t-29.5 119t-7.5 140v718h182v-718q0 -160 37.5 -219.5t152.5 -59.5q126 0 353 100v897h184v-1126zM958 1577q-25 -317 -346 -317q-322 0 -344 317h138q10 -106 59 -150.5t147 -44.5q99 0 148 44
t61 151h137z" />
    <glyph glyph-name="Uring" unicode="&#x16e;" horiz-adv-x="1431" 
d="M1268 633q0 -330 -138.5 -496t-412.5 -166q-553 0 -553 662v889h188v-869q0 -281 79.5 -396.5t285.5 -115.5q204 0 284 116t80 396v869h187v-889zM954 1800q0 -113 -64.5 -168t-170.5 -55q-108 0 -175 55t-67 168t67 168t175 55q106 0 170.5 -55t64.5 -168zM831 1800
q0 113 -112 113q-115 0 -115 -113q0 -112 115 -112q50 0 81 26.5t31 85.5z" />
    <glyph glyph-name="uring" unicode="&#x16f;" horiz-adv-x="1220" 
d="M1063 0h-184v88q-231 -117 -392 -117q-81 0 -141.5 22.5t-96.5 60t-58 95.5t-29.5 119t-7.5 140v718h182v-718q0 -160 37.5 -219.5t152.5 -59.5q126 0 353 100v897h184v-1126zM856 1464q0 -113 -64.5 -168t-170.5 -55q-108 0 -175 55t-67 168t67 168.5t175 55.5
q106 0 170.5 -55.5t64.5 -168.5zM733 1464q0 113 -112 113q-115 0 -115 -113q0 -112 115 -112q50 0 81 26.5t31 85.5z" />
    <glyph glyph-name="Uhungarumlaut" unicode="&#x170;" horiz-adv-x="1431" 
d="M1268 633q0 -330 -138.5 -496t-412.5 -166q-553 0 -553 662v889h188v-869q0 -281 79.5 -396.5t285.5 -115.5q204 0 284 116t80 396v869h187v-889zM1315 1931l-307 -315h-187l271 315h223zM655 1931h226l-308 -315h-186z" />
    <glyph glyph-name="uhungarumlaut" unicode="&#x171;" horiz-adv-x="1220" 
d="M1063 0h-184v88q-231 -117 -392 -117q-81 0 -141.5 22.5t-96.5 60t-58 95.5t-29.5 119t-7.5 140v718h182v-718q0 -160 37.5 -219.5t152.5 -59.5q126 0 353 100v897h184v-1126zM1221 1577l-308 -315h-186l270 315h224zM561 1577h225l-307 -315h-186z" />
    <glyph glyph-name="Uogonek" unicode="&#x172;" horiz-adv-x="1431" 
d="M1081 1522h187v-889q0 -452 -267 -600q-92 -51 -151.5 -93t-86 -75t-34.5 -55t-8 -48q0 -44 28 -67t95 -23q74 0 157 9v-103q-75 -22 -178 -22q-125 0 -191.5 50t-66.5 146q0 60 32 111t105 108q-538 9 -538 662v889h188v-869q0 -281 79.5 -396.5t285.5 -115.5
q204 0 284 116t80 396v869z" />
    <glyph glyph-name="uogonek" unicode="&#x173;" horiz-adv-x="1220" 
d="M1063 -424q-57 -20 -174 -20q-127 0 -193.5 53.5t-66.5 148.5q0 70 67 139.5t183 122.5v68q-231 -117 -392 -117q-81 0 -141.5 22.5t-96.5 60t-58 95.5t-29.5 119t-7.5 140v718h182v-718q0 -160 37.5 -219.5t152.5 -59.5q126 0 353 100v897h184v-1126
q-168 -77 -223.5 -130t-55.5 -103q0 -95 121 -95q7 0 158 11v-107z" />
    <glyph glyph-name="Wcircumflex" unicode="&#x174;" horiz-adv-x="1843" 
d="M1751 1522l-274 -1522h-301l-207 942q-7 33 -21.5 97.5t-21.5 97.5h-6q-7 -33 -21.5 -97.5t-21.5 -97.5l-205 -942h-305l-275 1522h201l178 -1069q8 -50 24.5 -151.5t24.5 -151.5h10q12 50 33 150.5t33 150.5l182 845h295l184 -852q10 -49 32 -147t32 -147h10
q13 99 47 303l181 1069h192zM1323 1616h-184l-215 215l-213 -215h-185l277 315h244z" />
    <glyph glyph-name="wcircumflex" unicode="&#x175;" horiz-adv-x="1701" 
d="M1640 1126l-254 -1126h-266l-202 676q-46 146 -62 227h-8q-16 -81 -62 -227l-202 -676h-267l-256 1126h189l149 -696q38 -188 45 -291h11q14 47 38.5 145t38.5 144l177 606h286l176 -606q14 -47 39.5 -145t38.5 -144h11q7 103 45 291l149 696h186zM1249 1262h-184
l-215 215l-213 -215h-184l276 315h244z" />
    <glyph glyph-name="Ycircumflex" unicode="&#x176;" horiz-adv-x="1284" 
d="M1243 1522l-508 -920v-602h-186v602l-508 920h207l276 -502q82 -151 117 -242h12q10 27 27 62.5t30 59t35.5 65t30.5 55.5l275 502h192zM1047 1616h-185l-215 215l-213 -215h-184l276 315h244z" />
    <glyph glyph-name="ycircumflex" unicode="&#x177;" horiz-adv-x="1120" 
d="M1073 1126l-428 -1226q-26 -74 -47 -121.5t-52.5 -96.5t-68.5 -76.5t-90 -45t-121 -17.5q-117 0 -219 21v141q117 -8 213 -8q79 0 116.5 44.5t86.5 176.5l31 82l-437 1126h203l229 -632q43 -122 91 -299h4q38 158 86 301l207 630h196zM975 1262h-184l-216 215l-213 -215
h-184l277 315h243z" />
    <glyph glyph-name="Ydieresis" unicode="&#x178;" horiz-adv-x="1284" 
d="M1243 1522l-508 -920v-602h-186v602l-508 920h207l276 -502q82 -151 117 -242h12q10 27 27 62.5t30 59t35.5 65t30.5 55.5l275 502h192zM965 1657h-166v241h166v-241zM498 1898v-241h-168v241h168z" />
    <glyph glyph-name="Zacute" unicode="&#x179;" horiz-adv-x="1277" 
d="M1165 0h-1052v209l821 1145h-791v168h994v-207l-820 -1149h848v-166zM1036 1931l-307 -315h-184l268 315h223z" />
    <glyph glyph-name="zacute" unicode="&#x17a;" horiz-adv-x="999" 
d="M907 0h-825v207l627 766h-600v153h796v-190l-637 -784h639v-152zM907 1577l-307 -315h-184l268 315h223z" />
    <glyph glyph-name="Zdotaccent" unicode="&#x17b;" horiz-adv-x="1277" 
d="M1165 0h-1052v209l821 1145h-791v168h994v-207l-820 -1149h848v-166zM729 1657h-182v246h182v-246z" />
    <glyph glyph-name="zdotaccent" unicode="&#x17c;" horiz-adv-x="999" 
d="M907 0h-825v207l627 766h-600v153h796v-190l-637 -784h639v-152zM612 1333h-182v246h182v-246z" />
    <glyph glyph-name="Zcaron" unicode="&#x17d;" horiz-adv-x="1277" 
d="M1165 0h-1052v209l821 1145h-791v168h994v-207l-820 -1149h848v-166zM266 1931h185l213 -217l215 217h184l-277 -315h-243z" />
    <glyph glyph-name="zcaron" unicode="&#x17e;" horiz-adv-x="999" 
d="M907 0h-825v207l627 766h-600v153h796v-190l-637 -784h639v-152zM133 1577h184l213 -217l215 217h185l-277 -315h-243z" />
    <glyph glyph-name="florin" unicode="&#x192;" horiz-adv-x="1306" 
d="M1186 1522l-17 -129q-102 10 -153 10q-44 0 -71 -6.5t-51.5 -26t-39.5 -57.5t-23 -99l-47 -335h355l-23 -154h-358l-96 -690q-13 -93 -42.5 -156.5t-74.5 -98t-96.5 -49t-118.5 -14.5q-105 0 -207 25l18 129q92 -10 162 -10q39 0 63 5.5t48.5 23.5t40 56.5t24.5 100.5
l96 678h-319l23 154h321l49 348q26 181 109 250t233 69q101 0 195 -24z" />
    <glyph glyph-name="Aringacute" unicode="&#x1fa;" horiz-adv-x="1357" 
d="M1307 0h-201l-158 498h-545l-161 -498h-191l498 1522h260zM891 670l-143 444q-38 116 -62 250h-20q-31 -157 -62 -250l-145 -444h432zM918 1767q0 -113 -65 -168t-171 -55q-108 0 -175 55t-67 168t67 168.5t175 55.5q106 0 171 -55.5t65 -168.5zM795 1767q0 113 -113 113
q-115 0 -115 -113q0 -112 115 -112q50 0 81.5 26.5t31.5 85.5zM758 2017h-185l269 316h223z" />
    <glyph glyph-name="aringacute" unicode="&#x1fb;" horiz-adv-x="1116" 
d="M973 0h-176v76q-152 -105 -359 -105q-336 0 -336 320v41q0 87 24.5 150t66.5 101t110.5 60t142 29.5t175.5 7.5h167v82q0 77 -9 120t-39 71t-79 37t-137 9q-137 0 -348 -24v131q39 14 144 31.5t219 17.5q93 0 162.5 -11t117 -34.5t78 -54.5t47.5 -78t23 -96.5t6 -118.5
v-762zM788 205v336h-167q-96 0 -153.5 -7.5t-101.5 -29.5t-61.5 -63.5t-17.5 -108.5v-56q0 -90 48.5 -125.5t139.5 -35.5q89 0 178 29.5t135 60.5zM823 1427q0 -113 -64.5 -168t-170.5 -55q-108 0 -175 55t-67 168t67 168.5t175 55.5q106 0 170.5 -55.5t64.5 -168.5z
M700 1427q0 113 -112 113q-115 0 -115 -113q0 -112 115 -112q50 0 81 26.5t31 85.5zM979 2003l-307 -315h-185l269 315h223z" />
    <glyph glyph-name="AEacute" unicode="&#x1fc;" horiz-adv-x="1974" 
d="M264 0h-192l491 1522h1299v-168h-713v-480h672v-169h-672v-539h713v-166h-899v498h-541zM963 666v690h-271q-9 -30 -31 -108t-36 -122l-148 -460h486zM1548 1931l-307 -315h-184l268 315h223z" />
    <glyph glyph-name="aeacute" unicode="&#x1fd;" horiz-adv-x="1861" 
d="M1708 16q-180 -45 -399 -45q-302 0 -420 140q-107 -72 -213 -106t-238 -34q-336 0 -336 320v41q0 87 24.5 150t66.5 101t110.5 60t142 29.5t175.5 7.5h167v82q0 77 -9 120t-39 71t-79 37t-137 9q-137 0 -348 -24v131q39 14 144 31.5t219 17.5q169 0 251 -31t125 -96
q122 125 353 125q243 0 362 -144t119 -415v-98h-774v-23q0 -68 4.5 -111.5t24 -92.5t54.5 -77t99 -46.5t156 -18.5q179 0 395 37v-148zM1561 647v21q0 48 -5 87.5t-23 86t-48.5 78.5t-86 53.5t-130.5 21.5q-291 0 -291 -327v-21h584zM788 205v336h-167q-96 0 -153.5 -7.5
t-101.5 -29.5t-61.5 -63.5t-17.5 -108.5v-56q0 -90 48.5 -125.5t139.5 -35.5q89 0 178 29.5t135 60.5zM1329 1577l-307 -315h-184l268 315h223z" />
    <glyph glyph-name="Oslashacute" unicode="&#x1fe;" horiz-adv-x="1400" 
d="M1288 651q0 -326 -152 -503t-436 -177q-236 0 -381 121l-65 -92h-195l156 217q-102 167 -102 434v217q0 326 151.5 502t435.5 176q230 0 379 -121l68 95h194l-155 -217q102 -167 102 -435v-217zM1098 651v217q0 156 -37 260l-635 -886q100 -103 274 -103q186 0 292 122.5
t106 389.5zM973 1276q-99 102 -273 102q-186 0 -291.5 -121.5t-105.5 -388.5v-217q0 -156 37 -260zM1026 1931l-307 -315h-184l268 315h223z" />
    <glyph glyph-name="oslashacute" unicode="&#x1ff;" horiz-adv-x="1185" 
d="M961 1577l-308 -315h-184l268 315h224zM1073 481q0 -248 -122.5 -379t-358.5 -131q-170 0 -285 70l-69 -90h-191l150 196q-84 128 -84 334v164q0 248 121.5 379t357.5 131q185 0 307 -86l82 107h190l-170 -222q72 -126 72 -309v-164zM889 481v164q0 64 -15 141l-464 -608
q68 -45 182 -45q154 0 225.5 83t71.5 265zM795 932q-70 61 -203 61q-154 0 -224.5 -82.5t-70.5 -265.5v-164q0 -107 20 -174z" />
    <glyph glyph-name="Scommaaccent" unicode="&#x218;" horiz-adv-x="1198" 
d="M1085 385q0 -200 -127 -307t-376 -107q-123 0 -252.5 14.5t-182.5 28.5v148q233 -27 435 -27q158 0 234.5 59.5t76.5 190.5q0 94 -44.5 152.5t-162.5 111.5l-260 117q-160 71 -236.5 165.5t-76.5 246.5q0 187 123 277.5t374 90.5q122 0 245 -14t175 -27v-149
q-239 26 -414 26q-159 0 -236 -45t-77 -159q0 -90 43 -145.5t162 -108.5l262 -115q164 -72 239.5 -170t75.5 -254zM725 -139l-182 -291h-168l137 291h213z" />
    <glyph glyph-name="scommaaccent" unicode="&#x219;" horiz-adv-x="987" 
d="M905 285q0 -314 -420 -314q-105 0 -217 16t-151 29v142q12 -1 86 -9.5t145 -14t131 -5.5q138 0 190 37t52 115q0 75 -41 113t-186 100l-82 34q-166 70 -238 148.5t-72 197.5q0 142 99 211.5t309 69.5q102 0 201.5 -14t138.5 -27v-137q-198 20 -332 20q-129 0 -180 -24.5
t-51 -98.5q0 -66 38 -104t158 -90l82 -35q138 -61 207 -108t101 -105.5t32 -146.5zM610 -139l-182 -291h-168l137 291h213z" />
    <glyph glyph-name="Tcommaaccent" unicode="&#x21a;" horiz-adv-x="1249" 
d="M1188 1354h-469v-1354h-189v1354h-469v168h1127v-168zM739 -139l-182 -291h-168l137 291h213z" />
    <glyph glyph-name="tcommaaccent" unicode="&#x21b;" horiz-adv-x="825" 
d="M764 2q-96 -31 -207 -31q-154 0 -216 64t-62 223v715l-228 16v137h228v293h184v-293h301v-153h-301v-707q0 -97 19 -122t96 -25q98 0 186 10v-127zM621 -139l-183 -291h-168l138 291h213z" />
    <glyph glyph-name="circumflex" unicode="&#x2c6;" 
d="M866 1262h-184l-215 215l-213 -215h-184l276 315h244z" />
    <glyph glyph-name="caron" unicode="&#x2c7;" 
d="M70 1577h184l213 -217l215 217h184l-276 -315h-244z" />
    <glyph glyph-name="uni02C9" unicode="&#x2c9;" 
d="M819 1341h-702v144h702v-144z" />
    <glyph glyph-name="breve" unicode="&#x2d8;" 
d="M813 1577q-25 -317 -346 -317q-322 0 -344 317h137q10 -106 59.5 -150.5t147.5 -44.5q99 0 148 44t61 151h137z" />
    <glyph glyph-name="dotaccent" unicode="&#x2d9;" 
d="M559 1333h-182v246h182v-246z" />
    <glyph glyph-name="ring" unicode="&#x2da;" 
d="M707 1464q0 -113 -65 -168t-171 -55q-108 0 -175 55t-67 168t67 168.5t175 55.5q106 0 171 -55.5t65 -168.5zM584 1464q0 113 -113 113q-115 0 -115 -113q0 -112 115 -112q51 0 82 26.5t31 85.5z" />
    <glyph glyph-name="ogonek" unicode="&#x2db;" 
d="M713 -424q-57 -20 -174 -20q-127 0 -193.5 53.5t-66.5 148.5q0 73 66 145t185 124l183 -27q-168 -77 -223.5 -130t-55.5 -103q0 -95 121 -95q7 0 158 11v-107z" />
    <glyph glyph-name="tilde" unicode="&#x2dc;" 
d="M881 1507q0 -124 -45.5 -189t-153.5 -65q-102 0 -209 84l-84 68q-36 31 -61 44t-56 13q-41 0 -56 -30.5t-15 -94.5v-69h-133v69q0 254 204 254q57 0 101 -18t98 -60l86 -69q38 -31 64.5 -45.5t56.5 -14.5q42 0 57 29.5t15 93.5v70h131v-70z" />
    <glyph glyph-name="hungarumlaut" unicode="&#x2dd;" 
d="M1001 1571l-307 -316h-186l270 316h223zM342 1571h225l-307 -316h-186z" />
    <glyph glyph-name="uni037E" unicode="&#x37e;" horiz-adv-x="491" 
d="M342 510h-184v283h184v-283z" />
    <glyph glyph-name="uni03A9" unicode="&#x3a9;" horiz-adv-x="1394" 
d="M1282 786q0 -124 -32 -226.5t-109 -188t-195 -131.5v-84h326v-156h-500v330q157 39 238.5 157t81.5 299v150q0 442 -396 442q-395 0 -395 -442v-150q0 -181 81.5 -299t238.5 -157v-330h-498v156h323v84q-118 46 -194.5 131.5t-108.5 188t-32 226.5v150q0 295 157.5 452.5
t427.5 157.5q271 0 428.5 -157.5t157.5 -452.5v-150z" />
    <glyph glyph-name="uni03BC" unicode="&#x3bc;" horiz-adv-x="1320" 
d="M1114 0h-184v88q-231 -117 -391 -117q-86 0 -150 25v-426h-184v1556h182v-718q0 -159 38 -219t153 -60q125 0 352 100v897h184v-1126z" />
    <glyph glyph-name="pi" unicode="&#x3c0;" horiz-adv-x="1294" 
d="M1196 -14q-69 -15 -143 -15q-128 0 -177 66.5t-49 206.5v712h-370v-956h-187v956h-186v170h1112v-170h-186v-712q0 -72 16 -96.5t70 -24.5q63 0 100 2v-139z" />
    <glyph glyph-name="Wgrave" unicode="&#x1e80;" horiz-adv-x="1843" 
d="M1751 1522l-274 -1522h-301l-207 942q-7 33 -21.5 97.5t-21.5 97.5h-6q-7 -33 -21.5 -97.5t-21.5 -97.5l-205 -942h-305l-275 1522h201l178 -1069q8 -50 24.5 -151.5t24.5 -151.5h10q12 50 33 150.5t33 150.5l182 845h295l184 -852q10 -49 32 -147t32 -147h10
q13 99 47 303l181 1069h192zM1100 1616h-185l-307 315h223z" />
    <glyph glyph-name="wgrave" unicode="&#x1e81;" horiz-adv-x="1701" 
d="M1640 1126l-254 -1126h-266l-202 676q-46 146 -62 227h-8q-16 -81 -62 -227l-202 -676h-267l-256 1126h189l149 -696q38 -188 45 -291h11q14 47 38.5 145t38.5 144l177 606h286l176 -606q14 -47 39.5 -145t38.5 -144h11q7 103 45 291l149 696h186zM987 1262h-184
l-307 315h223z" />
    <glyph glyph-name="Wacute" unicode="&#x1e82;" horiz-adv-x="1843" 
d="M1751 1522l-274 -1522h-301l-207 942q-7 33 -21.5 97.5t-21.5 97.5h-6q-7 -33 -21.5 -97.5t-21.5 -97.5l-205 -942h-305l-275 1522h201l178 -1069q8 -50 24.5 -151.5t24.5 -151.5h10q12 50 33 150.5t33 150.5l182 845h295l184 -852q10 -49 32 -147t32 -147h10
q13 99 47 303l181 1069h192zM1296 1931l-307 -315h-184l268 315h223z" />
    <glyph glyph-name="wacute" unicode="&#x1e83;" horiz-adv-x="1701" 
d="M1640 1126l-254 -1126h-266l-202 676q-46 146 -62 227h-8q-16 -81 -62 -227l-202 -676h-267l-256 1126h189l149 -696q38 -188 45 -291h11q14 47 38.5 145t38.5 144l177 606h286l176 -606q14 -47 39.5 -145t38.5 -144h11q7 103 45 291l149 696h186zM1204 1577l-307 -315
h-184l268 315h223z" />
    <glyph glyph-name="Wdieresis" unicode="&#x1e84;" horiz-adv-x="1843" 
d="M1751 1522l-274 -1522h-301l-207 942q-7 33 -21.5 97.5t-21.5 97.5h-6q-7 -33 -21.5 -97.5t-21.5 -97.5l-205 -942h-305l-275 1522h201l178 -1069q8 -50 24.5 -151.5t24.5 -151.5h10q12 50 33 150.5t33 150.5l182 845h295l184 -852q10 -49 32 -147t32 -147h10
q13 99 47 303l181 1069h192zM1241 1657h-166v241h166v-241zM774 1898v-241h-168v241h168z" />
    <glyph glyph-name="wdieresis" unicode="&#x1e85;" horiz-adv-x="1701" 
d="M1640 1126l-254 -1126h-266l-202 676q-46 146 -62 227h-8q-16 -81 -62 -227l-202 -676h-267l-256 1126h189l149 -696q38 -188 45 -291h11q14 47 38.5 145t38.5 144l177 606h286l176 -606q14 -47 39.5 -145t38.5 -144h11q7 103 45 291l149 696h186zM1167 1317h-166v242
h166v-242zM700 1559v-242h-168v242h168z" />
    <glyph glyph-name="Ygrave" unicode="&#x1ef2;" horiz-adv-x="1284" 
d="M1243 1522l-508 -920v-602h-186v602l-508 920h207l276 -502q82 -151 117 -242h12q10 27 27 62.5t30 59t35.5 65t30.5 55.5l275 502h192zM791 1614h-185l-307 315h223z" />
    <glyph glyph-name="ygrave" unicode="&#x1ef3;" horiz-adv-x="1120" 
d="M1073 1126l-428 -1226q-26 -74 -47 -121.5t-52.5 -96.5t-68.5 -76.5t-90 -45t-121 -17.5q-117 0 -219 21v141q117 -8 213 -8q79 0 116.5 44.5t86.5 176.5l31 82l-437 1126h203l229 -632q43 -122 91 -299h4q38 158 86 301l207 630h196zM719 1262h-184l-308 315h224z" />
    <glyph glyph-name="figuredash" unicode="&#x2012;" horiz-adv-x="1466" 
d="M1315 522h-1163v156h1163v-156z" />
    <glyph glyph-name="endash" unicode="&#x2013;" horiz-adv-x="1032" 
d="M881 522h-729v156h729v-156z" />
    <glyph glyph-name="emdash" unicode="&#x2014;" horiz-adv-x="1316" 
d="M1165 522h-1013v156h1013v-156z" />
    <glyph glyph-name="quoteleft" unicode="&#x2018;" horiz-adv-x="374" 
d="M334 1585l-96 -469h-197l154 469h139z" />
    <glyph glyph-name="quoteright" unicode="&#x2019;" horiz-adv-x="374" 
d="M334 1585l-152 -469h-141l98 469h195z" />
    <glyph glyph-name="quotesinglbase" unicode="&#x201a;" horiz-adv-x="374" 
d="M334 274l-152 -467h-141l98 467h195z" />
    <glyph glyph-name="quotedblleft" unicode="&#x201c;" horiz-adv-x="749" 
d="M709 1585l-99 -469h-194l151 469h142zM193 1585h141l-98 -469h-195z" />
    <glyph glyph-name="quotedblright" unicode="&#x201d;" horiz-adv-x="749" 
d="M709 1585l-152 -469h-141l98 469h195zM139 1585h195l-152 -469h-141z" />
    <glyph glyph-name="quotedblbase" unicode="&#x201e;" horiz-adv-x="749" 
d="M709 274l-152 -467h-141l98 467h195zM139 274h195l-152 -467h-141z" />
    <glyph glyph-name="dagger" unicode="&#x2020;" horiz-adv-x="1044" 
d="M887 985h-287v-1251h-182v1251h-260v162h260v438h182v-438h287v-162z" />
    <glyph glyph-name="daggerdbl" unicode="&#x2021;" horiz-adv-x="1044" 
d="M887 549h-287v-815h-182v815h-260v160h260v268h-260v162h260v438h182v-438h287v-162h-287v-268h287v-160z" />
    <glyph glyph-name="bullet" unicode="&#x2022;" horiz-adv-x="1091" 
d="M911 756q0 -151 -107 -258t-259 -107q-151 0 -258 107t-107 258q0 152 107 259t258 107q152 0 259 -107t107 -259z" />
    <glyph glyph-name="onedotenleader" unicode="&#x2024;" horiz-adv-x="505" 
d="M346 0h-186v283h186v-283z" />
    <glyph glyph-name="twodotenleader" unicode="&#x2025;" horiz-adv-x="937" 
d="M776 0h-184v283h184v-283zM346 283v-283h-186v283h186z" />
    <glyph glyph-name="ellipsis" unicode="&#x2026;" horiz-adv-x="1683" 
d="M356 0h-186v283h186v-283zM934 0h-184v283h184v-283zM1511 0h-184v283h184v-283z" />
    <glyph glyph-name="perthousand" unicode="&#x2030;" horiz-adv-x="3037" 
d="M2916 397q0 -204 -93 -310.5t-267 -106.5t-267.5 106.5t-93.5 310.5v117q0 204 93 310t268 106q174 0 267 -106t93 -310v-117zM2753 397v117q0 154 -52 215.5t-145 61.5t-145 -61.5t-52 -215.5v-117q0 -155 52 -216.5t145 -61.5t145 61.5t52 216.5zM2066 397
q0 -204 -93 -310.5t-267 -106.5t-267 106.5t-93 310.5v117q0 204 93 310t267 106t267 -106t93 -310v-117zM1903 397v117q0 154 -52 215.5t-145 61.5t-145 -61.5t-52 -215.5v-117q0 -155 52 -216.5t145 -61.5t145 61.5t52 216.5zM1667 1522l-971 -1522h-184l971 1522h184z
M838 1012q0 -420 -359 -420q-97 0 -168 31.5t-112 89.5t-60.5 132t-19.5 167v112q0 93 19.5 167.5t60.5 132t112 89t168 31.5q359 0 359 -420v-112zM674 1012v112q0 155 -46.5 218t-148.5 63q-101 0 -148.5 -66t-47.5 -215v-112q0 -154 46.5 -217.5t149.5 -63.5
q102 0 148.5 63t46.5 218z" />
    <glyph glyph-name="guilsinglleft" unicode="&#x2039;" horiz-adv-x="782" 
d="M666 166h-217l-334 426l334 422h217l-324 -422z" />
    <glyph glyph-name="guilsinglright" unicode="&#x203a;" horiz-adv-x="782" 
d="M668 592l-336 -426h-217l325 426l-325 422h217z" />
    <glyph glyph-name="exclamdbl" unicode="&#x203c;" horiz-adv-x="958" 
d="M778 0h-186v276h186v-276zM784 1585l-18 -1190h-160l-20 1190h198zM365 0h-187v276h187v-276zM371 1585l-19 -1190h-159l-21 1190h199z" />
    <glyph glyph-name="fraction" unicode="&#x2044;" horiz-adv-x="845" 
d="M999 1522l-968 -1522h-185l969 1522h184z" />
    <glyph glyph-name="zero.superior" unicode="&#x2070;" 
d="M834 1077q0 -204 -95.5 -309.5t-273.5 -105.5t-272.5 105.5t-94.5 309.5v119q0 205 94.5 310.5t272.5 105.5q179 0 274 -105.5t95 -310.5v-119zM666 1077v119q0 81 -15 137.5t-43.5 87t-63 43.5t-79.5 13q-94 0 -146.5 -62.5t-52.5 -218.5v-119q0 -155 52.5 -216.5
t146.5 -61.5q45 0 79.5 13t63 43t43.5 86t15 136z" />
    <glyph glyph-name="i.superior" unicode="&#x2071;" horiz-adv-x="434" 
d="M137 1313h162v-692h-162v692zM301 1427h-168v158h168v-158z" />
    <glyph glyph-name="four.superior" unicode="&#x2074;" horiz-adv-x="948" 
d="M719 680h-168v225h-461v135l469 553h160v-563h143v-125h-143v-225zM557 1030v371l-313 -371h313z" />
    <glyph glyph-name="five.superior" unicode="&#x2075;" horiz-adv-x="911" 
d="M754 1464h-432l-23 -227h125q195 0 279.5 -60t84.5 -206q0 -71 -22.5 -125.5t-60 -88.5t-90.5 -56t-108 -30.5t-120 -8.5q-119 0 -262 30v115q181 -21 272 -21q124 0 172.5 40t48.5 145q0 81 -44.5 111t-172.5 30h-262l45 481h570v-129z" />
    <glyph glyph-name="six.superior" unicode="&#x2076;" horiz-adv-x="962" 
d="M786 1581v-117q-161 19 -280 19q-60 0 -101.5 -10.5t-65.5 -27.5t-37 -47t-17 -60.5t-4 -77.5v-31q96 26 211 26q59 0 104 -5t92 -20.5t77 -43t49.5 -75t19.5 -112.5v-38q0 -71 -23 -125.5t-58 -86.5t-83.5 -52.5t-93.5 -27.5t-93 -7q-70 0 -122.5 9t-100.5 34.5
t-78.5 68t-48.5 111t-18 162.5v200q0 93 18.5 158t61.5 113t117 71t182 23q159 0 292 -31zM666 961v34q0 90 -45 119t-142 29q-103 0 -198 -23v-92q0 -75 14 -124.5t42.5 -75t62.5 -35t83 -9.5q79 0 131 43t52 134z" />
    <glyph glyph-name="seven.superior" unicode="&#x2077;" horiz-adv-x="903" 
d="M133 1464v129h660v-149l-424 -764h-183l443 784h-496z" />
    <glyph glyph-name="eight.superior" unicode="&#x2078;" horiz-adv-x="987" 
d="M854 944q0 -56 -11.5 -99.5t-29 -73t-47.5 -50t-58.5 -32t-70.5 -18t-75.5 -8t-80.5 -1.5q-46 0 -78.5 1.5t-74 8t-70 18.5t-58 33.5t-47 52t-29 75.5t-11.5 103q0 136 104 199q-100 65 -100 207q0 63 21 110t54 73.5t83.5 42.5t99 21t110.5 5q61 0 108.5 -5t98 -21
t83.5 -42.5t54 -73.5t21 -110q0 -142 -100 -207q104 -63 104 -209zM688 946q-2 81 -28.5 115.5t-94.5 34.5h-164q-69 0 -95.5 -35t-26.5 -115q0 -53 14 -87t44 -50.5t63 -21.5t85 -5q51 0 83 5t62 21.5t44 50.5t14 87zM684 1356q0 81 -50.5 108t-152.5 27q-48 0 -80.5 -5
t-61.5 -18.5t-43.5 -41.5t-14.5 -70q0 -73 26.5 -108.5t93.5 -35.5h164q67 0 93 35.5t26 108.5z" />
    <glyph glyph-name="nine.superior" unicode="&#x2079;" horiz-adv-x="962" 
d="M158 692v115q223 -19 282 -19q74 0 120.5 15t69 48t29.5 69t7 94v33q-100 -27 -211 -27q-59 0 -104 5t-92 20.5t-77 43t-49.5 75t-19.5 112.5v39q0 71 22.5 125t57.5 86t83.5 52t93.5 27t95 7q87 0 149 -15.5t113.5 -55.5t77.5 -118t26 -194v-201q0 -92 -18.5 -157.5
t-61 -113.5t-116.5 -71.5t-182 -23.5q-134 0 -295 30zM666 1153v94q0 75 -14 124.5t-42 75t-62.5 35t-84.5 9.5q-79 0 -130.5 -42.5t-51.5 -133.5v-35q0 -90 44 -118.5t140 -28.5q109 0 201 20z" />
    <glyph glyph-name="parenleft.superior" unicode="&#x207d;" horiz-adv-x="577" 
d="M481 526h-162q-72 85 -127 223.5t-55 311.5v10q0 173 55.5 314t126.5 227h162q-82 -117 -128 -246.5t-46 -294.5v-10q0 -292 174 -535z" />
    <glyph glyph-name="parenright.superior" unicode="&#x207e;" horiz-adv-x="577" 
d="M440 1061q0 -173 -55 -311.5t-127 -223.5h-162q174 238 174 535v10q0 299 -174 541h162q71 -86 126.5 -227t55.5 -314v-10z" />
    <glyph glyph-name="n.superior" unicode="&#x207f;" horiz-adv-x="911" 
d="M778 621h-164v426q0 91 -22.5 125t-89.5 34q-75 0 -205 -55v-530h-164v692h160v-49q134 67 244 67q62 0 106 -14.5t70 -37.5t41 -61t19.5 -76t4.5 -91v-430z" />
    <glyph glyph-name="zero.inferior" unicode="&#x2080;" 
d="M834 -41q0 -204 -95.5 -310t-273.5 -106t-272.5 106t-94.5 310v119q0 205 94.5 310.5t272.5 105.5q179 0 274 -105.5t95 -310.5v-119zM666 -41v119q0 156 -53 218t-148 62q-45 0 -79 -13t-62.5 -43t-43 -86.5t-14.5 -137.5v-119q0 -155 52.5 -216.5t146.5 -61.5
q45 0 79.5 13t63 43t43.5 86t15 136z" />
    <glyph glyph-name="one.inferior" unicode="&#x2081;" horiz-adv-x="880" 
d="M750 -438h-594v121l213 6v635l-215 -68v137l262 88h121v-792l213 -6v-121z" />
    <glyph glyph-name="two.inferior" unicode="&#x2082;" horiz-adv-x="911" 
d="M139 352v111q36 9 129.5 20t175.5 11q172 0 256 -54.5t84 -173.5q0 -94 -56.5 -158.5t-203.5 -136.5q-149 -73 -191 -121t-42 -145v-12h481v-131h-647v114q0 105 30.5 174.5t91.5 118.5t177 105q66 32 103.5 54t57.5 44t25.5 40.5t5.5 49.5q0 58 -43.5 82.5t-146.5 24.5
q-70 0 -287 -17z" />
    <glyph glyph-name="three.inferior" unicode="&#x2083;" horiz-adv-x="905" 
d="M420 -457q-78 0 -168.5 11.5t-120.5 19.5v113q217 -17 277 -17q108 0 155 31t47 119q0 40 -5 64.5t-20.5 46t-47.5 31t-84 9.5h-279v123h281q50 0 82.5 10.5t47.5 32.5t20 45.5t5 59.5q0 70 -42.5 97.5t-159.5 27.5q-60 0 -277 -17v113q30 8 120.5 19.5t168.5 11.5
q183 0 270.5 -55.5t87.5 -188.5q0 -160 -116 -217q116 -53 116 -217q0 -145 -89 -209t-269 -64z" />
    <glyph glyph-name="four.inferior" unicode="&#x2084;" horiz-adv-x="948" 
d="M719 -438h-168v225h-461v135l469 553h160v-563h143v-125h-143v-225zM557 -88v371l-313 -371h313z" />
    <glyph glyph-name="five.inferior" unicode="&#x2085;" horiz-adv-x="911" 
d="M754 346h-432l-23 -227h125q195 0 279.5 -60t84.5 -206q0 -71 -22.5 -126t-60 -89t-90 -56t-108.5 -30.5t-120 -8.5q-115 0 -262 31v115q181 -21 272 -21q124 0 172.5 40t48.5 145q0 81 -44.5 111t-172.5 30h-262l45 481h570v-129z" />
    <glyph glyph-name="six.inferior" unicode="&#x2086;" horiz-adv-x="962" 
d="M786 463v-117q-161 19 -280 19q-74 0 -120.5 -14.5t-68.5 -46.5t-29 -68t-7 -95v-30q96 26 211 26q59 0 104 -5t92 -20.5t77 -43t49.5 -75t19.5 -112.5v-39q0 -71 -23 -125.5t-58 -86.5t-83.5 -52.5t-93.5 -27.5t-93 -7q-70 0 -122.5 9t-100.5 34.5t-78.5 68t-48.5 111
t-18 162.5v201q0 93 18.5 158t61.5 113t117 71t182 23q159 0 292 -31zM666 -158v35q0 90 -45 119t-142 29q-103 0 -198 -23v-92q0 -75 14 -124.5t42.5 -75t62.5 -35t83 -9.5q80 0 131.5 42.5t51.5 133.5z" />
    <glyph glyph-name="seven.inferior" unicode="&#x2087;" horiz-adv-x="903" 
d="M133 346v129h660v-149l-424 -764h-183l443 784h-496z" />
    <glyph glyph-name="eight.inferior" unicode="&#x2088;" horiz-adv-x="987" 
d="M854 -174q0 -56 -11.5 -99.5t-29 -73t-47.5 -50.5t-59 -32.5t-70.5 -18t-75 -8t-80.5 -1.5q-46 0 -79 1.5t-74 8.5t-69.5 18.5t-58 33.5t-47 52.5t-29 75.5t-11.5 103q0 136 104 199q-100 65 -100 207q0 63 21 110t54 73.5t83.5 42.5t99 21t110.5 5q61 0 108.5 -5t98 -21
t83.5 -42.5t54 -73.5t21 -110q0 -142 -100 -207q104 -63 104 -209zM688 -172q-2 81 -28 115t-95 34h-164q-69 0 -95.5 -34.5t-26.5 -114.5q0 -53 14 -87t44 -50.5t63 -21.5t85 -5q51 0 83 5t62 21.5t44 50.5t14 87zM684 238q0 81 -50.5 108t-152.5 27q-48 0 -80.5 -5
t-61.5 -18.5t-43.5 -41.5t-14.5 -70q0 -73 26.5 -108.5t93.5 -35.5h164q67 0 93 35.5t26 108.5z" />
    <glyph glyph-name="nine.inferior" unicode="&#x2089;" horiz-adv-x="962" 
d="M158 -426v115q223 -19 282 -19q74 0 120.5 15t69 48t29.5 69t7 94v32q-96 -26 -211 -26q-59 0 -104 5t-92 20.5t-77 43t-49.5 75t-19.5 112.5v39q0 71 22.5 125t57.5 86t83.5 52t93.5 27t95 7q87 0 149 -15.5t113.5 -55.5t77.5 -118t26 -194v-201q0 -92 -18.5 -157.5
t-61 -114t-116.5 -72t-182 -23.5q-128 0 -295 31zM666 35v94q0 75 -14 124.5t-42 75t-62.5 35t-84.5 9.5q-79 0 -130.5 -42.5t-51.5 -133.5v-35q0 -90 44.5 -119t139.5 -29q104 0 201 21z" />
    <glyph glyph-name="parenleft.inferior" unicode="&#x208d;" horiz-adv-x="577" 
d="M481 -369h-162q-72 85 -127 224t-55 313q0 178 55 320t127 229h162q-174 -243 -174 -549q0 -294 174 -537z" />
    <glyph glyph-name="parenright.inferior" unicode="&#x208e;" horiz-adv-x="577" 
d="M440 168q0 -174 -55 -313t-127 -224h-162q174 238 174 537q0 311 -174 549h162q72 -87 127 -229t55 -320z" />
    <glyph glyph-name="colonmonetary" unicode="&#x20a1;" horiz-adv-x="987" 
d="M903 1116v-139q-195 20 -297 20q-70 0 -120 -15t-90.5 -52t-60.5 -106.5t-20 -172.5v-174q0 -100 20 -169.5t60 -108t90.5 -54.5t120.5 -16q94 0 297 21v-140q-42 -10 -110 -20v-207h-150v188h-49q-50 0 -88 6v-194h-150v237q-110 56 -167.5 172t-57.5 285v174
q0 342 225 455v254h150v-211q38 6 94 6h43v205h150v-223q59 -6 110 -21z" />
    <glyph glyph-name="franc" unicode="&#x20a3;" horiz-adv-x="1210" 
d="M383 0h-188v324h-109v170h109v1028h901v-168h-713v-480h670v-169h-670v-211h428v-170h-428v-324z" />
    <glyph glyph-name="lira" unicode="&#x20a4;" horiz-adv-x="1323" 
d="M1159 1505v-155q-208 32 -377 32q-56 0 -96.5 -6t-71.5 -17t-51.5 -32.5t-33.5 -46t-19.5 -65t-9 -82t-2.5 -103.5v-80h510v-155h-510v-162h510v-156h-510v-76q0 -139 -74 -241h735v-160h-942v143q92 100 92 258v76h-159v156h159v162h-159v155h159v80q0 108 11.5 185
t41.5 142.5t82 105.5t132.5 61.5t193.5 21.5q222 0 389 -41z" />
    <glyph glyph-name="peseta" unicode="&#x20a7;" horiz-adv-x="1411" 
d="M221 1149v373q53 0 156.5 1t152.5 1q84 0 148.5 -3t136.5 -12.5t125 -25.5t105.5 -44.5t88 -67.5t61 -95t34.5 -127h119v-166h-117q-8 -80 -35.5 -141.5t-62.5 -102.5t-96 -69.5t-113.5 -43.5t-139.5 -23t-148.5 -9.5t-164.5 -1.5h-61v-592h-189v983h-137v166h137z
M1044 1047v26q0 52 -8 92t-29.5 69.5t-41.5 50t-64 33.5t-76 20.5t-98 11t-109.5 4t-130.5 0.5h-77v-596h47q84 0 123.5 0.5t106 3t97 7.5t77.5 14.5t67.5 24t48.5 36t39 50.5t19.5 67t8.5 86z" />
    <glyph glyph-name="Euro" unicode="&#x20ac;" horiz-adv-x="1366" 
d="M877 1378q-67 0 -114 -6t-99.5 -27.5t-88 -60.5t-65 -108t-43.5 -166h676l-41 -146h-653q-3 -40 -3 -80q0 -22 5 -129h587l-39 -145h-528q15 -97 45 -166.5t65.5 -108.5t87.5 -61t98 -28.5t110 -6.5q86 0 346 23v-156q-170 -35 -357 -35q-59 0 -110.5 5.5t-108 20.5
t-103 40t-92 66.5t-79.5 97t-60 134t-39 175.5h-147v145h131q-4 82 -4 127q0 55 2 82h-129v146h145q11 98 36.5 177t59 134.5t79.5 96.5t93 65t104.5 38.5t109 19.5t112.5 5q187 0 357 -35v-155q-249 22 -346 22z" />
    <glyph glyph-name="litre" unicode="&#x2113;" horiz-adv-x="980" 
d="M879 88q-144 -123 -289 -123q-144 0 -211.5 79.5t-67.5 234.5v219l-129 -113l-82 94q30 28 71.5 65.5t74.5 68t65 61.5v555q0 192 67 285.5t216 93.5q71 0 123.5 -21.5t82 -60t43 -85.5t13.5 -104q0 -118 -47.5 -234.5t-121.5 -213.5t-191 -215v-369q0 -110 28.5 -149
t102.5 -39q78 0 168 76zM713 1337q0 133 -105 133q-71 0 -91.5 -53t-20.5 -188v-369q112 130 164.5 239.5t52.5 237.5z" />
    <glyph glyph-name="trademark" unicode="&#x2122;" horiz-adv-x="1816" 
d="M1649 715h-152v463q0 82 6 159h-2q-46 -95 -65 -125l-123 -198h-121l-119 198q-31 51 -67 125h-2q6 -77 6 -159v-463h-150v807h176l166 -285q29 -48 49 -94h2q28 58 50 94l167 285h179v-807zM731 1401h-244v-686h-153v686h-246v121h643v-121z" />
    <glyph glyph-name="Omega" unicode="&#x2126;" horiz-adv-x="1394" 
d="M1282 786q0 -124 -32 -226.5t-109 -188t-195 -131.5v-84h326v-156h-500v330q157 39 238.5 157t81.5 299v150q0 442 -396 442q-395 0 -395 -442v-150q0 -181 81.5 -299t238.5 -157v-330h-498v156h323v84q-118 46 -194.5 131.5t-108.5 188t-32 226.5v150q0 295 157.5 452.5
t427.5 157.5q271 0 428.5 -157.5t157.5 -452.5v-150z" />
    <glyph glyph-name="estimated" unicode="&#x212e;" horiz-adv-x="1345" 
d="M1280 578h-950v-396q148 -129 336 -129q89 0 161.5 20t128 59t94 80.5t80.5 100.5l68 -39q-47 -67 -94 -115.5t-110.5 -89.5t-145.5 -62t-182 -21q-175 0 -313.5 81.5t-212.5 216.5t-74 296q0 122 42.5 230t119.5 189t192.5 128t253.5 47q183 0 323 -82.5t211.5 -217
t71.5 -296.5zM1014 645v334q-64 54 -156 90.5t-184 36.5q-211 0 -344 -127v-334h684z" />
    <glyph glyph-name="onethird" unicode="&#x2153;" horiz-adv-x="2101" 
d="M1581 1522l-969 -1522h-184l969 1522h184zM735 614h-594v121l213 6v635l-215 -67v137l262 88h121v-793l213 -6v-121zM1653 -18q-78 0 -169 11t-120 19v113q204 -16 276 -16q108 0 155.5 30.5t47.5 118.5q0 40 -5 65t-20.5 46.5t-47.5 31t-84 9.5h-279v122h281
q50 0 82.5 10.5t47.5 32.5t20 45.5t5 59.5q0 70 -43 97.5t-160 27.5q-59 0 -276 -17v113q30 8 121 19.5t168 11.5q183 0 270.5 -55.5t87.5 -188.5q0 -160 -117 -217q117 -53 117 -217q0 -145 -89 -208.5t-269 -63.5z" />
    <glyph glyph-name="twothirds" unicode="&#x2154;" horiz-adv-x="2220" 
d="M1667 1522l-971 -1522h-184l971 1522h184zM141 1405v111q35 8 128.5 19t176.5 11q173 0 256.5 -54.5t83.5 -172.5q0 -94 -56.5 -158.5t-203.5 -136.5q-149 -73 -191 -121t-42 -145v-13h481v-131h-647v115q0 105 30.5 174.5t91.5 118t177 104.5q87 42 127.5 71t52.5 53.5
t12 64.5q0 58 -43.5 82t-146.5 24q-83 0 -287 -16zM1720 -18q-78 0 -168 11t-120 19v113q204 -16 276 -16q108 0 155.5 30.5t47.5 118.5q0 40 -5 65t-21 46.5t-48 31t-84 9.5h-278v122h280q50 0 82.5 10.5t48 32.5t20.5 45.5t5 59.5q0 70 -43 97.5t-160 27.5q-59 0 -276 -17
v113q30 8 120.5 19.5t167.5 11.5q183 0 271 -56t88 -188q0 -160 -117 -217q117 -53 117 -217q0 -145 -89 -208.5t-270 -63.5z" />
    <glyph glyph-name="oneeighth" unicode="&#x215b;" horiz-adv-x="2123" 
d="M1581 1522l-969 -1522h-184l969 1522h184zM735 614h-594v127h213v635l-215 -67v137l262 88h121v-799h213v-121zM1997 264q0 -56 -11.5 -99.5t-29 -73t-47.5 -50t-58.5 -32t-70.5 -18t-75.5 -8t-80.5 -1.5q-46 0 -78.5 1.5t-74.5 8t-70 18.5t-58 33.5t-47.5 52t-29 75.5
t-11.5 103q0 136 105 199q-100 65 -100 207q0 63 21 110t54 73.5t83.5 42.5t99 21t110.5 5q61 0 108.5 -5t98 -21t83.5 -42.5t54 -73.5t21 -110q0 -141 -101 -207q105 -63 105 -209zM1831 266q-2 81 -28.5 115.5t-94.5 34.5h-164q-69 0 -96 -35t-27 -115q0 -53 14 -87
t44.5 -50.5t63.5 -21.5t85 -5q51 0 83 5t62 21.5t44 50.5t14 87zM1827 676q0 81 -50.5 108t-152.5 27q-48 0 -81 -5t-62 -18.5t-43.5 -41.5t-14.5 -70q0 -73 27 -108.5t94 -35.5h164q67 0 93 35.5t26 108.5z" />
    <glyph glyph-name="threeeighths" unicode="&#x215c;" horiz-adv-x="2174" 
d="M1642 1522l-968 -1522h-185l969 1522h184zM420 596q-78 0 -168.5 11.5t-120.5 19.5v112q204 -16 277 -16q108 0 155 30.5t47 118.5q0 40 -5 65t-20.5 46.5t-47.5 31t-84 9.5h-279v123h281q50 0 82.5 10.5t47.5 32.5t20 45t5 59q0 70 -42.5 97.5t-159.5 27.5
q-73 0 -277 -16v113q29 8 120 19t169 11q183 0 270.5 -55.5t87.5 -187.5q0 -161 -116 -218q116 -53 116 -217q0 -145 -89 -208.5t-269 -63.5zM2042 264q0 -56 -11.5 -99.5t-29 -73t-47.5 -50t-58.5 -32t-70.5 -18t-75.5 -8t-80.5 -1.5q-46 0 -78.5 1.5t-74.5 8t-70 18.5
t-58 33.5t-47.5 52t-29 75.5t-11.5 103q0 136 105 199q-100 65 -100 207q0 63 21 110t54 73.5t83.5 42.5t99 21t110.5 5q61 0 108.5 -5t98 -21t83.5 -42.5t54 -73.5t21 -110q0 -141 -101 -207q105 -63 105 -209zM1876 266q-2 81 -28.5 115.5t-94.5 34.5h-164q-69 0 -96 -35
t-27 -115q0 -53 14 -87t44.5 -50.5t63.5 -21.5t85 -5q51 0 83 5t62 21.5t44 50.5t14 87zM1872 676q0 81 -50.5 108t-152.5 27q-48 0 -81 -5t-62 -18.5t-43.5 -41.5t-14.5 -70q0 -73 27 -108.5t94 -35.5h164q67 0 93 35.5t26 108.5z" />
    <glyph glyph-name="fiveeighths" unicode="&#x215d;" horiz-adv-x="2185" 
d="M1622 1522l-971 -1522h-184l971 1522h184zM754 1399h-432l-23 -228h125q195 0 279.5 -60t84.5 -206q0 -71 -22.5 -125.5t-60 -88.5t-90.5 -56t-108 -30.5t-120 -8.5q-115 0 -262 31v114q172 -20 272 -20q124 0 172.5 39.5t48.5 144.5q0 81 -44.5 111.5t-172.5 30.5h-262
l45 481h570v-129zM2056 264q0 -56 -11.5 -99.5t-29 -73t-47.5 -50t-58.5 -32t-70.5 -18t-75.5 -8t-80.5 -1.5q-46 0 -78.5 1.5t-74 8t-70 18.5t-58 33.5t-47 52t-29 75.5t-11.5 103q0 136 104 199q-100 65 -100 207q0 63 21 110t54.5 73.5t84 42.5t99 21t110.5 5
q61 0 108.5 -5t97.5 -21t83 -42.5t54 -73.5t21 -110q0 -142 -100 -207q104 -63 104 -209zM1890 266q-2 81 -28.5 115.5t-94.5 34.5h-163q-69 0 -96 -35t-27 -115q0 -53 14 -87t44.5 -50.5t63.5 -21.5t85 -5q51 0 83 5t61.5 21.5t43.5 50.5t14 87zM1886 676q0 81 -50.5 108
t-152.5 27q-48 0 -80.5 -5t-61.5 -18.5t-43.5 -41.5t-14.5 -70q0 -73 27 -108.5t94 -35.5h163q67 0 93 35.5t26 108.5z" />
    <glyph glyph-name="seveneighths" unicode="&#x215e;" horiz-adv-x="2000" 
d="M1438 1522l-971 -1522h-184l970 1522h185zM123 1399v129h659v-150l-424 -764h-182l442 785h-495zM1866 264q0 -56 -11.5 -99.5t-29 -73t-47.5 -50t-58.5 -32t-70.5 -18t-75.5 -8t-80.5 -1.5q-46 0 -78.5 1.5t-74.5 8t-70 18.5t-58 33.5t-47.5 52t-29 75.5t-11.5 103
q0 136 105 199q-101 66 -101 207q0 63 21 110t54.5 73.5t84 42.5t99 21t110.5 5q61 0 108.5 -5t98 -21t83.5 -42.5t54 -73.5t21 -110q0 -141 -101 -207q105 -63 105 -209zM1700 266q-2 81 -28.5 115.5t-94.5 34.5h-164q-69 0 -96 -35t-27 -115q0 -53 14 -87t44.5 -50.5
t63.5 -21.5t85 -5q51 0 83 5t62 21.5t44 50.5t14 87zM1696 676q0 81 -50.5 108t-152.5 27q-48 0 -81 -5t-62 -18.5t-43.5 -41.5t-14.5 -70q0 -73 27 -108.5t94 -35.5h164q67 0 93 35.5t26 108.5z" />
    <glyph glyph-name="partialdiff" unicode="&#x2202;" horiz-adv-x="1267" 
d="M1137 956q0 -231 -45 -456q-53 -281 -181.5 -404t-357.5 -123q-207 0 -312.5 102.5t-105.5 289.5q0 111 10 182q28 222 161.5 343.5t361.5 121.5q177 0 284 -97q4 69 0 138q-4 67 -17 121.5t-41 106t-70 86t-108 55t-151 20.5q-151 0 -286 -33v147q133 37 292 37
q289 0 427.5 -167.5t138.5 -469.5zM924 627q0 227 -256 227q-303 0 -342 -332q-11 -93 -11 -157q0 -121 61 -176.5t195 -55.5q158 0 239 92t105 291q9 70 9 111z" />
    <glyph glyph-name="Delta" unicode="&#x2206;" horiz-adv-x="1425" 
d="M1346 0h-1266l500 1522h262zM1090 164l-306 950q-19 57 -69 268h-4q-52 -214 -70 -268l-305 -950h754z" />
    <glyph glyph-name="product" unicode="&#x220f;" horiz-adv-x="1478" 
d="M1393 1350h-187v-1485h-188v1485h-559v-1485h-189v1485h-186v172h1309v-172z" />
    <glyph glyph-name="summation" unicode="&#x2211;" horiz-adv-x="1232" 
d="M1069 -135h-901v170l453 641l-453 676v170h901v-170h-670l418 -629v-100l-418 -588h670v-170z" />
    <glyph glyph-name="minus" unicode="&#x2212;" horiz-adv-x="1437" 
d="M1206 725h-977v152h977v-152z" />
    <glyph glyph-name="uni2215" unicode="&#x2215;" horiz-adv-x="845" 
d="M999 1522l-968 -1522h-185l969 1522h184z" />
    <glyph glyph-name="uni2219" unicode="&#x2219;" horiz-adv-x="516" 
d="M350 614h-186v283h186v-283z" />
    <glyph glyph-name="radical" unicode="&#x221a;" horiz-adv-x="1640" 
d="M1526 1788l-633 -1940h-219l-316 979h-243v154h360l307 -993l576 1800h168z" />
    <glyph glyph-name="infinity" unicode="&#x221e;" horiz-adv-x="1587" 
d="M1317 739q0 -465 -297 -465h-14q-133 0 -230 111q-73 -115 -203 -115h-14q-301 0 -301 467v51q0 465 301 465h14q131 0 224 -114q34 60 84 88t125 28h14q297 0 297 -467v-49zM1161 739v49q0 52 -1.5 87.5t-9.5 83t-22 76t-41.5 49t-66.5 20.5h-14q-67 -3 -96 -81
q-22 -59 -44 -254q0 -6 -2 -18v-1v-2q-14 -145 -30 -216q72 -108 172 -108h14q33 0 57.5 13t39.5 38.5t24 53t13.5 68t5.5 70t1 72.5zM745 989q-74 115 -172 115h-14q-33 0 -58 -13t-40.5 -39t-25.5 -54t-14 -68t-5.5 -70.5t-1.5 -71.5v-51q0 -43 1 -72.5t5.5 -70t14 -67
t25 -52.5t40.5 -38.5t59 -12.5h14q27 0 47.5 15t35 40.5t25.5 71t18.5 93.5t15.5 122q12 122 30 223z" />
    <glyph glyph-name="integral" unicode="&#x222b;" horiz-adv-x="1089" 
d="M961 1407q-124 8 -197 8q-46 0 -71 -7.5t-38 -32.5t-15.5 -54t-2.5 -90v-1313q0 -60 -4.5 -102t-21.5 -88.5t-47.5 -74.5t-85.5 -46.5t-132 -18.5q-99 0 -217 27v127q124 -8 199 -8q36 0 58.5 6t36.5 16.5t20.5 36t8 51t1.5 74.5v1313q0 60 4.5 102t21.5 88.5t47 74.5
t85 46.5t132 18.5q100 0 218 -27v-127z" />
    <glyph glyph-name="approxequal" unicode="&#x2248;" horiz-adv-x="1437" 
d="M1200 1169q0 -146 -54.5 -223.5t-184.5 -77.5q-74 0 -129 19.5t-113 64.5l-115 90q-34 27 -48.5 37t-37 19.5t-43.5 9.5q-49 0 -65.5 -34t-16.5 -111v-74h-157v74q0 299 241 299q58 0 105.5 -22.5t111.5 -72.5l115 -90q41 -32 74 -43.5t78 -11.5q49 0 65 34.5t16 112.5
v74h158v-74zM1200 633q0 -146 -54.5 -223.5t-184.5 -77.5q-74 0 -129 19.5t-113 64.5l-115 90q-33 25 -48.5 36t-37.5 20t-43 9q-49 0 -65.5 -34t-16.5 -111v-74h-157v74q0 299 241 299q59 0 106 -22.5t111 -71.5l115 -90q41 -33 74.5 -44.5t77.5 -11.5q49 0 65 35t16 113
v74h158v-74z" />
    <glyph glyph-name="notequal" unicode="&#x2260;" horiz-adv-x="1437" 
d="M1184 500h-494l-184 -500h-160l184 500h-270v151h330l110 299h-440v154h498l155 418h160l-155 -418h266v-154h-326l-108 -299h434v-151z" />
    <glyph glyph-name="lessequal" unicode="&#x2264;" horiz-adv-x="1437" 
d="M1223 0h-1012v152h1012v-152zM1094 285h-250l-596 516l596 514h250l-594 -514z" />
    <glyph glyph-name="greaterequal" unicode="&#x2265;" horiz-adv-x="1437" 
d="M1223 0h-1012v152h1012v-152zM1186 801l-594 -516h-252l596 516l-596 514h252z" />
    <glyph glyph-name="lozenge" unicode="&#x25ca;" horiz-adv-x="1437" 
d="M1227 735l-512 -608l-504 604l510 615zM1038 735l-317 379l-322 -383l316 -375z" />
    <glyph glyph-name="percent.oldstyle" unicode="&#xfe6a;" horiz-adv-x="1765" 
d="M1628 324q0 -170 -72.5 -258.5t-214.5 -88.5q-288 0 -288 347v20q0 344 288 344q142 0 214.5 -87.5t72.5 -256.5v-20zM1473 324v20q0 119 -34 167t-98 48q-66 0 -99.5 -47.5t-33.5 -167.5v-20q0 -121 33.5 -168t99.5 -47q64 0 98 47.5t34 167.5zM1343 1163l-747 -1163
h-168l750 1163h165zM713 819q0 -169 -72 -256.5t-215 -87.5q-144 0 -216.5 87.5t-72.5 256.5v21q0 346 289 346q287 0 287 -346v-21zM559 819v21q0 120 -34 167.5t-99 47.5q-64 0 -97.5 -47.5t-33.5 -167.5v-21q0 -119 33.5 -166t97.5 -47q65 0 99 47t34 166z" />
    <glyph glyph-name="dollar.oldstyle" horiz-adv-x="1017" 
d="M145 14v133q275 -10 344 -10q119 0 174.5 38t55.5 120q0 64 -36.5 104t-143.5 86l-168 74q-133 59 -193.5 135t-60.5 197q0 246 311 283v186h164v-180q174 -9 280 -37v-137q-247 18 -342 18q-113 0 -171 -28.5t-58 -102.5q0 -61 31.5 -101t126.5 -81l170 -74
q149 -64 211.5 -137.5t62.5 -202.5q0 -127 -78.5 -208t-232.5 -101v-199h-164v191q-173 6 -283 34z" />
    <glyph glyph-name="dollar.superior" horiz-adv-x="854" 
d="M125 694v127q204 -16 281 -16q95 0 136.5 30t41.5 89q0 43 -27 70t-98 57l-148 63q-108 47 -159.5 102t-51.5 156q0 209 256 236v153h150v-149q138 -6 221 -27v-129q-205 21 -278 21q-179 0 -179 -101q0 -42 26 -69.5t93 -53.5l150 -57q110 -42 163.5 -102.5t53.5 -159.5
q0 -113 -64 -179t-186 -83v-160h-150v154q-116 2 -231 28z" />
    <glyph glyph-name="zero.oldstyle" horiz-adv-x="1306" 
d="M1186 532q0 -271 -138.5 -415t-394.5 -144t-395 144.5t-139 414.5v91q0 269 139 413t395 144t394.5 -144t138.5 -413v-91zM999 532v91q0 395 -346 395t-346 -395v-91q0 -397 346 -397t346 397z" />
    <glyph glyph-name="one.oldstyle" horiz-adv-x="1040" 
d="M934 0h-828v156l328 10v801l-330 -119v176l379 143h138v-1001l313 -10v-156z" />
    <glyph glyph-name="two.oldstyle" horiz-adv-x="1206" 
d="M150 985v150q75 19 199 32t218 13q285 0 405 -81.5t120 -248.5q0 -75 -21 -134t-78 -125.5t-147.5 -136t-241.5 -167.5l-182 -119h659v-168h-954v168l367 233q173 110 263 189t118 134.5t28 125.5q0 91 -79.5 129.5t-268.5 38.5q-155 0 -405 -33z" />
    <glyph glyph-name="three.oldstyle" horiz-adv-x="1220" 
d="M1059 45q0 -123 -35.5 -208.5t-106 -136t-166 -73t-225.5 -22.5q-192 0 -415 53v141q237 -32 413 -32q91 0 151.5 11.5t106.5 41.5t67 85t21 140v51q0 46 -4.5 78.5t-20 66.5t-42.5 54.5t-74.5 33.5t-114.5 13h-440v158h440q67 0 114.5 14t74.5 36t42.5 57t20 68t4.5 79
v26q0 136 -73.5 187t-274.5 51q-158 0 -405 -29v146q50 11 175.5 28t233.5 17q277 0 405 -90t128 -310v-26q0 -109 -45 -197t-140 -135q185 -93 185 -326v-51z" />
    <glyph glyph-name="four.oldstyle" horiz-adv-x="1343" 
d="M1231 35h-232v-402h-188v402h-721v192l694 928h215v-956h232v-164zM811 199v702l-532 -702h532z" />
    <glyph glyph-name="five.oldstyle" horiz-adv-x="1198" 
d="M1079 31q0 -240 -138.5 -346.5t-416.5 -106.5q-190 0 -420 49v150q4 -1 75 -9.5t111 -13t108 -9.5t122 -5q205 0 289 64.5t84 226.5v59q0 105 -30.5 162t-111 85t-231.5 28h-385l66 763h823v-167h-664l-38 -435h206q290 0 420.5 -102.5t130.5 -333.5v-59z" />
    <glyph glyph-name="six.oldstyle" horiz-adv-x="1292" 
d="M1171 453q0 -86 -19 -157.5t-50 -120.5t-75 -86.5t-89 -59t-97 -35.5t-94 -18.5t-85 -4.5q-65 0 -116 4.5t-110 20t-102.5 41.5t-86 71.5t-69 108t-43 153.5t-16.5 205v396q0 144 29 248t94 179t176 111.5t270 36.5q202 0 416 -45v-147q-240 30 -412 30q-74 0 -132 -10.5
t-98.5 -27.5t-69 -47t-45 -61t-25.5 -77t-12 -88.5t-3 -101.5v-72q72 21 175.5 34t181.5 13q70 0 127 -6t117.5 -21t105.5 -44t82 -72.5t56 -110.5t19 -153v-86zM983 453v77q0 84 -21 137.5t-66.5 81t-100.5 37t-140 9.5q-186 0 -348 -39v-191q0 -130 24 -216.5t73 -133
t110 -64.5t148 -18q66 0 123 18.5t102 56t70.5 100.5t25.5 145z" />
    <glyph glyph-name="seven.oldstyle" horiz-adv-x="1183" 
d="M1092 954l-664 -1321h-211l698 1354h-809v168h986v-201z" />
    <glyph glyph-name="eight.oldstyle" horiz-adv-x="1341" 
d="M1210 438q0 -73 -10.5 -133.5t-27.5 -105.5t-45 -80.5t-56 -59t-69 -40.5t-75.5 -26t-83 -14t-84.5 -6.5t-87 -1.5h-6q-51 0 -87 1.5t-84.5 6.5t-83.5 14t-75.5 26t-69 40.5t-56.5 59t-45 80.5t-27.5 105.5t-10.5 133.5v17q0 124 41 203.5t125 132.5q-160 96 -160 319v23
q0 101 31.5 177t81 120t122.5 71t143 36t155 9h6q85 0 155 -9t143 -36t122 -71t80.5 -120t31.5 -177v-23q0 -223 -160 -319q84 -53 125 -132.5t41 -203.5v-17zM1022 438v17q0 135 -47.5 195.5t-167.5 60.5h-277q-120 0 -167.5 -60.5t-47.5 -195.5v-17q0 -68 11 -118.5
t35 -83.5t52 -54t71.5 -31.5t84 -14t97.5 -3.5h6q69 0 116 5t95 23t76 50.5t45.5 89t17.5 137.5zM1018 1110v23q0 64 -17.5 110t-46 73t-75.5 42.5t-94 20.5t-113 5h-6q-66 0 -113.5 -5t-94 -20.5t-75.5 -42.5t-46.5 -73t-17.5 -110v-23q0 -120 47 -180t164 -60h277
q117 0 164 60t47 180z" />
    <glyph glyph-name="nine.oldstyle" horiz-adv-x="1292" 
d="M1151 180q0 -144 -29 -248t-94 -179t-176 -111.5t-270 -36.5q-202 0 -416 45v147q240 -30 412 -30q74 0 132 10.5t98.5 27.5t69 47t45 61t25.5 77t12 88.5t3 101.5v72q-72 -21 -175.5 -34t-181.5 -13q-86 0 -152.5 8t-136 33.5t-115.5 69t-75 118.5t-29 178v86
q0 86 19 157.5t50 120.5t75 86.5t89.5 59t97 35.5t94 18.5t85.5 4.5q65 0 116 -4.5t110 -20t102.5 -42t86 -72t69 -108t43 -153.5t16.5 -205v-395zM963 395v191q0 130 -24 216.5t-73 133t-110 64.5t-148 18q-66 0 -123 -18.5t-102 -56t-70.5 -100.5t-25.5 -145v-77
q0 -84 21 -137.5t66.5 -81t100 -37t139.5 -9.5q187 0 349 39z" />
    <glyph glyph-name="comma.superior" horiz-adv-x="516" 
d="M395 862l-147 -291h-139l112 291h174z" />
    <glyph glyph-name="period.superior" horiz-adv-x="413" 
d="M287 680h-160v182h160v-182z" />
    <glyph glyph-name="a.superior" horiz-adv-x="835" 
d="M702 621h-151v49q-102 -66 -238 -66q-221 0 -221 199v22q0 56 17.5 96t45.5 62.5t76 35t94.5 16t116.5 3.5h99v39q0 83 -29 108t-131 25q-79 0 -236 -10v96q28 11 104.5 23t156.5 12q90 0 148 -15t90.5 -48t45 -78t12.5 -113v-456zM545 762v178h-101q-110 0 -152 -20.5
t-42 -92.5v-24q0 -50 28.5 -70t79.5 -20q98 0 187 49z" />
    <glyph glyph-name="b.superior" horiz-adv-x="870" 
d="M133 1585h162v-291q77 39 180 39q154 0 228.5 -77t74.5 -238v-84q0 -175 -86.5 -253.5t-259.5 -78.5q-118 0 -299 19v964zM616 934v84q0 104 -35.5 146t-123.5 42q-104 0 -162 -32v-439q116 -8 139 -8q96 0 139 46.5t43 160.5z" />
    <glyph glyph-name="cent.superior" horiz-adv-x="788" 
d="M690 686q-66 -19 -174 -22v-152h-141v160q-277 52 -277 411v109q0 179 69.5 285t207.5 129v147h141v-141q94 -3 174 -21v-131q-128 13 -205 13q-126 0 -174.5 -65t-48.5 -216v-109q0 -149 47 -213.5t176 -64.5q87 0 205 10v-129z" />
    <glyph glyph-name="d.superior" horiz-adv-x="870" 
d="M737 621h-151v36q-93 -55 -211 -55q-133 0 -208 79t-75 239v86q0 93 23 157.5t67.5 100.5t100 51.5t129.5 15.5q78 0 163 -16v270h162v-964zM578 766v426q-85 16 -150 16q-44 0 -73.5 -7.5t-53.5 -28.5t-35.5 -62t-11.5 -104v-86q0 -101 38.5 -147t123.5 -46q82 0 162 39
z" />
    <glyph glyph-name="e.superior" horiz-adv-x="854" 
d="M762 918h-508v-11q0 -43 5 -69.5t24 -56.5t63.5 -45t114.5 -15q129 0 268 22v-112q-128 -29 -280 -29q-89 0 -154.5 19t-104 49.5t-61 76.5t-30 91t-7.5 102v49q0 167 86.5 254.5t247.5 87.5q172 0 254 -93.5t82 -254.5v-65zM598 1022v10q0 178 -170 178
q-172 0 -172 -178v-10h342z" />
    <glyph glyph-name="l.superior" horiz-adv-x="428" 
d="M295 621h-162v964h162v-964z" />
    <glyph glyph-name="m.superior" horiz-adv-x="1275" 
d="M289 1255q103 76 225 76q119 0 170 -78q120 78 236 78q51 0 89.5 -10t62 -30.5t39 -43t22 -56t8.5 -60t2 -64.5v-446h-164v444q0 35 -1 50.5t-5.5 37.5t-14.5 31.5t-29 16.5t-48 7q-72 0 -166 -51q4 -33 4 -90v-446h-162v446q0 28 -0.5 41.5t-3 33.5t-8 29t-15.5 19.5
t-26 14t-39 3.5q-74 0 -170 -55v-532h-162v692h156v-58z" />
    <glyph glyph-name="o.superior" horiz-adv-x="854" 
d="M762 930q0 -161 -86.5 -244.5t-249.5 -83.5q-162 0 -248 83.5t-86 244.5v76q0 160 86 242.5t248 82.5q164 0 250 -82.5t86 -242.5v-76zM600 930v76q0 104 -41.5 152t-132.5 48t-131.5 -47t-40.5 -153v-76q0 -106 41 -154.5t131 -48.5t132 49t42 154z" />
    <glyph glyph-name="r.superior" horiz-adv-x="634" 
d="M295 621h-162v692h154v-58q97 76 256 76v-133q-68 0 -136 -14.5t-112 -36.5v-526z" />
    <glyph glyph-name="s.superior" horiz-adv-x="747" 
d="M655 805q0 -93 -70 -148t-227 -55q-69 0 -145 10t-109 19v106q184 -18 248 -18q81 0 111.5 20t30.5 62q0 39 -24.5 59t-109.5 51l-55 21q-113 42 -163 89t-50 126q0 98 70.5 141t214.5 43q73 0 149.5 -8t104.5 -18v-103q-9 0 -60 3.5t-100.5 6t-83.5 2.5q-75 0 -104 -13
t-29 -52q0 -31 23 -49.5t94 -44.5l59 -23q129 -48 177 -95.5t48 -131.5z" />
    <glyph glyph-name="t.superior" horiz-adv-x="677" 
d="M586 623q-63 -21 -148 -21q-110 0 -155 45.5t-45 155.5v393l-146 12v105h146v180h161v-180h187v-117h-187v-391q0 -58 11.5 -73t58.5 -15q71 0 117 4v-98z" />
    <glyph glyph-name="hyphen.superior" horiz-adv-x="534" 
d="M416 1028h-299v125h299v-125z" />
    <glyph glyph-name="cent.oldstyle" horiz-adv-x="1030" 
d="M899 1149v-141q-160 12 -272 12q-166 0 -239 -79t-73 -267v-189q0 -187 73 -266.5t239 -79.5q146 0 272 17v-146q-90 -25 -227 -28v-222h-166v226q-375 55 -375 499v189q0 442 375 500v215h168v-211q128 -6 225 -29z" />
    <glyph glyph-name="hyphen.inferior" horiz-adv-x="534" 
d="M416 -2h-299v125h299v-125z" />
    <glyph glyph-name="cent.inferior" horiz-adv-x="788" 
d="M688 -434q-70 -20 -174 -23v-151h-141v159q-277 52 -277 412v109q0 179 69.5 284.5t207.5 128.5v148h141v-141q94 -3 174 -21v-131q-118 12 -205 12q-126 0 -174.5 -64.5t-48.5 -215.5v-109q0 -149 47 -213.5t176 -64.5q87 0 205 10v-129z" />
    <glyph glyph-name="dollar.inferior" horiz-adv-x="854" 
d="M119 -424v127q204 -16 280 -16q95 0 137 29.5t42 88.5q0 43 -27 70t-98 57l-148 64q-108 47 -159.5 102t-51.5 156q0 208 256 235v154h150v-149q138 -6 221 -27v-129q-195 20 -279 20q-178 0 -178 -100q0 -42 26 -69.5t93 -53.5l149 -57q110 -42 164 -102.5t54 -159.5
q0 -113 -64 -179t-186 -83v-160h-150v153q-111 2 -231 29z" />
    <glyph glyph-name="period.inferior" horiz-adv-x="413" 
d="M287 -348h-160v182h160v-182z" />
    <glyph glyph-name="comma.inferior" horiz-adv-x="516" 
d="M395 -166l-147 -291h-139l112 291h174z" />
    <glyph glyph-name="commaaccent" horiz-adv-x="1095" 
d="M674 -139l-182 -291h-168l137 291h213z" />
    <glyph glyph-name="Dotaccent" 
d="M559 1710h-182v246h182v-246z" />
    <glyph glyph-name="Breve" 
d="M813 1954q-25 -318 -346 -318q-322 0 -344 318h137q10 -106 59.5 -150.5t147.5 -44.5q99 0 148 44t61 151h137z" />
    <glyph glyph-name="Ogonek" 
d="M713 -424q-57 -20 -174 -20q-127 0 -193.5 53.5t-66.5 148.5q0 70 53.5 129.5t183.5 141.5h207q-128 -75 -193.5 -126.5t-80.5 -77.5t-15 -58q0 -95 121 -95q7 0 158 11v-107z" />
    <glyph glyph-name="Cedilla" 
d="M616 -139l-278 -291h-188l237 291h229z" />
    <glyph glyph-name="Ring" 
d="M707 1821q0 -113 -65 -168.5t-171 -55.5q-108 0 -175 55.5t-67 168.5t67 168t175 55q106 0 171 -55t65 -168zM584 1821q0 112 -113 112q-115 0 -115 -112q0 -113 115 -113q50 0 81.5 27t31.5 86z" />
    <glyph glyph-name="Tilde" 
d="M881 1884q0 -124 -45.5 -189t-153.5 -65q-102 0 -209 84l-84 68q-36 31 -61 44t-56 13q-41 0 -56 -30.5t-15 -94.5v-69h-133v69q0 254 204 254q57 0 101 -18t98 -60l86 -69q38 -31 64.5 -45.5t56.5 -14.5q42 0 57 29.5t15 93.5v70h131v-70z" />
    <glyph glyph-name="Circumflex" 
d="M866 1638h-184l-215 215l-213 -215h-184l276 316h244z" />
    <glyph glyph-name="Acute" 
d="M801 1954l-307 -316h-185l269 316h223z" />
    <glyph glyph-name="Caron" 
d="M70 1954h184l213 -217l215 217h184l-276 -316h-244z" />
    <glyph glyph-name="Dieresis" 
d="M786 1694h-165v241h165v-241zM319 1935v-241h-167v241h167z" />
    <glyph glyph-name="Grave" 
d="M602 1638h-184l-307 316h223z" />
    <glyph glyph-name="Hungarumlaut" 
d="M1001 1948l-307 -316h-186l270 316h223zM342 1948h225l-307 -316h-186z" />
    <glyph glyph-name="Macron" 
d="M819 1718h-702v144h702v-144z" />
    <glyph glyph-name="commaaccent.cap" horiz-adv-x="1095" 
d="M674 -139l-182 -291h-168l137 291h213z" />
    <glyph glyph-name="h.superior" horiz-adv-x="911" 
d="M133 1585h162v-309q112 55 237 55q130 0 188 -68.5t58 -211.5v-430h-164v428q0 91 -28 124t-97 33q-84 0 -194 -43v-542h-162v964z" />
    <glyph glyph-name="zero.slash" horiz-adv-x="1341" 
d="M1210 612q0 -315 -139 -478t-395 -163q-230 0 -365 129l-67 -100h-183l156 229q-76 152 -76 383v293q0 316 138.5 478.5t396.5 162.5q220 0 356 -121l66 97h182l-152 -224q82 -155 82 -393v-293zM1022 612v293q0 111 -23 205l-583 -858q84 -119 258 -119q348 0 348 479z
M330 612q0 -106 16 -194l582 854q-85 112 -254 112q-344 0 -344 -479v-293z" />
    <glyph glyph-name="perthousand.oldstyle" horiz-adv-x="2455" 
d="M2318 324q0 -170 -72 -258.5t-214 -88.5q-289 0 -289 347v20q0 344 289 344q142 0 214 -87.5t72 -256.5v-20zM2163 324v20q0 119 -34 167t-97 48q-66 0 -100 -48t-34 -167v-20q0 -121 34 -168t100 -47q64 0 97.5 47.5t33.5 167.5zM1628 324q0 -170 -72.5 -258.5
t-214.5 -88.5q-288 0 -288 347v20q0 344 288 344q142 0 214.5 -87.5t72.5 -256.5v-20zM1473 324v20q0 119 -34 167t-98 48q-66 0 -99.5 -47.5t-33.5 -167.5v-20q0 -121 33.5 -168t99.5 -47q64 0 98 47.5t34 167.5zM1343 1163l-747 -1163h-168l750 1163h165zM713 819
q0 -169 -72 -256.5t-215 -87.5q-144 0 -216.5 87.5t-72.5 256.5v21q0 346 289 346q287 0 287 -346v-21zM559 819v21q0 120 -34 167.5t-99 47.5q-64 0 -97.5 -47.5t-33.5 -167.5v-21q0 -119 33.5 -166t97.5 -47q65 0 99 47t34 166z" />
    <glyph glyph-name="zero.taboldstyle" horiz-adv-x="1341" 
d="M1204 532q0 -270 -139 -414.5t-395 -144.5t-394.5 144t-138.5 415v91q0 269 138.5 413t394.5 144t395 -144t139 -413v-91zM1016 532v91q0 395 -346 395q-344 0 -344 -395v-91q0 -397 344 -397q346 0 346 397z" />
    <glyph glyph-name="one.taboldstyle" horiz-adv-x="1341" 
d="M1085 0h-827v156l326 10v801l-328 -119v176l377 143h139v-1001l313 -10v-156z" />
    <glyph glyph-name="two.taboldstyle" horiz-adv-x="1341" 
d="M211 985v150q75 19 199.5 32t218.5 13q285 0 404.5 -81.5t119.5 -248.5q0 -100 -42 -178.5t-143.5 -166.5t-301.5 -218l-183 -119h660v-168h-955v168l367 233q173 110 263 189t118.5 134.5t28.5 125.5q0 91 -80 129.5t-269 38.5q-155 0 -405 -33z" />
    <glyph glyph-name="three.taboldstyle" horiz-adv-x="1341" 
d="M1145 45q0 -123 -35.5 -208.5t-106 -136t-166 -73t-225.5 -22.5q-192 0 -415 53v141q237 -32 413 -32q91 0 151.5 11.5t106.5 41.5t67 85t21 140v51q0 46 -4.5 78.5t-20 66.5t-42.5 54.5t-74.5 33.5t-114.5 13h-440v158h440q67 0 114.5 14t74.5 36t42.5 57t20 68t4.5 79
v26q0 136 -73.5 187t-274.5 51q-158 0 -405 -29v146q50 11 175.5 28t233.5 17q277 0 405 -90t128 -310v-26q0 -109 -44.5 -197t-139.5 -135q184 -93 184 -326v-51z" />
    <glyph glyph-name="four.taboldstyle" horiz-adv-x="1341" 
d="M1239 35h-231v-402h-189v402h-721v192l695 928h215v-956h231v-164zM819 199v702l-532 -702h532z" />
    <glyph glyph-name="five.taboldstyle" horiz-adv-x="1341" 
d="M1157 57q0 -240 -138.5 -346t-416.5 -106q-190 0 -420 49v149q9 -1 58 -7.5t82.5 -10t84.5 -8.5t99 -7.5t92 -2.5q205 0 289 64t84 226v60q0 105 -30.5 162t-111 84.5t-231.5 27.5h-385l66 764h823v-168h-664l-39 -434h207q290 0 420.5 -102.5t130.5 -333.5v-60z" />
    <glyph glyph-name="six.taboldstyle" horiz-adv-x="1341" 
d="M1196 453q0 -86 -19 -157.5t-50 -120.5t-75 -86.5t-89.5 -59t-97 -35.5t-94 -18.5t-85.5 -4.5q-65 0 -116 4.5t-110 20t-102.5 41.5t-86 71.5t-69 108t-43 153.5t-16.5 205v396q0 144 29 248t94.5 179t176.5 111.5t270 36.5q201 0 415 -45v-147q-240 30 -411 30
q-74 0 -132 -10.5t-98.5 -27.5t-69 -47t-45 -61t-25.5 -77t-12 -88.5t-3 -101.5v-72q72 21 175.5 34t180.5 13q86 0 152.5 -8t136 -33.5t115.5 -69t75 -118.5t29 -178v-86zM1008 453v77q0 84 -21 137.5t-66.5 81t-100.5 37t-140 9.5q-186 0 -348 -39v-191q0 -130 24 -216.5
t72.5 -133t109.5 -64.5t148 -18q66 0 123 18.5t102 56t71 100.5t26 145z" />
    <glyph glyph-name="seven.taboldstyle" horiz-adv-x="1341" 
d="M1163 954l-663 -1321h-211l698 1354h-809v168h985v-201z" />
    <glyph glyph-name="eight.taboldstyle" horiz-adv-x="1341" 
d="M1210 438q0 -73 -10.5 -133.5t-27.5 -105.5t-45 -80.5t-56 -59t-69 -40.5t-75.5 -26t-83 -14t-84.5 -6.5t-87 -1.5h-6q-51 0 -87 1.5t-84.5 6.5t-83.5 14t-75.5 26t-69 40.5t-56.5 59t-45 80.5t-27.5 105.5t-10.5 133.5v17q0 124 41 203.5t125 132.5q-160 96 -160 319v23
q0 101 31.5 177t81 120t122.5 71t143 36t155 9h6q85 0 155 -9t143 -36t122 -71t80.5 -120t31.5 -177v-23q0 -223 -160 -319q84 -53 125 -132.5t41 -203.5v-17zM1022 438v17q0 135 -47.5 195.5t-167.5 60.5h-277q-120 0 -167.5 -60.5t-47.5 -195.5v-17q0 -68 11 -118.5
t35 -83.5t52 -54t71.5 -31.5t84 -14t97.5 -3.5h6q69 0 116 5t95 23t76 50.5t45.5 89t17.5 137.5zM1018 1110v23q0 64 -17.5 110t-46 73t-75.5 42.5t-94 20.5t-113 5h-6q-66 0 -113.5 -5t-94 -20.5t-75.5 -42.5t-46.5 -73t-17.5 -110v-23q0 -120 47 -180t164 -60h277
q117 0 164 60t47 180z" />
    <glyph glyph-name="nine.taboldstyle" horiz-adv-x="1341" 
d="M1196 180q0 -144 -29 -248t-94 -179t-176 -111.5t-270 -36.5q-202 0 -416 45v147q240 -30 412 -30q74 0 132 10.5t98.5 27.5t69 47t45 61t25.5 77t12 88.5t3 101.5v72q-72 -21 -175.5 -34t-181.5 -13q-86 0 -152.5 8t-136 33.5t-115.5 69t-75 118.5t-29 178v86
q0 86 19 157.5t50 120.5t75 86.5t89.5 59t97 35.5t94 18.5t85.5 4.5q65 0 116 -4.5t110 -20t102.5 -42t86 -72t69 -108t43 -153.5t16.5 -205v-395zM1008 395v191q0 130 -24 216.5t-73 133t-110 64.5t-148 18q-66 0 -123 -18.5t-102 -56t-70.5 -100.5t-25.5 -145v-77
q0 -84 21 -137.5t66.5 -81t100 -37t139.5 -9.5q187 0 349 39z" />
    <glyph glyph-name="colonmonetary.taboldstyle" horiz-adv-x="1230" 
d="M997 1149v-152q-144 19 -268 19q-165 0 -237 -77.5t-72 -266.5v-185q0 -188 72 -266t237 -78q142 0 268 17v-150q-40 -12 -106 -18v-205h-150v190h-26q-32 0 -111 9v-199h-149v246q-222 112 -222 454v185q0 338 222 454v234h149v-189q57 11 111 11h26v178h150v-193
q43 -4 106 -18z" />
    <glyph glyph-name="Euro.taboldstyle" horiz-adv-x="1257" 
d="M786 1018q-72 0 -119.5 -9.5t-86.5 -35.5t-60 -75t-28 -126h520l-39 -133h-486v-141h447l-37 -131h-405q12 -133 84 -184.5t217 -51.5q148 0 272 14v-145q-44 -10 -127.5 -19.5t-155.5 -9.5q-87 0 -153.5 11.5t-124 38.5t-96.5 72t-64.5 113.5t-34.5 160.5h-106v131h102
v141h-102v133h106q10 123 45 204.5t97.5 126t139.5 62t187 17.5q75 0 159 -9.5t128 -19.5v-149q-191 14 -279 14z" />
    <glyph glyph-name="florin.taboldstyle" horiz-adv-x="1253" 
d="M1038 1159l-14 -131q-98 8 -129 8q-58 0 -85.5 -23t-39.5 -106l-33 -223h264l-20 -139h-264l-53 -414q-20 -150 -86 -210t-191 -60q-93 0 -174 18l18 135q118 -8 138 -8q58 0 80.5 30t37.5 109l52 400h-236l19 139h239l33 238q21 147 89.5 202.5t190.5 55.5q70 0 164 -21
z" />
    <glyph glyph-name="numbersign.taboldstyle" horiz-adv-x="1357" 
d="M1143 295h-219l-33 -295h-156l33 295h-252l-33 -295h-153l32 295h-149v141h164l31 273h-195v141h211l35 309h153l-34 -309h249l37 309h154l-35 -309h160v-141h-176l-29 -273h205v-141zM813 709h-252l-31 -273h254z" />
    <glyph glyph-name="sterling.taboldstyle" horiz-adv-x="1255" 
d="M1032 1149v-154q-190 21 -280 21q-137 0 -182.5 -46t-45.5 -182v-112h375v-154h-375v-200q0 -95 -47 -160h555v-162h-764v137q76 76 76 185v200h-123v154h123v112q0 208 85 300t298 92q136 0 305 -31z" />
    <glyph glyph-name="yen.taboldstyle" horiz-adv-x="1271" 
d="M725 0h-180v340h-404v133h394l-84 154h-310v133h242l-207 399h201l178 -354q36 -72 78 -176h4q45 109 80 176l180 354h195l-207 -399h245v-133h-311l-84 -154h395v-133h-405v-340z" />
    <glyph glyph-name="dollar.taboldstyle" horiz-adv-x="1236" 
d="M254 14v140q6 0 75.5 -5.5t134.5 -8.5t134 -3q229 0 229 158q0 64 -36.5 104t-143.5 86l-168 74q-133 59 -193.5 135t-60.5 197q0 120 78 192t234 91v186h163v-180q175 -9 281 -37v-142q-9 1 -71.5 7.5t-132 11t-138.5 4.5q-113 0 -171 -28.5t-58 -102.5q0 -62 31.5 -102
t125.5 -80l170 -74q149 -64 212 -137.5t63 -202.5q0 -127 -79 -208t-233 -101v-199h-163v191q-173 6 -283 34z" />
    <glyph glyph-name="cent.taboldstyle" horiz-adv-x="1230" 
d="M999 1149v-139q-167 10 -272 10q-166 0 -238.5 -78.5t-72.5 -267.5v-189q0 -187 72.5 -266.5t238.5 -79.5q146 0 272 17v-146q-90 -25 -227 -28v-222h-166v226q-375 55 -375 499v189q0 442 375 500v215h168v-211q128 -6 225 -29z" />
    <glyph glyph-name="zero.denominator" 
d="M834 397q0 -204 -95.5 -309.5t-273.5 -105.5t-272.5 105.5t-94.5 309.5v119q0 205 94.5 310.5t272.5 105.5q179 0 274 -105.5t95 -310.5v-119zM666 397v119q0 81 -15 137.5t-43.5 87t-63 43.5t-79.5 13q-94 0 -146.5 -62.5t-52.5 -218.5v-119q0 -155 52.5 -216.5
t146.5 -61.5q45 0 79.5 13t63 43t43.5 86t15 136z" />
    <glyph glyph-name="one.denominator" horiz-adv-x="880" 
d="M750 0h-594v121l213 6v635l-215 -68v137l262 89h121v-793l213 -6v-121z" />
    <glyph glyph-name="two.denominator" horiz-adv-x="911" 
d="M139 791v110q36 9 129.5 20t175.5 11q173 0 256.5 -54.5t83.5 -172.5q0 -94 -56.5 -158.5t-203.5 -136.5q-149 -73 -191 -121.5t-42 -145.5v-12h481v-131h-647v115q0 105 30.5 174.5t91.5 118t177 104.5q66 32 103.5 54t57.5 44t25.5 40.5t5.5 49.5q0 58 -43.5 82.5
t-146.5 24.5q-83 0 -287 -16z" />
    <glyph glyph-name="three.denominator" horiz-adv-x="905" 
d="M420 -18q-78 0 -169 11t-120 19v113q204 -16 277 -16q108 0 155 30.5t47 118.5q0 40 -5 65t-20.5 46.5t-47.5 31t-84 9.5h-279v122h281q50 0 82.5 10.5t47.5 32.5t20 45.5t5 59.5q0 70 -42.5 97.5t-159.5 27.5q-60 0 -277 -17v113q30 8 120.5 19.5t168.5 11.5
q183 0 270.5 -55.5t87.5 -188.5q0 -160 -116 -217q116 -53 116 -217q0 -145 -89 -208.5t-269 -63.5z" />
    <glyph glyph-name="four.denominator" horiz-adv-x="948" 
d="M719 0h-168v225h-461v135l469 553h160v-563h143v-125h-143v-225zM557 350v371l-313 -371h313z" />
    <glyph glyph-name="five.denominator" horiz-adv-x="911" 
d="M754 784h-432l-23 -227h125q195 0 279.5 -60t84.5 -206q0 -71 -22.5 -125.5t-60 -88.5t-90.5 -56t-108 -30.5t-120 -8.5q-119 0 -262 30v115q181 -21 272 -21q124 0 172.5 40t48.5 145q0 81 -44.5 111t-172.5 30h-262l45 481h570v-129z" />
    <glyph glyph-name="six.denominator" horiz-adv-x="962" 
d="M786 901v-117q-161 19 -280 19q-60 0 -101.5 -10.5t-65.5 -27.5t-37 -47t-17 -60.5t-4 -77.5v-31q96 26 211 26q59 0 104 -5t92 -20.5t77 -43t49.5 -75t19.5 -112.5v-38q0 -71 -23 -125.5t-58 -86.5t-83.5 -52.5t-93.5 -27.5t-93 -7q-70 0 -122.5 9t-100.5 34.5t-78.5 68
t-48.5 111t-18 162.5v200q0 93 18.5 158t61.5 113t117 71t182 23q159 0 292 -31zM666 281v34q0 90 -45 119t-142 29q-103 0 -198 -23v-92q0 -75 14 -124.5t42.5 -75t62.5 -35t83 -9.5q79 0 131 43t52 134z" />
    <glyph glyph-name="seven.denominator" horiz-adv-x="903" 
d="M133 784v129h660v-149l-424 -764h-183l443 784h-496z" />
    <glyph glyph-name="eight.denominator" horiz-adv-x="987" 
d="M854 264q0 -56 -11.5 -99.5t-29 -73t-47.5 -50t-58.5 -32t-70.5 -18t-75.5 -8t-80.5 -1.5q-46 0 -78.5 1.5t-74 8t-70 18.5t-58 33.5t-47 52t-29 75.5t-11.5 103q0 136 104 199q-100 65 -100 207q0 63 21 110t54 73.5t83.5 42.5t99 21t110.5 5q61 0 108.5 -5t98 -21
t83.5 -42.5t54 -73.5t21 -110q0 -142 -100 -207q104 -63 104 -209zM688 266q-2 81 -28.5 115.5t-94.5 34.5h-164q-69 0 -95.5 -35t-26.5 -115q0 -53 14 -87t44 -50.5t63 -21.5t85 -5q51 0 83 5t62 21.5t44 50.5t14 87zM684 676q0 81 -50.5 108t-152.5 27q-48 0 -80.5 -5
t-61.5 -18.5t-43.5 -41.5t-14.5 -70q0 -73 26.5 -108.5t93.5 -35.5h164q67 0 93 35.5t26 108.5z" />
    <glyph glyph-name="nine.denominator" horiz-adv-x="962" 
d="M158 12v115q212 -18 282 -18q74 0 120.5 15t69 47.5t29.5 68.5t7 94v33q-100 -27 -211 -27q-59 0 -104 5t-92 20.5t-77 43t-49.5 75t-19.5 112.5v39q0 71 22.5 125t57.5 86t83.5 52t93.5 27t95 7q87 0 149 -15.5t113.5 -55.5t77.5 -118t26 -194v-201q0 -92 -18.5 -157.5
t-61 -113.5t-116.5 -71.5t-182 -23.5q-134 0 -295 30zM666 473v94q0 75 -14 124.5t-42 75t-62.5 35t-84.5 9.5q-79 0 -130.5 -42.5t-51.5 -133.5v-35q0 -90 44 -118.5t140 -28.5q109 0 201 20z" />
    <glyph glyph-name="comma.denominator" horiz-adv-x="516" 
d="M395 182l-147 -291h-139l112 291h174z" />
    <glyph glyph-name="period.denominator" horiz-adv-x="413" 
d="M287 0h-160v182h160v-182z" />
    <glyph glyph-name="cent.denominator" horiz-adv-x="788" 
d="M483 788q-126 0 -174.5 -64.5t-48.5 -215.5v-109q0 -149 47 -213.5t176 -64.5q87 0 205 10v-129q-66 -19 -174 -22v-152h-141v160q-277 52 -277 411v109q0 179 69.5 285t207.5 129v147h141v-141q94 -3 174 -21v-131q-118 12 -205 12z" />
    <glyph glyph-name="dollar.denominator" horiz-adv-x="854" 
d="M119 10v127q204 -16 280 -16q95 0 137 30t42 89q0 43 -27 70t-98 57l-148 63q-108 47 -159.5 102t-51.5 156q0 209 256 236v153h150v-149q138 -6 221 -27v-129q-205 21 -279 21q-178 0 -178 -101q0 -42 26 -69.5t93 -53.5l149 -57q110 -42 164 -102.5t54 -159.5
q0 -113 -64 -179t-186 -83v-160h-150v154q-116 2 -231 28z" />
    <glyph glyph-name="hyphen.denominator" horiz-adv-x="534" 
d="M416 346h-299v125h299v-125z" />
    <glyph glyph-name="parenleft.denominator" horiz-adv-x="577" 
d="M481 -160h-162q-72 85 -127 224t-55 313q0 178 55 320t127 229h162q-174 -243 -174 -549q0 -294 174 -537z" />
    <glyph glyph-name="parenright.denominator" horiz-adv-x="577" 
d="M440 377q0 -174 -55 -313t-127 -224h-162q174 238 174 537v8q0 303 -174 541h162q71 -86 126.5 -227t55.5 -314v-8z" />
    <glyph glyph-name="zero.numerator" 
d="M834 1012q0 -204 -95.5 -310t-273.5 -106t-272.5 106t-94.5 310v118q0 205 94.5 310.5t272.5 105.5q179 0 274 -105.5t95 -310.5v-118zM666 1012v118q0 81 -15 137.5t-43.5 87t-63 43.5t-79.5 13q-94 0 -146.5 -62.5t-52.5 -218.5v-118q0 -155 52.5 -217t146.5 -62
t147.5 62t53.5 217z" />
    <glyph glyph-name="one.numerator" horiz-adv-x="880" 
d="M750 614h-594v121l213 6v635l-215 -67v137l262 88h121v-793l213 -6v-121z" />
    <glyph glyph-name="two.numerator" horiz-adv-x="911" 
d="M139 1405v111q35 8 128.5 19t176.5 11q173 0 256.5 -54.5t83.5 -172.5q0 -94 -56.5 -158.5t-203.5 -136.5q-149 -73 -191 -121t-42 -145v-13h481v-131h-647v115q0 105 30.5 174.5t91.5 118t177 104.5q87 42 127.5 71t52.5 53.5t12 64.5q0 58 -43.5 82t-146.5 24
q-83 0 -287 -16z" />
    <glyph glyph-name="three.numerator" horiz-adv-x="905" 
d="M420 596q-78 0 -168.5 11.5t-120.5 19.5v112q204 -16 277 -16q108 0 155 30.5t47 118.5q0 40 -5 65t-20.5 46.5t-47.5 31t-84 9.5h-279v123h281q50 0 82.5 10.5t47.5 32.5t20 45t5 59q0 70 -42.5 97.5t-159.5 27.5q-73 0 -277 -16v113q29 8 120 19t169 11
q183 0 270.5 -55.5t87.5 -187.5q0 -161 -116 -218q116 -53 116 -217q0 -145 -89 -208.5t-269 -63.5z" />
    <glyph glyph-name="four.numerator" horiz-adv-x="948" 
d="M719 614h-168v226h-461v135l469 553h160v-563h143v-125h-143v-226zM557 965v370l-313 -370h313z" />
    <glyph glyph-name="five.numerator" horiz-adv-x="911" 
d="M754 1399h-432l-23 -228h125q195 0 279.5 -60t84.5 -206q0 -71 -22.5 -125.5t-60 -88.5t-90.5 -56t-108 -30.5t-120 -8.5q-115 0 -262 31v114q172 -20 272 -20q124 0 172.5 39.5t48.5 144.5q0 81 -44.5 111.5t-172.5 30.5h-262l45 481h570v-129z" />
    <glyph glyph-name="six.numerator" horiz-adv-x="962" 
d="M786 1516v-117q-153 18 -280 18q-60 0 -101.5 -10.5t-65.5 -27.5t-37 -47t-17 -60.5t-4 -77.5v-31q100 27 211 27q59 0 104 -5t92 -20.5t77 -43t49.5 -75t19.5 -112.5v-39q0 -71 -23 -125.5t-58 -86.5t-83.5 -52.5t-93.5 -27.5t-93 -7q-70 0 -122.5 9t-100.5 34.5
t-78.5 68t-48.5 111t-18 162.5v201q0 93 18.5 158t61.5 112.5t117 70.5t182 23q163 0 292 -30zM666 895v35q0 90 -45 118.5t-142 28.5q-108 0 -198 -22v-92q0 -75 14 -124.5t42.5 -75t62.5 -35t83 -9.5q80 0 131.5 42.5t51.5 133.5z" />
    <glyph glyph-name="seven.numerator" horiz-adv-x="903" 
d="M133 1399v129h660v-150l-424 -764h-183l443 785h-496z" />
    <glyph glyph-name="eight.numerator" horiz-adv-x="987" 
d="M854 879q0 -56 -11.5 -99.5t-29 -73t-47.5 -50.5t-59 -32.5t-70.5 -18t-75 -8t-80.5 -1.5q-46 0 -79 1.5t-74 8.5t-69.5 18.5t-58 33.5t-47 52.5t-29 75.5t-11.5 103q0 135 104 198q-100 65 -100 207q0 63 21 110t54 73.5t83.5 42.5t99 21t110.5 5q61 0 108.5 -5t98 -21
t83.5 -42.5t54 -73.5t21 -110q0 -142 -100 -207q53 -32 78.5 -81.5t25.5 -126.5zM688 881q-2 81 -28 115t-95 34h-164q-69 0 -95.5 -34.5t-26.5 -114.5q0 -53 14 -87t44 -50.5t63 -21.5t85 -5q51 0 83 5t62 21.5t44 50.5t14 87zM684 1290q0 81 -50.5 108t-152.5 27
q-48 0 -80.5 -5t-61.5 -18.5t-43.5 -41.5t-14.5 -70q0 -73 26.5 -108t93.5 -35h164q67 0 93 35t26 108z" />
    <glyph glyph-name="nine.numerator" horiz-adv-x="962" 
d="M158 627v114q212 -18 282 -18q74 0 120.5 15t69 47.5t29.5 68.5t7 94v33q-100 -27 -211 -27q-59 0 -104 5t-92 20.5t-77 43t-49.5 75t-19.5 112.5v39q0 71 22.5 125t57.5 86t83.5 52t93.5 27t95 7q87 0 149 -15.5t113.5 -55.5t77.5 -118t26 -194v-200q0 -92 -18.5 -157.5
t-61 -114t-116.5 -72t-182 -23.5q-128 0 -295 31zM666 1087v95q0 75 -14 124t-42.5 74.5t-62.5 35t-84 9.5q-79 0 -130.5 -42.5t-51.5 -133.5v-35q0 -90 44 -118.5t140 -28.5q109 0 201 20z" />
    <glyph glyph-name="comma.numerator" horiz-adv-x="516" 
d="M395 803l-147 -291h-139l112 291h174z" />
    <glyph glyph-name="period.numerator" horiz-adv-x="413" 
d="M287 621h-160v182h160v-182z" />
    <glyph glyph-name="cent.numerator" horiz-adv-x="788" 
d="M688 621q-70 -20 -174 -23v-152h-141v160q-277 52 -277 412v108q0 179 69.5 285t207.5 129v148h141v-142q99 -3 174 -20v-131q-118 12 -205 12q-126 0 -174.5 -65t-48.5 -216v-108q0 -149 47 -214t176 -65q76 0 205 11v-129z" />
    <glyph glyph-name="dollar.numerator" horiz-adv-x="854" 
d="M119 629v127q10 -1 47 -4.5t66.5 -6t76.5 -4.5t90 -2q95 0 137 30t42 89q0 43 -27 70t-98 57l-148 64q-108 47 -159.5 102t-51.5 156q0 208 256 235v154h150v-150q143 -6 221 -26v-129q-195 20 -279 20q-178 0 -178 -100q0 -42 26 -69.5t93 -53.5l149 -58
q110 -42 164 -102.5t54 -159.5q0 -113 -64 -179t-186 -83v-160h-150v154q-111 2 -231 29z" />
    <glyph glyph-name="hyphen.numerator" horiz-adv-x="534" 
d="M416 969h-299v125h299v-125z" />
    <glyph glyph-name="parenleft.numerator" horiz-adv-x="577" 
d="M481 461h-162q-72 85 -127 223t-55 311q0 179 55 321.5t127 229.5h162q-82 -117 -128 -248t-46 -303q0 -291 174 -534z" />
    <glyph glyph-name="parenright.numerator" horiz-adv-x="577" 
d="M440 995q0 -173 -55 -311t-127 -223h-162q174 238 174 534q0 173 -45.5 304.5t-128.5 246.5h162q72 -87 127 -229.5t55 -321.5z" />
    <glyph glyph-name="parenleft.cap" horiz-adv-x="610" 
d="M530 0h-161q-93 115 -168.5 323t-75.5 435q0 233 75 438.5t169 325.5h161q-235 -334 -235 -764q0 -218 63 -411.5t172 -346.5z" />
    <glyph glyph-name="parenright.cap" horiz-adv-x="610" 
d="M516 758q0 -227 -75.5 -435t-168.5 -323h-161q109 153 172 346.5t63 411.5q0 430 -235 764h161q94 -120 169 -325.5t75 -438.5z" />
    <glyph glyph-name="bracketleft.cap" horiz-adv-x="671" 
d="M563 0h-379v1522h379v-146h-209v-1233h209v-143z" />
    <glyph glyph-name="bracketright.cap" horiz-adv-x="671" 
d="M485 0h-379v143h211v1233h-211v146h379v-1522z" />
    <glyph glyph-name="braceleft.cap" horiz-adv-x="700" 
d="M600 0h-104q-76 0 -130.5 12t-87 33t-51.5 55.5t-25.5 71.5t-6.5 90v223q0 90 -21 129.5t-86 85.5v119q65 46 86 85.5t21 129.5v223q0 69 11 113.5t42.5 81t92 53.5t155.5 17h104v-150h-104q-86 0 -107.5 -20.5t-21.5 -94.5v-223q0 -105 -27 -166.5t-92 -107.5
q65 -49 93 -110.5t28 -164.5v-223q0 -52 7.5 -73.5t33.5 -31.5t86 -10h104v-147z" />
    <glyph glyph-name="braceright.cap" horiz-adv-x="700" 
d="M600 700q-65 -46 -85.5 -85.5t-20.5 -129.5v-223q0 -53 -6.5 -90t-25.5 -71.5t-51.5 -55.5t-87 -33t-130.5 -12h-105v147h105q85 0 105.5 20t20.5 95v223q0 103 28 164.5t93 110.5q-65 46 -91.5 107.5t-26.5 166.5v223q0 74 -21.5 94.5t-107.5 20.5h-105v150h105
q95 0 155.5 -17t92 -53.5t42.5 -81t11 -113.5v-223q0 -90 20.5 -129.5t85.5 -85.5v-119z" />
    <glyph glyph-name="exclamdown.cap" horiz-adv-x="514" 
d="M164 1522h186v-277h-186v277zM338 1126l18 -1189h-198l20 1189h160z" />
    <glyph glyph-name="questiondown.cap" horiz-adv-x="966" 
d="M567 -90q-211 0 -319.5 79t-108.5 255v16q0 101 46.5 190t166.5 209q70 71 108.5 117t58 90.5t24 78.5t4.5 95v86h180v-86q0 -72 -6.5 -120t-27 -103t-61.5 -109t-108 -120q-116 -113 -155 -180.5t-39 -147.5v-16q0 -99 61 -135.5t193 -36.5q99 0 321 24v-139
q-174 -47 -338 -47zM727 1239h-184v283h184v-283z" />
    <glyph glyph-name="guillemotleft.cap" horiz-adv-x="1384" 
d="M1268 371h-217l-334 426l334 422h217l-324 -422zM342 797l324 -426h-217l-334 426l334 422h217z" />
    <glyph glyph-name="guillemotright.cap" horiz-adv-x="1384" 
d="M332 371h-217l323 426l-323 422h217l334 -422zM717 371l323 426l-323 422h217l334 -422l-334 -426h-217z" />
    <glyph glyph-name="guilsinglleft.cap" horiz-adv-x="782" 
d="M664 371h-213l-334 426l334 422h213l-326 -422z" />
    <glyph glyph-name="guilsinglright.cap" horiz-adv-x="782" 
d="M664 797l-334 -426h-213l325 426l-325 422h213z" />
    <glyph glyph-name="hyphen.cap" horiz-adv-x="811" 
d="M657 727h-505v154h505v-154z" />
    <glyph glyph-name="endash.cap" horiz-adv-x="1054" 
d="M901 727h-749v154h749v-154z" />
    <glyph glyph-name="emdash.cap" horiz-adv-x="1429" 
d="M1278 727h-1126v154h1126v-154z" />
    <glyph glyph-name="periodcentered.cap" horiz-adv-x="516" 
d="M350 666h-186v282h186v-282z" />
    <glyph glyph-name="at.cap" horiz-adv-x="1708" 
d="M1595 954q0 -116 -22.5 -210.5t-75 -176.5t-135 -137.5t-207.5 -87t-287 -31.5q-213 0 -310 75t-97 232q0 138 18.5 240t51 167t83.5 104t109.5 54t136.5 15q173 0 334 -41l-68 -674q324 73 324 473q0 236 -128.5 350.5t-395.5 114.5q-190 0 -318 -58t-211 -191
t-121 -353q-24 -144 -24 -282q0 -100 24 -175.5t80 -137.5t160 -95t252 -33q73 0 162 4.5t138.5 8.5t64.5 6v-103q-195 -30 -363 -30q-177 0 -306 40t-205 115.5t-112 174.5t-36 225q0 153 24 297q61 375 252.5 542.5t538.5 167.5q335 0 502 -152t167 -438zM1006 1038
q-59 9 -144 9q-47 0 -78 -7.5t-62.5 -33t-49.5 -71t-29.5 -125t-11.5 -192.5q0 -95 52 -130t181 -35q53 0 86 2z" />
    <glyph glyph-name="T_h" horiz-adv-x="2238" 
d="M2085 0h-184v713q0 163 -46.5 222.5t-166.5 59.5q-163 0 -328 -80v-915h-184v1354h-457v-1354h-189v1354h-469v168h1299v-459q179 92 364 92t273 -107t88 -329v-719z" />
    <glyph glyph-name="A.alt" horiz-adv-x="1357" 
d="M51 0l445 1360l-119 10v152h432l498 -1522h-201l-158 498h-545l-161 -498h-191zM891 670l-143 444q-38 116 -62 250h-20q-31 -157 -62 -250l-145 -444h432z" />
    <glyph glyph-name="B.alt" horiz-adv-x="1308" 
d="M174 0v1354l-111 14v154h512q99 0 174.5 -6t148.5 -21.5t123.5 -43.5t89.5 -70.5t58 -105.5t19 -145v-18q0 -104 -52 -194.5t-155 -133.5q108 -41 161.5 -129.5t53.5 -203.5v-23q0 -77 -16.5 -139t-45.5 -106.5t-74 -77t-96 -52.5t-118 -32t-133 -16.5t-148 -4.5h-391z
M1006 428v23q0 58 -16 102.5t-53 81t-104.5 55.5t-164.5 19h-306v-543h203q92 0 155 5.5t121 21.5t91.5 44.5t53.5 76t20 114.5zM997 1112v18q0 45 -10 79t-26 57.5t-46.5 40t-60.5 26t-79 14t-91.5 6t-108.5 1.5h-213v-484h306q96 0 162 17t102 51t50.5 75.5t14.5 98.5z
" />
    <glyph glyph-name="C.alt" horiz-adv-x="1140" 
d="M1079 160v-154q-213 -35 -352 -35q-91 0 -166.5 12.5t-147 40.5t-124.5 78.5t-93.5 122.5t-61.5 175.5t-21 234.5v252q0 113 16 205t44.5 159.5t72 119t93.5 84.5t114 53.5t130 29t144 8.5q174 0 352 -35v-299h-147l-21 160q-177 6 -184 6q-111 0 -188 -24t-132 -80.5
t-80.5 -151.5t-25.5 -235v-252q0 -140 25.5 -235.5t80.5 -152.5t132 -81.5t188 -24.5q129 0 352 19z" />
    <glyph glyph-name="D.alt" horiz-adv-x="1380" 
d="M174 0v1354l-111 16v152h537q174 0 303.5 -44.5t208.5 -129t117.5 -199.5t38.5 -262v-248q0 -149 -36 -263.5t-114 -200.5t-208 -130.5t-310 -44.5h-426zM1077 639v248q0 253 -120 360t-373 107h-222v-1188h222q252 0 372.5 109.5t120.5 363.5z" />
    <glyph glyph-name="E.alt" horiz-adv-x="1187" 
d="M1075 1354h-713v-480h670v-169h-670v-539h713v-166h-901v1360l-111 10v152h1012v-168z" />
    <glyph glyph-name="F.alt" horiz-adv-x="1167" 
d="M174 0v1360l-111 10v152h1012v-168h-713v-480h670v-169h-670v-705h-188z" />
    <glyph glyph-name="G.alt" horiz-adv-x="1298" 
d="M1165 14q-219 -43 -448 -43q-106 0 -193 19.5t-165 66.5t-131 120.5t-84 187.5t-31 262v268q0 155 35 272.5t91 188t137.5 114.5t163 60t179.5 16q222 0 446 -39v-295h-147l-23 156q-165 10 -250 10q-84 0 -145.5 -10t-120.5 -40.5t-95.5 -82.5t-58.5 -140t-22 -210v-268
q0 -143 28 -238.5t86.5 -149t135.5 -75t188 -21.5q129 0 236 7v477l-217 16v148h405v-777z" />
    <glyph glyph-name="H.alt" horiz-adv-x="1486" 
d="M1313 0h-189v719h-762v-719h-188v1360l-111 10v152h299v-633h762v633h189v-1522z" />
    <glyph glyph-name="I.alt" horiz-adv-x="536" 
d="M473 0h-410v150l111 10v1200l-111 10v152h410v-152l-111 -10v-1200l111 -10v-150z" />
    <glyph glyph-name="J.alt" horiz-adv-x="534" 
d="M471 1370l-111 -10v-1483q0 -173 -69 -249.5t-244 -76.5q-98 0 -151 17v141h139q48 0 75.5 8t41.5 30.5t18 50.5t4 79v1483l-111 10v152h408v-152z" />
    <glyph glyph-name="K.alt" horiz-adv-x="1298" 
d="M1268 0h-258l-637 733v-733h-189v1360l-110 10v152h299v-715l653 715h242l-686 -748z" />
    <glyph glyph-name="M.alt" horiz-adv-x="1665" 
d="M1491 0h-186v989q0 110 10 283h-4q-14 -35 -109 -234l-256 -546h-231l-250 546q-35 78 -109 234h-4q8 -208 8 -283v-989h-186v1360l-111 10v152h359l315 -686q14 -29 29 -64l33 -77t28 -64h4q4 10 95 209l319 682h246v-1522z" />
    <glyph glyph-name="N.alt" horiz-adv-x="1445" 
d="M1272 0h-268l-537 1092q-102 209 -123 258h-4q10 -167 10 -318v-1032h-176v1360l-111 10v152h381l531 -1063q58 -117 123 -260h4q-10 151 -10 333v990h180v-1522z" />
    <glyph glyph-name="P.alt" horiz-adv-x="1239" 
d="M362 0h-188v1360l-111 10v152h480q113 0 199.5 -10t169.5 -39t136.5 -78t86 -130t32.5 -192v-26q0 -81 -16.5 -146t-45.5 -112t-73.5 -82t-95.5 -56.5t-116.5 -35t-131 -18.5t-145.5 -5h-181v-592zM362 758h181q93 0 157 6.5t120 25t88.5 50.5t50.5 83t18 124v26
q-1 89 -27 145.5t-85 86t-132 39.5t-190 10h-181v-596z" />
    <glyph glyph-name="Q.alt" horiz-adv-x="1400" 
d="M1288 651q0 -297 -128.5 -471t-366.5 -203v-344h-185v344q-240 29 -367.5 202t-127.5 472v217q0 326 151.5 502t435.5 176t436 -176t152 -502v-217zM1098 651v217q0 267 -106 388.5t-292 121.5t-291.5 -121.5t-105.5 -388.5v-217q0 -267 105.5 -389.5t291.5 -122.5
t292 122.5t106 389.5z" />
    <glyph glyph-name="R.alt" horiz-adv-x="1304" 
d="M1264 0h-224l-358 594q-41 -2 -143 -2h-177v-592h-188v1360l-111 10v152h469q80 0 146.5 -5t133 -18.5t118.5 -35t97.5 -56.5t75.5 -81.5t47 -111t17 -143.5v-14q0 -175 -72.5 -275.5t-211.5 -148.5zM977 1057v14q0 71 -18.5 121.5t-52 82t-91 49t-123 24t-160.5 6.5
h-170v-596h177q117 0 194.5 13t134.5 46.5t83 92t26 147.5z" />
    <glyph glyph-name="S.alt" horiz-adv-x="1198" 
d="M147 14v150q242 -29 435 -29q158 0 234.5 59.5t76.5 190.5q0 94 -44.5 152.5t-162.5 111.5l-260 117q-160 71 -236.5 165.5t-76.5 246.5q0 187 123 277.5t374 90.5q122 0 245 -14t175 -27v-293h-143l-27 162q-104 8 -244 8q-159 0 -236 -45t-77 -159q0 -90 43 -145.5
t162 -108.5l262 -115q164 -72 239.5 -170t75.5 -254q0 -200 -127 -307t-376 -107q-123 0 -252.5 14.5t-182.5 28.5z" />
    <glyph glyph-name="U.alt" horiz-adv-x="1431" 
d="M1268 633q0 -330 -138.5 -496t-412.5 -166q-553 0 -553 662v729l-111 10v150h299v-869q0 -281 79.5 -396.5t285.5 -115.5q204 0 284 116t80 396v869h187v-889z" />
    <glyph glyph-name="Z.alt" horiz-adv-x="1277" 
d="M1165 166v-166h-1052v209l821 1145h-627l-18 -142h-146v310h994v-207l-820 -1149h848z" />
    <glyph glyph-name="a.alt" horiz-adv-x="1116" 
d="M973 0h-176v76q-152 -105 -359 -105q-336 0 -336 320v41q0 87 24.5 150t66.5 101t110.5 60t142 29.5t175.5 7.5h167v82q0 77 -9 120t-39 71t-79 37t-137 9q-86 0 -188 -6l-19 -119h-141v232q39 14 144 31.5t219 17.5q93 0 162.5 -11t117 -34.5t78 -54.5t47.5 -78
t23 -96.5t6 -118.5v-762zM788 205v336h-167q-96 0 -153.5 -7.5t-101.5 -29.5t-61.5 -63.5t-17.5 -108.5v-56q0 -90 48.5 -125.5t139.5 -35.5q89 0 178 29.5t135 60.5z" />
    <glyph glyph-name="b.alt" horiz-adv-x="1183" 
d="M1071 487q0 -267 -123.5 -391.5t-376.5 -124.5q-140 0 -413 29v1425l-111 11v149h295v-502q138 76 303 76q218 0 322 -117t104 -362v-193zM887 489v193q0 171 -60 243t-204 72q-62 0 -143 -13.5t-138 -45.5v-793q127 -10 233 -10q163 0 237.5 79t74.5 275z" />
    <glyph glyph-name="c.alt" horiz-adv-x="976" 
d="M885 10q-127 -39 -322 -39q-226 0 -338 131t-112 377v170q0 247 111.5 376.5t338.5 129.5q104 0 194 -12.5t128 -26.5v-242h-144l-18 117q-62 6 -133 6q-57 0 -100 -9t-80.5 -32.5t-61.5 -62.5t-37.5 -100t-13.5 -144v-170q0 -103 20 -173t60 -108t90.5 -53.5
t122.5 -15.5q90 0 295 21v-140z" />
    <glyph glyph-name="d.alt" horiz-adv-x="1183" 
d="M1026 0h-178v57q-145 -86 -316 -86q-203 0 -311 119t-108 363v194q0 99 16 177.5t46.5 133.5t71.5 94t94.5 61t111 32t125.5 10q119 0 264 -29v297l-125 11v151h309v-1585zM842 199v774q-149 26 -252 26q-59 0 -101 -7.5t-80.5 -29.5t-61.5 -61t-36.5 -102t-13.5 -152
v-194q0 -168 64.5 -246t205.5 -78q132 0 275 70z" />
    <glyph glyph-name="g.alt" horiz-adv-x="1159" 
d="M1073 -94q0 -175 -117.5 -269t-380.5 -94t-374 91.5t-111 271.5q0 66 28 131.5t77 112.5q-93 63 -93 163q0 67 29.5 115.5t87.5 91.5q-82 91 -82 258q0 67 11.5 120.5t42 103t80.5 82t130.5 52t188.5 19.5h483v-125l-115 -18q72 -97 72 -234q0 -182 -106.5 -278.5
t-339.5 -96.5q-163 0 -256 41q-64 -51 -64 -112q0 -40 24.5 -57t78.5 -17h206q69 0 120.5 -3t106 -12t93.5 -25t75 -42.5t57.5 -63t34.5 -88.5t13 -118zM891 -92q0 123 -63.5 162t-254.5 39h-229q-72 -65 -72 -201q0 -57 10.5 -93t41.5 -66t92.5 -43t158.5 -13
q123 0 193.5 25.5t96.5 70t26 119.5zM858 778q0 59 -10.5 98t-39.5 71.5t-84 47.5t-140 15q-70 0 -119.5 -11.5t-79 -30t-46 -49.5t-21.5 -63t-5 -78q0 -57 10 -95.5t38.5 -70.5t83.5 -47.5t139 -15.5t139.5 15.5t84.5 47.5t39.5 70.5t10.5 95.5z" />
    <glyph glyph-name="h.alt" horiz-adv-x="1220" 
d="M1067 0h-184v713q0 163 -47 222.5t-166 59.5q-165 0 -330 -80v-915h-182v1423l-111 11v151h293v-522q179 92 367 92q184 0 272 -107t88 -329v-719z" />
    <glyph glyph-name="i.alt" horiz-adv-x="524" 
d="M354 0h-184v965l-111 10v151h295v-1126zM356 1335h-186v250h186v-250z" />
    <glyph glyph-name="j.alt" horiz-adv-x="524" 
d="M354 -137q0 -180 -62 -250t-222 -70q-88 0 -138 11v135q11 0 52.5 -1t68.5 -1q73 0 95 35.5t22 140.5v1102l-111 10v151h295v-1263zM356 1335h-186v250h186v-250z" />
    <glyph glyph-name="k.alt" horiz-adv-x="1069" 
d="M1038 0h-243l-455 559v-559h-182v1423l-111 11v151h293v-967l453 508h237l-487 -534z" />
    <glyph glyph-name="l.alt" horiz-adv-x="522" 
d="M352 0h-182v1423l-111 11v151h293v-1585z" />
    <glyph glyph-name="m.alt" horiz-adv-x="1753" 
d="M1599 0h-184v748q0 38 -0.5 56.5t-2.5 48.5t-6 44t-12 34t-20 29.5t-29.5 19.5t-42 13.5t-55.5 3.5q-122 0 -284 -94q8 -53 8 -155v-748h-185v748v50.5t-1.5 44t-4 41t-7.5 33t-12.5 29.5t-19 21t-27 17t-36 9t-45.5 4q-122 0 -293 -98v-899h-182v965l-111 10v151h293
v-88q158 117 336 117t248 -121q184 121 348 121q94 0 159.5 -28t97.5 -62.5t49 -99.5t19 -104.5t2 -110.5v-2v-748z" />
    <glyph glyph-name="n.alt" horiz-adv-x="1220" 
d="M1067 0h-184v719q0 159 -37.5 218.5t-151.5 59.5q-127 0 -354 -100v-897h-182v965l-111 10v151h293v-88q111 57 199.5 87t175.5 30q88 0 151 -20t102 -54t61 -91t30 -120t8 -151v-719z" />
    <glyph glyph-name="p.alt" horiz-adv-x="1181" 
d="M340 -430h-182v1395l-111 10v151h287v-75q149 104 328 104q201 0 304 -124t103 -400v-111q0 -127 -24 -223.5t-65.5 -157.5t-103.5 -99.5t-130.5 -53.5t-153.5 -15q-124 0 -252 33v-434zM887 520v111q0 200 -61.5 281t-192.5 81q-68 0 -132 -18t-161 -66v-751
q158 -31 252 -31q73 0 123 15.5t91 56.5t61 120.5t20 200.5z" />
    <glyph glyph-name="r.alt" horiz-adv-x="770" 
d="M340 0h-182v965l-111 10v151h291v-90q150 119 401 119v-164q-109 0 -221.5 -27t-177.5 -69v-895z" />
    <glyph glyph-name="s.alt" horiz-adv-x="987" 
d="M117 16v144q9 -1 70 -8.5t94 -11t91 -7.5t107 -4q138 0 190 37t52 115q0 75 -41 113t-186 100l-82 34q-166 70 -238 148.5t-72 197.5q0 142 99 211.5t309 69.5q103 0 211 -14t145 -27v-240h-143l-21 115q-118 8 -184 8q-129 0 -180 -24.5t-51 -98.5q0 -66 38 -104
t158 -90l82 -35q138 -61 207 -108t101 -105.5t32 -146.5q0 -314 -420 -314q-105 0 -217 16t-151 29z" />
    <glyph glyph-name="u.alt" horiz-adv-x="1220" 
d="M879 1126h184v-1126h-184v88q-231 -117 -392 -117q-81 0 -141.5 22.5t-96.5 60t-58 95.5t-29.5 119t-7.5 140v557l-111 10v151h293v-718q0 -160 37.5 -219.5t152.5 -59.5q126 0 353 100v897z" />
    <glyph glyph-name="y.alt" horiz-adv-x="1226" 
d="M1069 -63q0 -74 -10.5 -130t-39 -108t-76 -84.5t-125 -52t-183.5 -19.5q-112 0 -240.5 15.5t-173.5 25.5v133q246 -16 414 -16q82 0 132.5 14t75.5 47t32.5 71.5t7.5 103.5v57q-129 -21 -228 -21q-123 0 -212.5 27t-155.5 87t-98.5 162t-32.5 247v630h182v-632
q0 -142 33 -221t100.5 -111.5t185.5 -32.5q135 0 228 18v979h184v-1189z" />
    <glyph glyph-name="z.alt" horiz-adv-x="999" 
d="M907 152v-152h-825v207l627 766h-439l-18 -99h-143v252h796v-190l-637 -784h639z" />
    <glyph glyph-name="a.alt2" horiz-adv-x="1183" 
d="M1026 0h-178v57q-145 -86 -316 -86q-203 0 -311 119t-108 363v194q0 118 23.5 207t64.5 146t103 92t132.5 49t159.5 14q220 0 430 -29v-1126zM842 199v788q-132 12 -244 12q-78 0 -128.5 -13t-92 -49.5t-61 -108t-19.5 -181.5v-194q0 -168 64.5 -246t205.5 -78
q132 0 275 70z" />
    <glyph glyph-name="u.alt2" horiz-adv-x="1216" 
d="M1063 514q0 -131 -24 -228t-76.5 -169.5t-142 -109t-214.5 -36.5q-239 0 -345.5 139t-106.5 404v612h182v-612q0 -198 60.5 -289.5t209.5 -91.5q151 0 212 91.5t61 289.5v612h184v-612z" />
    <glyph glyph-name="Aacute.alt" horiz-adv-x="1357" 
d="M1028 1931l-307 -315h-184l268 315h223zM51 0l445 1360l-119 10v152h432l498 -1522h-201l-158 498h-545l-161 -498h-191zM891 670l-143 444q-38 116 -62 250h-20q-31 -157 -62 -250l-145 -444h432z" />
    <glyph glyph-name="Acircumflex.alt" horiz-adv-x="1357" 
d="M1075 1616h-184l-215 215l-213 -215h-184l276 315h244zM51 0l445 1360l-119 10v152h432l498 -1522h-201l-158 498h-545l-161 -498h-191zM891 670l-143 444q-38 116 -62 250h-20q-31 -157 -62 -250l-145 -444h432z" />
    <glyph glyph-name="Adieresis.alt" horiz-adv-x="1357" 
d="M993 1657h-166v241h166v-241zM526 1898v-241h-168v241h168zM51 0l445 1360l-119 10v152h432l498 -1522h-201l-158 498h-545l-161 -498h-191zM891 670l-143 444q-38 116 -62 250h-20q-31 -157 -62 -250l-145 -444h432z" />
    <glyph glyph-name="Agrave.alt" horiz-adv-x="1357" 
d="M823 1616h-184l-307 315h223zM51 0l445 1360l-119 10v152h432l498 -1522h-201l-158 498h-545l-161 -498h-191zM891 670l-143 444q-38 116 -62 250h-20q-31 -157 -62 -250l-145 -444h432z" />
    <glyph glyph-name="Aring.alt" horiz-adv-x="1357" 
d="M915 1819q0 -113 -64.5 -168.5t-170.5 -55.5q-108 0 -175 55.5t-67 168.5t67 168t175 55q106 0 170.5 -55t64.5 -168zM793 1819q0 112 -113 112q-115 0 -115 -112q0 -113 115 -113q50 0 81.5 27t31.5 86zM51 0l445 1360l-119 10v152h432l498 -1522h-201l-158 498h-545
l-161 -498h-191zM891 670l-143 444q-38 116 -62 250h-20q-31 -157 -62 -250l-145 -444h432z" />
    <glyph glyph-name="Atilde.alt" horiz-adv-x="1357" 
d="M1083 1855q0 -124 -45 -188.5t-153 -64.5q-102 0 -209 84l-84 67q-36 31 -61 44t-56 13q-41 0 -56.5 -30t-15.5 -94v-70h-133v70q0 253 205 253q57 0 101 -17.5t98 -59.5l86 -70q72 -59 121 -59q42 0 56.5 28.5t14.5 93.5v70h131v-70zM51 0l445 1360l-119 10v152h432
l498 -1522h-201l-158 498h-545l-161 -498h-191zM891 670l-143 444q-38 116 -62 250h-20q-31 -157 -62 -250l-145 -444h432z" />
    <glyph glyph-name="Ccedilla.alt" horiz-adv-x="1140" 
d="M803 -139l-279 -291h-188l237 291h230zM1079 160v-154q-213 -35 -352 -35q-91 0 -166.5 12.5t-147 40.5t-124.5 78.5t-93.5 122.5t-61.5 175.5t-21 234.5v252q0 113 16 205t44.5 159.5t72 119t93.5 84.5t114 53.5t130 29t144 8.5q174 0 352 -35v-299h-147l-21 160
q-177 6 -184 6q-111 0 -188 -24t-132 -80.5t-80.5 -151.5t-25.5 -235v-252q0 -140 25.5 -235.5t80.5 -152.5t132 -81.5t188 -24.5q129 0 352 19z" />
    <glyph glyph-name="Eacute.alt" horiz-adv-x="1187" 
d="M981 1931l-307 -315h-185l269 315h223zM1075 1354h-713v-480h670v-169h-670v-539h713v-166h-901v1360l-111 10v152h1012v-168z" />
    <glyph glyph-name="Ecircumflex.alt" horiz-adv-x="1187" 
d="M1012 1616h-185l-215 215l-213 -215h-184l277 315h243zM1075 1354h-713v-480h670v-169h-670v-539h713v-166h-901v1360l-111 10v152h1012v-168z" />
    <glyph glyph-name="Edieresis.alt" horiz-adv-x="1187" 
d="M911 1655h-166v241h166v-241zM444 1896v-241h-168v241h168zM1075 1354h-713v-480h670v-169h-670v-539h713v-166h-901v1360l-111 10v152h1012v-168z" />
    <glyph glyph-name="Egrave.alt" horiz-adv-x="1187" 
d="M731 1616h-184l-307 315h223zM1075 1354h-713v-480h670v-169h-670v-539h713v-166h-901v1360l-111 10v152h1012v-168z" />
    <glyph glyph-name="Eth.alt" horiz-adv-x="1380" 
d="M1268 639q0 -149 -36 -263.5t-114 -200.5t-208 -130.5t-310 -44.5h-426v707h-108v165h108v482l-111 16v152h537q174 0 303.5 -44.5t208.5 -129t117.5 -199.5t38.5 -262v-248zM362 707v-541h222q252 0 372.5 109.5t120.5 363.5v248q0 253 -120 360t-373 107h-222v-482h308
v-165h-308z" />
    <glyph glyph-name="Iacute.alt" horiz-adv-x="536" 
d="M596 1931l-307 -315h-185l269 315h223zM473 0h-410v150l111 10v1200l-111 10v152h410v-152l-111 -10v-1200l111 -10v-150z" />
    <glyph glyph-name="Icircumflex.alt" horiz-adv-x="536" 
d="M666 1616h-185l-215 215l-213 -215h-184l276 315h244zM473 0h-410v150l111 10v1200l-111 10v152h410v-152l-111 -10v-1200l111 -10v-150z" />
    <glyph glyph-name="Idieresis.alt" horiz-adv-x="536" 
d="M584 1657h-166v241h166v-241zM117 1898v-241h-168v241h168zM473 0h-410v150l111 10v1200l-111 10v152h410v-152l-111 -10v-1200l111 -10v-150z" />
    <glyph glyph-name="Igrave.alt" horiz-adv-x="536" 
d="M438 1616h-184l-307 315h223zM473 0h-410v150l111 10v1200l-111 10v152h410v-152l-111 -10v-1200l111 -10v-150z" />
    <glyph glyph-name="Ntilde.alt" horiz-adv-x="1445" 
d="M1128 1855q0 -124 -45 -188.5t-153 -64.5q-102 0 -209 84l-84 67q-36 31 -61 44t-56 13q-41 0 -56 -30t-15 -94v-70h-134v70q0 253 205 253q57 0 101 -17.5t98 -59.5l86 -70q72 -59 121 -59q42 0 56.5 28.5t14.5 93.5v70h131v-70zM1272 0h-268l-537 1092
q-102 209 -123 258h-4q10 -167 10 -318v-1032h-176v1360l-111 10v152h381l531 -1063q58 -117 123 -260h4q-10 151 -10 333v990h180v-1522z" />
    <glyph glyph-name="Scaron.alt" horiz-adv-x="1198" 
d="M201 1931h184l213 -217l215 217h184l-276 -315h-244zM582 -29q-123 0 -252.5 14.5t-182.5 28.5v150q242 -29 435 -29q158 0 234.5 59.5t76.5 190.5q0 94 -44.5 152.5t-162.5 111.5l-260 117q-160 71 -236.5 165.5t-76.5 246.5q0 187 123 277.5t374 90.5q122 0 245 -14
t175 -27v-293h-143l-27 162q-104 8 -244 8q-159 0 -236 -45t-77 -159q0 -90 43 -145.5t162 -108.5l262 -115q164 -72 239.5 -170t75.5 -254q0 -200 -127 -307t-376 -107z" />
    <glyph glyph-name="Uacute.alt" horiz-adv-x="1431" 
d="M1077 1931l-307 -315h-184l268 315h223zM1268 633q0 -330 -138.5 -496t-412.5 -166q-553 0 -553 662v729l-111 10v150h299v-869q0 -281 79.5 -396.5t285.5 -115.5q204 0 284 116t80 396v869h187v-889z" />
    <glyph glyph-name="Ucircumflex.alt" horiz-adv-x="1431" 
d="M1112 1616h-184l-215 215l-213 -215h-185l277 315h244zM1268 633q0 -330 -138.5 -496t-412.5 -166q-553 0 -553 662v729l-111 10v150h299v-869q0 -281 79.5 -396.5t285.5 -115.5q204 0 284 116t80 396v869h187v-889z" />
    <glyph glyph-name="Udieresis.alt" horiz-adv-x="1431" 
d="M1030 1657h-166v241h166v-241zM563 1898v-241h-168v241h168zM1268 633q0 -330 -138.5 -496t-412.5 -166q-553 0 -553 662v729l-111 10v150h299v-869q0 -281 79.5 -396.5t285.5 -115.5q204 0 284 116t80 396v869h187v-889z" />
    <glyph glyph-name="Ugrave.alt" horiz-adv-x="1431" 
d="M821 1616h-184l-307 315h223zM1268 633q0 -330 -138.5 -496t-412.5 -166q-553 0 -553 662v729l-111 10v150h299v-869q0 -281 79.5 -396.5t285.5 -115.5q204 0 284 116t80 396v869h187v-889z" />
    <glyph glyph-name="Zcaron.alt" horiz-adv-x="1277" 
d="M252 1931h184l213 -217l215 217h185l-277 -315h-244zM1165 166v-166h-1052v209l821 1145h-627l-18 -142h-146v310h994v-207l-820 -1149h848z" />
    <glyph glyph-name="aacute.alt" horiz-adv-x="1116" 
d="M922 1577l-308 -315h-184l268 315h224zM973 0h-176v76q-152 -105 -359 -105q-336 0 -336 320v41q0 87 24.5 150t66.5 101t110.5 60t142 29.5t175.5 7.5h167v82q0 77 -9 120t-39 71t-79 37t-137 9q-86 0 -188 -6l-19 -119h-141v232q39 14 144 31.5t219 17.5
q93 0 162.5 -11t117 -34.5t78 -54.5t47.5 -78t23 -96.5t6 -118.5v-762zM788 205v336h-167q-96 0 -153.5 -7.5t-101.5 -29.5t-61.5 -63.5t-17.5 -108.5v-56q0 -90 48.5 -125.5t139.5 -35.5q89 0 178 29.5t135 60.5z" />
    <glyph glyph-name="acircumflex.alt" horiz-adv-x="1116" 
d="M971 1262h-185l-215 215l-213 -215h-184l277 315h243zM973 0h-176v76q-152 -105 -359 -105q-336 0 -336 320v41q0 87 24.5 150t66.5 101t110.5 60t142 29.5t175.5 7.5h167v82q0 77 -9 120t-39 71t-79 37t-137 9q-86 0 -188 -6l-19 -119h-141v232q39 14 144 31.5t219 17.5
q93 0 162.5 -11t117 -34.5t78 -54.5t47.5 -78t23 -96.5t6 -118.5v-762zM788 205v336h-167q-96 0 -153.5 -7.5t-101.5 -29.5t-61.5 -63.5t-17.5 -108.5v-56q0 -90 48.5 -125.5t139.5 -35.5q89 0 178 29.5t135 60.5z" />
    <glyph glyph-name="adieresis.alt" horiz-adv-x="1116" 
d="M891 1317h-166v242h166v-242zM424 1559v-242h-168v242h168zM973 0h-176v76q-152 -105 -359 -105q-336 0 -336 320v41q0 87 24.5 150t66.5 101t110.5 60t142 29.5t175.5 7.5h167v82q0 77 -9 120t-39 71t-79 37t-137 9q-86 0 -188 -6l-19 -119h-141v232q39 14 144 31.5
t219 17.5q93 0 162.5 -11t117 -34.5t78 -54.5t47.5 -78t23 -96.5t6 -118.5v-762zM788 205v336h-167q-96 0 -153.5 -7.5t-101.5 -29.5t-61.5 -63.5t-17.5 -108.5v-56q0 -90 48.5 -125.5t139.5 -35.5q89 0 178 29.5t135 60.5z" />
    <glyph glyph-name="agrave.alt" horiz-adv-x="1116" 
d="M715 1262h-185l-307 315h223zM973 0h-176v76q-152 -105 -359 -105q-336 0 -336 320v41q0 87 24.5 150t66.5 101t110.5 60t142 29.5t175.5 7.5h167v82q0 77 -9 120t-39 71t-79 37t-137 9q-86 0 -188 -6l-19 -119h-141v232q39 14 144 31.5t219 17.5q93 0 162.5 -11
t117 -34.5t78 -54.5t47.5 -78t23 -96.5t6 -118.5v-762zM788 205v336h-167q-96 0 -153.5 -7.5t-101.5 -29.5t-61.5 -63.5t-17.5 -108.5v-56q0 -90 48.5 -125.5t139.5 -35.5q89 0 178 29.5t135 60.5z" />
    <glyph glyph-name="ampersand.alt" horiz-adv-x="1560" 
d="M1448 0h-246l-108 109q-172 -138 -453 -138q-106 0 -191.5 19.5t-156 62t-109.5 118.5t-39 181v15q0 132 58.5 228t222.5 187l-20 21q-56 56 -87.5 92.5t-62 84.5t-43 98.5t-12.5 113.5v25q0 329 444 329q209 0 316.5 -77.5t107.5 -251.5v-25q0 -90 -25 -151
t-101.5 -130.5t-227.5 -158.5l372 -371q76 151 76 383v51h168v-51q0 -326 -114 -512l231 -227v-25zM973 231l-424 431q-116 -60 -163.5 -128t-47.5 -167v-15q0 -61 24 -105.5t67 -69t94.5 -35.5t115.5 -11q210 0 334 100zM881 1194v23q0 98 -57 132.5t-179 34.5
q-61 0 -104 -7t-78.5 -24.5t-53.5 -51t-18 -84.5v-25q0 -36 5.5 -63t14 -49t35 -53.5t51 -57.5t78.5 -80l17 -17q123 70 183.5 118.5t83 93.5t22.5 110z" />
    <glyph glyph-name="aring.alt" horiz-adv-x="1116" 
d="M811 1464q0 -113 -65 -168t-171 -55q-108 0 -174.5 55t-66.5 168t66.5 168.5t174.5 55.5q106 0 171 -55.5t65 -168.5zM688 1464q0 113 -113 113q-114 0 -114 -113q0 -112 114 -112q51 0 82 26.5t31 85.5zM973 0h-176v76q-152 -105 -359 -105q-336 0 -336 320v41
q0 87 24.5 150t66.5 101t110.5 60t142 29.5t175.5 7.5h167v82q0 77 -9 120t-39 71t-79 37t-137 9q-86 0 -188 -6l-19 -119h-141v232q39 14 144 31.5t219 17.5q93 0 162.5 -11t117 -34.5t78 -54.5t47.5 -78t23 -96.5t6 -118.5v-762zM788 205v336h-167q-96 0 -153.5 -7.5
t-101.5 -29.5t-61.5 -63.5t-17.5 -108.5v-56q0 -90 48.5 -125.5t139.5 -35.5q89 0 178 29.5t135 60.5z" />
    <glyph glyph-name="atilde.alt" horiz-adv-x="1116" 
d="M979 1507q0 -124 -45.5 -189t-153.5 -65q-102 0 -209 84l-84 68q-36 31 -60.5 44t-55.5 13q-41 0 -56.5 -30.5t-15.5 -94.5v-69h-133v69q0 254 205 254q57 0 100.5 -17.5t97.5 -60.5l86 -69q38 -31 64.5 -45.5t56.5 -14.5q42 0 57 29.5t15 93.5v70h131v-70zM973 0h-176
v76q-152 -105 -359 -105q-336 0 -336 320v41q0 87 24.5 150t66.5 101t110.5 60t142 29.5t175.5 7.5h167v82q0 77 -9 120t-39 71t-79 37t-137 9q-86 0 -188 -6l-19 -119h-141v232q39 14 144 31.5t219 17.5q93 0 162.5 -11t117 -34.5t78 -54.5t47.5 -78t23 -96.5t6 -118.5
v-762zM788 205v336h-167q-96 0 -153.5 -7.5t-101.5 -29.5t-61.5 -63.5t-17.5 -108.5v-56q0 -90 48.5 -125.5t139.5 -35.5q89 0 178 29.5t135 60.5z" />
    <glyph glyph-name="ccedilla.alt" horiz-adv-x="976" 
d="M731 -139l-278 -291h-189l238 291h229zM885 10q-127 -39 -322 -39q-226 0 -338 131t-112 377v170q0 247 111.5 376.5t338.5 129.5q104 0 194 -12.5t128 -26.5v-242h-144l-18 117q-62 6 -133 6q-57 0 -100 -9t-80.5 -32.5t-61.5 -62.5t-37.5 -100t-13.5 -144v-170
q0 -103 20 -173t60 -108t90.5 -53.5t122.5 -15.5q90 0 295 21v-140z" />
    <glyph glyph-name="dotlessi.alt" horiz-adv-x="524" 
d="M354 0h-184v965l-111 10v151h295v-1126z" />
    <glyph glyph-name="iacute.alt" horiz-adv-x="524" 
d="M354 0h-184v965l-111 10v151h295v-1126zM600 1577l-307 -315h-184l268 315h223z" />
    <glyph glyph-name="icircumflex.alt" horiz-adv-x="524" 
d="M354 0h-184v965l-111 10v151h295v-1126zM662 1262h-185l-215 215l-213 -215h-184l276 315h244z" />
    <glyph glyph-name="idieresis.alt" horiz-adv-x="524" 
d="M354 0h-184v965l-111 10v151h295v-1126zM586 1317h-166v242h166v-242zM119 1559v-242h-168v242h168z" />
    <glyph glyph-name="igrave.alt" horiz-adv-x="524" 
d="M354 0h-184v965l-111 10v151h295v-1126zM416 1262h-185l-307 315h223z" />
    <glyph glyph-name="lslash.alt" horiz-adv-x="522" 
d="M485 915l-133 -131v-784h-182v604l-127 -125v223l127 125v596l-111 11v151h293v-577l133 131v-224z" />
    <glyph glyph-name="ntilde.alt" horiz-adv-x="1220" 
d="M1030 1507q0 -124 -45.5 -189t-153.5 -65q-101 0 -208 84l-84 68q-36 31 -61 44t-56 13q-41 0 -56.5 -30.5t-15.5 -94.5v-69h-133v69q0 254 205 254q57 0 101 -18t98 -60l86 -69q38 -31 64.5 -45.5t55.5 -14.5q42 0 57 29.5t15 93.5v70h131v-70zM1067 0h-184v719
q0 159 -37.5 218.5t-151.5 59.5q-127 0 -354 -100v-897h-182v965l-111 10v151h293v-88q111 57 199.5 87t175.5 30q88 0 151 -20t102 -54t61 -91t30 -120t8 -151v-719z" />
    <glyph glyph-name="scaron.alt" horiz-adv-x="987" 
d="M104 1577h185l213 -217l215 217h184l-276 -315h-244zM117 16v144q9 -1 70 -8.5t94 -11t91 -7.5t107 -4q138 0 190 37t52 115q0 75 -41 113t-186 100l-82 34q-166 70 -238 148.5t-72 197.5q0 142 99 211.5t309 69.5q103 0 211 -14t145 -27v-240h-143l-21 115
q-118 8 -184 8q-129 0 -180 -24.5t-51 -98.5q0 -66 38 -104t158 -90l82 -35q138 -61 207 -108t101 -105.5t32 -146.5q0 -314 -420 -314q-105 0 -217 16t-151 29z" />
    <glyph glyph-name="uacute.alt" horiz-adv-x="1220" 
d="M987 1577l-307 -315h-184l268 315h223zM879 1126h184v-1126h-184v88q-231 -117 -392 -117q-81 0 -141.5 22.5t-96.5 60t-58 95.5t-29.5 119t-7.5 140v557l-111 10v151h293v-718q0 -160 37.5 -219.5t152.5 -59.5q126 0 353 100v897z" />
    <glyph glyph-name="ucircumflex.alt" horiz-adv-x="1220" 
d="M1010 1262h-185l-215 215l-213 -215h-184l276 315h244zM879 1126h184v-1126h-184v88q-231 -117 -392 -117q-81 0 -141.5 22.5t-96.5 60t-58 95.5t-29.5 119t-7.5 140v557l-111 10v151h293v-718q0 -160 37.5 -219.5t152.5 -59.5q126 0 353 100v897z" />
    <glyph glyph-name="udieresis.alt" horiz-adv-x="1220" 
d="M920 1317h-166v242h166v-242zM453 1559v-242h-168v242h168zM879 1126h184v-1126h-184v88q-231 -117 -392 -117q-81 0 -141.5 22.5t-96.5 60t-58 95.5t-29.5 119t-7.5 140v557l-111 10v151h293v-718q0 -160 37.5 -219.5t152.5 -59.5q126 0 353 100v897z" />
    <glyph glyph-name="ugrave.alt" horiz-adv-x="1220" 
d="M750 1262h-185l-307 315h223zM879 1126h184v-1126h-184v88q-231 -117 -392 -117q-81 0 -141.5 22.5t-96.5 60t-58 95.5t-29.5 119t-7.5 140v557l-111 10v151h293v-718q0 -160 37.5 -219.5t152.5 -59.5q126 0 353 100v897z" />
    <glyph glyph-name="yacute.alt" horiz-adv-x="1226" 
d="M1069 -63q0 -74 -10.5 -130t-39 -108t-76 -84.5t-125 -52t-183.5 -19.5q-112 0 -240.5 15.5t-173.5 25.5v133q246 -16 414 -16q82 0 132.5 14t75.5 47t32.5 71.5t7.5 103.5v57q-129 -21 -228 -21q-123 0 -212.5 26.5t-156 86t-99.5 161.5t-33 247l2 632h182v-632
q0 -142 33 -221t100.5 -111.5t185.5 -32.5q135 0 228 18v979h184v-1189zM991 1577l-307 -315h-184l268 315h223z" />
    <glyph glyph-name="ydieresis.alt" horiz-adv-x="1226" 
d="M1069 -63q0 -74 -10.5 -130t-39 -108t-76 -84.5t-125 -52t-183.5 -19.5q-112 0 -240.5 15.5t-173.5 25.5v133q246 -16 414 -16q82 0 132.5 14t75.5 47t32.5 71.5t7.5 103.5v57q-129 -21 -228 -21q-123 0 -212.5 26.5t-156 86t-99.5 161.5t-33 247l2 632h182v-632
q0 -142 33 -221t100.5 -111.5t185.5 -32.5q135 0 228 18v979h184v-1189zM946 1317h-166v242h166v-242zM479 1559v-242h-168v242h168z" />
    <glyph glyph-name="zcaron.alt" horiz-adv-x="999" 
d="M119 1577h184l213 -217l215 217h184l-276 -315h-244zM907 152v-152h-825v207l627 766h-439l-18 -99h-143v252h796v-190l-637 -784h639z" />
    <glyph glyph-name="two.alt" horiz-adv-x="1208" 
d="M1073 166v-166h-942v193q0 101 17 178t49 137.5t91.5 116t129.5 101.5t178 105q186 100 246.5 170.5t60.5 176.5q0 116 -77.5 161t-268.5 45q-111 0 -244 -10l-20 -162h-143v287q235 47 417 47q268 0 396.5 -87.5t128.5 -280.5q0 -147 -85 -257t-307 -229
q-167 -89 -245.5 -154.5t-109 -141t-30.5 -201.5v-29h758z" />
    <glyph glyph-name="three.alt" horiz-adv-x="1222" 
d="M1102 412q0 -123 -35.5 -209t-106 -136.5t-166 -73t-225.5 -22.5q-187 0 -415 54v143q19 -2 96.5 -11.5t161 -16.5t155.5 -7q91 0 151.5 11.5t106.5 42t67 85.5t21 140v51q0 46 -4.5 78.5t-20 66.5t-42.5 54.5t-74.5 33.5t-114.5 13h-440v157h440q67 0 114.5 14t74.5 36
t42.5 57t20 68t4.5 79v27q0 136 -73.5 186.5t-274.5 50.5q-95 0 -239 -8l-21 -164h-145v289q50 11 175.5 28t233.5 17q277 0 405 -89.5t128 -309.5v-27q0 -109 -44.5 -197t-139.5 -135q184 -93 184 -325v-51z" />
    <glyph glyph-name="five.alt" horiz-adv-x="1198" 
d="M1079 424q0 -240 -138.5 -346.5t-416.5 -106.5q-192 0 -420 54v143q19 -2 97.5 -11.5t162.5 -16.5t156 -7q205 0 289 64.5t84 226.5v59q0 105 -30.5 162t-111 85t-231.5 28h-385l66 764h823v-310h-143l-21 142h-500l-38 -434h206q290 0 420.5 -103t130.5 -334v-59z" />
    <glyph glyph-name="six.alt" horiz-adv-x="1292" 
d="M1171 453q0 -86 -19 -157.5t-50 -120.5t-75 -86.5t-89 -59t-97 -35.5t-94 -18.5t-85 -4.5q-65 0 -116 4.5t-110 20t-102.5 41.5t-86 71.5t-69 108t-43 153.5t-16.5 205v396q0 144 29 248t94 179t176 111.5t270 36.5q202 0 416 -45v-289h-146l-20 164q-148 8 -246 8
q-74 0 -132 -10.5t-98.5 -27.5t-69 -47t-45 -61t-25.5 -77t-12 -88.5t-3 -101.5v-72q72 21 175.5 34t181.5 13q70 0 127 -6t117.5 -21t105.5 -44t82 -72.5t56 -110.5t19 -153v-86zM983 453v77q0 84 -21 137.5t-66.5 81t-100.5 37t-140 9.5q-186 0 -348 -39v-191
q0 -130 24 -216.5t73 -133t110 -64.5t148 -18q66 0 123 18.5t102 56t70.5 100.5t25.5 145z" />
    <glyph glyph-name="seven.alt" horiz-adv-x="1179" 
d="M1092 1321l-664 -1321h-211l698 1354h-645l-18 -142h-146v310h986v-201z" />
    <glyph glyph-name="dotlessj" horiz-adv-x="524" 
d="M354 -137q0 -180 -62 -250t-222 -70q-88 0 -138 11v135q11 0 52.5 -1t68.5 -1q73 0 95 35.5t22 140.5v1263h184v-1263z" />
    <glyph glyph-name="zero.tab" horiz-adv-x="1341" 
d="M1206 612q0 -315 -138.5 -478t-395.5 -163q-258 0 -396.5 163t-138.5 478v293q0 316 138.5 478.5t396.5 162.5t396 -162.5t138 -478.5v-293zM1018 612v293q0 479 -346 479t-346 -479v-293q0 -479 346 -479t346 479z" />
    <glyph glyph-name="one.tab" horiz-adv-x="1341" 
d="M1155 0h-893v154l354 12v1175l-356 -114v164l406 143h137v-1368l352 -12v-154z" />
    <glyph glyph-name="two.tab" horiz-adv-x="1341" 
d="M1130 0h-942v193q0 101 17 178t49 137.5t91.5 116t129.5 101.5t178 105q128 69 193.5 122t90 103t24.5 122q0 116 -78 161t-269 45q-203 0 -391 -30v145q209 47 402 47q268 0 396 -87.5t128 -280.5q0 -148 -84.5 -257.5t-306.5 -228.5q-167 -89 -245.5 -154.5t-109 -141
t-30.5 -201.5v-29h757v-166z" />
    <glyph glyph-name="three.tab" horiz-adv-x="1341" 
d="M1155 412q0 -123 -35 -209t-105.5 -136.5t-166 -73t-225.5 -22.5q-188 0 -416 54v141q244 -33 414 -33q91 0 151.5 11.5t106.5 42t67 85.5t21 140v51q0 46 -4.5 78.5t-20 66.5t-42.5 54.5t-74.5 33.5t-114.5 13h-441v157h441q67 0 114.5 14t74.5 36t42.5 57t20 68t4.5 79
v27q0 136 -73.5 186.5t-275.5 50.5q-167 0 -405 -28v145q50 11 176 28t234 17q277 0 404.5 -89.5t127.5 -309.5v-27q0 -109 -44.5 -197t-139.5 -135q184 -93 184 -325v-51z" />
    <glyph glyph-name="four.tab" horiz-adv-x="1341" 
d="M1237 401h-231v-401h-189v401h-721v193l695 928h215v-957h231v-164zM817 565v703l-532 -703h532z" />
    <glyph glyph-name="five.tab" horiz-adv-x="1341" 
d="M1157 424q0 -240 -138.5 -346.5t-416.5 -106.5q-190 0 -420 49v150q4 -1 75 -9.5t111 -13t108 -9.5t122 -5q205 0 289 64.5t84 226.5v59q0 105 -30.5 162t-111 85t-231.5 28h-385l66 764h823v-168h-664l-39 -434h207q290 0 420.5 -103t130.5 -334v-59z" />
    <glyph glyph-name="seven.tab" horiz-adv-x="1341" 
d="M1176 1321l-664 -1321h-211l698 1354h-809v168h986v-201z" />
    <glyph glyph-name="six.tab" horiz-adv-x="1341" 
d="M1194 453q0 -86 -19 -157.5t-50 -120.5t-75 -86.5t-89.5 -59t-97 -35.5t-94 -18.5t-85.5 -4.5q-65 0 -116 4.5t-110 20t-102.5 41.5t-86 71.5t-69 108t-43 153.5t-16.5 205v396q0 144 29 248t94.5 179t176.5 111.5t270 36.5q201 0 415 -45v-147q-240 30 -411 30
q-74 0 -132 -10.5t-98.5 -27.5t-69 -47t-45 -61t-25.5 -77t-12 -88.5t-3 -101.5v-72q72 21 175.5 34t180.5 13q86 0 152.5 -8t136 -33.5t115.5 -69t75 -118.5t29 -178v-86zM1006 453v77q0 84 -21 137.5t-66.5 81t-100.5 37t-140 9.5q-186 0 -348 -39v-191q0 -130 24 -216.5
t72.5 -133t109.5 -64.5t148 -18q66 0 123 18.5t102 56t71 100.5t26 145z" />
    <glyph glyph-name="eight.tab" horiz-adv-x="1341" 
d="M1210 438q0 -73 -10.5 -133.5t-27.5 -105.5t-45 -80.5t-56 -59t-69 -40.5t-75.5 -26t-83 -14t-84.5 -6.5t-87 -1.5h-6q-51 0 -87 1.5t-84.5 6.5t-83.5 14t-75.5 26t-69 40.5t-56.5 59t-45 80.5t-27.5 105.5t-10.5 133.5v17q0 124 41 203.5t125 132.5q-160 96 -160 319v23
q0 101 31.5 177t81 120t122.5 71t143 36t155 9h6q85 0 155 -9t143 -36t122 -71t80.5 -120t31.5 -177v-23q0 -223 -160 -319q84 -53 125 -132.5t41 -203.5v-17zM1022 438v17q0 135 -47.5 195.5t-167.5 60.5h-277q-120 0 -167.5 -60.5t-47.5 -195.5v-17q0 -68 11 -118.5
t35 -83.5t52 -54t71.5 -31.5t84 -14t97.5 -3.5h6q69 0 116 5t95 23t76 50.5t45.5 89t17.5 137.5zM1018 1110v23q0 64 -17.5 110t-46 73t-75.5 42.5t-94 20.5t-113 5h-6q-66 0 -113.5 -5t-94 -20.5t-75.5 -42.5t-46.5 -73t-17.5 -110v-23q0 -120 47 -180t164 -60h277
q117 0 164 60t47 180z" />
    <glyph glyph-name="nine.tab" horiz-adv-x="1341" 
d="M1171 547q0 -144 -29 -248t-94 -179t-176 -112t-270 -37q-202 0 -416 45v148q248 -31 412 -31q74 0 132 10.5t98.5 28t69 47t45 61t25.5 77.5t12 88.5t3 101.5v71q-72 -21 -175.5 -34t-180.5 -13q-70 0 -127 6t-118 21t-106 44.5t-82 73t-56 110.5t-19 153v86
q0 86 19 157.5t50 120t75 86t89.5 59.5t97 35.5t94 18t85.5 4.5q65 0 116 -4.5t109.5 -20t102.5 -41.5t86 -71.5t68.5 -108t43 -153.5t16.5 -205v-395zM983 762v190q0 130 -24 216.5t-72.5 133t-109.5 64.5t-148 18q-67 0 -123.5 -18.5t-101.5 -55.5t-71 -100t-26 -145v-78
q0 -68 15 -115.5t40.5 -76.5t68.5 -45t89.5 -21.5t114.5 -5.5q186 0 348 39z" />
    <glyph glyph-name="dieresisacute" 
d="M147 1321h-165v242h165v-242zM250 1262l221 352h223l-258 -352h-186zM954 1321h-166v242h166v-242z" />
    <glyph glyph-name="middot" horiz-adv-x="569" 
d="M379 614h-186v283h186v-283z" />
    <glyph glyph-name="dieresisgrave" 
d="M954 1319h-168v242h168v-242zM465 1612l219 -352h-186l-258 352h225zM147 1319h-165v242h165v-242z" />
    <glyph glyph-name="threequartersemdash" horiz-adv-x="1880" 
d="M1729 522h-1577v156h1577v-156z" />
    <glyph glyph-name="overscore" horiz-adv-x="1175" 
d="M1186 1677h-1198v121h1198v-121z" />
    <glyph glyph-name="franc.taboldstyle" horiz-adv-x="1245" 
d="M500 0h-189v223h-98v144h98v792h721v-170h-532v-309h504v-164h-504v-149h264v-144h-264v-223z" />
    <glyph glyph-name="lira.taboldstyle" horiz-adv-x="1259" 
d="M1032 1141v-158q-169 18 -280 18q-138 0 -182 -44.5t-44 -180.5v-41h373v-133h-373v-123h373v-131h-373v-31q0 -89 -49 -155h555v-162h-764v137q74 77 74 180v31h-121v131h121v123h-121v133h121v41q0 209 85.5 301t299.5 92q157 0 305 -28z" />
    </font>
</defs>
</svg>
