<?xml version="1.0" standalone="no"?>
<!DOCTYPE svg PUBLIC "-//W3C//DTD SVG 1.1//EN" "http://www.w3.org/Graphics/SVG/1.1/DTD/svg11.dtd" >
<svg xmlns="http://www.w3.org/2000/svg" xmlns:xlink="http://www.w3.org/1999/xlink" version="1.1">
<metadata>
Created by FontForge 20170731 at Tue Nov 23 14:11:15 2021
 By Aleksey,,,
2007 Albert Pinggera published by FSI FontShop International GmbH
</metadata>
<defs>
<font id="StradaOT-Bold" horiz-adv-x="847" >
  <font-face 
    font-family="StradaOT-Bold"
    font-weight="700"
    font-stretch="normal"
    units-per-em="2048"
    panose-1="2 1 8 4 4 1 1 2 1 4"
    ascent="1608"
    descent="-440"
    x-height="1024"
    cap-height="1341"
    bbox="-242 -512 2679 1913"
    underline-thickness="235"
    underline-position="-480"
    unicode-range="U+000D-FB02"
  />
<missing-glyph horiz-adv-x="1200" 
d="M162 0v1341h876v-1341h-876zM397 236h406v870h-406v-870z" />
    <glyph glyph-name="fi" unicode="fi" horiz-adv-x="1245" 
d="M819 821h-358v-821h-264v821h-154v203h154v43q0 197 120 309.5t345 112.5q79 0 147 -14.5t117 -51.5t49 -90q0 -69 -49 -133q-99 60 -240 60q-124 0 -174.5 -51.5t-50.5 -157.5v-27h622v-1024h-264v821z" />
    <glyph glyph-name="fl" unicode="fl" horiz-adv-x="1245" 
d="M1083 1456v-1456h-264v1247q-65 21 -137 21q-221 0 -221 -219v-25h241v-203h-241v-821h-264v821h-154v203h154v43q0 198 121.5 310t359.5 112q71 0 142.5 -14t105.5 -31q42 20 94 20q43 0 63 -8z" />
    <glyph glyph-name=".notdef" horiz-adv-x="1200" 
d="M162 0v1341h876v-1341h-876zM397 236h406v870h-406v-870z" />
    <glyph glyph-name=".null" horiz-adv-x="0" 
 />
    <glyph glyph-name=".null" horiz-adv-x="0" 
 />
    <glyph glyph-name="nonmarkingreturn" horiz-adv-x="682" 
 />
    <glyph glyph-name="CR" unicode="&#xd;" horiz-adv-x="368" 
 />
    <glyph glyph-name="space" unicode=" " horiz-adv-x="368" 
 />
    <glyph glyph-name="exclam" unicode="!" horiz-adv-x="688" 
d="M276 457l-34 884h301l-35 -884h-232zM391 303q74 0 120 -45.5t46 -118.5q0 -74 -46.5 -120t-119.5 -46q-75 0 -121.5 44.5t-46.5 119.5t46.5 120.5t121.5 45.5z" />
    <glyph glyph-name="quotedbl" unicode="&#x22;" horiz-adv-x="1026" 
d="M391 1464v-639h-248v639h248zM883 1464v-639h-248v639h248z" />
    <glyph glyph-name="numbersign" unicode="#" horiz-adv-x="1513" 
d="M432 999l66 342h225l-66 -342h324l66 342h225l-66 -342h205v-170h-240l-55 -282h205v-172h-238l-71 -375h-226l72 375h-321l-74 -375h-225l71 375h-207v172h242l55 282h-206v170h239zM625 829l-56 -282h322l55 282h-321z" />
    <glyph glyph-name="dollar" unicode="$" horiz-adv-x="1132" 
d="M446 -23q-66 2 -121.5 12t-107.5 30.5t-81.5 57.5t-29.5 87q0 85 66 160q60 -39 148.5 -66t181.5 -27q99 0 153 37.5t54 100.5q0 45 -32 79t-83 58t-112.5 48t-123 56.5t-112.5 75t-83 113.5t-32 162q0 152 86.5 255t249.5 138v176h215v-166q58 -4 106.5 -14.5
t90.5 -30.5t66 -52.5t24 -76.5q0 -76 -72 -158q-49 36 -130.5 60t-154.5 24q-107 0 -150.5 -35t-43.5 -96q0 -49 32 -86.5t83.5 -62.5t113.5 -48.5t124.5 -55t114 -72.5t83.5 -108.5t32 -156.5q0 -158 -90 -261.5t-249 -141.5v-176h-216v161z" />
    <glyph glyph-name="percent" unicode="%" horiz-adv-x="1916" 
d="M1163 330q0 156 101.5 254t253.5 98q150 0 251 -98t101 -254q0 -157 -101 -256t-251 -99q-152 0 -253.5 99t-101.5 256zM154 1012q0 157 101 255.5t253 98.5q150 0 251 -98.5t101 -255.5q0 -156 -101 -254.5t-251 -98.5q-151 0 -252.5 98.5t-101.5 254.5zM385 29
l1045 1384l167 -131l-1044 -1384zM362 1012q0 -72 39 -121t107 -49q66 0 104.5 49t38.5 121q0 74 -38 123t-105 49q-68 0 -107 -49t-39 -123zM1372 330q0 -74 39 -123t107 -49q67 0 105 49t38 123q0 72 -38.5 121t-104.5 49q-68 0 -107 -49t-39 -121z" />
    <glyph glyph-name="ampersand" unicode="&#x26;" horiz-adv-x="1363" 
d="M1092 287q154 -88 303 -135q0 -80 -43.5 -128.5t-106.5 -48.5q-112 0 -315 134q-169 -134 -395 -134q-227 0 -336 90t-109 252q0 243 223 377q-129 190 -129 332q0 160 102.5 250t278.5 90q163 0 254.5 -83t91.5 -208q0 -266 -301 -395q122 -141 293 -268q65 114 74 254
q59 12 110 12q117 0 117 -115q0 -64 -30 -139.5t-82 -136.5zM745 240q-164 130 -311 297q-82 -76 -82 -191q0 -75 59.5 -117.5t161.5 -42.5q92 0 172 54zM506 819q86 55 126 111.5t40 122.5q0 42 -28 73t-77 31q-55 0 -92 -42t-37 -105q0 -75 68 -191z" />
    <glyph glyph-name="quotesingle" unicode="'" horiz-adv-x="534" 
d="M391 1464v-639h-248v639h248z" />
    <glyph glyph-name="parenleft" unicode="(" horiz-adv-x="692" 
d="M150 537q0 141 24 276t57.5 229.5t77.5 180t74.5 130t58.5 77.5q56 65 133 65q36 0 72.5 -17t59.5 -42q-124 -202 -169 -297q-113 -238 -124 -525q-2 -37 -2 -77q0 -102 9 -191t31.5 -171t42 -139.5t60.5 -135.5t64.5 -118t76.5 -126q7 -12 11 -18q-23 -25 -59.5 -42.5
t-72.5 -17.5q-76 0 -133 66q-29 35 -58 78t-74 130t-78 180.5t-57.5 228.5t-24.5 276z" />
    <glyph glyph-name="parenright" unicode=")" horiz-adv-x="692" 
d="M543 537q0 -141 -24 -276t-57.5 -229.5t-78 -180t-75 -130t-58.5 -77.5q-57 -66 -133 -66q-73 0 -133 60q124 203 168 297q119 250 128 543q1 29 1 59q0 70 -6 136t-12.5 118t-24 112t-28 97.5t-38 95.5t-39.5 84.5t-47.5 87.5t-48 81.5t-53.5 86.5q59 59 133 59
q77 0 133 -65q29 -35 58 -78t74.5 -130t78.5 -180.5t57.5 -228.5t24.5 -276z" />
    <glyph glyph-name="asterisk" unicode="*" horiz-adv-x="970" 
d="M352 991l-266 60q-4 28 -4 43q0 67 29.5 118.5t83.5 51.5q31 0 71 -21l148 -76l-27 289q60 31 121 31q52 0 85.5 -28.5t33.5 -90.5q0 -3 -1 -12.5t-6.5 -60t-13.5 -130.5l248 119q76 -76 76 -151q0 -83 -113 -111l-158 -37l183 -209q-27 -49 -72 -85t-90 -36
q-62 0 -100 74l-74 145l-131 -243q-68 12 -120 48t-52 89q0 45 43 96z" />
    <glyph glyph-name="plus" unicode="+" horiz-adv-x="1177" 
d="M459 657v404h262v-404h371v-235h-371v-422h-262v422h-371v235h371z" />
    <glyph glyph-name="comma" unicode="," horiz-adv-x="520" 
d="M227 -14q-62 14 -106.5 59.5t-44.5 120.5t46.5 121.5t121.5 46.5q92 0 146 -68t54 -184q0 -108 -39.5 -204t-104.5 -153t-136 -57q-80 0 -115 68q65 54 113 121.5t65 128.5z" />
    <glyph glyph-name="hyphen" unicode="-" horiz-adv-x="786" 
d="M686 688v-237h-588v237h588z" />
    <glyph glyph-name="period" unicode="." horiz-adv-x="520" 
d="M260 328q80 0 131 -48.5t51 -127.5q0 -81 -50.5 -129t-131.5 -48q-80 0 -130 48t-50 129q0 79 50 127.5t130 48.5z" />
    <glyph glyph-name="slash" unicode="/" horiz-adv-x="724" 
d="M23 -143l520 1704l223 -66l-522 -1704z" />
    <glyph glyph-name="zero" unicode="0" horiz-adv-x="1200" 
d="M610 1083q230 0 360 -133.5t130 -400.5q0 -278 -137 -426t-367 -148q-498 0 -498 545q0 135 38 242.5t106 177t161.5 106.5t206.5 37zM610 856q-121 0 -178 -88t-57 -242q0 -161 58.5 -242t170.5 -81q108 0 163.5 90t55.5 252q0 145 -54.5 228t-158.5 83z" />
    <glyph glyph-name="one" unicode="1" horiz-adv-x="933" 
d="M399 809l-256 -53q-39 65 -39 137q0 174 453 174q63 0 107 -6v-842h264v-219h-809v219h280v590z" />
    <glyph glyph-name="two" unicode="2" horiz-adv-x="1064" 
d="M528 1085q198 0 298 -98t100 -256q0 -187 -126.5 -313.5t-340.5 -188.5h516v-229h-858v221q124 68 204.5 117.5t159.5 110.5t117.5 120t38.5 119q0 139 -166 139q-153 0 -297 -110q-68 74 -68 149q0 66 60 117t155 76.5t207 25.5z" />
    <glyph glyph-name="three" unicode="3" horiz-adv-x="1001" 
d="M621 436v-10q143 -14 222 -99.5t79 -232.5q0 -195 -145.5 -306.5t-379.5 -111.5q-69 0 -121 6t-101 22.5t-75 50t-26 83.5q0 84 41 139q97 -57 270 -57q120 0 186 47t66 133q0 179 -299 179h-125v208q405 14 405 207q0 61 -42 98t-127 37q-165 0 -302 -110
q-65 71 -65 151q0 95 122.5 155t295.5 60q186 0 291.5 -90t105.5 -245q0 -124 -73 -208t-203 -106z" />
    <glyph glyph-name="four" unicode="4" horiz-adv-x="1167" 
d="M903 68v-369h-260v369h-598v211l526 782h332v-774h225v-219h-225zM643 287v514l-342 -514h342z" />
    <glyph glyph-name="five" unicode="5" horiz-adv-x="1032" 
d="M883 1061v-236h-463v-241q144 0 247 -31.5t161.5 -91t85 -135t26.5 -172.5q0 -100 -35 -186t-102 -151.5t-172.5 -103t-237.5 -37.5q-65 0 -113.5 6t-94.5 22.5t-70.5 50t-24.5 83.5q0 87 39 137q99 -55 250 -55q134 0 205 56.5t71 158.5q0 133 -119 185.5t-380 52.5v688
h727z" />
    <glyph glyph-name="six" unicode="6" horiz-adv-x="1153" 
d="M371 647q31 118 105.5 172.5t205.5 54.5q187 0 282 -112t95 -307q0 -216 -122.5 -348t-348.5 -132q-127 0 -222.5 45t-154 129.5t-87 200t-28.5 262.5q0 185 48.5 329t136.5 236.5t209.5 140.5t269.5 48q280 0 280 -152q0 -68 -41 -129q-85 45 -219 45q-206 0 -302 -120
t-107 -363zM369 551q6 -166 67 -257t164 -91q90 0 141.5 60t51.5 165q0 209 -203 209q-122 0 -221 -86z" />
    <glyph glyph-name="seven" unicode="7" horiz-adv-x="1001" 
d="M61 1061h897v-191l-432 -911q-68 -144 -127.5 -213.5t-122.5 -69.5q-108 0 -180 119q131 164 187 277l368 741h-590v248z" />
    <glyph glyph-name="eight" unicode="8" horiz-adv-x="1142" 
d="M782 719q122 -68 192 -153.5t70 -211.5q0 -173 -129 -276t-350 -103q-226 0 -346.5 92.5t-120.5 260.5q0 59 20 110.5t59 94t80 74t99 67.5q-51 31 -89.5 62.5t-72 73t-51.5 93.5t-18 113q0 165 120.5 257.5t327.5 92.5q120 0 209.5 -29t138.5 -78t72 -106t23 -121
q0 -97 -62 -171.5t-172 -141.5zM539 578q-78 -50 -120 -100t-42 -113q0 -83 54.5 -127.5t137.5 -44.5q93 0 145 44.5t52 120.5q0 65 -57 113.5t-170 106.5zM598 809q152 97 152 205q0 63 -43.5 104t-128.5 41q-89 0 -137 -40.5t-48 -104.5q0 -60 52 -106.5t153 -98.5z" />
    <glyph glyph-name="nine" unicode="9" horiz-adv-x="1150" 
d="M780 391q-31 -113 -106 -165t-205 -52q-186 0 -280.5 116.5t-94.5 313.5q0 217 121.5 349t347.5 132q128 0 223 -44.5t153.5 -129t87 -199.5t28.5 -261q0 -187 -48 -334.5t-136 -244t-209.5 -147.5t-270.5 -51q-280 0 -280 152q0 68 45 129q82 -45 217 -45
q198 0 295.5 122.5t111.5 358.5zM782 498q-3 171 -63.5 265.5t-165.5 94.5q-92 0 -142.5 -60.5t-50.5 -166.5q0 -105 51 -162t150 -57q129 0 221 86z" />
    <glyph glyph-name="colon" unicode=":" horiz-adv-x="598" 
d="M291 328q80 0 131 -48.5t51 -127.5q0 -81 -50.5 -129t-131.5 -48q-80 0 -130 48t-50 129q0 79 50 127.5t130 48.5zM291 1044q80 0 131 -48.5t51 -127.5q0 -81 -50.5 -128.5t-131.5 -47.5q-80 0 -130 47.5t-50 128.5q0 79 50 127.5t130 48.5z" />
    <glyph glyph-name="semicolon" unicode=";" horiz-adv-x="608" 
d="M258 -14q-62 14 -107 59.5t-45 120.5t46.5 121.5t121.5 46.5q92 0 146.5 -68t54.5 -184q0 -108 -39.5 -204t-104.5 -153t-136 -57q-80 0 -115 68q65 54 113 121.5t65 128.5zM291 1044q80 0 131 -48.5t51 -127.5q0 -81 -50.5 -128.5t-131.5 -47.5q-80 0 -130 47.5
t-50 128.5q0 79 50 127.5t130 48.5z" />
    <glyph glyph-name="less" unicode="&#x3c;" horiz-adv-x="858" 
d="M612 -41l-571 571l571 572l174 -176l-399 -389l406 -396z" />
    <glyph glyph-name="equal" unicode="=" horiz-adv-x="1177" 
d="M1057 903v-221h-934v221h934zM1057 498v-219h-934v219h934z" />
    <glyph glyph-name="greater" unicode="&#x3e;" horiz-adv-x="858" 
d="M248 1102l569 -572l-571 -571l-174 176l399 389l-405 398z" />
    <glyph glyph-name="question" unicode="?" horiz-adv-x="921" 
d="M850 1047q0 -63 -16.5 -115t-42.5 -86.5t-57.5 -64.5t-62.5 -57t-57 -56.5t-42.5 -70.5t-16.5 -91q0 -57 12 -94q-62 -21 -133 -21q-63 0 -98 45t-35 121q0 72 28 128t67.5 90.5t79 66t67.5 72t28 90.5q0 63 -43.5 98t-128.5 35q-113 0 -202 -54q-33 51 -33 117
q0 68 67 117t211 49q184 0 296 -92.5t112 -226.5zM457 303q73 0 119.5 -44.5t46.5 -117.5q0 -74 -46.5 -120t-119.5 -46q-75 0 -121.5 44.5t-46.5 119.5t46.5 119.5t121.5 44.5z" />
    <glyph glyph-name="at" unicode="@" horiz-adv-x="2056" 
d="M1096 98q0 36 20 146l-26 -2q-93 -267 -299 -267q-124 0 -185 94t-61 261q0 210 66 374t185.5 254.5t272.5 90.5q147 0 250 -54q53 33 111 33q37 0 61 -8q-121 -626 -139 -838q16 -2 47 -2q59 0 117.5 31t108 88.5t80 151t30.5 206.5q0 275 -156 420.5t-457 145.5
q-168 0 -315.5 -63t-254.5 -175t-168.5 -273.5t-61.5 -349.5q0 -285 158.5 -433t451.5 -148q250 0 428 90q39 -48 39 -104q0 -92 -133.5 -141.5t-350.5 -49.5q-386 0 -603.5 202.5t-217.5 575.5q0 233 72.5 429.5t205.5 337.5t330 220.5t437 79.5q197 0 353.5 -53
t259 -149.5t156.5 -231t54 -299.5q0 -169 -51 -306t-140 -225t-208 -135t-258 -47q-47 0 -79.5 4t-64.5 16t-48.5 38t-16.5 65zM1190 811q-33 37 -105 37q-101 0 -184.5 -146t-83.5 -356q0 -119 82 -119q198 0 291 584z" />
    <glyph glyph-name="A" unicode="A" horiz-adv-x="1214" 
d="M823 307h-438l-90 -307h-295l455 1341h303l456 -1341h-303zM760 524l-158 529l-156 -529h314z" />
    <glyph glyph-name="B" unicode="B" horiz-adv-x="1226" 
d="M182 1341h512q177 0 280 -80t103 -239q0 -226 -209 -299v-6q127 -18 189.5 -102t62.5 -197q0 -205 -129.5 -311.5t-369.5 -106.5h-439v1341zM451 584v-357h182q93 0 145.5 48.5t52.5 144.5q0 74 -49 119t-139 45h-192zM627 1122h-176v-325h153q77 0 129.5 47.5
t52.5 122.5q0 72 -42 113.5t-117 41.5z" />
    <glyph glyph-name="C" unicode="C" horiz-adv-x="1228" 
d="M1083 348q41 -30 63.5 -73.5t22.5 -88.5q0 -68 -68 -117.5t-165.5 -71.5t-206.5 -22q-639 0 -639 680q0 174 48 309.5t136 223t209.5 133t270.5 45.5q75 0 145.5 -12t129 -35.5t93.5 -63t35 -88.5q0 -85 -90 -159q-124 108 -313 108q-179 0 -280 -115.5t-101 -341.5
q0 -213 100 -320.5t277 -107.5q109 0 195 35t138 82z" />
    <glyph glyph-name="D" unicode="D" horiz-adv-x="1370" 
d="M182 1341h494q312 0 458 -162t146 -485q0 -341 -174.5 -517.5t-476.5 -176.5h-447v1341zM451 1108v-868h155q391 0 391 448q0 193 -81 306.5t-257 113.5h-208z" />
    <glyph glyph-name="E" unicode="E" horiz-adv-x="1142" 
d="M182 0v1341h838v-235h-569v-309h532v-230h-532v-327h569v-240h-838z" />
    <glyph glyph-name="F" unicode="F" horiz-adv-x="1093" 
d="M182 0v1341h817v-235h-548v-330h512v-229h-512v-547h-269z" />
    <glyph glyph-name="G" unicode="G" horiz-adv-x="1329" 
d="M90 657q0 341 184.5 525t499.5 184q81 0 154.5 -11.5t135.5 -34t99 -61.5t37 -88q0 -93 -88 -165q-138 110 -340 110q-187 0 -293 -116t-106 -338q0 -217 98.5 -329t278.5 -112q103 0 176 27v383h262v-568q-208 -88 -449 -88q-323 0 -486 166.5t-163 515.5z" />
    <glyph glyph-name="H" unicode="H" horiz-adv-x="1460" 
d="M1010 573h-559v-573h-269v1341h269v-536h559v536h268v-1341h-268v573z" />
    <glyph glyph-name="I" unicode="I" horiz-adv-x="632" 
d="M182 0v1341h269v-1341h-269z" />
    <glyph glyph-name="J" unicode="J" horiz-adv-x="632" 
d="M-70 -229q75 6 126 31t78 68.5t37.5 93.5t10.5 118v1259h269v-1273q0 -233 -97.5 -362.5t-263.5 -129.5q-75 0 -119.5 38t-44.5 116q0 25 4 41z" />
    <glyph glyph-name="K" unicode="K" horiz-adv-x="1257" 
d="M451 682l454 659h338l-489 -645l493 -696h-352zM451 1341v-1341h-269v1341h269z" />
    <glyph glyph-name="L" unicode="L" horiz-adv-x="999" 
d="M182 0v1341h269v-1103h548v-238h-817z" />
    <glyph glyph-name="M" unicode="M" horiz-adv-x="1841" 
d="M399 0h-264l121 1341h371l297 -1050l290 1050h371l121 -1341h-281l-65 1042l-291 -1042h-311l-291 1042z" />
    <glyph glyph-name="N" unicode="N" horiz-adv-x="1501" 
d="M182 1341h307l578 -956v956h252v-1341h-313l-574 946v-946h-250v1341z" />
    <glyph glyph-name="O" unicode="O" horiz-adv-x="1439" 
d="M739 1366q151 0 268.5 -50t192 -140.5t112.5 -212t38 -267.5q0 -339 -170 -530t-475 -191q-299 0 -457 179.5t-158 492.5q0 157 40 287t118.5 227t204 151t286.5 54zM729 1130q-91 0 -161 -37.5t-111 -102.5t-61.5 -146t-20.5 -176q0 -208 90 -330.5t254 -122.5
q116 0 196 61.5t116 163t36 236.5q0 132 -34.5 232t-112 161t-191.5 61z" />
    <glyph glyph-name="P" unicode="P" horiz-adv-x="1167" 
d="M614 455h-163v-455h-269v1341h504q222 0 330 -114.5t108 -304.5q0 -212 -130 -339.5t-380 -127.5zM451 1112v-428h153q114 0 177 60t63 163q0 94 -52.5 149.5t-146.5 55.5h-194z" />
    <glyph glyph-name="Q" unicode="Q" horiz-adv-x="1439" 
d="M614 -18q-255 26 -389.5 201.5t-134.5 463.5q0 157 40 287t118.5 227t204 151t286.5 54q151 0 268.5 -50t192 -140.5t112.5 -212t38 -267.5q0 -268 -109 -446.5t-311 -239.5q113 -89 222 -150t251 -91q0 -41 -13.5 -80.5t-47 -69t-80.5 -29.5q-73 0 -152.5 29.5
t-163.5 86.5t-161 122t-171 154zM729 1130q-76 0 -136.5 -25t-100.5 -67.5t-67 -102t-38.5 -125.5t-11.5 -142q0 -208 90 -330.5t254 -122.5q116 0 196 61.5t116 163t36 236.5q0 132 -34.5 232t-112 161t-191.5 61z" />
    <glyph glyph-name="R" unicode="R" horiz-adv-x="1241" 
d="M889 571l291 -571h-314l-229 504q-32 -4 -62 -4h-124v-500h-269v1341h516q211 0 321.5 -108.5t110.5 -278.5q0 -122 -61.5 -223.5t-179.5 -159.5zM451 1112v-387h147q115 0 183.5 58.5t68.5 152.5q0 85 -58.5 130.5t-142.5 45.5h-198z" />
    <glyph glyph-name="S" unicode="S" horiz-adv-x="1071" 
d="M592 1366q70 0 130 -8.5t114 -27t85 -54.5t31 -86q0 -80 -71 -158q-51 37 -132 61.5t-153 24.5q-197 0 -197 -133q0 -49 32 -86.5t83.5 -62.5t113.5 -48.5t124 -55t113.5 -72.5t83.5 -108.5t32 -156.5q0 -199 -138 -309.5t-366 -110.5q-71 0 -133.5 8t-123.5 27.5
t-96.5 58.5t-35.5 95q0 88 66 160q58 -39 146.5 -66t182.5 -27q99 0 153 37.5t54 100.5q0 35 -19.5 64t-53 49.5t-77 39t-91.5 38.5t-95.5 42.5t-91 55t-77 73t-53 99.5t-19.5 131q0 185 124 295t355 110z" />
    <glyph glyph-name="T" unicode="T" horiz-adv-x="1105" 
d="M686 1106v-1106h-268v1106h-393v235h1054v-235h-393z" />
    <glyph glyph-name="U" unicode="U" horiz-adv-x="1439" 
d="M1266 510q0 -143 -40 -247.5t-115.5 -166.5t-176 -91.5t-229.5 -29.5q-94 0 -171.5 15.5t-146 53t-115 96.5t-73.5 151t-27 211v839h268v-829q0 -148 70.5 -222.5t204.5 -74.5q138 0 211 71t73 216v839h267v-831z" />
    <glyph glyph-name="V" unicode="V" horiz-adv-x="1214" 
d="M0 1341h303l311 -1052l306 1052h294l-454 -1341h-303z" />
    <glyph glyph-name="W" unicode="W" horiz-adv-x="1941" 
d="M967 1044l-267 -1044h-344l-309 1341h299l197 -1052l260 1052h344l266 -1052l201 1052h280l-307 -1341h-352z" />
    <glyph glyph-name="X" unicode="X" horiz-adv-x="1189" 
d="M737 682l428 -682h-331l-244 434l-248 -434h-319l426 672l-420 669h329l240 -423l244 423h317z" />
    <glyph glyph-name="Y" unicode="Y" horiz-adv-x="1148" 
d="M444 504l-467 837h322l279 -563l270 563h323l-458 -821v-520h-269v504z" />
    <glyph glyph-name="Z" unicode="Z" horiz-adv-x="1183" 
d="M729 1108h-602v233h938v-204l-621 -899h639v-238h-977v213z" />
    <glyph glyph-name="bracketleft" unicode="[" horiz-adv-x="700" 
d="M223 1464h477v-198h-235v-1467h235v-198h-477v1863z" />
    <glyph glyph-name="backslash" unicode="\" horiz-adv-x="755" 
d="M733 -143l-221 -66l-522 1704l223 66z" />
    <glyph glyph-name="bracketright" unicode="]" horiz-adv-x="716" 
d="M477 -399h-477v198h236v1467h-236v198h477v-1863z" />
    <glyph glyph-name="asciicircum" unicode="^" horiz-adv-x="1177" 
d="M553 1165l-205 -213q-75 -78 -139 -78q-92 0 -150 134l492 481l358 -336q88 -82 88 -156q0 -84 -125 -143z" />
    <glyph glyph-name="underscore" unicode="_" horiz-adv-x="1101" 
d="M0 -365v236h1102v-236h-1102z" />
    <glyph glyph-name="grave" unicode="`" horiz-adv-x="1083" 
d="M616 1124l-258 207q-50 40 -69 69.5t-19 63.5q0 93 129 152l254 -203q51 -41 70.5 -71t19.5 -62q0 -96 -127 -156z" />
    <glyph glyph-name="a" unicode="a" horiz-adv-x="1116" 
d="M592 635q68 0 113 -10v39q0 159 -191 159q-161 0 -311 -86q-51 60 -51 129q0 88 111 135.5t294 47.5q220 0 315 -99.5t95 -285.5v-664h-197q-37 68 -45 145h-12q-55 -170 -289 -170q-148 0 -234 80.5t-86 231.5q0 179 118 263.5t370 84.5zM600 459q-221 0 -221 -142
q0 -51 34 -81.5t105 -30.5q111 0 187 69v177q-54 8 -105 8z" />
    <glyph glyph-name="b" unicode="b" horiz-adv-x="1183" 
d="M162 43v1421h264v-354q0 -151 -16 -242h16q25 91 102 136t185 45q190 0 282 -128.5t92 -355.5q0 -590 -534 -590q-226 0 -391 68zM426 223q46 -20 135 -20q250 0 250 336q0 134 -50.5 196t-148.5 62q-104 0 -186 -52v-522z" />
    <glyph glyph-name="c" unicode="c" horiz-adv-x="1001" 
d="M854 752q-83 61 -227 61q-121 0 -187.5 -80.5t-66.5 -228.5q0 -134 67.5 -212.5t194.5 -78.5q67 0 130.5 20.5t100.5 49.5q52 -58 52 -140q0 -81 -88 -124.5t-234 -43.5q-132 0 -229.5 36.5t-156 105.5t-86.5 160t-28 208q0 169 57.5 294.5t177.5 197.5t292 72
q50 0 94.5 -6.5t90 -22t72.5 -48.5t27 -79q0 -73 -53 -141z" />
    <glyph glyph-name="d" unicode="d" horiz-adv-x="1183" 
d="M758 1032v432h264v-1464h-207q-32 65 -45 156h-12q-25 -91 -101 -136t-184 -45q-97 0 -170 37t-118 104.5t-67 157.5t-22 201q0 281 125 427.5t371 146.5q83 0 166 -17zM758 795q-65 26 -144 26q-241 0 -241 -325q0 -140 48 -204.5t150 -64.5q101 0 187 58v510z" />
    <glyph glyph-name="e" unicode="e" horiz-adv-x="1101" 
d="M371 463q17 -134 87.5 -195t200.5 -61q162 0 283 74q39 -61 39 -127q0 -61 -53 -102.5t-134.5 -59t-185.5 -17.5q-251 0 -381.5 133.5t-130.5 397.5q0 115 31.5 213.5t91 172t152 115.5t207.5 42q206 0 316 -123.5t110 -319.5q0 -50 -15 -143h-618zM371 639h374
q0 101 -45 154t-125 53q-82 0 -134.5 -53.5t-69.5 -153.5z" />
    <glyph glyph-name="f" unicode="f" horiz-adv-x="731" 
d="M461 0h-264v821h-154v203h154v70q0 189 102.5 292t300.5 103q266 0 266 -137q0 -80 -47 -138q-78 46 -194 46q-90 0 -127 -47.5t-37 -135.5v-53h282v-203h-282v-821z" />
    <glyph glyph-name="g" unicode="g" horiz-adv-x="1128" 
d="M248 29q-80 53 -80 139q0 148 170 188q-120 36 -183 120t-63 202q0 95 34 167t96.5 116t145 66t183.5 22q100 0 180 -25h367q10 -39 10 -92q0 -107 -84 -107q-2 0 -7 1t-23.5 3t-47.5 5q29 -62 29 -144q0 -160 -110 -260t-328 -100q-57 0 -109 6q-22 -25 -22 -68
q0 -29 22 -46t59 -17h293q137 0 213 -67.5t76 -188.5q0 -172 -135.5 -272.5t-403.5 -100.5q-238 0 -358.5 63.5t-120.5 202.5q0 83 54.5 132t142.5 55zM543 868q-94 0 -144.5 -47t-50.5 -133q0 -80 52 -126t141 -46q84 0 134 49t50 131q0 77 -49 124.5t-133 47.5zM322 -4
q-23 -36 -23 -82q0 -150 250 -150q125 0 192.5 37.5t67.5 98.5q0 36 -25.5 58t-70.5 22h-258q-84 0 -133 16z" />
    <glyph glyph-name="h" unicode="h" horiz-adv-x="1200" 
d="M426 0h-264v1464h264v-336q0 -161 -20 -264h10q34 94 108.5 139.5t198.5 45.5q326 0 326 -342v-707h-265v618q0 91 -37 135t-118 44q-121 0 -203 -49v-748z" />
    <glyph glyph-name="i" unicode="i" horiz-adv-x="587" 
d="M426 1024v-1024h-264v1024h264zM295 1495q75 0 119.5 -44.5t44.5 -115.5q0 -70 -44.5 -113.5t-119.5 -43.5q-78 0 -123 43.5t-45 113.5q0 72 45 116t123 44z" />
    <glyph glyph-name="j" unicode="j" horiz-adv-x="587" 
d="M162 86v938h264v-1034q0 -177 -94 -295.5t-248 -118.5q-92 0 -133 36.5t-41 113.5q0 31 4 59q76 4 125.5 24.5t76 60.5t36.5 90.5t10 125.5zM295 1495q75 0 119.5 -44.5t44.5 -115.5q0 -70 -44.5 -113.5t-119.5 -43.5q-77 0 -122.5 43.5t-45.5 113.5q0 71 45.5 115.5
t122.5 44.5z" />
    <glyph glyph-name="k" unicode="k" horiz-adv-x="1118" 
d="M426 0h-264v1464h264v-1464zM430 532l352 492h322l-373 -477l389 -547h-329z" />
    <glyph glyph-name="l" unicode="l" horiz-adv-x="587" 
d="M162 0v1464h264v-1464h-264z" />
    <glyph glyph-name="m" unicode="m" horiz-adv-x="1796" 
d="M1036 748v-748h-266v614q0 94 -35 138.5t-112 44.5q-120 0 -197 -49v-748h-264v1024h198q40 -82 43 -160h15q30 95 100 140t195 45q233 0 301 -185h12q30 94 101 139.5t194 45.5q324 0 324 -342v-707h-265v614q0 94 -35 138.5t-112 44.5q-120 0 -197 -49z" />
    <glyph glyph-name="n" unicode="n" horiz-adv-x="1200" 
d="M426 727v-727h-264v1024h198q40 -82 43 -160h15q29 94 103 139.5t202 45.5q326 0 326 -342v-707h-265v631q0 170 -143 170q-111 0 -215 -74z" />
    <glyph glyph-name="o" unicode="o" horiz-adv-x="1163" 
d="M598 1049q217 0 343 -132.5t126 -386.5q0 -270 -135 -412.5t-361 -142.5q-228 0 -351.5 133t-123.5 396q0 257 137 401t365 144zM594 823q-219 0 -219 -311q0 -152 52 -230.5t153 -78.5q208 0 208 325q0 140 -49 217.5t-145 77.5z" />
    <glyph glyph-name="p" unicode="p" horiz-adv-x="1183" 
d="M426 -6v-393h-264v1423h198q33 -66 43 -162h15q27 93 107 140t192 47q189 0 279.5 -128t90.5 -356q0 -284 -121.5 -437t-359.5 -153q-118 0 -180 19zM426 223q51 -22 135 -22q132 0 191 87t59 251q0 136 -49 198t-146 62q-101 0 -190 -54v-522z" />
    <glyph glyph-name="q" unicode="q" horiz-adv-x="1183" 
d="M1022 981v-1378h-264v311q0 163 14 242h-14q-22 -89 -100.5 -135t-190.5 -46q-190 0 -280.5 128t-90.5 356q0 590 537 590q109 0 218 -19.5t171 -48.5zM758 801q-46 20 -133 20q-133 0 -192.5 -86t-59.5 -250q0 -136 49 -198t147 -62q100 0 189 54v522z" />
    <glyph glyph-name="r" unicode="r" horiz-adv-x="835" 
d="M162 1024h192q41 -93 47 -195h15q13 99 72.5 159.5t173.5 60.5q94 0 139 -36.5t45 -101.5q0 -93 -60 -172q-58 49 -170 49q-142 0 -190 -108v-680h-264v1024z" />
    <glyph glyph-name="s" unicode="s" horiz-adv-x="899" 
d="M502 1049q57 0 107 -7.5t96 -24.5t73 -49t27 -77q0 -70 -55 -131q-116 78 -246 78q-137 0 -137 -93q0 -31 25.5 -54.5t66 -39t90 -31.5t99 -39t90 -53.5t66 -83t25.5 -120.5q0 -171 -112 -260t-314 -89q-54 0 -105 7t-103 24.5t-83.5 53t-31.5 85.5q0 81 53 134
q120 -82 268 -82q76 0 115 24.5t39 65.5q0 32 -25.5 55t-66 38.5t-89.5 31.5t-98.5 39.5t-90 56t-66 88.5t-25.5 129q0 150 104.5 237t303.5 87z" />
    <glyph glyph-name="t" unicode="t" horiz-adv-x="843" 
d="M461 1260v-236h317v-203h-317v-461q0 -76 31 -107.5t96 -31.5q99 0 180 58q59 -62 59 -134q0 -75 -78.5 -122.5t-216.5 -47.5q-171 0 -253 80.5t-82 251.5v514h-154v203h154v66q0 178 182 178q42 0 82 -8z" />
    <glyph glyph-name="u" unicode="u" horiz-adv-x="1200" 
d="M776 276v748h262v-1024h-196q-38 81 -47 160h-11q-60 -185 -303 -185q-329 0 -329 342v707h264v-616q0 -181 155 -181q120 0 205 49z" />
    <glyph glyph-name="v" unicode="v" horiz-adv-x="1038" 
d="M1032 1024l-358 -1024h-307l-361 1024h297l223 -758l222 758h284z" />
    <glyph glyph-name="w" unicode="w" horiz-adv-x="1679" 
d="M836 778l-228 -778h-313l-281 1024h289l168 -758l211 758h322l215 -758l163 758h275l-281 -1024h-319z" />
    <glyph glyph-name="x" unicode="x" horiz-adv-x="1040" 
d="M666 528l366 -528h-327l-187 301l-190 -301h-316l365 522l-350 502h325l172 -276l174 276h318z" />
    <glyph glyph-name="y" unicode="y" horiz-adv-x="1030" 
d="M391 43l-377 981h297l221 -705l226 705h274l-356 -948q-189 -500 -504 -500q-166 0 -166 145q0 33 12 74q284 0 373 248z" />
    <glyph glyph-name="z" unicode="z" horiz-adv-x="1046" 
d="M588 799h-459v225h795v-201l-471 -596h489v-227h-831v209z" />
    <glyph glyph-name="braceleft" unicode="{" horiz-adv-x="714" 
d="M279 1188q0 134 72 205t204 71h160v-198h-101q-42 0 -68 -27t-26 -70v-329q0 -103 -60 -182t-138 -101q77 -22 137.5 -101.5t60.5 -181.5v-378q0 -43 26 -70t68 -27h101v-198h-160q-132 0 -204 71t-72 205v359q0 109 -52 159.5t-143 65.5v184q92 20 143.5 69.5
t51.5 155.5v318z" />
    <glyph glyph-name="bar" unicode="|" horiz-adv-x="681" 
d="M221 -399v1863h240v-1863h-240z" />
    <glyph glyph-name="braceright" unicode="}" horiz-adv-x="714" 
d="M436 -123q0 -134 -72 -205t-204 -71h-160v198h100q43 0 69 27t26 70v376q0 103 61 182t139 101q-78 22 -139 101t-61 182v331q0 43 -26 70t-69 27h-100v198h160q132 0 204 -71t72 -205v-318q0 -106 51.5 -155.5t143.5 -69.5v-184q-91 -17 -143 -67t-52 -158v-359z" />
    <glyph glyph-name="asciitilde" unicode="~" horiz-adv-x="1177" 
d="M115 555q0 79 62.5 130.5t160.5 51.5q115 0 249.5 -40t231.5 -40q117 0 203 70q41 -59 41 -121q0 -79 -62 -131.5t-153 -52.5q-97 0 -178.5 20t-156.5 40t-157 20q-118 0 -204 -70q-37 49 -37 123z" />
    <glyph glyph-name="uni00A0" unicode="&#xa0;" horiz-adv-x="368" 
 />
    <glyph glyph-name="exclamdown" unicode="&#xa1;" horiz-adv-x="616" 
d="M420 567l35 -884h-301l34 884h232zM305 721q-74 0 -120 45.5t-46 118.5q0 74 46.5 120t119.5 46q75 0 121.5 -44.5t46.5 -119.5t-46.5 -120.5t-121.5 -45.5z" />
    <glyph glyph-name="cent" unicode="&#xa2;" horiz-adv-x="1083" 
d="M707 1047q241 -13 241 -154q0 -73 -53 -141q-83 61 -227 61q-121 0 -188.5 -80.5t-67.5 -228.5q0 -134 67.5 -212.5t196.5 -78.5q66 0 129 20.5t100 49.5q51 -54 51 -140q0 -69 -67 -111.5t-182 -51.5v-164h-215v174q-355 69 -355 495q0 210 90 352.5t265 188.5v186h215
v-165z" />
    <glyph glyph-name="sterling" unicode="&#xa3;" horiz-adv-x="1083" 
d="M887 698h-334v-477h416v-221h-897v221h217v477h-178v203h178v43q0 196 116.5 309t342.5 113q294 0 294 -154q0 -60 -45 -120q-100 47 -227 47q-120 0 -168.5 -52.5t-48.5 -158.5v-27h334v-203z" />
    <glyph glyph-name="currency" unicode="&#xa4;" horiz-adv-x="1318" 
d="M1081 244l152 -152l-154 -153l-151 153q-122 -72 -266 -72q-149 0 -269 74l-153 -155l-154 153l156 154q-72 118 -72 264q0 143 72 268l-156 154l154 153l155 -155q117 74 267 74q138 0 266 -72l151 153l154 -153l-154 -152q74 -125 74 -270q0 -144 -72 -266zM662 776
q-107 0 -178.5 -77t-71.5 -187q0 -111 71 -187.5t179 -76.5t178.5 76.5t70.5 187.5q0 110 -71 187t-178 77z" />
    <glyph glyph-name="yen" unicode="&#xa5;" horiz-adv-x="1382" 
d="M829 233v-233h-268v233h-387v173h387v100l-20 37h-367v172h270l-350 626h320l280 -567l271 567h321l-350 -626h278v-172h-372l-13 -21v-116h385v-173h-385z" />
    <glyph glyph-name="brokenbar" unicode="&#xa6;" horiz-adv-x="681" 
d="M461 379v-778h-240v778h240zM221 707v757h240v-757h-240z" />
    <glyph glyph-name="section" unicode="&#xa7;" horiz-adv-x="1091" 
d="M276 786q-106 89 -106 226q0 158 117 256t327 98q59 0 111.5 -8t100.5 -25.5t76 -51.5t28 -81q0 -74 -58 -135q-48 35 -116 58.5t-142 23.5q-79 0 -123.5 -30.5t-44.5 -78.5q0 -33 29.5 -59.5t76.5 -47t103.5 -41.5t113.5 -50t104 -65.5t76.5 -94.5t29.5 -131
q0 -192 -160 -285q103 -86 103 -209q0 -178 -125.5 -279.5t-337.5 -101.5q-57 0 -111 8t-108.5 26t-87.5 55.5t-33 89.5q0 86 55 135q130 -86 283 -86q81 0 132.5 31t51.5 79q0 29 -22.5 53.5t-60 41.5t-85 37t-96.5 39t-96.5 49.5t-85 66.5t-60 91.5t-22.5 123.5
q0 185 163 272zM487 678q-44 -16 -67 -53.5t-23 -75.5q0 -32 14.5 -57t47 -47t59.5 -35t78 -35q44 19 69 58t25 73q0 25 -11.5 47t-27.5 37.5t-46.5 32.5t-53.5 27.5t-64 27.5z" />
    <glyph glyph-name="dieresis" unicode="&#xa8;" horiz-adv-x="1204" 
d="M369 1470q70 0 112.5 -40.5t42.5 -108.5q0 -70 -42.5 -111t-112.5 -41t-114 41t-44 111q0 68 44 108.5t114 40.5zM825 1470q70 0 113 -40.5t43 -108.5q0 -69 -43.5 -110.5t-112.5 -41.5q-70 0 -112.5 41t-42.5 111q0 68 42.5 108.5t112.5 40.5z" />
    <glyph glyph-name="copyright" unicode="&#xa9;" horiz-adv-x="1648" 
d="M825 1368q201 0 360 -89t248 -248t89 -359t-89 -359.5t-248.5 -248.5t-359.5 -89t-359 89t-248 248t-89 360q0 200 89 359t248 248t359 89zM825 1212q-112 0 -209 -41.5t-164.5 -113.5t-106 -172t-38.5 -213q0 -231 146 -386t372 -155t371 155t145 386t-145 385.5
t-371 154.5zM1038 848q-62 47 -164 47q-194 0 -194 -225q0 -96 50 -153.5t147 -57.5q49 0 96.5 15t75.5 36q41 -41 41 -109q0 -62 -66.5 -95.5t-179.5 -33.5q-100 0 -174.5 28.5t-118.5 80.5t-65 120.5t-21 153.5q0 193 102 308.5t297 115.5q39 0 73 -4.5t68.5 -16.5t55 -37
t20.5 -60q0 -58 -43 -113z" />
    <glyph glyph-name="ordfeminine" unicode="&#xaa;" horiz-adv-x="903" 
d="M492 1186q52 0 79 -6v28q0 113 -137 113q-111 0 -241 -70q-37 42 -37 95q0 70 86.5 106.5t232.5 36.5q309 0 309 -281v-481h-166q-23 49 -32 104h-8q-19 -59 -75.5 -90.5t-142.5 -31.5q-107 0 -173 59t-66 166q0 252 371 252zM498 1057q-76 0 -116 -25.5t-40 -73.5
q0 -35 24 -56t74 -21q76 0 131 47v123q-27 6 -73 6z" />
    <glyph glyph-name="guillemotleft" unicode="&#xab;" horiz-adv-x="1136" 
d="M315 569l117 -133q25 -28 39 -46t28.5 -48.5t14.5 -58.5q0 -105 -186 -146l-287 416q44 91 192 317q62 99 132 99q87 0 167 -105zM854 569l117 -133q25 -28 39 -46t28.5 -48.5t14.5 -58.5q0 -105 -187 -146l-286 416q44 91 192 317q62 99 131 99q88 0 168 -105z" />
    <glyph glyph-name="logicalnot" unicode="&#xac;" horiz-adv-x="1177" 
d="M141 702h860v-454h-247v221h-613v233z" />
    <glyph glyph-name="uni00AD" unicode="&#xad;" horiz-adv-x="786" 
d="M686 688v-237h-588v237h588z" />
    <glyph glyph-name="registered" unicode="&#xae;" horiz-adv-x="1067" 
d="M541 1489q198 0 326 -128.5t128 -326.5t-128 -326t-326 -128t-326.5 128t-128.5 326t128.5 326.5t326.5 128.5zM541 1378q-146 0 -241 -98t-95 -246t95 -246t241 -98q147 0 242.5 98t95.5 246t-95.5 246t-242.5 98zM639 993l111 -209h-136l-82 174q-5 5 -12 5h-33v-179
h-116v498h202q82 0 122 -40.5t40 -104.5q0 -97 -96 -144zM487 1188v-127h41q41 0 61.5 19t20.5 50q0 28 -17.5 43t-45.5 15h-60z" />
    <glyph glyph-name="macron" unicode="&#xaf;" horiz-adv-x="1198" 
d="M909 1413v-205h-628v205h628z" />
    <glyph glyph-name="degree" unicode="&#xb0;" horiz-adv-x="929" 
d="M90 1098q0 168 108 279.5t285 111.5q170 0 272.5 -106.5t102.5 -270.5q0 -168 -107.5 -279.5t-281.5 -111.5q-175 0 -277 105.5t-102 271.5zM313 1100q0 -75 41.5 -124.5t114.5 -49.5q76 0 121 54t45 130t-40.5 126t-113.5 50q-78 0 -123 -54t-45 -132z" />
    <glyph glyph-name="plusminus" unicode="&#xb1;" horiz-adv-x="1177" 
d="M457 969v372h264v-372h371v-236h-371v-391h-264v391h-369v236h369zM88 236h1004v-236h-1004v236z" />
    <glyph glyph-name="twosuperior" unicode="&#xb2;" 
d="M420 1483q164 0 248 -79t84 -216q0 -146 -113 -273t-291 -204h420v-201h-674v188q108 77 171 126t126.5 109t92 112.5t28.5 105.5q0 55 -31.5 85t-93.5 30q-71 0 -139 -25.5t-117 -66.5q-47 50 -47 114q0 90 91.5 142.5t244.5 52.5z" />
    <glyph glyph-name="threesuperior" unicode="&#xb3;" 
d="M567 1020v-6q93 -13 146 -78t53 -158q0 -128 -106 -209.5t-271 -81.5q-146 0 -218.5 38.5t-72.5 127.5q0 55 35 99q114 -60 211 -60q87 0 134.5 31.5t47.5 79.5q0 96 -180 96h-143v170q307 3 307 117q0 86 -121 86q-66 0 -120 -18t-119 -54q-46 52 -46 105q0 85 84 131.5
t244 46.5q149 0 229 -64.5t80 -173.5q0 -168 -174 -225z" />
    <glyph glyph-name="acute" unicode="&#xb4;" horiz-adv-x="1120" 
d="M426 1268l238 243q72 72 133 72q93 0 151 -137l-237 -242q-71 -71 -133 -71q-94 0 -152 135z" />
    <glyph glyph-name="uni00B5" unicode="&#xb5;" horiz-adv-x="1210" 
d="M162 1024h264v-616q0 -181 156 -181q119 0 204 49v748h263v-1024h-197q-38 81 -47 160h-10q-60 -185 -303 -185q-39 0 -66 15v-389h-264v1423z" />
    <glyph glyph-name="paragraph" unicode="&#xb6;" horiz-adv-x="1509" 
d="M528 549q-206 0 -318 113t-112 301q0 189 104 283.5t292 94.5h331v-1740h-264v948h-33zM1063 0v1341h264v-1341h-264z" />
    <glyph glyph-name="periodcentered" unicode="&#xb7;" horiz-adv-x="571" 
d="M287 776q79 0 126.5 -51t47.5 -133t-46.5 -131t-127.5 -49q-82 0 -129 48.5t-47 131.5t47.5 133.5t128.5 50.5z" />
    <glyph glyph-name="cedilla" unicode="&#xb8;" horiz-adv-x="1034" 
d="M342 -256q16 -6 41 -6q43 0 67.5 26t24.5 64q0 37 -20 63q25 25 110 25q48 0 103 -10q11 -14 19.5 -46t8.5 -65q0 -81 -56.5 -147t-143.5 -66q-83 0 -120.5 38.5t-37.5 90.5q0 13 4 33z" />
    <glyph glyph-name="onesuperior" unicode="&#xb9;" 
d="M365 1255l-232 -75q-31 72 -31 116q0 79 89.5 125.5t252.5 46.5q121 0 160 -2v-764h209v-192h-688v192h240v553z" />
    <glyph glyph-name="ordmasculine" unicode="&#xba;" horiz-adv-x="921" 
d="M473 1489q165 0 266 -96t101 -279q0 -195 -106.5 -299t-278.5 -104q-176 0 -274.5 97t-98.5 286q0 185 108.5 290t282.5 105zM469 1315q-76 0 -115 -57t-39 -158q0 -105 38 -159t108 -54q72 0 109.5 57.5t37.5 167.5q0 96 -36.5 149.5t-102.5 53.5z" />
    <glyph glyph-name="guillemotright" unicode="&#xbb;" horiz-adv-x="1136" 
d="M283 537l-115 133q-84 97 -84 149q0 109 186 150l289 -416q-14 -29 -42 -76.5t-51.5 -84.5t-56.5 -89.5t-42 -66.5q-65 -99 -134 -99q-84 0 -167 105zM821 537l-114 133q-84 97 -84 149q0 109 186 150l289 -416q-18 -38 -52.5 -94.5t-85.5 -136.5t-55 -86
q-65 -99 -133 -99q-85 0 -168 105z" />
    <glyph glyph-name="onequarter" unicode="&#xbc;" horiz-adv-x="2201" 
d="M2011 215v-215h-229v215h-422v182l393 557h258v-551h137v-188h-137zM563 -127l936 1659l187 -111l-936 -1657zM332 1139l-223 -70q-31 68 -31 117q0 78 85.5 122t248.5 44q120 0 159 -2v-764h205v-193h-678v193h234v553zM1782 403v308l-209 -308h209z" />
    <glyph glyph-name="onehalf" unicode="&#xbd;" horiz-adv-x="2197" 
d="M563 -127l936 1659l187 -111l-936 -1657zM1833 973q164 0 247 -79t83 -216q0 -146 -112.5 -273t-289.5 -204h420v-201h-674v188q108 77 171 126t126.5 109t92 112.5t28.5 105.5q0 55 -31.5 85t-93.5 30q-71 0 -139 -25.5t-117 -66.5q-47 50 -47 114q0 90 91.5 142.5
t244.5 52.5zM332 1139l-223 -70q-31 68 -31 117q0 78 85.5 122t248.5 44q120 0 159 -2v-764h205v-193h-678v193h234v553z" />
    <glyph glyph-name="threequarters" unicode="&#xbe;" horiz-adv-x="2201" 
d="M2011 215v-215h-229v215h-422v182l393 557h258v-551h137v-188h-137zM584 903v-6q93 -13 145.5 -77.5t52.5 -157.5q0 -129 -105.5 -210t-270.5 -81q-147 0 -220 38.5t-73 127.5q0 54 37 100q101 -59 210 -59q86 0 133.5 30t47.5 78q0 96 -179 96h-143v170q307 3 307 119
q0 84 -123 84q-65 0 -119 -18t-118 -54q-45 48 -45 105q0 86 83.5 132t244.5 46q149 0 229 -64.5t80 -171.5q0 -170 -174 -227zM563 -127l936 1659l187 -111l-936 -1657zM1782 403v308l-209 -308h209z" />
    <glyph glyph-name="questiondown" unicode="&#xbf;" horiz-adv-x="921" 
d="M100 -23q0 63 16.5 115t42.5 86.5t57 64.5t62.5 57t57.5 56.5t42.5 70.5t16.5 91q0 57 -12 94q62 21 133 21q63 0 98 -45t35 -121q0 -72 -28 -128t-67.5 -90.5t-79 -66t-67.5 -72t-28 -90.5q0 -63 43.5 -98t128.5 -35q114 0 203 54q32 -50 32 -117q0 -68 -67 -117
t-211 -49q-184 0 -296 92.5t-112 226.5zM494 721q-73 0 -119.5 44.5t-46.5 117.5q0 74 46.5 120t119.5 46q75 0 121.5 -44.5t46.5 -119.5t-46.5 -119.5t-121.5 -44.5z" />
    <glyph glyph-name="Agrave" unicode="&#xc0;" horiz-adv-x="1214" 
d="M823 307h-438l-90 -307h-295l455 1341h303l456 -1341h-303zM760 524l-158 529l-156 -529h314zM616 1401l-258 207q-50 40 -69 69.5t-19 63.5q0 92 129 151l254 -202q51 -41 70.5 -71.5t19.5 -62.5q0 -95 -127 -155z" />
    <glyph glyph-name="Aacute" unicode="&#xc1;" horiz-adv-x="1214" 
d="M823 307h-438l-90 -307h-295l455 1341h303l456 -1341h-303zM760 524l-158 529l-156 -529h314zM446 1544l238 244q72 72 133 72q94 0 152 -138l-238 -241q-72 -72 -133 -72q-94 0 -152 135z" />
    <glyph glyph-name="Acircumflex" unicode="&#xc2;" horiz-adv-x="1214" 
d="M823 307h-438l-90 -307h-295l455 1341h303l456 -1341h-303zM760 524l-158 529l-156 -529h314zM608 1563l-106 -84q-78 -60 -121 -60q-55 0 -90.5 40t-57.5 122l363 234q149 -64 248 -125q102 -63 102 -129q0 -84 -90 -156z" />
    <glyph glyph-name="Atilde" unicode="&#xc3;" horiz-adv-x="1214" 
d="M823 307h-438l-90 -307h-295l455 1341h303l456 -1341h-303zM760 524l-158 529l-156 -529h314zM211 1585q0 75 53 118.5t131 43.5q75 0 176 -30.5t158 -30.5q100 0 172 57q19 -23 31 -58.5t12 -62.5q0 -76 -51.5 -119t-124.5 -43q-79 0 -182 30t-160 30q-97 0 -172 -56
q-19 24 -31 58.5t-12 62.5z" />
    <glyph glyph-name="Adieresis" unicode="&#xc4;" horiz-adv-x="1214" 
d="M823 307h-438l-90 -307h-295l455 1341h303l456 -1341h-303zM760 524l-158 529l-156 -529h314zM350 1747q70 0 113 -41t43 -109q0 -70 -43 -110.5t-113 -40.5t-113.5 40.5t-43.5 110.5q0 68 43.5 109t113.5 41zM809 1747q70 0 113 -41t43 -109q0 -70 -43 -110.5
t-113 -40.5t-114 41t-44 110q0 68 44 109t114 41z" />
    <glyph glyph-name="Aring" unicode="&#xc5;" horiz-adv-x="1214" 
d="M440 1300q-65 53 -65 150q0 90 65 149.5t166 59.5q106 0 168 -58.5t62 -150.5t-64 -150l442 -1300h-303l-88 307h-438l-90 -307h-295zM760 524l-158 529l-156 -529h314zM694 1450q0 40 -24 65t-64 25t-64 -25t-24 -65t24.5 -66t63.5 -26t63.5 26t24.5 66z" />
    <glyph glyph-name="AE" unicode="&#xc6;" horiz-adv-x="1773" 
d="M1651 1341v-239h-512v-305h475v-234h-475v-321h512v-242h-781v307h-432l-159 -307h-340l749 1341h963zM870 1118h-14l-307 -594h321v594z" />
    <glyph glyph-name="Ccedilla" unicode="&#xc7;" horiz-adv-x="1228" 
d="M1083 348q41 -30 63.5 -73.5t22.5 -88.5q0 -68 -68 -117.5t-165.5 -71.5t-206.5 -22q-639 0 -639 680q0 174 48 309.5t136 223t209.5 133t270.5 45.5q75 0 145.5 -12t129 -35.5t93.5 -63t35 -88.5q0 -85 -90 -159q-124 108 -313 108q-179 0 -280 -115.5t-101 -341.5
q0 -213 100 -320.5t277 -107.5q109 0 195 35t138 82zM477 -258q16 -6 41 -6q43 0 67.5 26t24.5 64q0 37 -20 63q25 25 110 25q48 0 103 -10q11 -14 19.5 -46t8.5 -65q0 -81 -56.5 -147t-143.5 -66q-83 0 -120.5 38.5t-37.5 90.5q0 13 4 33z" />
    <glyph glyph-name="Egrave" unicode="&#xc8;" horiz-adv-x="1142" 
d="M182 0v1341h838v-235h-569v-309h532v-230h-532v-327h569v-240h-838zM627 1411l-258 207q-50 40 -69 69.5t-19 63.5q0 93 129 152l254 -203q51 -41 70.5 -71t19.5 -62q0 -96 -127 -156z" />
    <glyph glyph-name="Eacute" unicode="&#xc9;" horiz-adv-x="1142" 
d="M182 0v1341h838v-235h-569v-309h532v-230h-532v-327h569v-240h-838zM467 1544l238 244q72 72 133 72q93 0 151 -138l-237 -241q-72 -72 -134 -72q-93 0 -151 135z" />
    <glyph glyph-name="Ecircumflex" unicode="&#xca;" horiz-adv-x="1142" 
d="M182 0v1341h838v-235h-569v-309h532v-230h-532v-327h569v-240h-838zM598 1563l-106 -84q-78 -60 -121 -60q-55 0 -90.5 40t-57.5 122l363 234q149 -64 248 -125q102 -63 102 -129q0 -84 -90 -156z" />
    <glyph glyph-name="Edieresis" unicode="&#xcb;" horiz-adv-x="1142" 
d="M182 0v1341h838v-235h-569v-309h532v-230h-532v-327h569v-240h-838zM379 1747q70 0 113 -41t43 -109q0 -70 -43 -110.5t-113 -40.5t-114 41t-44 110q0 68 44 109t114 41zM838 1747q70 0 112.5 -41t42.5 -109q0 -70 -42.5 -110.5t-112.5 -40.5t-114 41t-44 110
q0 68 44 109t114 41z" />
    <glyph glyph-name="Igrave" unicode="&#xcc;" horiz-adv-x="632" 
d="M182 0v1341h269v-1341h-269zM340 1401l-258 207q-50 40 -69 69.5t-19 63.5q0 92 129 151l254 -202q51 -41 70.5 -71.5t19.5 -62.5q0 -95 -127 -155z" />
    <glyph glyph-name="Iacute" unicode="&#xcd;" horiz-adv-x="632" 
d="M182 0v1341h269v-1341h-269zM172 1544l238 244q72 72 133 72q93 0 151 -138l-237 -241q-72 -72 -133 -72q-94 0 -152 135z" />
    <glyph glyph-name="Icircumflex" unicode="&#xce;" horiz-adv-x="632" 
d="M182 0v1341h269v-1341h-269zM315 1563l-106 -84q-78 -60 -121 -60q-55 0 -89.5 40t-57.5 122l362 234q149 -64 248 -125q102 -63 102 -129q0 -84 -90 -156z" />
    <glyph glyph-name="Idieresis" unicode="&#xcf;" horiz-adv-x="632" 
d="M182 0v1341h269v-1341h-269zM88 1747q70 0 113 -41t43 -109q0 -70 -43 -110.5t-113 -40.5t-114 41t-44 110q0 68 44 109t114 41zM547 1747q70 0 112.5 -41t42.5 -109q0 -70 -42.5 -110.5t-112.5 -40.5t-114 41t-44 110q0 68 44 109t114 41z" />
    <glyph glyph-name="Eth" unicode="&#xd0;" horiz-adv-x="1415" 
d="M227 791v550h494q312 0 458 -162t146 -485q0 -341 -174.5 -517.5t-476.5 -176.5h-447v571h-188v220h188zM496 791h280v-220h-280v-331h157q391 0 391 448q0 93 -18.5 167.5t-57.5 132t-105 89t-156 31.5h-211v-317z" />
    <glyph glyph-name="Ntilde" unicode="&#xd1;" horiz-adv-x="1501" 
d="M182 1341h307l578 -956v956h252v-1341h-313l-574 946v-946h-250v1341zM381 1585q0 75 53 118.5t131 43.5q75 0 176 -30.5t158 -30.5q100 0 172 57q19 -23 31 -58.5t12 -62.5q0 -76 -51.5 -119t-124.5 -43q-79 0 -182 30t-160 30q-97 0 -172 -56q-19 24 -31 58.5t-12 62.5
z" />
    <glyph glyph-name="Ograve" unicode="&#xd2;" horiz-adv-x="1439" 
d="M739 1366q151 0 268.5 -50t192 -140.5t112.5 -212t38 -267.5q0 -339 -170 -530t-475 -191q-299 0 -457 179.5t-158 492.5q0 157 40 287t118.5 227t204 151t286.5 54zM729 1130q-91 0 -161 -37.5t-111 -102.5t-61.5 -146t-20.5 -176q0 -208 90 -330.5t254 -122.5
q116 0 196 61.5t116 163t36 236.5q0 132 -34.5 232t-112 161t-191.5 61zM760 1421l-258 207q-50 40 -69 69.5t-19 63.5q0 93 129 152l254 -203q51 -41 70.5 -71t19.5 -62q0 -96 -127 -156z" />
    <glyph glyph-name="Oacute" unicode="&#xd3;" horiz-adv-x="1439" 
d="M739 1366q151 0 268.5 -50t192 -140.5t112.5 -212t38 -267.5q0 -339 -170 -530t-475 -191q-299 0 -457 179.5t-158 492.5q0 157 40 287t118.5 227t204 151t286.5 54zM729 1130q-91 0 -161 -37.5t-111 -102.5t-61.5 -146t-20.5 -176q0 -208 90 -330.5t254 -122.5
q116 0 196 61.5t116 163t36 236.5q0 132 -34.5 232t-112 161t-191.5 61zM610 1565l238 243q72 72 133 72q94 0 152 -137l-238 -242q-71 -71 -133 -71q-94 0 -152 135z" />
    <glyph glyph-name="Ocircumflex" unicode="&#xd4;" horiz-adv-x="1439" 
d="M739 1366q151 0 268.5 -50t192 -140.5t112.5 -212t38 -267.5q0 -339 -170 -530t-475 -191q-299 0 -457 179.5t-158 492.5q0 157 40 287t118.5 227t204 151t286.5 54zM729 1130q-91 0 -161 -37.5t-111 -102.5t-61.5 -146t-20.5 -176q0 -208 90 -330.5t254 -122.5
q116 0 196 61.5t116 163t36 236.5q0 132 -34.5 232t-112 161t-191.5 61zM735 1563l-106 -84q-78 -60 -121 -60q-55 0 -90.5 40t-57.5 122l363 234q149 -64 248 -125q102 -63 102 -129q0 -84 -90 -156z" />
    <glyph glyph-name="Otilde" unicode="&#xd5;" horiz-adv-x="1439" 
d="M739 1366q151 0 268.5 -50t192 -140.5t112.5 -212t38 -267.5q0 -339 -170 -530t-475 -191q-299 0 -457 179.5t-158 492.5q0 157 40 287t118.5 227t204 151t286.5 54zM729 1130q-91 0 -161 -37.5t-111 -102.5t-61.5 -146t-20.5 -176q0 -208 90 -330.5t254 -122.5
q116 0 196 61.5t116 163t36 236.5q0 132 -34.5 232t-112 161t-191.5 61zM360 1585q0 75 53.5 118.5t131.5 43.5q75 0 176 -30.5t158 -30.5q100 0 172 57q19 -23 31 -58.5t12 -62.5q0 -76 -51.5 -119t-124.5 -43q-79 0 -182.5 30t-160.5 30q-97 0 -172 -56q-19 24 -31 58.5
t-12 62.5z" />
    <glyph glyph-name="Odieresis" unicode="&#xd6;" horiz-adv-x="1439" 
d="M739 1366q151 0 268.5 -50t192 -140.5t112.5 -212t38 -267.5q0 -339 -170 -530t-475 -191q-299 0 -457 179.5t-158 492.5q0 157 40 287t118.5 227t204 151t286.5 54zM729 1130q-91 0 -161 -37.5t-111 -102.5t-61.5 -146t-20.5 -176q0 -208 90 -330.5t254 -122.5
q116 0 196 61.5t116 163t36 236.5q0 132 -34.5 232t-112 161t-191.5 61zM506 1747q70 0 113 -41t43 -109q0 -70 -43 -110.5t-113 -40.5t-114 41t-44 110q0 68 44 109t114 41zM965 1747q70 0 112.5 -41t42.5 -109q0 -70 -42.5 -110.5t-112.5 -40.5t-114 41t-44 110
q0 68 44 109t114 41z" />
    <glyph glyph-name="multiply" unicode="&#xd7;" horiz-adv-x="1177" 
d="M590 360l-365 -364l-172 170l367 366l-367 365l172 172l365 -367l364 367l172 -172l-366 -365l366 -366l-172 -170z" />
    <glyph glyph-name="Oslash" unicode="&#xd8;" horiz-adv-x="1439" 
d="M1092 1272l188 221l143 -121l-194 -233q121 -170 121 -443q0 -339 -170 -530t-475 -191q-224 0 -369 103l-186 -223l-146 125l199 233q-113 165 -113 434q0 157 40 287t118.5 227t204 151t286.5 54q206 0 353 -94zM1038 915l-532 -636q87 -74 213 -74q118 0 200.5 63
t120 167.5t37.5 240.5q0 130 -39 239zM926 1077q-80 64 -197 64q-93 0 -164.5 -38.5t-114 -105t-64 -149.5t-21.5 -180q0 -134 34 -224z" />
    <glyph glyph-name="Ugrave" unicode="&#xd9;" horiz-adv-x="1439" 
d="M1266 510q0 -143 -40 -247.5t-115.5 -166.5t-176 -91.5t-229.5 -29.5q-94 0 -171.5 15.5t-146 53t-115 96.5t-73.5 151t-27 211v839h268v-829q0 -148 70.5 -222.5t204.5 -74.5q138 0 211 71t73 216v839h267v-831zM760 1401l-258 207q-50 40 -69 69.5t-19 63.5
q0 92 129 151l254 -202q51 -41 70.5 -71.5t19.5 -62.5q0 -95 -127 -155z" />
    <glyph glyph-name="Uacute" unicode="&#xda;" horiz-adv-x="1439" 
d="M1266 510q0 -143 -40 -247.5t-115.5 -166.5t-176 -91.5t-229.5 -29.5q-94 0 -171.5 15.5t-146 53t-115 96.5t-73.5 151t-27 211v839h268v-829q0 -148 70.5 -222.5t204.5 -74.5q138 0 211 71t73 216v839h267v-831zM590 1544l237 244q72 72 134 72q93 0 151 -138l-238 -241
q-72 -72 -133 -72q-93 0 -151 135z" />
    <glyph glyph-name="Ucircumflex" unicode="&#xdb;" horiz-adv-x="1439" 
d="M1266 510q0 -143 -40 -247.5t-115.5 -166.5t-176 -91.5t-229.5 -29.5q-94 0 -171.5 15.5t-146 53t-115 96.5t-73.5 151t-27 211v839h268v-829q0 -148 70.5 -222.5t204.5 -74.5q138 0 211 71t73 216v839h267v-831zM727 1563l-106 -84q-78 -60 -121 -60q-55 0 -90.5 40
t-57.5 122l363 234q149 -64 248 -125q102 -63 102 -129q0 -84 -90 -156z" />
    <glyph glyph-name="Udieresis" unicode="&#xdc;" horiz-adv-x="1439" 
d="M1266 510q0 -143 -40 -247.5t-115.5 -166.5t-176 -91.5t-229.5 -29.5q-94 0 -171.5 15.5t-146 53t-115 96.5t-73.5 151t-27 211v839h268v-829q0 -148 70.5 -222.5t204.5 -74.5q138 0 211 71t73 216v839h267v-831zM496 1747q70 0 112.5 -41t42.5 -109q0 -70 -42.5 -110.5
t-112.5 -40.5t-114 41t-44 110q0 68 44 109t114 41zM954 1747q70 0 113 -41t43 -109q0 -70 -43 -110.5t-113 -40.5t-113.5 40.5t-43.5 110.5q0 68 43.5 109t113.5 41z" />
    <glyph glyph-name="Yacute" unicode="&#xdd;" horiz-adv-x="1148" 
d="M444 504l-467 837h322l279 -563l270 563h323l-458 -821v-520h-269v504zM446 1544l238 244q72 72 133 72q94 0 152 -138l-238 -241q-72 -72 -133 -72q-94 0 -152 135z" />
    <glyph glyph-name="Thorn" unicode="&#xde;" horiz-adv-x="1167" 
d="M614 246h-163v-246h-269v1341h269v-208h235q222 0 330 -115t108 -305q0 -211 -130.5 -339t-379.5 -128zM451 903v-428h153q114 0 177 61t63 164q0 93 -52.5 148t-146.5 55h-194z" />
    <glyph glyph-name="germandbls" unicode="&#xdf;" horiz-adv-x="1249" 
d="M1110 1184q0 -57 -15 -104t-38.5 -78.5t-52 -58t-57 -47t-52 -41t-38.5 -45.5t-15 -54q0 -31 19 -57.5t49 -46.5t66.5 -41t73 -48t66.5 -60t49 -84t19 -114q0 -159 -104.5 -244.5t-276.5 -85.5q-31 0 -62.5 3t-70.5 12.5t-68.5 25.5t-49.5 45.5t-20 67.5q0 72 50 131
q95 -65 209 -65q122 0 122 92q0 29 -19 54t-48.5 44.5t-66 39.5t-73 45t-66 54.5t-48.5 74.5t-19 99q0 53 14 96.5t37 73.5t50.5 56t55 48.5t50.5 45t37 52.5t14 65q0 60 -42.5 94.5t-118.5 34.5q-240 0 -240 -242v-1022h-264v991q0 252 128 375t394 123q199 0 310.5 -85
t111.5 -220z" />
    <glyph glyph-name="agrave" unicode="&#xe0;" horiz-adv-x="1116" 
d="M592 635q68 0 113 -10v39q0 159 -191 159q-161 0 -311 -86q-51 60 -51 129q0 88 111 135.5t294 47.5q220 0 315 -99.5t95 -285.5v-664h-197q-37 68 -45 145h-12q-55 -170 -289 -170q-148 0 -234 80.5t-86 231.5q0 179 118 263.5t370 84.5zM600 459q-221 0 -221 -142
q0 -51 34 -81.5t105 -30.5q111 0 187 69v177q-54 8 -105 8zM616 1124l-258 207q-50 40 -69 69.5t-19 63.5q0 93 129 152l254 -203q51 -41 70.5 -71t19.5 -62q0 -96 -127 -156z" />
    <glyph glyph-name="aacute" unicode="&#xe1;" horiz-adv-x="1116" 
d="M592 635q68 0 113 -10v39q0 159 -191 159q-161 0 -311 -86q-51 60 -51 129q0 88 111 135.5t294 47.5q220 0 315 -99.5t95 -285.5v-664h-197q-37 68 -45 145h-12q-55 -170 -289 -170q-148 0 -234 80.5t-86 231.5q0 179 118 263.5t370 84.5zM600 459q-221 0 -221 -142
q0 -51 34 -81.5t105 -30.5q111 0 187 69v177q-54 8 -105 8zM426 1268l238 243q72 72 133 72q93 0 151 -137l-237 -242q-71 -71 -133 -71q-94 0 -152 135z" />
    <glyph glyph-name="acircumflex" unicode="&#xe2;" horiz-adv-x="1116" 
d="M592 635q68 0 113 -10v39q0 159 -191 159q-161 0 -311 -86q-51 60 -51 129q0 88 111 135.5t294 47.5q220 0 315 -99.5t95 -285.5v-664h-197q-37 68 -45 145h-12q-55 -170 -289 -170q-148 0 -234 80.5t-86 231.5q0 179 118 263.5t370 84.5zM600 459q-221 0 -221 -142
q0 -51 34 -81.5t105 -30.5q111 0 187 69v177q-54 8 -105 8zM557 1286l-106 -84q-77 -59 -121 -59q-55 0 -90.5 40t-57.5 122l363 233q149 -64 248 -125q102 -63 102 -129q0 -84 -90 -156z" />
    <glyph glyph-name="atilde" unicode="&#xe3;" horiz-adv-x="1116" 
d="M592 635q68 0 113 -10v39q0 159 -191 159q-161 0 -311 -86q-51 60 -51 129q0 88 111 135.5t294 47.5q220 0 315 -99.5t95 -285.5v-664h-197q-37 68 -45 145h-12q-55 -170 -289 -170q-148 0 -234 80.5t-86 231.5q0 179 118 263.5t370 84.5zM600 459q-221 0 -221 -142
q0 -51 34 -81.5t105 -30.5q111 0 187 69v177q-54 8 -105 8zM182 1309q0 75 53 118t132 43q75 0 175 -30.5t158 -30.5q100 0 172 57q19 -24 31 -59t12 -61q0 -76 -51.5 -119t-124.5 -43q-79 0 -182 29.5t-160 29.5q-98 0 -172 -55q-19 24 -31 58.5t-12 62.5z" />
    <glyph glyph-name="adieresis" unicode="&#xe4;" horiz-adv-x="1116" 
d="M592 635q68 0 113 -10v39q0 159 -191 159q-161 0 -311 -86q-51 60 -51 129q0 88 111 135.5t294 47.5q220 0 315 -99.5t95 -285.5v-664h-197q-37 68 -45 145h-12q-55 -170 -289 -170q-148 0 -234 80.5t-86 231.5q0 179 118 263.5t370 84.5zM600 459q-221 0 -221 -142
q0 -51 34 -81.5t105 -30.5q111 0 187 69v177q-54 8 -105 8zM332 1470q70 0 112.5 -40.5t42.5 -108.5q0 -70 -42.5 -111t-112.5 -41t-114 41t-44 111q0 68 44 108.5t114 40.5zM791 1470q70 0 112.5 -40.5t42.5 -108.5q0 -70 -42.5 -111t-112.5 -41t-114 41t-44 111
q0 68 44 108.5t114 40.5z" />
    <glyph glyph-name="aring" unicode="&#xe5;" horiz-adv-x="1116" 
d="M592 635q68 0 113 -10v39q0 159 -191 159q-161 0 -311 -86q-51 60 -51 129q0 88 111 135.5t294 47.5q220 0 315 -99.5t95 -285.5v-664h-197q-37 68 -45 145h-12q-55 -170 -289 -170q-148 0 -234 80.5t-86 231.5q0 179 118 263.5t370 84.5zM600 459q-221 0 -221 -142
q0 -51 34 -81.5t105 -30.5q111 0 187 69v177q-54 8 -105 8zM791 1366q0 -89 -63.5 -151t-166.5 -62q-105 0 -168 60t-63 153q0 90 65.5 151.5t165.5 61.5q105 0 167.5 -60.5t62.5 -152.5zM649 1366q0 40 -25 66t-63 26q-39 0 -63.5 -26t-24.5 -66q0 -39 24.5 -65.5
t63.5 -26.5q38 0 63 26.5t25 65.5z" />
    <glyph glyph-name="ae" unicode="&#xe6;" horiz-adv-x="1699" 
d="M797 143h-15q-72 -85 -157 -126.5t-201 -41.5q-148 0 -234 80.5t-86 231.5q0 179 118.5 265.5t369.5 86.5q68 0 113 -10v35q0 159 -191 159q-161 0 -311 -86q-51 60 -51 129q0 88 111 135.5t294 47.5q222 0 315 -115q115 115 304 115q105 0 187 -34t134 -95t78.5 -142
t26.5 -178q0 -48 -15 -141h-618q17 -132 87.5 -192t200.5 -60q162 0 283 74q39 -61 39 -127q0 -61 -53 -102.5t-134.5 -59t-185.5 -17.5q-143 0 -247.5 44t-161.5 124zM723 293q-22 79 -25 162q-36 8 -98 8q-109 0 -165 -38t-56 -108q0 -51 34 -81.5t105 -30.5q117 0 205 88
zM969 633h374q0 107 -44 160t-125 53t-135.5 -55t-69.5 -158z" />
    <glyph glyph-name="ccedilla" unicode="&#xe7;" horiz-adv-x="1001" 
d="M854 752q-83 61 -227 61q-121 0 -187.5 -80.5t-66.5 -228.5q0 -134 67.5 -212.5t194.5 -78.5q67 0 130.5 20.5t100.5 49.5q52 -58 52 -140q0 -81 -88 -124.5t-234 -43.5q-132 0 -229.5 36.5t-156 105.5t-86.5 160t-28 208q0 169 57.5 294.5t177.5 197.5t292 72
q50 0 94.5 -6.5t90 -22t72.5 -48.5t27 -79q0 -73 -53 -141zM342 -256q16 -6 41 -6q43 0 67.5 26t24.5 64q0 37 -20 63q25 25 110 25q48 0 103 -10q11 -14 19.5 -46t8.5 -65q0 -81 -56.5 -147t-143.5 -66q-83 0 -120.5 38.5t-37.5 90.5q0 13 4 33z" />
    <glyph glyph-name="egrave" unicode="&#xe8;" horiz-adv-x="1101" 
d="M371 463q17 -134 87.5 -195t200.5 -61q162 0 283 74q39 -61 39 -127q0 -61 -53 -102.5t-134.5 -59t-185.5 -17.5q-251 0 -381.5 133.5t-130.5 397.5q0 115 31.5 213.5t91 172t152 115.5t207.5 42q206 0 316 -123.5t110 -319.5q0 -50 -15 -143h-618zM371 639h374
q0 101 -45 154t-125 53q-82 0 -134.5 -53.5t-69.5 -153.5zM596 1124l-258 207q-50 40 -69 69.5t-19 63.5q0 93 129 152l254 -203q51 -41 70.5 -71t19.5 -62q0 -96 -127 -156z" />
    <glyph glyph-name="eacute" unicode="&#xe9;" horiz-adv-x="1101" 
d="M371 463q17 -134 87.5 -195t200.5 -61q162 0 283 74q39 -61 39 -127q0 -61 -53 -102.5t-134.5 -59t-185.5 -17.5q-251 0 -381.5 133.5t-130.5 397.5q0 115 31.5 213.5t91 172t152 115.5t207.5 42q206 0 316 -123.5t110 -319.5q0 -50 -15 -143h-618zM371 639h374
q0 101 -45 154t-125 53q-82 0 -134.5 -53.5t-69.5 -153.5zM426 1268l238 243q72 72 133 72q93 0 151 -137l-237 -242q-71 -71 -133 -71q-94 0 -152 135z" />
    <glyph glyph-name="ecircumflex" unicode="&#xea;" horiz-adv-x="1101" 
d="M371 463q17 -134 87.5 -195t200.5 -61q162 0 283 74q39 -61 39 -127q0 -61 -53 -102.5t-134.5 -59t-185.5 -17.5q-251 0 -381.5 133.5t-130.5 397.5q0 115 31.5 213.5t91 172t152 115.5t207.5 42q206 0 316 -123.5t110 -319.5q0 -50 -15 -143h-618zM371 639h374
q0 101 -45 154t-125 53q-82 0 -134.5 -53.5t-69.5 -153.5zM567 1286l-106 -84q-77 -59 -121 -59q-55 0 -89.5 40t-57.5 122l362 233q149 -64 248 -125q102 -63 102 -129q0 -84 -90 -156z" />
    <glyph glyph-name="edieresis" unicode="&#xeb;" horiz-adv-x="1101" 
d="M371 463q17 -134 87.5 -195t200.5 -61q162 0 283 74q39 -61 39 -127q0 -61 -53 -102.5t-134.5 -59t-185.5 -17.5q-251 0 -381.5 133.5t-130.5 397.5q0 115 31.5 213.5t91 172t152 115.5t207.5 42q206 0 316 -123.5t110 -319.5q0 -50 -15 -143h-618zM371 639h374
q0 101 -45 154t-125 53q-82 0 -134.5 -53.5t-69.5 -153.5zM348 1470q70 0 113 -40.5t43 -108.5q0 -70 -43 -111t-113 -41t-114 41t-44 111q0 68 44 108.5t114 40.5zM807 1470q70 0 113 -40.5t43 -108.5q0 -70 -43 -111t-113 -41t-114 41t-44 111q0 68 44 108.5t114 40.5z
" />
    <glyph glyph-name="igrave" unicode="&#xec;" horiz-adv-x="587" 
d="M426 1024v-1024h-264v1024h264zM362 1124l-258 207q-50 40 -69 69.5t-19 63.5q0 93 129 152l254 -203q51 -41 70.5 -71t19.5 -62q0 -96 -127 -156z" />
    <glyph glyph-name="iacute" unicode="&#xed;" horiz-adv-x="587" 
d="M426 1024v-1024h-264v1024h264zM119 1268l237 243q72 72 133 72q94 0 152 -137l-238 -242q-71 -71 -133 -71q-93 0 -151 135z" />
    <glyph glyph-name="icircumflex" unicode="&#xee;" horiz-adv-x="587" 
d="M426 1024v-1024h-264v1024h264zM291 1286l-107 -84q-77 -59 -121 -59q-55 0 -89.5 40t-57.5 122l363 233q145 -62 247 -125q103 -63 103 -129q0 -84 -90 -156z" />
    <glyph glyph-name="idieresis" unicode="&#xef;" horiz-adv-x="587" 
d="M426 1024v-1024h-264v1024h264zM68 1470q70 0 112.5 -40.5t42.5 -108.5q0 -70 -42.5 -111t-112.5 -41t-114 41t-44 111q0 68 44 108.5t114 40.5zM526 1470q70 0 113 -40.5t43 -108.5q0 -70 -43 -111t-113 -41t-113.5 41t-43.5 111q0 68 43.5 108.5t113.5 40.5z" />
    <glyph glyph-name="eth" unicode="&#xf0;" horiz-adv-x="1196" 
d="M817 807q-12 139 -67 252l-168 -117l-125 178l131 92q-59 43 -135 43q-139 0 -213 -38q-41 61 -41 126q0 146 276 146q197 0 344 -115l213 150l125 -178l-188 -134q127 -204 127 -514q0 -156 -31 -281t-83 -206t-123.5 -135.5t-147.5 -77.5t-160 -23q-220 0 -337.5 122
t-117.5 309q0 217 119.5 340.5t355.5 123.5q120 0 246 -63zM821 606q-96 47 -219 47q-113 0 -170 -64t-57 -179q0 -96 54 -152.5t142 -56.5q95 0 166 101.5t84 303.5z" />
    <glyph glyph-name="ntilde" unicode="&#xf1;" horiz-adv-x="1200" 
d="M426 727v-727h-264v1024h198q40 -82 43 -160h15q29 94 103 139.5t202 45.5q326 0 326 -342v-707h-265v631q0 170 -143 170q-111 0 -215 -74zM238 1309q0 75 53 118t131 43q75 0 175.5 -30.5t158.5 -30.5q100 0 172 57q19 -24 31 -59t12 -61q0 -76 -51.5 -119t-124.5 -43
q-79 0 -182 29.5t-160 29.5q-98 0 -172 -55q-19 24 -31 58.5t-12 62.5z" />
    <glyph glyph-name="ograve" unicode="&#xf2;" horiz-adv-x="1163" 
d="M598 1049q217 0 343 -132.5t126 -386.5q0 -270 -135 -412.5t-361 -142.5q-228 0 -351.5 133t-123.5 396q0 257 137 401t365 144zM594 823q-219 0 -219 -311q0 -152 52 -230.5t153 -78.5q208 0 208 325q0 140 -49 217.5t-145 77.5zM596 1124l-258 207q-50 40 -69 69.5
t-19 63.5q0 93 129 152l254 -203q51 -41 70.5 -71t19.5 -62q0 -96 -127 -156z" />
    <glyph glyph-name="oacute" unicode="&#xf3;" horiz-adv-x="1163" 
d="M598 1049q217 0 343 -132.5t126 -386.5q0 -270 -135 -412.5t-361 -142.5q-228 0 -351.5 133t-123.5 396q0 257 137 401t365 144zM594 823q-219 0 -219 -311q0 -152 52 -230.5t153 -78.5q208 0 208 325q0 140 -49 217.5t-145 77.5zM426 1268l238 243q72 72 133 72
q93 0 151 -137l-237 -242q-71 -71 -133 -71q-94 0 -152 135z" />
    <glyph glyph-name="ocircumflex" unicode="&#xf4;" horiz-adv-x="1163" 
d="M598 1049q217 0 343 -132.5t126 -386.5q0 -270 -135 -412.5t-361 -142.5q-228 0 -351.5 133t-123.5 396q0 257 137 401t365 144zM594 823q-219 0 -219 -311q0 -152 52 -230.5t153 -78.5q208 0 208 325q0 140 -49 217.5t-145 77.5zM582 1286l-107 -84q-77 -59 -121 -59
q-55 0 -89.5 40t-57.5 122l362 233q149 -64 248 -125q103 -63 103 -129q0 -83 -91 -156z" />
    <glyph glyph-name="otilde" unicode="&#xf5;" horiz-adv-x="1163" 
d="M598 1049q217 0 343 -132.5t126 -386.5q0 -270 -135 -412.5t-361 -142.5q-228 0 -351.5 133t-123.5 396q0 257 137 401t365 144zM594 823q-219 0 -219 -311q0 -152 52 -230.5t153 -78.5q208 0 208 325q0 140 -49 217.5t-145 77.5zM207 1309q0 75 53 118t131 43
q75 0 176 -30.5t158 -30.5q100 0 172 57q19 -24 31 -59t12 -61q0 -76 -51.5 -119t-124.5 -43q-79 0 -182 29.5t-160 29.5q-98 0 -172 -55q-19 24 -31 58.5t-12 62.5z" />
    <glyph glyph-name="odieresis" unicode="&#xf6;" horiz-adv-x="1163" 
d="M598 1049q217 0 343 -132.5t126 -386.5q0 -270 -135 -412.5t-361 -142.5q-228 0 -351.5 133t-123.5 396q0 257 137 401t365 144zM594 823q-219 0 -219 -311q0 -152 52 -230.5t153 -78.5q208 0 208 325q0 140 -49 217.5t-145 77.5zM354 1470q70 0 113 -40.5t43 -108.5
q0 -70 -43 -111t-113 -41t-113.5 41t-43.5 111q0 68 43.5 108.5t113.5 40.5zM813 1470q70 0 113 -40.5t43 -108.5q0 -70 -43 -111t-113 -41t-114 41t-44 111q0 68 44 108.5t114 40.5z" />
    <glyph glyph-name="divide" unicode="&#xf7;" horiz-adv-x="1177" 
d="M88 649h1004v-235h-1004v235zM592 1085q74 0 119 -43.5t45 -115.5q0 -73 -45.5 -116.5t-118.5 -43.5q-74 0 -120 43.5t-46 116.5q0 72 46 115.5t120 43.5zM592 295q74 0 119 -43t45 -115q0 -73 -45.5 -117.5t-118.5 -44.5q-74 0 -120 43.5t-46 116.5q0 72 46 116t120 44z
" />
    <glyph glyph-name="oslash" unicode="&#xf8;" horiz-adv-x="1163" 
d="M856 985l160 184l141 -122l-166 -195q76 -127 76 -322q0 -270 -135 -412.5t-361 -142.5q-161 0 -268 64l-158 -182l-143 123l168 196q-74 129 -74 328q0 257 137 401t365 144q154 0 258 -64zM786 633l-329 -400q46 -40 123 -40q217 0 217 335q0 65 -11 105zM707 797
q-46 37 -113 37q-116 0 -172.5 -85t-56.5 -237q0 -57 14 -115z" />
    <glyph glyph-name="ugrave" unicode="&#xf9;" horiz-adv-x="1200" 
d="M776 276v748h262v-1024h-196q-38 81 -47 160h-11q-60 -185 -303 -185q-329 0 -329 342v707h264v-616q0 -181 155 -181q120 0 205 49zM616 1124l-258 207q-50 40 -69 69.5t-19 63.5q0 93 129 152l254 -203q51 -41 70.5 -71t19.5 -62q0 -96 -127 -156z" />
    <glyph glyph-name="uacute" unicode="&#xfa;" horiz-adv-x="1200" 
d="M776 276v748h262v-1024h-196q-38 81 -47 160h-11q-60 -185 -303 -185q-329 0 -329 342v707h264v-616q0 -181 155 -181q120 0 205 49zM457 1268l237 243q72 72 133 72q94 0 152 -137l-238 -242q-71 -71 -133 -71q-93 0 -151 135z" />
    <glyph glyph-name="ucircumflex" unicode="&#xfb;" horiz-adv-x="1200" 
d="M776 276v748h262v-1024h-196q-38 81 -47 160h-11q-60 -185 -303 -185q-329 0 -329 342v707h264v-616q0 -181 155 -181q120 0 205 49zM598 1286l-106 -84q-77 -59 -121 -59q-55 0 -90.5 40t-57.5 122l363 233q149 -64 248 -125q102 -63 102 -129q0 -84 -90 -156z" />
    <glyph glyph-name="udieresis" unicode="&#xfc;" horiz-adv-x="1200" 
d="M776 276v748h262v-1024h-196q-38 81 -47 160h-11q-60 -185 -303 -185q-329 0 -329 342v707h264v-616q0 -181 155 -181q120 0 205 49zM373 1470q70 0 112.5 -40.5t42.5 -108.5q0 -70 -42.5 -111t-112.5 -41t-114 41t-44 111q0 68 44 108.5t114 40.5zM831 1470
q70 0 113 -40.5t43 -108.5q0 -70 -43 -111t-113 -41t-113.5 41t-43.5 111q0 68 43.5 108.5t113.5 40.5z" />
    <glyph glyph-name="yacute" unicode="&#xfd;" horiz-adv-x="1030" 
d="M391 43l-377 981h297l221 -705l226 705h274l-356 -948q-189 -500 -504 -500q-166 0 -166 145q0 33 12 74q284 0 373 248zM406 1268l237 243q72 72 133 72q94 0 152 -137l-238 -242q-71 -71 -133 -71q-93 0 -151 135z" />
    <glyph glyph-name="thorn" unicode="&#xfe;" horiz-adv-x="1183" 
d="M426 -6v-393h-264v1863h264v-354q0 -147 -14 -242h14q25 92 102 136.5t189 44.5q189 0 279.5 -128t90.5 -356q0 -284 -121.5 -437t-359.5 -153q-118 0 -180 19zM426 223q51 -22 135 -22q132 0 191 87t59 251q0 136 -49 198t-146 62q-101 0 -190 -54v-522z" />
    <glyph glyph-name="ydieresis" unicode="&#xff;" horiz-adv-x="1030" 
d="M391 43l-377 981h297l221 -705l226 705h274l-356 -948q-189 -500 -504 -500q-166 0 -166 145q0 33 12 74q284 0 373 248zM297 1470q70 0 113 -40.5t43 -108.5q0 -70 -43 -111t-113 -41t-114 41t-44 111q0 68 44 108.5t114 40.5zM756 1470q70 0 112.5 -40.5t42.5 -108.5
q0 -70 -42.5 -111t-112.5 -41t-114 41t-44 111q0 68 44 108.5t114 40.5z" />
    <glyph glyph-name="dotlessi" unicode="&#x131;" horiz-adv-x="587" 
d="M426 1024v-1024h-264v1024h264z" />
    <glyph glyph-name="Lslash" unicode="&#x141;" horiz-adv-x="1048" 
d="M500 909l200 142l125 -181l-325 -227v-405h549v-238h-818v455l-135 -95l-125 179l260 182v620h269v-432z" />
    <glyph glyph-name="lslash" unicode="&#x142;" horiz-adv-x="716" 
d="M229 731v733h265v-546l137 94l125 -178l-262 -183v-651h-265v467l-135 -96l-125 178z" />
    <glyph glyph-name="OE" unicode="&#x152;" horiz-adv-x="1783" 
d="M1014 1341h647v-239h-514v-305h477v-234h-477v-321h514v-242h-672q-38 0 -132 -12.5t-152 -12.5q-299 0 -457 179.5t-158 492.5q0 157 40 287t118.5 227t204 151t286.5 54q47 0 141 -12.5t134 -12.5zM879 1104q-67 26 -150 26q-91 0 -161 -37.5t-111 -102.5t-61.5 -146
t-20.5 -176q0 -208 90 -330.5t254 -122.5q93 0 160 31v858z" />
    <glyph glyph-name="oe" unicode="&#x153;" horiz-adv-x="1789" 
d="M920 123q-127 -148 -349 -148q-228 0 -351.5 133t-123.5 396q0 257 137 401t365 144q216 0 336 -144q125 144 332 144t316.5 -123t109.5 -320q0 -50 -15 -143h-618q17 -134 88 -195t201 -61q161 0 282 74q39 -61 39 -127q0 -61 -53 -102.5t-134.5 -59t-185.5 -17.5
q-249 0 -376 148zM594 823q-219 0 -219 -311q0 -152 52 -230.5t153 -78.5q208 0 208 325q0 140 -49 217.5t-145 77.5zM1059 639h375q0 101 -44.5 154t-125.5 53q-80 0 -134 -54t-71 -153z" />
    <glyph glyph-name="Scaron" unicode="&#x160;" horiz-adv-x="1071" 
d="M592 1366q70 0 130 -8.5t114 -27t85 -54.5t31 -86q0 -80 -71 -158q-51 37 -132 61.5t-153 24.5q-197 0 -197 -133q0 -49 32 -86.5t83.5 -62.5t113.5 -48.5t124 -55t113.5 -72.5t83.5 -108.5t32 -156.5q0 -199 -138 -309.5t-366 -110.5q-71 0 -133.5 8t-123.5 27.5
t-96.5 58.5t-35.5 95q0 88 66 160q58 -39 146.5 -66t182.5 -27q99 0 153 37.5t54 100.5q0 35 -19.5 64t-53 49.5t-77 39t-91.5 38.5t-95.5 42.5t-91 55t-77 73t-53 99.5t-19.5 131q0 185 124 295t355 110zM537 1649l106 84q73 59 121 59q54 0 89.5 -40t57.5 -122l-362 -231
q-125 51 -248 123q-104 64 -104 129q0 83 92 155z" />
    <glyph glyph-name="scaron" unicode="&#x161;" horiz-adv-x="899" 
d="M502 1049q57 0 107 -7.5t96 -24.5t73 -49t27 -77q0 -70 -55 -131q-116 78 -246 78q-137 0 -137 -93q0 -31 25.5 -54.5t66 -39t90 -31.5t99 -39t90 -53.5t66 -83t25.5 -120.5q0 -171 -112 -260t-314 -89q-54 0 -105 7t-103 24.5t-83.5 53t-31.5 85.5q0 81 53 134
q120 -82 268 -82q76 0 115 24.5t39 65.5q0 32 -25.5 55t-66 38.5t-89.5 31.5t-98.5 39.5t-90 56t-66 88.5t-25.5 129q0 150 104.5 237t303.5 87zM449 1372l106 84q75 60 121 60q54 0 89.5 -40t57.5 -122l-362 -232q-125 51 -248 123q-104 64 -104 129q0 84 92 156z" />
    <glyph glyph-name="Ydieresis" unicode="&#x178;" horiz-adv-x="1148" 
d="M444 504l-467 837h322l279 -563l270 563h323l-458 -821v-520h-269v504zM336 1747q70 0 113 -41t43 -109q0 -70 -43 -110.5t-113 -40.5t-114 41t-44 110q0 68 44 109t114 41zM795 1747q70 0 112.5 -41t42.5 -109q0 -70 -42.5 -110.5t-112.5 -40.5t-114 41t-44 110
q0 68 44 109t114 41z" />
    <glyph glyph-name="Zcaron" unicode="&#x17d;" horiz-adv-x="1183" 
d="M729 1108h-602v233h938v-204l-621 -899h639v-238h-977v213zM598 1649l107 84q73 59 120 59q104 0 148 -162l-363 -231q-125 51 -248 123q-104 64 -104 129q0 83 92 155z" />
    <glyph glyph-name="zcaron" unicode="&#x17e;" horiz-adv-x="1046" 
d="M588 799h-459v225h795v-201l-471 -596h489v-227h-831v209zM522 1372l107 84q75 60 121 60q54 0 89.5 -40t57.5 -122l-362 -232q-125 51 -248 123q-105 65 -105 129q0 84 92 156z" />
    <glyph glyph-name="florin" unicode="&#x192;" horiz-adv-x="1040" 
d="M625 946l-4 -45h327q4 -25 4 -67q0 -77 -30 -109.5t-97 -32.5q-3 0 -35 2q-21 2 -37.5 3t-56.5 4t-86 6q-34 -302 -94 -650q-33 -183 -139 -283t-275 -100q-235 0 -235 162q0 41 29 86q57 -28 124 -28q43 0 78.5 9.5t69.5 33t58.5 69.5t37.5 113q57 311 86 581h-196
l16 201h219q-10 49 -10 109q0 161 106.5 258.5t296.5 97.5q141 0 220 -44t79 -126q0 -63 -49 -106q-89 59 -192 59q-200 0 -215 -203z" />
    <glyph glyph-name="circumflex" unicode="&#x2c6;" horiz-adv-x="1173" 
d="M598 1286l-106 -84q-77 -59 -121 -59q-55 0 -90.5 40t-57.5 122l363 233q149 -64 248 -125q102 -63 102 -129q0 -84 -90 -156z" />
    <glyph glyph-name="caron" unicode="&#x2c7;" horiz-adv-x="899" 
d="M455 1372l106 84q75 60 121 60q54 0 89.5 -40t57.5 -122l-362 -232q-125 51 -248 123q-104 64 -104 129q0 84 92 156z" />
    <glyph glyph-name="breve" unicode="&#x2d8;" horiz-adv-x="1198" 
d="M604 1331q29 0 63 28t61.5 61t62.5 61t65 28q79 0 129 -92q-59 -120 -177.5 -213.5t-223.5 -93.5q-50 0 -130.5 41t-147 108t-66.5 127q0 106 120 132q157 -187 244 -187z" />
    <glyph glyph-name="dotaccent" unicode="&#x2d9;" horiz-adv-x="1198" 
d="M596 1513q82 0 132 -48.5t50 -129.5t-51 -129.5t-131 -48.5q-84 0 -134 48.5t-50 129.5q0 80 50.5 129t133.5 49z" />
    <glyph glyph-name="ring" unicode="&#x2da;" horiz-adv-x="1114" 
d="M791 1366q0 -89 -63.5 -151t-166.5 -62q-105 0 -168 60t-63 153q0 90 65.5 151.5t165.5 61.5q105 0 167.5 -60.5t62.5 -152.5zM649 1366q0 40 -25 66t-63 26q-39 0 -63.5 -26t-24.5 -66q0 -39 24.5 -65.5t63.5 -26.5q38 0 63 26.5t25 65.5z" />
    <glyph glyph-name="ogonek" unicode="&#x2db;" horiz-adv-x="1198" 
d="M1042 -240q7 -21 7 -34q0 -71 -46 -108.5t-131 -37.5q-106 0 -165.5 58.5t-59.5 150.5q0 94 58 161.5t159 67.5q132 0 172 -18q-82 0 -131 -47t-49 -113q0 -104 105 -104q50 0 81 24z" />
    <glyph glyph-name="tilde" unicode="&#x2dc;" horiz-adv-x="1200" 
d="M238 1309q0 75 53 118t131 43q75 0 175.5 -30.5t158.5 -30.5q100 0 172 57q19 -24 31 -59t12 -61q0 -76 -51.5 -119t-124.5 -43q-79 0 -182 29.5t-160 29.5q-98 0 -172 -55q-19 24 -31 58.5t-12 62.5z" />
    <glyph glyph-name="hungarumlaut" unicode="&#x2dd;" horiz-adv-x="1198" 
d="M659 1262l240 219q71 65 123 65q86 0 137 -127l-241 -217q-41 -36 -67.5 -51.5t-55.5 -15.5q-87 0 -136 127zM223 1251l201 228q59 67 121 67q73 0 135 -116l-203 -228q-61 -67 -121 -67q-70 0 -133 116z" />
    <glyph glyph-name="Delta" unicode="&#x394;" horiz-adv-x="1214" 
d="M0 0l455 1341h303l456 -1341h-1214zM850 217l-248 836l-244 -836h492z" />
    <glyph glyph-name="Omega" unicode="&#x3a9;" horiz-adv-x="1519" 
d="M1110 207l2 -6q37 6 88 6h209v-207h-569v205q134 84 194 213.5t60 314.5q0 180 -83 291t-233 111q-83 0 -151 -35t-111 -93t-66.5 -131.5t-23.5 -152.5q0 -201 61 -322t191 -202v-199h-567v207h190q51 0 88 -6l2 6q-246 154 -246 516q0 106 23 199.5t73.5 175.5t125 141
t184 93t244.5 34q122 0 221.5 -34t164.5 -90.5t109 -134t63 -161t19 -174.5q0 -387 -262 -565z" />
    <glyph glyph-name="mu" unicode="&#x3bc;" horiz-adv-x="1210" 
d="M162 1024h264v-616q0 -181 156 -181q119 0 204 49v748h263v-1024h-197q-38 81 -47 160h-10q-60 -185 -303 -185q-39 0 -66 15v-389h-264v1423z" />
    <glyph glyph-name="pi" unicode="&#x3c0;" horiz-adv-x="1423" 
d="M805 821h-338v-821h-264v821h-160v203h1325v-203h-299v-461q0 -74 27.5 -105.5t85.5 -31.5q97 0 164 53q59 -59 59 -129q0 -74 -72.5 -123t-208.5 -49q-160 0 -239.5 80.5t-79.5 233.5v532z" />
    <glyph glyph-name="endash" unicode="&#x2013;" horiz-adv-x="1024" 
d="M1024 682v-225h-1024v225h1024z" />
    <glyph glyph-name="emdash" unicode="&#x2014;" horiz-adv-x="2048" 
d="M2048 682v-225h-2048v225h2048z" />
    <glyph glyph-name="quoteleft" unicode="&#x2018;" horiz-adv-x="456" 
d="M248 1225q61 -14 105 -59.5t44 -121.5q0 -74 -45.5 -119.5t-120.5 -45.5q-92 0 -146 67t-54 182q0 164 85 289t193 125q81 0 117 -67q-65 -54 -113 -121.5t-65 -128.5z" />
    <glyph glyph-name="quoteright" unicode="&#x2019;" horiz-adv-x="456" 
d="M223 1155q-61 14 -105 60t-44 120q0 75 46 121.5t122 46.5q91 0 144.5 -67.5t53.5 -184.5q0 -164 -85 -288.5t-193 -124.5q-80 0 -117 69q65 53 114 121t64 127z" />
    <glyph glyph-name="quotesinglbase" unicode="&#x201a;" horiz-adv-x="520" 
d="M227 -14q-62 14 -106.5 59.5t-44.5 120.5t46.5 121.5t121.5 46.5q92 0 146 -68t54 -184q0 -108 -39.5 -204t-104.5 -153t-136 -57q-80 0 -115 68q65 54 113 121.5t65 128.5z" />
    <glyph glyph-name="quotedblleft" unicode="&#x201c;" horiz-adv-x="964" 
d="M248 1225q61 -14 105 -59.5t44 -121.5q0 -74 -45.5 -119.5t-120.5 -45.5q-92 0 -146 67t-54 182q0 164 85 289t193 125q81 0 117 -67q-65 -54 -113 -121.5t-65 -128.5zM758 1225q61 -14 105 -59.5t44 -121.5q0 -74 -46 -119.5t-122 -45.5q-91 0 -144.5 67t-53.5 182
q0 164 85 289t193 125q82 0 115 -67q-65 -56 -113 -123t-63 -127z" />
    <glyph glyph-name="quotedblright" unicode="&#x201d;" horiz-adv-x="970" 
d="M223 1155q-61 14 -105 60t-44 120q0 75 46 121.5t122 46.5q91 0 144.5 -67.5t53.5 -184.5q0 -164 -85 -288.5t-193 -124.5q-80 0 -117 69q65 53 114 121t64 127zM737 1155q-60 14 -104.5 60.5t-44.5 119.5q0 75 46.5 121.5t121.5 46.5q92 0 145 -67.5t53 -184.5
q0 -164 -85 -288.5t-193 -124.5q-81 0 -115 69q65 53 113 120.5t63 127.5z" />
    <glyph glyph-name="quotedblbase" unicode="&#x201e;" horiz-adv-x="1030" 
d="M227 -14q-62 14 -106.5 59.5t-44.5 120.5t46.5 121.5t121.5 46.5q92 0 146 -68t54 -184q0 -108 -39.5 -204t-104.5 -153t-136 -57q-80 0 -115 68q65 54 113 121.5t65 128.5zM735 -14q-61 14 -105 59.5t-44 120.5t46.5 121.5t121.5 46.5q92 0 145 -68t53 -184
q0 -164 -85 -289t-193 -125q-80 0 -115 68q66 55 113.5 122t62.5 128z" />
    <glyph glyph-name="dagger" unicode="&#x2020;" horiz-adv-x="1183" 
d="M723 821v-1218h-264v1218h-393v203h393v440h264v-440h393v-203h-393z" />
    <glyph glyph-name="daggerdbl" unicode="&#x2021;" horiz-adv-x="1183" 
d="M723 166v-563h-264v563h-393v203h393v452h-393v203h393v440h264v-440h393v-203h-393v-452h393v-203h-393z" />
    <glyph glyph-name="bullet" unicode="&#x2022;" horiz-adv-x="843" 
d="M424 887q115 0 183.5 -73t68.5 -193q0 -119 -68 -190t-184 -71q-119 0 -188.5 71t-69.5 192q0 117 70.5 190.5t187.5 73.5z" />
    <glyph glyph-name="ellipsis" unicode="&#x2026;" horiz-adv-x="1701" 
d="M260 328q82 0 132 -48.5t50 -127.5q0 -81 -50.5 -129t-131.5 -48q-80 0 -130 48t-50 129q0 79 50 127.5t130 48.5zM1438 328q82 0 132 -48.5t50 -127.5q0 -81 -50.5 -129t-131.5 -48q-80 0 -130.5 48t-50.5 129q0 79 50.5 127.5t130.5 48.5zM850 328q80 0 130 -48.5
t50 -127.5q0 -81 -50.5 -129t-129.5 -48q-80 0 -130 48t-50 129q0 79 50 127.5t130 48.5z" />
    <glyph glyph-name="perthousand" unicode="&#x2030;" horiz-adv-x="2725" 
d="M1972 330q0 156 101.5 254t253.5 98q150 0 251 -98t101 -254q0 -157 -101 -256t-251 -99q-152 0 -253.5 99t-101.5 256zM154 1012q0 157 101 255.5t253 98.5q150 0 251 -98.5t101 -255.5q0 -156 -101 -254.5t-251 -98.5q-151 0 -252.5 98.5t-101.5 254.5zM1163 330
q0 156 101.5 254t253.5 98q150 0 251 -98t101 -254q0 -157 -101 -256t-251 -99q-152 0 -253.5 99t-101.5 256zM385 29l1045 1384l167 -131l-1044 -1384zM362 1012q0 -72 39 -121t107 -49q66 0 104.5 49t38.5 121q0 74 -38 123t-105 49q-68 0 -107 -49t-39 -123zM1372 330
q0 -74 39 -123t107 -49q67 0 105 49t38 123q0 72 -38.5 121t-104.5 49q-68 0 -107 -49t-39 -121zM2181 330q0 -74 39 -123t107 -49q67 0 105 49t38 123q0 72 -38.5 121t-104.5 49q-68 0 -107 -49t-39 -121z" />
    <glyph glyph-name="guilsinglleft" unicode="&#x2039;" horiz-adv-x="600" 
d="M315 569l117 -133q25 -28 39 -46t28.5 -48.5t14.5 -58.5q0 -105 -186 -146l-287 416q44 91 192 317q62 99 132 99q87 0 167 -105z" />
    <glyph glyph-name="guilsinglright" unicode="&#x203a;" horiz-adv-x="600" 
d="M283 537l-115 133q-45 53 -64.5 85.5t-19.5 63.5q0 109 186 150l289 -416q-14 -29 -42 -76.5t-51.5 -84.5t-56.5 -89.5t-42 -66.5q-65 -99 -134 -99q-84 0 -167 105z" />
    <glyph glyph-name="uni203E" unicode="&#x203e;" horiz-adv-x="942" 
d="M0 1335v234h942v-234h-942z" />
    <glyph glyph-name="fraction" unicode="&#x2044;" horiz-adv-x="589" 
d="M-242 -127l936 1659l185 -111l-936 -1657z" />
    <glyph glyph-name="uni2070" unicode="&#x2070;" 
d="M434 1483q182 0 279.5 -119t97.5 -358q0 -248 -101 -383.5t-282 -135.5q-199 0 -294 121t-95 369q0 244 104.5 375t290.5 131zM430 1284q-149 0 -149 -301q0 -295 147 -295q65 0 103 78t38 229q0 147 -36.5 218t-102.5 71z" />
    <glyph glyph-name="uni2074" unicode="&#x2074;" 
d="M676 725v-215h-230v215h-421v182l391 557h260v-551h137v-188h-137zM446 913v308l-208 -308h208z" />
    <glyph glyph-name="uni2075" unicode="&#x2075;" 
d="M727 1464v-200h-365v-142h17q389 0 389 -295q0 -155 -107 -247.5t-305 -92.5q-264 0 -264 164q0 57 37 103q42 -25 100.5 -43.5t110.5 -18.5q87 0 136.5 35t49.5 90q0 123 -215 123h-180v524h596z" />
    <glyph glyph-name="uni2076" unicode="&#x2076;" 
d="M289 952q68 189 241 189q134 0 204.5 -83.5t70.5 -215.5q0 -72 -23.5 -135t-69.5 -112.5t-119.5 -78.5t-166.5 -29q-100 0 -174 35.5t-116.5 99t-62.5 143t-20 177.5q0 128 37 231.5t101.5 170.5t150.5 103t186 36q55 0 96 -4.5t81 -17t61.5 -38.5t21.5 -65
q0 -65 -34 -113q-70 41 -191 41q-133 0 -200.5 -87t-73.5 -247zM289 893q6 -101 46 -156t105 -55q58 0 95.5 35.5t37.5 99.5q0 62 -37.5 94.5t-101.5 32.5q-68 0 -145 -51z" />
    <glyph glyph-name="uni2077" unicode="&#x2077;" 
d="M84 1464h723v-174l-330 -608q-59 -109 -97 -155t-85 -46q-87 0 -158 105q88 132 125 194l277 477h-455v207z" />
    <glyph glyph-name="uni2078" unicode="&#x2078;" 
d="M244 983q-76 46 -120 104.5t-44 143.5q0 120 93.5 186t252.5 66q91 0 160 -20.5t108 -55.5t57.5 -76t18.5 -86q0 -73 -45 -126t-123 -97q88 -45 138.5 -108t50.5 -158q0 -124 -100.5 -196.5t-272.5 -72.5t-266.5 65.5t-94.5 186.5q0 81 49 137t138 107zM389 911
q-96 -63 -96 -133q0 -48 39 -74t90 -26q61 0 96 24t35 72q0 41 -42 72t-122 65zM453 1090q43 32 65.5 61.5t22.5 65.5q0 41 -29 64.5t-82 23.5q-57 0 -89 -23.5t-32 -67.5q0 -36 36 -63.5t108 -60.5z" />
    <glyph glyph-name="uni2079" unicode="&#x2079;" 
d="M563 1018q-69 -189 -241 -189q-134 0 -204.5 84t-70.5 217q0 149 98.5 251t280.5 102q100 0 174 -35.5t116.5 -99t62.5 -142.5t20 -176q0 -128 -37.5 -232t-102 -171.5t-150.5 -103.5t-185 -36q-55 0 -96.5 4.5t-81.5 17t-61.5 38.5t-21.5 65q0 63 35 115q73 -43 191 -43
q133 0 200.5 87t73.5 247zM563 1079q-6 99 -46.5 154t-106.5 55q-56 0 -93.5 -35.5t-37.5 -99.5q0 -62 37 -94.5t100 -32.5q67 0 147 53z" />
    <glyph glyph-name="uni2080" unicode="&#x2080;" 
d="M434 666q182 0 279.5 -119.5t97.5 -358.5q0 -248 -101 -383t-282 -135q-199 0 -294 121t-95 369q0 244 104.5 375t290.5 131zM430 467q-149 0 -149 -301q0 -295 147 -295q65 0 103 78t38 229q0 147 -36.5 218t-102.5 71z" />
    <glyph glyph-name="uni2081" unicode="&#x2081;" 
d="M365 438l-232 -76q-31 72 -31 117q0 79 89.5 125.5t252.5 46.5q121 0 160 -2v-764h209v-192h-688v192h240v553z" />
    <glyph glyph-name="uni2082" unicode="&#x2082;" 
d="M420 666q164 0 248 -79t84 -216q0 -146 -113 -273t-291 -204h420v-201h-674v188q108 77 171 126t126.5 109t92 112.5t28.5 105.5q0 55 -31.5 85t-93.5 30q-71 0 -139 -25.5t-117 -67.5q-47 50 -47 115q0 90 91.5 142.5t244.5 52.5z" />
    <glyph glyph-name="uni2083" unicode="&#x2083;" 
d="M567 203v-6q93 -13 146 -78t53 -158q0 -128 -106 -209.5t-271 -81.5q-146 0 -218.5 38.5t-72.5 127.5q0 54 35 98q112 -59 211 -59q87 0 134.5 31.5t47.5 79.5q0 96 -180 96h-143v170q307 3 307 117q0 86 -121 86q-66 0 -120 -18t-119 -54q-46 52 -46 104q0 85 84 132
t244 47q149 0 229 -64.5t80 -173.5q0 -168 -174 -225z" />
    <glyph glyph-name="uni2084" unicode="&#x2084;" 
d="M676 -92v-215h-230v215h-421v182l391 557h260v-551h137v-188h-137zM446 96v307l-208 -307h208z" />
    <glyph glyph-name="uni2085" unicode="&#x2085;" 
d="M727 647v-201h-365v-141h17q389 0 389 -295q0 -155 -107 -247.5t-305 -92.5q-264 0 -264 164q0 57 37 103q42 -25 100.5 -43.5t110.5 -18.5q87 0 136.5 35t49.5 90q0 123 -215 123h-180v524h596z" />
    <glyph glyph-name="uni2086" unicode="&#x2086;" 
d="M289 135q68 189 241 189q134 0 204.5 -83.5t70.5 -215.5q0 -72 -23.5 -135t-69.5 -112.5t-119.5 -78.5t-166.5 -29q-100 0 -174 35.5t-116.5 99t-62.5 143t-20 177.5q0 128 37 231.5t101.5 170.5t150.5 103t186 36q55 0 96 -4.5t81 -17t61.5 -38.5t21.5 -65
q0 -65 -34 -113q-70 41 -191 41q-133 0 -200.5 -87t-73.5 -247zM289 76q6 -101 46 -156t105 -55q58 0 95.5 35.5t37.5 99.5q0 62 -37.5 94.5t-101.5 32.5q-68 0 -145 -51z" />
    <glyph glyph-name="uni2087" unicode="&#x2087;" 
d="M84 647h723v-174l-330 -608q-59 -109 -97 -155t-85 -46q-87 0 -158 105q88 132 125 194l277 477h-455v207z" />
    <glyph glyph-name="uni2088" unicode="&#x2088;" 
d="M244 166q-76 46 -120 104.5t-44 143.5q0 120 93.5 186t252.5 66q91 0 160 -20.5t108 -55.5t57.5 -76t18.5 -86q0 -73 -45 -126t-123 -97q88 -45 138.5 -108t50.5 -158q0 -124 -100.5 -196.5t-272.5 -72.5t-266.5 65.5t-94.5 186.5q0 81 49 137t138 107zM389 94
q-96 -63 -96 -133q0 -48 39 -74t90 -26q61 0 96 24t35 72q0 41 -42 72t-122 65zM453 272q43 32 65.5 61.5t22.5 65.5q0 41 -29 64.5t-82 23.5q-58 0 -89.5 -23t-31.5 -67q0 -36 36 -64t108 -61z" />
    <glyph glyph-name="uni2089" unicode="&#x2089;" 
d="M563 201q-69 -189 -241 -189q-134 0 -204.5 84t-70.5 217q0 149 98.5 251t280.5 102q100 0 174 -35.5t116.5 -99t62.5 -142.5t20 -176q0 -128 -37.5 -232t-102 -171.5t-150.5 -103.5t-185 -36q-55 0 -96.5 4.5t-81.5 17t-61.5 38.5t-21.5 65q0 63 35 115q73 -43 191 -43
q133 0 200.5 87t73.5 247zM563 262q-6 99 -46.5 154t-106.5 55q-56 0 -93.5 -35.5t-37.5 -99.5q0 -62 37 -94.5t100 -32.5q67 0 147 53z" />
    <glyph glyph-name="Euro" unicode="&#x20ac;" horiz-adv-x="1386" 
d="M365 920q60 219 222 332.5t394 113.5q299 0 299 -174q0 -70 -53 -123q-96 47 -236 47q-246 0 -336 -196h484v-172h-531q-4 -54 -4 -89q0 -33 2 -49h533v-172h-492q84 -207 340 -207q148 0 254 56q45 -50 45 -121q0 -98 -88 -144.5t-231 -46.5q-528 0 -617 463h-225v172
h207q-2 14 -2 45q0 35 4 93h-209v172h240z" />
    <glyph glyph-name="uni2117" unicode="&#x2117;" horiz-adv-x="1683" 
d="M825 1368q201 0 360 -89t248 -248t89 -359t-89 -359.5t-248.5 -248.5t-359.5 -89t-359 89t-248 248t-89 360q0 200 89 359t248 248t359 89zM825 1212q-112 0 -209 -41.5t-164.5 -113.5t-106 -172t-38.5 -213q0 -231 146 -386t372 -155t371 155t145 386t-145 385.5
t-371 154.5zM877 520h-101v-237h-186v751h328q128 0 187.5 -66.5t59.5 -176.5q0 -121 -73 -196t-215 -75zM776 883v-203h76q53 0 82 27.5t29 78.5q0 44 -26 70.5t-75 26.5h-86z" />
    <glyph glyph-name="trademark" unicode="&#x2122;" horiz-adv-x="1986" 
d="M1092 727h-187l62 737h276l156 -557l151 557h279l61 -737h-198l-29 545l-152 -545h-239l-152 545zM535 1294v-567h-191v567h-238v170h666v-170h-237z" />
    <glyph glyph-name="uni2126" unicode="&#x2126;" horiz-adv-x="1519" 
d="M1110 207l2 -6q37 6 88 6h209v-207h-569v205q134 84 194 213.5t60 314.5q0 180 -83 291t-233 111q-83 0 -151 -35t-111 -93t-66.5 -131.5t-23.5 -152.5q0 -201 61 -322t191 -202v-199h-567v207h190q51 0 88 -6l2 6q-246 154 -246 516q0 106 23 199.5t73.5 175.5t125 141
t184 93t244.5 34q122 0 221.5 -34t164.5 -90.5t109 -134t63 -161t19 -174.5q0 -387 -262 -565z" />
    <glyph glyph-name="arrowleft" unicode="&#x2190;" horiz-adv-x="2048" 
d="M502 471l561 -551l-195 -194l-868 868l868 868l187 -186l-572 -559h1565v-246h-1546z" />
    <glyph glyph-name="arrowup" unicode="&#x2191;" horiz-adv-x="2048" 
d="M901 1051l-559 -570l-186 187l868 868l868 -868l-192 -193l-553 561v-1548h-246v1563z" />
    <glyph glyph-name="arrowright" unicode="&#x2192;" horiz-adv-x="2048" 
d="M1546 717l-561 551l195 194l868 -868l-868 -868l-187 186l572 559h-1565v246h1546z" />
    <glyph glyph-name="arrowdown" unicode="&#x2193;" horiz-adv-x="2048" 
d="M1147 -27l559 570l186 -187l-868 -868l-868 868l192 193l553 -561v1548h246v-1563z" />
    <glyph glyph-name="uni2196" unicode="&#x2196;" horiz-adv-x="2048" 
d="M526 899l6 -786h-274v1228h1229v-262l-799 6l1106 -1105l-174 -175z" />
    <glyph glyph-name="uni2197" unicode="&#x2197;" horiz-adv-x="2048" 
d="M1358 1083l-797 -6v264h1229v-1228h-274l8 788l-1096 -1096l-174 175z" />
    <glyph glyph-name="uni2198" unicode="&#x2198;" horiz-adv-x="2048" 
d="M1522 43l-6 786h274v-1228h-1229v262l799 -6l-1106 1106l174 174z" />
    <glyph glyph-name="uni2199" unicode="&#x2199;" horiz-adv-x="2048" 
d="M690 -141l797 6v-264h-1229v1228h274l-8 -788l1096 1096l174 -174z" />
    <glyph glyph-name="uni21E0" unicode="&#x21e0;" horiz-adv-x="2099" 
d="M1737 594q0 62 41.5 103.5t103.5 41.5t104 -42t42 -103t-42 -103t-104 -42t-103.5 41.5t-41.5 103.5zM553 -133q0 61 41.5 103t103.5 42t104 -42t42 -103t-42 -103.5t-104 -42.5q-61 0 -103 42t-42 104zM553 1321q0 61 41.5 103t103.5 42t104 -42t42 -103t-42 -103
t-104 -42t-103.5 42t-41.5 103zM868 594q0 61 42 103t104 42t103.5 -41.5t41.5 -103.5t-41.5 -103.5t-103.5 -41.5t-104 42t-42 103zM0 594q0 62 42 103.5t103 41.5q62 0 104 -42t42 -103t-42 -103t-104 -42q-61 0 -103 41.5t-42 103.5zM434 594q0 61 42 103t104 42
t103.5 -41.5t41.5 -103.5t-41.5 -103.5t-103.5 -41.5t-104 42t-42 103zM1303 594q0 62 41.5 103.5t103.5 41.5t103.5 -41.5t41.5 -103.5t-41.5 -103.5t-103.5 -41.5t-103.5 41.5t-41.5 103.5zM276 958q0 60 42.5 103t103.5 43t103 -43t42 -103q0 -62 -41.5 -103.5
t-103.5 -41.5t-104 42t-42 103zM276 229q0 61 42 103.5t104 42.5q61 0 103 -42t42 -104q0 -60 -42 -102.5t-103 -42.5t-103.5 42.5t-42.5 102.5z" />
    <glyph glyph-name="uni21E2" unicode="&#x21e2;" horiz-adv-x="2099" 
d="M362 594q0 -62 -42 -103.5t-103 -41.5t-103 41.5t-42 103.5t42 103.5t103 41.5t103 -41.5t42 -103.5zM1546 1321q0 -61 -42 -103t-103 -42q-62 0 -104 42t-42 103t42 103t104 42q61 0 103 -42t42 -103zM1546 -133q0 -62 -42 -104t-103 -42t-103.5 42.5t-42.5 103.5
t42 103t104 42q61 0 103 -42t42 -103zM1231 594q0 -61 -42 -103t-104 -42q-61 0 -103 41.5t-42 103.5t42 103.5t103 41.5q62 0 104 -42t42 -103zM2099 594q0 -62 -41.5 -103.5t-103.5 -41.5t-104 42t-42 103t42 103t104 42t103.5 -41.5t41.5 -103.5zM1665 594
q0 -62 -41.5 -103.5t-103.5 -41.5t-104 42t-42 103t42 103t104 42t103.5 -41.5t41.5 -103.5zM797 594q0 -61 -42 -103t-104 -42q-61 0 -103 41.5t-42 103.5t42 103.5t103 41.5q62 0 104 -42t42 -103zM1823 229q0 -60 -42.5 -102.5t-103.5 -42.5t-103 42.5t-42 102.5
q0 62 42 104t103 42t103.5 -42.5t42.5 -103.5zM1823 958q0 -61 -42 -103t-104 -42q-61 0 -103 41.5t-42 103.5q0 60 42 103t103 43t103.5 -43t42.5 -103z" />
    <glyph glyph-name="partialdiff" unicode="&#x2202;" horiz-adv-x="1191" 
d="M817 807q-10 95 -37 174t-70.5 141.5t-109 97.5t-147.5 35q-139 0 -213 -38q-41 61 -41 126q0 146 276 146q151 0 271.5 -63.5t195.5 -173t114.5 -251t39.5 -303.5q0 -156 -31 -281t-83 -206t-123.5 -135.5t-147.5 -77.5t-160 -23q-220 0 -337.5 122t-117.5 309
q0 217 119.5 340.5t355.5 123.5q120 0 246 -63zM821 606q-96 47 -219 47q-113 0 -170 -64t-57 -179q0 -96 54 -152.5t142 -56.5q95 0 166 101.5t84 303.5z" />
    <glyph glyph-name="uni2206" unicode="&#x2206;" horiz-adv-x="1214" 
d="M0 0l455 1341h303l456 -1341h-1214zM850 217l-248 836l-244 -836h492z" />
    <glyph glyph-name="product" unicode="&#x220f;" horiz-adv-x="1388" 
d="M944 1106h-369v-1106h-268v1106h-209v235h1325v-235h-211v-1106h-268v1106z" />
    <glyph glyph-name="summation" unicode="&#x2211;" horiz-adv-x="1134" 
d="M541 684l-410 453v204h877v-235h-502l371 -422l-400 -444h541v-240h-893v207z" />
    <glyph glyph-name="minus" unicode="&#x2212;" horiz-adv-x="1177" 
d="M109 702h962v-233h-962v233z" />
    <glyph glyph-name="uni2219" unicode="&#x2219;" horiz-adv-x="571" 
d="M287 776q79 0 126.5 -51t47.5 -133t-46.5 -131t-127.5 -49q-82 0 -129 48.5t-47 131.5t47.5 133.5t128.5 50.5z" />
    <glyph glyph-name="radical" unicode="&#x221a;" horiz-adv-x="1302" 
d="M1391 1722l-555 -1722h-314l-289 821h-192v203h416l225 -758l408 1456h301z" />
    <glyph glyph-name="infinity" unicode="&#x221e;" horiz-adv-x="1871" 
d="M928 440q-246 -225 -490 -225q-117 0 -203 50.5t-127.5 129.5t-41.5 174q0 155 104 263t281 108q118 0 238.5 -60t258.5 -165q225 225 488 225q173 0 271.5 -102.5t98.5 -249.5q0 -100 -43.5 -184t-132 -136.5t-207.5 -52.5q-118 0 -237.5 59.5t-257.5 165.5zM782 551
q-110 85 -183.5 128.5t-133.5 43.5q-66 0 -110 -40t-44 -101q0 -74 45 -112t131 -38q75 0 143 28t152 91zM1090 606q111 -87 185 -130.5t134 -43.5q65 0 108.5 40.5t43.5 102.5q0 73 -45.5 110.5t-131.5 37.5q-75 0 -141.5 -26.5t-152.5 -90.5z" />
    <glyph glyph-name="uni2224" unicode="&#x2224;" horiz-adv-x="571" 
d="M287 776q79 0 126.5 -51t47.5 -133t-46.5 -131t-127.5 -49q-82 0 -129 48.5t-47 131.5t47.5 133.5t128.5 50.5z" />
    <glyph glyph-name="logicaland" unicode="&#x2227;" horiz-adv-x="571" 
d="M287 776q79 0 126.5 -51t47.5 -133t-46.5 -131t-127.5 -49q-82 0 -129 48.5t-47 131.5t47.5 133.5t128.5 50.5z" />
    <glyph glyph-name="integral" unicode="&#x222b;" horiz-adv-x="774" 
d="M471 1077q0 -184 48 -552t48 -554q0 -189 -96 -292t-281 -103q-247 0 -247 133q0 76 49 137q70 -41 174 -41q75 0 106 47.5t31 135.5q0 184 -48 553t-48 553q0 189 96 292t281 103q245 0 245 -133q0 -79 -47 -137q-70 41 -174 41q-75 0 -106 -47.5t-31 -135.5z" />
    <glyph glyph-name="approxequal" unicode="&#x2248;" horiz-adv-x="1177" 
d="M121 346q0 78 62.5 129t160.5 51q114 0 249 -40t232 -40q117 0 203 70q41 -59 41 -121q0 -79 -62 -131.5t-153 -52.5q-97 0 -178.5 20t-156.5 40t-157 20q-118 0 -204 -70q-37 49 -37 125zM121 760q0 79 62.5 130.5t160.5 51.5q114 0 249 -40t232 -40q117 0 203 70
q41 -59 41 -121q0 -79 -62 -131.5t-153 -52.5q-97 0 -178.5 20t-156.5 40t-157 20q-118 0 -204 -70q-37 49 -37 123z" />
    <glyph glyph-name="notequal" unicode="&#x2260;" horiz-adv-x="1177" 
d="M885 903h172v-221h-301l-115 -184h416v-219h-547l-156 -259l-157 95l100 164h-174v219h303l117 184h-420v221h549l153 252l158 -94z" />
    <glyph glyph-name="lessequal" unicode="&#x2264;" horiz-adv-x="858" 
d="M612 285l-571 571l571 571l174 -176l-399 -389l406 -397zM41 231h772v-231h-772v231z" />
    <glyph glyph-name="greaterequal" unicode="&#x2265;" horiz-adv-x="858" 
d="M248 1425l569 -569l-571 -571l-174 174l399 391l-405 395zM817 231v-231h-772v231h772z" />
    <glyph glyph-name="dotmath" unicode="&#x22c5;" horiz-adv-x="571" 
d="M287 776q79 0 126.5 -51t47.5 -133t-46.5 -131t-127.5 -49q-82 0 -129 48.5t-47 131.5t47.5 133.5t128.5 50.5z" />
    <glyph glyph-name="uni2505" unicode="&#x2505;" horiz-adv-x="1302" 
d="M362 594q0 -62 -42 -103.5t-103 -41.5t-103 41.5t-42 103.5t42 103.5t103 41.5t103 -41.5t42 -103.5zM797 594q0 -61 -42 -103t-104 -42q-61 0 -103 41.5t-42 103.5t42 103.5t103 41.5q62 0 104 -42t42 -103zM1231 594q0 -61 -42 -103t-104 -42q-61 0 -103 41.5
t-42 103.5t42 103.5t103 41.5q62 0 104 -42t42 -103z" />
    <glyph glyph-name="uni2507" unicode="&#x2507;" horiz-adv-x="681" 
d="M342 -215q62 0 103.5 -41.5t41.5 -103.5t-42 -104t-103 -42t-103 42t-42 104t41.5 103.5t103.5 41.5zM342 221q62 0 103.5 -41.5t41.5 -103.5t-42 -104t-103 -42t-103 42t-42 104t41.5 103.5t103.5 41.5zM342 657q62 0 103.5 -41.5t41.5 -103.5t-41.5 -103.5
t-103.5 -41.5t-103.5 41.5t-41.5 103.5t41.5 103.5t103.5 41.5zM342 1094q61 0 103 -42t42 -104t-41.5 -103.5t-103.5 -41.5t-103.5 41.5t-41.5 103.5t42 104t103 42zM342 1530q61 0 103 -42t42 -104t-41.5 -103.5t-103.5 -41.5t-103.5 41.5t-41.5 103.5t42 104t103 42z" />
    <glyph glyph-name="filledbox" unicode="&#x25a0;" horiz-adv-x="1341" 
d="M0 1341h1341v-1341h-1341v1341z" />
    <glyph glyph-name="H22073" unicode="&#x25a1;" horiz-adv-x="1341" 
d="M0 1341h1341v-1341h-1341v1341zM268 1094v-846h805v846h-805z" />
    <glyph glyph-name="uni25B8" unicode="&#x25b8;" horiz-adv-x="921" 
d="M174 186v770l655 -385z" />
    <glyph glyph-name="uni25C2" unicode="&#x25c2;" horiz-adv-x="921" 
d="M748 956v-770l-656 385z" />
    <glyph glyph-name="lozenge" unicode="&#x25ca;" horiz-adv-x="1306" 
d="M1266 676l-475 -676h-273l-477 676l475 665h272zM360 682l299 -436l285 424l-297 426z" />
    <glyph glyph-name="circle" unicode="&#x25cb;" horiz-adv-x="1388" 
d="M694 1366q199 0 358 -89.5t248 -248.5t89 -358q0 -149 -52.5 -278.5t-143.5 -220.5t-220.5 -143.5t-278.5 -52.5q-199 0 -357.5 89t-247.5 248t-89 358t89 358t247.5 248.5t357.5 89.5zM694 1106q-182 0 -297.5 -123.5t-115.5 -310.5t115.5 -310.5t297.5 -123.5
q183 0 298.5 123.5t115.5 310.5t-115.5 310.5t-298.5 123.5z" />
    <glyph glyph-name="H18533" unicode="&#x25cf;" horiz-adv-x="1388" 
d="M694 1366q199 0 358 -89.5t248 -248.5t89 -358q0 -149 -52.5 -278.5t-143.5 -220.5t-220.5 -143.5t-278.5 -52.5q-199 0 -357.5 89t-247.5 248t-89 358t89 358t247.5 248.5t357.5 89.5z" />
    <glyph glyph-name="uni25FB" unicode="&#x25fb;" horiz-adv-x="1024" 
d="M0 1024h1024v-1024h-1024v1024zM264 784v-544h496v544h-496z" />
    <glyph glyph-name="uni25FC" unicode="&#x25fc;" horiz-adv-x="1024" 
d="M0 1024h1024v-1024h-1024v1024z" />
    <glyph glyph-name="circle.alt001" horiz-adv-x="1069" 
d="M535 1049q231 0 382.5 -153.5t151.5 -385.5q0 -233 -151 -384t-383 -151q-233 0 -384 151t-151 384t151.5 386t383.5 153zM535 791q-117 0 -190 -79.5t-73 -199.5q0 -121 73 -200t190 -79t189.5 79t72.5 200q0 120 -72.5 199.5t-189.5 79.5z" />
    <glyph glyph-name="H18533.alt001" horiz-adv-x="1069" 
d="M535 1049q231 0 382.5 -153.5t151.5 -385.5q0 -233 -151 -384t-383 -151q-233 0 -384 151t-151 384t151.5 386t383.5 153z" />
    <glyph glyph-name="parenleft.case" horiz-adv-x="692" 
d="M150 670q0 141 24 276t57.5 229.5t77.5 180t74.5 130t58.5 77.5q56 65 133 65q36 0 72.5 -17t59.5 -42q-124 -202 -169 -297q-113 -238 -124 -525q-2 -37 -2 -77q0 -102 9 -191t31.5 -171t42 -139.5t60.5 -135.5t64.5 -118t76.5 -126q7 -12 11 -18q-23 -25 -59.5 -42.5
t-72.5 -17.5q-76 0 -133 66q-29 35 -58 78t-74 130t-78 180.5t-57.5 228.5t-24.5 276z" />
    <glyph glyph-name="parenright.case" horiz-adv-x="692" 
d="M543 670q0 -141 -24 -276t-57.5 -229.5t-78 -180t-75 -130t-58.5 -77.5q-57 -66 -133 -66q-73 0 -133 60q4 7 13 21q124 203 173 314q111 253 111 564q0 70 -6 136t-12.5 118t-24 112t-28 97.5t-38 95.5t-39.5 84.5t-47.5 87.5t-48 81.5t-53.5 86.5q59 59 133 59
q77 0 133 -65q29 -35 58 -78t74.5 -130t78.5 -180.5t57.5 -228.5t24.5 -276z" />
    <glyph glyph-name="hyphen.case" horiz-adv-x="786" 
d="M686 788v-237h-588v237h588z" />
    <glyph glyph-name="bracketleft.case" horiz-adv-x="700" 
d="M223 1602h477v-199h-235v-1466h235v-199h-477v1864z" />
    <glyph glyph-name="bracketright.case" horiz-adv-x="716" 
d="M477 -262h-477v199h236v1466h-236v199h477v-1864z" />
    <glyph glyph-name="braceleft.case" horiz-adv-x="714" 
d="M279 1325q0 134 72.5 205.5t203.5 71.5h160v-199h-101q-43 0 -68.5 -26.5t-25.5 -69.5v-330q0 -103 -60 -182t-138 -101q77 -22 137.5 -101t60.5 -181v-379q0 -43 25.5 -69.5t68.5 -26.5h101v-199h-160q-132 0 -204 71t-72 205v359q0 109 -52 159.5t-143 65.5v184
q92 20 143.5 70t51.5 156v317z" />
    <glyph glyph-name="braceright.case" horiz-adv-x="714" 
d="M436 14q0 -134 -72 -205t-204 -71h-160v199h100q43 0 69 26.5t26 69.5v377q0 103 61 181.5t139 100.5q-78 22 -139 101t-61 182v332q0 43 -26 69.5t-69 26.5h-100v199h160q131 0 203.5 -71.5t72.5 -205.5v-317q0 -106 51.5 -156t143.5 -70v-184q-91 -17 -143 -67
t-52 -158v-359z" />
    <glyph glyph-name="guillemotleft.case" horiz-adv-x="1136" 
d="M315 686l117 -133q24 -27 38.5 -45.5t29 -49.5t14.5 -59q0 -104 -186 -145l-287 416q44 91 192 317q61 98 132 98q88 0 167 -104zM854 686l117 -133q24 -27 38.5 -45.5t29 -49.5t14.5 -59q0 -104 -187 -145l-286 416q44 91 192 317q61 98 131 98q89 0 168 -104z" />
    <glyph glyph-name="uni00AD.case" horiz-adv-x="786" 
d="M686 788v-237h-588v237h588z" />
    <glyph glyph-name="guillemotright.case" horiz-adv-x="1136" 
d="M283 653l-115 133q-84 97 -84 150q0 108 186 149l289 -415q-14 -29 -42 -77t-51 -84.5t-57.5 -90.5t-41.5 -66q-64 -98 -134 -98q-85 0 -167 104zM821 653l-114 133q-84 97 -84 150q0 108 186 149l289 -415q-18 -38 -51.5 -93.5t-87 -139.5t-54.5 -85q-64 -98 -133 -98
q-86 0 -168 104z" />
    <glyph glyph-name="endash.case" horiz-adv-x="1024" 
d="M1024 782v-225h-1024v225h1024z" />
    <glyph glyph-name="emdash.case" horiz-adv-x="2048" 
d="M2048 782v-225h-2048v225h2048z" />
    <glyph glyph-name="guilsinglleft.case" horiz-adv-x="600" 
d="M315 686l117 -133q24 -27 38.5 -45.5t29 -49.5t14.5 -59q0 -104 -186 -145l-287 416q44 91 192 317q61 98 132 98q88 0 167 -104z" />
    <glyph glyph-name="guilsinglright.case" horiz-adv-x="600" 
d="M283 653l-115 133q-45 52 -64.5 85.5t-19.5 64.5q0 108 186 149l289 -415q-14 -29 -42 -77t-51 -84.5t-57.5 -90.5t-41.5 -66q-64 -98 -134 -98q-85 0 -167 104z" />
    <glyph glyph-name="zero.dnom" 
d="M434 973q182 0 279.5 -119t97.5 -358q0 -248 -101 -383.5t-282 -135.5q-199 0 -294 121t-95 369q0 244 104.5 375t290.5 131zM430 774q-149 0 -149 -301q0 -295 147 -295q65 0 103 78t38 229q0 147 -36.5 218t-102.5 71z" />
    <glyph glyph-name="one.dnom" 
d="M365 745l-232 -75q-31 72 -31 116q0 79 89.5 125.5t252.5 46.5q121 0 160 -2v-763h209v-193h-688v193h240v552z" />
    <glyph glyph-name="two.dnom" 
d="M420 973q164 0 248 -79t84 -216q0 -146 -113 -273t-291 -204h420v-201h-674v188q108 77 171 126t126.5 109t92 112.5t28.5 105.5q0 55 -31.5 85t-93.5 30q-71 0 -139 -25.5t-117 -66.5q-47 50 -47 114q0 90 91.5 142.5t244.5 52.5z" />
    <glyph glyph-name="three.dnom" 
d="M567 510v-6q93 -13 146 -78t53 -158q0 -128 -106 -209.5t-271 -81.5q-146 0 -218.5 38.5t-72.5 127.5q0 55 35 99q114 -60 211 -60q87 0 134.5 31.5t47.5 79.5q0 96 -180 96h-143v170q307 3 307 117q0 86 -121 86q-66 0 -120 -18t-119 -54q-46 52 -46 105q0 85 84 131.5
t244 46.5q149 0 229 -64.5t80 -173.5q0 -168 -174 -225z" />
    <glyph glyph-name="four.dnom" 
d="M676 215v-215h-230v215h-421v182l391 557h260v-551h137v-188h-137zM446 403v308l-208 -308h208z" />
    <glyph glyph-name="five.dnom" 
d="M727 954v-200h-365v-142h17q389 0 389 -295q0 -155 -107 -247.5t-305 -92.5q-264 0 -264 164q0 57 37 103q42 -25 100.5 -43.5t110.5 -18.5q87 0 136.5 35t49.5 90q0 123 -215 123h-180v524h596z" />
    <glyph glyph-name="six.dnom" 
d="M289 442q68 189 241 189q134 0 204.5 -83.5t70.5 -215.5q0 -72 -23.5 -135t-69.5 -112.5t-119.5 -78.5t-166.5 -29q-100 0 -174 35.5t-116.5 99t-62.5 143t-20 177.5q0 128 37 231.5t101.5 170.5t150.5 103t186 36q55 0 96 -4.5t81 -17t61.5 -38.5t21.5 -65
q0 -65 -34 -113q-70 41 -191 41q-133 0 -200.5 -87t-73.5 -247zM289 383q6 -101 46 -156t105 -55q58 0 95.5 35.5t37.5 99.5q0 62 -37.5 94.5t-101.5 32.5q-68 0 -145 -51z" />
    <glyph glyph-name="seven.dnom" 
d="M84 954h723v-174l-330 -608q-59 -109 -97 -155t-85 -46q-87 0 -158 105q88 132 125 194l277 478h-455v206z" />
    <glyph glyph-name="eight.dnom" 
d="M244 473q-76 46 -120 104.5t-44 143.5q0 120 93.5 186t252.5 66q91 0 160 -20.5t108 -55.5t57.5 -76t18.5 -86q0 -73 -45 -126t-123 -97q88 -45 138.5 -108t50.5 -158q0 -124 -100.5 -196.5t-272.5 -72.5t-266.5 65.5t-94.5 186.5q0 81 49 137t138 107zM389 401
q-96 -63 -96 -133q0 -48 39 -74t90 -26q61 0 96 24t35 72q0 41 -42 72t-122 65zM453 580q43 32 65.5 61.5t22.5 65.5q0 41 -29 64.5t-82 23.5q-58 0 -89.5 -23t-31.5 -67q0 -36 36 -64t108 -61z" />
    <glyph glyph-name="nine.dnom" 
d="M563 508q-69 -189 -241 -189q-134 0 -204.5 84.5t-70.5 217.5q0 71 23.5 133.5t69.5 112t119.5 78t166.5 28.5q100 0 174 -35.5t116.5 -99t62.5 -142.5t20 -176q0 -128 -37.5 -232t-102 -171.5t-150.5 -103.5t-185 -36q-55 0 -96.5 4.5t-81.5 17t-61.5 38.5t-21.5 65
q0 63 35 115q73 -43 191 -43q133 0 200.5 87t73.5 247zM563 569q-6 99 -46.5 154t-106.5 55q-56 0 -93.5 -35.5t-37.5 -99.5q0 -62 37 -94.5t100 -32.5q67 0 147 53z" />
    <glyph glyph-name="grave.lc" horiz-adv-x="1163" 
d="M596 1124l-258 207q-50 40 -69 69.5t-19 63.5q0 93 129 152l254 -203q51 -41 70.5 -71t19.5 -62q0 -96 -127 -156z" />
    <glyph glyph-name="dieresis.lc" horiz-adv-x="1163" 
d="M354 1470q70 0 113 -40.5t43 -108.5q0 -70 -43 -111t-113 -41t-113.5 41t-43.5 111q0 68 43.5 108.5t113.5 40.5zM811 1470q70 0 113 -40.5t43 -108.5q0 -69 -43.5 -110.5t-112.5 -41.5q-70 0 -113 41t-43 111q0 68 43 108.5t113 40.5z" />
    <glyph glyph-name="macron.lc" horiz-adv-x="1198" 
d="M909 1374v-205h-628v205h628z" />
    <glyph glyph-name="acute.lc" horiz-adv-x="1163" 
d="M426 1268l238 243q72 72 133 72q93 0 151 -137l-237 -242q-71 -71 -133 -71q-94 0 -152 135z" />
    <glyph glyph-name="circumflex.lc" horiz-adv-x="1163" 
d="M582 1286l-107 -84q-77 -59 -121 -59q-55 0 -89.5 40t-57.5 122l362 233q149 -64 248 -125q103 -63 103 -129q0 -83 -91 -156z" />
    <glyph glyph-name="caron.lc" horiz-adv-x="1046" 
d="M522 1372l107 84q75 60 121 60q54 0 89.5 -40t57.5 -122l-362 -232q-125 51 -248 123q-105 65 -105 129q0 84 92 156z" />
    <glyph glyph-name="breve.lc" horiz-adv-x="1198" 
d="M604 1343q29 0 63 28t61.5 61.5t62.5 61.5t65 28q79 0 129 -92q-59 -120 -177.5 -214t-223.5 -94q-50 0 -130.5 41.5t-147 108.5t-66.5 127q0 105 120 131q157 -187 244 -187z" />
    <glyph glyph-name="dotaccent.lc" horiz-adv-x="1198" 
d="M596 1495q82 0 132 -48.5t50 -129.5t-51 -129.5t-131 -48.5q-84 0 -134 48.5t-50 129.5q0 80 50.5 129t133.5 49z" />
    <glyph glyph-name="ring.lc" horiz-adv-x="1114" 
d="M791 1366q0 -89 -63.5 -151t-166.5 -62q-105 0 -168 60t-63 153q0 90 65.5 151.5t165.5 61.5q105 0 167.5 -60.5t62.5 -152.5zM649 1366q0 40 -25 66t-63 26q-39 0 -63.5 -26t-24.5 -66q0 -39 24.5 -65.5t63.5 -26.5q38 0 63 26.5t25 65.5z" />
    <glyph glyph-name="tilde.lc" horiz-adv-x="1163" 
d="M207 1309q0 75 53 118t131 43q75 0 176 -30.5t158 -30.5q100 0 172 57q19 -24 31 -59t12 -61q0 -76 -51.5 -119t-124.5 -43q-79 0 -182 29.5t-160 29.5q-98 0 -172 -55q-19 24 -31 58.5t-12 62.5z" />
    <glyph glyph-name="hungarumlaut.lc" horiz-adv-x="1198" 
d="M659 1260l240 219q71 65 123 65q86 0 137 -127l-241 -217q-41 -36 -67.5 -51.5t-55.5 -15.5q-87 0 -136 127zM223 1249l201 228q59 67 121 67q73 0 135 -117l-203 -227q-61 -67 -121 -67q-70 0 -133 116z" />
    <glyph glyph-name="diedot.lc" horiz-adv-x="1163" 
d="M354 1470q70 0 113 -40.5t43 -108.5q0 -70 -43 -111t-113 -41t-113.5 41t-43.5 111q0 68 43.5 108.5t113.5 40.5z" />
    <glyph glyph-name="zero.lf" horiz-adv-x="1228" 
d="M629 1368q242 0 370.5 -166.5t128.5 -503.5q0 -350 -133 -536.5t-379 -186.5q-262 0 -390 168.5t-128 518.5q0 343 139.5 524.5t391.5 181.5zM625 1141q-124 0 -188 -120.5t-64 -352.5q0 -463 245 -463q110 0 174 122.5t64 358.5q0 229 -60.5 342t-170.5 113z" />
    <glyph glyph-name="one.lf" horiz-adv-x="1058" 
d="M483 1098l-340 -119q-39 66 -39 135q0 65 64 118.5t169.5 83.5t227.5 30q101 0 183 -7v-1118h305v-221h-910v221h340v877z" />
    <glyph glyph-name="two.lf" horiz-adv-x="1091" 
d="M526 1366q208 0 320 -105t112 -290q0 -140 -78.5 -283t-199 -256t-272.5 -203h593v-229h-884v219q106 85 181.5 151t153.5 144.5t126 144.5t78 138t30 139q0 90 -47.5 138t-142.5 48q-182 0 -328 -131q-62 62 -62 133q0 75 58 130.5t152.5 83.5t209.5 28z" />
    <glyph glyph-name="three.lf" horiz-adv-x="1032" 
d="M668 721v-12q131 -12 207.5 -100.5t76.5 -221.5q0 -184 -140 -298t-359 -114q-192 0 -285.5 48t-93.5 153q0 64 47 121q132 -82 278 -82q132 0 202.5 51.5t70.5 136.5t-76.5 132t-226.5 47h-152v196q234 4 335 56.5t101 150.5q0 64 -50 102.5t-142 38.5q-97 0 -170.5 -27
t-145.5 -81q-59 56 -59 125q0 103 116.5 163t301.5 60q196 0 305 -88t109 -238q0 -117 -62 -199.5t-188 -119.5z" />
    <glyph glyph-name="four.lf" horiz-adv-x="1163" 
d="M909 328v-328h-260v328h-604v211l563 802h301v-794h215v-219h-215zM649 547v514l-356 -514h356z" />
    <glyph glyph-name="five.lf" horiz-adv-x="1058" 
d="M905 1341v-231h-495v-268q153 0 262.5 -28.5t173 -84t92.5 -128.5t29 -169q0 -210 -143 -333.5t-398 -123.5q-158 0 -247 47.5t-89 147.5q0 64 47 121q129 -78 273 -78q132 0 206 56t74 151q0 119 -87.5 166t-250.5 47h-207v708h760z" />
    <glyph glyph-name="six.lf" horiz-adv-x="1181" 
d="M371 643q62 227 319 227q189 0 293 -111t104 -302q0 -215 -130.5 -348.5t-358.5 -133.5q-170 0 -284 80t-166 220t-52 337q0 184 48 329t134.5 237t204 140t258.5 48q320 0 320 -152q0 -69 -43 -129q-39 22 -107 37t-141 15q-189 0 -288.5 -126.5t-110.5 -367.5zM369 549
q7 -165 71.5 -256.5t167.5 -91.5q94 0 153.5 62t59.5 165q0 105 -60.5 159t-162.5 54q-120 0 -229 -92z" />
    <glyph glyph-name="seven.lf" horiz-adv-x="1042" 
d="M61 1341h961v-172l-461 -901q-83 -165 -140.5 -237t-119.5 -72q-107 0 -168 119q132 185 199 307l395 723h-666v233z" />
    <glyph glyph-name="eight.lf" horiz-adv-x="1185" 
d="M805 719q61 -32 107 -65t88 -78t64.5 -102t22.5 -124q0 -169 -138.5 -272t-362.5 -103q-230 0 -359 92t-129 259q0 59 21.5 110.5t63 93.5t86.5 74.5t108 67.5q-55 32 -95 63.5t-76.5 73.5t-55.5 94t-19 113q0 164 127 257t336 93q120 0 211.5 -29t144 -77.5t78 -105.5
t25.5 -120q0 -70 -36.5 -130.5t-86 -100t-125.5 -84.5zM553 582q-84 -50 -130 -102.5t-46 -119.5q0 -81 63.5 -124t149.5 -43q96 0 156.5 44t60.5 117q0 30 -14.5 57t-34.5 47.5t-57.5 44.5t-67 39.5t-80.5 39.5zM625 803q77 48 119 97t42 110q0 64 -49.5 106.5t-138.5 42.5
q-93 0 -146 -42t-53 -111q0 -60 57 -105t169 -98z" />
    <glyph glyph-name="nine.lf" horiz-adv-x="1181" 
d="M811 698q-62 -227 -319 -227q-189 0 -293.5 111.5t-104.5 302.5q0 215 131 348t359 133q128 0 224.5 -45t157 -129.5t90 -200t29.5 -262.5q0 -184 -48 -329t-134.5 -237t-204 -140t-258.5 -48q-319 0 -319 152q0 69 43 129q39 -21 107 -36t141 -15q190 0 289 126t110 367
zM813 793q-7 165 -72 256.5t-168 91.5q-93 0 -153 -62.5t-60 -165.5q0 -105 61 -159t163 -54q118 0 229 93z" />
    <glyph glyph-name="zero.numr" 
d="M434 1366q182 0 279.5 -119t97.5 -358q0 -248 -101 -383t-282 -135q-199 0 -294 120.5t-95 368.5q0 244 104.5 375t290.5 131zM430 1167q-149 0 -149 -301q0 -295 147 -295q65 0 103 78.5t38 229.5q0 288 -139 288z" />
    <glyph glyph-name="one.numr" 
d="M365 1139l-232 -76q-31 72 -31 117q0 79 89.5 125.5t252.5 46.5q121 0 160 -2v-764h209v-193h-688v193h240v553z" />
    <glyph glyph-name="two.numr" 
d="M420 1366q164 0 248 -79t84 -216q0 -146 -113 -273t-291 -204h420v-201h-674v189q71 51 116.5 85t99 76.5t86 76t61.5 71t42 72.5t13 71q0 55 -31.5 85t-93.5 30q-71 0 -139 -25.5t-117 -66.5q-47 50 -47 114q0 90 91.5 142.5t244.5 52.5z" />
    <glyph glyph-name="three.numr" 
d="M567 903v-6q93 -13 146 -77.5t53 -157.5q0 -128 -106 -209.5t-271 -81.5q-146 0 -218.5 38.5t-72.5 127.5q0 54 35 98q114 -60 211 -60q87 0 134.5 31.5t47.5 79.5q0 96 -180 96h-143v170q307 3 307 117q0 86 -121 86q-66 0 -120 -18t-119 -54q-46 52 -46 105
q0 85 84 131.5t244 46.5q149 0 229 -64.5t80 -173.5q0 -168 -174 -225z" />
    <glyph glyph-name="four.numr" 
d="M676 608v-215h-230v215h-421v183l391 557h260v-551h137v-189h-137zM446 797v307l-208 -307h208z" />
    <glyph glyph-name="five.numr" 
d="M727 1348v-201h-365v-141h17q389 0 389 -295q0 -155 -107 -247.5t-305 -92.5q-264 0 -264 164q0 56 37 102q42 -25 100.5 -43.5t110.5 -18.5q87 0 136.5 35t49.5 90q0 123 -215 123h-180v525h596z" />
    <glyph glyph-name="six.numr" 
d="M289 836q68 188 241 188q134 0 204.5 -83.5t70.5 -215.5q0 -72 -23.5 -135t-69.5 -112.5t-119.5 -78t-166.5 -28.5q-100 0 -174 35t-116.5 98.5t-62.5 143t-20 177.5q0 128 37 231.5t101.5 170.5t150.5 103t186 36q55 0 96 -4.5t81 -17t61.5 -38.5t21.5 -65
q0 -65 -34 -113q-70 41 -191 41q-261 0 -274 -333zM289 776q6 -101 46 -156t105 -55q58 0 95.5 35.5t37.5 99.5q0 62 -37.5 94.5t-101.5 32.5q-68 0 -145 -51z" />
    <glyph glyph-name="seven.numr" 
d="M84 1348h723v-174l-330 -609q-59 -108 -97 -154t-85 -46q-88 0 -158 104q84 125 125 195l277 477h-455v207z" />
    <glyph glyph-name="eight.numr" 
d="M244 866q-76 46 -120 104.5t-44 143.5q0 120 93.5 186t252.5 66q91 0 160 -20.5t108 -55.5t57.5 -76t18.5 -86q0 -73 -45 -126t-123 -97q88 -45 138.5 -108t50.5 -158q0 -124 -100.5 -196t-272.5 -72t-266.5 65.5t-94.5 186.5q0 81 49 136.5t138 106.5zM389 795
q-96 -63 -96 -133q0 -48 39 -74.5t90 -26.5q61 0 96 24t35 72q0 41 -42 72.5t-122 65.5zM453 973q43 32 65.5 61.5t22.5 65.5q0 41 -29 64.5t-82 23.5q-58 0 -89.5 -23t-31.5 -67q0 -36 36 -64t108 -61z" />
    <glyph glyph-name="nine.numr" 
d="M563 901q-69 -188 -241 -188q-134 0 -204.5 84t-70.5 217q0 71 23.5 133.5t69.5 112t119.5 78t166.5 28.5q100 0 174 -35.5t116.5 -99t62.5 -142.5t20 -176q0 -128 -37.5 -232t-102 -171t-150.5 -103t-185 -36q-55 0 -96.5 4.5t-81.5 17t-61.5 38.5t-21.5 65q0 62 35 114
q73 -43 191 -43q133 0 200.5 87t73.5 247zM563 963q-6 99 -46.5 153.5t-106.5 54.5q-56 0 -93.5 -35.5t-37.5 -99.5q0 -62 37 -94.5t100 -32.5q65 0 147 54z" />
    <glyph glyph-name="exclam.sc" horiz-adv-x="591" 
d="M219 379l-35 682h303l-34 -682h-234zM336 283q70 0 115 -42t45 -112t-45.5 -112t-114.5 -42q-73 0 -117.5 41.5t-44.5 112.5q0 70 44.5 112t117.5 42z" />
    <glyph glyph-name="quotedbl.sc" horiz-adv-x="1026" 
d="M391 1341v-583h-248v583h248zM883 1341v-583h-248v583h248z" />
    <glyph glyph-name="numbersign.sc" horiz-adv-x="1230" 
d="M299 627h-158v168h191l51 266h217l-51 -266h237l52 266h215l-52 -266h158v-168h-190l-37 -185h160v-170h-193l-51 -272h-215l51 272h-235l-56 -272h-215l53 272h-159v170h192zM516 627l-35 -185h236l37 185h-238z" />
    <glyph glyph-name="dollar.sc" horiz-adv-x="946" 
d="M571 -10v-140h-202v127q-52 3 -97 13t-87.5 29.5t-67.5 53.5t-25 79q0 77 58 141q121 -86 272 -86q73 0 109 23.5t36 64.5q0 30 -25.5 53t-65.5 40t-89 34.5t-98 44t-89 61t-65.5 92.5t-25.5 132q0 125 71 207.5t207 109.5v145h201v-135q243 -23 243 -164q0 -68 -57 -135
q-117 80 -250 80q-125 0 -125 -86q0 -30 25.5 -54t66 -41t89.5 -35t97.5 -43.5t89 -59t66 -87.5t25.5 -124q0 -139 -75 -225.5t-212 -114.5z" />
    <glyph glyph-name="percent.sc" horiz-adv-x="1652" 
d="M96 770q0 138 91 224.5t225 86.5q132 0 222.5 -86.5t90.5 -224.5t-90.5 -224.5t-222.5 -86.5q-134 0 -225 86.5t-91 224.5zM1006 287q0 138 91 224.5t224 86.5q132 0 221.5 -86.5t89.5 -224.5t-89.5 -225t-221.5 -87q-133 0 -224 87t-91 225zM356 31l848 1118l166 -131
l-848 -1118zM289 770q0 -63 32.5 -105t90.5 -42q57 0 90 42.5t33 104.5q0 63 -33 105.5t-90 42.5q-58 0 -90.5 -42.5t-32.5 -105.5zM1198 287q0 -63 32.5 -105.5t90.5 -42.5q56 0 88.5 42.5t32.5 105.5t-32.5 105t-88.5 42q-58 0 -90.5 -42t-32.5 -105z" />
    <glyph glyph-name="ampersand.sc" horiz-adv-x="1177" 
d="M791 72q-130 -97 -316 -97t-277.5 71.5t-91.5 199.5q0 192 170 297q-94 137 -94 243q0 295 346 295q146 0 224.5 -65.5t78.5 -167.5q0 -208 -247 -313q88 -91 194 -170q39 77 45 172q70 8 113 8q117 0 117 -96q0 -44 -21.5 -100t-56.5 -103q114 -60 223 -94
q0 -73 -39.5 -125t-105.5 -52q-98 0 -262 97zM477 659q117 80 117 166q0 33 -19 53.5t-57 20.5q-42 0 -66 -29t-24 -77q0 -57 49 -134zM610 197q-99 72 -209 192q-39 -45 -39 -102q0 -52 40 -84.5t114 -32.5q42 0 94 27z" />
    <glyph glyph-name="quotesingle.sc" horiz-adv-x="534" 
d="M391 1341v-583h-248v583h248z" />
    <glyph glyph-name="parenleft.sc" horiz-adv-x="663" 
d="M166 528q0 146 31.5 285.5t76 233.5t82 152t60.5 79q49 55 119 55q80 0 129 -55q-40 -62 -67.5 -109.5t-62.5 -124t-56.5 -148t-36.5 -168.5t-15 -200q0 -127 20 -240t59.5 -208.5t73.5 -158t85 -142.5q-51 -51 -129 -51q-71 0 -119 51q-24 24 -60 80.5t-81.5 151
t-77 233t-31.5 284.5z" />
    <glyph glyph-name="parenright.sc" horiz-adv-x="657" 
d="M498 530q0 -119 -21.5 -234.5t-52 -198.5t-67.5 -153.5t-64 -108.5t-45 -54q-50 -53 -119 -53q-79 0 -129 53q51 80 85 142.5t73.5 158t59.5 208.5t20 240q0 103 -15 200t-36.5 168.5t-56.5 148t-62.5 124t-67.5 109.5q24 24 59 38.5t70 14.5q36 0 61.5 -11.5t57.5 -41.5
q24 -23 60 -80t81.5 -151.5t77 -233.5t31.5 -285z" />
    <glyph glyph-name="asterisk.sc" horiz-adv-x="970" 
d="M352 870l-266 60q-4 28 -4 43q0 67 29.5 118.5t83.5 51.5q31 0 71 -21l148 -75l-27 288q60 31 121 31q52 0 85.5 -28.5t33.5 -90.5q0 -3 -1 -12.5t-6.5 -60t-13.5 -130.5l248 119q76 -76 76 -151q0 -83 -113 -111l-158 -37l183 -209q-26 -49 -71.5 -84.5t-90.5 -35.5
q-63 0 -100 73l-74 146l-131 -244q-68 12 -120 48t-52 89q0 45 43 96z" />
    <glyph glyph-name="slash.sc" horiz-adv-x="698" 
d="M29 -82l448 1477l223 -68l-450 -1474z" />
    <glyph glyph-name="equal.sc" horiz-adv-x="1177" 
d="M1012 862v-221h-844v221h844zM1012 457v-219h-844v219h844z" />
    <glyph glyph-name="question.sc" horiz-adv-x="755" 
d="M707 829q0 -71 -24.5 -122t-59 -80.5t-69 -56t-59 -65.5t-24.5 -93q0 -36 6 -60q-66 -16 -115 -16q-68 0 -103.5 35.5t-35.5 99.5q0 50 21.5 88t52.5 62t61.5 45t52 49t21.5 63q0 37 -27.5 59.5t-76.5 22.5q-97 0 -174 -47q-33 50 -33 117q0 63 61 107t191 44
q156 0 245 -69t89 -183zM373 276q69 0 113 -40t44 -109t-44 -110.5t-113 -41.5q-75 0 -119.5 40.5t-44.5 111.5t44.5 110t119.5 39z" />
    <glyph glyph-name="at.sc" horiz-adv-x="1779" 
d="M936 78q0 29 16 115l-22 -3q-70 -208 -236 -208q-100 0 -153.5 75.5t-53.5 206.5q0 249 121 407t307 158q115 0 205 -41q36 25 88 25q10 0 58 -6q-96 -477 -111 -657q9 -3 35 -3q97 0 178.5 105.5t81.5 267.5q0 213 -123.5 321.5t-363.5 108.5q-133 0 -248.5 -47.5
t-199.5 -132.5t-132.5 -210t-48.5 -273q0 -228 123 -344.5t354 -116.5q203 0 344 72q31 -45 31 -86q0 -56 -53 -95.5t-138.5 -57t-195.5 -17.5q-318 0 -496 167.5t-178 469.5q0 248 99.5 439t294 300.5t458.5 109.5q324 0 501 -158t177 -425q0 -266 -151 -414.5t-392 -148.5
q-39 0 -65.5 3t-54.5 12t-42 29t-14 52zM1008 631q-24 28 -80 28q-75 0 -137 -108.5t-62 -265.5q0 -90 62 -90q69 0 125 108.5t92 327.5z" />
    <glyph glyph-name="bracketleft.sc" horiz-adv-x="679" 
d="M203 1341h477v-198h-236v-1239h236v-201h-477v1638z" />
    <glyph glyph-name="backslash.sc" horiz-adv-x="698" 
d="M688 -82l-221 -65l-451 1474l222 68z" />
    <glyph glyph-name="bracketright.sc" horiz-adv-x="679" 
d="M477 -297h-477v201h236v1239h-236v198h477v-1638z" />
    <glyph glyph-name="a.sc" horiz-adv-x="1028" 
d="M676 219h-334l-63 -219h-287l368 1061h308l368 -1061h-297zM618 424l-108 375l-111 -375h219z" />
    <glyph glyph-name="b.sc" horiz-adv-x="1093" 
d="M182 1061h457q141 0 225 -64.5t84 -193.5q0 -83 -46 -142t-124 -88v-4q102 -19 150.5 -88t48.5 -153q0 -162 -105 -245t-305 -83h-385v1061zM446 442v-221h125q58 0 90.5 30.5t32.5 88.5q0 45 -31 73.5t-88 28.5h-129zM563 850h-117v-205h103q57 0 89 30t32 77
q0 45 -27.5 71.5t-79.5 26.5z" />
    <glyph glyph-name="c.sc" horiz-adv-x="1089" 
d="M926 322q36 -30 55.5 -71t19.5 -79q0 -62 -51.5 -107.5t-132.5 -67.5t-180 -22q-533 0 -533 539q0 273 149 420t404 147q149 0 241.5 -50t92.5 -140q0 -76 -76 -143q-106 94 -258 94q-129 0 -199.5 -84t-70.5 -244q0 -137 72 -215t194 -78q90 0 161 31t112 70z" />
    <glyph glyph-name="d.sc" horiz-adv-x="1210" 
d="M182 1061h434q251 0 370.5 -128.5t119.5 -383.5q0 -264 -143 -406.5t-381 -142.5h-400v1061zM446 831v-593h103q147 0 212.5 80t65.5 233q0 43 -7 82.5t-23.5 76t-41.5 63t-63 42.5t-86 16h-160z" />
    <glyph glyph-name="e.sc" horiz-adv-x="1017" 
d="M174 0v1061h717v-232h-453v-182h422v-221h-422v-193h453v-233h-717z" />
    <glyph glyph-name="f.sc" horiz-adv-x="985" 
d="M182 0v1061h703v-232h-439v-196h410v-223h-410v-410h-264z" />
    <glyph glyph-name="g.sc" horiz-adv-x="1165" 
d="M104 516q0 267 151.5 416t412.5 149q168 0 265 -48t97 -140q0 -81 -78 -145q-102 94 -282 94q-136 0 -209.5 -82.5t-73.5 -239.5q0 -142 66 -221.5t192 -79.5q63 0 115 14v273h260v-453q-163 -73 -383 -73q-270 0 -401.5 133t-131.5 403z" />
    <glyph glyph-name="h.sc" horiz-adv-x="1288" 
d="M840 432h-396v-432h-264v1061h264v-404h396v404h264v-1061h-264v432z" />
    <glyph glyph-name="i.sc" horiz-adv-x="630" 
d="M182 0v1061h264v-1061h-264z" />
    <glyph glyph-name="j.sc" horiz-adv-x="630" 
d="M-25 -127q120 10 163.5 76t43.5 182v930h264v-930q0 -224 -86.5 -333t-228.5 -109q-72 0 -116 36.5t-44 114.5q0 19 4 33z" />
    <glyph glyph-name="k.sc" horiz-adv-x="1120" 
d="M449 539l333 522h328l-373 -510l377 -551h-344zM446 1061v-1061h-264v1061h264z" />
    <glyph glyph-name="l.sc" horiz-adv-x="903" 
d="M182 0v1061h264v-828h439v-233h-703z" />
    <glyph glyph-name="m.sc" horiz-adv-x="1636" 
d="M385 0h-258l104 1061h365l223 -787l217 787h369l104 -1061h-276l-49 778l-219 -778h-310l-219 778z" />
    <glyph glyph-name="n.sc" horiz-adv-x="1320" 
d="M182 1061h299l412 -682v682h246v-1061h-308l-405 678v-678h-244v1061z" />
    <glyph glyph-name="o.sc" horiz-adv-x="1261" 
d="M639 1081q245 0 381.5 -146t136.5 -388q0 -270 -146 -421t-395 -151q-241 0 -376.5 142.5t-135.5 390.5q0 169 60 297t182 202t293 74zM635 850q-67 0 -117 -28.5t-77.5 -76.5t-40.5 -103t-13 -116q0 -88 26 -158t83 -114.5t137 -44.5q82 0 137.5 45.5t79.5 115.5t24 160
q0 63 -13.5 118t-40.5 101.5t-74.5 73.5t-110.5 27z" />
    <glyph glyph-name="p.sc" horiz-adv-x="1052" 
d="M563 342h-114v-342h-267v1061h449q97 0 168 -28t110 -77t57.5 -107t18.5 -126q0 -173 -106.5 -277t-315.5 -104zM449 838v-273h100q75 0 115.5 40.5t40.5 103.5q0 59 -36.5 94t-101.5 35h-118z" />
    <glyph glyph-name="q.sc" horiz-adv-x="1261" 
d="M535 -18q-202 22 -316.5 159.5t-114.5 366.5q0 169 60 297t182 202t293 74q245 0 381.5 -146t136.5 -388q0 -205 -83.5 -340t-237.5 -193q62 -44 106 -71.5t119.5 -60t155.5 -48.5q0 -69 -34 -122.5t-98 -53.5q-119 0 -250 83t-300 241zM635 850q-67 0 -117 -28.5
t-77.5 -76.5t-40.5 -103t-13 -116q0 -88 26 -158t83 -114.5t137 -44.5q82 0 137.5 45.5t79.5 115.5t24 160q0 63 -13.5 118t-40.5 101.5t-74.5 73.5t-110.5 27z" />
    <glyph glyph-name="r.sc" horiz-adv-x="1122" 
d="M807 442l229 -442h-311l-170 381q-6 -2 -35 -2h-74v-379h-264v1061h457q94 0 164 -27t110 -73t59 -100t19 -116q0 -91 -47.5 -171t-136.5 -132zM446 838v-242h111q69 0 111.5 35t42.5 96q0 51 -35 81t-98 30h-132z" />
    <glyph glyph-name="s.sc" horiz-adv-x="946" 
d="M520 1081q62 0 113.5 -8t98 -25.5t73 -51.5t26.5 -81q0 -68 -57 -135q-117 80 -250 80q-125 0 -125 -86q0 -30 25.5 -54t66 -41t89.5 -35t97.5 -43.5t89 -59t66 -87.5t25.5 -124q0 -174 -115.5 -264.5t-320.5 -90.5q-55 0 -107 7.5t-105.5 25.5t-85.5 55t-32 89
q0 77 58 141q121 -86 272 -86q73 0 109 23.5t36 64.5q0 30 -25.5 53t-65.5 40t-89 34.5t-98 44t-89 61t-65.5 92.5t-25.5 132q0 154 106 241.5t305 87.5z" />
    <glyph glyph-name="t.sc" horiz-adv-x="952" 
d="M608 829v-829h-264v829h-313v232h891v-232h-314z" />
    <glyph glyph-name="u.sc" horiz-adv-x="1269" 
d="M1098 432q0 -236 -119.5 -346.5t-351.5 -110.5q-233 0 -344 104t-111 345v637h264v-639q0 -213 195 -213q98 0 149 51.5t51 151.5v649h267v-629z" />
    <glyph glyph-name="v.sc" horiz-adv-x="1028" 
d="M-8 1061h297l229 -799l232 799h286l-368 -1061h-308z" />
    <glyph glyph-name="w.sc" horiz-adv-x="1665" 
d="M827 760l-198 -760h-338l-258 1061h293l145 -787l195 787h335l205 -787l146 787h276l-256 -1061h-348z" />
    <glyph glyph-name="x.sc" horiz-adv-x="993" 
d="M643 537l340 -537h-321l-170 317l-173 -317h-309l338 526l-340 535h322l170 -318l176 318h307z" />
    <glyph glyph-name="y.sc" horiz-adv-x="978" 
d="M362 367l-389 694h314l205 -428l198 428h316l-381 -682v-379h-263v367z" />
    <glyph glyph-name="z.sc" horiz-adv-x="1019" 
d="M559 836h-450v225h794v-189l-461 -639h476v-233h-818v199z" />
    <glyph glyph-name="braceleft.sc" horiz-adv-x="712" 
d="M276 1065q0 134 72.5 205t204.5 71h160v-198h-101q-43 0 -68.5 -26.5t-25.5 -69.5v-224q0 -103 -60.5 -181.5t-138.5 -100.5q78 -22 138.5 -100.5t60.5 -180.5v-260q0 -43 25.5 -69.5t68.5 -26.5h101v-201h-160q-131 0 -204 72.5t-73 206.5v237q0 109 -51.5 159.5
t-142.5 65.5v187q92 20 143 69.5t51 155.5v209z" />
    <glyph glyph-name="bar.sc" horiz-adv-x="688" 
d="M223 -297v1638h242v-1638h-242z" />
    <glyph glyph-name="braceright.sc" horiz-adv-x="712" 
d="M436 -18q0 -134 -72.5 -206.5t-203.5 -72.5h-160v201h100q43 0 69 26.5t26 69.5v258q0 101 61 180t139 101q-78 22 -139 100.5t-61 181.5v226q0 43 -26 69.5t-69 26.5h-100v198h160q132 0 204 -71t72 -205v-209q0 -108 52 -158t143 -67v-187q-91 -15 -143 -65.5
t-52 -159.5v-237z" />
    <glyph glyph-name="exclamdown.sc" horiz-adv-x="591" 
d="M416 678l35 -682h-304l35 682h234zM299 774q-70 0 -115 42t-45 112t45.5 111.5t114.5 41.5q73 0 117.5 -41t44.5 -112q0 -70 -44.5 -112t-117.5 -42z" />
    <glyph glyph-name="cent.sc" horiz-adv-x="1089" 
d="M719 1079q124 -11 198 -59.5t74 -128.5q0 -76 -76 -143q-106 94 -258 94q-129 0 -199.5 -84t-70.5 -244q0 -137 72 -215t194 -78q90 0 161 31t112 70q36 -30 55.5 -71t19.5 -79q0 -78 -78.5 -128t-203.5 -64v-160h-213v166q-402 59 -402 528q0 228 107 370t295 181v176
h213v-162z" />
    <glyph glyph-name="sterling.sc" horiz-adv-x="1011" 
d="M809 504h-274v-293h342v-211h-789v211h184v293h-145v192h145v33q0 161 99 256.5t301 95.5q258 0 258 -141q0 -59 -43 -115q-90 37 -189 37q-95 0 -129 -38t-34 -113v-15h274v-192z" />
    <glyph glyph-name="yen.sc" horiz-adv-x="1058" 
d="M14 1061h314l202 -445l201 445h313l-272 -483h215v-152h-299l-24 -47v-64h323v-153h-323v-162h-263v162h-325v153h325v52l-32 59h-293v152h207z" />
    <glyph glyph-name="brokenbar.sc" horiz-adv-x="688" 
d="M465 379v-676h-242v676h242zM223 707v634h242v-634h-242z" />
    <glyph glyph-name="section.sc" horiz-adv-x="942" 
d="M227 616q-73 66 -73 181q0 127 96 205.5t274 78.5q119 0 195 -39.5t76 -115.5q0 -55 -47 -115q-97 68 -207 68q-61 0 -87 -18.5t-26 -55.5q0 -30 30 -52.5t75 -37t98 -37t98 -49t75 -76.5t30 -117q0 -142 -121 -217q75 -61 75 -174q0 -142 -104.5 -222.5t-284.5 -80.5
q-74 0 -136 15.5t-106 54t-44 94.5q0 66 45 114q103 -69 225 -69q62 0 95.5 20t33.5 56q0 26 -22.5 45.5t-58 33.5t-79 29t-87 36.5t-79 50t-58 76t-22.5 108.5q0 66 31 120.5t90 89.5zM418 520q-47 -26 -47 -78q0 -43 36 -71.5t113 -57.5q23 15 36 38t13 46q0 18 -9 34
t-20.5 27t-34.5 23.5t-40 19.5t-47 19z" />
    <glyph glyph-name="copyright.sc" horiz-adv-x="1392" 
d="M696 1081q244 0 397.5 -154.5t153.5 -400.5q0 -243 -153.5 -396t-397.5 -153q-243 0 -397 153t-154 396q0 246 154 400.5t397 154.5zM696 946q-177 0 -289 -119t-112 -301q0 -179 112 -296t289 -117q178 0 290 117t112 296q0 182 -112 301t-290 119zM881 649
q-48 41 -133 41q-71 0 -107.5 -41.5t-36.5 -120.5q0 -63 36 -107t108 -44q38 0 80 13.5t61 31.5q35 -35 35 -94q0 -54 -54 -84.5t-153 -30.5q-80 0 -141 23.5t-97 65.5t-53.5 94.5t-17.5 115.5q0 153 82.5 246.5t244.5 93.5q33 0 62 -4.5t58 -15t46 -32t17 -52.5
q0 -53 -37 -99z" />
    <glyph glyph-name="ordfeminine.sc" horiz-adv-x="913" 
d="M573 754h-227l-43 -150h-235l262 737h266l264 -737h-244zM532 901l-71 252l-74 -252h145z" />
    <glyph glyph-name="logicalnot.sc" horiz-adv-x="1177" 
d="M156 688h854v-457h-248v222h-606v235z" />
    <glyph glyph-name="registered.sc" horiz-adv-x="1056" 
d="M541 1366q198 0 326 -128.5t128 -326.5t-128 -326t-326 -128t-326.5 128t-128.5 326t128.5 326.5t326.5 128.5zM541 1255q-146 0 -241 -98t-95 -246t95 -246t241 -98q147 0 242.5 98t95.5 246t-95.5 246t-242.5 98zM639 870l111 -208h-136l-82 174q-4 4 -12 4h-33v-178
h-116v497h202q82 0 122 -40.5t40 -104.5q0 -97 -96 -144zM487 1065v-127h41q41 0 61.5 19.5t20.5 50.5q0 28 -17.5 42.5t-45.5 14.5h-60z" />
    <glyph glyph-name="degree.sc" horiz-adv-x="888" 
d="M86 975q0 168 108 279.5t285 111.5q172 0 274.5 -106t102.5 -271q0 -167 -108.5 -279t-282.5 -112t-276.5 105.5t-102.5 271.5zM311 977q0 -75 41.5 -124.5t114.5 -49.5q76 0 120 54t44 130t-40 126t-112 50q-78 0 -123 -54t-45 -132z" />
    <glyph glyph-name="plusminus.sc" horiz-adv-x="1177" 
d="M459 805v256h262v-260h315v-230h-315v-268h-262v268h-316v234h316zM143 236h893v-236h-893v236z" />
    <glyph glyph-name="paragraph.sc" horiz-adv-x="1509" 
d="M528 299q-209 0 -319.5 99.5t-110.5 283.5q0 189 104 284t292 95h331v-1460h-264v698h-33zM1063 0v1061h264v-1061h-264z" />
    <glyph glyph-name="periodcentered.sc" horiz-adv-x="571" 
d="M287 756q79 0 126.5 -51.5t47.5 -133.5t-46.5 -131t-127.5 -49q-82 0 -129 48.5t-47 131.5t47.5 134t128.5 51z" />
    <glyph glyph-name="ordmasculine.sc" horiz-adv-x="913" 
d="M469 1364q166 0 268.5 -101.5t102.5 -271.5q0 -192 -108 -297.5t-283 -105.5q-179 0 -277 98.5t-98 280.5q0 184 107 290.5t288 106.5zM465 1190q-81 0 -119.5 -59t-38.5 -156q0 -100 38 -155.5t110 -55.5q75 0 113 59t38 164q0 93 -36 148t-105 55z" />
    <glyph glyph-name="questiondown.sc" horiz-adv-x="755" 
d="M23 227q0 52 13 93.5t33.5 68t45.5 49t50.5 42t46 41t33.5 53t13 71.5q0 36 -6 60q66 16 115 16q68 0 103.5 -35.5t35.5 -99.5q0 -50 -21.5 -88t-52 -62t-61.5 -45t-52.5 -49t-21.5 -63q0 -37 27.5 -59.5t76.5 -22.5q97 0 174 47q33 -50 33 -117q0 -63 -61 -107.5
t-191 -44.5q-156 0 -244.5 69t-88.5 183zM356 780q-69 0 -113 40.5t-44 109.5t44 110t113 41q75 0 119.5 -40t44.5 -111t-44.5 -110.5t-119.5 -39.5z" />
    <glyph glyph-name="germandbls.sc" horiz-adv-x="1890" 
d="M1466 1081q61 0 113 -8t98.5 -25.5t73.5 -51.5t27 -81q0 -67 -58 -135q-49 33 -115.5 56.5t-134.5 23.5q-127 0 -127 -86q0 -30 25.5 -54t66 -41t90 -35t98.5 -43.5t89.5 -59t66 -87.5t25.5 -124q0 -174 -115.5 -264.5t-320.5 -90.5q-56 0 -108 7.5t-105 25.5t-85 55
t-32 89q0 76 56 141q121 -86 272 -86q145 0 145 88q0 30 -25 53t-65.5 40t-89 34.5t-97 44t-89 61t-65.5 92.5t-25 132q0 154 105.5 241.5t305.5 87.5zM520 1081q62 0 113.5 -8t98 -25.5t73 -51.5t26.5 -81q0 -68 -57 -135q-117 80 -250 80q-125 0 -125 -86q0 -30 25.5 -54
t66 -41t89.5 -35t97.5 -43.5t89 -59t66 -87.5t25.5 -124q0 -174 -115.5 -264.5t-320.5 -90.5q-55 0 -107 7.5t-105.5 25.5t-85.5 55t-32 89q0 77 58 141q121 -86 272 -86q73 0 109 23.5t36 64.5q0 30 -25.5 53t-65.5 40t-89 34.5t-98 44t-89 61t-65.5 92.5t-25.5 132
q0 154 106 241.5t305 87.5z" />
    <glyph glyph-name="agrave.sc" horiz-adv-x="1028" 
d="M676 219h-334l-63 -219h-287l368 1061h308l368 -1061h-297zM618 424l-108 375l-111 -375h219zM524 1145l-258 207q-50 40 -69 69.5t-19 63.5q0 92 129 151l254 -202q51 -41 70.5 -71.5t19.5 -62.5q0 -95 -127 -155z" />
    <glyph glyph-name="aacute.sc" horiz-adv-x="1028" 
d="M676 219h-334l-63 -219h-287l368 1061h308l368 -1061h-297zM618 424l-108 375l-111 -375h219zM365 1288l237 244q72 72 133 72q94 0 152 -138l-238 -241q-72 -72 -133 -72q-93 0 -151 135z" />
    <glyph glyph-name="acircumflex.sc" horiz-adv-x="1028" 
d="M676 219h-334l-63 -219h-287l368 1061h308l368 -1061h-297zM618 424l-108 375l-111 -375h219zM510 1286l-107 -84q-42 -32 -68 -45.5t-52 -13.5q-55 0 -90.5 40t-57.5 122l363 233q145 -62 247 -125q103 -63 103 -129q0 -84 -90 -156z" />
    <glyph glyph-name="atilde.sc" horiz-adv-x="1028" 
d="M676 219h-334l-63 -219h-287l368 1061h308l368 -1061h-297zM618 424l-108 375l-111 -375h219zM137 1309q0 75 53 118t132 43q75 0 175.5 -30.5t157.5 -30.5q100 0 172 57q19 -24 31 -59t12 -61q0 -76 -51.5 -119t-124.5 -43q-79 0 -182 29.5t-160 29.5q-98 0 -172 -55
q-19 24 -31 58.5t-12 62.5z" />
    <glyph glyph-name="adieresis.sc" horiz-adv-x="1028" 
d="M676 219h-334l-63 -219h-287l368 1061h308l368 -1061h-297zM618 424l-108 375l-111 -375h219zM281 1470q70 0 112.5 -40.5t42.5 -108.5q0 -70 -42.5 -111t-112.5 -41t-114 41t-44 111q0 68 44 108.5t114 40.5zM739 1470q70 0 113 -40.5t43 -108.5q0 -70 -43 -111
t-113 -41t-113.5 41t-43.5 111q0 68 43.5 108.5t113.5 40.5z" />
    <glyph glyph-name="aring.sc" horiz-adv-x="1028" 
d="M676 219h-334l-63 -219h-287l368 1061h308l368 -1061h-297zM618 424l-108 375l-111 -375h219zM745 1313q0 -89 -63 -151t-166 -62q-105 0 -168 60t-63 153q0 90 65.5 151.5t165.5 61.5q105 0 167 -60.5t62 -152.5zM604 1313q0 40 -25 66t-63 26q-39 0 -63.5 -26
t-24.5 -66q0 -39 24.5 -65.5t63.5 -26.5q38 0 63 26.5t25 65.5z" />
    <glyph glyph-name="ae.sc" horiz-adv-x="1517" 
d="M567 1061h826v-232h-414v-182h383v-221h-383v-193h414v-233h-678v219h-322l-114 -219h-320zM715 805h-13l-200 -381h213v381z" />
    <glyph glyph-name="ccedilla.sc" horiz-adv-x="1089" 
d="M926 322q36 -30 55.5 -71t19.5 -79q0 -62 -51.5 -107.5t-132.5 -67.5t-180 -22q-533 0 -533 539q0 273 149 420t404 147q149 0 241.5 -50t92.5 -140q0 -76 -76 -143q-106 94 -258 94q-129 0 -199.5 -84t-70.5 -244q0 -137 72 -215t194 -78q90 0 161 31t112 70zM371 -258
q16 -6 41 -6q43 0 67.5 26t24.5 64q0 36 -21 63q25 25 111 25q47 0 102 -10q11 -14 20 -46.5t9 -64.5q0 -81 -57 -147t-144 -66q-83 0 -120 38.5t-37 90.5q0 13 4 33z" />
    <glyph glyph-name="egrave.sc" horiz-adv-x="1017" 
d="M174 0v1061h717v-232h-453v-182h422v-221h-422v-193h453v-233h-717zM565 1145l-258 207q-50 40 -69 69.5t-19 63.5q0 92 129 151l254 -202q51 -41 70.5 -71.5t19.5 -62.5q0 -95 -127 -155z" />
    <glyph glyph-name="eacute.sc" horiz-adv-x="1017" 
d="M174 0v1061h717v-232h-453v-182h422v-221h-422v-193h453v-233h-717zM406 1288l237 244q72 72 133 72q94 0 152 -138l-238 -241q-72 -72 -133 -72q-93 0 -151 135z" />
    <glyph glyph-name="ecircumflex.sc" horiz-adv-x="1017" 
d="M174 0v1061h717v-232h-453v-182h422v-221h-422v-193h453v-233h-717zM553 1286l-107 -84q-42 -32 -68 -45.5t-52 -13.5q-55 0 -90.5 40t-57.5 122l363 233q145 -62 247 -125q103 -63 103 -129q0 -84 -90 -156z" />
    <glyph glyph-name="edieresis.sc" horiz-adv-x="1017" 
d="M174 0v1061h717v-232h-453v-182h422v-221h-422v-193h453v-233h-717zM313 1470q70 0 113 -40.5t43 -108.5q0 -70 -43 -111t-113 -41t-113.5 41t-43.5 111q0 68 43.5 108.5t113.5 40.5zM772 1470q70 0 113 -40.5t43 -108.5q0 -70 -43 -111t-113 -41t-114 41t-44 111
q0 68 44 108.5t114 40.5z" />
    <glyph glyph-name="igrave.sc" horiz-adv-x="630" 
d="M182 0v1061h264v-1061h-264zM340 1145l-258 207q-50 40 -69 69.5t-19 63.5q0 92 129 151l254 -202q51 -41 70.5 -71.5t19.5 -62.5q0 -95 -127 -155z" />
    <glyph glyph-name="iacute.sc" horiz-adv-x="630" 
d="M182 0v1061h264v-1061h-264zM172 1288l238 244q72 72 133 72q93 0 151 -138l-237 -241q-72 -72 -133 -72q-94 0 -152 135z" />
    <glyph glyph-name="icircumflex.sc" horiz-adv-x="630" 
d="M182 0v1061h264v-1061h-264zM322 1286l-107 -84q-77 -59 -121 -59q-55 0 -89.5 40t-57.5 122l362 233q149 -64 248 -125q102 -63 102 -129q0 -84 -90 -156z" />
    <glyph glyph-name="idieresis.sc" horiz-adv-x="630" 
d="M182 0v1061h264v-1061h-264zM84 1470q70 0 113 -40.5t43 -108.5q0 -70 -43 -111t-113 -41t-114 41t-44 111q0 68 44 108.5t114 40.5zM543 1470q70 0 112.5 -40.5t42.5 -108.5q0 -70 -42.5 -111t-112.5 -41t-114 41t-44 111q0 68 44 108.5t114 40.5z" />
    <glyph glyph-name="eth.sc" horiz-adv-x="1220" 
d="M195 434h-158v211h158v416h432q252 0 370.5 -128.5t118.5 -383.5q0 -263 -142.5 -406t-379.5 -143h-399v434zM459 434v-196h102q147 0 213 80t66 233q0 55 -12.5 103t-37.5 88.5t-69.5 64.5t-102.5 24h-159v-186h192v-211h-192z" />
    <glyph glyph-name="ntilde.sc" horiz-adv-x="1320" 
d="M182 1061h299l412 -682v682h246v-1061h-308l-405 678v-678h-244v1061zM293 1309q0 75 53 118t131 43q75 0 176 -30.5t158 -30.5q100 0 172 57q19 -24 31 -59t12 -61q0 -76 -51.5 -119t-124.5 -43q-79 0 -182 29.5t-160 29.5q-98 0 -172 -55q-19 24 -31 58.5t-12 62.5z
" />
    <glyph glyph-name="ograve.sc" horiz-adv-x="1261" 
d="M639 1081q245 0 381.5 -146t136.5 -388q0 -270 -146 -421t-395 -151q-241 0 -376.5 142.5t-135.5 390.5q0 169 60 297t182 202t293 74zM635 850q-67 0 -117 -28.5t-77.5 -76.5t-40.5 -103t-13 -116q0 -88 26 -158t83 -114.5t137 -44.5q82 0 137.5 45.5t79.5 115.5t24 160
q0 63 -13.5 118t-40.5 101.5t-74.5 73.5t-110.5 27zM647 1145l-258 207q-50 40 -69 69.5t-19 63.5q0 92 129 151l254 -202q51 -41 70.5 -71.5t19.5 -62.5q0 -95 -127 -155z" />
    <glyph glyph-name="oacute.sc" horiz-adv-x="1261" 
d="M639 1081q245 0 381.5 -146t136.5 -388q0 -270 -146 -421t-395 -151q-241 0 -376.5 142.5t-135.5 390.5q0 169 60 297t182 202t293 74zM635 850q-67 0 -117 -28.5t-77.5 -76.5t-40.5 -103t-13 -116q0 -88 26 -158t83 -114.5t137 -44.5q82 0 137.5 45.5t79.5 115.5t24 160
q0 63 -13.5 118t-40.5 101.5t-74.5 73.5t-110.5 27zM487 1288l238 244q72 72 133 72q94 0 152 -138l-238 -241q-72 -72 -133 -72q-94 0 -152 135z" />
    <glyph glyph-name="ocircumflex.sc" horiz-adv-x="1261" 
d="M639 1081q245 0 381.5 -146t136.5 -388q0 -270 -146 -421t-395 -151q-241 0 -376.5 142.5t-135.5 390.5q0 169 60 297t182 202t293 74zM635 850q-67 0 -117 -28.5t-77.5 -76.5t-40.5 -103t-13 -116q0 -88 26 -158t83 -114.5t137 -44.5q82 0 137.5 45.5t79.5 115.5t24 160
q0 63 -13.5 118t-40.5 101.5t-74.5 73.5t-110.5 27zM629 1286l-107 -84q-77 -59 -121 -59q-55 0 -89.5 40t-57.5 122l362 233q149 -64 248 -125q103 -63 103 -129q0 -84 -90 -156z" />
    <glyph glyph-name="otilde.sc" horiz-adv-x="1261" 
d="M639 1081q245 0 381.5 -146t136.5 -388q0 -270 -146 -421t-395 -151q-241 0 -376.5 142.5t-135.5 390.5q0 169 60 297t182 202t293 74zM635 850q-67 0 -117 -28.5t-77.5 -76.5t-40.5 -103t-13 -116q0 -88 26 -158t83 -114.5t137 -44.5q82 0 137.5 45.5t79.5 115.5t24 160
q0 63 -13.5 118t-40.5 101.5t-74.5 73.5t-110.5 27zM262 1309q0 75 53 118t131 43q76 0 176 -30.5t158 -30.5q100 0 172 57q19 -24 31 -59t12 -61q0 -76 -51.5 -119t-124.5 -43q-79 0 -182 29.5t-160 29.5q-98 0 -172 -55q-19 24 -31 58.5t-12 62.5z" />
    <glyph glyph-name="odieresis.sc" horiz-adv-x="1261" 
d="M639 1081q245 0 381.5 -146t136.5 -388q0 -270 -146 -421t-395 -151q-241 0 -376.5 142.5t-135.5 390.5q0 169 60 297t182 202t293 74zM635 850q-67 0 -117 -28.5t-77.5 -76.5t-40.5 -103t-13 -116q0 -88 26 -158t83 -114.5t137 -44.5q82 0 137.5 45.5t79.5 115.5t24 160
q0 63 -13.5 118t-40.5 101.5t-74.5 73.5t-110.5 27zM406 1470q70 0 112.5 -40.5t42.5 -108.5q0 -70 -42.5 -111t-112.5 -41t-114 41t-44 111q0 68 44 108.5t114 40.5zM864 1470q70 0 113 -40.5t43 -108.5q0 -70 -43 -111t-113 -41t-113.5 41t-43.5 111q0 68 43.5 108.5
t113.5 40.5z" />
    <glyph glyph-name="oslash.sc" horiz-adv-x="1261" 
d="M872 995l158 183l144 -123l-166 -191q84 -131 84 -329q0 -268 -138.5 -414t-369.5 -146q-161 0 -273 62l-157 -180l-142 123l164 192q-80 127 -80 332q0 256 137 404.5t379 148.5q151 0 260 -62zM805 645l-340 -414q47 -38 125 -38q119 0 175 89t56 250q0 63 -16 113z
M723 807q-50 35 -117 35q-85 0 -140.5 -45.5t-78 -116.5t-22.5 -168q0 -58 18 -121z" />
    <glyph glyph-name="ugrave.sc" horiz-adv-x="1269" 
d="M1098 432q0 -236 -119.5 -346.5t-351.5 -110.5q-233 0 -344 104t-111 345v637h264v-639q0 -213 195 -213q98 0 149 51.5t51 151.5v649h267v-629zM678 1145l-258 207q-50 40 -69 69.5t-19 63.5q0 92 129 151l254 -202q51 -41 70.5 -71.5t19.5 -62.5q0 -95 -127 -155z" />
    <glyph glyph-name="uacute.sc" horiz-adv-x="1269" 
d="M1098 432q0 -236 -119.5 -346.5t-351.5 -110.5q-233 0 -344 104t-111 345v637h264v-639q0 -213 195 -213q98 0 149 51.5t51 151.5v649h267v-629zM518 1270l238 243q72 72 133 72q93 0 151 -137l-237 -242q-71 -71 -133 -71q-94 0 -152 135z" />
    <glyph glyph-name="ucircumflex.sc" horiz-adv-x="1269" 
d="M1098 432q0 -236 -119.5 -346.5t-351.5 -110.5q-233 0 -344 104t-111 345v637h264v-639q0 -213 195 -213q98 0 149 51.5t51 151.5v649h267v-629zM643 1286l-106 -84q-77 -59 -121 -59q-55 0 -90.5 40t-57.5 122l363 233q149 -64 248 -125q102 -63 102 -129
q0 -84 -90 -156z" />
    <glyph glyph-name="udieresis.sc" horiz-adv-x="1269" 
d="M1098 432q0 -236 -119.5 -346.5t-351.5 -110.5q-233 0 -344 104t-111 345v637h264v-639q0 -213 195 -213q98 0 149 51.5t51 151.5v649h267v-629zM406 1470q70 0 112.5 -40.5t42.5 -108.5q0 -70 -42.5 -111t-112.5 -41t-114 41t-44 111q0 68 44 108.5t114 40.5zM864 1470
q70 0 113 -40.5t43 -108.5q0 -70 -43 -111t-113 -41t-113.5 41t-43.5 111q0 68 43.5 108.5t113.5 40.5z" />
    <glyph glyph-name="yacute.sc" horiz-adv-x="978" 
d="M362 367l-389 694h314l205 -428l198 428h316l-381 -682v-379h-263v367zM344 1268l238 243q72 72 133 72q93 0 151 -137l-237 -242q-71 -71 -133 -71q-94 0 -152 135z" />
    <glyph glyph-name="thorn.sc" horiz-adv-x="1058" 
d="M563 184h-114v-184h-267v1061h267v-158h182q97 0 168 -28t110 -77.5t57.5 -107.5t18.5 -127q0 -172 -106.5 -275.5t-315.5 -103.5zM449 680v-272h100q75 0 115.5 40t40.5 103q0 58 -36.5 93.5t-101.5 35.5h-118z" />
    <glyph glyph-name="ydieresis.sc" horiz-adv-x="978" 
d="M362 367l-389 694h314l205 -428l198 428h316l-381 -682v-379h-263v367zM266 1470q70 0 113 -40.5t43 -108.5q0 -70 -43 -111t-113 -41t-113.5 41t-43.5 111q0 68 43.5 108.5t113.5 40.5zM725 1470q70 0 113 -40.5t43 -108.5q0 -70 -43 -111t-113 -41t-114 41t-44 111
q0 68 44 108.5t114 40.5z" />
    <glyph glyph-name="dotlessi.sc" horiz-adv-x="630" 
d="M182 0v1061h264v-1061h-264z" />
    <glyph glyph-name="lslash.sc" horiz-adv-x="946" 
d="M227 362l-135 -94l-125 178l260 183v432h265v-246l157 111l125 -178l-282 -199v-316h436v-233h-701v362z" />
    <glyph glyph-name="oe.sc" horiz-adv-x="1556" 
d="M924 1061h506v-232h-414v-182h383v-221h-383v-193h414v-233h-531q-44 0 -133.5 -12.5t-149.5 -12.5q-241 0 -376.5 142.5t-135.5 390.5q0 169 60 297t182 202t293 74q48 0 145 -10t140 -10zM752 823q-60 27 -117 27q-67 0 -117 -28.5t-77.5 -76.5t-40.5 -103t-13 -116
q0 -135 64 -226t182 -91q70 0 119 22v592z" />
    <glyph glyph-name="scaron.sc" horiz-adv-x="946" 
d="M520 1081q62 0 113.5 -8t98 -25.5t73 -51.5t26.5 -81q0 -68 -57 -135q-117 80 -250 80q-125 0 -125 -86q0 -30 25.5 -54t66 -41t89.5 -35t97.5 -43.5t89 -59t66 -87.5t25.5 -124q0 -174 -115.5 -264.5t-320.5 -90.5q-55 0 -107 7.5t-105.5 25.5t-85.5 55t-32 89
q0 77 58 141q121 -86 272 -86q73 0 109 23.5t36 64.5q0 30 -25.5 53t-65.5 40t-89 34.5t-98 44t-89 61t-65.5 92.5t-25.5 132q0 154 106 241.5t305 87.5zM438 1372l107 84q75 60 121 60q54 0 89.5 -40t57.5 -122l-362 -232q-125 51 -248 123q-105 65 -105 129q0 84 92 156z
" />
    <glyph glyph-name="zcaron.sc" horiz-adv-x="1019" 
d="M559 836h-450v225h794v-189l-461 -639h476v-233h-818v199zM485 1372l107 84q75 60 121 60q54 0 89.5 -40t57.5 -122l-362 -232q-125 51 -248 123q-105 65 -105 129q0 84 93 156z" />
    <glyph glyph-name="florin.sc" horiz-adv-x="948" 
d="M565 735v-22h264q5 -31 5 -62q0 -72 -26 -104.5t-83 -32.5q-2 0 -10 1t-49.5 4t-108.5 7q-33 -257 -76 -487q-25 -134 -109.5 -215.5t-230.5 -81.5q-59 0 -101.5 10.5t-65.5 25t-36 37.5t-16.5 41t-3.5 42q0 38 25 79q48 -22 106 -22q36 0 62 5.5t52.5 20.5t44.5 47
t28 81q40 210 61 413h-152l15 191h172q-8 44 -8 88q0 129 90 204.5t252 75.5q262 0 262 -151q0 -61 -45 -103q-31 20 -73.5 33.5t-76.5 13.5q-80 0 -120.5 -33.5t-47.5 -105.5z" />
    <glyph glyph-name="mu.sc" horiz-adv-x="1280" 
d="M446 12v-411h-264v1460h264v-639q0 -213 195 -213q98 0 149.5 51.5t51.5 151.5v649h266v-629q0 -236 -119.5 -346.5t-351.5 -110.5q-116 0 -191 37z" />
    <glyph glyph-name="pi.sc" horiz-adv-x="1425" 
d="M797 858h-338v-858h-264v858h-160v203h1325v-203h-299v-498q0 -74 27.5 -105.5t85.5 -31.5q96 0 163 53q60 -60 60 -129q0 -74 -72.5 -123t-208.5 -49q-160 0 -239.5 80.5t-79.5 233.5v569z" />
    <glyph glyph-name="quoteleft.sc" horiz-adv-x="456" 
d="M250 1108q61 -14 106 -60t45 -120q0 -75 -46.5 -121.5t-121.5 -46.5q-92 0 -146 67.5t-54 184.5q0 108 39.5 204t104.5 152.5t136 56.5q81 0 115 -69q-64 -52 -112.5 -119.5t-65.5 -128.5z" />
    <glyph glyph-name="quoteright.sc" horiz-adv-x="456" 
d="M223 1038q-61 14 -105 59.5t-44 121.5q0 75 46 121t122 46q91 0 144.5 -68t53.5 -183q0 -164 -85 -289t-193 -125q-80 0 -117 67q66 55 114.5 122.5t63.5 127.5z" />
    <glyph glyph-name="quotedblleft.sc" horiz-adv-x="964" 
d="M250 1108q61 -14 106 -60t45 -120q0 -75 -46.5 -121.5t-121.5 -46.5q-92 0 -146 67.5t-54 184.5q0 108 39.5 204t104.5 152.5t136 56.5q81 0 115 -69q-64 -52 -112.5 -119.5t-65.5 -128.5zM760 1108q61 -14 105 -60t44 -120q0 -75 -45.5 -121.5t-120.5 -46.5
q-92 0 -146 67.5t-54 184.5q0 164 85 288.5t193 124.5q80 0 117 -69q-64 -52 -112.5 -119.5t-65.5 -128.5z" />
    <glyph glyph-name="quotedblright.sc" horiz-adv-x="970" 
d="M223 1038q-61 14 -105 59.5t-44 121.5q0 75 46 121t122 46q91 0 144.5 -68t53.5 -183q0 -164 -85 -289t-193 -125q-80 0 -117 67q66 55 114.5 122.5t63.5 127.5zM737 1038q-61 14 -105 60t-44 121t46.5 121t121.5 46q92 0 145 -67.5t53 -183.5q0 -164 -85 -289t-193 -125
q-81 0 -115 67q66 55 113.5 122t62.5 128z" />
    <glyph glyph-name="dagger.sc" horiz-adv-x="991" 
d="M627 526v-925h-262v925h-312v191h312v344h262v-344h311v-191h-311z" />
    <glyph glyph-name="daggerdbl.sc" horiz-adv-x="1038" 
d="M649 23v-422h-260v422h-313v190h313v313h-313v191h313v344h260v-344h312v-191h-312v-313h312v-190h-312z" />
    <glyph glyph-name="perthousand.sc" horiz-adv-x="2347" 
d="M96 770q0 138 91 224.5t225 86.5q132 0 222.5 -86.5t90.5 -224.5t-90.5 -224.5t-222.5 -86.5q-134 0 -225 86.5t-91 224.5zM1700 287q0 138 90.5 224.5t222.5 86.5q133 0 223.5 -86.5t90.5 -224.5t-90.5 -225t-223.5 -87q-132 0 -222.5 87t-90.5 225zM1006 287
q0 138 91 224.5t224 86.5q132 0 221.5 -86.5t89.5 -224.5t-89.5 -225t-221.5 -87q-133 0 -224 87t-91 225zM356 31l848 1118l166 -131l-848 -1118zM289 770q0 -63 32.5 -105t90.5 -42q57 0 90 42.5t33 104.5q0 63 -33 105.5t-90 42.5q-58 0 -90.5 -42.5t-32.5 -105.5z
M1890 287q0 -63 33 -105.5t90 -42.5q58 0 90.5 42.5t32.5 105.5t-32.5 105t-90.5 42q-57 0 -90 -42.5t-33 -104.5zM1198 287q0 -63 32.5 -105.5t90.5 -42.5q56 0 88.5 42.5t32.5 105.5t-32.5 105t-88.5 42q-58 0 -90.5 -42t-32.5 -105z" />
    <glyph glyph-name="Euro.sc" horiz-adv-x="1083" 
d="M549 731h346v-153h-395q-2 -20 -2 -64v-20h397v-154h-352q54 -117 211 -117q141 0 217 47q47 -53 47 -116q0 -84 -65.5 -131.5t-198.5 -47.5q-218 0 -344 90t-164 275h-176v154h161q-2 6 -2 20q0 24 4 64h-163v153h190q49 171 180 260.5t326 89.5q244 0 244 -163
q0 -34 -14.5 -67.5t-37.5 -53.5q-75 43 -200 43q-147 0 -209 -109z" />
    <glyph glyph-name="uni2117.sc" horiz-adv-x="1392" 
d="M696 1081q244 0 397.5 -154.5t153.5 -400.5q0 -243 -153.5 -396t-397.5 -153q-243 0 -397 153t-154 396q0 246 154 400.5t397 154.5zM696 946q-177 0 -289 -119t-112 -301q0 -179 112 -296t289 -117q178 0 290 117t112 296q0 182 -112 301t-290 119zM735 416h-63v-189
h-168v590h270q105 0 151 -53t46 -135q0 -97 -59.5 -155t-176.5 -58zM672 690v-145h43q39 0 60.5 22t21.5 54q0 31 -18.5 50t-53.5 19h-53z" />
    <glyph glyph-name="trademark.sc" horiz-adv-x="1976" 
d="M1083 604h-186l61 737h277l154 -557l153 557h277l61 -737h-197l-28 545l-152 -545h-239l-152 545zM526 1171v-567h-190v567h-236v170h664v-170h-238z" />
    <glyph glyph-name="minus.sc" horiz-adv-x="1177" 
d="M150 688h880v-235h-880v235z" />
    <glyph glyph-name="radical.sc" horiz-adv-x="1251" 
d="M1327 1518l-491 -1518h-314l-289 821h-192v203h416l225 -758l348 1252h297z" />
    <glyph glyph-name="integral.sc" horiz-adv-x="722" 
d="M430 725q0 -136 42 -405t42 -406q0 -159 -81.5 -248.5t-248.5 -89.5q-47 0 -83 5t-70.5 18.5t-53 41.5t-18.5 68q0 55 41 119q60 -31 143 -31q109 0 109 135q0 137 -41 406t-41 405q0 158 84.5 248t245.5 90q47 0 83 -5t70 -18.5t52 -41t18 -68.5q0 -60 -41 -119
q-53 33 -143 33q-109 0 -109 -137z" />
    <glyph glyph-name="approxequal.sc" horiz-adv-x="1177" 
d="M129 735q0 79 60 129.5t157 50.5q89 0 165.5 -19.5t148.5 -39.5t151 -20q112 0 197 69q43 -57 43 -121q0 -79 -61 -131.5t-152 -52.5q-93 0 -172 20t-151.5 40t-149.5 20q-115 0 -201 -70q-35 50 -35 125zM129 319q0 79 60 131t157 52q89 0 165.5 -20t148.5 -40t151 -20
q111 0 197 70q43 -57 43 -121q0 -79 -61 -132t-152 -53q-93 0 -172 20t-151.5 40t-149.5 20q-116 0 -201 -69q-35 50 -35 122z" />
    <glyph glyph-name="notequal.sc" horiz-adv-x="1177" 
d="M885 862h127v-221h-256l-115 -184h371v-219h-502l-156 -258l-157 94l100 164h-129v219h258l117 184h-375v221h504l153 252l158 -94z" />
    <glyph glyph-name="lessequal.sc" horiz-adv-x="868" 
d="M545 270l-422 422l422 424l176 -176l-268 -242l272 -247zM123 231h622v-231h-622v231z" />
    <glyph glyph-name="greaterequal.sc" horiz-adv-x="868" 
d="M324 1116l421 -422l-421 -424l-174 176l266 242l-273 246zM745 231v-231h-622v231h622z" />
    <glyph glyph-name="fi.sc" horiz-adv-x="1613" 
d="M182 0v1061h703v-232h-439v-196h410v-223h-410v-410h-264zM1167 0v1061h265v-1061h-265z" />
    <glyph glyph-name="fl.sc" horiz-adv-x="1886" 
d="M182 0v1061h703v-232h-439v-196h410v-223h-410v-410h-264zM1167 0v1061h265v-828h438v-233h-703z" />
    <glyph glyph-name="registered.sc_ss01" horiz-adv-x="1392" 
d="M696 1081q244 0 397.5 -154.5t153.5 -400.5q0 -243 -153.5 -396t-397.5 -153q-243 0 -397 153t-154 396q0 246 154 400.5t397 154.5zM696 946q-177 0 -289 -119t-112 -301q0 -179 112 -296t289 -117q178 0 290 117t112 296q0 182 -112 301t-290 119zM846 481l112 -243
h-186l-76 206h-51v-206h-168v587h273q54 0 94 -15t62 -41t32 -55.5t10 -62.5q0 -111 -102 -170zM645 698v-129h49q35 0 58.5 19.5t23.5 50.5q0 27 -19 43t-52 16h-60z" />
    <glyph glyph-name="zero.sclf" horiz-adv-x="942" 
d="M483 1081q200 0 308 -133t108 -397q0 -276 -111 -426t-313 -150q-221 0 -326.5 133.5t-105.5 409.5q0 272 116.5 417.5t323.5 145.5zM477 860q-164 0 -164 -334q0 -329 162 -329q73 0 115.5 87.5t42.5 254.5q0 163 -41.5 242t-114.5 79z" />
    <glyph glyph-name="one.sclf" horiz-adv-x="874" 
d="M362 827l-258 -82q-34 74 -34 129q0 88 99.5 139.5t281.5 51.5q133 0 176 -2v-850h233v-213h-764v213h266v614z" />
    <glyph glyph-name="two.sclf" horiz-adv-x="942" 
d="M467 1081q182 0 274.5 -87t92.5 -240q0 -162 -125 -303.5t-322 -227.5h465v-223h-748v211q96 68 154 111.5t124.5 100t101.5 99.5t59 93t24 98q0 61 -35 94t-104 33q-76 0 -151 -29t-132 -76q-53 59 -53 129q0 102 102 159.5t273 57.5z" />
    <glyph glyph-name="three.sclf" horiz-adv-x="942" 
d="M631 567v-8q104 -15 162.5 -86.5t58.5 -173.5q0 -144 -118 -234t-302 -90q-162 0 -244 43t-82 142q0 60 44 110q116 -65 233 -65q97 0 149 33.5t52 87.5q0 106 -199 106h-160v191q342 3 342 129q0 94 -137 94q-72 0 -132 -20t-132 -60q-49 55 -49 119q0 94 92.5 145
t271.5 51q165 0 253.5 -72t88.5 -192q0 -187 -192 -250z" />
    <glyph glyph-name="four.sclf" horiz-adv-x="942" 
d="M752 240v-240h-256v240h-467v202l434 619h289v-612h153v-209h-153zM496 449v342l-232 -342h232z" />
    <glyph glyph-name="five.sclf" horiz-adv-x="942" 
d="M807 1061v-225h-404v-156h17q434 0 434 -328q0 -171 -120 -274t-339 -103q-293 0 -293 183q0 59 41 112q46 -27 111 -46t123 -19q98 0 152.5 37t54.5 98q0 137 -238 137h-201v584h662z" />
    <glyph glyph-name="six.sclf" horiz-adv-x="942" 
d="M322 492q73 208 268 208q149 0 227 -92.5t78 -240.5q0 -79 -26.5 -149t-77 -124.5t-132.5 -86.5t-186 -32q-89 0 -160 26t-118 71.5t-78 110t-44.5 138t-13.5 158.5q0 142 41 257.5t113 190t168 114.5t207 40q61 0 106.5 -5t90 -18.5t68.5 -43t24 -72.5q0 -68 -39 -125
q-36 19 -94.5 33t-118.5 14q-148 0 -222.5 -97t-80.5 -275zM322 424q6 -111 50 -171t117 -60q64 0 106 39t42 110q0 69 -41.5 105t-112.5 36q-75 0 -161 -59z" />
    <glyph glyph-name="seven.sclf" horiz-adv-x="917" 
d="M92 1061h805v-195l-367 -676q-67 -120 -109 -171.5t-93 -51.5q-100 0 -174 117q13 20 63.5 97t73.5 118l307 532h-506v230z" />
    <glyph glyph-name="eight.sclf" horiz-adv-x="942" 
d="M272 526q-85 50 -134.5 115.5t-49.5 159.5q0 133 104 206.5t281 73.5q101 0 177.5 -23t119.5 -62t63.5 -84.5t20.5 -96.5q0 -81 -49 -139t-135 -107q209 -109 209 -297q0 -138 -111.5 -217.5t-302.5 -79.5q-192 0 -297 73t-105 206q0 90 55.5 153.5t153.5 118.5zM432 446
q-106 -70 -106 -149q0 -52 43 -81.5t100 -29.5q66 0 105.5 27.5t39.5 79.5q0 24 -13 45t-42 40.5t-55 33t-72 34.5zM502 645q98 69 98 141q0 44 -32 70.5t-91 26.5q-63 0 -98 -26t-35 -73q0 -41 39 -71.5t119 -67.5z" />
    <glyph glyph-name="nine.sclf" horiz-adv-x="942" 
d="M625 565q-74 -209 -269 -209q-149 0 -227 93t-78 241q0 79 26.5 148.5t77 124.5t132.5 86.5t186 31.5q89 0 160 -26t118 -71.5t78 -109.5t44.5 -137.5t13.5 -158.5q0 -142 -41.5 -257.5t-113.5 -190.5t-167.5 -115t-206.5 -40q-61 0 -106.5 5t-90 19t-68 43.5t-23.5 72.5
q0 68 39 125q36 -19 94.5 -33t118.5 -14q148 0 222.5 97t80.5 275zM625 633q-6 111 -50.5 171t-117.5 60q-64 0 -106 -39t-42 -110q0 -69 41.5 -105.5t112.5 -36.5q75 0 162 60z" />
    <glyph glyph-name="zero.sctf" horiz-adv-x="942" 
d="M483 1081q200 0 308 -133t108 -397q0 -276 -111 -426t-313 -150q-221 0 -326.5 133.5t-105.5 409.5q0 272 116.5 417.5t323.5 145.5zM477 860q-164 0 -164 -334q0 -329 162 -329q73 0 115.5 87.5t42.5 254.5q0 163 -41.5 242t-114.5 79z" />
    <glyph glyph-name="one.sctf" horiz-adv-x="942" 
d="M406 827l-259 -82q-34 74 -34 129q0 88 99.5 139.5t281.5 51.5q133 0 176 -2v-850h233v-213h-764v213h267v614z" />
    <glyph glyph-name="two.sctf" horiz-adv-x="942" 
d="M467 1081q182 0 274.5 -87t92.5 -240q0 -162 -125 -303.5t-322 -227.5h465v-223h-748v211q96 68 154 111.5t124.5 100t101.5 99.5t59 93t24 98q0 61 -35 94t-104 33q-76 0 -151 -29t-132 -76q-53 59 -53 129q0 102 102 159.5t273 57.5z" />
    <glyph glyph-name="three.sctf" horiz-adv-x="942" 
d="M631 567v-8q104 -15 162.5 -86.5t58.5 -173.5q0 -144 -118 -234t-302 -90q-162 0 -244 43t-82 142q0 60 44 110q116 -65 233 -65q97 0 149 33.5t52 87.5q0 106 -199 106h-160v191q342 3 342 129q0 94 -137 94q-72 0 -132 -20t-132 -60q-49 55 -49 119q0 94 92.5 145
t271.5 51q165 0 253.5 -72t88.5 -192q0 -187 -192 -250z" />
    <glyph glyph-name="four.sctf" horiz-adv-x="942" 
d="M752 240v-240h-256v240h-467v202l434 619h289v-612h153v-209h-153zM496 449v342l-232 -342h232z" />
    <glyph glyph-name="five.sctf" horiz-adv-x="942" 
d="M807 1061v-225h-404v-156h17q434 0 434 -328q0 -171 -120 -274t-339 -103q-293 0 -293 183q0 59 41 112q46 -27 111 -46t123 -19q98 0 152.5 37t54.5 98q0 137 -238 137h-201v584h662z" />
    <glyph glyph-name="six.sctf" horiz-adv-x="942" 
d="M322 492q73 208 268 208q149 0 227 -92.5t78 -240.5q0 -79 -26.5 -149t-77 -124.5t-132.5 -86.5t-186 -32q-89 0 -160 26t-118 71.5t-78 110t-44.5 138t-13.5 158.5q0 142 41 257.5t113 190t168 114.5t207 40q61 0 106.5 -5t90 -18.5t68.5 -43t24 -72.5q0 -68 -39 -125
q-36 19 -94.5 33t-118.5 14q-148 0 -222.5 -97t-80.5 -275zM322 424q6 -111 50 -171t117 -60q64 0 106 39t42 110q0 69 -41.5 105t-112.5 36q-75 0 -161 -59z" />
    <glyph glyph-name="seven.sctf" horiz-adv-x="942" 
d="M92 1061h805v-195l-367 -676q-67 -120 -109 -171.5t-93 -51.5q-100 0 -174 117q13 20 63.5 97t73.5 118l307 532h-506v230z" />
    <glyph glyph-name="eight.sctf" horiz-adv-x="942" 
d="M272 526q-85 50 -134.5 115.5t-49.5 159.5q0 133 104 206.5t281 73.5q101 0 177.5 -23t119.5 -62t63.5 -84.5t20.5 -96.5q0 -81 -49 -139t-135 -107q209 -109 209 -297q0 -138 -111.5 -217.5t-302.5 -79.5q-192 0 -297 73t-105 206q0 90 55.5 153.5t153.5 118.5zM432 446
q-106 -70 -106 -149q0 -52 43 -81.5t100 -29.5q66 0 105.5 27.5t39.5 79.5q0 24 -13 45t-42 40.5t-55 33t-72 34.5zM502 645q98 69 98 141q0 44 -32 70.5t-91 26.5q-63 0 -98 -26t-35 -73q0 -41 39 -71.5t119 -67.5z" />
    <glyph glyph-name="nine.sctf" horiz-adv-x="942" 
d="M625 565q-74 -209 -269 -209q-149 0 -227 93t-78 241q0 79 26.5 148.5t77 124.5t132.5 86.5t186 31.5q89 0 160 -26t118 -71.5t78 -109.5t44.5 -137.5t13.5 -158.5q0 -142 -41.5 -257.5t-113.5 -190.5t-167.5 -115t-206.5 -40q-61 0 -106.5 5t-90 19t-68 43.5t-23.5 72.5
q0 68 39 125q36 -19 94.5 -33t118.5 -14q148 0 222.5 97t80.5 275zM625 633q-6 111 -50.5 171t-117.5 60q-64 0 -106 -39t-42 -110q0 -69 41.5 -105.5t112.5 -36.5q75 0 162 60z" />
    <glyph glyph-name="registered.ss01" horiz-adv-x="1683" 
d="M825 1368q201 0 360 -89t248 -248t89 -359t-89 -359.5t-248.5 -248.5t-359.5 -89t-359 89t-248 248t-89 360q0 200 89 359t248 248t359 89zM825 1212q-112 0 -209 -41.5t-164.5 -113.5t-106 -172t-38.5 -213q0 -231 146 -386t372 -155t371 155t145 386t-145 385.5
t-371 154.5zM995 616l162 -317h-213l-127 268h-78v-268h-186v752h330q122 0 182.5 -62.5t60.5 -157.5q0 -67 -33.5 -124t-97.5 -91zM739 901v-184h72q53 0 82 27t29 73q0 39 -25.5 61.5t-67.5 22.5h-90z" />
    <glyph glyph-name="arrowleft.ss01" horiz-adv-x="2048" 
d="M489 471l314 -297q49 -48 67.5 -82.5t18.5 -71.5q0 -104 -150 -165l-739 739l584 586q93 96 174 96q95 0 160 -141l-443 -418h1573v-246h-1559z" />
    <glyph glyph-name="arrowright.ss01" horiz-adv-x="2048" 
d="M1559 717l-314 297q-51 50 -68.5 82.5t-17.5 70.5q0 105 150 166l739 -739l-584 -586q-93 -96 -174 -96q-95 0 -160 141l443 418h-1573v246h1559z" />
    <glyph glyph-name="radical.ss01" horiz-adv-x="1265" 
d="M1341 1569l-505 -1569h-314l-289 821h-192v203h416l225 -758l362 1303h297z" />
    <glyph glyph-name="zero.tf" horiz-adv-x="1177" 
d="M604 1368q242 0 371 -166.5t129 -503.5q0 -350 -133 -536.5t-379 -186.5q-262 0 -390 168.5t-128 518.5q0 343 139 524.5t391 181.5zM600 1141q-124 0 -188 -120.5t-64 -352.5q0 -463 246 -463q110 0 173.5 122.5t63.5 358.5q0 229 -60.5 342t-170.5 113z" />
    <glyph glyph-name="one.tf" horiz-adv-x="1177" 
d="M532 1098l-339 -119q-39 66 -39 135q0 65 63.5 118.5t169 83.5t227.5 30q101 0 183 -7v-1118h305v-221h-909v221h339v877z" />
    <glyph glyph-name="two.tf" horiz-adv-x="1177" 
d="M557 1366q208 0 320 -105t112 -290q0 -106 -44.5 -214.5t-122.5 -203t-175 -176.5t-209 -148h594v-229h-885v219q106 85 181.5 151t154 144.5t126 144.5t78 138t30.5 139q0 89 -48 137.5t-143 48.5q-181 0 -327 -131q-62 62 -62 133q0 75 58 130.5t152.5 83.5t209.5 28z
" />
    <glyph glyph-name="three.tf" horiz-adv-x="1177" 
d="M735 721v-12q132 -12 208.5 -100.5t76.5 -221.5q0 -184 -140.5 -298t-359.5 -114q-192 0 -285.5 48t-93.5 153q0 64 47 121q132 -82 279 -82q132 0 202 51.5t70 136.5t-76.5 132t-226.5 47h-151v196q234 4 335 56.5t101 150.5q0 64 -50.5 102.5t-142.5 38.5
q-97 0 -170 -27t-145 -81q-59 56 -59 125q0 103 116 163t301 60q196 0 305 -88t109 -238q0 -117 -62 -199.5t-188 -119.5z" />
    <glyph glyph-name="four.tf" horiz-adv-x="1177" 
d="M909 328v-328h-260v328h-604v211l563 802h301v-794h215v-219h-215zM649 547v514l-356 -514h356z" />
    <glyph glyph-name="five.tf" horiz-adv-x="1177" 
d="M977 1341v-231h-496v-268q153 0 262.5 -28.5t173 -84t92.5 -128.5t29 -169q0 -210 -142.5 -333.5t-397.5 -123.5q-158 0 -247 47.5t-89 147.5q0 64 47 121q129 -78 272 -78q132 0 206.5 56t74.5 151q0 119 -87.5 166t-250.5 47h-207v708h760z" />
    <glyph glyph-name="six.tf" horiz-adv-x="1177" 
d="M367 643q62 227 319 227q189 0 293 -111t104 -302q0 -215 -130.5 -348.5t-358.5 -133.5q-170 0 -284 80t-166 220t-52 337q0 184 48 329t134.5 237t204 140t258.5 48q320 0 320 -152q0 -69 -43 -129q-39 22 -107 37t-141 15q-189 0 -288.5 -126.5t-110.5 -367.5zM365 549
q7 -165 71.5 -256.5t167.5 -91.5q94 0 153.5 62t59.5 165q0 105 -60.5 159t-162.5 54q-120 0 -229 -92z" />
    <glyph glyph-name="seven.tf" horiz-adv-x="1177" 
d="M143 1341h961v-172l-461 -901q-83 -165 -140.5 -237t-119.5 -72q-107 0 -168 119q132 185 199 307l395 723h-666v233z" />
    <glyph glyph-name="eight.tf" horiz-adv-x="1177" 
d="M803 719q61 -32 107 -65t88 -78t64.5 -102t22.5 -124q0 -169 -138.5 -272t-362.5 -103q-230 0 -359 92t-129 259q0 59 21.5 110.5t63 93.5t86.5 74.5t108 67.5q-55 32 -95 63.5t-76.5 73.5t-55.5 94t-19 113q0 164 127 257t336 93q120 0 211.5 -29t144 -77.5t78 -105.5
t25.5 -120q0 -70 -36.5 -130.5t-86 -100t-125.5 -84.5zM551 582q-84 -50 -130 -102.5t-46 -119.5q0 -81 63.5 -124t149.5 -43q96 0 156.5 44t60.5 117q0 30 -14.5 57t-34.5 47.5t-57.5 44.5t-67 39.5t-80.5 39.5zM623 803q77 48 119 97t42 110q0 64 -49.5 106.5t-138.5 42.5
q-93 0 -146 -42t-53 -111q0 -60 57 -105t169 -98z" />
    <glyph glyph-name="nine.tf" horiz-adv-x="1177" 
d="M811 698q-62 -227 -319 -227q-189 0 -293.5 111.5t-104.5 302.5q0 215 131 348t359 133q128 0 224.5 -45t157 -129.5t90 -200t29.5 -262.5q0 -184 -48 -329t-134.5 -237t-204 -140t-258.5 -48q-319 0 -319 152q0 69 43 129q39 -21 107 -36t141 -15q190 0 289 126t110 367
zM813 793q-7 165 -72 256.5t-168 91.5q-93 0 -153 -62.5t-60 -165.5q0 -105 61 -159t163 -54q118 0 229 93z" />
    <glyph glyph-name="zero.tosf" horiz-adv-x="1200" 
d="M610 1083q230 0 360 -133.5t130 -400.5q0 -278 -137 -426t-367 -148q-498 0 -498 545q0 135 38 242.5t106 177t161.5 106.5t206.5 37zM610 856q-121 0 -178 -88t-57 -242q0 -161 58.5 -242t170.5 -81q108 0 163.5 90t55.5 252q0 145 -54.5 228t-158.5 83z" />
    <glyph glyph-name="one.tosf" horiz-adv-x="1200" 
d="M530 809l-256 -53q-38 63 -38 137q0 174 452 174q64 0 107 -6v-842h264v-219h-809v219h280v590z" />
    <glyph glyph-name="two.tosf" horiz-adv-x="1200" 
d="M604 1085q198 0 297.5 -98t99.5 -256q0 -187 -126 -313.5t-340 -188.5h516v-229h-858v221q124 68 204.5 117.5t159.5 110.5t117.5 120t38.5 119q0 139 -166 139q-153 0 -297 -110q-68 74 -68 149q0 66 60 117t155 76.5t207 25.5z" />
    <glyph glyph-name="three.tosf" horiz-adv-x="1200" 
d="M737 436v-10q143 -14 222 -99.5t79 -232.5q0 -195 -145 -306.5t-379 -111.5q-69 0 -121 6t-101 22.5t-75.5 50t-26.5 83.5q0 84 41 139q97 -57 271 -57q120 0 186 47t66 133q0 179 -299 179h-125v208q405 14 405 207q0 61 -42.5 98t-127.5 37q-164 0 -301 -110
q-65 71 -65 151q0 64 58 113.5t152.5 75.5t206.5 26q186 0 292 -90t106 -245q0 -124 -73.5 -208t-203.5 -106z" />
    <glyph glyph-name="four.tosf" horiz-adv-x="1200" 
d="M895 68v-369h-260v369h-598v211l526 782h332v-774h225v-219h-225zM635 287v514l-342 -514h342z" />
    <glyph glyph-name="five.tosf" horiz-adv-x="1200" 
d="M975 1061v-236h-463v-241q144 0 247 -31.5t161.5 -91t85 -135t26.5 -172.5q0 -100 -35 -186t-102 -151.5t-172.5 -103t-237.5 -37.5q-65 0 -113.5 6t-94.5 22.5t-70.5 50t-24.5 83.5q0 87 39 137q99 -55 250 -55q134 0 205.5 56.5t71.5 158.5q0 133 -119.5 185.5
t-380.5 52.5v688h727z" />
    <glyph glyph-name="six.tosf" horiz-adv-x="1200" 
d="M391 647q31 118 105.5 172.5t205.5 54.5q187 0 282 -112t95 -307q0 -216 -122.5 -348t-348.5 -132q-127 0 -222 45t-153.5 129.5t-87 200t-28.5 262.5q0 185 48 329t136 236.5t209.5 140.5t269.5 48q281 0 281 -152q0 -68 -41 -129q-85 45 -219 45q-206 0 -302.5 -120
t-107.5 -363zM389 551q6 -166 67.5 -257t164.5 -91q90 0 141 60t51 165q0 209 -203 209q-122 0 -221 -86z" />
    <glyph glyph-name="seven.tosf" horiz-adv-x="1200" 
d="M172 1061h897v-191l-432 -911q-68 -144 -127.5 -213.5t-122.5 -69.5q-108 0 -180 119q128 161 186 277l369 741h-590v248z" />
    <glyph glyph-name="eight.tosf" horiz-adv-x="1200" 
d="M811 719q122 -68 192 -153.5t70 -211.5q0 -173 -129 -276t-350 -103q-226 0 -346.5 92.5t-120.5 260.5q0 59 20 110.5t59 94t80 74t99 67.5q-51 31 -89.5 62.5t-72 73t-51.5 93.5t-18 113q0 165 120.5 257.5t327.5 92.5q120 0 209 -29t138 -78t72 -105.5t23 -121.5
q0 -97 -62 -171.5t-171 -141.5zM567 578q-77 -50 -119 -100t-42 -113q0 -83 54.5 -127.5t137.5 -44.5q93 0 145 44.5t52 120.5q0 65 -57.5 113.5t-170.5 106.5zM627 809q151 97 151 205q0 63 -43.5 104t-128.5 41q-89 0 -136.5 -40.5t-47.5 -104.5q0 -60 52 -106.5
t153 -98.5z" />
    <glyph glyph-name="nine.tosf" horiz-adv-x="1200" 
d="M805 391q-31 -113 -106 -165t-205 -52q-186 0 -280.5 116.5t-94.5 313.5q0 217 121.5 349t347.5 132q128 0 223 -44.5t153.5 -129t86.5 -199t28 -261.5q0 -372 -180 -574.5t-483 -202.5q-281 0 -281 152q0 68 45 129q82 -45 217 -45q198 0 296 123t112 358zM807 498
q-3 171 -63.5 265.5t-165.5 94.5q-92 0 -142.5 -60.5t-50.5 -166.5q0 -105 51 -162t150 -57q129 0 221 86z" />
    <glyph glyph-name="grave.uc" horiz-adv-x="1439" 
d="M760 1421l-258 207q-50 40 -69 69.5t-19 63.5q0 93 129 152l254 -203q51 -41 70.5 -71t19.5 -62q0 -96 -127 -156z" />
    <glyph glyph-name="dieresis.uc" horiz-adv-x="1439" 
d="M506 1747q70 0 113 -41t43 -109q0 -70 -43 -110.5t-113 -40.5t-114 41t-44 110q0 68 44 109t114 41zM963 1747q70 0 112.5 -41t42.5 -109q0 -69 -43 -110t-112 -41q-70 0 -113 40.5t-43 110.5q0 68 43 109t113 41z" />
    <glyph glyph-name="macron.uc" horiz-adv-x="1198" 
d="M909 1651v-205h-628v205h628z" />
    <glyph glyph-name="acute.uc" horiz-adv-x="1439" 
d="M610 1565l238 243q72 72 133 72q94 0 152 -137l-238 -242q-71 -71 -133 -71q-94 0 -152 135z" />
    <glyph glyph-name="circumflex.uc" horiz-adv-x="1439" 
d="M735 1563l-106 -84q-78 -60 -121 -60q-55 0 -90.5 40t-57.5 122l363 234q149 -64 248 -125q102 -63 102 -129q0 -84 -90 -156z" />
    <glyph glyph-name="caron.uc" horiz-adv-x="1183" 
d="M598 1649l107 84q73 59 120 59q104 0 148 -162l-363 -231q-125 51 -248 123q-104 64 -104 129q0 83 92 155z" />
    <glyph glyph-name="breve.uc" horiz-adv-x="1198" 
d="M604 1620q29 0 63 28t61.5 61t62.5 61t65 28q79 0 129 -92q-59 -120 -177.5 -213.5t-223.5 -93.5q-50 0 -130.5 41t-147 108t-66.5 127q0 105 120 131q156 -186 244 -186z" />
    <glyph glyph-name="dotaccent.uc" horiz-adv-x="1198" 
d="M596 1802q82 0 132 -48.5t50 -129.5t-51 -129.5t-131 -48.5q-84 0 -134 48.5t-50 129.5q0 80 50.5 129t133.5 49z" />
    <glyph glyph-name="ring.uc" horiz-adv-x="1114" 
d="M791 1446q0 -89 -63.5 -151t-166.5 -62q-105 0 -168 60t-63 153q0 90 65.5 151.5t165.5 61.5q105 0 167.5 -60.5t62.5 -152.5zM649 1446q0 40 -25 66t-63 26q-39 0 -63.5 -26t-24.5 -66q0 -39 24.5 -65.5t63.5 -26.5q38 0 63 26.5t25 65.5z" />
    <glyph glyph-name="tilde.uc" horiz-adv-x="1439" 
d="M360 1585q0 75 53.5 118.5t131.5 43.5q75 0 176 -30.5t158 -30.5q100 0 172 57q19 -23 31 -58.5t12 -62.5q0 -76 -51.5 -119t-124.5 -43q-79 0 -182.5 30t-160.5 30q-97 0 -172 -56q-19 24 -31 58.5t-12 62.5z" />
    <glyph glyph-name="hungarumlaut.uc" horiz-adv-x="1198" 
d="M659 1556l240 220q71 65 123 65q86 0 137 -127l-241 -217q-41 -36 -67.5 -51.5t-55.5 -15.5q-88 0 -136 126zM223 1546l201 228q59 67 121 67q73 0 135 -117l-203 -227q-61 -67 -121 -67q-70 0 -133 116z" />
    <glyph glyph-name="diedot.uc" horiz-adv-x="1439" 
d="M506 1747q70 0 113 -41t43 -109q0 -70 -43 -110.5t-113 -40.5t-114 41t-44 110q0 68 44 109t114 41z" />
    <glyph glyph-name="commaaccent" horiz-adv-x="520" 
d="M229 -131q-56 12 -96.5 53t-40.5 109q0 67 42 109t110 42q83 0 131.5 -62t48.5 -165q0 -148 -76.5 -260.5t-175.5 -112.5q-72 0 -102 62q57 48 100.5 109t58.5 116z" />
    <glyph glyph-name="commaturn" horiz-adv-x="520" 
d="M264 1470q57 -12 97 -52.5t40 -108.5t-42 -110t-111 -42q-82 0 -130 62.5t-48 166.5q0 147 76.5 258t175.5 111q72 0 102 -61q-58 -48 -101.5 -108.5t-58.5 -115.5z" />
    <glyph glyph-name="undercommaaccent" horiz-adv-x="520" 
d="M229 -131q-56 12 -96.5 53t-40.5 109q0 67 42 109t110 42q83 0 131.5 -62t48.5 -165q0 -148 -76.5 -260.5t-175.5 -112.5q-72 0 -102 62q57 48 100.5 109t58.5 116z" />
    </font>
</defs>
</svg>
