<?xml version="1.0" standalone="no"?>
<!DOCTYPE svg PUBLIC "-//W3C//DTD SVG 1.1//EN" "http://www.w3.org/Graphics/SVG/1.1/DTD/svg11.dtd" >
<svg xmlns="http://www.w3.org/2000/svg" xmlns:xlink="http://www.w3.org/1999/xlink" version="1.1">
<metadata></metadata>
<defs>
<font id="vagroundedtmebold" horiz-adv-x="1175" >
<font-face units-per-em="2048" ascent="1481" descent="-567" />
<missing-glyph horiz-adv-x="548" />
<glyph horiz-adv-x="0" />
<glyph unicode="&#xd;" horiz-adv-x="548" />
<glyph unicode=" "  horiz-adv-x="548" />
<glyph unicode="&#x09;" horiz-adv-x="548" />
<glyph unicode="&#xa0;" horiz-adv-x="548" />
<glyph unicode="!" horiz-adv-x="684" d="M182 135q0 66 47 113t113 47t113 -47t47 -113t-47 -113t-113 -47t-113 47.5t-47 112.5zM195 555v788q0 66 42 103t105 37q61 0 104 -38t43 -102v-788q0 -63 -43 -101t-104 -38q-63 0 -105 36.5t-42 102.5z" />
<glyph unicode="&#x22;" horiz-adv-x="909" d="M145 1012v348q0 55 33 89t90 34t90 -34t33 -89v-348q0 -55 -32.5 -89t-90.5 -34q-57 0 -90 33.5t-33 89.5zM518 1012v348q0 55 33 89t90 34t90 -34t33 -89v-348q0 -55 -33 -89t-90 -34t-90 33.5t-33 89.5z" />
<glyph unicode="#" horiz-adv-x="1228" d="M0 514q0 37 23.5 67.5t74.5 30.5h205l33 234h-176q-51 0 -75 30.5t-24 67.5t24 67.5t75 30.5h205l45 330q8 55 31.5 76.5t70.5 21.5q37 0 65.5 -22.5t28.5 -58.5v-16.5v-7.5t-1 -8t-3 -18l-41 -297h197l45 330q8 55 31.5 76.5t70.5 21.5q37 0 65.5 -22.5t28.5 -58.5 v-16.5v-7.5t-1 -8t-3 -18l-41 -297h176q51 0 75 -30.5t24 -67.5t-23.5 -67.5t-75.5 -30.5h-204l-33 -234h176q51 0 74.5 -30.5t23.5 -67.5t-23.5 -67.5t-74.5 -30.5h-205l-45 -330q-8 -55 -31.5 -76.5t-70.5 -21.5q-37 0 -65.5 22.5t-28.5 59.5v16v7t1 8t3 18l41 297h-197 l-45 -330q-8 -55 -31.5 -76.5t-70.5 -21.5q-37 0 -66 22.5t-29 59.5v16v7t1 8t3 18l41 297h-176q-51 0 -74.5 30.5t-23.5 67.5zM502 612h194l33 234h-194z" />
<glyph unicode="$" horiz-adv-x="1099" d="M39 205q0 59 37 102t100 43q33 0 69 -10t74.5 -23.5t79.5 -27t86 -17.5v342q-74 20 -151.5 45t-142 68t-105.5 111.5t-41 179.5q0 98 35 179t94 140.5t139 95t172 46.5v4v59q0 41 7.5 68.5t48.5 27.5t48 -27.5t7 -68.5v-63q45 -2 107.5 -12.5t118 -34t94 -61.5t38.5 -93 q0 -59 -36.5 -105.5t-100.5 -46.5q-27 0 -52.5 7.5t-51 16.5t-54 18.5t-63.5 13.5v-273q74 -23 156 -50.5t150.5 -76.5t113.5 -129t45 -202q0 -102 -37 -185.5t-99.5 -144t-147.5 -96t-181 -43.5v-7v-59q0 -35 -7 -65.5t-48 -30.5t-48.5 30.5t-7.5 65.5v64q-61 2 -139 12 t-146.5 35.5t-114.5 68.5t-46 109zM377 1055q0 -41 29.5 -65.5t78.5 -43.5v234q-47 -12 -77.5 -44t-30.5 -81zM596 281q66 16 99.5 61t33.5 104q0 51 -37 82t-96 52v-299z" />
<glyph unicode="%" horiz-adv-x="1478" d="M63 1151q0 68 24 127t66 105.5t100 73t126 26.5t126 -26.5t100 -73t65.5 -105.5t23.5 -127t-23.5 -127t-65.5 -104.5t-100 -72t-126 -26.5t-126 26.5t-100 72t-66 104.5t-24 127zM272 1151q0 -49 28 -85t79 -36t78.5 36t27.5 85t-27.5 86t-78.5 37t-79 -37t-28 -86z M285 76q0 23 7 43t13 33l678 1278q20 39 39.5 52t54.5 13q47 0 84 -34t37 -81q0 -12 -2 -25.5t-14 -35.5l-688 -1288q-23 -33 -39.5 -50.5t-53.5 -17.5q-41 0 -78.5 33t-37.5 80zM784 305q0 68 23.5 127.5t65.5 105.5t100.5 72.5t126.5 26.5t126 -26.5t100 -72.5 t65.5 -105.5t23.5 -127.5t-23.5 -127t-65.5 -104t-100 -72t-126 -27t-126.5 27t-100.5 72t-65.5 104.5t-23.5 126.5zM993 305q0 -49 28 -85t79 -36t78.5 36t27.5 85t-27.5 86t-78.5 37t-79 -37t-28 -86z" />
<glyph unicode="&#x26;" horiz-adv-x="1441" d="M49 418q0 76 24.5 142.5t66.5 121.5t98.5 100t119.5 80q-59 59 -97 125t-38 152q0 88 38 152.5t98.5 107.5t137 63.5t156.5 20.5q70 0 143.5 -19.5t135 -59.5t100.5 -100.5t39 -142.5q0 -61 -22.5 -115.5t-58.5 -99.5t-83 -82t-96 -61l215 -238l80 92q41 47 73.5 71 t82.5 24q45 0 78.5 -35t33.5 -94q0 -41 -30.5 -91.5t-81.5 -103.5l-52 -55l140 -158q23 -25 34 -46.5t11 -55.5q0 -53 -42 -95.5t-102 -42.5q-35 0 -60.5 11.5t-47.5 36.5l-142 147q-100 -88 -206.5 -141.5t-243.5 -53.5q-102 0 -193.5 29t-160 85t-108.5 138t-40 191z M344 446q0 -98 59.5 -149t153.5 -51q84 0 142.5 31.5t117.5 87.5l-297 329q-70 -45 -123 -102t-53 -146zM530 1147q0 -47 25 -82t84 -94q23 12 49.5 27.5t49 36t36.5 43.5t14 52q0 35 -13 57.5t-33.5 37t-44 19.5t-44.5 5q-20 0 -41.5 -7t-40 -20.5t-30 -33t-11.5 -41.5z " />
<glyph unicode="'" horiz-adv-x="491" d="M123 1012v348q0 55 32.5 89t90.5 34q57 0 90 -34t33 -89v-348q0 -55 -33 -89t-90 -34t-90 33.5t-33 89.5z" />
<glyph unicode="(" horiz-adv-x="493" d="M80 584q0 47 5 120.5t16.5 158.5t28.5 175t40 171t51.5 145.5t63.5 101.5q12 14 31.5 20.5t35.5 6.5q51 0 91 -33t40 -86q0 -10 -5 -28.5t-11 -39t-13.5 -39t-9.5 -28.5q-53 -158 -79.5 -318.5t-26.5 -326.5q0 -150 22.5 -307.5t71.5 -299.5q4 -10 12.5 -33.5t17.5 -49 t15 -48t6 -30.5q0 -59 -35.5 -95t-95.5 -36q-37 0 -62.5 22.5t-43.5 54.5q-41 70 -72 177.5t-52.5 223.5t-31.5 228.5t-10 192.5z" />
<glyph unicode=")" horiz-adv-x="493" d="M10 -197q0 10 5 28.5t11.5 39t12.5 39t10 29.5q53 158 80 318.5t27 326.5q0 150 -22.5 307.5t-72.5 298.5q-4 10 -12 33.5t-17 49t-15.5 48t-6.5 31.5q0 59 36 95t95 36q37 0 62.5 -22.5t44.5 -55.5q41 -72 71.5 -178.5t52 -222t32 -228t10.5 -192.5q0 -49 -5.5 -122 t-16.5 -158t-28.5 -175t-40 -171t-51 -146.5t-63.5 -100.5q-12 -14 -32 -20t-36 -6q-51 0 -91 32.5t-40 85.5z" />
<glyph unicode="*" horiz-adv-x="796" d="M59 961q0 29 16.5 48t41 32.5t53.5 22.5t51 21q-23 12 -51.5 22.5t-53 24t-41 33t-16.5 47.5q0 45 28 82t75 37q35 0 68.5 -26.5t78.5 -57.5q-4 33 -10 69t-6 60q0 51 31.5 72.5t72.5 21.5t73 -21.5t32 -72.5q0 -25 -6.5 -60.5t-10.5 -68.5q43 31 77 57.5t69 26.5 q47 0 76.5 -37t29.5 -82q0 -29 -16 -48t-41 -32.5t-53.5 -23.5t-53.5 -23q25 -12 53.5 -21t53.5 -22.5t41 -33t16 -47.5q0 -45 -29.5 -83t-76.5 -38q-35 0 -69 27.5t-77 58.5q4 -33 10.5 -69t6.5 -60q0 -51 -32 -73t-73 -22t-72.5 21.5t-31.5 73.5q0 25 6 60.5t10 68.5 q-45 -31 -78.5 -58.5t-68.5 -27.5q-47 0 -75 37.5t-28 83.5z" />
<glyph unicode="+" horiz-adv-x="1228" d="M72 518q0 55 32.5 89t90.5 34h297v297q0 55 32.5 89t89.5 34t90 -34t33 -89v-297h297q57 0 90 -34t33 -89t-32.5 -89t-90.5 -34h-297v-297q0 -55 -32.5 -89t-90.5 -34q-57 0 -89.5 34t-32.5 89v297h-297q-57 0 -90 34t-33 89z" />
<glyph unicode="," horiz-adv-x="548" d="M-20 -139q0 23 7 42t17 40l170 307q20 35 57 52t62 17q55 0 98 -39.5t43 -95.5q0 -23 -8 -43t-18 -39l-172 -307q-20 -35 -56.5 -52t-60.5 -17q-55 0 -97 39.5t-42 95.5z" />
<glyph unicode="-" horiz-adv-x="796" d="M63 592q0 55 30 93t87 38h436q57 0 87 -38t30 -93q0 -53 -29.5 -90t-87.5 -37h-436q-57 0 -87 37t-30 90z" />
<glyph unicode="." horiz-adv-x="548" d="M115 135q0 66 47 113t112 47q66 0 113 -47t47 -113t-47 -113t-113 -47t-112.5 47t-46.5 113z" />
<glyph unicode="/" horiz-adv-x="833" d="M16 88q0 14 19 57l547 1262q14 35 39.5 55.5t74.5 20.5q51 0 86 -33t35 -80q0 -14 -18 -57l-545 -1262q-16 -35 -41 -55.5t-74 -20.5q-51 0 -87 33t-36 80z" />
<glyph unicode="0" d="M45 729q0 125 26.5 258t89 243.5t167 181.5t260.5 71t259 -71t166.5 -181.5t90 -243.5t26.5 -258t-26.5 -258t-90 -243.5t-166.5 -181.5t-259 -71t-260.5 71t-167 181.5t-89 243.5t-26.5 258zM365 729q0 -55 5 -136t27.5 -156t67.5 -129t123 -54t123 54t67.5 129 t27.5 156t5 136q0 57 -5 139t-27.5 157t-67.5 127t-123 52t-123 -52t-67.5 -127t-27.5 -157t-5 -139z" />
<glyph unicode="1" horiz-adv-x="757" d="M51 1317q0 53 37 97t102 44h291q66 0 101.5 -42t35.5 -103v-1166q0 -78 -44 -118.5t-109 -40.5q-66 0 -110 41t-44 118v1029h-121q-74 0 -106.5 44t-32.5 97z" />
<glyph unicode="2" d="M92 135q0 33 15.5 59.5t31.5 45.5q129 154 261 298t249 314q29 41 50.5 88t21.5 102q0 63 -42 110.5t-106 47.5q-59 0 -91.5 -24.5t-52 -61.5t-31 -80t-27 -79.5t-42 -61.5t-75.5 -25q-74 0 -112 45t-38 105q0 96 40 181t106.5 147.5t154 99.5t181.5 37t177 -30 t144.5 -85t97 -134t35.5 -177q0 -106 -52 -212t-128 -206t-161 -193.5t-150 -175.5h375q68 0 113.5 -31.5t45.5 -103.5t-44 -103.5t-103 -31.5h-684q-68 0 -114 31.5t-46 103.5z" />
<glyph unicode="3" d="M66 360q0 31 14 55.5t36.5 43t50.5 29t56 10.5q35 0 57.5 -17.5t41 -44t36 -58.5t44 -58.5t64.5 -44t95 -17.5q80 0 136.5 54.5t56.5 136.5q0 72 -26 106.5t-64.5 50t-83.5 19.5t-84 15t-64.5 38t-25.5 88q0 53 21.5 80.5t54 41t69.5 22t69.5 23.5t54 44t21.5 86 q0 59 -39 98t-108 39q-74 0 -111 -31.5t-63.5 -68.5t-54 -69t-78.5 -32q-63 0 -98 47.5t-35 104.5q0 59 37.5 118.5t100 106.5t142.5 77t166 30q111 0 192.5 -36t136 -91.5t81 -122t26.5 -125.5q0 -98 -41 -179t-127 -134q111 -51 180.5 -147.5t69.5 -219.5q0 -92 -40 -174 t-109.5 -144.5t-163.5 -98.5t-203 -36q-115 0 -205 38t-154.5 94.5t-98 124t-33.5 128.5z" />
<glyph unicode="4" d="M33 442q0 35 9 54.5t19 35.5l459 832q35 61 82 90t127 29q45 0 87 -14.5t75 -46t53.5 -82t20.5 -119.5v-629h34q59 0 101.5 -37t42.5 -98t-42 -98t-102 -37h-34v-175q0 -82 -35 -120.5t-113 -38.5t-112.5 39t-34.5 120v175h-494q-37 0 -64.5 11t-45 28.5t-25.5 39 t-8 41.5zM389 592h281v571h-4z" />
<glyph unicode="5" d="M66 250q0 57 40.5 98t98.5 41q31 0 64.5 -20.5t72.5 -45t84 -45t96 -20.5q53 0 94 23.5t69 62.5t41 86t13 96q0 92 -50 149.5t-146 57.5q-45 0 -74 -10t-53.5 -23.5t-50 -23.5t-64.5 -10q-31 0 -53.5 10t-37.5 24.5t-22.5 32t-7.5 29.5q0 20 2 36.5t4 32.5l52 433 q6 59 18 97t31.5 59.5t46 29.5t63.5 8h494q72 0 110.5 -37t38.5 -92q0 -53 -17 -84t-41 -46t-47.5 -19t-37.5 -4h-385l-31 -218q37 8 76 14.5t78 6.5q92 0 170 -35t134 -94t88 -138t32 -169q0 -129 -35 -233.5t-103.5 -178.5t-170 -115t-234.5 -41q-55 0 -132 17.5 t-147.5 52.5t-120.5 86t-50 119z" />
<glyph unicode="6" d="M74 483q0 117 52 250t130 262t169 241t169 183q12 12 29.5 24.5t35.5 24.5q16 10 33 12.5t29 2.5q20 0 46 -13.5t48.5 -34t36.5 -48t14 -54.5q0 -23 -12 -42t-31 -42q-31 -37 -69.5 -80t-77.5 -86t-75 -84t-60 -77l4 -4q29 12 61.5 18t67.5 6q92 0 171 -38t135 -101.5 t89 -146.5t33 -173q0 -100 -38 -191t-105.5 -162t-162.5 -113t-208 -42q-119 0 -214 41t-162 111t-102.5 162t-35.5 194zM393 483q0 -86 51.5 -149.5t143.5 -63.5q88 0 141 61.5t53 151.5q0 41 -12 79t-36.5 67.5t-60.5 48t-85 18.5q-88 0 -141.5 -60.5t-53.5 -152.5z" />
<glyph unicode="7" horiz-adv-x="1101" d="M31 1317q0 53 33.5 97t117.5 44h742q39 0 66.5 -15.5t46 -38t26.5 -48t8 -45.5q0 -31 -14.5 -64t-32.5 -71l-508 -1033q-23 -43 -39 -72.5t-34.5 -48t-41 -26.5t-57.5 -8q-43 0 -74.5 14t-53 35.5t-32 47.5t-10.5 48q0 18 5 33.5t16 38.5l512 971h-525q-41 0 -69.5 12 t-47 31.5t-26.5 45t-8 52.5z" />
<glyph unicode="8" d="M82 442q0 123 60.5 212t158.5 143q-72 53 -114 123.5t-42 169.5q0 90 35 162.5t95.5 123.5t140.5 79t172 28q88 0 169 -28t142.5 -79t97 -123.5t35.5 -162.5q0 -86 -41 -166t-117 -127q104 -53 162 -144.5t58 -210.5q0 -106 -41 -192t-110 -147.5t-161 -94.5t-194 -33 q-106 0 -198.5 35t-161 96.5t-107.5 147.5t-39 188zM401 463q0 -39 11.5 -76t35 -65.5t58.5 -46t82 -17.5q43 0 77.5 17.5t59.5 46t37 65.5t12 76q0 98 -50 151.5t-136 53.5q-90 0 -138.5 -59.5t-48.5 -145.5zM440 1057q0 -70 38 -113t110 -43t110.5 43t38.5 113 q0 66 -38.5 110.5t-110.5 44.5t-110 -45t-38 -110z" />
<glyph unicode="9" d="M74 975q0 100 38 191t105.5 162t161.5 113t209 42q119 0 214 -41t161.5 -110.5t102.5 -162t36 -194.5q0 -117 -52.5 -250t-130 -262t-169 -240.5t-168.5 -183.5q-12 -12 -29.5 -24.5t-36.5 -24.5q-16 -10 -32.5 -12.5t-28.5 -2.5q-23 0 -47.5 13.5t-47 34t-37 47 t-14.5 55.5q0 23 12.5 42t30.5 42q31 37 70 80l78 86t74.5 84t60.5 78l-4 4q-29 -12 -61.5 -18.5t-67.5 -6.5q-92 0 -171 38t-135.5 101.5t-89 146.5t-32.5 173zM393 975q0 -41 12.5 -79t37 -67.5t60.5 -48t85 -18.5q88 0 141 60.5t53 152.5q0 86 -51 149.5t-143 63.5 q-88 0 -141.5 -61.5t-53.5 -151.5z" />
<glyph unicode=":" horiz-adv-x="548" d="M115 135q0 66 47 113t112 47q66 0 113 -47t47 -113t-47 -113t-113 -47t-112.5 47t-46.5 113zM115 793q0 66 47 112.5t112 46.5q66 0 113 -47t47 -112q0 -66 -47 -113t-113 -47t-112.5 47t-46.5 113z" />
<glyph unicode=";" horiz-adv-x="548" d="M-20 -139q0 23 7 42t17 40l170 307q20 35 57 52t62 17q55 0 98 -39.5t43 -95.5q0 -23 -8 -43t-18 -39l-172 -307q-20 -35 -56.5 -52t-60.5 -17q-55 0 -97 39.5t-42 95.5zM115 793q0 66 47 112.5t112 46.5q66 0 113 -47t47 -112q0 -66 -47 -113t-113 -47t-112.5 47 t-46.5 113z" />
<glyph unicode="&#x3c;" horiz-adv-x="1228" d="M72 518q0 47 21.5 73.5t53.5 43.5l809 371q45 20 66.5 25t36.5 5q39 0 68.5 -31.5t29.5 -97.5q0 -33 -15.5 -59.5t-58.5 -44.5l-682 -285l682 -285q43 -18 58.5 -44.5t15.5 -59.5q0 -66 -29.5 -97.5t-68.5 -31.5q-14 0 -36 4t-67 25l-809 372q-33 16 -54 43t-21 74z" />
<glyph unicode="=" horiz-adv-x="1228" d="M72 289q0 55 32.5 89t90.5 34h839q57 0 90 -34t33 -89t-32.5 -89t-90.5 -34h-839q-57 0 -90 33.5t-33 89.5zM72 748q0 55 32.5 88.5t90.5 33.5h839q57 0 90 -33.5t33 -88.5t-32.5 -89t-90.5 -34h-839q-57 0 -90 33.5t-33 89.5z" />
<glyph unicode="&#x3e;" horiz-adv-x="1228" d="M72 129q0 33 15 59.5t58 44.5l682 285l-682 285q-43 18 -58 44.5t-15 59.5q0 66 29.5 97.5t68.5 31.5q14 0 35.5 -5t66.5 -25l809 -371q33 -16 54.5 -43t21.5 -74t-21.5 -73.5t-54.5 -43.5l-809 -372q-45 -20 -66.5 -24.5t-35.5 -4.5q-39 0 -68.5 31.5t-29.5 97.5z" />
<glyph unicode="?" horiz-adv-x="985" d="M6 1145q0 80 45 143.5t112.5 106.5t147.5 65.5t150 22.5q98 0 187 -30t156.5 -86t106.5 -138t39 -185q0 -170 -98 -272t-256 -141v-74q0 -61 -41 -101t-106 -40q-70 0 -109 40t-39 101v205q0 27 14.5 44t37 28.5t53 19.5t61.5 16t60.5 19.5t52 31t37 49t14.5 74.5 q0 33 -14.5 62t-38 50.5t-54 32.5t-63.5 11q-66 0 -107 -31.5t-73.5 -69.5t-66.5 -70t-83 -32q-55 0 -90 40t-35 108zM289 135q0 66 47 113t113 47t112.5 -47t46.5 -113t-46.5 -113t-112.5 -47t-113 47.5t-47 112.5z" />
<glyph unicode="@" horiz-adv-x="1638" d="M66 729q0 156 59 293t161.5 239.5t239.5 162t293 59.5q143 0 279.5 -49.5t242 -137.5t169 -208.5t63.5 -262.5q0 -100 -32 -177t-82 -134t-111.5 -97t-120 -64.5t-107.5 -35t-73 -10.5q-78 0 -110 30t-32 71h-4q-41 -47 -97 -74t-118 -27q-66 0 -121 31t-96 81 t-63.5 114.5t-22.5 130.5q0 88 27.5 169.5t80 145t126 102.5t165.5 39q76 0 137.5 -28.5t102.5 -94.5h4v25q0 47 26.5 72.5t88.5 25.5q39 0 66.5 -14t27.5 -43q0 -20 -2 -34.5t-6 -31.5l-82 -372q-4 -12 -6 -32t-2 -36q0 -18 11 -30.5t36 -12.5q23 0 57.5 17.5t67 55.5 t56.5 96t24 142q0 111 -47.5 198t-126 148.5t-182 94t-214.5 32.5q-119 0 -222 -45t-180 -121.5t-122 -180t-45 -222.5t45 -222.5t122 -180t180 -121.5t222 -45q111 0 219.5 21.5t206.5 74.5q16 8 33.5 23.5t36 30t36 24.5t31.5 10q25 0 50.5 -14.5t25.5 -61.5 q0 -29 -14 -53.5t-41 -56.5q-59 -55 -129 -90t-144.5 -55.5t-152.5 -29t-158 -8.5q-156 0 -293 59.5t-239.5 162t-161.5 239.5t-59 293zM592 692q0 -33 9 -64.5t26.5 -56t44 -40t63.5 -15.5q45 0 83 18.5t64.5 49t42 70.5t15.5 83q0 70 -41 122t-115 52q-41 0 -75.5 -19.5 t-61 -51t-41 -70.5t-14.5 -78z" />
<glyph unicode="A" horiz-adv-x="1290" d="M4 131q0 25 5 42t9 26l412 1114q27 72 84 121t135 49q82 0 137.5 -48.5t81.5 -121.5l402 -1114q10 -25 13 -45.5t3 -30.5q0 -59 -42 -97t-99 -38q-66 0 -99.5 29.5t-50.5 76.5l-61 193h-569l-62 -191q-16 -47 -50 -77.5t-97 -30.5q-61 0 -106.5 41t-45.5 102zM453 569 h389l-191 594h-4z" />
<glyph unicode="B" d="M92 156v1149q0 74 45 113.5t117 39.5h393q80 0 149.5 -25.5t122 -72.5t83 -113.5t30.5 -148.5q0 -109 -46 -181.5t-144 -119.5v-4q66 -10 122 -40t98 -76t66.5 -105.5t24.5 -127.5q0 -109 -35 -191.5t-97.5 -139t-149.5 -85t-193 -28.5h-422q-72 0 -118 42t-46 114z M399 270h242q84 0 138.5 46t54.5 133q0 72 -54.5 116.5t-163.5 44.5h-217v-340zM399 881h160q76 0 121 42t45 119q0 72 -49 109t-117 37h-160v-307z" />
<glyph unicode="C" horiz-adv-x="1251" d="M35 729q0 160 51 297t144.5 238.5t222.5 160t286 58.5q55 0 131 -10.5t144.5 -37t117 -70.5t48.5 -112q0 -55 -35 -96t-92 -41q-31 0 -59.5 11.5t-63.5 24.5t-81 24.5t-110 11.5q-96 0 -167.5 -38t-120 -101.5t-73 -147.5t-24.5 -178q0 -92 24.5 -174t74 -143.5 t121 -98.5t165.5 -37q63 0 111.5 13.5t85.5 30t67.5 29.5t61.5 13q35 0 60.5 -15t42 -36.5t24.5 -45t8 -42.5q0 -74 -51 -121t-123 -73.5t-150.5 -37t-136.5 -10.5q-156 0 -285.5 58.5t-223 160t-144.5 238.5t-51 297z" />
<glyph unicode="D" horiz-adv-x="1366" d="M92 154v1146q0 72 44 115t114 43h340q172 0 306 -53t226 -151.5t140.5 -236.5t48.5 -308q0 -162 -50.5 -293t-142.5 -223.5t-221 -142.5t-287 -50h-356q-25 0 -53.5 7t-53 25.5t-40 48.5t-15.5 73zM399 283h207q98 0 171 33.5t121 94t70.5 140.5t22.5 172q0 98 -23.5 181 t-72.5 143.5t-126 94.5t-183 34h-187v-893z" />
<glyph unicode="E" horiz-adv-x="948" d="M92 154v1126q0 78 39 128t121 50h508q74 0 109.5 -44t35.5 -97t-37 -97t-108 -44h-361v-299h336q76 0 113 -44.5t37 -97.5t-38 -97t-112 -44h-336v-311h379q74 0 110 -44t36 -98q0 -53 -37 -97t-109 -44h-528q-68 0 -113 42t-45 112z" />
<glyph unicode="F" horiz-adv-x="909" d="M92 147v1151q0 63 41 111.5t119 48.5h524q68 0 102.5 -44t34.5 -97t-33.5 -97t-103.5 -44h-377v-299h318q74 0 110.5 -43t36.5 -97q0 -53 -36.5 -98t-110.5 -45h-318v-447q0 -78 -44 -118.5t-109 -40.5q-66 0 -110 41t-44 118z" />
<glyph unicode="G" horiz-adv-x="1441" d="M35 729q0 160 51 297t144.5 238.5t222.5 160t286 58.5q117 0 219.5 -24.5t179 -65.5t121 -93.5t44.5 -105.5q0 -66 -37 -104.5t-90 -38.5t-90 23.5t-80 51t-104.5 51t-162.5 23.5q-96 0 -167.5 -39t-120 -103.5t-73 -150.5t-24.5 -178q0 -94 23.5 -179t72 -149.5 t120 -103.5t169.5 -39q61 0 123 17.5t112 56.5t81.5 100.5t31.5 149.5h-208q-63 0 -103.5 40t-40.5 103q0 66 42 102.5t102 36.5h348q98 0 139 -49t41 -147q0 -147 -47 -274.5t-133 -220.5t-210 -145.5t-278 -52.5q-156 0 -285.5 58.5t-223 160t-144.5 238.5t-51 297z" />
<glyph unicode="H" horiz-adv-x="1441" d="M92 147v1164q0 78 44 118.5t110 40.5t109.5 -40.5t43.5 -118.5v-434h643v434q0 78 44 118.5t110 40.5t110 -40.5t44 -118.5v-1164q0 -78 -44 -118.5t-110 -40.5t-110 41t-44 118v447h-643v-447q0 -78 -44 -118.5t-109 -40.5q-66 0 -110 41t-44 118z" />
<glyph unicode="I" horiz-adv-x="491" d="M92 147v1164q0 78 44 118.5t110 40.5t109.5 -40.5t43.5 -118.5v-1164q0 -78 -44 -118.5t-109 -40.5q-66 0 -110 41t-44 118z" />
<glyph unicode="J" horiz-adv-x="833" d="M-29 209q0 20 8.5 42.5t23.5 41t36.5 30t46.5 11.5q31 0 60.5 -12.5t59.5 -25.5t60.5 -25.5t65.5 -12.5q43 0 66.5 17.5t33.5 44t12 56.5t2 54v881q0 78 44.5 118.5t109.5 40.5q66 0 110 -40.5t44 -118.5v-901q0 -129 -37 -213t-95.5 -133.5t-131 -69t-142.5 -19.5 q-53 0 -118.5 11.5t-123 39t-96.5 71.5t-39 112z" />
<glyph unicode="K" horiz-adv-x="1251" d="M92 135v1184q0 63 42 107t112 44q66 0 109.5 -39.5t43.5 -111.5v-442l504 536q16 18 46 37.5t73 19.5q59 0 105.5 -40.5t46.5 -106.5q0 -41 -25 -77t-76 -87l-387 -381l473 -493q37 -39 61.5 -74t24.5 -82q0 -72 -48 -106.5t-112 -34.5q-45 0 -78.5 24.5t-76.5 71.5 l-531 573v-522q0 -59 -42 -103t-111 -44q-66 0 -110 40t-44 107z" />
<glyph unicode="L" horiz-adv-x="872" d="M92 168v1143q0 78 44 118.5t110 40.5t109.5 -40.5t43.5 -118.5v-1028h365q39 0 67.5 -13.5t47 -35t26.5 -47t6 -52.5q-2 -51 -41 -93t-106 -42h-512q-76 0 -118 45t-42 123z" />
<glyph unicode="M" horiz-adv-x="1781" d="M49 135v16.5t2 18.5l191 1143q4 27 21.5 55.5t43 51t60 36.5t75.5 14q78 0 133.5 -46t71.5 -101l242 -811h4l242 811q16 55 71.5 101t132.5 46q41 0 76 -14t60.5 -36.5t43 -51.5t21.5 -55l191 -1143q2 -10 2 -18.5v-16.5q0 -68 -43 -107.5t-105 -39.5q-78 0 -113.5 35.5 t-46.5 107.5l-120 834h-5l-245 -859q-6 -18 -16.5 -38.5t-30 -39t-48 -29.5t-69.5 -11t-69.5 11t-48 29.5t-30 39t-16.5 38.5l-246 859h-4l-121 -834q-10 -72 -46 -107.5t-113 -35.5q-61 0 -104.5 40t-43.5 107z" />
<glyph unicode="N" horiz-adv-x="1402" d="M80 147v1164q0 78 44 118.5t109 40.5q29 0 69 -19t60 -48l650 -866h4v774q0 78 44 118.5t109 40.5q66 0 110 -40.5t44 -118.5v-1164q0 -78 -44 -118.5t-110 -40.5q-29 0 -67.5 19.5t-61.5 47.5l-649 856h-4v-764q0 -78 -44 -118.5t-110 -40.5t-109.5 41t-43.5 118z" />
<glyph unicode="O" horiz-adv-x="1478" d="M35 729q0 160 51 297t144.5 238.5t222.5 160t286 58.5q154 0 284 -59.5t223 -162t145.5 -239.5t52.5 -293q0 -160 -51.5 -297t-143.5 -238.5t-222 -160t-288 -58.5q-156 0 -285.5 58.5t-223 160t-144.5 238.5t-51 297zM354 729q0 -94 23.5 -179t72 -149.5t120 -103.5 t169.5 -39t170 39t120 103.5t71.5 149.5t23.5 179q0 92 -24.5 178t-72.5 150.5t-119.5 103.5t-168.5 39q-96 0 -167.5 -39t-120 -103.5t-73 -150.5t-24.5 -178z" />
<glyph unicode="P" horiz-adv-x="1138" d="M92 147v1151q0 72 41 116t119 44h362q113 0 209.5 -34.5t166 -99t109.5 -155t40 -200.5q0 -113 -41 -203t-110.5 -152.5t-163 -96.5t-197.5 -34h-228v-336q0 -78 -44 -118.5t-109 -40.5q-66 0 -110 41t-44 118zM399 754h209q98 0 154.5 62.5t56.5 154.5t-56 154.5 t-155 62.5h-209v-434z" />
<glyph unicode="Q" horiz-adv-x="1478" d="M35 729q0 160 51 297t144.5 238.5t222.5 160t286 58.5q154 0 284 -59.5t223 -162t145.5 -239.5t52.5 -293q0 -135 -35 -255t-102 -218l116 -100q29 -27 50.5 -54.5t21.5 -70.5q0 -27 -12.5 -50.5t-32.5 -41t-45 -27.5t-51 -10q-35 0 -66 15t-71 50l-117 99 q-76 -43 -166 -67t-195 -24q-156 0 -285.5 58.5t-223 160t-144.5 238.5t-51 297zM354 729q0 -94 23.5 -179t72 -149.5t120 -103.5t169.5 -39q35 0 68 4t63 10l-73 72q-16 16 -27.5 37.5t-11.5 44.5q0 59 38 103t101 44q45 0 78 -26l100 -80q27 59 38 124.5t11 137.5 q0 92 -24.5 177t-72.5 150.5t-119.5 104.5t-168.5 39q-96 0 -167.5 -39t-120 -103.5t-73 -150.5t-24.5 -178z" />
<glyph unicode="R" horiz-adv-x="1138" d="M92 147v1151q0 74 40 117t118 43h360q119 0 213.5 -26.5t160 -84t101 -144.5t35.5 -208q0 -84 -29.5 -150.5t-81 -114.5t-121 -78.5t-147.5 -43.5l349 -372q40 -42 40 -89q0 -33 -11 -60.5t-31.5 -50t-49 -35.5t-61.5 -13q-29 0 -61.5 12t-57.5 41l-455 551h-4v-445 q0 -78 -44 -118.5t-109 -40.5q-66 0 -110 41t-44 118zM399 813h211q86 0 138.5 48t52.5 134q0 88 -52.5 134.5t-138.5 46.5h-211v-363z" />
<glyph unicode="S" horiz-adv-x="1099" d="M39 205q0 59 37 102t100 43q37 0 76 -12t82 -27.5t90 -28t96 -12.5q102 0 155.5 50.5t53.5 125.5q0 59 -50 93t-127 58t-165 48.5t-165 67.5t-127 114.5t-50 190.5q0 106 41 193t110.5 146.5t162 92.5t194.5 33q43 0 110.5 -9.5t132 -33t111.5 -62.5t47 -100 q0 -59 -36.5 -105.5t-100.5 -46.5q-31 0 -60.5 9.5t-61 21.5t-68.5 21.5t-82 9.5q-66 0 -117 -34t-51 -99q0 -53 50 -82t127 -51.5t165 -50t165 -77t127 -131t50 -212.5q0 -111 -42 -199t-113.5 -149.5t-167 -94.5t-201.5 -33q-59 0 -144.5 9.5t-164 34t-134 69.5t-55.5 117 z" />
<glyph unicode="T" horiz-adv-x="983" d="M-25 1317q0 53 37 97t103 44h753q66 0 103 -44t37 -97t-33 -97t-107 -44h-223v-1029q0 -78 -44 -118.5t-109 -40.5q-66 0 -110 41t-44 118v1029h-223q-74 0 -107 44t-33 97z" />
<glyph unicode="U" horiz-adv-x="1402" d="M80 580v731q0 78 44 118.5t109 40.5q66 0 110 -40.5t44 -118.5v-715q0 -72 21.5 -133.5t62.5 -106.5t99.5 -71.5t131.5 -26.5q70 0 127.5 27.5t99.5 74t64.5 107.5t22.5 129v715q0 78 44 118.5t109 40.5q66 0 110 -40.5t44 -118.5v-731q0 -129 -49 -240t-134 -191.5 t-198 -127t-240 -46.5q-129 0 -241.5 45.5t-197.5 126t-134 191.5t-49 242z" />
<glyph unicode="V" horiz-adv-x="1212" d="M-8 1323q0 66 48 106.5t110 40.5q53 0 85.5 -29.5t53.5 -70.5l317 -852l318 852q20 41 53 70.5t86 29.5q61 0 109.5 -40.5t48.5 -106.5q0 -39 -15 -76l-448 -1141q-20 -49 -52 -83.5t-100 -34.5t-99.5 34.5t-51.5 83.5l-449 1141q-14 37 -14 76z" />
<glyph unicode="W" horiz-adv-x="1859" d="M16 1335q0 49 39 92t107 43q74 0 111.5 -39.5t52.5 -107.5l174 -870h4l266 897q16 55 59 87.5t101 32.5q57 0 100 -32.5t60 -87.5l266 -897h4l174 870q14 68 52 107.5t112 39.5q68 0 106.5 -43t38.5 -92q0 -23 -2 -36t-6 -33l-260 -1119q-16 -66 -66.5 -112.5 t-136.5 -46.5q-76 0 -130 43t-73 106l-237 791h-4l-238 -791q-18 -63 -72.5 -106t-130.5 -43q-86 0 -136 47t-66 112l-260 1119q-4 20 -6.5 33.5t-2.5 35.5z" />
<glyph unicode="X" horiz-adv-x="1253" d="M8 131q0 33 11.5 60.5t23.5 44.5l406 544l-332 451q-33 43 -33 90q0 68 45 108.5t111 40.5q39 0 74.5 -22.5t58.5 -52.5l254 -361l254 361q23 31 58.5 53t74.5 22q66 0 110.5 -40.5t44.5 -108.5q0 -47 -32 -90l-332 -451l405 -544q12 -16 23.5 -44t11.5 -61 q0 -66 -44 -104.5t-111 -38.5q-78 0 -127 67l-336 467l-336 -467q-48 -67 -125 -67h-2q-68 0 -112 39t-44 104z" />
<glyph unicode="Y" horiz-adv-x="1097" d="M20.5 1426q40.5 44 106.5 44q84 0 127 -61l295 -428l295 428q43 61 127 61q66 0 106.5 -44t40.5 -105q0 -51 -28 -92l-388 -545v-547q0 -57 -35.5 -103t-117.5 -46t-118 46t-36 103v547l-387 545q-28 40 -28 89q0 64 40.5 108z" />
<glyph unicode="Z" horiz-adv-x="1214" d="M45 147q0 61 41 119l659 922h-538q-61 0 -102.5 33.5t-41.5 97.5q0 59 42 99t102 40h749q90 0 131 -47t41 -100q0 -35 -12 -70t-33 -61l-655 -910h594q66 0 106.5 -34.5t40.5 -100.5q0 -59 -46 -97t-101 -38h-805q-82 0 -127 41t-45 106z" />
<glyph unicode="[" horiz-adv-x="569" d="M90 -168v1503q0 68 41 108t109 40h204q45 0 77 -26.5t32 -90.5q0 -63 -32 -90t-77 -27h-96v-1331h96q45 0 77 -26.5t32 -90.5q0 -63 -32 -89.5t-77 -26.5h-204q-68 0 -109 39.5t-41 107.5z" />
<glyph unicode="\" horiz-adv-x="833" d="M16 1370q0 47 35 80t86 33q49 0 75 -20.5t40 -55.5l547 -1262q18 -43 18 -57q0 -47 -36 -80t-87 -33q-49 0 -73.5 20.5t-38.5 55.5l-549 1262q-10 23 -13.5 38t-3.5 19z" />
<glyph unicode="]" horiz-adv-x="569" d="M16 -199q0 63 32 90t77 27h96v1331h-96q-45 0 -77 27t-32 90t32 90t77 27h205q68 0 108.5 -40t40.5 -108v-1503q0 -68 -41 -107.5t-108 -39.5h-205q-45 0 -77 26.5t-32 89.5z" />
<glyph unicode="^" horiz-adv-x="1228" d="M150 727q0 33 26 82l330 600q18 35 48 48t60 13q31 0 61 -13t48 -48l330 -600q27 -49 26 -82q0 -41 -30.5 -61.5t-73.5 -20.5q-37 0 -61.5 9.5t-43.5 35.5l-256 473l-256 -473q-18 -27 -42.5 -36t-61.5 -9q-43 0 -73.5 20.5t-30.5 61.5z" />
<glyph unicode="_" horiz-adv-x="1024" d="M-59 -205q0 25 17 38t42 13h1024q25 0 42 -13t17 -38t-17 -38t-42 -13h-1024q-25 0 -42 13.5t-17 37.5z" />
<glyph unicode="`" horiz-adv-x="454" d="M-25 1456q0 20 8.5 43t24 41.5t35.5 30.5t43 12q16 0 35.5 -5t42.5 -15l242 -99l16 -8q27 -14 42 -36.5t15 -45.5q0 -27 -8 -53.5t-22.5 -48t-35 -34.5t-42.5 -13h-22.5t-12.5 2t-15.5 6t-31.5 12l-230 90q-84 33 -84 121z" />
<glyph unicode="a" d="M41 543q0 121 38 225t104.5 181t154.5 121t190 44q82 0 157 -32.5t124 -102.5q6 53 47 88t94 35t82 -19.5t42 -48t15.5 -62.5t2.5 -63v-729q0 -29 -2.5 -62.5t-15.5 -62t-41.5 -48t-82.5 -19.5q-66 0 -95.5 32.5t-45.5 92.5q-115 -137 -281 -138q-104 0 -193 42 t-154.5 117t-102.5 179.5t-37 229.5zM336 543q0 -53 14.5 -106.5t43 -95.5t72.5 -68.5t103 -26.5q57 0 100.5 26.5t71 68.5t42 95t14.5 107q0 53 -13.5 106t-42 96t-71.5 71t-101 28q-61 0 -105 -28t-73 -71t-42 -96t-13 -106z" />
<glyph unicode="b" d="M84 152v1261q0 74 41 119t106 45q66 0 107 -45t41 -119v-401q59 51 131 76.5t149 25.5q119 0 208 -51t148.5 -133t89.5 -187.5t30 -212.5q0 -104 -34 -203.5t-97.5 -178t-153.5 -126t-201 -47.5q-76 0 -152.5 34t-117.5 102q-14 -59 -50 -91t-98 -32q-66 0 -106.5 45 t-40.5 119zM379 553q0 -53 13.5 -108.5t42 -99.5t71.5 -71.5t104 -27.5q57 0 100.5 26.5t72 69.5t43 96.5t14.5 104.5t-14.5 105t-43 97t-71.5 71t-101 28q-59 0 -102 -25.5t-71.5 -66.5t-43 -93.5t-14.5 -105.5z" />
<glyph unicode="c" horiz-adv-x="948" d="M41 543q0 113 39 216t108.5 182t167 126t213.5 47q43 0 105.5 -9t119 -30.5t96.5 -57.5t40 -89q0 -23 -8.5 -48.5t-22.5 -46t-34.5 -34t-47.5 -13.5q-29 0 -55.5 9.5t-54 19.5t-58.5 19.5t-65 9.5q-63 0 -109.5 -25.5t-77 -67.5t-46 -96.5t-15.5 -111.5 q0 -55 16.5 -108.5t48 -95.5t77.5 -67.5t106 -25.5q27 0 60.5 9t64 21.5t56.5 21.5t38 9q53 0 90 -38t37 -91q0 -57 -41 -96t-99.5 -62.5t-120 -34t-100.5 -10.5q-119 0 -216 45.5t-166.5 123t-107.5 181t-38 218.5z" />
<glyph unicode="d" d="M41 530q0 106 29.5 212t89 188t148.5 133t208 51q78 0 149.5 -25.5t131.5 -76.5v401q0 74 41 119t106 45q66 0 107 -45t41 -119v-1261q0 -74 -41 -119t-107 -45q-61 0 -97 31.5t-50 91.5q-41 -68 -118 -102t-153 -34q-111 0 -200.5 47.5t-153 126t-97.5 178t-34 203.5z M336 543q0 -51 14.5 -104.5t43 -96.5t71.5 -69.5t100 -26.5q61 0 104.5 27.5t72 71.5t42 99.5t13.5 108.5t-14.5 105.5t-43 93.5t-71.5 66.5t-103 25.5q-57 0 -100 -28t-71.5 -71t-43 -97t-14.5 -105z" />
<glyph unicode="e" horiz-adv-x="1099" d="M20 543q0 113 39 216t109 182t167 126t214 47q119 0 217 -49t168 -127t107.5 -173t37.5 -187q0 -66 -30.5 -99t-98.5 -33h-628q16 -111 95 -162t183 -51q57 0 105.5 18.5t89.5 41t75.5 41t63.5 18.5q47 0 84 -40t37 -87t-44 -92t-114 -80t-156 -56.5t-168 -21.5 q-125 0 -226 43t-174 119t-113 179.5t-40 226.5zM315 643h469q-12 98 -71.5 161.5t-163.5 63.5q-98 0 -160.5 -65.5t-73.5 -159.5z" />
<glyph unicode="f" horiz-adv-x="606" d="M-43 961q0 55 37 92t92 37h66v151q0 164 87 250t222 86q39 0 75.5 -6t65.5 -21.5t46.5 -41t17.5 -64.5q0 -125 -121 -125q-18 0 -35.5 -2t-32 -12.5t-23 -32t-8.5 -62.5v-120h93q66 0 107.5 -29t41.5 -100q0 -70 -42 -100t-107 -30h-93v-679q0 -74 -40.5 -119t-106.5 -45 t-106.5 45t-40.5 119v679h-66q-59 0 -94 35t-35 95z" />
<glyph unicode="g" d="M41 541q0 111 34 214t97.5 183t153.5 128t200 48q76 0 153 -33.5t118 -101.5q14 59 50 91t97 32q66 0 107 -45t41 -119v-852q0 -133 -41 -232.5t-117 -166t-180.5 -100t-229.5 -33.5q-45 0 -123.5 12t-154.5 37.5t-131.5 67.5t-55.5 104q0 20 10.5 42.5t28 42t38 32 t42.5 12.5q35 0 73 -14.5t83 -32t97 -31.5t116 -14q109 0 179.5 60t70.5 173v70h-4q-94 -139 -297 -140q-117 0 -202 47.5t-141.5 126t-84 180t-27.5 212.5zM336 547q0 -59 14.5 -113.5t43 -96.5t71.5 -66.5t100 -24.5q59 0 102.5 25.5t72 66.5t43 93.5t14.5 105.5 t-13.5 108t-42 99t-71.5 72t-105 28q-57 0 -100 -26.5t-71.5 -69.5t-43 -96.5t-14.5 -104.5z" />
<glyph unicode="h" horiz-adv-x="1138" d="M84 152v1261q0 74 41 119t106 45q66 0 107 -45t41 -119v-401h4q47 57 123 79.5t145 22.5q86 0 161 -26.5t128 -78t84 -125t31 -167.5v-565q0 -74 -41 -119t-107 -45t-106.5 45t-40.5 119v514q0 104 -56.5 153t-136.5 49q-92 0 -140 -58t-48 -144v-514q0 -74 -41 -119 t-107 -45t-106.5 45t-40.5 119z" />
<glyph unicode="i" horiz-adv-x="454" d="M61 1382q0 31 13.5 61t37 52.5t53 35.5t62.5 13t62.5 -13t53.5 -35.5t37 -51.5t13 -62q0 -70 -48 -120t-118 -50q-33 0 -62.5 14.5t-53 37t-37 53.5t-13.5 65zM80 152v786q0 74 41 119t106 45q66 0 107 -45t41 -119v-786q0 -74 -41 -119t-107 -45t-106.5 45t-40.5 119z " />
<glyph unicode="j" horiz-adv-x="573" d="M-309 -162q0 20 8 43t23.5 41.5t37 29.5t45.5 11q31 0 61 -12t59.5 -25.5t60 -26t65.5 -12.5q43 0 66.5 17.5t34 44t12.5 56.5t2 54v881q0 78 44 119t109 41q66 0 110 -41t44 -119v-901q0 -129 -37 -213t-95 -133t-131 -68.5t-142 -19.5q-53 0 -119 11t-123 39t-96 72 t-39 111zM152 1382q0 31 13 61t36.5 52.5t53 35.5t62.5 13t63 -13t53.5 -35.5t36.5 -51.5t13 -62q0 -70 -48 -120t-118 -50q-33 0 -62.5 14.5t-53 37t-36.5 53.5t-13 65z" />
<glyph unicode="k" horiz-adv-x="1024" d="M84 152v1261q0 74 41 119t106 45q66 0 107 -45t41 -119v-688l323 313q35 35 70 49.5t64 14.5q55 0 90 -42t35 -91q0 -33 -12.5 -60.5t-45.5 -56.5l-262 -234l346 -405q20 -23 28.5 -48.5t8.5 -49.5q0 -59 -40 -99.5t-99 -40.5q-41 0 -74 24t-68 67l-360 444h-4v-358 q0 -74 -41 -119t-107 -45t-106.5 45t-40.5 119z" />
<glyph unicode="l" horiz-adv-x="454" d="M80 152v1261q0 74 41 119t106 45q66 0 107 -45t41 -119v-1261q0 -74 -41 -119t-107 -45t-106.5 45t-40.5 119z" />
<glyph unicode="m" horiz-adv-x="1744" d="M84 152v786q0 74 41 119t106 45q57 0 92 -29t44 -82q53 59 122.5 91t151.5 32q186 0 305 -149q61 72 148.5 110.5t162.5 38.5q180 0 292 -101.5t112 -295.5v-565q0 -74 -41 -119t-107 -45t-106.5 45t-40.5 119v514q0 90 -46 146t-126 56q-82 0 -128 -56t-46 -146v-514 q0 -74 -41 -119t-107 -45t-106.5 45t-40.5 119v514q0 90 -46 146t-126 56q-92 0 -133 -56t-41 -146v-514q0 -74 -41 -119t-107 -45t-106.5 45t-40.5 119z" />
<glyph unicode="n" horiz-adv-x="1138" d="M84 152v786q0 74 41 119t106 45q57 0 92 -29t44 -80q43 59 111.5 90t172.5 31q86 0 161 -26.5t128 -78t84 -125t31 -167.5v-565q0 -74 -41 -119t-107 -45t-106.5 45t-40.5 119v514q0 104 -56.5 153t-136.5 49q-92 0 -140 -58t-48 -144v-514q0 -74 -41 -119t-107 -45 t-106.5 45t-40.5 119z" />
<glyph unicode="o" horiz-adv-x="1138" d="M41 543q0 113 39 216t108.5 182t166.5 126t214 47t214.5 -47t167 -126t108.5 -182.5t39 -215.5q0 -115 -38 -218.5t-107.5 -181t-167 -123t-216.5 -45.5t-216 45.5t-166.5 123t-107.5 181t-38 218.5zM336 543q0 -53 14.5 -106.5t43 -95.5t72.5 -68.5t103 -26.5 t103.5 26.5t73 68.5t43 95t14.5 107q0 53 -13.5 106t-42 96t-73 71t-105.5 28t-105 -28t-73 -71t-42 -96t-13 -106z" />
<glyph unicode="p" d="M84 -283v1221q0 74 41 119t106 45q61 0 97.5 -32t50.5 -91q41 68 118.5 101.5t161.5 33.5q119 0 208 -51t148.5 -133t89.5 -187.5t30 -212.5q0 -104 -34 -203.5t-97.5 -178t-153.5 -126t-201 -47.5q-70 0 -140.5 26t-129.5 77v-361q0 -74 -41 -118.5t-107 -44.5 t-106.5 45t-40.5 118zM379 553q0 -53 13.5 -108.5t42 -99.5t71.5 -71.5t104 -27.5q57 0 100.5 26.5t72 69.5t43 96.5t14.5 104.5t-14.5 105t-43 97t-71.5 71t-101 28q-59 0 -102 -25.5t-71.5 -66.5t-43 -93.5t-14.5 -105.5z" />
<glyph unicode="q" d="M41 530q0 106 29.5 212t89 188t148.5 133t208 51q84 0 162 -33.5t119 -101.5q14 59 50 91t97 32q66 0 107 -17.5t41 -91.5v-1065q8 6 14 12.5t12 12.5q29 27 71 31q11 1 21 1q27 0 43 -8q51 -18 78 -70q16 -31 16 -62q0 -22 -8 -44q-8 -20 -22 -35.5t-31 -31.5l-266 -230 q-31 -27 -71 -30.5t-62 4.5q-35 12 -58.5 40.5t-31.5 63.5v160v336q-59 -51 -130 -77t-141 -26q-111 0 -200.5 47.5t-153 126t-97.5 178t-34 203.5zM336 543q0 -51 14.5 -104.5t43 -96.5t71.5 -69.5t100 -26.5q61 0 104.5 27.5t72 71.5t42 99.5t13.5 108.5t-14.5 105.5 t-43 93.5t-71.5 66.5t-103 25.5q-57 0 -100 -28t-71.5 -71t-43 -97t-14.5 -105z" />
<glyph unicode="r" horiz-adv-x="681" d="M80 152v802q0 74 48 111t103 37q59 0 101.5 -25.5t42.5 -97.5h4q41 61 89 92t118 31q53 0 98 -39t45 -119q0 -37 -15.5 -57.5t-40 -34.5t-56 -25.5t-64.5 -25.5q-33 -16 -64.5 -31.5t-57 -38t-41 -53.5t-15.5 -74v-452q0 -74 -41 -119t-107 -45t-106.5 45t-40.5 119z" />
<glyph unicode="s" horiz-adv-x="872" d="M20 203q0 16 8.5 38.5t25 43t40 35t53.5 14.5q43 0 77 -15.5t67 -35t70.5 -35t91.5 -15.5q68 0 92 21.5t24 62.5q0 33 -37.5 56.5t-95 46t-123 48.5t-123 64.5t-95.5 96t-38 141.5q0 76 30 139.5t83 109.5t126 70.5t161 24.5q55 0 119.5 -13.5t120 -39t92 -65.5t36.5 -95 q0 -51 -33.5 -91t-86.5 -40q-20 0 -51 13.5t-66 29.5t-73 29.5t-75 13.5q-41 0 -70.5 -19.5t-29.5 -62.5q0 -35 38 -58.5t95 -46t123 -48t123 -64.5t95 -95t38 -140q0 -74 -29.5 -137.5t-85 -109.5t-133.5 -73t-172 -27q-61 0 -134 16.5t-134.5 47.5t-102.5 73t-41 91z" />
<glyph unicode="t" horiz-adv-x="606" d="M-39 961q0 55 37 92t92 37h66v176q0 74 41 119t106 45q66 0 107 -45.5t41 -118.5v-176h84q57 0 99 -29t42 -100q0 -70 -42 -100t-99 -30h-84v-458q0 -43 13 -68.5t32.5 -38t42 -12.5t41.5 10q12 6 35.5 4t48 -14t43 -36.5t18.5 -67.5q0 -74 -35 -109t-84 -46 q-41 -9 -85 -9h-16q-52 2 -85 2q-39 0 -85 9t-86 47t-66.5 116t-26.5 217v454h-66q-59 0 -94 35t-35 95z" />
<glyph unicode="u" horiz-adv-x="1138" d="M84 406v532q0 74 41 119t106 45q66 0 107 -45t41 -119v-526q0 -92 58.5 -141.5t131.5 -49.5q74 0 132.5 49t58.5 142v526q0 74 41 119t106 45q66 0 107 -45t41 -119v-532q0 -199 -125 -315t-361 -116t-360.5 116t-124.5 315z" />
<glyph unicode="v" horiz-adv-x="946" d="M-2 958q0 72 47 108t107 36q61 0 90.5 -35t40.5 -70l188 -581h4l189 581q10 35 39.5 70t91.5 35q59 0 106 -36t47 -108q0 -20 -4 -38.5t-14 -47.5l-297 -761q-23 -57 -53.5 -90t-106.5 -33t-106.5 32.5t-53.5 90.5l-297 761q-10 29 -14 47.5t-4 38.5z" />
<glyph unicode="w" horiz-adv-x="1593" d="M14 983q0 49 41 84t107 35q53 0 88 -33t51 -84l170 -563h4l172 551q18 59 51 94t99 35t98.5 -35t50.5 -94l172 -551h4l170 563q16 51 51 84t89 33q66 0 106.5 -38t40.5 -106q0 -25 -8 -50t-21 -60l-252 -711q-23 -66 -64.5 -107.5t-113.5 -41.5q-68 0 -108.5 35.5 t-61.5 101.5l-151 475h-4l-152 -475q-20 -66 -61 -101.5t-109 -35.5q-72 0 -114 42t-64 107l-250 707q-16 45 -23.5 75.5t-7.5 63.5z" />
<glyph unicode="x" horiz-adv-x="1024" d="M0 131q0 25 12.5 53.5t28.5 46.5l299 340l-250 281q-18 23 -31.5 50.5t-13.5 55.5q0 59 47 101.5t105 42.5q35 0 60.5 -14.5t47.5 -43.5l207 -258l207 258q23 29 48.5 43.5t59.5 14.5q57 0 104.5 -42t47.5 -102q0 -29 -13.5 -56.5t-31.5 -49.5l-250 -281l299 -340 q16 -18 28.5 -46.5t12.5 -53.5q0 -66 -40 -104.5t-105 -38.5q-49 0 -75 18.5t-48 46.5l-244 299l-244 -299q-23 -29 -48 -47t-75 -18q-66 0 -105.5 39t-39.5 104z" />
<glyph unicode="y" horiz-adv-x="985" d="M-4 975q0 27 13.5 50.5t33.5 40.5t45 26.5t47 9.5q53 0 91 -27.5t57 -77.5l202 -555l217 555q18 49 56.5 77t91.5 28q23 0 47.5 -9.5t45 -26.5t33.5 -41t13 -50q0 -45 -14 -76l-494 -1229q-18 -47 -52 -81.5t-87 -34.5q-76 0 -115 39.5t-39 87.5q0 23 5.5 44t13.5 42 l129 319l-326 813q-6 16 -10 34.5t-4 41.5z" />
<glyph unicode="z" horiz-adv-x="985" d="M23 100q0 25 9 46.5t17 33.5l463 651h-342q-55 0 -94 34t-39 96q0 61 39 95t94 34h670q10 0 26.5 -3.5t31.5 -13.5t26.5 -27.5t11.5 -48.5q0 -29 -7 -47t-24 -41l-465 -651h389q55 0 94.5 -34t39.5 -95t-39 -95t-95 -34h-686q-49 0 -84.5 24.5t-35.5 75.5z" />
<glyph unicode="{" horiz-adv-x="681" d="M-20 584q0 37 23.5 67.5t74.5 30.5q18 0 36.5 4t32 17.5t21.5 40t8 73.5v397q0 141 68.5 205t204.5 64h126q41 0 67 -22.5t26 -69.5t-26 -70t-67 -23h-51q-43 0 -66.5 -27.5t-23.5 -90.5v-387q0 -70 -24.5 -110t-59.5 -61.5t-72.5 -27.5t-64.5 -8v-4q27 -2 64.5 -8.5 t72.5 -28t59.5 -61.5t24.5 -109v-387q0 -63 23.5 -91t66.5 -28h51q41 0 67 -22.5t26 -69.5t-26 -69.5t-67 -22.5h-126q-135 0 -204 63.5t-69 204.5v397q0 45 -8 73t-21.5 41t-32 17t-36.5 4q-51 0 -74.5 31t-23.5 68z" />
<glyph unicode="|" horiz-adv-x="454" d="M104 -512v2048q0 55 33 89t90 34t90 -34t33 -89v-2048q0 -55 -32.5 -89t-90.5 -34q-57 0 -90 34t-33 89z" />
<glyph unicode="}" horiz-adv-x="681" d="M14 -223q0 47 26 69.5t66 22.5h52q43 0 66.5 27.5t23.5 91.5v387q0 70 24.5 109.5t59.5 61t72.5 28t64.5 8.5v4q-27 2 -64.5 8t-72.5 27.5t-59.5 61.5t-24.5 110v387q0 63 -23.5 90.5t-66.5 27.5h-52q-41 0 -66.5 22.5t-25.5 70.5q0 47 26 69.5t66 22.5h127 q135 0 204 -63.5t69 -205.5v-397q0 -47 8 -73.5t21.5 -40t32 -17.5t36.5 -4q51 0 74.5 -30.5t23.5 -67.5t-23.5 -68t-74.5 -31q-18 0 -36.5 -4t-32 -17t-21.5 -41t-8 -73v-397q0 -141 -68.5 -204.5t-204.5 -63.5h-127q-41 0 -66.5 22.5t-25.5 69.5z" />
<glyph unicode="~" horiz-adv-x="1228" d="M84 440q0 47 20.5 95.5t60.5 87.5t98.5 63.5t131.5 24.5q57 0 117.5 -21.5t118 -48.5t108.5 -48.5t90 -21.5q43 0 72 19.5t52.5 43t47 43t56.5 19.5q49 0 68.5 -31.5t19.5 -68.5q0 -47 -20.5 -95t-60.5 -87t-98.5 -63.5t-131.5 -24.5q-57 0 -118 21.5t-118 48t-108.5 48 t-90.5 21.5q-43 0 -71.5 -19.5t-52 -43t-47 -43t-56.5 -19.5q-49 0 -68.5 31.5t-19.5 68.5z" />
<glyph unicode="&#xa1;" horiz-adv-x="684" d="M182 954q0 66 47 113t113 47t113 -47t47 -113t-47 -112.5t-113 -46.5t-113 47t-47 112zM195 -254v789q0 66 42 102.5t105 36.5q61 0 104 -38t43 -101v-789q0 -63 -43 -101t-104 -38q-63 0 -105 37t-42 102z" />
<glyph unicode="&#xa2;" horiz-adv-x="948" d="M41 551q0 104 31.5 198.5t90 168t140.5 123t184 65.5v57q0 41 7.5 69t48.5 28t48 -28t7 -69v-49q43 0 99.5 -10t108.5 -32.5t88 -57.5t36 -86q0 -25 -8.5 -50.5t-22.5 -47t-34.5 -35t-47.5 -13.5t-51.5 8.5t-51 19.5t-55 20.5t-61.5 11.5v-596q27 2 58.5 12t59 20.5 t51.5 19.5t36 9q53 0 90 -38t37 -91t-35 -91t-86 -62.5t-108.5 -36t-102.5 -13.5v-47q0 -35 -7 -65.5t-48 -30.5t-48.5 31t-7.5 65v56q-106 14 -189 63t-140.5 125t-87 172t-29.5 207zM336 543q0 -86 39 -163t112 -110v551q-78 -33 -114.5 -110.5t-36.5 -167.5z" />
<glyph unicode="&#xa3;" horiz-adv-x="1251" d="M33 727q0 66 41 103.5t106 37.5h43q-10 18 -19 47t-17.5 60t-12.5 59.5t-4 50.5q0 92 41 165t111.5 125t165 80t198.5 28q106 0 201.5 -26.5t165 -75t110.5 -113t41 -140.5q0 -72 -45 -113.5t-115 -41.5q-53 0 -82.5 33.5t-62.5 73.5t-77 74t-124 34q-39 0 -73.5 -10.5 t-62 -31t-44 -49t-16.5 -67.5q0 -63 26 -108l31 -54h311q66 0 107 -37.5t41 -103.5t-41 -103.5t-107 -37.5h-264q0 -84 -27.5 -160t-76.5 -143h569q66 0 107 -38t41 -104t-41 -103.5t-107 -37.5h-803q-76 0 -117.5 43t-41.5 117q0 31 27.5 65.5t61 82.5t61.5 114.5t28 163.5 h-107q-66 0 -106.5 38t-40.5 103z" />
<glyph unicode="&#xa4;" horiz-adv-x="1228" d="M53 279q0 16 11.5 28t17.5 19l119 118q-45 51 -70 125t-25 160t24 164t71 125l-119 119q-6 6 -15.5 18t-13.5 29q0 16 3 33.5t22 39.5q14 18 33.5 25.5t35.5 7.5q35 0 60 -24l117 -117q49 41 128.5 65.5t161.5 24.5t162 -24.5t129 -65.5l117 117q25 25 59 24q16 0 36 -7 t34 -26q16 -23 20.5 -40t4.5 -33t-11.5 -28.5t-17.5 -18.5l-119 -119q47 -47 70.5 -125t23.5 -164t-24.5 -159.5t-69.5 -125.5l119 -118q6 -6 17.5 -18.5t11.5 -28.5t-4.5 -34t-20.5 -40q-14 -18 -33.5 -25.5t-36.5 -7.5q-39 0 -59 25l-117 120q-49 -45 -127 -69.5 t-164 -24.5t-163.5 24.5t-126.5 69.5l-117 -120q-23 -25 -60 -25q-16 0 -35.5 7t-33.5 26q-16 23 -20.5 40t-4.5 34zM352 729q0 -59 19.5 -108.5t55.5 -86t84 -57t103 -20.5t103.5 20.5t84.5 57t55.5 86t19.5 108.5t-19.5 109.5t-54.5 87.5t-83.5 58.5t-105.5 21.5 t-105 -21.5t-83 -58.5t-54.5 -87.5t-19.5 -109.5z" />
<glyph unicode="&#xa5;" d="M20 1321q0 61 41 105t107 44q35 0 70.5 -16t56.5 -45l293 -428l293 428q20 29 56 45t71 16q66 0 106.5 -44t40.5 -105q0 -51 -29 -92l-260 -361h166q39 0 68.5 -23.5t29.5 -62.5t-29.5 -62.5t-68.5 -23.5h-291v-139h291q39 0 68.5 -23.5t29.5 -62.5t-29.5 -62.5 t-68.5 -23.5h-291v-248q0 -57 -34.5 -103t-118.5 -46t-119 46t-35 103v248h-291q-39 0 -68.5 23.5t-29.5 62.5t29.5 62.5t68.5 23.5h291v139h-291q-39 0 -68.5 23.5t-29.5 62.5t29.5 62.5t68.5 23.5h166l-260 361q-29 41 -29 92z" />
<glyph unicode="&#xa6;" horiz-adv-x="454" d="M104 236q0 55 33 88.5t90 33.5t90 -33.5t33 -88.5v-472q0 -55 -32.5 -88.5t-90.5 -33.5q-57 0 -90 33.5t-33 88.5v472zM104 788v472q0 55 33 88.5t90 33.5t90 -33.5t33 -88.5v-472q0 -55 -32.5 -88.5t-90.5 -33.5q-57 0 -90 33.5t-33 88.5z" />
<glyph unicode="&#xa7;" d="M41 530q0 119 45 199t137 154q-47 51 -71.5 97t-24.5 118q0 92 36 163.5t97.5 121t142 75t170.5 25.5q66 0 153 -15.5t166 -50.5t133 -93t54 -144q0 -55 -40 -100.5t-97 -45.5q-47 0 -82 28t-70.5 61.5t-77.5 61t-102 27.5q-59 0 -105 -38.5t-46 -102.5q0 -43 28.5 -70.5 t75.5 -49t108.5 -42t127.5 -51.5q63 -29 123.5 -59.5t107.5 -71.5t76 -93t29 -124q0 -66 -14.5 -118t-42 -95t-68.5 -79t-92 -73q41 -53 64.5 -101t23.5 -114q0 -90 -36 -159.5t-96.5 -117.5t-138.5 -73.5t-162 -25.5q-90 0 -181 25.5t-163.5 68.5t-117.5 98t-45 117 q0 68 49 110.5t114 42.5q41 0 71 -29.5t61.5 -66.5t72.5 -66.5t103 -29.5q25 0 51 7t47.5 22.5t36 37t14.5 50.5q0 43 -27.5 73.5t-72.5 55t-103.5 45t-117.5 45.5q-61 25 -119 54.5t-104 72.5t-73.5 102.5t-27.5 140.5zM348 565q0 -51 26.5 -82.5t78.5 -54.5l258 -109 q45 27 74.5 61t29.5 89t-45 92t-106 62l-226 88q-37 -29 -63.5 -64t-26.5 -82z" />
<glyph unicode="&#xa8;" horiz-adv-x="454" d="M-145 1382q0 61 43 104.5t104 43.5t104.5 -43t43.5 -105q0 -61 -43.5 -104t-104.5 -43t-104 43t-43 104zM305 1382q0 61 43 104.5t105 43.5q61 0 104 -43t43 -105q0 -61 -43 -104t-104 -43t-104.5 43t-43.5 104z" />
<glyph unicode="&#xa9;" horiz-adv-x="1638" d="M66 729q0 156 59 293t161.5 239.5t240 162t292.5 59.5q156 0 293 -59.5t239.5 -162t162 -239.5t59.5 -293t-59.5 -293t-162 -239.5t-239.5 -162t-293 -59.5t-293 59.5t-239.5 162t-161.5 239.5t-59 293zM250 729q0 -119 45 -222.5t122 -180t180 -121.5t222 -45t222.5 45 t180 121.5t122 180t45.5 222.5t-45.5 222.5t-122 180t-180 121.5t-222.5 45t-222 -45t-180 -121.5t-122 -180t-45 -222.5zM418 729q0 90 28.5 167t81 134t128 89t169.5 32q80 0 145.5 -25.5t111.5 -62.5t72 -80t26 -76q0 -55 -15.5 -77.5t-66.5 -32.5q-29 0 -46.5 8 t-28.5 20.5t-19.5 28.5t-16.5 35q-8 12 -18.5 25.5t-28.5 25.5t-46 19.5t-69 7.5q-92 0 -139 -63.5t-47 -174.5t47 -174t139 -63q41 0 69 7t46 19t28.5 25.5t18.5 25.5q8 18 16.5 35t19.5 29t28.5 20.5t46.5 8.5q51 -10 66.5 -33t15.5 -78q0 -35 -26 -77t-72 -79 t-111.5 -62.5t-145.5 -25.5q-94 0 -169.5 32t-128 89t-81 134t-28.5 167z" />
<glyph unicode="&#xaa;" horiz-adv-x="763" d="M27 1141q0 74 24.5 136t67.5 108.5t101.5 72t123.5 25.5q53 0 101.5 -19.5t80.5 -60.5q4 33 22.5 56.5t69.5 23.5q57 0 74 -35t17 -76v-481q0 -31 -16.5 -60.5t-74.5 -29.5q-51 0 -69.5 22.5t-22.5 57.5q-29 -29 -71.5 -54.5t-96.5 -25.5q-74 0 -134 25.5t-104 70.5 t-68.5 107.5t-24.5 136.5zM223 1141q0 -33 8.5 -65t26.5 -57.5t46 -41.5t67 -16q37 0 64.5 16t44 41.5t24.5 57.5t8 65t-8 64.5t-24.5 58t-44 43t-64.5 16.5q-39 0 -67 -16.5t-46 -43t-26.5 -58t-8.5 -64.5z" />
<glyph unicode="&#xab;" horiz-adv-x="1024" d="M76 584q0 29 16.5 60.5t32.5 53.5l199 281q31 35 88 35q55 0 86.5 -34t31.5 -79q0 -41 -22 -78l-162 -248l162 -243q14 -20 18 -38t4 -32q0 -53 -33.5 -91t-88.5 -38q-31 0 -58.5 13.5t-44.5 37.5l-211 326q-10 16 -14 35.5t-4 38.5zM494 584q0 29 16 60.5t33 53.5 l198 281q31 35 88 35q55 0 87 -34t32 -79q0 -41 -22 -78l-162 -248l162 -243q14 -20 18 -38t4 -32q0 -53 -33.5 -91t-89.5 -38q-31 0 -58.5 13.5t-43.5 37.5l-211 326q-10 16 -14 35.5t-4 38.5z" />
<glyph unicode="&#xac;" horiz-adv-x="1228" d="M72 748q0 55 32.5 88.5t90.5 33.5h839q57 0 90 -33.5t33 -88.5v-465q0 -55 -32.5 -89t-90.5 -34q-57 0 -90 33.5t-33 89.5v342h-716q-57 0 -90 33.5t-33 89.5z" />
<glyph unicode="&#xad;" horiz-adv-x="796" d="M63 592q0 55 30 93t87 38h436q57 0 87 -38t30 -93q0 -53 -29.5 -90t-87.5 -37h-436q-57 0 -87 37t-30 90z" />
<glyph unicode="&#xae;" horiz-adv-x="1638" d="M66 729q0 156 59 293t161.5 239.5t240 162t292.5 59.5q156 0 293 -59.5t239.5 -162t162 -239.5t59.5 -293t-59.5 -293t-162 -239.5t-239.5 -162t-293 -59.5t-293 59.5t-239.5 162t-161.5 239.5t-59 293zM250 729q0 -119 45 -222.5t122 -180t180 -121.5t222 -45t222.5 45 t180 121.5t122 180t45.5 222.5t-45.5 222.5t-122 180t-180 121.5t-222.5 45t-222 -45t-180 -121.5t-122 -180t-45 -222.5zM516 406v632q0 35 17.5 60.5t76.5 25.5h232q61 0 117.5 -10t97.5 -37.5t65.5 -74t24.5 -117.5q0 -111 -53.5 -166t-151.5 -60l145 -237q12 -20 13 -43 q0 -72 -96 -72q-49 0 -71 31t-42 68l-129 241h-62v-241q0 -43 -19 -71t-73 -28q-53 0 -72.5 24.5t-19.5 74.5zM700 795h154q51 0 80 17t29 73q0 55 -29 73.5t-80 18.5h-154v-182z" />
<glyph unicode="&#xaf;" horiz-adv-x="454" d="M-96 1372q0 59 38 91t95 32h381q57 0 95 -31.5t38 -91.5q0 -59 -37 -91t-96 -32h-381q-59 0 -96 32t-37 91z" />
<glyph unicode="&#xb0;" horiz-adv-x="819" d="M80 1153q0 68 25.5 128t70.5 105.5t105.5 71t128.5 25.5t128 -25.5t105 -71t70.5 -105.5t25.5 -128t-25.5 -128t-70.5 -105.5t-105.5 -71t-127.5 -25.5q-68 0 -128.5 25.5t-105.5 71t-70.5 105.5t-25.5 128zM240 1153q0 -70 50 -120t120 -50t120 50t50 120t-50.5 120 t-119.5 50q-70 0 -120 -50t-50 -120z" />
<glyph unicode="&#xb1;" horiz-adv-x="1228" d="M72 123q0 55 32.5 89t90.5 34h839q57 0 90 -34t33 -89t-32.5 -89t-90.5 -34h-839q-57 0 -90 34t-33 89zM72 684q0 55 32.5 89t90.5 34h297v131q0 55 32.5 89t89.5 34t90 -34t33 -89v-131h297q57 0 90 -34t33 -89t-32.5 -89t-90.5 -34h-297v-131q0 -55 -32.5 -89 t-90.5 -34q-57 0 -89.5 34t-32.5 89v131h-297q-57 0 -90 34t-33 89z" />
<glyph unicode="&#xb2;" horiz-adv-x="763" d="M59 676q0 18 10.5 34.5t20.5 26.5q84 92 171 180.5t159 188.5q18 25 32.5 52.5t14.5 60.5q0 39 -26.5 59t-67.5 20q-59 0 -81 -28.5t-33 -63.5t-28.5 -63.5t-66.5 -28.5q-47 0 -71.5 31t-24.5 84q0 33 20.5 77t60 84t98 66.5t134.5 26.5q61 0 114.5 -17.5t93.5 -51.5 t63.5 -81t23.5 -104q0 -68 -34 -130.5t-79 -117.5t-90 -100t-67 -76h208q41 0 66 -22.5t25 -82.5q0 -59 -25 -81.5t-66 -22.5h-458q-39 0 -68 19.5t-29 60.5z" />
<glyph unicode="&#xb3;" horiz-adv-x="763" d="M53 811q0 35 34 58.5t69 23.5q33 0 50 -19.5t35.5 -43t47 -43t84.5 -19.5q53 0 91 26.5t38 67.5q0 59 -36 79t-77 26q-23 4 -43 8t-35.5 12t-26 23.5t-10.5 42.5q0 49 30 63t65 23q35 8 64.5 24.5t29.5 67.5q0 29 -21.5 48t-68.5 19q-41 0 -64.5 -16t-43 -35.5t-41 -36 t-56.5 -16.5q-41 0 -63.5 27.5t-22.5 62.5q0 45 29.5 81t74.5 62.5t95.5 41t91.5 14.5q53 0 105 -15.5t92 -44t64.5 -70.5t24.5 -93q0 -59 -29.5 -107.5t-82.5 -81.5q72 -31 118 -89t46 -132q0 -70 -30 -120t-78 -83t-108.5 -48t-121.5 -15q-49 0 -105.5 15t-104.5 45 t-79 72t-31 95z" />
<glyph unicode="&#xb4;" horiz-adv-x="454" d="M-25 1374q0 23 15.5 45.5t42.5 36.5l16 8l242 99q23 10 42 15t36 5q23 0 43 -12t35.5 -30.5t23.5 -41t8 -43.5q0 -88 -84 -121l-229 -90q-23 -8 -32 -12t-15 -6t-13.5 -2h-21.5q-23 0 -43.5 13t-34.5 34.5t-22.5 48.5t-8.5 53z" />
<glyph unicode="&#xb5;" horiz-adv-x="1138" d="M84 -283v1221q0 74 41 119t106 45q66 0 107 -45t41 -119v-526q0 -92 58.5 -141.5t131.5 -49.5q74 0 132.5 49t58.5 142v526q0 74 41 119t106 45q66 0 107 -45t41 -119v-786q0 -74 -41 -119t-107 -45t-106.5 37.5t-40.5 103.5h-4q-33 -84 -87.5 -119t-101.5 -35t-101 29 t-83 74h-4v-361q0 -74 -41 -118.5t-107 -44.5t-106.5 45t-40.5 118z" />
<glyph unicode="&#xb6;" horiz-adv-x="1269" d="M31 1094q0 111 39 181.5t106.5 111t159.5 56t199 15.5h520q57 0 90 -33.5t33 -89.5v-1646q0 -55 -33 -89t-90 -34t-90 33.5t-33 89.5v1585h-199v-1585q0 -55 -32.5 -89t-90.5 -34q-57 0 -90 33.5t-33 89.5v1054q-223 0 -339.5 92.5t-116.5 258.5z" />
<glyph unicode="&#xb7;" horiz-adv-x="548" d="M115 575q0 66 46.5 113t112.5 47q33 0 63 -13t51.5 -34.5t33.5 -50.5t12 -62q0 -68 -47 -113.5t-113 -45.5t-112.5 47t-46.5 112z" />
<glyph unicode="&#xb8;" horiz-adv-x="454" d="M90 -344q0 23 13.5 38t35.5 15q16 0 43 -9t56 -11t48 9t19 48q0 41 -21.5 49t-47.5 8q-27 4 -48.5 8.5t-21.5 38.5q0 14 17.5 42t27.5 40l49 68h123l-80 -104q10 0 22.5 3t22.5 3q66 0 110 -41t44 -115q0 -49 -21.5 -86t-54.5 -60.5t-74 -34.5t-78 -11q-23 0 -54.5 3 t-60 14t-49 30.5t-20.5 54.5z" />
<glyph unicode="&#xb9;" horiz-adv-x="491" d="M20 1368q0 47 25 74.5t66 27.5h190q43 0 65.5 -24.5t22.5 -61.5v-710q0 -37 -27.5 -63.5t-76.5 -26.5q-47 0 -76 24.5t-29 65.5v588h-69q-47 0 -69 29.5t-22 76.5z" />
<glyph unicode="&#xba;" horiz-adv-x="739" d="M27 1141q0 68 25.5 129t70.5 109t108.5 76t139.5 28t139 -28t108.5 -76t70 -109.5t24.5 -128.5q0 -70 -24.5 -131.5t-70 -107.5t-109 -73.5t-138.5 -27.5q-78 0 -141.5 27.5t-108.5 73.5t-69.5 107.5t-24.5 131.5zM223 1141q0 -31 9.5 -64t28 -58.5t46 -41.5t64.5 -16 t63.5 16t45 41.5t27.5 58.5t9 64t-8 63.5t-25.5 59t-45 43t-66.5 16.5t-67 -16.5t-46 -43t-26.5 -59.5t-8.5 -63z" />
<glyph unicode="&#xbb;" horiz-adv-x="1024" d="M76 246q0 41 22 78l162 251l-162 240q-14 20 -18 37.5t-4 32.5q0 53 33.5 91t89.5 38q31 0 58.5 -13.5t43.5 -37.5l211 -326q10 -16 14 -35.5t4 -38.5q0 -29 -16 -60.5t-33 -53.5l-198 -281q-31 -35 -88 -35q-55 0 -87 34t-32 79zM494 246q0 41 22 78l162 251l-162 240 q-14 20 -18 37.5t-4 32.5q0 53 33.5 91t88.5 38q31 0 58.5 -13.5t44.5 -37.5l211 -326q10 -16 14 -35.5t4 -38.5q0 -29 -16.5 -60.5t-32.5 -53.5l-199 -281q-31 -35 -88 -35q-55 0 -86.5 34t-31.5 79z" />
<glyph unicode="&#xbc;" horiz-adv-x="1763" d="M74 1368q0 47 24.5 74.5t65.5 27.5h190q43 0 65.5 -24.5t22.5 -61.5v-710q0 -37 -27.5 -63.5t-76.5 -26.5q-47 0 -76 24.5t-29 65.5v588h-69q-47 0 -68.5 29.5t-21.5 76.5zM311 76q0 23 7.5 43t13.5 33l678 1278q20 39 39.5 52t54.5 13q47 0 84 -34t37 -81 q0 -12 -2 -25.5t-15 -35.5l-688 -1288q-23 -33 -39 -50.5t-53 -17.5q-41 0 -79 33t-38 80zM954 254q0 16 6.5 33.5t12.5 27.5l297 500q23 37 54.5 54.5t90.5 17.5q63 0 112.5 -37t49.5 -121v-362h20q39 0 66 -24t27 -73q0 -51 -27 -75.5t-66 -24.5h-20v-92q0 -90 -104 -90 t-105 90v92h-334q-45 0 -62.5 27.5t-17.5 56.5zM1192 367h176v313h-4z" />
<glyph unicode="&#xbd;" horiz-adv-x="1763" d="M74 1368q0 47 24.5 74.5t65.5 27.5h190q43 0 65.5 -24.5t22.5 -61.5v-710q0 -37 -27.5 -63.5t-76.5 -26.5q-47 0 -76 24.5t-29 65.5v588h-69q-47 0 -68.5 29.5t-21.5 76.5zM311 76q0 23 7.5 43t13.5 33l678 1278q20 39 39.5 52t54.5 13q47 0 84 -34t37 -81 q0 -12 -2 -25.5t-15 -35.5l-688 -1288q-23 -33 -39 -50.5t-53 -17.5q-41 0 -79 33t-38 80zM1044 82q0 18 10.5 34.5t20.5 26.5q84 92 171 180.5t159 188.5q18 25 32.5 52.5t14.5 60.5q0 39 -26.5 58t-67.5 19q-59 0 -81 -28.5t-33 -62t-28.5 -62.5t-66.5 -29q-47 0 -71.5 31 t-24.5 84q0 33 20.5 77t60.5 83t98 65.5t134 26.5q61 0 114.5 -17.5t93.5 -50.5t63.5 -80t23.5 -104q0 -68 -34 -130.5t-79 -117.5t-90 -101t-67 -77h202q37 0 67 -32t30 -77q0 -57 -24 -78.5t-60 -21.5h-465q-39 0 -68 19.5t-29 62.5z" />
<glyph unicode="&#xbe;" horiz-adv-x="1763" d="M47 811q0 35 34 58.5t69 23.5q33 0 50 -19.5t35.5 -43t47 -43t84.5 -19.5q53 0 91 26.5t38 67.5q0 59 -36 79t-77 26q-23 4 -43.5 8t-35.5 12t-25.5 23.5t-10.5 42.5q0 49 30 63t64 23q35 8 65 24.5t30 67.5q0 29 -21.5 48t-68.5 19q-41 0 -64.5 -16t-43 -35.5t-41 -36 t-56.5 -16.5q-41 0 -63.5 27.5t-22.5 62.5q0 45 29.5 81t74.5 62.5t95.5 41t91.5 14.5q53 0 105 -15.5t92 -44t64.5 -70.5t24.5 -93q0 -59 -29.5 -107.5t-82.5 -81.5q72 -31 118 -89t46 -132q0 -70 -30 -120t-78 -83t-108.5 -48t-121.5 -15q-49 0 -105.5 15t-104.5 45 t-79 72t-31 95zM467 76q0 23 7 43t13 33l678 1278q20 39 40 52t55 13q47 0 83.5 -34t36.5 -81q0 -12 -2 -25.5t-14 -35.5l-688 -1288q-23 -33 -39 -50.5t-53 -17.5q-41 0 -79 33t-38 80zM981 254q0 16 6 33.5t12 27.5l297 500q23 37 54.5 54.5t91.5 17.5q63 0 112.5 -37 t49.5 -121v-362h20q39 0 65.5 -24t26.5 -73q0 -51 -26.5 -75.5t-65.5 -24.5h-20v-92q0 -90 -105 -90q-104 0 -104 90v92h-334q-45 0 -62.5 27.5t-17.5 56.5zM1219 367h176v313h-4z" />
<glyph unicode="&#xbf;" horiz-adv-x="985" d="M35 45q0 86 25.5 153.5t72.5 119t111.5 86t144.5 55.5v73q0 61 41 101.5t107 40.5q70 0 108.5 -40t38.5 -102v-204q0 -29 -14.5 -45.5t-37 -27.5t-53 -19.5t-61.5 -16.5t-60.5 -19.5t-52 -30.5t-37 -49t-14.5 -75q0 -35 14.5 -62.5t38 -49t54.5 -33t63 -11.5 q63 0 105.5 32t75 70t66.5 69.5t83 31.5q55 0 90 -40t35 -107q0 -80 -45 -143.5t-112.5 -106.5t-147.5 -65.5t-150 -22.5q-98 0 -187 29.5t-156.5 86t-106.5 138.5t-39 184zM377 954q0 66 47 113t113 47t112.5 -47t46.5 -113t-47 -112.5t-112 -46.5q-66 0 -113 47t-47 112z " />
<glyph unicode="&#xc0;" horiz-adv-x="1290" d="M4 131q0 25 5 42t9 26l412 1114q27 72 84 121t135 49q82 0 137.5 -48.5t81.5 -121.5l402 -1114q10 -25 13 -45.5t3 -30.5q0 -59 -42 -97t-99 -38q-66 0 -99.5 29.5t-50.5 76.5l-61 193h-569l-62 -191q-16 -47 -50 -77.5t-97 -30.5q-61 0 -106.5 41t-45.5 102zM393 1788 q0 20 8.5 43t24 41.5t35.5 30.5t43 12q16 0 35.5 -5t42.5 -15l242 -99l16 -8q27 -14 42 -36.5t15 -45.5q0 -27 -8 -53.5t-22.5 -48t-35 -34.5t-42.5 -13h-22.5t-12.5 2t-15.5 6t-31.5 12l-230 90q-84 33 -84 121zM453 569h389l-191 594h-4z" />
<glyph unicode="&#xc1;" horiz-adv-x="1290" d="M4 131q0 25 5 42t9 26l412 1114q27 72 84 121t135 49q82 0 137.5 -48.5t81.5 -121.5l402 -1114q10 -25 13 -45.5t3 -30.5q0 -59 -42 -97t-99 -38q-66 0 -99.5 29.5t-50.5 76.5l-61 193h-569l-62 -191q-16 -47 -50 -77.5t-97 -30.5q-61 0 -106.5 41t-45.5 102zM393 1706 q0 23 15.5 45.5t42.5 36.5l16 8l242 99q23 10 42 15t36 5q23 0 43 -12t35.5 -30.5t23.5 -41t8 -43.5q0 -88 -84 -121l-229 -90q-23 -8 -32 -12t-15 -6t-13.5 -2h-21.5q-23 0 -43.5 13t-34.5 34.5t-22.5 48.5t-8.5 53zM453 569h389l-191 594h-4z" />
<glyph unicode="&#xc2;" horiz-adv-x="1290" d="M4 131q0 25 5 42t9 26l412 1114q27 72 84 121t135 49q82 0 137.5 -48.5t81.5 -121.5l402 -1114q10 -25 13 -45.5t3 -30.5q0 -59 -42 -97t-99 -38q-66 0 -99.5 29.5t-50.5 76.5l-61 193h-569l-62 -191q-16 -47 -50 -77.5t-97 -30.5q-61 0 -106.5 41t-45.5 102zM334 1684 q0 49 24.5 77.5t69.5 47.5l217 88l217 -88q45 -18 70 -47t25 -78t-38 -90t-87 -41q-18 0 -48 12t-59 24l-80 35l-80 -35q-29 -12 -58.5 -24t-47.5 -12q-49 0 -87 41t-38 90zM453 569h389l-191 594h-4z" />
<glyph unicode="&#xc3;" horiz-adv-x="1290" d="M4 131q0 25 5 42t9 26l412 1114q27 72 84 121t135 49q82 0 137.5 -48.5t81.5 -121.5l402 -1114q10 -25 13 -45.5t3 -30.5q0 -59 -42 -97t-99 -38q-66 0 -99.5 29.5t-50.5 76.5l-61 193h-569l-62 -191q-16 -47 -50 -77.5t-97 -30.5q-61 0 -106.5 41t-45.5 102zM305 1678 q0 86 57.5 133t137.5 47q35 0 68.5 -8.5t63.5 -17.5t54.5 -17t42.5 -8q14 0 34 9t41.5 20.5t43 20.5t41.5 9q47 0 71.5 -36t24.5 -79q0 -39 -17.5 -71.5t-46 -56t-64.5 -37t-72 -13.5q-25 0 -58 8t-65.5 17.5t-61 17.5t-47.5 8q-18 0 -33.5 -8t-32 -18.5t-34.5 -18.5t-45 -8 q-39 0 -71 34t-32 73zM453 569h389l-191 594h-4z" />
<glyph unicode="&#xc4;" horiz-adv-x="1290" d="M4 131q0 25 5 42t9 26l412 1114q27 72 84 121t135 49q82 0 137.5 -48.5t81.5 -121.5l402 -1114q10 -25 13 -45.5t3 -30.5q0 -59 -42 -97t-99 -38q-66 0 -99.5 29.5t-50.5 76.5l-61 193h-569l-62 -191q-16 -47 -50 -77.5t-97 -30.5q-61 0 -106.5 41t-45.5 102zM273 1714 q0 61 43 104.5t104 43.5t104.5 -43t43.5 -105q0 -61 -43.5 -104t-104.5 -43t-104 43t-43 104zM453 569h389l-191 594h-4zM723 1714q0 61 43 104.5t105 43.5q61 0 104 -43t43 -105q0 -61 -43 -104t-104 -43t-104.5 43t-43.5 104z" />
<glyph unicode="&#xc5;" horiz-adv-x="1290" d="M4 131q0 25 5 42t9 26l412 1114q27 72 84 121t135 49q82 0 137.5 -48.5t81.5 -121.5l402 -1114q10 -25 13 -45.5t3 -30.5q0 -59 -42 -97t-99 -38q-66 0 -99.5 29.5t-50.5 76.5l-61 193h-569l-62 -191q-16 -47 -50 -77.5t-97 -30.5q-61 0 -106.5 41t-45.5 102zM443 1721 q0 86 58 144t144 58t144.5 -58t58.5 -144t-58.5 -144.5t-144.5 -58.5t-144 58.5t-58 144.5zM453 569h389l-191 594h-4zM553 1721q0 -39 26.5 -66t65.5 -27t65.5 27t26.5 66t-26.5 65.5t-65.5 26.5t-65.5 -26.5t-26.5 -65.5z" />
<glyph unicode="&#xc6;" horiz-adv-x="1705" d="M-8 117q0 35 7 53t21 45l635 1174q12 23 40 46t104 23h719q74 0 109.5 -44t35.5 -97t-37 -97t-108 -44h-361v-299h336q76 0 112.5 -44.5t36.5 -97.5t-37.5 -97t-111.5 -44h-336v-311h379q74 0 109.5 -44t35.5 -98q0 -53 -36.5 -97t-108.5 -44h-528q-68 0 -113 42t-45 112 v102h-469l-96 -168q-25 -43 -61 -71.5t-85 -28.5q-59 0 -103 34.5t-44 94.5zM522 532h328v594h-4z" />
<glyph unicode="&#xc7;" horiz-adv-x="1251" d="M35 729q0 160 51 297t144.5 238.5t222.5 160t286 58.5q55 0 131 -10.5t144.5 -37t117 -70.5t48.5 -112q0 -55 -35 -96t-92 -41q-31 0 -59.5 11.5t-63.5 24.5t-81 24.5t-110 11.5q-96 0 -167.5 -38t-120 -101.5t-73 -147.5t-24.5 -178q0 -92 24.5 -174t74 -143.5 t121 -98.5t165.5 -37q63 0 111.5 13.5t85.5 30t67.5 29.5t61.5 13q35 0 60.5 -15t42 -36.5t24.5 -45t8 -42.5q0 -72 -46 -117t-113.5 -72.5t-143.5 -39t-133 -11.5l-62 -81q10 0 22.5 3t23.5 3q66 0 109.5 -41t43.5 -115q0 -49 -21.5 -86t-54 -60.5t-73.5 -34.5t-78 -11 q-23 0 -54.5 3t-60.5 14t-49.5 30.5t-20.5 54.5q0 23 13.5 38t36.5 15q16 0 42.5 -9t55.5 -11t48.5 9t19.5 48q0 41 -21.5 49t-48.5 8q-27 4 -48.5 8.5t-21.5 38.5q0 14 17.5 42t27.5 40l35 50q-137 16 -249.5 80.5t-192.5 164t-124 227.5t-44 275z" />
<glyph unicode="&#xc8;" horiz-adv-x="948" d="M92 154v1126q0 78 39 128t121 50h508q74 0 109.5 -44t35.5 -97t-37 -97t-108 -44h-361v-299h336q76 0 113 -44.5t37 -97.5t-38 -97t-112 -44h-336v-311h379q74 0 110 -44t36 -98q0 -53 -37 -97t-109 -44h-528q-68 0 -113 42t-45 112zM223 1788q0 20 8.5 43t24 41.5 t35.5 30.5t43 12q16 0 35.5 -5t42.5 -15l242 -99l16 -8q27 -14 42 -36.5t15 -45.5q0 -27 -8 -53.5t-22.5 -48t-35 -34.5t-42.5 -13h-22.5t-12.5 2t-15.5 6t-31.5 12l-230 90q-84 33 -84 121z" />
<glyph unicode="&#xc9;" horiz-adv-x="948" d="M92 154v1126q0 78 39 128t121 50h508q74 0 109.5 -44t35.5 -97t-37 -97t-108 -44h-361v-299h336q76 0 113 -44.5t37 -97.5t-38 -97t-112 -44h-336v-311h379q74 0 110 -44t36 -98q0 -53 -37 -97t-109 -44h-528q-68 0 -113 42t-45 112zM223 1706q0 23 15.5 45.5t42.5 36.5 l16 8l242 99q23 10 42 15t36 5q23 0 43 -12t35.5 -30.5t23.5 -41t8 -43.5q0 -88 -84 -121l-229 -90q-23 -8 -32 -12t-15 -6t-13.5 -2h-21.5q-23 0 -43.5 13t-34.5 34.5t-22.5 48.5t-8.5 53z" />
<glyph unicode="&#xca;" horiz-adv-x="948" d="M92 154v1126q0 78 39 128t121 50h508q74 0 109.5 -44t35.5 -97t-37 -97t-108 -44h-361v-299h336q76 0 113 -44.5t37 -97.5t-38 -97t-112 -44h-336v-311h379q74 0 110 -44t36 -98q0 -53 -37 -97t-109 -44h-528q-68 0 -113 42t-45 112zM164 1684q0 49 24.5 77.5t69.5 47.5 l217 88l217 -88q45 -18 70 -47t25 -78t-38 -90t-87 -41q-18 0 -48 12t-59 24l-80 35l-80 -35q-29 -12 -58.5 -24t-47.5 -12q-49 0 -87 41t-38 90z" />
<glyph unicode="&#xcb;" horiz-adv-x="948" d="M92 154v1126q0 78 39 128t121 50h508q74 0 109.5 -44t35.5 -97t-37 -97t-108 -44h-361v-299h336q76 0 113 -44.5t37 -97.5t-38 -97t-112 -44h-336v-311h379q74 0 110 -44t36 -98q0 -53 -37 -97t-109 -44h-528q-68 0 -113 42t-45 112zM103 1714q0 61 43 104.5t104 43.5 t104.5 -43t43.5 -105q0 -61 -43.5 -104t-104.5 -43t-104 43t-43 104zM553 1714q0 61 43 104.5t105 43.5q61 0 104 -43t43 -105q0 -61 -43 -104t-104 -43t-104.5 43t-43.5 104z" />
<glyph unicode="&#xcc;" horiz-adv-x="491" d="M-7 1788q0 20 8.5 43t24 41.5t35.5 30.5t43 12q16 0 35.5 -5t42.5 -15l242 -99l16 -8q27 -14 42 -36.5t15 -45.5q0 -27 -8 -53.5t-22.5 -48t-35 -34.5t-42.5 -13h-22.5t-12.5 2t-15.5 6t-31.5 12l-230 90q-84 33 -84 121zM92 147v1164q0 78 44 118.5t110 40.5 t109.5 -40.5t43.5 -118.5v-1164q0 -78 -44 -118.5t-109 -40.5q-66 0 -110 41t-44 118z" />
<glyph unicode="&#xcd;" horiz-adv-x="491" d="M-7 1706q0 23 15.5 45.5t42.5 36.5l16 8l242 99q23 10 42 15t36 5q23 0 43 -12t35.5 -30.5t23.5 -41t8 -43.5q0 -88 -84 -121l-229 -90q-23 -8 -32 -12t-15 -6t-13.5 -2h-21.5q-23 0 -43.5 13t-34.5 34.5t-22.5 48.5t-8.5 53zM92 147v1164q0 78 44 118.5t110 40.5 t109.5 -40.5t43.5 -118.5v-1164q0 -78 -44 -118.5t-109 -40.5q-66 0 -110 41t-44 118z" />
<glyph unicode="&#xce;" horiz-adv-x="491" d="M-66 1684q0 49 24.5 77.5t69.5 47.5l217 88l217 -88q45 -18 70 -47t25 -78t-38 -90t-87 -41q-18 0 -48 12t-59 24l-80 35l-80 -35q-29 -12 -58.5 -24t-47.5 -12q-49 0 -87 41t-38 90zM92 147v1164q0 78 44 118.5t110 40.5t109.5 -40.5t43.5 -118.5v-1164 q0 -78 -44 -118.5t-109 -40.5q-66 0 -110 41t-44 118z" />
<glyph unicode="&#xcf;" horiz-adv-x="491" d="M-127 1714q0 61 43 104.5t104 43.5t104.5 -43t43.5 -105q0 -61 -43.5 -104t-104.5 -43t-104 43t-43 104zM92 147v1164q0 78 44 118.5t110 40.5t109.5 -40.5t43.5 -118.5v-1164q0 -78 -44 -118.5t-109 -40.5q-66 0 -110 41t-44 118zM323 1714q0 61 43 104.5t105 43.5 q61 0 104 -43t43 -105q0 -61 -43 -104t-104 -43t-104.5 43t-43.5 104z" />
<glyph unicode="&#xd0;" horiz-adv-x="1366" d="M-92 739q0 45 31.5 81t97.5 36h55v444q0 72 44 115t114 43h340q172 0 306 -53t226 -151.5t140.5 -236.5t48.5 -308q0 -162 -50.5 -293t-142.5 -223.5t-221 -142.5t-287 -50h-356q-25 0 -53.5 7t-53 25.5t-40 48.5t-15.5 73v469h-55q-66 0 -97.5 36.5t-31.5 79.5zM399 283 h207q98 0 171 33.5t121 94t70.5 140.5t22.5 172q0 98 -23.5 181t-72.5 143.5t-126 94.5t-183 34h-187v-320h168q66 0 97.5 -36t31.5 -81q0 -43 -31.5 -79.5t-97.5 -36.5h-168v-340z" />
<glyph unicode="&#xd1;" horiz-adv-x="1402" d="M80 147v1164q0 78 44 118.5t109 40.5q29 0 69 -19t60 -48l650 -866h4v774q0 78 44 118.5t109 40.5q66 0 110 -40.5t44 -118.5v-1164q0 -78 -44 -118.5t-110 -40.5q-29 0 -67.5 19.5t-61.5 47.5l-649 856h-4v-764q0 -78 -44 -118.5t-110 -40.5t-109.5 41t-43.5 118z M362 1678q0 86 57.5 133t137.5 47q35 0 68.5 -8.5t63.5 -17.5t54.5 -17t42.5 -8q14 0 34 9t41.5 20.5t43 20.5t41.5 9q47 0 71.5 -36t24.5 -79q0 -39 -17.5 -71.5t-46 -56t-64.5 -37t-72 -13.5q-25 0 -58 8t-65.5 17.5t-61 17.5t-47.5 8q-18 0 -33.5 -8t-32 -18.5 t-34.5 -18.5t-45 -8q-39 0 -71 34t-32 73z" />
<glyph unicode="&#xd2;" horiz-adv-x="1478" d="M35 729q0 160 51 297t144.5 238.5t222.5 160t286 58.5q154 0 284 -59.5t223 -162t145.5 -239.5t52.5 -293q0 -160 -51.5 -297t-143.5 -238.5t-222 -160t-288 -58.5q-156 0 -285.5 58.5t-223 160t-144.5 238.5t-51 297zM354 729q0 -94 23.5 -179t72 -149.5t120 -103.5 t169.5 -39t170 39t120 103.5t71.5 149.5t23.5 179q0 92 -24.5 178t-72.5 150.5t-119.5 103.5t-168.5 39q-96 0 -167.5 -39t-120 -103.5t-73 -150.5t-24.5 -178zM487 1788q0 20 8.5 43t24 41.5t35.5 30.5t43 12q16 0 35.5 -5t42.5 -15l242 -99l16 -8q27 -14 42 -36.5 t15 -45.5q0 -27 -8 -53.5t-22.5 -48t-35 -34.5t-42.5 -13h-22.5t-12.5 2t-15.5 6t-31.5 12l-230 90q-84 33 -84 121z" />
<glyph unicode="&#xd3;" horiz-adv-x="1478" d="M35 729q0 160 51 297t144.5 238.5t222.5 160t286 58.5q154 0 284 -59.5t223 -162t145.5 -239.5t52.5 -293q0 -160 -51.5 -297t-143.5 -238.5t-222 -160t-288 -58.5q-156 0 -285.5 58.5t-223 160t-144.5 238.5t-51 297zM354 729q0 -94 23.5 -179t72 -149.5t120 -103.5 t169.5 -39t170 39t120 103.5t71.5 149.5t23.5 179q0 92 -24.5 178t-72.5 150.5t-119.5 103.5t-168.5 39q-96 0 -167.5 -39t-120 -103.5t-73 -150.5t-24.5 -178zM487 1706q0 23 15.5 45.5t42.5 36.5l16 8l242 99q23 10 42 15t36 5q23 0 43 -12t35.5 -30.5t23.5 -41t8 -43.5 q0 -88 -84 -121l-229 -90q-23 -8 -32 -12t-15 -6t-13.5 -2h-21.5q-23 0 -43.5 13t-34.5 34.5t-22.5 48.5t-8.5 53z" />
<glyph unicode="&#xd4;" horiz-adv-x="1478" d="M35 729q0 160 51 297t144.5 238.5t222.5 160t286 58.5q154 0 284 -59.5t223 -162t145.5 -239.5t52.5 -293q0 -160 -51.5 -297t-143.5 -238.5t-222 -160t-288 -58.5q-156 0 -285.5 58.5t-223 160t-144.5 238.5t-51 297zM354 729q0 -94 23.5 -179t72 -149.5t120 -103.5 t169.5 -39t170 39t120 103.5t71.5 149.5t23.5 179q0 92 -24.5 178t-72.5 150.5t-119.5 103.5t-168.5 39q-96 0 -167.5 -39t-120 -103.5t-73 -150.5t-24.5 -178zM428 1684q0 49 24.5 77.5t69.5 47.5l217 88l217 -88q45 -18 70 -47t25 -78t-38 -90t-87 -41q-18 0 -48 12 t-59 24l-80 35l-80 -35q-29 -12 -58.5 -24t-47.5 -12q-49 0 -87 41t-38 90z" />
<glyph unicode="&#xd5;" horiz-adv-x="1478" d="M35 729q0 160 51 297t144.5 238.5t222.5 160t286 58.5q154 0 284 -59.5t223 -162t145.5 -239.5t52.5 -293q0 -160 -51.5 -297t-143.5 -238.5t-222 -160t-288 -58.5q-156 0 -285.5 58.5t-223 160t-144.5 238.5t-51 297zM354 729q0 -94 23.5 -179t72 -149.5t120 -103.5 t169.5 -39t170 39t120 103.5t71.5 149.5t23.5 179q0 92 -24.5 178t-72.5 150.5t-119.5 103.5t-168.5 39q-96 0 -167.5 -39t-120 -103.5t-73 -150.5t-24.5 -178zM399 1678q0 86 57.5 133t137.5 47q35 0 68.5 -8.5t63.5 -17.5t54.5 -17t42.5 -8q14 0 34 9t41.5 20.5t43 20.5 t41.5 9q47 0 71.5 -36t24.5 -79q0 -39 -17.5 -71.5t-46 -56t-64.5 -37t-72 -13.5q-25 0 -58 8t-65.5 17.5t-61 17.5t-47.5 8q-18 0 -33.5 -8t-32 -18.5t-34.5 -18.5t-45 -8q-39 0 -71 34t-32 73z" />
<glyph unicode="&#xd6;" horiz-adv-x="1478" d="M35 729q0 160 51 297t144.5 238.5t222.5 160t286 58.5q154 0 284 -59.5t223 -162t145.5 -239.5t52.5 -293q0 -160 -51.5 -297t-143.5 -238.5t-222 -160t-288 -58.5q-156 0 -285.5 58.5t-223 160t-144.5 238.5t-51 297zM354 729q0 -94 23.5 -179t72 -149.5t120 -103.5 t169.5 -39t170 39t120 103.5t71.5 149.5t23.5 179q0 92 -24.5 178t-72.5 150.5t-119.5 103.5t-168.5 39q-96 0 -167.5 -39t-120 -103.5t-73 -150.5t-24.5 -178zM367 1714q0 61 43 104.5t104 43.5t104.5 -43t43.5 -105q0 -61 -43.5 -104t-104.5 -43t-104 43t-43 104z M817 1714q0 61 43 104.5t105 43.5q61 0 104 -43t43 -105q0 -61 -43 -104t-104 -43t-104.5 43t-43.5 104z" />
<glyph unicode="&#xd7;" horiz-adv-x="1228" d="M154 180q0 45 39 84l253 254l-253 254q-16 16 -27.5 35.5t-11.5 42.5q0 27 11 50.5t28 39.5q16 16 35.5 27.5t47.5 11.5q45 0 84 -39l254 -254l254 254q39 39 84 39q29 0 48.5 -11.5t35.5 -27.5t27.5 -39.5t11.5 -50.5q0 -23 -11 -42.5t-28 -35.5l-254 -254l254 -254 q39 -39 39 -84q0 -29 -11 -48t-28 -36q-16 -16 -39.5 -27.5t-50.5 -11.5q-23 0 -42 11.5t-36 27.5l-254 254l-254 -254q-16 -16 -35.5 -27.5t-41.5 -11.5q-27 0 -50.5 11.5t-39.5 27.5t-27.5 36t-11.5 48z" />
<glyph unicode="&#xd8;" horiz-adv-x="1478" d="M0 55q0 18 8 33.5t21 30.5l143 145q-66 96 -101.5 214t-35.5 251q0 160 51 297t144.5 238.5t222.5 160t286 58.5q135 0 247 -41t196 -115l98 98q20 20 47 45t68 25q29 0 56.5 -20.5t27.5 -51.5q0 -14 -2 -32.5t-19 -34.5l-155 -160q66 -98 103.5 -216t37.5 -251 q0 -160 -51.5 -297t-143.5 -238.5t-222 -160t-288 -58.5q-139 0 -249.5 41t-196.5 115l-127 -129q-16 -16 -35.5 -27.5t-44.5 -11.5q-31 0 -58.5 27.5t-27.5 64.5zM354 729q0 -61 10.5 -119.5t32.5 -109.5l580 614q-43 41 -101.5 63.5t-136.5 22.5q-96 0 -167.5 -39 t-120 -103.5t-73 -150.5t-24.5 -178zM500 346q41 -41 101.5 -64.5t137.5 -23.5q98 0 170 39t120 103.5t71.5 149.5t23.5 179q0 63 -10 121.5t-35 112.5z" />
<glyph unicode="&#xd9;" horiz-adv-x="1402" d="M80 580v731q0 78 44 118.5t109 40.5q66 0 110 -40.5t44 -118.5v-715q0 -72 21.5 -133.5t62.5 -106.5t99.5 -71.5t131.5 -26.5q70 0 127.5 27.5t99.5 74t64.5 107.5t22.5 129v715q0 78 44 118.5t109 40.5q66 0 110 -40.5t44 -118.5v-731q0 -129 -49 -240t-134 -191.5 t-198 -127t-240 -46.5q-129 0 -241.5 45.5t-197.5 126t-134 191.5t-49 242zM450 1788q0 20 8.5 43t24 41.5t35.5 30.5t43 12q16 0 35.5 -5t42.5 -15l242 -99l16 -8q27 -14 42 -36.5t15 -45.5q0 -27 -8 -53.5t-22.5 -48t-35 -34.5t-42.5 -13h-22.5t-12.5 2t-15.5 6t-31.5 12 l-230 90q-84 33 -84 121z" />
<glyph unicode="&#xda;" horiz-adv-x="1402" d="M80 580v731q0 78 44 118.5t109 40.5q66 0 110 -40.5t44 -118.5v-715q0 -72 21.5 -133.5t62.5 -106.5t99.5 -71.5t131.5 -26.5q70 0 127.5 27.5t99.5 74t64.5 107.5t22.5 129v715q0 78 44 118.5t109 40.5q66 0 110 -40.5t44 -118.5v-731q0 -129 -49 -240t-134 -191.5 t-198 -127t-240 -46.5q-129 0 -241.5 45.5t-197.5 126t-134 191.5t-49 242zM450 1706q0 23 15.5 45.5t42.5 36.5l16 8l242 99q23 10 42 15t36 5q23 0 43 -12t35.5 -30.5t23.5 -41t8 -43.5q0 -88 -84 -121l-229 -90q-23 -8 -32 -12t-15 -6t-13.5 -2h-21.5q-23 0 -43.5 13 t-34.5 34.5t-22.5 48.5t-8.5 53z" />
<glyph unicode="&#xdb;" horiz-adv-x="1402" d="M80 580v731q0 78 44 118.5t109 40.5q66 0 110 -40.5t44 -118.5v-715q0 -72 21.5 -133.5t62.5 -106.5t99.5 -71.5t131.5 -26.5q70 0 127.5 27.5t99.5 74t64.5 107.5t22.5 129v715q0 78 44 118.5t109 40.5q66 0 110 -40.5t44 -118.5v-731q0 -129 -49 -240t-134 -191.5 t-198 -127t-240 -46.5q-129 0 -241.5 45.5t-197.5 126t-134 191.5t-49 242zM391 1684q0 49 24.5 77.5t69.5 47.5l217 88l217 -88q45 -18 70 -47t25 -78t-38 -90t-87 -41q-18 0 -48 12t-59 24l-80 35l-80 -35q-29 -12 -58.5 -24t-47.5 -12q-49 0 -87 41t-38 90z" />
<glyph unicode="&#xdc;" horiz-adv-x="1402" d="M80 580v731q0 78 44 118.5t109 40.5q66 0 110 -40.5t44 -118.5v-715q0 -72 21.5 -133.5t62.5 -106.5t99.5 -71.5t131.5 -26.5q70 0 127.5 27.5t99.5 74t64.5 107.5t22.5 129v715q0 78 44 118.5t109 40.5q66 0 110 -40.5t44 -118.5v-731q0 -129 -49 -240t-134 -191.5 t-198 -127t-240 -46.5q-129 0 -241.5 45.5t-197.5 126t-134 191.5t-49 242zM330 1714q0 61 43 104.5t104 43.5t104.5 -43t43.5 -105q0 -61 -43.5 -104t-104.5 -43t-104 43t-43 104zM780 1714q0 61 43 104.5t105 43.5q61 0 104 -43t43 -105q0 -61 -43 -104t-104 -43 t-104.5 43t-43.5 104z" />
<glyph unicode="&#xdd;" horiz-adv-x="1097" d="M-20 1321q0 61 40.5 105t106.5 44q84 0 127 -61l295 -428l295 428q43 61 127 61q66 0 106.5 -44t40.5 -105q0 -51 -28 -92l-388 -545v-547q0 -57 -35.5 -103t-117.5 -46t-118 46t-36 103v547l-387 545q-29 41 -28 92zM297 1706q0 23 15.5 45.5t42.5 36.5l16 8l242 99 q23 10 42 15t36 5q23 0 43 -12t35.5 -30.5t23.5 -41t8 -43.5q0 -88 -84 -121l-229 -90q-23 -8 -32 -12t-15 -6t-13.5 -2h-21.5q-23 0 -43.5 13t-34.5 34.5t-22.5 48.5t-8.5 53z" />
<glyph unicode="&#xde;" horiz-adv-x="1138" d="M92 147v1164q0 78 44 118.5t110 40.5t109.5 -40.5t43.5 -118.5v-58h215q113 0 209.5 -34.5t166 -99t109.5 -155t40 -200.5q0 -113 -41 -203t-110.5 -152.5t-163 -96t-197.5 -33.5h-228v-132q0 -78 -44 -118.5t-109 -40.5q-66 0 -110 41t-44 118zM399 549h209 q98 0 154.5 62.5t56.5 154.5t-56 154.5t-155 62.5h-209v-434z" />
<glyph unicode="&#xdf;" horiz-adv-x="1138" d="M80 152v905q0 109 30.5 204t90 165.5t147.5 110.5t205 40q92 0 173 -30.5t141.5 -86t94 -133.5t33.5 -172q0 -82 -32.5 -163t-106.5 -126q66 -18 114 -59t78.5 -95.5t46 -119t15.5 -127.5q0 -84 -31.5 -171t-90 -157.5t-141.5 -116t-185 -45.5q-94 0 -136.5 44t-42.5 104 q0 37 14.5 60.5t39 36.5t54.5 21.5t60 14.5q66 14 115 70.5t49 138.5q0 86 -25.5 131t-63.5 67.5t-83 32t-83 22.5t-63.5 39.5t-25.5 84.5q0 49 17.5 73.5t45 38t58.5 22.5t58.5 27.5t45 53.5t17.5 98q0 55 -44 103.5t-116 48.5q-59 0 -94 -21.5t-53.5 -56.5t-24.5 -80 t-6 -92v-905q0 -74 -41 -119t-107 -45t-106.5 45t-40.5 119z" />
<glyph unicode="&#xe0;" d="M41 543q0 121 38 225t104.5 181t154.5 121t190 44q82 0 157 -32.5t124 -102.5q6 53 47 88t94 35t82 -19.5t42 -48t15.5 -62.5t2.5 -63v-729q0 -29 -2.5 -62.5t-15.5 -62t-41.5 -48t-82.5 -19.5q-66 0 -95.5 32.5t-45.5 92.5q-115 -137 -281 -138q-104 0 -193 42 t-154.5 117t-102.5 179.5t-37 229.5zM335 1456q0 20 8.5 43t24 41.5t35.5 30.5t43 12q16 0 35.5 -5t42.5 -15l242 -99l16 -8q27 -14 42 -36.5t15 -45.5q0 -27 -8 -53.5t-22.5 -48t-35 -34.5t-42.5 -13h-22.5t-12.5 2t-15.5 6t-31.5 12l-230 90q-84 33 -84 121zM336 543 q0 -53 14.5 -106.5t43 -95.5t72.5 -68.5t103 -26.5q57 0 100.5 26.5t71 68.5t42 95t14.5 107q0 53 -13.5 106t-42 96t-71.5 71t-101 28q-61 0 -105 -28t-73 -71t-42 -96t-13 -106z" />
<glyph unicode="&#xe1;" d="M41 543q0 121 38 225t104.5 181t154.5 121t190 44q82 0 157 -32.5t124 -102.5q6 53 47 88t94 35t82 -19.5t42 -48t15.5 -62.5t2.5 -63v-729q0 -29 -2.5 -62.5t-15.5 -62t-41.5 -48t-82.5 -19.5q-66 0 -95.5 32.5t-45.5 92.5q-115 -137 -281 -138q-104 0 -193 42 t-154.5 117t-102.5 179.5t-37 229.5zM335 1374q0 23 15.5 45.5t42.5 36.5l16 8l242 99q23 10 42 15t36 5q23 0 43 -12t35.5 -30.5t23.5 -41t8 -43.5q0 -88 -84 -121l-229 -90q-23 -8 -32 -12t-15 -6t-13.5 -2h-21.5q-23 0 -43.5 13t-34.5 34.5t-22.5 48.5t-8.5 53zM336 543 q0 -53 14.5 -106.5t43 -95.5t72.5 -68.5t103 -26.5q57 0 100.5 26.5t71 68.5t42 95t14.5 107q0 53 -13.5 106t-42 96t-71.5 71t-101 28q-61 0 -105 -28t-73 -71t-42 -96t-13 -106z" />
<glyph unicode="&#xe2;" d="M41 543q0 121 38 225t104.5 181t154.5 121t190 44q82 0 157 -32.5t124 -102.5q6 53 47 88t94 35t82 -19.5t42 -48t15.5 -62.5t2.5 -63v-729q0 -29 -2.5 -62.5t-15.5 -62t-41.5 -48t-82.5 -19.5q-66 0 -95.5 32.5t-45.5 92.5q-115 -137 -281 -138q-104 0 -193 42 t-154.5 117t-102.5 179.5t-37 229.5zM276 1352q0 49 24.5 77.5t69.5 47.5l217 88l217 -88q45 -18 70 -47t25 -78t-38 -90t-87 -41q-18 0 -48 12t-59 24l-80 35l-80 -35q-29 -12 -58.5 -24t-47.5 -12q-49 0 -87 41t-38 90zM336 543q0 -53 14.5 -106.5t43 -95.5t72.5 -68.5 t103 -26.5q57 0 100.5 26.5t71 68.5t42 95t14.5 107q0 53 -13.5 106t-42 96t-71.5 71t-101 28q-61 0 -105 -28t-73 -71t-42 -96t-13 -106z" />
<glyph unicode="&#xe3;" d="M41 543q0 121 38 225t104.5 181t154.5 121t190 44q82 0 157 -32.5t124 -102.5q6 53 47 88t94 35t82 -19.5t42 -48t15.5 -62.5t2.5 -63v-729q0 -29 -2.5 -62.5t-15.5 -62t-41.5 -48t-82.5 -19.5q-66 0 -95.5 32.5t-45.5 92.5q-115 -137 -281 -138q-104 0 -193 42 t-154.5 117t-102.5 179.5t-37 229.5zM247 1346q0 86 57.5 133t137.5 47q35 0 68.5 -8.5t63.5 -17.5t54.5 -17t42.5 -8q14 0 34 9t41.5 20.5t43 20.5t41.5 9q47 0 71.5 -36t24.5 -79q0 -39 -17.5 -71.5t-46 -56t-64.5 -37t-72 -13.5q-25 0 -58 8t-65.5 17.5t-61 17.5t-47.5 8 q-18 0 -33.5 -8t-32 -18.5t-34.5 -18.5t-45 -8q-39 0 -71 34t-32 73zM336 543q0 -53 14.5 -106.5t43 -95.5t72.5 -68.5t103 -26.5q57 0 100.5 26.5t71 68.5t42 95t14.5 107q0 53 -13.5 106t-42 96t-71.5 71t-101 28q-61 0 -105 -28t-73 -71t-42 -96t-13 -106z" />
<glyph unicode="&#xe4;" d="M41 543q0 121 38 225t104.5 181t154.5 121t190 44q82 0 157 -32.5t124 -102.5q6 53 47 88t94 35t82 -19.5t42 -48t15.5 -62.5t2.5 -63v-729q0 -29 -2.5 -62.5t-15.5 -62t-41.5 -48t-82.5 -19.5q-66 0 -95.5 32.5t-45.5 92.5q-115 -137 -281 -138q-104 0 -193 42 t-154.5 117t-102.5 179.5t-37 229.5zM215 1382q0 61 43 104.5t104 43.5t104.5 -43t43.5 -105q0 -61 -43.5 -104t-104.5 -43t-104 43t-43 104zM336 543q0 -53 14.5 -106.5t43 -95.5t72.5 -68.5t103 -26.5q57 0 100.5 26.5t71 68.5t42 95t14.5 107q0 53 -13.5 106t-42 96 t-71.5 71t-101 28q-61 0 -105 -28t-73 -71t-42 -96t-13 -106zM665 1382q0 61 43 104.5t105 43.5q61 0 104 -43t43 -105q0 -61 -43 -104t-104 -43t-104.5 43t-43.5 104z" />
<glyph unicode="&#xe5;" d="M41 543q0 121 38 225t104.5 181t154.5 121t190 44q82 0 157 -32.5t124 -102.5q6 53 47 88t94 35t82 -19.5t42 -48t15.5 -62.5t2.5 -63v-729q0 -29 -2.5 -62.5t-15.5 -62t-41.5 -48t-82.5 -19.5q-66 0 -95.5 32.5t-45.5 92.5q-115 -137 -281 -138q-104 0 -193 42 t-154.5 117t-102.5 179.5t-37 229.5zM336 543q0 -53 14.5 -106.5t43 -95.5t72.5 -68.5t103 -26.5q57 0 100.5 26.5t71 68.5t42 95t14.5 107q0 53 -13.5 106t-42 96t-71.5 71t-101 28q-61 0 -105 -28t-73 -71t-42 -96t-13 -106zM385 1389q0 86 58 144t144 58t144.5 -58 t58.5 -144t-58.5 -144.5t-144.5 -58.5t-144 58.5t-58 144.5zM495 1389q0 -39 26.5 -66t65.5 -27t65.5 27t26.5 66t-26.5 65.5t-65.5 26.5t-65.5 -26.5t-26.5 -65.5z" />
<glyph unicode="&#xe6;" horiz-adv-x="1857" d="M41 543q0 121 38 225t104.5 181t154.5 121t190 44q84 0 159 -33.5t126 -101.5h4q0 59 35 91t82 32q51 0 75.5 -22.5t34.5 -59.5q53 49 120 71.5t139 22.5q106 0 203.5 -44t171 -117.5t116.5 -171t43 -203.5q0 -66 -30.5 -99t-98.5 -33h-629q16 -111 96 -162t185 -51 q55 0 103 18.5t89 41t76 41t64 18.5q47 0 83.5 -40t36.5 -87t-44 -92t-113.5 -80t-155.5 -56.5t-168 -21.5q-76 0 -150.5 19.5t-136.5 66.5q-10 -31 -33.5 -52t-76.5 -21q-68 0 -96.5 34.5t-28.5 90.5h-4q-53 -66 -122 -102t-155 -36q-104 0 -193 42t-154.5 117 t-102.5 179.5t-37 229.5zM336 543q0 -53 14.5 -106.5t43 -95.5t72.5 -68.5t103 -26.5q57 0 100.5 26.5t71 68.5t42 95t14.5 107q0 53 -13.5 106t-42 96t-71.5 71t-101 28q-61 0 -105 -28t-73 -71t-42 -96t-13 -106zM1075 643h467q-12 98 -71.5 161.5t-161.5 63.5 q-98 0 -161 -65.5t-73 -159.5z" />
<glyph unicode="&#xe7;" horiz-adv-x="948" d="M41 543q0 113 39 216t108.5 182t167 126t213.5 47q43 0 105.5 -9t119 -30.5t96.5 -57.5t40 -89q0 -23 -8.5 -48.5t-22.5 -46t-34.5 -34t-47.5 -13.5q-29 0 -55.5 9.5t-54 19.5t-58.5 19.5t-65 9.5q-63 0 -109.5 -25.5t-77 -67.5t-46 -96.5t-15.5 -111.5 q0 -55 16.5 -108.5t48 -95.5t77.5 -67.5t106 -25.5q27 0 60.5 9t64 21.5t56.5 21.5t38 9q53 0 90 -38t37 -91q0 -51 -33 -87t-82 -59.5t-103.5 -36.5t-97.5 -15l-63 -84q10 0 22.5 3t22.5 3q66 0 110 -41t44 -115q0 -49 -21.5 -86t-54.5 -60.5t-74 -34.5t-78 -11 q-23 0 -54.5 3t-60 14t-49 30.5t-20.5 54.5q0 23 13.5 38t35.5 15q16 0 43 -9t55 -11q29 -2 48.5 9t19.5 48q0 41 -21.5 49t-48.5 8q-27 4 -48 8.5t-21 38.5q0 14 17.5 42t27.5 40l35 50q-104 14 -187.5 64t-143 125t-91 171t-31.5 201z" />
<glyph unicode="&#xe8;" horiz-adv-x="1099" d="M20 543q0 113 39 216t109 182t167 126t214 47q119 0 217 -49t168 -127t107.5 -173t37.5 -187q0 -66 -30.5 -99t-98.5 -33h-628q16 -111 95 -162t183 -51q57 0 105.5 18.5t89.5 41t75.5 41t63.5 18.5q47 0 84 -40t37 -87t-44 -92t-114 -80t-156 -56.5t-168 -21.5 q-125 0 -226 43t-174 119t-113 179.5t-40 226.5zM299 1456q0 20 8.5 43t24 41.5t35.5 30.5t43 12q16 0 35.5 -5t42.5 -15l242 -99l16 -8q27 -14 42 -36.5t15 -45.5q0 -27 -8 -53.5t-22.5 -48t-35 -34.5t-42.5 -13h-22.5t-12.5 2t-15.5 6t-31.5 12l-230 90q-84 33 -84 121z M315 643h469q-12 98 -71.5 161.5t-163.5 63.5q-98 0 -160.5 -65.5t-73.5 -159.5z" />
<glyph unicode="&#xe9;" horiz-adv-x="1099" d="M20 543q0 113 39 216t109 182t167 126t214 47q119 0 217 -49t168 -127t107.5 -173t37.5 -187q0 -66 -30.5 -99t-98.5 -33h-628q16 -111 95 -162t183 -51q57 0 105.5 18.5t89.5 41t75.5 41t63.5 18.5q47 0 84 -40t37 -87t-44 -92t-114 -80t-156 -56.5t-168 -21.5 q-125 0 -226 43t-174 119t-113 179.5t-40 226.5zM299 1374q0 23 15.5 45.5t42.5 36.5l16 8l242 99q23 10 42 15t36 5q23 0 43 -12t35.5 -30.5t23.5 -41t8 -43.5q0 -88 -84 -121l-229 -90q-23 -8 -32 -12t-15 -6t-13.5 -2h-21.5q-23 0 -43.5 13t-34.5 34.5t-22.5 48.5 t-8.5 53zM315 643h469q-12 98 -71.5 161.5t-163.5 63.5q-98 0 -160.5 -65.5t-73.5 -159.5z" />
<glyph unicode="&#xea;" horiz-adv-x="1099" d="M20 543q0 113 39 216t109 182t167 126t214 47q119 0 217 -49t168 -127t107.5 -173t37.5 -187q0 -66 -30.5 -99t-98.5 -33h-628q16 -111 95 -162t183 -51q57 0 105.5 18.5t89.5 41t75.5 41t63.5 18.5q47 0 84 -40t37 -87t-44 -92t-114 -80t-156 -56.5t-168 -21.5 q-125 0 -226 43t-174 119t-113 179.5t-40 226.5zM240 1352q0 49 24.5 77.5t69.5 47.5l217 88l217 -88q45 -18 70 -47t25 -78t-38 -90t-87 -41q-18 0 -48 12t-59 24l-80 35l-80 -35q-29 -12 -58.5 -24t-47.5 -12q-49 0 -87 41t-38 90zM315 643h469q-12 98 -71.5 161.5 t-163.5 63.5q-98 0 -160.5 -65.5t-73.5 -159.5z" />
<glyph unicode="&#xeb;" horiz-adv-x="1099" d="M20 543q0 113 39 216t109 182t167 126t214 47q119 0 217 -49t168 -127t107.5 -173t37.5 -187q0 -66 -30.5 -99t-98.5 -33h-628q16 -111 95 -162t183 -51q57 0 105.5 18.5t89.5 41t75.5 41t63.5 18.5q47 0 84 -40t37 -87t-44 -92t-114 -80t-156 -56.5t-168 -21.5 q-125 0 -226 43t-174 119t-113 179.5t-40 226.5zM179 1382q0 61 43 104.5t104 43.5t104.5 -43t43.5 -105q0 -61 -43.5 -104t-104.5 -43t-104 43t-43 104zM315 643h469q-12 98 -71.5 161.5t-163.5 63.5q-98 0 -160.5 -65.5t-73.5 -159.5zM629 1382q0 61 43 104.5t105 43.5 q61 0 104 -43t43 -105q0 -61 -43 -104t-104 -43t-104.5 43t-43.5 104z" />
<glyph unicode="&#xec;" horiz-adv-x="454" d="M-25 1456q0 20 8.5 43t24 41.5t35.5 30.5t43 12q16 0 35.5 -5t42.5 -15l242 -99l16 -8q27 -14 42 -36.5t15 -45.5q0 -27 -8 -53.5t-22.5 -48t-35 -34.5t-42.5 -13h-22.5t-12.5 2t-15.5 6t-31.5 12l-230 90q-84 33 -84 121zM80 152v786q0 74 41 119t106 45q66 0 107 -45 t41 -119v-786q0 -74 -41 -119t-107 -45t-106.5 45t-40.5 119z" />
<glyph unicode="&#xed;" horiz-adv-x="454" d="M-25 1374q0 23 15.5 45.5t42.5 36.5l16 8l242 99q23 10 42 15t36 5q23 0 43 -12t35.5 -30.5t23.5 -41t8 -43.5q0 -88 -84 -121l-229 -90q-23 -8 -32 -12t-15 -6t-13.5 -2h-21.5q-23 0 -43.5 13t-34.5 34.5t-22.5 48.5t-8.5 53zM80 152v786q0 74 41 119t106 45 q66 0 107 -45t41 -119v-786q0 -74 -41 -119t-107 -45t-106.5 45t-40.5 119z" />
<glyph unicode="&#xee;" horiz-adv-x="454" d="M-84 1352q0 49 24.5 77.5t69.5 47.5l217 88l217 -88q45 -18 70 -47t25 -78t-38 -90t-87 -41q-18 0 -48 12t-59 24l-80 35l-80 -35q-29 -12 -58.5 -24t-47.5 -12q-49 0 -87 41t-38 90zM80 152v786q0 74 41 119t106 45q66 0 107 -45t41 -119v-786q0 -74 -41 -119t-107 -45 t-106.5 45t-40.5 119z" />
<glyph unicode="&#xef;" horiz-adv-x="454" d="M-145 1382q0 61 43 104.5t104 43.5t104.5 -43t43.5 -105q0 -61 -43.5 -104t-104.5 -43t-104 43t-43 104zM80 152v786q0 74 41 119t106 45q66 0 107 -45t41 -119v-786q0 -74 -41 -119t-107 -45t-106.5 45t-40.5 119zM305 1382q0 61 43 104.5t105 43.5q61 0 104 -43 t43 -105q0 -61 -43 -104t-104 -43t-104.5 43t-43.5 104z" />
<glyph unicode="&#xf0;" horiz-adv-x="1138" d="M41 543q0 96 37 190t102.5 168t156.5 120t200 46q66 0 127 -20.5t104 -67.5l4 4q-39 86 -98.5 155.5t-130.5 112.5l-135 -71q-47 -25 -78 -40.5t-60 -15.5q-25 0 -48 17.5t-23 56.5q0 41 25.5 59.5t54.5 32.5l102 53q-20 8 -46 19.5t-47.5 25t-35.5 32t-14 42.5 q0 68 38.5 97.5t120.5 29.5q72 0 139.5 -30.5t127.5 -65.5l163 88q29 16 44.5 19.5t29.5 3.5q29 0 50.5 -21.5t21.5 -56.5q0 -31 -18.5 -48.5t-63.5 -39.5l-107 -58q86 -82 146.5 -169t97.5 -183t53.5 -204.5t16.5 -231.5q0 -133 -38 -247t-107.5 -195.5t-167 -128 t-216.5 -46.5t-216 45.5t-166.5 123t-107.5 181t-38 218.5zM336 543q0 -53 14.5 -106.5t43 -95.5t72.5 -68.5t103 -26.5t103.5 26.5t74 68.5t43 95t13.5 107q0 51 -16.5 99t-46 85t-73 59.5t-100.5 22.5q-53 0 -96 -23.5t-72.5 -60.5t-46 -85t-16.5 -97z" />
<glyph unicode="&#xf1;" horiz-adv-x="1138" d="M84 152v786q0 74 41 119t106 45q57 0 92 -29t44 -80q43 59 111.5 90t172.5 31q86 0 161 -26.5t128 -78t84 -125t31 -167.5v-565q0 -74 -41 -119t-107 -45t-106.5 45t-40.5 119v514q0 104 -56.5 153t-136.5 49q-92 0 -140 -58t-48 -144v-514q0 -74 -41 -119t-107 -45 t-106.5 45t-40.5 119zM229 1346q0 86 57.5 133t137.5 47q35 0 68.5 -8.5t63.5 -17.5t54.5 -17t42.5 -8q14 0 34 9t41.5 20.5t43 20.5t41.5 9q47 0 71.5 -36t24.5 -79q0 -39 -17.5 -71.5t-46 -56t-64.5 -37t-72 -13.5q-25 0 -58 8t-65.5 17.5t-61 17.5t-47.5 8 q-18 0 -33.5 -8t-32 -18.5t-34.5 -18.5t-45 -8q-39 0 -71 34t-32 73z" />
<glyph unicode="&#xf2;" horiz-adv-x="1138" d="M41 543q0 113 39 216t108.5 182t166.5 126t214 47t214.5 -47t167 -126t108.5 -182.5t39 -215.5q0 -115 -38 -218.5t-107.5 -181t-167 -123t-216.5 -45.5t-216 45.5t-166.5 123t-107.5 181t-38 218.5zM317 1456q0 20 8.5 43t24 41.5t35.5 30.5t43 12q16 0 35.5 -5 t42.5 -15l242 -99l16 -8q27 -14 42 -36.5t15 -45.5q0 -27 -8 -53.5t-22.5 -48t-35 -34.5t-42.5 -13h-22.5t-12.5 2t-15.5 6t-31.5 12l-230 90q-84 33 -84 121zM336 543q0 -53 14.5 -106.5t43 -95.5t72.5 -68.5t103 -26.5t103.5 26.5t73 68.5t43 95t14.5 107q0 53 -13.5 106 t-42 96t-73 71t-105.5 28t-105 -28t-73 -71t-42 -96t-13 -106z" />
<glyph unicode="&#xf3;" horiz-adv-x="1138" d="M41 543q0 113 39 216t108.5 182t166.5 126t214 47t214.5 -47t167 -126t108.5 -182.5t39 -215.5q0 -115 -38 -218.5t-107.5 -181t-167 -123t-216.5 -45.5t-216 45.5t-166.5 123t-107.5 181t-38 218.5zM317 1374q0 23 15.5 45.5t42.5 36.5l16 8l242 99q23 10 42 15t36 5 q23 0 43 -12t35.5 -30.5t23.5 -41t8 -43.5q0 -88 -84 -121l-229 -90q-23 -8 -32 -12t-15 -6t-13.5 -2h-21.5q-23 0 -43.5 13t-34.5 34.5t-22.5 48.5t-8.5 53zM336 543q0 -53 14.5 -106.5t43 -95.5t72.5 -68.5t103 -26.5t103.5 26.5t73 68.5t43 95t14.5 107q0 53 -13.5 106 t-42 96t-73 71t-105.5 28t-105 -28t-73 -71t-42 -96t-13 -106z" />
<glyph unicode="&#xf4;" horiz-adv-x="1138" d="M41 543q0 113 39 216t108.5 182t166.5 126t214 47t214.5 -47t167 -126t108.5 -182.5t39 -215.5q0 -115 -38 -218.5t-107.5 -181t-167 -123t-216.5 -45.5t-216 45.5t-166.5 123t-107.5 181t-38 218.5zM258 1352q0 49 24.5 77.5t69.5 47.5l217 88l217 -88q45 -18 70 -47 t25 -78t-38 -90t-87 -41q-18 0 -48 12t-59 24l-80 35l-80 -35q-29 -12 -58.5 -24t-47.5 -12q-49 0 -87 41t-38 90zM336 543q0 -53 14.5 -106.5t43 -95.5t72.5 -68.5t103 -26.5t103.5 26.5t73 68.5t43 95t14.5 107q0 53 -13.5 106t-42 96t-73 71t-105.5 28t-105 -28t-73 -71 t-42 -96t-13 -106z" />
<glyph unicode="&#xf5;" horiz-adv-x="1138" d="M41 543q0 113 39 216t108.5 182t166.5 126t214 47t214.5 -47t167 -126t108.5 -182.5t39 -215.5q0 -115 -38 -218.5t-107.5 -181t-167 -123t-216.5 -45.5t-216 45.5t-166.5 123t-107.5 181t-38 218.5zM229 1346q0 86 57.5 133t137.5 47q35 0 68.5 -8.5t63.5 -17.5 t54.5 -17t42.5 -8q14 0 34 9t41.5 20.5t43 20.5t41.5 9q47 0 71.5 -36t24.5 -79q0 -39 -17.5 -71.5t-46 -56t-64.5 -37t-72 -13.5q-25 0 -58 8t-65.5 17.5t-61 17.5t-47.5 8q-18 0 -33.5 -8t-32 -18.5t-34.5 -18.5t-45 -8q-39 0 -71 34t-32 73zM336 543q0 -53 14.5 -106.5 t43 -95.5t72.5 -68.5t103 -26.5t103.5 26.5t73 68.5t43 95t14.5 107q0 53 -13.5 106t-42 96t-73 71t-105.5 28t-105 -28t-73 -71t-42 -96t-13 -106z" />
<glyph unicode="&#xf6;" horiz-adv-x="1138" d="M41 543q0 113 39 216t108.5 182t166.5 126t214 47t214.5 -47t167 -126t108.5 -182.5t39 -215.5q0 -115 -38 -218.5t-107.5 -181t-167 -123t-216.5 -45.5t-216 45.5t-166.5 123t-107.5 181t-38 218.5zM197 1382q0 61 43 104.5t104 43.5t104.5 -43t43.5 -105 q0 -61 -43.5 -104t-104.5 -43t-104 43t-43 104zM336 543q0 -53 14.5 -106.5t43 -95.5t72.5 -68.5t103 -26.5t103.5 26.5t73 68.5t43 95t14.5 107q0 53 -13.5 106t-42 96t-73 71t-105.5 28t-105 -28t-73 -71t-42 -96t-13 -106zM647 1382q0 61 43 104.5t105 43.5q61 0 104 -43 t43 -105q0 -61 -43 -104t-104 -43t-104.5 43t-43.5 104z" />
<glyph unicode="&#xf7;" horiz-adv-x="1228" d="M72 518q0 55 32.5 89t90.5 34h839q57 0 90 -34t33 -89t-32.5 -89t-90.5 -34h-839q-57 0 -90 34t-33 89zM455 94q0 66 47 113t112 47q66 0 113 -47t47 -113t-47 -113t-113 -47t-112.5 47t-46.5 113zM455 942q0 66 47 113t112 47q66 0 113 -47t47 -113t-47 -113t-113 -47 t-112.5 47t-46.5 113z" />
<glyph unicode="&#xf8;" horiz-adv-x="1138" d="M10 39q0 35 21 55l108 113q-98 145 -98 336q0 113 39 216t108.5 182t167 126t213.5 47q96 0 178 -31.5t148 -89.5l94 99q27 31 55 30q35 0 59.5 -24.5t24.5 -59.5t-20 -55l-107 -111q47 -72 72 -155.5t25 -173.5q0 -115 -38 -218.5t-107.5 -181t-167 -123t-216.5 -45.5 q-96 0 -177 29t-144 82l-103 -106q-10 -10 -23 -17.5t-28 -7.5q-35 0 -59.5 24.5t-24.5 59.5zM336 543q0 -61 18 -113l351 365q-53 49 -136 49q-61 0 -105 -28t-73 -71t-42 -96t-13 -106zM442 291q51 -45 127 -45q59 0 103.5 26.5t73 68.5t43 95t14.5 107q0 57 -15 108z" />
<glyph unicode="&#xf9;" horiz-adv-x="1138" d="M84 406v532q0 74 41 119t106 45q66 0 107 -45t41 -119v-526q0 -92 58.5 -141.5t131.5 -49.5q74 0 132.5 49t58.5 142v526q0 74 41 119t106 45q66 0 107 -45t41 -119v-532q0 -199 -125 -315t-361 -116t-360.5 116t-124.5 315zM317 1456q0 20 8.5 43t24 41.5t35.5 30.5 t43 12q16 0 35.5 -5t42.5 -15l242 -99l16 -8q27 -14 42 -36.5t15 -45.5q0 -27 -8 -53.5t-22.5 -48t-35 -34.5t-42.5 -13h-22.5t-12.5 2t-15.5 6t-31.5 12l-230 90q-84 33 -84 121z" />
<glyph unicode="&#xfa;" horiz-adv-x="1138" d="M84 406v532q0 74 41 119t106 45q66 0 107 -45t41 -119v-526q0 -92 58.5 -141.5t131.5 -49.5q74 0 132.5 49t58.5 142v526q0 74 41 119t106 45q66 0 107 -45t41 -119v-532q0 -199 -125 -315t-361 -116t-360.5 116t-124.5 315zM317 1374q0 23 15.5 45.5t42.5 36.5l16 8 l242 99q23 10 42 15t36 5q23 0 43 -12t35.5 -30.5t23.5 -41t8 -43.5q0 -88 -84 -121l-229 -90q-23 -8 -32 -12t-15 -6t-13.5 -2h-21.5q-23 0 -43.5 13t-34.5 34.5t-22.5 48.5t-8.5 53z" />
<glyph unicode="&#xfb;" horiz-adv-x="1138" d="M84 406v532q0 74 41 119t106 45q66 0 107 -45t41 -119v-526q0 -92 58.5 -141.5t131.5 -49.5q74 0 132.5 49t58.5 142v526q0 74 41 119t106 45q66 0 107 -45t41 -119v-532q0 -199 -125 -315t-361 -116t-360.5 116t-124.5 315zM258 1352q0 49 24.5 77.5t69.5 47.5l217 88 l217 -88q45 -18 70 -47t25 -78t-38 -90t-87 -41q-18 0 -48 12t-59 24l-80 35l-80 -35q-29 -12 -58.5 -24t-47.5 -12q-49 0 -87 41t-38 90z" />
<glyph unicode="&#xfc;" horiz-adv-x="1138" d="M84 406v532q0 74 41 119t106 45q66 0 107 -45t41 -119v-526q0 -92 58.5 -141.5t131.5 -49.5q74 0 132.5 49t58.5 142v526q0 74 41 119t106 45q66 0 107 -45t41 -119v-532q0 -199 -125 -315t-361 -116t-360.5 116t-124.5 315zM197 1382q0 61 43 104.5t104 43.5t104.5 -43 t43.5 -105q0 -61 -43.5 -104t-104.5 -43t-104 43t-43 104zM647 1382q0 61 43 104.5t105 43.5q61 0 104 -43t43 -105q0 -61 -43 -104t-104 -43t-104.5 43t-43.5 104z" />
<glyph unicode="&#xfd;" horiz-adv-x="985" d="M-4 975q0 27 13.5 50.5t33.5 40.5t45 26.5t47 9.5q53 0 91 -27.5t57 -77.5l202 -555l217 555q18 49 56.5 77t91.5 28q23 0 47.5 -9.5t45 -26.5t33.5 -41t13 -50q0 -45 -14 -76l-494 -1229q-18 -47 -52 -81.5t-87 -34.5q-76 0 -115 39.5t-39 87.5q0 23 5.5 44t13.5 42 l129 319l-326 813q-6 16 -10 34.5t-4 41.5zM241 1374q0 23 15.5 45.5t42.5 36.5l16 8l242 99q23 10 42 15t36 5q23 0 43 -12t35.5 -30.5t23.5 -41t8 -43.5q0 -88 -84 -121l-229 -90q-23 -8 -32 -12t-15 -6t-13.5 -2h-21.5q-23 0 -43.5 13t-34.5 34.5t-22.5 48.5t-8.5 53z " />
<glyph unicode="&#xfe;" d="M84 -283v1696q0 74 41 119t106 45q66 0 107 -45t41 -119v-434h4q39 68 114.5 101.5t151.5 33.5q111 0 201 -47t153.5 -126t97.5 -178t34 -204q0 -102 -32 -206.5t-92.5 -188.5t-148.5 -136.5t-203 -52.5q-78 0 -149.5 26t-130.5 77v-361q0 -74 -41 -118.5t-107 -44.5 t-106.5 45t-40.5 118zM379 537q0 -53 14.5 -105.5t43 -93.5t71.5 -66.5t102 -25.5q57 0 100.5 27.5t72 70.5t43 96.5t14.5 106.5q0 51 -14.5 104.5t-43 96.5t-71.5 69.5t-101 26.5q-61 0 -104 -28t-71.5 -72t-42 -99t-13.5 -108z" />
<glyph unicode="&#xff;" horiz-adv-x="985" d="M-4 975q0 27 13.5 50.5t33.5 40.5t45 26.5t47 9.5q53 0 91 -27.5t57 -77.5l202 -555l217 555q18 49 56.5 77t91.5 28q23 0 47.5 -9.5t45 -26.5t33.5 -41t13 -50q0 -45 -14 -76l-494 -1229q-18 -47 -52 -81.5t-87 -34.5q-76 0 -115 39.5t-39 87.5q0 23 5.5 44t13.5 42 l129 319l-326 813q-6 16 -10 34.5t-4 41.5zM121 1382q0 61 43 104.5t104 43.5t104.5 -43t43.5 -105q0 -61 -43.5 -104t-104.5 -43t-104 43t-43 104zM571 1382q0 61 43 104.5t105 43.5q61 0 104 -43t43 -105q0 -61 -43 -104t-104 -43t-104.5 43t-43.5 104z" />
<glyph unicode="&#x152;" horiz-adv-x="1972" d="M35 729q0 160 51 297t144.5 238.5t222.5 160t286 58.5q106 0 213 -36t187 -118l4 4q0 41 6 65.5t23.5 38t46 17.5t71.5 4h494q74 0 109.5 -44t35.5 -97t-37 -97t-108 -44h-365v-299h340q76 0 113 -44.5t37 -97.5t-38 -97t-112 -44h-340v-311h383q74 0 110 -44t36 -98 q0 -53 -37 -97t-109 -44h-569q-35 0 -53.5 9t-27.5 25.5t-10 38t-1 44.5h-4q-35 -45 -81 -73t-99.5 -43t-109.5 -20.5t-108 -5.5q-156 0 -285.5 58.5t-223 160t-144.5 238.5t-51 297zM354 729q0 -94 23.5 -179t72 -149.5t120 -103.5t169.5 -39t170 39t120 103.5t71.5 149.5 t23.5 179q0 92 -24.5 178t-72.5 150.5t-119.5 103.5t-168.5 39q-96 0 -167.5 -39t-120 -103.5t-73 -150.5t-24.5 -178z" />
<glyph unicode="&#x153;" horiz-adv-x="1857" d="M41 543q0 113 39 216t108.5 182t167 126t213.5 47q123 0 217.5 -48t163.5 -118q53 68 143.5 117t209.5 49q106 0 203.5 -44t171 -117.5t116.5 -171t43 -203.5q0 -66 -30.5 -99t-98.5 -33h-629q16 -111 96 -162t185 -51q55 0 103 18.5t89 41t76 41t64 18.5q47 0 83.5 -40 t36.5 -87t-44 -92t-113.5 -80t-155.5 -56.5t-168 -21.5q-129 0 -228 46.5t-163 123.5q-61 -76 -154.5 -123t-216.5 -47q-119 0 -216 45.5t-166.5 123t-107.5 181t-38 218.5zM336 543q0 -53 14.5 -106.5t43 -95.5t72.5 -68.5t103 -26.5t103.5 26.5t73 68.5t43 95t14.5 107 q0 53 -13.5 106t-42 96t-72.5 71t-106 28q-61 0 -105 -28t-73 -71t-42 -96t-13 -106zM1073 643h469q-12 98 -71.5 161.5t-161.5 63.5q-98 0 -161 -65.5t-75 -159.5z" />
<glyph unicode="&#x178;" horiz-adv-x="1097" d="M-20 1321q0 61 40.5 105t106.5 44q84 0 127 -61l295 -428l295 428q43 61 127 61q66 0 106.5 -44t40.5 -105q0 -51 -28 -92l-388 -545v-547q0 -57 -35.5 -103t-117.5 -46t-118 46t-36 103v547l-387 545q-29 41 -28 92zM177 1714q0 61 43 104.5t104 43.5t104.5 -43 t43.5 -105q0 -61 -43.5 -104t-104.5 -43t-104 43t-43 104zM627 1714q0 61 43 104.5t105 43.5q61 0 104 -43t43 -105q0 -61 -43 -104t-104 -43t-104.5 43t-43.5 104z" />
<glyph unicode="&#x2c6;" horiz-adv-x="454" d="M-84 1352q0 49 24.5 77.5t69.5 47.5l217 88l217 -88q45 -18 70 -47t25 -78t-38 -90t-87 -41q-18 0 -48 12t-59 24l-80 35l-80 -35q-29 -12 -58.5 -24t-47.5 -12q-49 0 -87 41t-38 90z" />
<glyph unicode="&#x2dc;" horiz-adv-x="454" d="M-113 1346q0 86 57.5 133t137.5 47q35 0 68.5 -8.5t63.5 -17.5t54.5 -17t42.5 -8q14 0 34 9t41.5 20.5t43 20.5t41.5 9q47 0 71.5 -36t24.5 -79q0 -39 -17.5 -71.5t-46 -56t-64.5 -37t-72 -13.5q-25 0 -58 8t-65.5 17.5t-61 17.5t-47.5 8q-18 0 -33.5 -8t-32 -18.5 t-34.5 -18.5t-45 -8q-39 0 -71 34t-32 73z" />
<glyph unicode="&#x2000;" horiz-adv-x="961" />
<glyph unicode="&#x2001;" horiz-adv-x="1923" />
<glyph unicode="&#x2002;" horiz-adv-x="961" />
<glyph unicode="&#x2003;" horiz-adv-x="1923" />
<glyph unicode="&#x2004;" horiz-adv-x="641" />
<glyph unicode="&#x2005;" horiz-adv-x="480" />
<glyph unicode="&#x2006;" horiz-adv-x="320" />
<glyph unicode="&#x2007;" horiz-adv-x="320" />
<glyph unicode="&#x2008;" horiz-adv-x="240" />
<glyph unicode="&#x2009;" horiz-adv-x="384" />
<glyph unicode="&#x200a;" horiz-adv-x="106" />
<glyph unicode="&#x2010;" horiz-adv-x="796" d="M63 592q0 55 30 93t87 38h436q57 0 87 -38t30 -93q0 -53 -29.5 -90t-87.5 -37h-436q-57 0 -87 37t-30 90z" />
<glyph unicode="&#x2011;" horiz-adv-x="796" d="M63 592q0 55 30 93t87 38h436q57 0 87 -38t30 -93q0 -53 -29.5 -90t-87.5 -37h-436q-57 0 -87 37t-30 90z" />
<glyph unicode="&#x2012;" horiz-adv-x="796" d="M63 592q0 55 30 93t87 38h436q57 0 87 -38t30 -93q0 -53 -29.5 -90t-87.5 -37h-436q-57 0 -87 37t-30 90z" />
<glyph unicode="&#x2013;" horiz-adv-x="1024" d="M0 594q0 55 33 89t90 34h778q57 0 90 -34t33 -89t-33 -89t-90 -34h-778q-57 0 -90 34t-33 89z" />
<glyph unicode="&#x2014;" horiz-adv-x="2048" d="M-123 594q0 55 33 89t90 34h2048q57 0 90 -34t33 -89t-33 -89t-90 -34h-2048q-57 0 -90 34t-33 89z" />
<glyph unicode="&#x2018;" horiz-adv-x="491" d="M18 1024q0 23 7.5 42t17.5 40l170 307q20 35 57 52.5t62 17.5q55 0 98 -40t43 -95q0 -23 -8 -43.5t-19 -38.5l-172 -308q-20 -35 -56 -52t-60 -17q-55 0 -97.5 40t-42.5 95z" />
<glyph unicode="&#x2019;" horiz-adv-x="491" d="M18 1024q0 23 7.5 42t17.5 40l170 307q20 35 57 52.5t62 17.5q55 0 98 -40t43 -95q0 -23 -8 -43.5t-19 -38.5l-172 -308q-20 -35 -56 -52t-60 -17q-55 0 -97.5 40t-42.5 95z" />
<glyph unicode="&#x201a;" horiz-adv-x="491" d="M18 -139q0 23 7.5 42t17.5 40l170 307q20 35 57 52t62 17q55 0 98 -39.5t43 -95.5q0 -23 -8 -43t-19 -39l-172 -307q-20 -35 -56 -52t-60 -17q-55 0 -97.5 39.5t-42.5 95.5z" />
<glyph unicode="&#x201c;" horiz-adv-x="909" d="M18 1024q0 23 7.5 42t17.5 40l170 307q20 35 57 52.5t62 17.5q55 0 98 -40t43 -95q0 -23 -8 -43.5t-19 -38.5l-172 -308q-20 -35 -56 -52t-60 -17q-55 0 -97.5 40t-42.5 95zM436 1024q0 23 7.5 42t17.5 40l170 307q20 35 57 52.5t62 17.5q55 0 98 -40t43 -95 q0 -23 -8.5 -43.5t-18.5 -38.5l-172 -308q-20 -35 -56 -52t-61 -17q-55 0 -97 40t-42 95z" />
<glyph unicode="&#x201d;" horiz-adv-x="909" d="M18 1024q0 23 7.5 42t17.5 40l170 307q20 35 57 52.5t62 17.5q55 0 98 -40t43 -95q0 -23 -8 -43.5t-19 -38.5l-172 -308q-20 -35 -56 -52t-60 -17q-55 0 -97.5 40t-42.5 95zM436 1024q0 23 7.5 42t17.5 40l170 307q20 35 57 52.5t62 17.5q55 0 98 -40t43 -95 q0 -23 -8.5 -43.5t-18.5 -38.5l-172 -308q-20 -35 -56 -52t-61 -17q-55 0 -97 40t-42 95z" />
<glyph unicode="&#x201e;" horiz-adv-x="909" d="M18 -139q0 23 7.5 42t17.5 40l170 307q20 35 57 52t62 17q55 0 98 -39.5t43 -95.5q0 -23 -8 -43t-19 -39l-172 -307q-20 -35 -56 -52t-60 -17q-55 0 -97.5 39.5t-42.5 95.5zM436 -139q0 23 7.5 42t17.5 40l170 307q20 35 57 52t62 17q55 0 98 -39.5t43 -95.5 q0 -23 -8.5 -43t-18.5 -39l-172 -307q-20 -35 -56 -52t-61 -17q-55 0 -97 39.5t-42 95.5z" />
<glyph unicode="&#x2022;" horiz-adv-x="1024" d="M147 729q0 76 29 142.5t78 115.5t115.5 78t142.5 29t142.5 -29t115.5 -78t78 -115.5t29 -142.5t-29 -142.5t-78 -115.5t-115.5 -77.5t-142.5 -28.5t-142.5 28.5t-115.5 77.5t-78 115.5t-29 142.5z" />
<glyph unicode="&#x2026;" horiz-adv-x="2048" d="M182 135q0 66 47 113t113 47t113 -47t47 -113t-47 -113t-113 -47t-113 47t-47 113zM864 135q0 66 47 113t113 47t113 -47t47 -113t-47 -113t-113 -47t-113 47t-47 113zM1546 135q0 66 47 113t113 47t113 -47t47 -113t-47 -113t-113 -47t-113 47t-47 113z" />
<glyph unicode="&#x202f;" horiz-adv-x="384" />
<glyph unicode="&#x2039;" horiz-adv-x="606" d="M76 584q0 29 16.5 60.5t32.5 53.5l199 281q31 35 88 35q55 0 86.5 -34t31.5 -79q0 -41 -22 -78l-162 -248l162 -243q14 -20 18 -38t4 -32q0 -53 -33.5 -91t-88.5 -38q-31 0 -58.5 13.5t-44.5 37.5l-211 326q-10 16 -14 35.5t-4 38.5z" />
<glyph unicode="&#x203a;" horiz-adv-x="606" d="M76 246q0 41 22 78l162 247l-162 244q-14 20 -18 37.5t-4 32.5q0 53 33.5 91t89.5 38q31 0 58.5 -13.5t43.5 -37.5l211 -326q10 -16 14 -35.5t4 -38.5q0 -29 -16 -60.5t-33 -53.5l-198 -281q-31 -35 -88 -35q-55 0 -87 34t-32 79z" />
<glyph unicode="&#x205f;" horiz-adv-x="480" />
<glyph unicode="&#x2122;" horiz-adv-x="2048" d="M86 1366q0 47 25.5 69.5t66.5 22.5h570q41 0 66.5 -22.5t25.5 -69.5t-26 -69.5t-66 -22.5h-162v-537q0 -55 -33 -89t-90 -34t-90 34t-33 89v537h-162q-41 0 -66.5 22.5t-25.5 69.5zM958 737v606q0 53 38 90t137 37q29 0 54 -3t47.5 -16t43 -39t37.5 -69l145 -372l146 372 q16 43 36.5 69t43 39t48 16t54.5 3q98 0 136 -36.5t38 -90.5v-606q0 -55 -22.5 -89t-88.5 -34t-88 34t-22 89v426h-4l-148 -426q-18 -53 -41.5 -88t-87.5 -35q-63 0 -86.5 35t-42.5 88l-147 426h-4v-426q0 -55 -22.5 -89t-88.5 -34t-88.5 34t-22.5 89z" />
<glyph unicode="&#x25fc;" horiz-adv-x="1105" d="M0 0v1106h1106v-1106h-1106z" />
<glyph unicode="&#xfb01;" horiz-adv-x="1062" d="M-43 961q0 55 37 92t92 37h66v151q0 164 87 250t222 86q31 0 62.5 -6t57 -21.5t43 -41t17.5 -64.5q0 -125 -109 -125q-18 0 -33.5 -2t-27.5 -12.5t-18.5 -32t-6.5 -62.5v-120h72q66 0 105 -29t39 -100q0 -49 -10.5 -75t-29 -38t-45 -14.5t-59.5 -2.5h-72v-679 q0 -74 -40.5 -119t-106.5 -45t-106.5 45t-40.5 119v679h-66q-59 0 -94 35t-35 95zM670 1382q0 31 13 61t36.5 52.5t53.5 35.5t63 13t62.5 -13t53 -35.5t36.5 -51.5t13 -62q0 -70 -48 -120t-117 -50q-33 0 -63 14.5t-53.5 37t-36.5 53.5t-13 65zM688 152v786q0 74 41 119 t107 45t106.5 -45t40.5 -119v-786q0 -74 -41 -119t-106 -45q-66 0 -107 45t-41 119z" />
<glyph unicode="&#xfb02;" horiz-adv-x="1062" d="M-43 961q0 55 37 92t92 37h66v151q0 164 87 250t222 86q31 0 62.5 -6t57 -21.5t43 -41t17.5 -64.5q0 -125 -109 -125q-18 0 -33.5 -2t-27.5 -12.5t-18.5 -32t-6.5 -62.5v-120h72q66 0 105 -29t39 -100q0 -49 -10.5 -75t-29 -38t-45 -14.5t-59.5 -2.5h-72v-679 q0 -74 -40.5 -119t-106.5 -45t-106.5 45t-40.5 119v679h-66q-59 0 -94 35t-35 95zM688 152v1261q0 74 41 119t107 45t106.5 -45t40.5 -119v-1261q0 -74 -41 -119t-106 -45q-66 0 -107 45t-41 119z" />
</font>
</defs>
</svg>
