<?xml version="1.0" standalone="no"?>
<!DOCTYPE svg PUBLIC "-//W3C//DTD SVG 1.1//EN" "http://www.w3.org/Graphics/SVG/1.1/DTD/svg11.dtd" >
<svg xmlns="http://www.w3.org/2000/svg" xmlns:xlink="http://www.w3.org/1999/xlink" version="1.1">
<metadata></metadata>
<defs>
<font id="vagroundedtmelight" horiz-adv-x="417" >
<font-face units-per-em="2048" ascent="1495" descent="-553" />
<missing-glyph horiz-adv-x="512" />
<glyph horiz-adv-x="0" />
<glyph unicode="&#xd;" horiz-adv-x="512" />
<glyph unicode=" "  horiz-adv-x="512" />
<glyph unicode="&#x09;" horiz-adv-x="512" />
<glyph unicode="&#xa0;" horiz-adv-x="512" />
<glyph unicode="!" horiz-adv-x="606" d="M199 92q0 43 30.5 74t73.5 31t74 -31t31 -74t-31 -73.5t-74 -30.5t-73.5 30.5t-30.5 73.5zM213 487v887q0 45 24.5 70.5t65.5 25.5t65.5 -25.5t24.5 -70.5v-887q0 -45 -24.5 -70.5t-65.5 -25.5t-65.5 25.5t-24.5 70.5z" />
<glyph unicode="&#x22;" horiz-adv-x="684" d="M113 1104v278q0 39 20.5 63.5t63.5 24.5t63.5 -24.5t20.5 -63.5v-278q0 -39 -20.5 -63.5t-63.5 -24.5t-63.5 24.5t-20.5 63.5zM403 1104v278q0 39 20.5 63.5t63.5 24.5t63.5 -24.5t20.5 -63.5v-278q0 -39 -20.5 -63.5t-63.5 -24.5t-63.5 24.5t-20.5 63.5z" />
<glyph unicode="#" horiz-adv-x="1097" d="M29 510q0 35 24.5 51.5t59.5 16.5h143l43 303h-125q-35 0 -59.5 16t-24.5 51t24.5 51.5t59.5 16.5h143l54 381q4 35 20.5 54t57.5 19q37 0 53 -20t16 -49q0 -16 -3 -37l-7 -49l-41 -299h244l53 381q4 35 20.5 54t57.5 19q37 0 53 -20t16 -49q0 -16 -3 -37l-7 -49 l-41 -299h125q35 0 59.5 -16.5t24.5 -51.5t-24.5 -51t-59.5 -16h-143l-43 -303h125q35 0 59.5 -16.5t24.5 -51.5t-25 -51.5t-59 -16.5h-144l-53 -381q-4 -35 -20.5 -54t-57.5 -19q-37 0 -53 20.5t-16 48.5q0 16 3 37l7 49l41 299h-244l-53 -381q-4 -35 -20.5 -54t-57.5 -19 q-37 0 -53.5 20.5t-16.5 48.5q0 16 3.5 37t7.5 49l41 299h-125q-35 0 -59.5 16.5t-24.5 51.5zM406 578h243l43 303h-243z" />
<glyph unicode="$" horiz-adv-x="985" d="M43 170q0 33 18.5 59.5t53.5 26.5q29 0 58.5 -17.5t67.5 -39t88 -39t117 -17.5v568q-70 25 -139 51t-124.5 68t-90.5 105.5t-35 160.5q0 61 27 123.5t76 116t121.5 90t164.5 44.5v97q0 18 11.5 30.5t31.5 12.5t31.5 -12.5t11.5 -30.5v-97q61 -4 118 -19t101 -37.5 t69.5 -51.5t25.5 -62t-21.5 -56t-56.5 -23q-27 0 -48.5 12t-46 27.5t-57 31t-84.5 23.5v-449q72 -25 145 -54.5t132 -75.5t96 -114.5t37 -172.5q0 -82 -26.5 -159t-79 -138.5t-129 -102.5t-175.5 -53v-105q0 -18 -11 -30.5t-32 -12.5q-20 0 -31.5 12.5t-11.5 30.5v97 q-78 0 -150.5 16t-128.5 42t-90 58.5t-34 65.5zM250 1108q0 -43 15.5 -75t41 -56.5t61 -43t78.5 -34.5v416q-86 -10 -141 -65.5t-55 -141.5zM532 154q104 23 161 99.5t57 186.5q0 51 -17.5 88t-47.5 66t-68.5 49.5t-84.5 36.5v-526z" />
<glyph unicode="%" horiz-adv-x="1517" d="M86 1124q0 68 19.5 131.5t59.5 110.5t97 75.5t135 28.5q76 0 134.5 -28.5t98.5 -75.5t59.5 -110.5t19.5 -131.5t-19.5 -131t-59.5 -110t-98.5 -76t-134.5 -29q-78 0 -135 29t-97 76t-59.5 110.5t-19.5 130.5zM221 1124q0 -41 9.5 -83t30 -75.5t54 -55t82.5 -21.5t83 21.5 t54.5 55t29.5 75.5t9 83t-9 83t-29.5 76t-54.5 55.5t-83 21.5t-82.5 -21.5t-54 -55.5t-30 -76t-9.5 -83zM399 27q0 12 6.5 31.5t22.5 60.5l545 1306q27 61 71 62q37 0 54.5 -18.5t17.5 -36.5q0 -12 -5 -31t-24 -62l-544 -1306q-14 -33 -30.5 -47.5t-45.5 -14.5 q-35 0 -51.5 17.5t-16.5 38.5zM809 334q0 68 19.5 131t59.5 110.5t97 76t135 28.5q76 0 134.5 -28.5t98.5 -76t59.5 -111t19.5 -130.5q0 -68 -19.5 -131.5t-59.5 -110.5t-98.5 -75.5t-134.5 -28.5q-78 0 -135 28.5t-97 75.5t-59.5 110.5t-19.5 131.5zM944 334q0 -41 9.5 -83 t30 -76t54 -55.5t82.5 -21.5t83 21.5t54.5 55.5t29.5 76t9 83t-9 83t-29.5 75.5t-54.5 55t-83 21.5t-82.5 -21.5t-54 -55t-30 -75.5t-9.5 -83z" />
<glyph unicode="&#x26;" horiz-adv-x="1366" d="M74 412q0 92 22.5 161.5t64.5 124t102.5 99.5t135.5 92q-61 63 -111 137t-50 148q0 80 27.5 137t76.5 92t113.5 51t138.5 16q63 0 121.5 -19t102.5 -53t69.5 -82t25.5 -104q0 -70 -22.5 -124t-59 -97t-84 -76.5t-96.5 -60.5l326 -385l12 16q35 47 62.5 93.5t51 82t45 57 t44.5 21.5q31 0 53.5 -15t22.5 -46q0 -41 -40 -118t-151 -210l178 -211q18 -23 27.5 -39t9.5 -39q0 -33 -21.5 -53t-51.5 -20q-43 0 -70 32l-176 203q-102 -129 -218 -182t-233 -53q-90 0 -171 28.5t-142.5 83t-98 133t-36.5 179.5zM254 432q0 -57 17.5 -107.5t52 -88 t89 -59t126.5 -21.5q94 0 170.5 41t162.5 145l-372 430q-72 -41 -119 -80t-76 -81t-40 -86t-11 -93zM418 1178q0 -47 41 -99.5t94 -111.5q31 18 64.5 40.5t62.5 50t47 58.5t18 66q0 74 -52 109.5t-113 35.5q-66 0 -114 -36.5t-48 -112.5z" />
<glyph unicode="'" d="M125 1104v278q0 39 20.5 63.5t63.5 24.5t63.5 -24.5t20.5 -63.5v-278q0 -39 -20.5 -63.5t-63.5 -24.5t-63.5 24.5t-20.5 63.5z" />
<glyph unicode="(" horiz-adv-x="493" d="M133 651q0 211 31 412t88 352q14 37 34.5 64.5t55.5 27.5q37 0 54.5 -18.5t17.5 -40.5q0 -23 -9.5 -48.5t-19.5 -60.5q-41 -127 -62.5 -292.5t-21.5 -395.5q0 -229 21.5 -395t62.5 -293q10 -35 19.5 -60.5t9.5 -47.5q0 -23 -17.5 -41.5t-54.5 -18.5q-35 0 -55.5 27.5 t-34.5 64.5q-57 152 -88 352.5t-31 411.5z" />
<glyph unicode=")" horiz-adv-x="493" d="M80 -145q0 23 9 48t20 60q41 127 62.5 293t21.5 395t-21.5 395t-62.5 293q-10 35 -19.5 60.5t-9.5 48.5t17.5 41t54.5 18q35 0 55 -27.5t35 -64.5q57 -152 87.5 -352.5t30.5 -411.5t-30.5 -411.5t-87.5 -352.5q-14 -37 -35 -64.5t-55 -27.5q-37 0 -54.5 18.5t-17.5 41.5z " />
<glyph unicode="*" horiz-adv-x="798" d="M78 967q0 20 7 35.5t40 29.5l182 76l-182 76q-33 14 -40 29.5t-7 35.5q0 29 20.5 49.5t51.5 20.5q18 0 40.5 -12.5t47 -33t52 -44t58.5 -43.5q0 55 -11 113.5t-11 99.5q0 29 19.5 50t53.5 21q35 0 54.5 -21.5t19.5 -49.5q0 -41 -11 -99.5t-11 -113.5q31 20 58.5 43.5 t52 44t47 33t40.5 12.5q31 0 51.5 -20.5t20.5 -49.5q0 -20 -7 -35.5t-40 -29.5l-182 -76l182 -76q33 -14 40 -29.5t7 -35.5q0 -29 -20.5 -49.5t-51.5 -20.5q-18 0 -40.5 12.5t-47 33t-52.5 43t-58 44.5q0 -55 11 -113.5t11 -99.5q0 -29 -19.5 -50.5t-54.5 -21.5t-54 21.5 t-19 50.5q0 41 11 99.5t11 113.5q-31 -23 -58.5 -45t-52 -42.5t-47 -33t-40.5 -12.5q-31 0 -51.5 20.5t-20.5 49.5z" />
<glyph unicode="+" horiz-adv-x="1228" d="M96 518q0 43 24.5 63.5t63.5 20.5h346v346q0 39 20.5 63.5t63.5 24.5t63.5 -24.5t20.5 -63.5v-346h346q39 0 64 -20.5t25 -63.5t-25 -63.5t-64 -20.5h-346v-346q0 -39 -20.5 -63.5t-63.5 -24.5t-63.5 24.5t-20.5 63.5v346h-346q-39 0 -63.5 20.5t-24.5 63.5z" />
<glyph unicode="," horiz-adv-x="512" d="M45 -180q0 31 23 76l114 225q16 29 36 52.5t61 23.5q33 0 57 -21.5t24 -56.5q0 -31 -22 -76l-115 -225q-16 -29 -35.5 -52.5t-60.5 -23.5q-33 0 -57.5 21.5t-24.5 56.5z" />
<glyph unicode="-" horiz-adv-x="720" d="M72 549q0 33 22.5 55.5t55.5 22.5h421q33 0 55.5 -22.5t22.5 -55.5t-22.5 -55.5t-55.5 -22.5h-421q-33 0 -55.5 22.5t-22.5 55.5z" />
<glyph unicode="." horiz-adv-x="512" d="M152 92q0 43 30.5 74t73.5 31t73.5 -31t30.5 -74t-30.5 -73.5t-73.5 -30.5t-73.5 30.5t-30.5 73.5z" />
<glyph unicode="/" horiz-adv-x="833" d="M41 63q0 27 29 91l559 1255q10 25 29.5 43t54.5 18t57.5 -20t22.5 -55q0 -27 -29 -90l-559 -1256q-10 -25 -29.5 -43t-54.5 -18t-57.5 20.5t-22.5 54.5z" />
<glyph unicode="0" horiz-adv-x="1097" d="M68 729q0 176 37.5 313.5t103 232.5t153 145t187.5 50t187 -50t152.5 -145t103.5 -232.5t38 -313.5t-38 -313t-103.5 -232.5t-152.5 -145.5t-187 -50t-187.5 50t-153 145.5t-103 232.5t-37.5 313zM260 729q0 -154 22.5 -264.5t61.5 -182t92 -105.5t113 -34q59 0 112.5 34 t92.5 105.5t61.5 182t22.5 264.5t-22.5 264.5t-61.5 182t-92.5 105.5t-112.5 34t-112.5 -34t-92.5 -105.5t-61.5 -182t-22.5 -264.5z" />
<glyph unicode="1" horiz-adv-x="720" d="M70 1380q0 33 22.5 55.5t54.5 22.5h314q27 0 41 -7t14 -42v-1325q0 -45 -24.5 -70.5t-65.5 -25.5t-65.5 25.5t-24.5 70.5v1219h-189q-33 0 -55 22.5t-22 54.5z" />
<glyph unicode="2" horiz-adv-x="1097" d="M104 1014q0 90 31 173t89.5 145.5t145.5 100t199 37.5q90 0 163 -29.5t124 -80.5t79 -116.5t28 -135.5q0 -63 -15.5 -136t-85.5 -165l-489 -651h553q33 0 55.5 -22.5t22.5 -55.5t-23 -55.5t-55 -22.5h-707q-57 0 -77.5 25.5t-20.5 48.5q0 16 8 32.5t31 49.5l504 673 q45 59 75.5 126t30.5 132q0 100 -66.5 164t-164.5 64q-66 0 -115 -25.5t-83 -70.5t-51.5 -105.5t-17.5 -128.5q0 -47 -25.5 -64.5t-53.5 -17.5q-88 0 -89 111z" />
<glyph unicode="3" horiz-adv-x="1097" d="M84 324q0 47 21.5 73.5t54.5 26.5q41 0 62.5 -23.5t37.5 -70.5q27 -78 84 -132.5t162 -54.5q61 0 111.5 21.5t87 58.5t57 86t20.5 105q0 82 -20.5 134t-55 83t-80.5 43t-98 12q-53 0 -81.5 21.5t-28.5 56.5q0 31 21.5 49t72.5 29q111 25 158 80t47 155q0 104 -56.5 171 t-150.5 67q-53 0 -91 -17.5t-62.5 -47t-37 -68.5t-16.5 -80q-2 -31 -11 -48.5t-22.5 -24.5t-27 -9t-25.5 -2q-39 0 -60.5 24.5t-21.5 59.5q0 74 25.5 140.5t75 116.5t121 80.5t161.5 30.5q88 0 157.5 -29.5t119 -81.5t76 -121t26.5 -144q0 -92 -43 -174t-129 -136 q123 -37 186.5 -133t63.5 -221q0 -104 -36 -186t-99.5 -138.5t-147.5 -87t-182 -30.5q-115 0 -194.5 36.5t-132 90t-76 111t-23.5 98.5z" />
<glyph unicode="4" horiz-adv-x="1097" d="M25 438q0 20 12 46t33 59l516 846q29 47 61.5 64t79.5 17q59 0 98 -34.5t39 -114.5v-791h92q33 0 55.5 -22.5t22.5 -54.5q0 -33 -22.5 -55.5t-55.5 -22.5h-92v-291q0 -45 -24.5 -70.5t-65.5 -25.5t-65.5 25.5t-24.5 70.5v291h-582q-47 0 -62 17.5t-15 45.5zM250 530h434 v748h-4z" />
<glyph unicode="5" horiz-adv-x="1097" d="M90 229q0 29 15.5 53.5t50.5 24.5q27 0 55.5 -23.5t67 -52t92 -52t131.5 -23.5q66 0 117 25.5t86.5 68.5t55 100.5t19.5 120.5t-14 120.5t-45 98.5t-79 65.5t-114 24.5q-49 0 -87 -8t-67.5 -19.5t-52 -19.5t-40.5 -8q-33 0 -47.5 16.5t-14.5 38.5q0 16 5 51t9 70l76 510 q4 29 19.5 38t48.5 9h506q33 0 55.5 -22.5t22.5 -55.5t-23 -55t-55 -22h-416l-59 -396q45 23 93 32t99 9q86 0 154.5 -37t117 -98t75 -141t26.5 -166q0 -117 -33 -213t-93.5 -164t-148.5 -104.5t-198 -36.5q-90 0 -166 25.5t-130 62.5t-84 79t-30 74z" />
<glyph unicode="6" horiz-adv-x="1097" d="M106 489q0 160 48.5 300.5t123 259t163.5 215t173 166.5q29 23 47.5 31.5t36.5 8.5q23 0 48.5 -21.5t25.5 -62.5q0 -23 -16.5 -42t-55.5 -54q-43 -39 -81.5 -79t-76.5 -87t-76 -105t-79 -134h4q51 27 104.5 42t127.5 15q88 0 157.5 -39t115.5 -105.5t70.5 -153.5 t24.5 -181q0 -98 -33.5 -185.5t-93 -152t-141.5 -101t-178 -36.5t-176 37.5t-138.5 104.5t-91.5 159t-33 200zM287 471q0 -63 15 -120.5t46 -100.5t79 -68.5t116 -25.5t116 25.5t78.5 68.5t46 100.5t15.5 120.5q0 145 -60.5 230t-195.5 85q-68 0 -116 -25.5t-79 -68.5 t-46 -100.5t-15 -120.5z" />
<glyph unicode="7" horiz-adv-x="1024" d="M57 1380q0 33 22.5 55.5t55.5 22.5h739q41 0 67 -12t26 -45q0 -23 -9.5 -46.5t-25.5 -62.5l-545 -1239q-18 -43 -49 -54t-59 -11q-18 0 -43 17.5t-25 51.5q0 10 6 33t23 64l510 1144v5h-615q-33 0 -55.5 22.5t-22.5 54.5z" />
<glyph unicode="8" horiz-adv-x="1097" d="M102 449q0 63 17.5 122.5t51.5 108.5t83 84t113 49q-98 61 -144.5 134t-46.5 190q0 84 33 146.5t85 104.5t118.5 62t136.5 20t136.5 -20t118.5 -62t85 -104.5t33 -146.5q0 -117 -46.5 -190t-144.5 -134q63 -14 112.5 -49t83.5 -84t51 -108.5t17 -122.5q0 -90 -29.5 -173 t-87 -146.5t-140.5 -102.5t-189 -39t-189.5 39t-140.5 102.5t-87 146t-30 173.5zM295 440q0 -72 20.5 -126t55.5 -93t81 -58.5t97 -19.5t97 19.5t81 58.5t55.5 93.5t20.5 125.5q0 55 -16.5 108.5t-48 93.5t-79 64.5t-110.5 24.5t-110.5 -24.5t-79 -64.5t-48 -93.5 t-16.5 -108.5zM344 1102q0 -94 53.5 -154.5t151.5 -60.5t151.5 60.5t53.5 154.5q0 92 -53.5 152.5t-151.5 60.5t-151.5 -60.5t-53.5 -152.5z" />
<glyph unicode="9" horiz-adv-x="1097" d="M106 995q0 98 34 185.5t93.5 152t141.5 101t178 36.5q94 0 175 -37.5t139.5 -104t91 -159t32.5 -200.5q0 -160 -48 -300.5t-123 -259t-165 -215t-172 -165.5q-29 -23 -47 -32t-37 -9q-23 0 -48 21.5t-25 62.5q0 23 16 42t55 54q43 39 82 79t77 87t76 105.5t79 133.5h-4 q-51 -27 -104.5 -42t-127.5 -15q-90 0 -158.5 39t-114.5 105.5t-71 152.5t-25 182zM299 987q0 -145 60.5 -230t195.5 -85q68 0 116 25.5t78.5 68.5t46 100.5t15.5 120.5t-15.5 120.5t-46 100.5t-78.5 69t-116 26t-116 -26t-78.5 -69t-46 -100t-15.5 -121z" />
<glyph unicode=":" horiz-adv-x="512" d="M152 92q0 43 30.5 74t73.5 31t73.5 -31t30.5 -74t-30.5 -73.5t-73.5 -30.5t-73.5 30.5t-30.5 73.5zM152 780q0 43 30.5 74t73.5 31t73.5 -31t30.5 -74t-30.5 -73.5t-73.5 -30.5t-73.5 30.5t-30.5 73.5z" />
<glyph unicode=";" horiz-adv-x="512" d="M45 -180q0 31 23 76l114 225q16 29 36 52.5t61 23.5q33 0 57 -21.5t24 -56.5q0 -31 -22 -76l-115 -225q-16 -29 -35.5 -52.5t-60.5 -23.5q-33 0 -57.5 21.5t-24.5 56.5zM152 780q0 43 30.5 74t73.5 31t73.5 -31t30.5 -74t-30.5 -73.5t-73.5 -30.5t-73.5 30.5t-30.5 73.5z " />
<glyph unicode="&#x3c;" horiz-adv-x="1228" d="M94 518q0 31 16.5 52.5t57.5 41.5l799 400q33 16 57.5 26.5t42.5 10.5q27 0 47.5 -21.5t20.5 -54.5t-21.5 -49.5t-44.5 -28.5l-762 -377l762 -377q23 -12 44.5 -28.5t21.5 -49.5t-20.5 -54t-47.5 -21q-18 0 -43 10t-57 27l-799 399q-41 20 -57.5 41.5t-16.5 52.5z" />
<glyph unicode="=" horiz-adv-x="1228" d="M96 305q0 43 24.5 63.5t63.5 20.5h860q39 0 64 -20.5t25 -63.5t-25 -63.5t-64 -20.5h-860q-39 0 -63.5 20.5t-24.5 63.5zM96 731q0 43 24.5 63.5t63.5 20.5h860q39 0 64 -20.5t25 -63.5t-25 -63.5t-64 -20.5h-860q-39 0 -63.5 20.5t-24.5 63.5z" />
<glyph unicode="&#x3e;" horiz-adv-x="1228" d="M94 63q0 33 21.5 49.5t44.5 28.5l762 377l-762 377q-23 12 -44.5 28.5t-21.5 49.5t20.5 54.5t47.5 21.5q18 0 42.5 -10.5t57.5 -26.5l799 -400q41 -20 57.5 -41.5t16.5 -52.5t-16.5 -52.5t-57.5 -41.5l-799 -399q-33 -16 -57.5 -26.5t-42.5 -10.5q-27 0 -47.5 21.5 t-20.5 53.5z" />
<glyph unicode="?" horiz-adv-x="909" d="M37 1161q2 68 39 124t93 98t126 64.5t141 22.5q92 0 172 -28.5t138.5 -78.5t92 -118.5t33.5 -150.5q0 -166 -95 -267.5t-249 -134.5v-205q0 -45 -24.5 -70.5t-65.5 -25.5t-65.5 25.5t-24.5 70.5v232q0 35 2 56.5t16.5 35.5t43 24.5t82.5 20.5q61 12 98 38t56.5 56.5 t26.5 64.5t7 62q0 104 -66.5 165t-171.5 61q-82 0 -142 -35t-95 -133q-14 -41 -32.5 -54.5t-47.5 -13.5q-35 0 -62.5 25.5t-25.5 68.5zM334 92q0 43 30.5 74t73.5 31t74 -31t31 -74t-31 -73.5t-74 -30.5t-73.5 30.5t-30.5 73.5z" />
<glyph unicode="@" horiz-adv-x="1638" d="M74 729q0 156 61.5 291t167 235.5t245.5 157.5t300 57q145 0 275 -44t228.5 -124.5t156 -193.5t57.5 -248q0 -150 -53.5 -257t-132.5 -177t-167 -102.5t-155 -32.5q-123 0 -144 117h-4q-41 -47 -104.5 -82t-130.5 -35q-66 0 -123 25.5t-98 69.5t-64.5 102.5t-23.5 123.5 q0 98 33.5 192.5t94 170.5t145.5 122t189 46q76 0 137.5 -35t102.5 -119l27 82q10 35 29.5 47t52.5 12q25 0 45 -10t20 -35q0 -10 -3 -25.5t-13 -47.5l-127 -439q-6 -23 -11.5 -43t-5.5 -41q0 -27 13.5 -43t44.5 -16q49 0 97 34t87 90t62.5 129t23.5 153q0 119 -46 212 t-124 156.5t-179.5 97t-211.5 33.5q-133 0 -246 -47t-195.5 -129t-130 -192.5t-47.5 -237.5q0 -133 48.5 -244.5t134.5 -191.5t202.5 -125t251.5 -45q129 0 214 35t143.5 78t100.5 77.5t85 34.5q23 0 37 -12t14 -35q0 -43 -57 -97t-145.5 -102.5t-197 -81t-208.5 -32.5 q-162 0 -304 57t-247.5 156.5t-166 234.5t-60.5 293zM545 631q0 -82 49 -133.5t119 -51.5q76 0 129 45.5t86 109t48 130t15 109.5q0 147 -153 147q-74 0 -129.5 -33.5t-91 -86t-54 -116t-18.5 -120.5z" />
<glyph unicode="A" horiz-adv-x="1253" d="M20 63q0 18 10.5 47t14.5 44l453 1206q18 47 46.5 78.5t82.5 31.5q53 0 81.5 -31.5t47.5 -78.5l452 -1206q4 -14 14.5 -43t10.5 -48q0 -35 -25.5 -55t-60.5 -20q-37 0 -57.5 19.5t-30.5 47.5l-94 262h-676l-94 -262q-10 -29 -31 -48t-58 -19q-35 0 -60.5 20.5t-25.5 54.5 zM344 473h565l-280 789h-4z" />
<glyph unicode="B" horiz-adv-x="1099" d="M119 98v1262q0 41 22.5 69.5t73.5 28.5h317q96 0 170 -30.5t123 -81t75 -113t26 -123.5q0 -121 -56.5 -206t-146.5 -113v-5q66 -6 123 -36.5t100 -77.5t67.5 -110.5t24.5 -135.5q0 -86 -31.5 -164t-92 -136t-149.5 -92t-204 -34h-346q-51 0 -73.5 28.5t-22.5 69.5z M299 156h254q133 0 219 73.5t86 196.5q0 55 -19.5 104.5t-58.5 86t-94 57t-125 20.5h-262v-538zM299 842h205q117 0 179 67.5t62 167.5q0 98 -57 162t-178 64h-211v-461z" />
<glyph unicode="C" horiz-adv-x="1214" d="M63 729q0 141 41 275.5t122 238t203 165.5t284 62q96 0 174 -22.5t133 -56t85 -70.5t30 -64q0 -35 -19.5 -60.5t-54.5 -25.5q-31 0 -57.5 23t-63.5 49.5t-90 49t-137 22.5q-121 0 -208 -52.5t-142.5 -136.5t-81 -188.5t-25.5 -208.5t26.5 -208.5t81 -188.5t138.5 -136.5 t200 -52.5q82 0 142.5 20.5t106.5 45t80 45t63 20.5q33 0 52 -22.5t19 -61.5q0 -35 -35.5 -70.5t-99 -65t-147.5 -48t-181 -18.5q-158 0 -277.5 62.5t-199.5 165.5t-121 237.5t-41 275.5z" />
<glyph unicode="D" horiz-adv-x="1290" d="M129 98v1262q0 41 22.5 69.5t73.5 28.5h355q162 0 283.5 -58.5t202.5 -157.5t121 -230t40 -275q0 -164 -42 -299t-122 -232t-195.5 -151.5t-263.5 -54.5h-379q-51 0 -73.5 28.5t-22.5 69.5zM309 156h258q127 0 216 49t144.5 130t81 186.5t25.5 215.5q0 113 -26.5 215.5 t-84 180t-148.5 124t-220 46.5h-246v-1147z" />
<glyph unicode="E" horiz-adv-x="909" d="M119 98v1262q0 41 22.5 69.5t73.5 28.5h518q39 0 63.5 -20.5t24.5 -63.5t-24.5 -63.5t-63.5 -20.5h-434v-477h395q39 0 63.5 -20.5t24.5 -63.5t-24.5 -63.5t-63.5 -20.5h-395v-477h434q39 0 63.5 -20.5t24.5 -63.5t-24.5 -63.5t-63.5 -20.5h-518q-51 0 -73.5 28.5 t-22.5 69.5z" />
<glyph unicode="F" horiz-adv-x="833" d="M119 84v1276q0 41 22.5 69.5t73.5 28.5h512q39 0 63.5 -20.5t24.5 -63.5t-24.5 -63.5t-63.5 -20.5h-428v-477h379q39 0 63.5 -20.5t24.5 -63.5t-24.5 -63.5t-63.5 -20.5h-379v-561q0 -45 -24.5 -70.5t-65.5 -25.5t-65.5 25.5t-24.5 70.5z" />
<glyph unicode="G" horiz-adv-x="1366" d="M63 729q0 141 40 275.5t122 238t207 165.5t297 62q113 0 205 -25.5t157.5 -62t101.5 -76.5t36 -69q0 -35 -23.5 -60.5t-62.5 -25.5q-35 0 -69 25.5t-80 56.5t-112.5 56.5t-164.5 25.5q-123 0 -210 -52.5t-143.5 -136.5t-82 -188t-25.5 -209q0 -104 25.5 -208.5t82 -188.5 t145.5 -136.5t216 -52.5q106 0 185 41t131.5 104.5t78 141.5t25.5 152v86h-254q-39 0 -63.5 20.5t-24.5 63.5t24.5 63.5t63.5 20.5h303q70 0 100.5 -31t30.5 -117q0 -133 -27.5 -259t-98.5 -224.5t-190.5 -157.5t-306.5 -59q-158 0 -277.5 62.5t-199.5 165.5t-121 237.5 t-41 275.5z" />
<glyph unicode="H" horiz-adv-x="1366" d="M119 96v1266q0 53 24.5 80.5t65.5 27.5t65.5 -27.5t24.5 -80.5v-553h768v553q0 53 24.5 80.5t65.5 27.5t65.5 -27.5t24.5 -80.5v-1266q0 -53 -24.5 -80.5t-65.5 -27.5t-65.5 27.5t-24.5 80.5v557h-768v-557q0 -53 -24.5 -80.5t-65.5 -27.5t-65.5 27.5t-24.5 80.5z" />
<glyph unicode="I" d="M119 84v1290q0 45 24.5 70.5t65.5 25.5t65.5 -25.5t24.5 -70.5v-1290q0 -45 -24.5 -70.5t-65.5 -25.5t-65.5 25.5t-24.5 70.5z" />
<glyph unicode="J" horiz-adv-x="757" d="M-14 152q0 35 19.5 55t51.5 20q31 0 50.5 -13t43 -28.5t56.5 -29t92 -13.5q47 0 78 16.5t49 45t25.5 66.5t7.5 81v1022q0 45 24.5 70.5t65.5 25.5t65.5 -25.5t24.5 -70.5v-1003q0 -86 -19.5 -157t-61.5 -121t-109.5 -77.5t-163.5 -27.5q-37 0 -88.5 10t-98.5 31.5 t-79.5 51.5t-32.5 71z" />
<glyph unicode="K" horiz-adv-x="1175" d="M119 84v1290q0 45 24.5 70.5t65.5 25.5t65.5 -25.5t24.5 -70.5v-532l625 571q25 23 47 40t51 17q35 0 56.5 -21.5t21.5 -55.5q0 -35 -10.5 -51.5t-26.5 -30.5l-598 -539l653 -631q23 -20 30 -36.5t7 -36.5q0 -33 -25.5 -56.5t-62.5 -23.5q-20 0 -39.5 6t-48.5 33 l-680 667v-610q0 -45 -24.5 -70.5t-65.5 -25.5t-65.5 25.5t-24.5 70.5z" />
<glyph unicode="L" horiz-adv-x="796" d="M119 98v1276q0 45 24.5 70.5t65.5 25.5t65.5 -25.5t24.5 -70.5v-1206h385q39 0 63.5 -20.5t24.5 -63.5t-24.5 -63.5t-63.5 -20.5h-469q-51 0 -73.5 28.5t-22.5 69.5z" />
<glyph unicode="M" horiz-adv-x="1708" d="M59 80q0 16 3.5 35.5t7.5 46.5l198 1171q12 78 52 107.5t90 29.5q53 0 83.5 -21.5t47.5 -72.5l311 -1067h4l311 1067q16 51 47 72.5t84 21.5q49 0 89 -29.5t53 -107.5l198 -1171q4 -27 7.5 -46.5t3.5 -35.5q0 -41 -21.5 -66.5t-62.5 -25.5q-35 0 -62.5 15t-34.5 63 l-170 1171h-4l-348 -1176q-14 -45 -37.5 -59t-54.5 -14t-54.5 14t-37.5 59l-348 1176h-4l-170 -1171q-6 -47 -34 -62.5t-63 -15.5q-41 0 -62.5 25.5t-21.5 66.5z" />
<glyph unicode="N" horiz-adv-x="1368" d="M119 84v1280q0 106 82 106q41 0 65.5 -20t61.5 -74l737 -1059h4v1057q0 45 24.5 70.5t65.5 25.5t65.5 -25.5t24.5 -70.5v-1280q0 -106 -82 -106q-41 0 -65.5 20.5t-61.5 73.5l-737 1059h-4v-1057q0 -45 -24.5 -70.5t-65.5 -25.5t-65.5 25.5t-24.5 70.5z" />
<glyph unicode="O" horiz-adv-x="1404" d="M63 729q0 141 41 275.5t122 238t201 165.5t275 62q156 0 276 -62t201 -165.5t121.5 -238t40.5 -275.5t-40.5 -275.5t-121.5 -237.5t-201 -165.5t-276 -62.5t-275.5 62.5t-200.5 165.5t-122 237.5t-41 275.5zM256 729q0 -104 23.5 -208.5t77 -188.5t138.5 -136.5 t207 -52.5q123 0 208 52.5t138.5 136.5t77 188.5t23.5 208.5t-23.5 208.5t-77 188.5t-138.5 136.5t-208 52.5t-207.5 -52.5t-138 -136.5t-77 -188.5t-23.5 -208.5z" />
<glyph unicode="P" horiz-adv-x="1062" d="M119 84v1276q0 41 22.5 69.5t73.5 28.5h356q111 0 198 -36t148.5 -98t94 -146t32.5 -179q0 -96 -35.5 -179t-98 -144.5t-147.5 -96t-185 -34.5h-279v-461q0 -45 -24.5 -70.5t-65.5 -25.5t-65.5 25.5t-24.5 70.5zM299 700h266q68 0 122 24t94 63.5t61.5 95t21.5 116.5 q0 53 -16.5 107.5t-53 97.5t-95 71t-142.5 28h-258v-603z" />
<glyph unicode="Q" horiz-adv-x="1402" d="M63 729q0 141 41 275.5t122 238t201 165.5t275 62q156 0 276 -62t201 -165.5t121.5 -238t40.5 -275.5q0 -127 -31.5 -244.5t-95.5 -216.5l152 -149q16 -16 25.5 -32.5t9.5 -39.5q0 -29 -21.5 -52.5t-56.5 -23.5q-27 0 -43 11.5t-27 21.5l-143 141q-78 -74 -179.5 -115.5 t-228.5 -41.5q-156 0 -275.5 62.5t-200.5 165.5t-122 237.5t-41 275.5zM256 729q0 -104 23.5 -208.5t77 -188.5t138.5 -136.5t207 -52.5q94 0 166 31t125 86l-121 119q-16 16 -26 31.5t-10 35.5q0 35 22.5 58.5t56.5 23.5q35 0 68 -32l100 -99q35 74 50.5 160t15.5 172 q0 104 -23.5 208.5t-77 188.5t-138.5 136.5t-208 52.5t-207.5 -52.5t-138 -136.5t-77 -188t-23.5 -209z" />
<glyph unicode="R" horiz-adv-x="1062" d="M119 84v1276q0 41 22.5 69.5t73.5 28.5h334q86 0 167 -27.5t142.5 -80t99 -125t37.5 -160.5q0 -111 -31.5 -188.5t-86 -127t-126 -73t-153.5 -25.5l-78 -2l465 -510q35 -37 35 -82q0 -29 -23.5 -49t-58.5 -20q-29 0 -47.5 12t-34.5 29l-557 610v-555q0 -45 -24.5 -70.5 t-65.5 -25.5t-65.5 25.5t-24.5 70.5zM299 784h246q141 0 205.5 63.5t64.5 205.5q0 51 -19.5 96t-55 79t-86 54.5t-113.5 20.5h-242v-519z" />
<glyph unicode="S" horiz-adv-x="985" d="M43 164q0 37 18.5 64.5t57.5 27.5q23 0 51.5 -17.5t68.5 -39t91 -39t121 -17.5t125 23.5t94 64.5t59.5 94.5t20.5 114.5q0 86 -51.5 135.5t-128 82t-167 61.5t-167 73t-128 114.5t-51.5 189.5q0 63 29 129.5t84 121t135 89t182 34.5q68 0 132.5 -13t114.5 -36.5t81 -54.5 t31 -66q0 -33 -21.5 -56t-56.5 -23q-31 0 -53.5 14t-52 32.5t-71.5 33t-110 14.5q-100 0 -165.5 -57.5t-65.5 -149.5q0 -80 51 -126t128 -79t167 -61.5t167 -74.5t128 -121t51 -197q0 -90 -32.5 -174.5t-95 -148t-155 -101t-210.5 -37.5q-72 0 -145 13t-131 36.5t-94 55.5 t-36 71z" />
<glyph unicode="T" horiz-adv-x="909" d="M4 1374q0 43 24.5 63.5t63.5 20.5h725q39 0 63.5 -20.5t24.5 -63.5t-24.5 -63.5t-63.5 -20.5h-272v-1206q0 -45 -24.5 -70.5t-65.5 -25.5t-65.5 25.5t-24.5 70.5v1206h-273q-39 0 -63.5 20.5t-24.5 63.5z" />
<glyph unicode="U" horiz-adv-x="1368" d="M119 578v796q0 45 24.5 70.5t65.5 25.5t65.5 -25.5t24.5 -70.5v-866q0 -172 106.5 -268.5t278.5 -96.5t278.5 96.5t106.5 268.5v866q0 45 24.5 70.5t65.5 25.5t65.5 -25.5t24.5 -70.5v-796q0 -184 -53 -300t-136 -180.5t-182.5 -87t-193.5 -22.5t-193.5 22.5t-182.5 87 t-136 180t-53 300.5z" />
<glyph unicode="V" horiz-adv-x="1138" d="M8 1397q0 29 21.5 51t58.5 22q53 0 73.5 -34.5t37.5 -81.5l368 -1063h4l369 1063q16 47 36.5 81.5t74.5 34.5q37 0 58 -22.5t21 -50.5q0 -33 -12 -70l-444 -1241q-16 -45 -37 -71.5t-68 -26.5t-67.5 26.5t-36.5 71.5l-445 1241q-12 37 -12 70z" />
<glyph unicode="W" horiz-adv-x="1708" d="M51 1389q0 35 21.5 58t60.5 23q84 0 98 -84l191 -1165h4l336 1178q12 41 34.5 56t57.5 15t57.5 -15t34.5 -56l336 -1178h4l191 1165q14 84 98 84q39 0 60.5 -23.5t21.5 -57.5q0 -16 -2 -38t-8 -55l-222 -1190q-4 -25 -12 -46t-22.5 -37.5t-38 -25.5t-56.5 -9 q-53 0 -85.5 21.5t-55.5 96.5l-299 1070h-4l-299 -1070q-23 -76 -55.5 -97t-85.5 -21q-68 0 -94.5 35.5t-34.5 82.5l-222 1190q-6 33 -8 54.5t-2 38.5z" />
<glyph unicode="X" horiz-adv-x="1216" d="M18 63q0 23 9.5 41.5t19.5 32.5l457 645l-381 539q-29 41 -29 74q0 35 23.5 55t56.5 20q23 0 44.5 -10t47.5 -47l342 -500l342 500q27 37 48.5 47t43.5 10q33 0 56.5 -20t23.5 -55q0 -33 -28 -74l-381 -539l456 -645q10 -14 19.5 -32.5t9.5 -41.5q0 -33 -25.5 -54 t-56.5 -21q-23 0 -42 9t-48 48l-418 596l-418 -596q-29 -39 -48 -48t-42 -9q-31 0 -56.5 21.5t-25.5 53.5z" />
<glyph unicode="Y" horiz-adv-x="1024" d="M2 1397q0 35 23.5 54t58.5 19q25 0 47.5 -11t42.5 -46l338 -551l338 551q20 35 42.5 46t47.5 11q35 0 58.5 -19t23.5 -54q0 -31 -29 -76l-391 -637v-600q0 -45 -24.5 -70.5t-65.5 -25.5t-65.5 25.5t-24.5 70.5v600l-391 637q-29 45 -29 76z" />
<glyph unicode="Z" horiz-adv-x="1138" d="M49 82q0 23 6 43t29 53l750 1125h-662q-39 0 -63.5 19t-24.5 58t24.5 58.5t63.5 19.5h797q45 0 69.5 -19.5t24.5 -43.5q0 -29 -8 -51.5t-37 -63.5l-752 -1124h735q39 0 64 -19.5t25 -58.5t-25 -58.5t-64 -19.5h-845q-57 0 -82 21.5t-25 60.5z" />
<glyph unicode="[" horiz-adv-x="493" d="M156 -70v1442q0 41 22.5 69.5t73.5 28.5h141q33 0 55.5 -22.5t22.5 -54.5q0 -33 -22.5 -55.5t-55.5 -22.5h-69v-1327h69q33 0 55.5 -22.5t22.5 -55.5t-22.5 -55.5t-55.5 -22.5h-141q-51 0 -73.5 28.5t-22.5 69.5z" />
<glyph unicode="\" horiz-adv-x="833" d="M41 1395q0 35 22.5 55t57.5 20t54.5 -18t29.5 -43l559 -1255q29 -63 29 -91q0 -35 -22.5 -55t-57.5 -20t-54.5 18.5t-29.5 42.5l-559 1256q-29 63 -29 90z" />
<glyph unicode="]" horiz-adv-x="493" d="M23 -90q0 33 22.5 55.5t54.5 22.5h70v1327h-70q-33 0 -55 22.5t-22 55.5t22.5 55t54.5 22h142q51 0 73.5 -28.5t22.5 -69.5v-1442q0 -41 -22.5 -69.5t-73.5 -28.5h-142q-33 0 -55 22.5t-22 55.5z" />
<glyph unicode="^" horiz-adv-x="1228" d="M115 659q0 23 12 45.5t23 43.5l358 638q20 35 42.5 59.5t63.5 24.5t63.5 -24.5t43.5 -59.5l358 -638q10 -20 22.5 -43t12.5 -46q0 -29 -21.5 -48t-54.5 -19q-35 0 -54 24.5t-48 77.5l-322 596l-321 -596q-29 -53 -48.5 -77.5t-54.5 -24.5q-33 0 -54 19.5t-21 47.5z" />
<glyph unicode="_" horiz-adv-x="1024" d="M-59 -205q0 25 17 38t42 13h1024q25 0 42 -13t17 -38t-17 -38t-42 -13h-1024q-25 0 -42 13.5t-17 37.5z" />
<glyph unicode="`" d="M-18 1434q0 23 18 54.5t59 31.5q14 0 28.5 -4.5t41.5 -14.5l236 -96q43 -16 57 -36.5t14 -39.5q0 -23 -18.5 -54.5t-59.5 -31.5q-14 0 -28.5 4t-40.5 15l-236 96q-43 16 -57 36.5t-14 39.5z" />
<glyph unicode="a" horiz-adv-x="1138" d="M72 545q0 109 31.5 209t93 178t150.5 124t204 46q94 0 163.5 -38t133.5 -108h4v58q0 47 27.5 67.5t56.5 20.5q27 0 55.5 -20.5t28.5 -67.5v-938q0 -47 -28.5 -67.5t-55.5 -20.5q-29 0 -56.5 20.5t-27.5 67.5v76h-4q-59 -84 -134 -124t-163 -40q-115 0 -204 46t-150.5 124 t-93 178t-31.5 209zM252 545q0 -70 15.5 -140.5t51 -129t92 -95.5t140.5 -37q82 0 139.5 37t93 95.5t51 129t15.5 140.5t-15.5 140.5t-51 128.5t-93 95t-139.5 37q-84 0 -140.5 -37t-92 -95t-51 -128.5t-15.5 -140.5z" />
<glyph unicode="b" horiz-adv-x="1138" d="M127 84v1401q0 45 24.5 70.5t65.5 25.5t65.5 -25.5t24.5 -70.5v-531h4q18 25 45 51.5t64 48t83 35t99 13.5q111 0 197 -46t146.5 -124t91 -178.5t30.5 -208.5q0 -109 -30.5 -209t-91 -178t-146.5 -124t-197 -46q-213 0 -291 149h-4v-53q0 -45 -24.5 -70.5t-65.5 -25.5 t-65.5 25.5t-24.5 70.5zM289 545q0 -70 15 -140.5t51 -129t92.5 -95.5t140.5 -37q82 0 139 37t93 95.5t51.5 129t15.5 140.5t-15.5 140.5t-51.5 128.5t-93 95t-139 37q-84 0 -140.5 -37t-92.5 -95t-51 -128.5t-15 -140.5z" />
<glyph unicode="c" horiz-adv-x="909" d="M72 545q0 109 29.5 209t91 178t153.5 124t217 46q139 0 216 -41t77 -96q0 -29 -20.5 -52.5t-53.5 -23.5q-27 0 -47 9t-42.5 19.5t-53.5 19.5t-76 9q-84 0 -143.5 -37t-96 -95t-54 -129t-17.5 -140q0 -70 17.5 -140.5t54 -129t96 -95.5t143.5 -37q47 0 79 9.5t55.5 21.5 t42 21.5t40.5 9.5q31 0 50.5 -19.5t19.5 -56.5q0 -51 -72.5 -96t-214.5 -45q-125 0 -217 46t-153.5 124t-91 178t-29.5 209z" />
<glyph unicode="d" horiz-adv-x="1138" d="M72 545q0 109 30.5 209t91 178t146.5 124t197 46q53 0 99 -13.5t83 -35t63.5 -48t44.5 -51.5h4v531q0 45 25 70.5t66 25.5t65.5 -25.5t24.5 -70.5v-1401q0 -45 -24.5 -70.5t-65.5 -25.5t-66 25.5t-25 70.5v53h-4q-77 -149 -287 -149h-3q-111 0 -197 46t-146.5 124 t-91 178t-30.5 209zM252 545q0 -70 15.5 -140.5t51 -129t92 -95.5t140.5 -37q82 0 139.5 37t93 95.5t51 129t15.5 140.5t-15.5 140.5t-51 128.5t-93 95t-139.5 37q-84 0 -140.5 -37t-92 -95t-51 -129t-15.5 -140z" />
<glyph unicode="e" horiz-adv-x="1064" d="M53 545q0 111 34 211t96.5 177t153.5 123t206 46q111 0 198.5 -46t147 -121t91.5 -170t32 -194q0 -47 -20.5 -71.5t-80.5 -24.5h-678q0 -70 21.5 -130t63.5 -105t101.5 -71t135.5 -26q90 0 149.5 22.5t99.5 50.5t67.5 51.5t52.5 23.5t45 -20.5t20 -59.5q0 -33 -38 -72 t-100.5 -72.5t-140 -56t-157.5 -22.5q-131 0 -225.5 46t-155.5 124t-90 178t-29 209zM233 610h598q0 57 -17 116.5t-52 108t-90.5 79t-128.5 32.5h-11q-76 0 -130 -28q-58 -30 -95 -76.5t-54 -108t-20 -123.5z" />
<glyph unicode="f" horiz-adv-x="530" d="M12 1012q0 78 90 78h74v256q0 119 70.5 177t169.5 58h55q35 0 68.5 -20.5t33.5 -57.5q0 -78 -98 -78h-45q-41 0 -57.5 -18t-16.5 -53v-264h113q90 0 90 -78t-90 -78h-113v-850q0 -45 -24.5 -70.5t-65.5 -25.5t-65.5 25.5t-24.5 70.5v850h-74q-90 0 -90 78z" />
<glyph unicode="g" horiz-adv-x="1138" d="M72 545q0 109 31.5 209t93 178t150.5 124t204 46q43 0 85 -12.5t79 -32t65.5 -44t46.5 -48.5h4v49q0 47 30 67.5t67 20.5q27 0 55.5 -20.5t28.5 -67.5v-936q0 -121 -36 -217.5t-100.5 -164t-154.5 -103t-201 -35.5q-70 0 -143.5 18t-135 47t-100.5 63.5t-39 69.5 q0 29 16.5 56.5t59.5 27.5q31 0 62.5 -19.5t72.5 -44t94.5 -44t127.5 -19.5q86 0 143 31t91 79t48 107.5t14 118.5v94h-4q-41 -72 -112.5 -113.5t-163.5 -41.5q-115 0 -204 46t-150.5 124t-93 178t-31.5 209zM252 545q0 -70 15.5 -140.5t51 -129t92 -95.5t140.5 -37 q82 0 139.5 37t93 95.5t51 129t15.5 140.5t-15.5 140.5t-51 128.5t-93 95t-139.5 37q-84 0 -140.5 -37t-92 -95t-51 -128.5t-15.5 -140.5z" />
<glyph unicode="h" horiz-adv-x="1101" d="M119 84v1401q0 45 24.5 70.5t65.5 25.5t65.5 -25.5t24.5 -70.5v-522l4 -5q59 78 139 111t162 33q63 0 130 -21.5t122 -70.5t91 -128t36 -194v-604q0 -45 -24.5 -70.5t-65.5 -25.5t-65.5 25.5t-24.5 70.5v594q0 72 -22.5 123t-58.5 82.5t-81 47t-90 15.5t-90 -15.5 t-81 -47t-58.5 -82.5t-22.5 -123v-594q0 -45 -24.5 -70.5t-65.5 -25.5t-65.5 25.5t-24.5 70.5z" />
<glyph unicode="i" d="M98 1360q0 47 32 78.5t79 31.5t78.5 -31.5t31.5 -78.5t-31.5 -79t-78.5 -32t-79 32t-32 79zM119 84v922q0 45 24.5 70.5t65.5 25.5t65.5 -25.5t24.5 -70.5v-922q0 -45 -24.5 -70.5t-65.5 -25.5t-65.5 25.5t-24.5 70.5z" />
<glyph unicode="j" horiz-adv-x="520" d="M-246 -219q0 35 19.5 55.5t52.5 20.5q31 0 50.5 -13.5t43 -29t56 -28.5t92.5 -13q47 0 77.5 16t49 45t25.5 67t7 81v1022q0 45 24.5 70.5t65.5 25.5t66 -25.5t25 -70.5v-1004q0 -86 -19.5 -156.5t-61.5 -121t-109.5 -78t-164.5 -27.5q-37 0 -88 10.5t-98 32t-80 51 t-33 70.5zM205 1360q0 47 31.5 78.5t78.5 31.5t79 -31.5t32 -78.5t-32 -79t-79 -32t-78.5 32t-31.5 79z" />
<glyph unicode="k" horiz-adv-x="948" d="M119 84v1401q0 45 24.5 70.5t65.5 25.5t65.5 -25.5t24.5 -70.5v-768l393 330q29 23 54.5 39t48.5 16q35 0 55 -22.5t20 -57.5q0 -20 -9 -38.5t-36 -39.5l-409 -323l475 -469q27 -27 35 -46.5t8 -46.5q0 -31 -23.5 -51t-52.5 -20q-33 0 -52.5 11t-51.5 44l-455 475v-434 q0 -45 -24.5 -70.5t-65.5 -25.5t-65.5 25.5t-24.5 70.5z" />
<glyph unicode="l" d="M119 84v1401q0 45 24.5 70.5t65.5 25.5t65.5 -25.5t24.5 -70.5v-1401q0 -45 -24.5 -70.5t-65.5 -25.5t-65.5 25.5t-24.5 70.5z" />
<glyph unicode="m" horiz-adv-x="1708" d="M119 84v922q0 45 24.5 70.5t65.5 25.5t65.5 -25.5t24.5 -70.5v-33l4 -4q16 20 37.5 43.5t54.5 43t77 33t106 13.5q80 0 158.5 -40t140.5 -144q59 86 137 135t196 49q63 0 130 -21.5t122.5 -70.5t91 -128t35.5 -194v-604q0 -45 -24.5 -70.5t-65.5 -25.5t-65.5 25.5 t-24.5 70.5v610q0 117 -61.5 184.5t-171.5 67.5q-111 0 -171.5 -67.5t-60.5 -184.5v-610q0 -45 -24.5 -70.5t-65.5 -25.5t-65.5 25.5t-24.5 70.5v610q0 117 -61.5 184.5t-172.5 67.5t-171 -67.5t-60 -184.5v-610q0 -45 -24.5 -70.5t-65.5 -25.5t-65.5 25.5t-24.5 70.5z" />
<glyph unicode="n" horiz-adv-x="1101" d="M119 84v922q0 45 24.5 70.5t65.5 25.5t65.5 -25.5t24.5 -70.5v-43l4 -5q59 78 139 111t162 33q63 0 130 -21.5t122 -70.5t91 -128t36 -194v-604q0 -45 -24.5 -70.5t-65.5 -25.5t-65.5 25.5t-24.5 70.5v594q0 72 -22.5 123t-58.5 82.5t-81 47t-90 15.5t-90 -15.5t-81 -47 t-58.5 -82.5t-22.5 -123v-594q0 -45 -24.5 -70.5t-65.5 -25.5t-65.5 25.5t-24.5 70.5z" />
<glyph unicode="o" horiz-adv-x="1101" d="M72 545q0 109 31.5 209t93 178t150.5 124t204 46t204 -46t150.5 -124t93 -178.5t31.5 -208.5q0 -109 -31.5 -209t-93 -178t-150.5 -124t-204 -46t-204 46t-150.5 124t-93 178t-31.5 209zM252 545q0 -70 15.5 -140.5t51 -129t92 -95.5t140.5 -37q82 0 139.5 37t93 95.5 t51 129t15.5 140.5t-15.5 140.5t-51 128.5t-93 95t-139.5 37q-84 0 -140.5 -37t-92 -95t-51 -128.5t-15.5 -140.5z" />
<glyph unicode="p" horiz-adv-x="1138" d="M127 -346v1352q0 45 24.5 70.5t65.5 25.5t65.5 -25.5t24.5 -70.5v-54h4q78 150 291 150q111 0 197 -46t146.5 -124t91 -178.5t30.5 -208.5q0 -109 -30.5 -209t-91 -178t-146.5 -124t-197 -46q-53 0 -99 13t-83 34.5t-63.5 48.5t-45.5 51h-4v-481q0 -45 -24.5 -70.5 t-65.5 -25.5t-65.5 25.5t-24.5 70.5zM289 545q0 -70 15 -140.5t51 -129t92.5 -95.5t140.5 -37q82 0 139 37t93 95.5t51.5 129t15.5 140.5t-15.5 140.5t-51.5 128.5t-93 95t-139 37q-84 0 -140.5 -37t-92.5 -95t-51 -128.5t-15 -140.5z" />
<glyph unicode="q" horiz-adv-x="1116" d="M72 545q0 109 30.5 209t91 178t146.5 124t197 46q213 0 290 -150h4v54q0 45 25 70.5t66 25.5t65.5 -25.5t24.5 -70.5v-1199q31 25 55 48q23 18 44.5 33.5t31.5 19.5q20 8 43.5 4t46.5 -27q20 -22 20 -58q0 -31 -28 -54q-12 -10 -45 -38t-68 -57q-39 -35 -86 -73 q-14 -14 -31 -25q-14 -10 -33.5 -17t-39.5 -5q-41 4 -66 27.5t-25 68.5v481h-4q-18 -25 -44.5 -51.5t-63.5 -48t-83 -34.5t-99 -13q-111 0 -197 46t-146.5 124t-91 178t-30.5 209zM252 545q0 -70 15.5 -140.5t51 -129t92 -95.5t140.5 -37q82 0 139.5 37t93 95.5t51 129 t15.5 140.5t-15.5 140.5t-51 128.5t-93 95t-139.5 37q-84 0 -140.5 -37t-92 -95t-51 -129t-15.5 -140z" />
<glyph unicode="r" horiz-adv-x="645" d="M119 84v922q0 45 24.5 70.5t65.5 25.5t65.5 -25.5t24.5 -70.5v-93h4q14 31 41 65t58.5 61.5t69.5 45t77 17.5q47 0 73.5 -26.5t26.5 -65.5q0 -78 -112 -99q-41 -6 -83 -25.5t-76 -56t-56.5 -92t-22.5 -135.5v-518q0 -45 -24.5 -70.5t-65.5 -25.5t-65.5 25.5t-24.5 70.5z " />
<glyph unicode="s" horiz-adv-x="909" d="M49 195q0 37 22.5 59t51.5 22q31 0 59.5 -20t67.5 -46t90 -46.5t125 -20.5q98 0 154.5 46.5t56.5 101.5q0 53 -43 90t-107.5 67.5t-140.5 60.5t-140.5 67.5t-107.5 90t-43 128.5t33 133t85 96t118.5 58.5t134.5 19.5q55 0 119.5 -14.5t118 -40t89 -60.5t35.5 -78 q0 -29 -20.5 -51t-61.5 -22q-29 0 -52 17t-53 37.5t-71 38t-104 17.5q-78 0 -134.5 -33.5t-56.5 -103.5q0 -47 43 -80t107.5 -60.5t140.5 -55t140.5 -65.5t107.5 -92.5t43 -131.5q0 -86 -34 -148.5t-89 -104.5t-126.5 -62.5t-147.5 -20.5q-86 0 -161 19.5t-130 49t-87 66.5 t-32 72z" />
<glyph unicode="t" horiz-adv-x="532" d="M12 1012q0 78 90 78h74v235q0 45 24.5 70.5t65.5 25.5t65.5 -25.5t24.5 -70.5v-235h74q90 0 90 -78t-90 -78h-74v-664v-24.5t9.5 -35.5t30 -27.5t61.5 1.5q14 2 32.5 3t35 -6t28.5 -26.5t12 -58.5q0 -45 -23.5 -67.5t-58 -31.5t-74.5 -9h-71q-76 0 -119 63.5t-43 214.5 v668h-74q-90 0 -90 78z" />
<glyph unicode="u" horiz-adv-x="1101" d="M119 422v584q0 45 24.5 70.5t65.5 25.5t65.5 -25.5t24.5 -70.5v-578q0 -285 252 -285t252 285v578q0 45 24.5 70.5t65.5 25.5t65.5 -25.5t24.5 -70.5v-584q0 -121 -37 -203t-97.5 -134t-138 -74.5t-159.5 -22.5t-160 22.5t-138 74.5t-97 134t-37 203z" />
<glyph unicode="v" horiz-adv-x="872" d="M10 1018q0 41 24.5 62.5t57.5 21.5q45 0 64.5 -19.5t29.5 -50.5l248 -753h4l248 753q10 31 29.5 50.5t64.5 19.5q33 0 57.5 -21.5t24.5 -62.5q0 -16 -4 -32.5t-14 -41.5l-314 -878q-14 -41 -32.5 -59.5t-61.5 -18.5t-61.5 18.5t-32.5 59.5l-313 878q-10 25 -14.5 41 t-4.5 33z" />
<glyph unicode="w" horiz-adv-x="1519" d="M4 1022q0 27 19.5 53.5t66.5 26.5q29 0 55.5 -16.5t44.5 -75.5l232 -744h4l227 717q18 59 38 89t69 30t68.5 -30t37.5 -89l228 -717h4l231 744q18 59 45 75.5t56 16.5q47 0 66.5 -26.5t19.5 -53.5q0 -14 -4.5 -31.5t-10.5 -38.5l-299 -870q-18 -53 -41.5 -73.5 t-62.5 -20.5q-37 0 -61.5 20.5t-41.5 73.5l-233 735h-4l-234 -735q-16 -53 -40.5 -73.5t-61.5 -20.5q-39 0 -62.5 20.5t-42.5 73.5l-299 870q-6 20 -10 38t-4 32z" />
<glyph unicode="x" horiz-adv-x="950" d="M12 70q0 16 7.5 36.5t29.5 49.5l322 422l-283 370q-31 39 -31 72q0 35 21.5 58.5t54.5 23.5q31 0 47.5 -12.5t30.5 -28.5l264 -352l264 352q14 16 30.5 28.5t47.5 12.5q33 0 54.5 -23.5t21.5 -58.5q0 -33 -31 -72l-282 -370l321 -422q23 -29 30 -49.5t7 -36.5 q0 -35 -23.5 -58.5t-58.5 -23.5q-51 0 -80 41l-301 417l-301 -417q-29 -41 -80 -41q-35 0 -58.5 23.5t-23.5 58.5z" />
<glyph unicode="y" horiz-adv-x="909" d="M35 1026q0 35 25.5 55.5t56.5 20.5q35 0 57.5 -19.5t32.5 -48.5l250 -747h4l246 747q10 29 30.5 48.5t55.5 19.5q31 0 56 -20.5t25 -55.5q0 -16 -4 -34.5t-20 -65.5l-455 -1301q-10 -29 -31.5 -48t-56.5 -19q-31 0 -56.5 20.5t-25.5 54.5q0 16 5.5 35t21.5 66l115 305 l-308 887q-16 47 -20 65.5t-4 34.5z" />
<glyph unicode="z" horiz-adv-x="909" d="M41 63q0 23 8 43.5t29 49.5l520 778h-446q-90 0 -91 78q0 78 91 78h606q53 0 70.5 -20.5t17.5 -43.5t-8.5 -43t-28.5 -49l-526 -774l6 -4h489q90 0 90 -78t-90 -78h-649q-53 0 -70.5 20.5t-17.5 42.5z" />
<glyph unicode="{" horiz-adv-x="493" d="M-31 651q0 35 21.5 50.5t68.5 27.5q37 8 56.5 31.5t29 58.5t10.5 81t1 99v250q0 106 51 163.5t158 57.5h77q82 0 82 -61t-82 -61h-28q-41 0 -65.5 -26t-24.5 -73v-323q0 -84 -19.5 -136.5t-47.5 -81t-60.5 -41t-59.5 -14.5v-4q27 -4 59.5 -15t60.5 -40t47.5 -81 t19.5 -136v-324q0 -47 24.5 -72.5t65.5 -25.5h28q82 0 82 -61t-82 -62h-77q-106 0 -157.5 57.5t-51.5 163.5v250q0 53 -1 98t-10.5 80t-29 58.5t-56.5 33.5q-47 14 -68.5 28.5t-21.5 49.5z" />
<glyph unicode="|" horiz-adv-x="454" d="M143 -512v2048q0 39 20.5 63.5t63.5 24.5t63.5 -24.5t20.5 -63.5v-2048q0 -39 -20.5 -63.5t-63.5 -24.5t-63.5 24.5t-20.5 63.5z" />
<glyph unicode="}" horiz-adv-x="493" d="M-31 -106q0 61 82 61h29q41 0 65.5 25.5t24.5 72.5v324q0 84 19.5 136t47 81t60.5 40t59 15v4q-27 2 -59.5 14.5t-60 41t-47 81t-19.5 136.5v323q0 47 -24.5 73t-65.5 26h-29q-82 0 -82 61t82 61h78q106 0 157.5 -57t51.5 -164v-250q0 -53 1 -98t10 -80t28.5 -58.5 t56.5 -33.5q47 -14 68.5 -28.5t21.5 -49.5t-21.5 -50t-68.5 -28q-37 -10 -56.5 -32.5t-28.5 -57t-10 -81t-1 -99.5v-250q0 -106 -51 -163.5t-158 -57.5h-78q-82 0 -82 62z" />
<glyph unicode="~" horiz-adv-x="1228" d="M131 430q0 43 23.5 86t61.5 76t86 53.5t95 20.5q72 0 130.5 -21.5t111.5 -48.5t100 -48.5t86 -21.5q33 0 54.5 22.5t41 48.5t44 47.5t61.5 21.5q31 -2 51.5 -19.5t20.5 -40.5q0 -43 -23.5 -86t-61.5 -75.5t-86 -53t-96 -20.5q-72 0 -130 21.5t-111 47.5 q-53 27 -100.5 48.5t-86.5 21.5q-33 0 -54 -22.5t-41.5 -48t-44 -47t-60.5 -21.5q-31 2 -51.5 19t-20.5 40z" />
<glyph unicode="&#xa1;" horiz-adv-x="606" d="M199 997q0 43 30.5 74t73.5 31t74 -31t31 -74t-31 -73.5t-74 -30.5t-73.5 30.5t-30.5 73.5zM213 -285v887q0 45 24.5 70.5t65.5 25.5t65.5 -25.5t24.5 -70.5v-887q0 -45 -24.5 -70.5t-65.5 -25.5t-65.5 25.5t-24.5 70.5z" />
<glyph unicode="&#xa2;" horiz-adv-x="909" d="M72 545q0 96 23.5 187t72.5 166t123 126t174 70v118q0 18 11 30.5t32 12.5q20 0 31.5 -12t11.5 -31v-110q147 0 226 -41t79 -96q0 -29 -20.5 -52.5t-53.5 -23.5q-27 0 -47 9t-43.5 19.5t-56.5 19.5t-84 9v-803q51 0 86 9.5t59.5 21.5t43 21.5t40.5 9.5q31 0 50.5 -19.5 t19.5 -56.5q0 -51 -75 -96t-224 -45v-111q0 -18 -11.5 -30.5t-31.5 -12.5t-31.5 12.5t-11.5 30.5v121q-100 18 -174 69.5t-123 125t-72.5 165t-23.5 187.5zM252 545q0 -57 12 -116.5t38 -112t66 -93.5t97 -61v768q-57 -20 -97 -61.5t-66 -94.5t-38 -112.5t-12 -116.5z" />
<glyph unicode="&#xa3;" horiz-adv-x="1214" d="M61 731q0 43 25 63.5t64 20.5h157q-37 66 -68.5 138.5t-31.5 154.5q0 80 37 147.5t98 114.5t141 73.5t166 26.5q92 0 176 -33.5t149.5 -87t104.5 -117t39 -124.5q0 -41 -23.5 -64.5t-62.5 -23.5q-35 0 -54.5 20.5t-35.5 52t-33.5 68.5t-48.5 69t-81 52.5t-128 20.5 q-49 0 -97 -13.5t-85 -40t-59.5 -64.5t-22.5 -89q0 -41 10.5 -77t26.5 -70t34.5 -67.5t37.5 -66.5h264q39 0 63.5 -20.5t24.5 -63.5t-24.5 -63.5t-63.5 -20.5h-223q4 -27 9 -57.5t5 -77.5q0 -37 -11.5 -81t-34 -90t-55 -91t-75.5 -82h690q39 0 63.5 -20.5t24.5 -63.5 t-24.5 -63.5t-63.5 -20.5h-819q-43 0 -76 16.5t-33 69.5q0 33 37 70t80 86t80 114.5t37 157.5q0 29 -2 63.5t-13 69.5h-206q-39 0 -64 20.5t-25 63.5z" />
<glyph unicode="&#xa4;" horiz-adv-x="1097" d="M41 729q0 88 24.5 168t75.5 137l-69 72q-29 29 -29 57q0 33 24.5 53.5t45.5 20.5q20 0 43 -23l86 -88q59 55 139 83t168 28t168 -27.5t139 -83.5l86 88q23 23 43 23t45 -20.5t25 -53.5q0 -29 -29 -57l-70 -72q51 -57 76 -137t25 -168t-24.5 -168t-76.5 -137l70 -72 q29 -29 29 -57q0 -33 -24.5 -53.5t-45.5 -20.5q-20 0 -43 23l-86 88q-59 -55 -139 -83t-168 -28t-168 27.5t-139 83.5l-86 -88q-23 -23 -43 -23t-45 20.5t-25 53.5q0 29 29 57l69 72q-51 57 -75.5 137t-24.5 168zM209 729q0 -78 27.5 -143.5t73.5 -111.5t108.5 -71.5 t130.5 -25.5t130 25.5t108.5 71.5t74 111.5t27.5 143.5t-27.5 143.5t-74 111.5t-109 71.5t-129.5 25.5q-68 0 -130.5 -25.5t-108.5 -71.5t-73.5 -111.5t-27.5 -143.5z" />
<glyph unicode="&#xa5;" horiz-adv-x="1097" d="M16 1403q0 29 23.5 48t48.5 19t48.5 -12t45.5 -45l367 -551l366 551q23 33 46.5 45t48.5 12t48 -19t23 -48q0 -23 -7 -41.5t-23 -40.5l-328 -506h197q35 0 59.5 -16.5t24.5 -50.5q0 -35 -25 -51.5t-59 -16.5h-281v-145h281q35 0 59.5 -16.5t24.5 -51.5t-25 -51.5 t-59 -16.5h-281v-315q0 -45 -24.5 -70.5t-65.5 -25.5t-65.5 25.5t-24.5 70.5v315h-281q-35 0 -59.5 16.5t-24.5 51.5t24.5 51.5t59.5 16.5h281v145h-281q-35 0 -59.5 16.5t-24.5 51.5t24.5 51t59.5 16h197l-328 506q-16 23 -23.5 41t-7.5 41z" />
<glyph unicode="&#xa6;" horiz-adv-x="454" d="M143 270q0 39 20.5 63.5t63.5 24.5t63.5 -24.5t20.5 -63.5v-540q0 -39 -20.5 -63.5t-63.5 -24.5t-63.5 24.5t-20.5 63.5v540zM143 754v540q0 39 20.5 63.5t63.5 24.5t63.5 -24.5t20.5 -63.5v-540q0 -39 -20.5 -63.5t-63.5 -24.5t-63.5 24.5t-20.5 63.5z" />
<glyph unicode="&#xa7;" horiz-adv-x="1138" d="M57 553q0 68 18.5 121t52.5 95t79 73.5t100 60.5q-72 51 -102.5 102.5t-30.5 129.5q0 80 32 142t89 105t136 65.5t175 22.5q92 0 169 -28.5t133.5 -72.5t87 -99.5t30.5 -108.5q0 -35 -20.5 -64.5t-61.5 -29.5q-33 0 -52.5 18.5t-33.5 46t-30.5 59.5t-44 59.5t-72.5 46 t-117 18.5q-98 0 -169 -44t-71 -128q0 -66 54.5 -111t134.5 -84t175 -78t175 -92t134 -129t54 -186q0 -51 -16 -101.5t-46 -96.5t-71 -84t-90 -64q133 -90 133 -242q0 -76 -39 -135t-100 -100t-138 -61.5t-153 -20.5q-117 2 -203 34.5t-144 78.5t-87 96.5t-29 85.5 q0 55 24.5 78.5t65.5 23.5q33 0 53.5 -17.5t37 -45t34 -58.5t48 -58.5t76.5 -45t120 -17.5q123 0 188.5 48.5t65.5 115.5q0 66 -56.5 111t-139.5 84t-181 77.5t-181 92t-139.5 128t-56.5 183.5zM238 567q0 -80 65.5 -137t188.5 -117l233 -114q55 41 90 75.5t53.5 65.5 t25.5 59.5t7 57.5q0 33 -5 62.5t-24.5 58t-55.5 56.5t-97 56l-256 119q-45 -18 -86 -41t-72 -51.5t-49 -65.5t-18 -84z" />
<glyph unicode="&#xa8;" d="M-92 1348q0 47 31.5 78.5t78.5 31.5t79 -31.5t32 -78.5t-31.5 -79t-79.5 -32q-47 0 -78.5 32t-31.5 79zM289 1348q0 47 31.5 78.5t78.5 31.5t79 -31.5t32 -78.5t-32 -79t-79 -32t-78.5 32t-31.5 79z" />
<glyph unicode="&#xa9;" horiz-adv-x="1638" d="M78 729q0 154 58.5 289t158.5 235.5t235.5 158.5t288.5 58q154 0 289 -58t235.5 -158.5t159 -235.5t58.5 -289t-58.5 -289t-159 -235.5t-235.5 -158.5t-289 -58t-289 58t-235 158.5t-158.5 235.5t-58.5 289zM246 729q0 -121 46 -227.5t124 -186t182 -126t221 -46.5 t221.5 46.5t182 126t124 186t46.5 227.5t-46.5 227.5t-124 186.5t-182 126t-221.5 46t-221 -46t-182 -126t-124 -186.5t-46 -227.5zM389 733q0 96 30 179t86 143.5t137 95.5t181 35q96 0 166 -31t114 -72t65.5 -86t21.5 -71q0 -27 -18.5 -42.5t-49.5 -15.5q-41 0 -62.5 29 t-46 62.5t-66.5 62.5t-124 29q-131 0 -198.5 -90.5t-67.5 -227.5q0 -63 18.5 -120.5t53.5 -101.5t84 -69.5t110 -25.5q82 0 126 29.5t72 64.5t48.5 64.5t54.5 29.5q20 0 43 -11t23 -46q0 -25 -22.5 -70t-67.5 -89t-115 -75.5t-162 -31.5q-98 0 -178 34.5t-136 96t-88 143.5 t-32 178z" />
<glyph unicode="&#xaa;" horiz-adv-x="739" d="M59 1137q0 70 21.5 131t62.5 106t98.5 70.5t129.5 25.5q61 0 101 -22.5t69 -63.5h4v33q0 29 20.5 41t46.5 12q27 0 47.5 -12t20.5 -41v-563q0 -29 -20.5 -41t-47.5 -12t-47 12t-20 41v33h-4q-29 -41 -69 -63.5t-101 -22.5q-72 0 -129.5 25.5t-98.5 71.5t-62.5 106.5 t-21.5 132.5zM207 1137q0 -43 12 -81t33.5 -68t53.5 -47t71 -17t70.5 17t53 47t34 68t12.5 81q0 41 -12.5 78.5t-34 67.5t-53 47.5t-70.5 17.5t-71 -17.5t-53.5 -47.5t-33.5 -67.5t-12 -78.5z" />
<glyph unicode="&#xab;" horiz-adv-x="833" d="M78 549l203 364q14 25 30.5 39.5t38.5 14.5q29 0 55.5 -17.5t26.5 -54.5q0 -25 -22 -64l-170 -282l170 -283q23 -39 22 -63q0 -37 -26.5 -54.5t-55.5 -17.5q-23 0 -39 14.5t-30 38.5zM401 549l203 364q14 25 30.5 39.5t39.5 14.5q29 0 55.5 -17.5t26.5 -54.5 q0 -25 -23 -64l-170 -282l170 -283q23 -39 23 -63q0 -37 -27 -54.5t-55 -17.5q-23 0 -39.5 14.5t-30.5 38.5z" />
<glyph unicode="&#xac;" horiz-adv-x="1228" d="M96 731q0 43 24.5 63.5t63.5 20.5h865q43 0 63.5 -24.5t20.5 -63.5v-418q0 -39 -20.5 -63.5t-63.5 -24.5t-63.5 24.5t-20.5 63.5v338h-781q-39 0 -63.5 20.5t-24.5 63.5z" />
<glyph unicode="&#xad;" horiz-adv-x="720" d="M72 549q0 33 22.5 55.5t55.5 22.5h421q33 0 55.5 -22.5t22.5 -55.5t-22.5 -55.5t-55.5 -22.5h-421q-33 0 -55.5 22.5t-22.5 55.5z" />
<glyph unicode="&#xae;" horiz-adv-x="1638" d="M78 729q0 154 58.5 289t158.5 235.5t235.5 158.5t288.5 58q154 0 289 -58t235.5 -158.5t159 -235.5t58.5 -289t-58.5 -289t-159 -235.5t-235.5 -158.5t-289 -58t-289 58t-235 158.5t-158.5 235.5t-58.5 289zM246 729q0 -121 46 -227.5t124 -186t182 -126t221 -46.5 t221.5 46.5t182 126t124 186t46.5 227.5t-46.5 227.5t-124 186.5t-182 126t-221.5 46t-221 -46t-182 -126t-124 -186.5t-46 -227.5zM514 365v735q0 43 47 43h270q154 0 232 -52.5t78 -191.5q0 -59 -16.5 -102t-45 -71t-67.5 -42t-82 -20l182 -279q6 -10 13.5 -25.5 t7.5 -25.5q0 -16 -25 -25.5t-51 -9.5q-31 0 -48.5 10t-33.5 35l-195 313h-131v-292q0 -66 -67 -66q-68 0 -68 66zM649 780h156q39 0 76 3t64.5 16.5t44 39t16.5 70.5q0 39 -17.5 60.5t-44 33t-60.5 14.5t-67 3h-168v-240z" />
<glyph unicode="&#xaf;" d="M-86 1327q0 43 24.5 63.5t63.5 20.5h414q39 0 63.5 -20.5t24.5 -63.5t-24.5 -63.5t-63.5 -20.5h-414q-39 0 -63.5 20.5t-24.5 63.5z" />
<glyph unicode="&#xb0;" horiz-adv-x="819" d="M117 1178q0 61 22.5 114.5t62.5 93t93 62t115 22.5q61 0 114.5 -22.5t93 -62t62 -93t22.5 -114.5t-22.5 -114.5t-62 -93.5t-93 -62.5t-114.5 -22.5t-114.5 22.5t-93.5 62.5t-62.5 93.5t-22.5 114.5zM227 1178q0 -76 53.5 -129.5t129.5 -53.5t129 53.5t53 129.5t-53.5 129 t-128.5 53q-76 0 -129.5 -53t-53.5 -129z" />
<glyph unicode="&#xb1;" horiz-adv-x="1228" d="M96 84q0 43 24.5 63.5t63.5 20.5h860q39 0 64 -20.5t25 -63.5t-25 -63.5t-64 -20.5h-860q-39 0 -63.5 20.5t-24.5 63.5zM96 639q0 43 24.5 63.5t63.5 20.5h346v225q0 39 20.5 63.5t63.5 24.5t63.5 -24.5t20.5 -63.5v-225h346q39 0 64 -20.5t25 -63.5t-25 -63.5t-64 -20.5 h-346v-225q0 -39 -20.5 -63.5t-63.5 -24.5t-63.5 24.5t-20.5 63.5v225h-346q-39 0 -63.5 20.5t-24.5 63.5z" />
<glyph unicode="&#xb2;" horiz-adv-x="712" d="M63 639q0 16 25 47l350 444q23 29 38.5 59t15.5 56q0 47 -36 75t-96 28q-39 0 -70.5 -16.5t-54 -41t-35 -54.5t-12.5 -56q0 -29 -19 -39.5t-40 -10.5q-63 0 -63 68q0 53 19 102.5t58 87t95.5 60t130.5 22.5q68 0 119 -18t84.5 -49t50 -71t16.5 -83q0 -51 -18.5 -89 t-55.5 -83l-297 -358h303q35 0 56.5 -15.5t21.5 -46.5q0 -33 -21.5 -47t-56.5 -14h-446q-35 0 -48.5 15.5t-13.5 27.5z" />
<glyph unicode="&#xb3;" horiz-adv-x="712" d="M61 799q0 23 12.5 44t45.5 21q16 0 29.5 -8t29.5 -43q27 -57 65 -81.5t101 -24.5q66 0 113 45t47 110q0 70 -37 99.5t-100 29.5q-33 0 -51.5 4t-27.5 11.5t-12.5 16.5t-3.5 19q0 27 13.5 39.5t48.5 20.5q66 16 93.5 48t27.5 89q0 41 -33 75t-92 34q-66 0 -96.5 -33 t-36.5 -68q-4 -31 -20.5 -39t-39.5 -8q-51 0 -51 57q0 88 63.5 150.5t186.5 62.5q129 0 197.5 -66.5t68.5 -158.5q0 -53 -27.5 -104t-85.5 -82q78 -23 120 -80t42 -131q0 -61 -24.5 -110.5t-67.5 -83t-101.5 -52t-123.5 -18.5q-68 0 -119 20.5t-85 52t-51.5 69.5t-17.5 73z " />
<glyph unicode="&#xb4;" d="M-18 1329q0 18 14 39t57 37l236 96q27 10 41 14.5t28 4.5q41 0 59.5 -32t18.5 -54q0 -18 -14 -39t-57 -37l-236 -96q-27 -10 -41 -14.5t-29 -4.5q-41 0 -59 32t-18 54z" />
<glyph unicode="&#xb5;" horiz-adv-x="1101" d="M119 -346v1352q0 45 24.5 70.5t65.5 25.5t65.5 -25.5t24.5 -70.5v-578q0 -152 56.5 -218.5t195.5 -66.5t195.5 66.5t56.5 218.5v578q0 45 24.5 70.5t65.5 25.5t65.5 -25.5t24.5 -70.5v-922q0 -45 -24.5 -70.5t-65.5 -25.5q-68 0 -84 59q-53 -33 -118.5 -46t-139.5 -13 q-78 0 -140.5 20.5t-111.5 73.5v-428q0 -45 -24.5 -70.5t-65.5 -25.5t-65.5 25.5t-24.5 70.5z" />
<glyph unicode="&#xb6;" horiz-adv-x="1228" d="M57 1083q0 82 33 151t98.5 119t163 77.5t228.5 27.5h391q51 0 73.5 -28.5t22.5 -69.5v-1714q0 -39 -20.5 -63.5t-63.5 -24.5t-63.5 24.5t-20.5 63.5v1677h-235v-1677q0 -39 -20.5 -63.5t-63.5 -24.5t-63.5 24.5t-20.5 63.5v1059q-98 0 -179 27.5t-138.5 78.5t-89.5 119.5 t-32 152.5z" />
<glyph unicode="&#xb7;" horiz-adv-x="512" d="M145 621q0 47 32 78.5t79 31.5t79 -31.5t32 -78.5t-32 -79t-79 -32t-79 32t-32 79z" />
<glyph unicode="&#xb8;" d="M123 -297q0 20 10 37.5t33 17.5q20 0 49 -8t57 -8q37 0 54.5 12.5t17.5 42.5q0 29 -22.5 33t-67.5 4q-39 0 -50 15.5t-11 23.5q0 20 20 51l53 76h109l-60 -86q8 2 17.5 4t25.5 2q33 0 59.5 -11t45 -27.5t28 -36t9.5 -38.5q0 -94 -64.5 -135t-163.5 -41q-66 0 -107.5 19.5 t-41.5 52.5z" />
<glyph unicode="&#xb9;" horiz-adv-x="468" d="M16 1397q0 61 58 61h213q14 0 26.5 -5t12.5 -23v-773q0 -39 -21.5 -56t-52.5 -17q-29 0 -51.5 17t-22.5 56v678h-104q-57 0 -58 62z" />
<glyph unicode="&#xba;" horiz-adv-x="716" d="M47 1137q0 70 21.5 131t62.5 106t98.5 70.5t128.5 25.5q72 0 129.5 -25.5t98.5 -70.5t62.5 -106.5t21.5 -130.5q0 -72 -21.5 -133.5t-62.5 -106.5t-98.5 -70.5t-129.5 -25.5t-129 25.5t-98 71.5t-62.5 106.5t-21.5 132.5zM195 1137q0 -43 11 -81t32.5 -68t52.5 -47 t67 -17q37 0 67 17t51.5 47t33.5 68t12 81q0 41 -12 78.5t-33.5 67.5t-51.5 47.5t-67 17.5t-67.5 -17.5t-52 -47.5t-32.5 -67.5t-11 -78.5z" />
<glyph unicode="&#xbb;" horiz-adv-x="833" d="M78 203q0 25 22 63l170 283l-170 282q-23 39 -22 64q0 37 26.5 54.5t55.5 17.5q23 0 39 -14.5t30 -39.5l203 -364l-203 -365q-14 -25 -30.5 -39t-38.5 -14q-29 0 -55.5 17.5t-26.5 54.5zM401 203q0 25 23 63l170 283l-170 282q-23 39 -23 64q0 37 27 54.5t55 17.5 q23 0 39.5 -14.5t30.5 -39.5l203 -364l-203 -365q-14 -25 -30.5 -39t-39.5 -14q-29 0 -55.5 17.5t-26.5 54.5z" />
<glyph unicode="&#xbc;" horiz-adv-x="1648" d="M74 1397q0 61 57 61h213q14 0 26.5 -5t12.5 -23v-773q0 -39 -21.5 -56t-52.5 -17q-29 0 -51 17t-22 56v678h-105q-57 0 -57 62zM385 27q0 12 6 31.5t23 60.5l544 1306q27 61 72 62q37 0 54.5 -18.5t17.5 -36.5q0 -12 -5 -31t-24 -62l-545 -1306q-14 -33 -30.5 -47.5 t-44.5 -14.5q-35 0 -51.5 17.5t-16.5 38.5zM911 248q0 16 9.5 35.5t19.5 35.5l326 490q18 29 44.5 47t57.5 18q45 0 73.5 -21.5t28.5 -68.5v-462h50q25 0 40 -17.5t15 -44.5t-15.5 -44t-39.5 -17h-50v-148q0 -31 -19 -47t-54 -16t-54.5 16t-19.5 47v148h-365q-25 0 -36 15 t-11 34zM1081 322h242v405h-4z" />
<glyph unicode="&#xbd;" horiz-adv-x="1648" d="M74 1397q0 61 57 61h213q14 0 26.5 -5t12.5 -23v-773q0 -39 -21.5 -56t-52.5 -17q-29 0 -51 17t-22 56v678h-105q-57 0 -57 62zM324 27q0 12 6 31.5t22 60.5l545 1306q27 61 72 62q37 0 54 -18.5t17 -36.5q0 -12 -5 -31t-23 -62l-545 -1306q-14 -33 -30.5 -47.5 t-45.5 -14.5q-35 0 -51 17.5t-16 38.5zM928 43q0 16 24 47l351 445q23 29 38 58.5t15 55.5q0 47 -36 75t-95 28q-39 0 -71 -16.5t-54.5 -41t-34.5 -54.5t-12 -56q0 -29 -19.5 -39t-40.5 -10q-63 0 -63 67q0 53 19.5 102.5t58.5 87t95 60t130 22.5q68 0 119 -18t84.5 -49 t50 -71t16.5 -83q0 -51 -18.5 -89t-54.5 -83l-297 -358h303q35 0 56 -15.5t21 -46.5q0 -33 -21.5 -47t-55.5 -14h-447q-35 0 -48 15.5t-13 27.5z" />
<glyph unicode="&#xbe;" horiz-adv-x="1648" d="M86 799q0 23 12.5 44t44.5 21q16 0 29.5 -8t30.5 -43q27 -57 64.5 -81.5t101.5 -24.5q66 0 112.5 45t46.5 110q0 70 -36.5 99.5t-100.5 29.5q-33 0 -51 4t-27.5 11.5t-12.5 16.5t-3 19q0 27 13.5 39.5t47.5 20.5q66 16 93.5 48t27.5 89q0 41 -32.5 75t-92.5 34 q-66 0 -96.5 -33t-36.5 -68q-4 -31 -20.5 -39t-38.5 -8q-51 0 -51 57q0 88 63 150.5t186 62.5q129 0 198 -66.5t69 -158.5q0 -53 -28 -104t-85 -82q78 -23 120 -80t42 -131q0 -61 -24.5 -110.5t-67.5 -83t-101.5 -52t-124.5 -18.5q-68 0 -119 20.5t-84.5 52t-51 69.5 t-17.5 73zM508 27q0 12 6 31.5t23 60.5l544 1306q27 61 72 62q37 0 54.5 -18.5t17.5 -36.5q0 -12 -5.5 -31t-23.5 -62l-545 -1306q-14 -33 -30.5 -47.5t-45.5 -14.5q-35 0 -51 17.5t-16 38.5zM911 248q0 16 9.5 35.5t19.5 35.5l326 490q18 29 44.5 47t57.5 18 q45 0 73.5 -21.5t28.5 -68.5v-462h50q25 0 40 -17.5t15 -44.5t-15.5 -44t-39.5 -17h-50v-148q0 -31 -19 -47t-54 -16t-54.5 16t-19.5 47v148h-365q-25 0 -36 15t-11 34zM1081 322h242v405h-4z" />
<glyph unicode="&#xbf;" horiz-adv-x="909" d="M37 -4q0 166 95 267.5t249 133.5v205q0 45 24.5 70.5t65.5 25.5t65.5 -25.5t24.5 -70.5v-231q0 -35 -2 -56.5t-16.5 -36t-43 -24.5t-81.5 -21q-61 -12 -98 -37.5t-56.5 -56t-27 -64.5t-7.5 -63q0 -104 66.5 -164.5t171.5 -60.5q82 0 142.5 35t95.5 133q14 41 32.5 54.5 t46.5 13.5q35 0 62.5 -26t25.5 -69q-4 -68 -39.5 -124t-92 -98t-126 -64.5t-141.5 -22.5q-92 0 -172 28.5t-138.5 79t-92 119t-33.5 150.5zM367 997q0 43 30.5 74t73.5 31t73.5 -31t30.5 -74t-30.5 -73.5t-73.5 -30.5t-73.5 30.5t-30.5 73.5z" />
<glyph unicode="&#xc0;" horiz-adv-x="1253" d="M20 63q0 18 10.5 47t14.5 44l453 1206q18 47 46.5 78.5t82.5 31.5q53 0 81.5 -31.5t47.5 -78.5l452 -1206q4 -14 14.5 -43t10.5 -48q0 -35 -25.5 -55t-60.5 -20q-37 0 -57.5 19.5t-30.5 47.5l-94 262h-676l-94 -262q-10 -29 -31 -48t-58 -19q-35 0 -60.5 20.5t-25.5 54.5 zM344 473h565l-280 789h-4zM400 1762q0 23 18 54.5t59 31.5q14 0 28.5 -4.5t41.5 -14.5l236 -96q43 -16 57 -36.5t14 -39.5q0 -23 -18.5 -54.5t-59.5 -31.5q-14 0 -28.5 4t-40.5 15l-236 96q-43 16 -57 36.5t-14 39.5z" />
<glyph unicode="&#xc1;" horiz-adv-x="1253" d="M20 63q0 18 10.5 47t14.5 44l453 1206q18 47 46.5 78.5t82.5 31.5q53 0 81.5 -31.5t47.5 -78.5l452 -1206q4 -14 14.5 -43t10.5 -48q0 -35 -25.5 -55t-60.5 -20q-37 0 -57.5 19.5t-30.5 47.5l-94 262h-676l-94 -262q-10 -29 -31 -48t-58 -19q-35 0 -60.5 20.5t-25.5 54.5 zM344 473h565l-280 789h-4zM400 1657q0 18 14 39t57 37l236 96q27 10 41 14.5t28 4.5q41 0 59.5 -32t18.5 -54q0 -18 -14 -39t-57 -37l-236 -96q-27 -10 -41 -14.5t-29 -4.5q-41 0 -59 32t-18 54z" />
<glyph unicode="&#xc2;" horiz-adv-x="1253" d="M20 63q0 18 10.5 47t14.5 44l453 1206q18 47 46.5 78.5t82.5 31.5q53 0 81.5 -31.5t47.5 -78.5l452 -1206q4 -14 14.5 -43t10.5 -48q0 -35 -25.5 -55t-60.5 -20q-37 0 -57.5 19.5t-30.5 47.5l-94 262h-676l-94 -262q-10 -29 -31 -48t-58 -19q-35 0 -60.5 20.5t-25.5 54.5 zM316 1649q0 51 47 72l264 112l264 -112q47 -20 47 -72q0 -33 -19.5 -55.5t-54.5 -22.5q-8 0 -19 2t-26 8l-192 76l-193 -76q-14 -6 -25 -8t-20 -2q-35 0 -54 22.5t-19 55.5zM344 473h565l-280 789h-4z" />
<glyph unicode="&#xc3;" horiz-adv-x="1253" d="M20 63q0 18 10.5 47t14.5 44l453 1206q18 47 46.5 78.5t82.5 31.5q53 0 81.5 -31.5t47.5 -78.5l452 -1206q4 -14 14.5 -43t10.5 -48q0 -35 -25.5 -55t-60.5 -20q-37 0 -57.5 19.5t-30.5 47.5l-94 262h-676l-94 -262q-10 -29 -31 -48t-58 -19q-35 0 -60.5 20.5t-25.5 54.5 zM322 1669q0 47 52 88t138 41q35 0 63.5 -6t54.5 -14t51.5 -14t55.5 -6q20 0 37 6t31 14t27.5 14t31.5 6q23 0 45.5 -23.5t22.5 -55.5q0 -47 -52 -88t-138 -41q-35 0 -64 6t-54.5 14t-51 14.5t-56.5 6.5q-23 0 -38 -6.5t-29.5 -14.5t-27.5 -14t-32 -6q-23 0 -45 23t-22 56z M344 473h565l-280 789h-4z" />
<glyph unicode="&#xc4;" horiz-adv-x="1253" d="M20 63q0 18 10.5 47t14.5 44l453 1206q18 47 46.5 78.5t82.5 31.5q53 0 81.5 -31.5t47.5 -78.5l452 -1206q4 -14 14.5 -43t10.5 -48q0 -35 -25.5 -55t-60.5 -20q-37 0 -57.5 19.5t-30.5 47.5l-94 262h-676l-94 -262q-10 -29 -31 -48t-58 -19q-35 0 -60.5 20.5t-25.5 54.5 zM326 1676q0 47 31.5 78.5t78.5 31.5t79 -31.5t32 -78.5t-31.5 -79t-79.5 -32q-47 0 -78.5 32t-31.5 79zM344 473h565l-280 789h-4zM707 1676q0 47 31.5 78.5t78.5 31.5t79 -31.5t32 -78.5t-32 -79t-79 -32t-78.5 32t-31.5 79z" />
<glyph unicode="&#xc5;" horiz-adv-x="1253" d="M20 63q0 18 10.5 47t14.5 44l453 1206q18 47 46.5 78.5t82.5 31.5q53 0 81.5 -31.5t47.5 -78.5l452 -1206q4 -14 14.5 -43t10.5 -48q0 -35 -25.5 -55t-60.5 -20q-37 0 -57.5 19.5t-30.5 47.5l-94 262h-676l-94 -262q-10 -29 -31 -48t-58 -19q-35 0 -60.5 20.5t-25.5 54.5 zM344 473h565l-280 789h-4zM434 1696q0 39 15.5 74.5t41 61t60.5 41t76 15.5q39 0 74.5 -15.5t61.5 -41t41 -61.5t15 -74q0 -41 -15 -76t-41 -60.5t-61.5 -41t-74.5 -15.5q-41 0 -76 15.5t-60.5 41t-41 60.5t-15.5 76zM533 1696q0 -39 27.5 -67t66.5 -28t66.5 28t27.5 67 t-27.5 66.5t-66.5 27.5t-66.5 -27.5t-27.5 -66.5z" />
<glyph unicode="&#xc6;" horiz-adv-x="1554" d="M-18 53q0 16 5 32.5t21 51.5l637 1243q27 53 51.5 65.5t73.5 12.5h588q39 0 63.5 -20.5t24.5 -63.5t-24.5 -63.5t-63.5 -20.5h-414v-477h395q39 0 63.5 -20.5t24.5 -63.5t-24.5 -63.5t-63.5 -20.5h-395v-477h434q39 0 63.5 -20.5t24.5 -63.5t-24.5 -63.5t-63.5 -20.5 h-518q-51 0 -73.5 28.5t-22.5 69.5v219h-473l-139 -272q-18 -35 -39 -46t-47 -11q-37 0 -60.5 19.5t-23.5 45.5zM369 473h395v776h-4z" />
<glyph unicode="&#xc7;" horiz-adv-x="1214" d="M63 729q0 141 41 275.5t122 238t203 165.5t284 62q96 0 174 -22.5t133 -56t85 -70.5t30 -64q0 -35 -19.5 -60.5t-54.5 -25.5q-31 0 -57.5 23t-63.5 49.5t-90 49t-137 22.5q-121 0 -208 -52.5t-142.5 -136.5t-81 -188t-25.5 -209q0 -104 26.5 -208.5t81 -188.5 t138.5 -136.5t200 -52.5q82 0 142.5 20.5t106.5 45t80 45t63 20.5q33 0 52 -22.5t19 -61.5q0 -33 -32.5 -67.5t-91 -63t-137.5 -48t-169 -21.5l-51 -76q8 2 17.5 4t25.5 2q33 0 59.5 -11t45 -27.5t27.5 -36t9 -38.5q0 -94 -64.5 -135t-162.5 -41q-66 0 -107.5 19.5 t-41.5 52.5q0 20 10 37.5t33 17.5q20 0 48.5 -8t57.5 -8q37 0 54.5 12.5t17.5 42.5q0 29 -22.5 33t-67.5 4q-39 0 -50.5 15.5t-11.5 23.5q0 20 21 51l47 68q-139 14 -246 80.5t-177.5 168t-106.5 228.5t-36 260z" />
<glyph unicode="&#xc8;" horiz-adv-x="909" d="M119 98v1262q0 41 22.5 69.5t73.5 28.5h518q39 0 63.5 -20.5t24.5 -63.5t-24.5 -63.5t-63.5 -20.5h-434v-477h395q39 0 63.5 -20.5t24.5 -63.5t-24.5 -63.5t-63.5 -20.5h-395v-477h434q39 0 63.5 -20.5t24.5 -63.5t-24.5 -63.5t-63.5 -20.5h-518q-51 0 -73.5 28.5 t-22.5 69.5zM228 1762q0 23 18 54.5t59 31.5q14 0 28.5 -4.5t41.5 -14.5l236 -96q43 -16 57 -36.5t14 -39.5q0 -23 -18.5 -54.5t-59.5 -31.5q-14 0 -28.5 4t-40.5 15l-236 96q-43 16 -57 36.5t-14 39.5z" />
<glyph unicode="&#xc9;" horiz-adv-x="909" d="M119 98v1262q0 41 22.5 69.5t73.5 28.5h518q39 0 63.5 -20.5t24.5 -63.5t-24.5 -63.5t-63.5 -20.5h-434v-477h395q39 0 63.5 -20.5t24.5 -63.5t-24.5 -63.5t-63.5 -20.5h-395v-477h434q39 0 63.5 -20.5t24.5 -63.5t-24.5 -63.5t-63.5 -20.5h-518q-51 0 -73.5 28.5 t-22.5 69.5zM228 1657q0 18 14 39t57 37l236 96q27 10 41 14.5t28 4.5q41 0 59.5 -32t18.5 -54q0 -18 -14 -39t-57 -37l-236 -96q-27 -10 -41 -14.5t-29 -4.5q-41 0 -59 32t-18 54z" />
<glyph unicode="&#xca;" horiz-adv-x="909" d="M119 98v1262q0 41 22.5 69.5t73.5 28.5h518q39 0 63.5 -20.5t24.5 -63.5t-24.5 -63.5t-63.5 -20.5h-434v-477h395q39 0 63.5 -20.5t24.5 -63.5t-24.5 -63.5t-63.5 -20.5h-395v-477h434q39 0 63.5 -20.5t24.5 -63.5t-24.5 -63.5t-63.5 -20.5h-518q-51 0 -73.5 28.5 t-22.5 69.5zM144 1649q0 51 47 72l264 112l264 -112q47 -20 47 -72q0 -33 -19.5 -55.5t-54.5 -22.5q-8 0 -19 2t-26 8l-192 76l-193 -76q-14 -6 -25 -8t-20 -2q-35 0 -54 22.5t-19 55.5z" />
<glyph unicode="&#xcb;" horiz-adv-x="909" d="M119 98v1262q0 41 22.5 69.5t73.5 28.5h518q39 0 63.5 -20.5t24.5 -63.5t-24.5 -63.5t-63.5 -20.5h-434v-477h395q39 0 63.5 -20.5t24.5 -63.5t-24.5 -63.5t-63.5 -20.5h-395v-477h434q39 0 63.5 -20.5t24.5 -63.5t-24.5 -63.5t-63.5 -20.5h-518q-51 0 -73.5 28.5 t-22.5 69.5zM154 1676q0 47 31.5 78.5t78.5 31.5t79 -31.5t32 -78.5t-31.5 -79t-79.5 -32q-47 0 -78.5 32t-31.5 79zM535 1676q0 47 31.5 78.5t78.5 31.5t79 -31.5t32 -78.5t-32 -79t-79 -32t-78.5 32t-31.5 79z" />
<glyph unicode="&#xcc;" d="M-18 1762q0 23 18 54.5t59 31.5q14 0 28.5 -4.5t41.5 -14.5l236 -96q43 -16 57 -36.5t14 -39.5q0 -23 -18.5 -54.5t-59.5 -31.5q-14 0 -28.5 4t-40.5 15l-236 96q-43 16 -57 36.5t-14 39.5zM119 84v1290q0 45 24.5 70.5t65.5 25.5t65.5 -25.5t24.5 -70.5v-1290 q0 -45 -24.5 -70.5t-65.5 -25.5t-65.5 25.5t-24.5 70.5z" />
<glyph unicode="&#xcd;" d="M-18 1657q0 18 14 39t57 37l236 96q27 10 41 14.5t28 4.5q41 0 59.5 -32t18.5 -54q0 -18 -14 -39t-57 -37l-236 -96q-27 -10 -41 -14.5t-29 -4.5q-41 0 -59 32t-18 54zM119 84v1290q0 45 24.5 70.5t65.5 25.5t65.5 -25.5t24.5 -70.5v-1290q0 -45 -24.5 -70.5t-65.5 -25.5 t-65.5 25.5t-24.5 70.5z" />
<glyph unicode="&#xce;" d="M-102 1649q0 51 47 72l264 112l264 -112q47 -20 47 -72q0 -33 -19.5 -55.5t-54.5 -22.5q-8 0 -19 2t-26 8l-192 76l-193 -76q-14 -6 -25 -8t-20 -2q-35 0 -54 22.5t-19 55.5zM119 84v1290q0 45 24.5 70.5t65.5 25.5t65.5 -25.5t24.5 -70.5v-1290q0 -45 -24.5 -70.5 t-65.5 -25.5t-65.5 25.5t-24.5 70.5z" />
<glyph unicode="&#xcf;" d="M-92 1676q0 47 31.5 78.5t78.5 31.5t79 -31.5t32 -78.5t-31.5 -79t-79.5 -32q-47 0 -78.5 32t-31.5 79zM119 84v1290q0 45 24.5 70.5t65.5 25.5t65.5 -25.5t24.5 -70.5v-1290q0 -45 -24.5 -70.5t-65.5 -25.5t-65.5 25.5t-24.5 70.5zM289 1676q0 47 31.5 78.5t78.5 31.5 t79 -31.5t32 -78.5t-32 -79t-79 -32t-78.5 32t-31.5 79z" />
<glyph unicode="&#xd0;" horiz-adv-x="1290" d="M-37 735q0 39 24.5 58.5t63.5 19.5h78v547q0 41 22.5 69.5t73.5 28.5h355q162 0 283.5 -58.5t202.5 -157.5t121 -230t40 -275q0 -164 -42 -299t-122 -232t-195.5 -151.5t-263.5 -54.5h-379q-51 0 -73.5 28.5t-22.5 69.5v559h-78q-39 0 -63.5 19.5t-24.5 58.5zM309 156 h258q127 0 216 49t144.5 130t81 186.5t25.5 215.5q0 113 -26.5 215.5t-84 180t-148.5 124t-220 46.5h-246v-490h246q39 0 63.5 -19.5t24.5 -58.5t-24.5 -58.5t-63.5 -19.5h-246v-501z" />
<glyph unicode="&#xd1;" horiz-adv-x="1368" d="M119 84v1280q0 106 82 106q41 0 65.5 -20t61.5 -74l737 -1059h4v1057q0 45 24.5 70.5t65.5 25.5t65.5 -25.5t24.5 -70.5v-1280q0 -106 -82 -106q-41 0 -65.5 20.5t-61.5 73.5l-737 1059h-4v-1057q0 -45 -24.5 -70.5t-65.5 -25.5t-65.5 25.5t-24.5 70.5zM379 1669 q0 47 52 88t138 41q35 0 63.5 -6t54.5 -14t51.5 -14t55.5 -6q20 0 37 6t31 14t27.5 14t31.5 6q23 0 45.5 -23.5t22.5 -55.5q0 -47 -52 -88t-138 -41q-35 0 -64 6t-54.5 14t-51 14.5t-56.5 6.5q-23 0 -38 -6.5t-29.5 -14.5t-27.5 -14t-32 -6q-23 0 -45 23t-22 56z" />
<glyph unicode="&#xd2;" horiz-adv-x="1404" d="M63 729q0 141 41 275.5t122 238t201 165.5t275 62q156 0 276 -62t201 -165.5t121.5 -238t40.5 -275.5t-40.5 -275.5t-121.5 -237.5t-201 -165.5t-276 -62.5t-275.5 62.5t-200.5 165.5t-122 237.5t-41 275.5zM256 729q0 -104 23.5 -208.5t77 -188.5t138.5 -136.5 t207 -52.5q123 0 208 52.5t138.5 136.5t77 188.5t23.5 208.5t-23.5 208.5t-77 188.5t-138.5 136.5t-208 52.5t-207.5 -52.5t-138 -136.5t-77 -188.5t-23.5 -208.5zM476 1762q0 23 18 54.5t59 31.5q14 0 28.5 -4.5t41.5 -14.5l236 -96q43 -16 57 -36.5t14 -39.5 q0 -23 -18.5 -54.5t-59.5 -31.5q-14 0 -28.5 4t-40.5 15l-236 96q-43 16 -57 36.5t-14 39.5z" />
<glyph unicode="&#xd3;" horiz-adv-x="1404" d="M63 729q0 141 41 275.5t122 238t201 165.5t275 62q156 0 276 -62t201 -165.5t121.5 -238t40.5 -275.5t-40.5 -275.5t-121.5 -237.5t-201 -165.5t-276 -62.5t-275.5 62.5t-200.5 165.5t-122 237.5t-41 275.5zM256 729q0 -104 23.5 -208.5t77 -188.5t138.5 -136.5 t207 -52.5q123 0 208 52.5t138.5 136.5t77 188.5t23.5 208.5t-23.5 208.5t-77 188.5t-138.5 136.5t-208 52.5t-207.5 -52.5t-138 -136.5t-77 -188.5t-23.5 -208.5zM476 1657q0 18 14 39t57 37l236 96q27 10 41 14.5t28 4.5q41 0 59.5 -32t18.5 -54q0 -18 -14 -39t-57 -37 l-236 -96q-27 -10 -41 -14.5t-29 -4.5q-41 0 -59 32t-18 54z" />
<glyph unicode="&#xd4;" horiz-adv-x="1404" d="M63 729q0 141 41 275.5t122 238t201 165.5t275 62q156 0 276 -62t201 -165.5t121.5 -238t40.5 -275.5t-40.5 -275.5t-121.5 -237.5t-201 -165.5t-276 -62.5t-275.5 62.5t-200.5 165.5t-122 237.5t-41 275.5zM256 729q0 -104 23.5 -208.5t77 -188.5t138.5 -136.5 t207 -52.5q123 0 208 52.5t138.5 136.5t77 188.5t23.5 208.5t-23.5 208.5t-77 188.5t-138.5 136.5t-208 52.5t-207.5 -52.5t-138 -136.5t-77 -188.5t-23.5 -208.5zM392 1649q0 51 47 72l264 112l264 -112q47 -20 47 -72q0 -33 -19.5 -55.5t-54.5 -22.5q-8 0 -19 2t-26 8 l-192 76l-193 -76q-14 -6 -25 -8t-20 -2q-35 0 -54 22.5t-19 55.5z" />
<glyph unicode="&#xd5;" horiz-adv-x="1404" d="M63 729q0 141 41 275.5t122 238t201 165.5t275 62q156 0 276 -62t201 -165.5t121.5 -238t40.5 -275.5t-40.5 -275.5t-121.5 -237.5t-201 -165.5t-276 -62.5t-275.5 62.5t-200.5 165.5t-122 237.5t-41 275.5zM256 729q0 -104 23.5 -208.5t77 -188.5t138.5 -136.5 t207 -52.5q123 0 208 52.5t138.5 136.5t77 188.5t23.5 208.5t-23.5 208.5t-77 188.5t-138.5 136.5t-208 52.5t-207.5 -52.5t-138 -136.5t-77 -188.5t-23.5 -208.5zM398 1669q0 47 52 88t138 41q35 0 63.5 -6t54.5 -14t51.5 -14t55.5 -6q20 0 37 6t31 14t27.5 14t31.5 6 q23 0 45.5 -23.5t22.5 -55.5q0 -47 -52 -88t-138 -41q-35 0 -64 6t-54.5 14t-51 14.5t-56.5 6.5q-23 0 -38 -6.5t-29.5 -14.5t-27.5 -14t-32 -6q-23 0 -45 23t-22 56z" />
<glyph unicode="&#xd6;" horiz-adv-x="1404" d="M63 729q0 141 41 275.5t122 238t201 165.5t275 62q156 0 276 -62t201 -165.5t121.5 -238t40.5 -275.5t-40.5 -275.5t-121.5 -237.5t-201 -165.5t-276 -62.5t-275.5 62.5t-200.5 165.5t-122 237.5t-41 275.5zM256 729q0 -104 23.5 -208.5t77 -188.5t138.5 -136.5 t207 -52.5q123 0 208 52.5t138.5 136.5t77 188.5t23.5 208.5t-23.5 208.5t-77 188.5t-138.5 136.5t-208 52.5t-207.5 -52.5t-138 -136.5t-77 -188.5t-23.5 -208.5zM402 1676q0 47 31.5 78.5t78.5 31.5t79 -31.5t32 -78.5t-31.5 -79t-79.5 -32q-47 0 -78.5 32t-31.5 79z M783 1676q0 47 31.5 78.5t78.5 31.5t79 -31.5t32 -78.5t-32 -79t-79 -32t-78.5 32t-31.5 79z" />
<glyph unicode="&#xd7;" horiz-adv-x="1228" d="M143 123q0 20 7.5 36.5t35.5 45.5l314 313l-314 313q-29 29 -36 45.5t-7 36.5q0 29 20.5 52.5t53.5 23.5q23 0 41 -10t45 -37l311 -309l312 309q27 27 45 37t41 10q33 0 53 -23.5t20 -52.5q0 -20 -7 -36.5t-36 -45.5l-313 -313l313 -313q29 -29 36 -45.5t7 -36.5 q0 -29 -20.5 -52.5t-52.5 -23.5q-23 0 -41.5 10.5t-44.5 36.5l-312 312l-311 -312q-27 -27 -45 -37t-41 -10q-33 0 -53.5 23.5t-20.5 52.5z" />
<glyph unicode="&#xd8;" horiz-adv-x="1404" d="M41 27q0 12 6 26.5t23 34.5l135 158q-72 104 -107 227t-35 256q0 141 41 275.5t122 238t201 165.5t275 62q129 0 232.5 -43t181.5 -118l121 143q29 35 63 35q23 0 43.5 -14.5t20.5 -42.5q0 -27 -25 -54l-141 -164q72 -100 107.5 -225t35.5 -258q0 -141 -40.5 -275.5 t-121.5 -237.5t-201 -165.5t-276 -62.5q-129 0 -232 44t-181 120l-125 -148q-10 -12 -26.5 -22.5t-37.5 -10.5q-29 0 -44 18.5t-15 37.5zM256 729q0 -88 16.5 -175t55.5 -165l680 795q-53 59 -128 95t-178 36q-123 0 -207.5 -52.5t-138 -136.5t-77 -188t-23.5 -209zM397 276 q53 -63 128 -98t177 -35q123 0 208 52.5t138.5 136.5t77 188.5t23.5 208.5q0 90 -16.5 178t-53.5 166z" />
<glyph unicode="&#xd9;" horiz-adv-x="1368" d="M119 578v796q0 45 24.5 70.5t65.5 25.5t65.5 -25.5t24.5 -70.5v-866q0 -172 106.5 -268.5t278.5 -96.5t278.5 96.5t106.5 268.5v866q0 45 24.5 70.5t65.5 25.5t65.5 -25.5t24.5 -70.5v-796q0 -184 -53 -300t-136 -180.5t-182.5 -87t-193.5 -22.5t-193.5 22.5t-182.5 87 t-136 180t-53 300.5zM457 1762q0 23 18 54.5t59 31.5q14 0 28.5 -4.5t41.5 -14.5l236 -96q43 -16 57 -36.5t14 -39.5q0 -23 -18.5 -54.5t-59.5 -31.5q-14 0 -28.5 4t-40.5 15l-236 96q-43 16 -57 36.5t-14 39.5z" />
<glyph unicode="&#xda;" horiz-adv-x="1368" d="M119 578v796q0 45 24.5 70.5t65.5 25.5t65.5 -25.5t24.5 -70.5v-866q0 -172 106.5 -268.5t278.5 -96.5t278.5 96.5t106.5 268.5v866q0 45 24.5 70.5t65.5 25.5t65.5 -25.5t24.5 -70.5v-796q0 -184 -53 -300t-136 -180.5t-182.5 -87t-193.5 -22.5t-193.5 22.5t-182.5 87 t-136 180t-53 300.5zM457 1657q0 18 14 39t57 37l236 96q27 10 41 14.5t28 4.5q41 0 59.5 -32t18.5 -54q0 -18 -14 -39t-57 -37l-236 -96q-27 -10 -41 -14.5t-29 -4.5q-41 0 -59 32t-18 54z" />
<glyph unicode="&#xdb;" horiz-adv-x="1368" d="M119 578v796q0 45 24.5 70.5t65.5 25.5t65.5 -25.5t24.5 -70.5v-866q0 -172 106.5 -268.5t278.5 -96.5t278.5 96.5t106.5 268.5v866q0 45 24.5 70.5t65.5 25.5t65.5 -25.5t24.5 -70.5v-796q0 -184 -53 -300t-136 -180.5t-182.5 -87t-193.5 -22.5t-193.5 22.5t-182.5 87 t-136 180t-53 300.5zM373 1649q0 51 47 72l264 112l264 -112q47 -20 47 -72q0 -33 -19.5 -55.5t-54.5 -22.5q-8 0 -19 2t-26 8l-192 76l-193 -76q-14 -6 -25 -8t-20 -2q-35 0 -54 22.5t-19 55.5z" />
<glyph unicode="&#xdc;" horiz-adv-x="1368" d="M119 578v796q0 45 24.5 70.5t65.5 25.5t65.5 -25.5t24.5 -70.5v-866q0 -172 106.5 -268.5t278.5 -96.5t278.5 96.5t106.5 268.5v866q0 45 24.5 70.5t65.5 25.5t65.5 -25.5t24.5 -70.5v-796q0 -184 -53 -300t-136 -180.5t-182.5 -87t-193.5 -22.5t-193.5 22.5t-182.5 87 t-136 180t-53 300.5zM383 1676q0 47 31.5 78.5t78.5 31.5t79 -31.5t32 -78.5t-31.5 -79t-79.5 -32q-47 0 -78.5 32t-31.5 79zM764 1676q0 47 31.5 78.5t78.5 31.5t79 -31.5t32 -78.5t-32 -79t-79 -32t-78.5 32t-31.5 79z" />
<glyph unicode="&#xdd;" horiz-adv-x="1024" d="M2 1397q0 35 23.5 54t58.5 19q25 0 47.5 -11t42.5 -46l338 -551l338 551q20 35 42.5 46t47.5 11q35 0 58.5 -19t23.5 -54q0 -31 -29 -76l-391 -637v-600q0 -45 -24.5 -70.5t-65.5 -25.5t-65.5 25.5t-24.5 70.5v600l-391 637q-29 45 -29 76zM285 1657q0 18 14 39t57 37 l236 96q27 10 41 14.5t28 4.5q41 0 59.5 -32t18.5 -54q0 -18 -14 -39t-57 -37l-236 -96q-27 -10 -41 -14.5t-29 -4.5q-41 0 -59 32t-18 54z" />
<glyph unicode="&#xde;" horiz-adv-x="1062" d="M119 84v1290q0 45 24.5 70.5t65.5 25.5t65.5 -25.5t24.5 -70.5v-145h272q111 0 198 -36t148.5 -98.5t94 -145.5t32.5 -177t-35.5 -177t-98 -144.5t-147.5 -96.5t-185 -35h-279v-235q0 -45 -24.5 -70.5t-65.5 -25.5t-65.5 25.5t-24.5 70.5zM299 475h266q68 0 122 23.5 t94 63.5t61.5 94.5t21.5 115.5q0 51 -16.5 105.5t-53 97.5t-95 70.5t-142.5 27.5h-258v-598z" />
<glyph unicode="&#xdf;" horiz-adv-x="1138" d="M119 76v1077q0 100 28.5 180t81 135.5t124 84t159.5 28.5q94 0 169 -34t128 -87t82 -119.5t29 -132.5q0 -117 -37 -201.5t-121 -142.5q66 -16 117 -55t85.5 -93t53 -121t18.5 -136q0 -82 -26.5 -166t-78.5 -151.5t-128 -110.5t-172 -43q-66 0 -92.5 23.5t-26.5 60.5 q0 29 14.5 53.5t53.5 24.5q78 0 129 23.5t80.5 65.5t42 100t12.5 128q0 72 -19.5 127t-53.5 92t-79 56.5t-96 23.5t-71.5 22.5t-20.5 53.5q0 43 20.5 58t71.5 32q25 8 50.5 20.5t46 40t33.5 73.5t13 122q0 98 -59 167.5t-164 69.5q-41 0 -80 -13t-69.5 -48t-49 -94.5 t-18.5 -151.5v-1042q0 -47 -28.5 -67.5t-61.5 -20.5t-61.5 20.5t-28.5 67.5z" />
<glyph unicode="&#xe0;" horiz-adv-x="1138" d="M72 545q0 109 31.5 209t93 178t150.5 124t204 46q94 0 163.5 -38t133.5 -108h4v58q0 47 27.5 67.5t56.5 20.5q27 0 55.5 -20.5t28.5 -67.5v-938q0 -47 -28.5 -67.5t-55.5 -20.5q-29 0 -56.5 20.5t-27.5 67.5v76h-4q-59 -84 -134 -124t-163 -40q-115 0 -204 46t-150.5 124 t-93 178t-31.5 209zM252 545q0 -70 15.5 -140.5t51 -129t92 -95.5t140.5 -37q82 0 139.5 37t93 95.5t51 129t15.5 140.5t-15.5 140.5t-51 128.5t-93 95t-139.5 37q-84 0 -140.5 -37t-92 -95t-51 -128.5t-15.5 -140.5zM342 1434q0 23 18 54.5t59 31.5q14 0 28.5 -4.5 t41.5 -14.5l236 -96q43 -16 57 -36.5t14 -39.5q0 -23 -18.5 -54.5t-59.5 -31.5q-14 0 -28.5 4t-40.5 15l-236 96q-43 16 -57 36.5t-14 39.5z" />
<glyph unicode="&#xe1;" horiz-adv-x="1138" d="M72 545q0 109 31.5 209t93 178t150.5 124t204 46q94 0 163.5 -38t133.5 -108h4v58q0 47 27.5 67.5t56.5 20.5q27 0 55.5 -20.5t28.5 -67.5v-938q0 -47 -28.5 -67.5t-55.5 -20.5q-29 0 -56.5 20.5t-27.5 67.5v76h-4q-59 -84 -134 -124t-163 -40q-115 0 -204 46t-150.5 124 t-93 178t-31.5 209zM252 545q0 -70 15.5 -140.5t51 -129t92 -95.5t140.5 -37q82 0 139.5 37t93 95.5t51 129t15.5 140.5t-15.5 140.5t-51 128.5t-93 95t-139.5 37q-84 0 -140.5 -37t-92 -95t-51 -128.5t-15.5 -140.5zM342 1329q0 18 14 39t57 37l236 96q27 10 41 14.5 t28 4.5q41 0 59.5 -32t18.5 -54q0 -18 -14 -39t-57 -37l-236 -96q-27 -10 -41 -14.5t-29 -4.5q-41 0 -59 32t-18 54z" />
<glyph unicode="&#xe2;" horiz-adv-x="1138" d="M72 545q0 109 31.5 209t93 178t150.5 124t204 46q94 0 163.5 -38t133.5 -108h4v58q0 47 27.5 67.5t56.5 20.5q27 0 55.5 -20.5t28.5 -67.5v-938q0 -47 -28.5 -67.5t-55.5 -20.5q-29 0 -56.5 20.5t-27.5 67.5v76h-4q-59 -84 -134 -124t-163 -40q-115 0 -204 46t-150.5 124 t-93 178t-31.5 209zM252 545q0 -70 15.5 -140.5t51 -129t92 -95.5t140.5 -37q82 0 139.5 37t93 95.5t51 129t15.5 140.5t-15.5 140.5t-51 128.5t-93 95t-139.5 37q-84 0 -140.5 -37t-92 -95t-51 -128.5t-15.5 -140.5zM258 1321q0 51 47 72l264 112l264 -112q47 -20 47 -72 q0 -33 -19.5 -55.5t-54.5 -22.5q-8 0 -19 2t-26 8l-192 76l-193 -76q-14 -6 -25 -8t-20 -2q-35 0 -54 22.5t-19 55.5z" />
<glyph unicode="&#xe3;" horiz-adv-x="1138" d="M72 545q0 109 31.5 209t93 178t150.5 124t204 46q94 0 163.5 -38t133.5 -108h4v58q0 47 27.5 67.5t56.5 20.5q27 0 55.5 -20.5t28.5 -67.5v-938q0 -47 -28.5 -67.5t-55.5 -20.5q-29 0 -56.5 20.5t-27.5 67.5v76h-4q-59 -84 -134 -124t-163 -40q-115 0 -204 46t-150.5 124 t-93 178t-31.5 209zM252 545q0 -70 15.5 -140.5t51 -129t92 -95.5t140.5 -37q82 0 139.5 37t93 95.5t51 129t15.5 140.5t-15.5 140.5t-51 128.5t-93 95t-139.5 37q-84 0 -140.5 -37t-92 -95t-51 -128.5t-15.5 -140.5zM264 1341q0 47 52 88t138 41q35 0 63.5 -6t54.5 -14 t51.5 -14t55.5 -6q20 0 37 6t31 14t27.5 14t31.5 6q23 0 45.5 -23.5t22.5 -55.5q0 -47 -52 -88t-138 -41q-35 0 -64 6t-54.5 14t-51 14.5t-56.5 6.5q-23 0 -38 -6.5t-29.5 -14.5t-27.5 -14t-32 -6q-23 0 -45 23t-22 56z" />
<glyph unicode="&#xe4;" horiz-adv-x="1138" d="M72 545q0 109 31.5 209t93 178t150.5 124t204 46q94 0 163.5 -38t133.5 -108h4v58q0 47 27.5 67.5t56.5 20.5q27 0 55.5 -20.5t28.5 -67.5v-938q0 -47 -28.5 -67.5t-55.5 -20.5q-29 0 -56.5 20.5t-27.5 67.5v76h-4q-59 -84 -134 -124t-163 -40q-115 0 -204 46t-150.5 124 t-93 178t-31.5 209zM252 545q0 -70 15.5 -140.5t51 -129t92 -95.5t140.5 -37q82 0 139.5 37t93 95.5t51 129t15.5 140.5t-15.5 140.5t-51 128.5t-93 95t-139.5 37q-84 0 -140.5 -37t-92 -95t-51 -128.5t-15.5 -140.5zM268 1348q0 47 31.5 78.5t78.5 31.5t79 -31.5t32 -78.5 t-31.5 -79t-79.5 -32q-47 0 -78.5 32t-31.5 79zM649 1348q0 47 31.5 78.5t78.5 31.5t79 -31.5t32 -78.5t-32 -79t-79 -32t-78.5 32t-31.5 79z" />
<glyph unicode="&#xe5;" horiz-adv-x="1138" d="M72 545q0 109 31.5 209t93 178t150.5 124t204 46q94 0 163.5 -38t133.5 -108h4v58q0 47 27.5 67.5t56.5 20.5q27 0 55.5 -20.5t28.5 -67.5v-938q0 -47 -28.5 -67.5t-55.5 -20.5q-29 0 -56.5 20.5t-27.5 67.5v76h-4q-59 -84 -134 -124t-163 -40q-115 0 -204 46t-150.5 124 t-93 178t-31.5 209zM252 545q0 -70 15.5 -140.5t51 -129t92 -95.5t140.5 -37q82 0 139.5 37t93 95.5t51 129t15.5 140.5t-15.5 140.5t-51 128.5t-93 95t-139.5 37q-84 0 -140.5 -37t-92 -95t-51 -128.5t-15.5 -140.5zM376 1389q0 39 15.5 74.5t41 61t60.5 41t76 15.5 q39 0 74.5 -15.5t61.5 -41t41 -61.5t15 -74q0 -41 -15 -76t-41 -60.5t-61.5 -41t-74.5 -15.5q-41 0 -76 15.5t-60.5 41t-41 60.5t-15.5 76zM475 1389q0 -39 27.5 -67t66.5 -28t66.5 28t27.5 67t-27.5 66.5t-66.5 27.5t-66.5 -27.5t-27.5 -66.5z" />
<glyph unicode="&#xe6;" horiz-adv-x="1820" d="M72 545q0 109 31.5 209t93 178t150.5 124t204 46q94 0 163.5 -38t131.5 -108h4v58q0 47 27.5 67.5t56.5 20.5q27 0 55.5 -20.5t28.5 -67.5v-45h4q8 10 32.5 32.5t62.5 45t87 39t105 16.5q88 0 170 -38t146.5 -106.5t103 -167t38.5 -219.5q0 -47 -20.5 -71.5t-79.5 -24.5 h-666q2 -61 25 -120.5t63.5 -105.5t101 -75t140.5 -27q82 2 137.5 25t92 48.5t63.5 48t55 22.5q25 2 44.5 -19.5t21.5 -60.5q0 -33 -35 -72t-92 -72.5t-130 -56t-145 -22.5q-100 0 -184 32.5t-137 98.5h-4v-43q0 -47 -28.5 -67.5t-55.5 -20.5q-29 0 -56.5 20.5t-27.5 67.5 v76h-4q-57 -84 -132 -124t-163 -40q-115 0 -204 46t-150.5 124t-93 178t-31.5 209zM252 545q0 -70 15.5 -140.5t51 -129t92 -95.5t140.5 -37q82 0 139.5 37t93 95.5t51 129t15.5 140.5t-15.5 140.5t-51 128.5t-93 95t-139.5 37q-84 0 -140.5 -37t-92 -95t-51 -128.5 t-15.5 -140.5zM1014 610h573q0 57 -17.5 117.5t-52 109t-90 79t-129.5 30.5q-78 0 -132 -30.5t-88 -79t-49 -108.5t-15 -118z" />
<glyph unicode="&#xe7;" horiz-adv-x="909" d="M72 545q0 109 29.5 209t91 178t153.5 124t217 46q139 0 216 -41t77 -96q0 -29 -20.5 -52.5t-53.5 -23.5q-27 0 -47 9t-42.5 19.5t-53.5 19.5t-76 9q-84 0 -143.5 -37t-96 -95t-54 -129t-17.5 -140q0 -70 17.5 -140.5t54 -129t96 -95.5t143.5 -37q47 0 79 9.5t55.5 21.5 t42 21.5t40.5 9.5q31 0 50.5 -19.5t19.5 -56.5q0 -49 -67.5 -92t-200.5 -47l-52 -76q8 2 17.5 4t25.5 2q33 0 59.5 -11t45 -27.5t28 -36t9.5 -38.5q0 -94 -64.5 -135t-163.5 -41q-66 0 -107.5 19.5t-41.5 52.5q0 20 10 37.5t33 17.5q20 0 49 -8t57 -8q37 0 54.5 12.5 t17.5 42.5q0 29 -22.5 33t-67.5 4q-39 0 -50 15.5t-11 23.5q0 20 20 51l49 72q-102 14 -179 65.5t-127 126t-74.5 166.5t-24.5 191z" />
<glyph unicode="&#xe8;" horiz-adv-x="1064" d="M53 545q0 111 34 211t96.5 177t153.5 123t206 46q111 0 198.5 -46t147 -121t91.5 -170t32 -194q0 -47 -20.5 -71.5t-80.5 -24.5h-678q0 -70 21.5 -130t63.5 -105t101.5 -71t135.5 -26q90 0 149.5 22.5t99.5 50.5t67.5 51.5t52.5 23.5t45 -20.5t20 -59.5q0 -33 -38 -72 t-100.5 -72.5t-140 -56t-157.5 -22.5q-131 0 -225.5 46t-155.5 124t-90 178t-29 209zM233 610h598q0 57 -17 116.5t-52 108t-90.5 79t-128.5 32.5q-84 2 -141.5 -27.5t-94.5 -76.5t-54 -108.5t-20 -123.5zM306 1434q0 23 18 54.5t59 31.5q14 0 28.5 -4.5t41.5 -14.5l236 -96 q43 -16 57 -36.5t14 -39.5q0 -23 -18.5 -54.5t-59.5 -31.5q-14 0 -28.5 4t-40.5 15l-236 96q-43 16 -57 36.5t-14 39.5z" />
<glyph unicode="&#xe9;" horiz-adv-x="1064" d="M53 545q0 111 34 211t96.5 177t153.5 123t206 46q111 0 198.5 -46t147 -121t91.5 -170t32 -194q0 -47 -20.5 -71.5t-80.5 -24.5h-678q0 -70 21.5 -130t63.5 -105t101.5 -71t135.5 -26q90 0 149.5 22.5t99.5 50.5t67.5 51.5t52.5 23.5t45 -20.5t20 -59.5q0 -33 -38 -72 t-100.5 -72.5t-140 -56t-157.5 -22.5q-131 0 -225.5 46t-155.5 124t-90 178t-29 209zM233 610h598q0 57 -17 116.5t-52 108t-90.5 79t-128.5 32.5q-84 2 -141.5 -27.5t-94.5 -76.5t-54 -108.5t-20 -123.5zM306 1329q0 18 14 39t57 37l236 96q27 10 41 14.5t28 4.5 q41 0 59.5 -32t18.5 -54q0 -18 -14 -39t-57 -37l-236 -96q-27 -10 -41 -14.5t-29 -4.5q-41 0 -59 32t-18 54z" />
<glyph unicode="&#xea;" horiz-adv-x="1064" d="M53 545q0 111 34 211t96.5 177t153.5 123t206 46q111 0 198.5 -46t147 -121t91.5 -170t32 -194q0 -47 -20.5 -71.5t-80.5 -24.5h-678q0 -70 21.5 -130t63.5 -105t101.5 -71t135.5 -26q90 0 149.5 22.5t99.5 50.5t67.5 51.5t52.5 23.5t45 -20.5t20 -59.5q0 -33 -38 -72 t-100.5 -72.5t-140 -56t-157.5 -22.5q-131 0 -225.5 46t-155.5 124t-90 178t-29 209zM222 1321q0 51 47 72l264 112l264 -112q47 -20 47 -72q0 -33 -19.5 -55.5t-54.5 -22.5q-8 0 -19 2t-26 8l-192 76l-193 -76q-14 -6 -25 -8t-20 -2q-35 0 -54 22.5t-19 55.5zM233 610h598 q0 57 -17 116.5t-52 108t-90.5 79t-128.5 32.5q-84 2 -141.5 -27.5t-94.5 -76.5t-54 -108.5t-20 -123.5z" />
<glyph unicode="&#xeb;" horiz-adv-x="1064" d="M53 545q0 111 34 211t96.5 177t153.5 123t206 46q111 0 198.5 -46t147 -121t91.5 -170t32 -194q0 -47 -20.5 -71.5t-80.5 -24.5h-678q0 -70 21.5 -130t63.5 -105t101.5 -71t135.5 -26q90 0 149.5 22.5t99.5 50.5t67.5 51.5t52.5 23.5t45 -20.5t20 -59.5q0 -33 -38 -72 t-100.5 -72.5t-140 -56t-157.5 -22.5q-131 0 -225.5 46t-155.5 124t-90 178t-29 209zM232 1348q0 47 31.5 78.5t78.5 31.5t79 -31.5t32 -78.5t-31.5 -79t-79.5 -32q-47 0 -78.5 32t-31.5 79zM233 610h598q0 57 -17 116.5t-52 108t-90.5 79t-128.5 32.5q-84 2 -141.5 -27.5 t-94.5 -76.5t-54 -108.5t-20 -123.5zM613 1348q0 47 31.5 78.5t78.5 31.5t79 -31.5t32 -78.5t-32 -79t-79 -32t-78.5 32t-31.5 79z" />
<glyph unicode="&#xec;" d="M-18 1434q0 23 18 54.5t59 31.5q14 0 28.5 -4.5t41.5 -14.5l236 -96q43 -16 57 -36.5t14 -39.5q0 -23 -18.5 -54.5t-59.5 -31.5q-14 0 -28.5 4t-40.5 15l-236 96q-43 16 -57 36.5t-14 39.5zM119 84v922q0 45 24.5 70.5t65.5 25.5t65.5 -25.5t24.5 -70.5v-922 q0 -45 -24.5 -70.5t-65.5 -25.5t-65.5 25.5t-24.5 70.5z" />
<glyph unicode="&#xed;" d="M-18 1329q0 18 14 39t57 37l236 96q27 10 41 14.5t28 4.5q41 0 59.5 -32t18.5 -54q0 -18 -14 -39t-57 -37l-236 -96q-27 -10 -41 -14.5t-29 -4.5q-41 0 -59 32t-18 54zM119 84v922q0 45 24.5 70.5t65.5 25.5t65.5 -25.5t24.5 -70.5v-922q0 -45 -24.5 -70.5t-65.5 -25.5 t-65.5 25.5t-24.5 70.5z" />
<glyph unicode="&#xee;" d="M-102 1321q0 51 47 72l264 112l264 -112q47 -20 47 -72q0 -33 -19.5 -55.5t-54.5 -22.5q-8 0 -19 2t-26 8l-192 76l-193 -76q-14 -6 -25 -8t-20 -2q-35 0 -54 22.5t-19 55.5zM119 84v922q0 45 24.5 70.5t65.5 25.5t65.5 -25.5t24.5 -70.5v-922q0 -45 -24.5 -70.5 t-65.5 -25.5t-65.5 25.5t-24.5 70.5z" />
<glyph unicode="&#xef;" d="M-92 1348q0 47 31.5 78.5t78.5 31.5t79 -31.5t32 -78.5t-31.5 -79t-79.5 -32q-47 0 -78.5 32t-31.5 79zM119 84v922q0 45 24.5 70.5t65.5 25.5t65.5 -25.5t24.5 -70.5v-922q0 -45 -24.5 -70.5t-65.5 -25.5t-65.5 25.5t-24.5 70.5zM289 1348q0 47 31.5 78.5t78.5 31.5 t79 -31.5t32 -78.5t-32 -79t-79 -32t-78.5 32t-31.5 79z" />
<glyph unicode="&#xf0;" horiz-adv-x="1101" d="M72 537q0 104 30.5 203.5t90 177t146.5 125t200 47.5q72 0 143.5 -33t114.5 -90l4 4q-37 100 -106.5 185t-141.5 144l-178 -86q-23 -10 -36 -14t-24 -4q-18 0 -33.5 15.5t-15.5 39.5q0 12 7.5 24.5t27.5 22.5l158 76q-35 27 -69 42.5t-61.5 27.5t-45 28.5t-17.5 45.5 t20.5 46t55.5 17q25 0 58.5 -10t71.5 -27.5t76 -40t70 -47.5l189 94q37 18 59 19q16 0 32.5 -10.5t16.5 -38.5q0 -25 -10 -37.5t-33 -22.5l-159 -78q90 -80 150.5 -169t97 -185t53 -200.5t16.5 -215.5q0 -135 -29.5 -249.5t-90 -197.5t-153.5 -130t-218 -47q-113 0 -200 47 t-146.5 124t-90 176.5t-30.5 201.5zM252 537q0 -70 17.5 -139.5t54 -126t93 -92.5t134.5 -36t134 36t93 92.5t54.5 126t17.5 139.5t-17.5 139t-54.5 125.5t-93 92.5t-134 36t-134.5 -36t-93 -92.5t-54 -125.5t-17.5 -139z" />
<glyph unicode="&#xf1;" horiz-adv-x="1101" d="M119 84v922q0 45 24.5 70.5t65.5 25.5t65.5 -25.5t24.5 -70.5v-43l4 -5q59 78 139 111t162 33q63 0 130 -21.5t122 -70.5t91 -128t36 -194v-604q0 -45 -24.5 -70.5t-65.5 -25.5t-65.5 25.5t-24.5 70.5v594q0 72 -22.5 123t-58.5 82.5t-81 47t-90 15.5t-90 -15.5t-81 -47 t-58.5 -82.5t-22.5 -123v-594q0 -45 -24.5 -70.5t-65.5 -25.5t-65.5 25.5t-24.5 70.5zM246 1341q0 47 52 88t138 41q35 0 63.5 -6t54.5 -14t51.5 -14t55.5 -6q20 0 37 6t31 14t27.5 14t31.5 6q23 0 45.5 -23.5t22.5 -55.5q0 -47 -52 -88t-138 -41q-35 0 -64 6t-54.5 14 t-51 14.5t-56.5 6.5q-23 0 -38 -6.5t-29.5 -14.5t-27.5 -14t-32 -6q-23 0 -45 23t-22 56z" />
<glyph unicode="&#xf2;" horiz-adv-x="1101" d="M72 545q0 109 31.5 209t93 178t150.5 124t204 46t204 -46t150.5 -124t93 -178.5t31.5 -208.5q0 -109 -31.5 -209t-93 -178t-150.5 -124t-204 -46t-204 46t-150.5 124t-93 178t-31.5 209zM252 545q0 -70 15.5 -140.5t51 -129t92 -95.5t140.5 -37q82 0 139.5 37t93 95.5 t51 129t15.5 140.5t-15.5 140.5t-51 128.5t-93 95t-139.5 37q-84 0 -140.5 -37t-92 -95t-51 -128.5t-15.5 -140.5zM324 1434q0 23 18 54.5t59 31.5q14 0 28.5 -4.5t41.5 -14.5l236 -96q43 -16 57 -36.5t14 -39.5q0 -23 -18.5 -54.5t-59.5 -31.5q-14 0 -28.5 4t-40.5 15 l-236 96q-43 16 -57 36.5t-14 39.5z" />
<glyph unicode="&#xf3;" horiz-adv-x="1101" d="M72 545q0 109 31.5 209t93 178t150.5 124t204 46t204 -46t150.5 -124t93 -178.5t31.5 -208.5q0 -109 -31.5 -209t-93 -178t-150.5 -124t-204 -46t-204 46t-150.5 124t-93 178t-31.5 209zM252 545q0 -70 15.5 -140.5t51 -129t92 -95.5t140.5 -37q82 0 139.5 37t93 95.5 t51 129t15.5 140.5t-15.5 140.5t-51 128.5t-93 95t-139.5 37q-84 0 -140.5 -37t-92 -95t-51 -128.5t-15.5 -140.5zM324 1329q0 18 14 39t57 37l236 96q27 10 41 14.5t28 4.5q41 0 59.5 -32t18.5 -54q0 -18 -14 -39t-57 -37l-236 -96q-27 -10 -41 -14.5t-29 -4.5 q-41 0 -59 32t-18 54z" />
<glyph unicode="&#xf4;" horiz-adv-x="1101" d="M72 545q0 109 31.5 209t93 178t150.5 124t204 46t204 -46t150.5 -124t93 -178.5t31.5 -208.5q0 -109 -31.5 -209t-93 -178t-150.5 -124t-204 -46t-204 46t-150.5 124t-93 178t-31.5 209zM240 1321q0 51 47 72l264 112l264 -112q47 -20 47 -72q0 -33 -19.5 -55.5 t-54.5 -22.5q-8 0 -19 2t-26 8l-192 76l-193 -76q-14 -6 -25 -8t-20 -2q-35 0 -54 22.5t-19 55.5zM252 545q0 -70 15.5 -140.5t51 -129t92 -95.5t140.5 -37q82 0 139.5 37t93 95.5t51 129t15.5 140.5t-15.5 140.5t-51 128.5t-93 95t-139.5 37q-84 0 -140.5 -37t-92 -95 t-51 -128.5t-15.5 -140.5z" />
<glyph unicode="&#xf5;" horiz-adv-x="1101" d="M72 545q0 109 31.5 209t93 178t150.5 124t204 46t204 -46t150.5 -124t93 -178.5t31.5 -208.5q0 -109 -31.5 -209t-93 -178t-150.5 -124t-204 -46t-204 46t-150.5 124t-93 178t-31.5 209zM246 1341q0 47 52 88t138 41q35 0 63.5 -6t54.5 -14t51.5 -14t55.5 -6q20 0 37 6 t31 14t27.5 14t31.5 6q23 0 45.5 -23.5t22.5 -55.5q0 -47 -52 -88t-138 -41q-35 0 -64 6t-54.5 14t-51 14.5t-56.5 6.5q-23 0 -38 -6.5t-29.5 -14.5t-27.5 -14t-32 -6q-23 0 -45 23t-22 56zM252 545q0 -70 15.5 -140.5t51 -129t92 -95.5t140.5 -37q82 0 139.5 37t93 95.5 t51 129t15.5 140.5t-15.5 140.5t-51 128.5t-93 95t-139.5 37q-84 0 -140.5 -37t-92 -95t-51 -128.5t-15.5 -140.5z" />
<glyph unicode="&#xf6;" horiz-adv-x="1101" d="M72 545q0 109 31.5 209t93 178t150.5 124t204 46t204 -46t150.5 -124t93 -178.5t31.5 -208.5q0 -109 -31.5 -209t-93 -178t-150.5 -124t-204 -46t-204 46t-150.5 124t-93 178t-31.5 209zM250 1348q0 47 31.5 78.5t78.5 31.5t79 -31.5t32 -78.5t-31.5 -79t-79.5 -32 q-47 0 -78.5 32t-31.5 79zM252 545q0 -70 15.5 -140.5t51 -129t92 -95.5t140.5 -37q82 0 139.5 37t93 95.5t51 129t15.5 140.5t-15.5 140.5t-51 128.5t-93 95t-139.5 37q-84 0 -140.5 -37t-92 -95t-51 -128.5t-15.5 -140.5zM631 1348q0 47 31.5 78.5t78.5 31.5t79 -31.5 t32 -78.5t-32 -79t-79 -32t-78.5 32t-31.5 79z" />
<glyph unicode="&#xf7;" horiz-adv-x="1228" d="M96 518q0 43 24.5 63.5t63.5 20.5h860q39 0 64 -20.5t25 -63.5t-25 -63.5t-64 -20.5h-860q-39 0 -63.5 20.5t-24.5 63.5zM467 94q0 61 43 104.5t104 43.5t104.5 -43t43.5 -105q0 -61 -43 -104t-105 -43q-61 0 -104 43t-43 104zM467 942q0 61 43 104.5t104 43.5t104.5 -43 t43.5 -105q0 -61 -43 -104t-105 -43q-61 0 -104 43t-43 104z" />
<glyph unicode="&#xf8;" horiz-adv-x="1101" d="M47 8q0 29 37 72l92 110q-53 72 -78.5 164t-25.5 191q0 109 31.5 209t93 178t150.5 124t204 46q90 0 163.5 -29t129.5 -76l84 103q12 16 27.5 27.5t35.5 11.5q27 0 45.5 -16.5t18.5 -41.5q0 -20 -7.5 -33.5t-21.5 -29.5l-98 -117q51 -78 76.5 -168t25.5 -188 q0 -109 -31.5 -209t-93 -178t-150.5 -124t-204 -46q-88 0 -161 27.5t-130 78.5l-86 -104q-16 -18 -30.5 -28.5t-34.5 -10.5q-27 0 -44.5 17.5t-17.5 39.5zM252 545q0 -53 9 -108.5t32 -104.5l446 538q-35 35 -82 55.5t-106 20.5q-84 0 -140.5 -37t-92 -95t-51 -129 t-15.5 -140zM362 219q35 -35 82.5 -55.5t106.5 -20.5q82 0 139.5 37t93 95.5t51 129t15.5 140.5q0 53 -9.5 107.5t-31.5 105.5z" />
<glyph unicode="&#xf9;" horiz-adv-x="1101" d="M119 422v584q0 45 24.5 70.5t65.5 25.5t65.5 -25.5t24.5 -70.5v-578q0 -285 252 -285t252 285v578q0 45 24.5 70.5t65.5 25.5t65.5 -25.5t24.5 -70.5v-584q0 -121 -37 -203t-97.5 -134t-138 -74.5t-159.5 -22.5t-160 22.5t-138 74.5t-97 134t-37 203zM324 1434 q0 23 18 54.5t59 31.5q14 0 28.5 -4.5t41.5 -14.5l236 -96q43 -16 57 -36.5t14 -39.5q0 -23 -18.5 -54.5t-59.5 -31.5q-14 0 -28.5 4t-40.5 15l-236 96q-43 16 -57 36.5t-14 39.5z" />
<glyph unicode="&#xfa;" horiz-adv-x="1101" d="M119 422v584q0 45 24.5 70.5t65.5 25.5t65.5 -25.5t24.5 -70.5v-578q0 -285 252 -285t252 285v578q0 45 24.5 70.5t65.5 25.5t65.5 -25.5t24.5 -70.5v-584q0 -121 -37 -203t-97.5 -134t-138 -74.5t-159.5 -22.5t-160 22.5t-138 74.5t-97 134t-37 203zM324 1329 q0 18 14 39t57 37l236 96q27 10 41 14.5t28 4.5q41 0 59.5 -32t18.5 -54q0 -18 -14 -39t-57 -37l-236 -96q-27 -10 -41 -14.5t-29 -4.5q-41 0 -59 32t-18 54z" />
<glyph unicode="&#xfb;" horiz-adv-x="1101" d="M119 422v584q0 45 24.5 70.5t65.5 25.5t65.5 -25.5t24.5 -70.5v-578q0 -285 252 -285t252 285v578q0 45 24.5 70.5t65.5 25.5t65.5 -25.5t24.5 -70.5v-584q0 -121 -37 -203t-97.5 -134t-138 -74.5t-159.5 -22.5t-160 22.5t-138 74.5t-97 134t-37 203zM240 1321 q0 51 47 72l264 112l264 -112q47 -20 47 -72q0 -33 -19.5 -55.5t-54.5 -22.5q-8 0 -19 2t-26 8l-192 76l-193 -76q-14 -6 -25 -8t-20 -2q-35 0 -54 22.5t-19 55.5z" />
<glyph unicode="&#xfc;" horiz-adv-x="1101" d="M119 422v584q0 45 24.5 70.5t65.5 25.5t65.5 -25.5t24.5 -70.5v-578q0 -285 252 -285t252 285v578q0 45 24.5 70.5t65.5 25.5t65.5 -25.5t24.5 -70.5v-584q0 -121 -37 -203t-97.5 -134t-138 -74.5t-159.5 -22.5t-160 22.5t-138 74.5t-97 134t-37 203zM250 1348 q0 47 31.5 78.5t78.5 31.5t79 -31.5t32 -78.5t-31.5 -79t-79.5 -32q-47 0 -78.5 32t-31.5 79zM631 1348q0 47 31.5 78.5t78.5 31.5t79 -31.5t32 -78.5t-32 -79t-79 -32t-78.5 32t-31.5 79z" />
<glyph unicode="&#xfd;" horiz-adv-x="909" d="M35 1026q0 35 25.5 55.5t56.5 20.5q35 0 57.5 -19.5t32.5 -48.5l250 -747h4l246 747q10 29 30.5 48.5t55.5 19.5q31 0 56 -20.5t25 -55.5q0 -16 -4 -34.5t-20 -65.5l-455 -1301q-10 -29 -31.5 -48t-56.5 -19q-31 0 -56.5 20.5t-25.5 54.5q0 16 5.5 35t21.5 66l115 305 l-308 887q-16 47 -20 65.5t-4 34.5zM228 1329q0 18 14 39t57 37l236 96q27 10 41 14.5t28 4.5q41 0 59.5 -32t18.5 -54q0 -18 -14 -39t-57 -37l-236 -96q-27 -10 -41 -14.5t-29 -4.5q-41 0 -59 32t-18 54z" />
<glyph unicode="&#xfe;" horiz-adv-x="1138" d="M127 -346v1831q0 45 24.5 70.5t65.5 25.5t65.5 -25.5t24.5 -70.5v-533h4q78 150 291 150q111 0 197 -46t146.5 -124t91 -178.5t30.5 -208.5q0 -109 -30.5 -209t-91 -178t-146.5 -124t-197 -46q-53 0 -99 13t-83 34.5t-63.5 48.5t-45.5 51h-4v-481q0 -45 -24.5 -70.5 t-65.5 -25.5t-65.5 25.5t-24.5 70.5zM289 545q0 -70 15 -140.5t51 -129t92.5 -95.5t140.5 -37q82 0 139 37t93 95.5t51.5 129t15.5 140.5t-15.5 140.5t-51.5 128.5t-93 95t-139 37q-84 0 -140.5 -37t-92.5 -95t-51 -128.5t-15 -140.5z" />
<glyph unicode="&#xff;" horiz-adv-x="909" d="M35 1026q0 35 25.5 55.5t56.5 20.5q35 0 57.5 -19.5t32.5 -48.5l250 -747h4l246 747q10 29 30.5 48.5t55.5 19.5q31 0 56 -20.5t25 -55.5q0 -16 -4 -34.5t-20 -65.5l-455 -1301q-10 -29 -31.5 -48t-56.5 -19q-31 0 -56.5 20.5t-25.5 54.5q0 16 5.5 35t21.5 66l115 305 l-308 887q-16 47 -20 65.5t-4 34.5zM154 1348q0 47 31.5 78.5t78.5 31.5t79 -31.5t32 -78.5t-31.5 -79t-79.5 -32q-47 0 -78.5 32t-31.5 79zM535 1348q0 47 31.5 78.5t78.5 31.5t79 -31.5t32 -78.5t-32 -79t-79 -32t-78.5 32t-31.5 79z" />
<glyph unicode="&#x152;" horiz-adv-x="1896" d="M63 729q0 141 41 275.5t122 238t201 165.5t275 62q137 0 245 -57t188 -147v94q0 41 22.5 69.5t73.5 28.5h493q39 0 63.5 -20.5t24.5 -63.5t-24.5 -63.5t-63.5 -20.5h-409v-477h395q39 0 63.5 -20.5t24.5 -63.5t-24.5 -63.5t-63.5 -20.5h-395v-477h430q39 0 63.5 -20.5 t24.5 -63.5t-24.5 -63.5t-63.5 -20.5h-514q-51 0 -73.5 28.5t-22.5 69.5v115h-5q-68 -98 -181 -161.5t-247 -63.5q-156 0 -275.5 62.5t-200.5 165.5t-122 237.5t-41 275.5zM256 729q0 -104 23.5 -208.5t77 -188.5t138.5 -136.5t207 -52.5q123 0 208 52.5t138.5 136.5 t77 188.5t23.5 208.5t-23.5 208.5t-77 188.5t-138.5 136.5t-208 52.5t-207.5 -52.5t-138 -136.5t-77 -188.5t-23.5 -208.5z" />
<glyph unicode="&#x153;" horiz-adv-x="1857" d="M72 545q0 109 31.5 209t92 178t148.5 124t201 46q127 0 228 -58.5t167 -154.5q55 96 155.5 154.5t229.5 58.5q115 0 204 -46t150.5 -121t93 -170t31.5 -194q0 -47 -20.5 -71.5t-79.5 -24.5h-678q0 -70 21.5 -130t64.5 -105t106.5 -70t145.5 -23q84 2 139.5 25t93 48.5 t64.5 48t55 22.5q25 2 44.5 -19.5t21.5 -60.5q0 -33 -37 -72t-97.5 -72.5t-137 -56t-154.5 -22.5q-154 0 -257.5 58t-158.5 155q-66 -92 -167 -152.5t-228 -60.5q-113 0 -201 46t-148.5 124t-92 178t-31.5 209zM252 545q0 -70 15.5 -140.5t51 -129t92 -95.5t138.5 -37 t138 37t92 95.5t51.5 129t15.5 140.5t-15.5 140.5t-51.5 128.5t-92 95t-138 37t-138.5 -37t-92 -95t-51 -129t-15.5 -140zM1026 610h598q0 57 -17.5 117.5t-54 109t-93 79t-134.5 30.5t-134 -30.5t-93 -79t-54.5 -108.5t-17.5 -118z" />
<glyph unicode="&#x178;" horiz-adv-x="1024" d="M2 1397q0 35 23.5 54t58.5 19q25 0 47.5 -11t42.5 -46l338 -551l338 551q20 35 42.5 46t47.5 11q35 0 58.5 -19t23.5 -54q0 -31 -29 -76l-391 -637v-600q0 -45 -24.5 -70.5t-65.5 -25.5t-65.5 25.5t-24.5 70.5v600l-391 637q-29 45 -29 76zM211 1676q0 47 31.5 78.5 t78.5 31.5t79 -31.5t32 -78.5t-31.5 -79t-79.5 -32q-47 0 -78.5 32t-31.5 79zM592 1676q0 47 31.5 78.5t78.5 31.5t79 -31.5t32 -78.5t-32 -79t-79 -32t-78.5 32t-31.5 79z" />
<glyph unicode="&#x2c6;" d="M-102 1321q0 51 47 72l264 112l264 -112q47 -20 47 -72q0 -33 -19.5 -55.5t-54.5 -22.5q-8 0 -19 2t-26 8l-192 76l-193 -76q-14 -6 -25 -8t-20 -2q-35 0 -54 22.5t-19 55.5z" />
<glyph unicode="&#x2dc;" d="M-96 1341q0 47 52 88t138 41q35 0 63.5 -6t54.5 -14t51.5 -14t55.5 -6q20 0 37 6t31 14t27.5 14t31.5 6q23 0 45.5 -23.5t22.5 -55.5q0 -47 -52 -88t-138 -41q-35 0 -64 6t-54.5 14t-51 14.5t-56.5 6.5q-23 0 -38 -6.5t-29.5 -14.5t-27.5 -14t-32 -6q-23 0 -45 23t-22 56 z" />
<glyph unicode="&#x2000;" horiz-adv-x="944" />
<glyph unicode="&#x2001;" horiz-adv-x="1888" />
<glyph unicode="&#x2002;" horiz-adv-x="944" />
<glyph unicode="&#x2003;" horiz-adv-x="1888" />
<glyph unicode="&#x2004;" horiz-adv-x="629" />
<glyph unicode="&#x2005;" horiz-adv-x="472" />
<glyph unicode="&#x2006;" horiz-adv-x="314" />
<glyph unicode="&#x2007;" horiz-adv-x="314" />
<glyph unicode="&#x2008;" horiz-adv-x="236" />
<glyph unicode="&#x2009;" horiz-adv-x="377" />
<glyph unicode="&#x200a;" horiz-adv-x="104" />
<glyph unicode="&#x2010;" horiz-adv-x="720" d="M72 549q0 33 22.5 55.5t55.5 22.5h421q33 0 55.5 -22.5t22.5 -55.5t-22.5 -55.5t-55.5 -22.5h-421q-33 0 -55.5 22.5t-22.5 55.5z" />
<glyph unicode="&#x2011;" horiz-adv-x="720" d="M72 549q0 33 22.5 55.5t55.5 22.5h421q33 0 55.5 -22.5t22.5 -55.5t-22.5 -55.5t-55.5 -22.5h-421q-33 0 -55.5 22.5t-22.5 55.5z" />
<glyph unicode="&#x2012;" horiz-adv-x="720" d="M72 549q0 33 22.5 55.5t55.5 22.5h421q33 0 55.5 -22.5t22.5 -55.5t-22.5 -55.5t-55.5 -22.5h-421q-33 0 -55.5 22.5t-22.5 55.5z" />
<glyph unicode="&#x2013;" horiz-adv-x="1024" d="M0 549q0 33 22.5 55.5t55.5 22.5h868q33 0 55.5 -22.5t22.5 -55.5t-22.5 -55.5t-55.5 -22.5h-868q-33 0 -55.5 22.5t-22.5 55.5z" />
<glyph unicode="&#x2014;" horiz-adv-x="2048" d="M-78 549q0 33 22.5 55.5t55.5 22.5h2048q33 0 55.5 -22.5t22.5 -55.5t-22.5 -55.5t-55.5 -22.5h-2048q-33 0 -55.5 22.5t-22.5 55.5z" />
<glyph unicode="&#x2018;" d="M51 1094q0 31 23 75l114 226q16 29 36 52t61 23q33 0 57.5 -21.5t24.5 -55.5q0 -31 -23 -76l-115 -225q-16 -29 -35.5 -52.5t-60.5 -23.5q-33 0 -57.5 21.5t-24.5 56.5z" />
<glyph unicode="&#x2019;" d="M51 1094q0 31 23 75l114 226q16 29 36 52t61 23q33 0 57.5 -21.5t24.5 -55.5q0 -31 -23 -76l-115 -225q-16 -29 -35.5 -52.5t-60.5 -23.5q-33 0 -57.5 21.5t-24.5 56.5z" />
<glyph unicode="&#x201a;" d="M51 -180q0 31 23 76l114 225q16 29 36 52.5t61 23.5q33 0 57.5 -21.5t24.5 -56.5q0 -31 -23 -76l-115 -225q-16 -29 -35.5 -52.5t-60.5 -23.5q-33 0 -57.5 21.5t-24.5 56.5z" />
<glyph unicode="&#x201c;" horiz-adv-x="684" d="M39 1094q0 31 22 75l115 226q16 29 35.5 52t60.5 23q33 0 57.5 -21.5t24.5 -55.5q0 -31 -22 -76l-115 -225q-16 -29 -35.5 -52.5t-60.5 -23.5q-33 0 -57.5 21.5t-24.5 56.5zM330 1094q0 31 22 75l115 226q16 29 35.5 52t60.5 23q33 0 57.5 -21.5t24.5 -55.5 q0 -31 -22 -76l-115 -225q-16 -29 -35.5 -52.5t-60.5 -23.5q-33 0 -57.5 21.5t-24.5 56.5z" />
<glyph unicode="&#x201d;" horiz-adv-x="684" d="M39 1094q0 31 22 75l115 226q16 29 35.5 52t60.5 23q33 0 57.5 -21.5t24.5 -55.5q0 -31 -22 -76l-115 -225q-16 -29 -35.5 -52.5t-60.5 -23.5q-33 0 -57.5 21.5t-24.5 56.5zM330 1094q0 31 22 75l115 226q16 29 35.5 52t60.5 23q33 0 57.5 -21.5t24.5 -55.5 q0 -31 -22 -76l-115 -225q-16 -29 -35.5 -52.5t-60.5 -23.5q-33 0 -57.5 21.5t-24.5 56.5z" />
<glyph unicode="&#x201e;" horiz-adv-x="684" d="M39 -180q0 31 22 76l115 225q16 29 35.5 52.5t60.5 23.5q33 0 57.5 -21.5t24.5 -56.5q0 -31 -22 -76l-115 -225q-16 -29 -35.5 -52.5t-60.5 -23.5q-33 0 -57.5 21.5t-24.5 56.5zM330 -180q0 31 22 76l115 225q16 29 35.5 52.5t60.5 23.5q33 0 57.5 -21.5t24.5 -56.5 q0 -31 -22 -76l-115 -225q-16 -29 -35.5 -52.5t-60.5 -23.5q-33 0 -57.5 21.5t-24.5 56.5z" />
<glyph unicode="&#x2022;" horiz-adv-x="1024" d="M147 729q0 76 29 142.5t78 115.5t115.5 78t142.5 29t142.5 -29t115.5 -78t78 -115.5t29 -142.5t-29 -142.5t-78 -115.5t-115.5 -77.5t-142.5 -28.5t-142.5 28.5t-115.5 77.5t-78 115.5t-29 142.5z" />
<glyph unicode="&#x2026;" horiz-adv-x="2048" d="M238 92q0 43 30.5 74t73.5 31t73.5 -31t30.5 -74t-30.5 -73.5t-73.5 -30.5t-73.5 30.5t-30.5 73.5zM920 92q0 43 30.5 74t73.5 31t73.5 -31t30.5 -74t-30.5 -73.5t-73.5 -30.5t-73.5 30.5t-30.5 73.5zM1602 92q0 43 30.5 74t73.5 31t73.5 -31t30.5 -74t-30.5 -73.5 t-73.5 -30.5t-73.5 30.5t-30.5 73.5z" />
<glyph unicode="&#x202f;" horiz-adv-x="377" />
<glyph unicode="&#x2039;" horiz-adv-x="530" d="M88 549l203 364q14 25 30.5 39.5t38.5 14.5q29 0 55.5 -17.5t26.5 -54.5q0 -25 -22 -64l-170 -282l170 -283q23 -39 22 -63q0 -37 -26.5 -54.5t-55.5 -17.5q-23 0 -39 14.5t-30 38.5z" />
<glyph unicode="&#x203a;" horiz-adv-x="530" d="M88 203q0 25 23 63l170 283l-170 282q-23 39 -23 64q0 37 26.5 54.5t55.5 17.5q23 0 39 -14.5t31 -39.5l202 -364l-202 -365q-14 -25 -30.5 -39t-39.5 -14q-29 0 -55.5 17.5t-26.5 54.5z" />
<glyph unicode="&#x205f;" horiz-adv-x="472" />
<glyph unicode="&#x2122;" horiz-adv-x="2027" d="M119 1391q0 68 65 67h557q66 0 66 -67q0 -68 -66 -68h-194v-625q0 -39 -20.5 -63.5t-63.5 -24.5t-63.5 24.5t-20.5 63.5v625h-195q-66 0 -65 68zM971 688v645q0 137 129 137q41 0 80 -15t57 -64l205 -535l200 535q18 49 57.5 64t80.5 15q129 0 129 -137v-645 q0 -33 -22.5 -55.5t-55.5 -22.5t-55.5 22.5t-22.5 55.5v590h-4l-221 -592q-16 -41 -35.5 -58.5t-52.5 -17.5t-52.5 17.5t-35.5 58.5l-222 592h-4v-590q0 -33 -22.5 -55.5t-54.5 -22.5q-33 0 -55.5 22.5t-22.5 55.5z" />
<glyph unicode="&#x25fc;" horiz-adv-x="1105" d="M0 0v1106h1106v-1106h-1106z" />
<glyph unicode="&#xfb01;" horiz-adv-x="948" d="M12 1012q0 78 90 78h74v256q0 119 70.5 177t169.5 58h55q35 0 68.5 -20.5t33.5 -57.5q0 -78 -98 -78h-45q-41 0 -57.5 -18t-16.5 -53v-264h113q90 0 90 -78t-90 -78h-113v-850q0 -45 -24.5 -70.5t-65.5 -25.5t-65.5 25.5t-24.5 70.5v850h-74q-90 0 -90 78zM629 1360 q0 47 31.5 78.5t78.5 31.5t79 -31.5t32 -78.5t-32 -79t-79 -32t-78.5 32t-31.5 79zM649 84v922q0 45 24.5 70.5t65.5 25.5t65.5 -25.5t24.5 -70.5v-922q0 -45 -24.5 -70.5t-65.5 -25.5t-65.5 25.5t-24.5 70.5z" />
<glyph unicode="&#xfb02;" horiz-adv-x="948" d="M12 1012q0 78 90 78h74v256q0 119 70.5 177t169.5 58h55q35 0 68.5 -20.5t33.5 -57.5q0 -78 -98 -78h-45q-41 0 -57.5 -18t-16.5 -53v-264h113q90 0 90 -78t-90 -78h-113v-850q0 -45 -24.5 -70.5t-65.5 -25.5t-65.5 25.5t-24.5 70.5v850h-74q-90 0 -90 78zM649 84v1401 q0 45 24.5 70.5t65.5 25.5t65.5 -25.5t24.5 -70.5v-1401q0 -45 -24.5 -70.5t-65.5 -25.5t-65.5 25.5t-24.5 70.5z" />
</font>
</defs>
</svg>
