<?xml version="1.0" standalone="no"?>
<!DOCTYPE svg PUBLIC "-//W3C//DTD SVG 1.1//EN" "http://www.w3.org/Graphics/SVG/1.1/DTD/svg11.dtd" >
<svg xmlns="http://www.w3.org/2000/svg" xmlns:xlink="http://www.w3.org/1999/xlink" version="1.1">
<metadata>
Created by FontForge 20170731 at Fri Sep 24 14:04:57 2021
 By Aleksey,,,
Copyright (c) 2000 Adobe Systems Incorporated. All Rights Reserved. Patent Des. pending.
</metadata>
<defs>
<font id="WarnockPro-It" horiz-adv-x="667" >
  <font-face 
    font-family="Warnock Pro"
    font-weight="400"
    font-style="italic"
    font-stretch="normal"
    units-per-em="2048"
    panose-1="2 10 6 3 6 5 11 9 2 4"
    ascent="1505"
    descent="-543"
    x-height="924"
    cap-height="1350"
    bbox="-453 -1092 3019 1946"
    underline-thickness="102"
    underline-position="-358"
    slope="-15"
    unicode-range="U+0020-FB06"
  />
<missing-glyph horiz-adv-x="1024" 
d="M0 0v1434h1024v-1434h-1024zM512 809l348 522h-696zM573 717l349 -522v1044zM164 102h696l-348 523zM102 1239v-1044l349 522z" />
    <glyph glyph-name="T_h" unicode="Th" horiz-adv-x="2193" 
d="M264 45l219 64q30 76 162 573l152 575l-375 17q-52 -76 -158 -207l-37 -12q12 69 68 313l6 6q15 0 65.5 -9t77.5 -17h902l161 20q3 7 13 47l159 37h19q-119 -415 -287 -1034h6q112 168 239 293.5t253 181.5q26 12 71.5 21.5t77.5 9.5q41 0 48.5 -23.5t-13.5 -95.5
q-152 -532 -176 -670l186 21l-24 -62q-158 -47 -361 -133l-12 19q3 23 52.5 189t106 355t70.5 242q11 39 -18 39q-52 0 -138.5 -71t-169 -169t-139.5 -192q-56 -92 -89 -166t-78 -207l-158 -16q100 342 192 704q23 89 72.5 280.5t69.5 274.5l-148 31l-358 -17l-133 -507
q-132 -511 -156 -641l240 -64l-27 -47q-55 0 -165 1t-165 1t-163 -1t-162 -1z" />
    <glyph glyph-name="T_h.caron" unicode="&#x164;h" horiz-adv-x="2193" 
d="M264 45l219 64q30 76 162 573l152 575l-375 17q-52 -76 -158 -207l-37 -12q12 69 68 313l6 6q15 0 65.5 -9t77.5 -17h902l161 20q3 7 13 47l159 37h19q-119 -415 -287 -1034h6q112 168 239 293.5t253 181.5q26 12 71.5 21.5t77.5 9.5q41 0 48.5 -23.5t-13.5 -95.5
q-152 -532 -176 -670l186 21l-24 -62q-158 -47 -361 -133l-12 19q3 23 52.5 189t106 355t70.5 242q11 39 -18 39q-52 0 -138.5 -71t-169 -169t-139.5 -192q-56 -92 -89 -166t-78 -207l-158 -16q100 342 192 704q23 89 72.5 280.5t69.5 274.5l-148 31l-358 -17l-133 -507
q-132 -511 -156 -641l240 -64l-27 -47q-55 0 -165 1t-165 1t-163 -1t-162 -1zM961 1436h-64q-70 78 -213 225l43 45q122 -68 223 -129q134 63 289 129l33 -49q-252 -178 -311 -221z" />
    <glyph glyph-name="T_h.commaaccent" unicode="&#x162;h" horiz-adv-x="2193" 
d="M264 45l219 64q30 76 162 573l152 575l-375 17q-52 -76 -158 -207l-37 -12q12 69 68 313l6 6q15 0 65.5 -9t77.5 -17h902l161 20q3 7 13 47l159 37h19q-119 -415 -287 -1034h6q112 168 239 293.5t253 181.5q26 12 71.5 21.5t77.5 9.5q41 0 48.5 -23.5t-13.5 -95.5
q-152 -532 -176 -670l186 21l-24 -62q-158 -47 -361 -133l-12 19q3 23 52.5 189t106 355t70.5 242q11 39 -18 39q-52 0 -138.5 -71t-169 -169t-139.5 -192q-56 -92 -89 -166t-78 -207l-158 -16q100 342 192 704q23 89 72.5 280.5t69.5 274.5l-148 31l-358 -17l-133 -507
q-132 -511 -156 -641l240 -64l-27 -47q-55 0 -165 1t-165 1t-163 -1t-162 -1zM406 -430l-31 43q97 73 108 137q6 39 -14 62l-37 30l4 31l111 61h22q53 -33 47 -129q-5 -71 -62.5 -136.5t-147.5 -98.5z" />
    <glyph glyph-name="f_f_j" unicode="ffj" horiz-adv-x="1613" 
d="M141 895h148q15 49 29 86t44 100t76 120t103 102q133 108 290 108q141 0 228 -90q61 55 148 93t184 38q65 0 118.5 -21t77.5 -53q-17 -38 -49.5 -93t-54.5 -83l-39 -14q-25 76 -43 184q-11 8 -45 8t-67.5 -10t-76 -42t-79.5 -83.5t-74.5 -142t-63.5 -209.5h396
q121 29 176 27l2 -5q-43 -177 -203 -772q-39 -136 -73 -214t-87 -144q-54 -70 -120 -126t-104 -77t-56 -26l-43 45q32 19 54.5 34.5t60.5 52.5t66.5 81t61 117.5t56.5 164.5q86 324 192 770l-399 -16q-106 -476 -135 -598q-55 -225 -119 -350t-170 -207q-126 -99 -252 -99
q-154 0 -250 109q-47 -60 -127.5 -105t-146.5 -44q-57 0 -103 20.5t-67 60.5l84 119l20 2q29 -51 71 -75.5t85 -24.5q17 0 30.5 3.5t35.5 21.5t41.5 49t43.5 92t45 145q76 295 207 885l-159 27zM451 893h385q57 215 145 336q-29 55 -84 80.5t-109 25.5q-37 0 -66.5 -7
t-69.5 -33.5t-72.5 -72t-67 -130t-61.5 -199.5zM813 809h-383q-89 -392 -151 -647q-66 -259 -152 -393q37 -56 100.5 -89.5t124.5 -33.5q40 0 68 6t58.5 25t53.5 54.5t47 95.5t46 146q80 322 188 836z" />
    <glyph glyph-name="f_j" unicode="fj" horiz-adv-x="1067" 
d="M137 895h158q31 121 96 243t166 201q138 113 301 113q64 0 114 -20.5t70 -51.5q-18 -41 -50.5 -96.5t-53.5 -79.5l-37 -16q-36 114 -41 186q-15 6 -39 6q-27 0 -53 -7t-59.5 -24t-65.5 -52.5t-65 -86.5t-64.5 -132.5t-56.5 -184.5h385q138 27 176 27l4 -5
q-114 -471 -203 -774q-37 -136 -70.5 -214t-86.5 -144q-56 -71 -122.5 -126t-103.5 -75.5t-55 -25.5l-37 49q30 18 52 33.5t58.5 53.5t65.5 84t62 123.5t59 174.5q69 260 188 745l-393 -16q-12 -45 -157 -641q-53 -215 -111.5 -333.5t-147.5 -199.5q-135 -118 -251 -118
q-51 0 -94 21t-64 54l80 119l18 2q57 -90 154 -90q19 0 33 3.5t37.5 21t42.5 48.5t42.5 92t44.5 146q183 771 209 877l-168 33z" />
    <glyph glyph-name="ff" unicode="ff" horiz-adv-x="1093" 
d="M139 897h154q78 283 264 422q127 92 272 92q143 0 218 -92q137 133 303 133q95 0 133 -49q-14 -39 -41.5 -95t-50.5 -83l-33 -13q-31 100 -43 160q-12 4 -29 4q-22 0 -43.5 -6.5t-56 -35t-65 -77t-65 -142.5t-61.5 -222h234l-33 -66l-219 -22q-9 -39 -56 -250.5
t-83 -355.5q-54 -222 -118.5 -344.5t-172.5 -206.5q-121 -97 -254 -97q-148 0 -252 109q-43 -61 -121.5 -105.5t-148.5 -43.5q-53 0 -100 21t-70 58l80 121l22 2q30 -49 72.5 -73.5t83.5 -24.5q17 0 30.5 3.5t36 21t42 48.5t44.5 93t47 147q72 275 211 881l-161 31zM455 893
h376q50 195 140 328q-29 58 -82 88t-111 30q-32 0 -60.5 -8t-65.5 -35.5t-69 -74t-66 -130.5t-62 -198zM813 809h-381q-125 -520 -156 -643q-70 -268 -153 -399q41 -56 102 -88.5t125 -32.5q47 0 79.5 10.5t69 43t67 101t57.5 176.5q69 262 190 832z" />
    <glyph glyph-name="fi" unicode="fi" horiz-adv-x="1110" 
d="M135 895h156q86 305 264 446q136 111 303 111q64 0 113 -20.5t69 -51.5q-15 -39 -47.5 -95t-54.5 -81l-39 -16q-1 5 -14.5 51t-21 78.5t-9.5 56.5q-15 6 -41 6q-237 0 -358 -487h385q140 29 176 27l2 -5q-209 -679 -256 -839l6 -2q29 8 65 34t77.5 69t60.5 64t53 60
l14 -25q-5 -45 -31.5 -96t-67.5 -97.5t-102.5 -77t-129.5 -30.5q-36 0 -57.5 22t-26.5 71t20 127q6 23 30 106t71 241.5t81 276.5l-391 -16q-30 -117 -79.5 -326t-75.5 -315q-53 -218 -111.5 -336t-149.5 -197q-129 -118 -251 -118q-52 0 -94.5 21.5t-63.5 55.5l80 121h22
q28 -45 68.5 -67.5t83.5 -22.5q20 0 34.5 3.5t38 20t43 47.5t43 91t44.5 145q24 102 85 372t117 507l-166 33z" />
    <glyph glyph-name="fl" unicode="fl" horiz-adv-x="1120" 
d="M684 895l-35 -64l-211 -30q-11 -47 -64.5 -263.5t-92.5 -377.5q-53 -217 -108.5 -335t-141.5 -194q-137 -120 -260 -120q-52 0 -97 20t-69 57l86 123l20 2q30 -48 71.5 -71t82.5 -23q19 0 33 3t38 20t44 47.5t44 92t44 146.5q152 644 208 877l-163 31l32 59h150
q43 148 99 252t159 190q137 115 297 115q95 0 160 -45q87 35 149 45l6 -6q-5 -16 -42 -135t-77.5 -256t-87.5 -307q-121 -424 -188 -676l4 -2q86 22 266 247l15 -20q-6 -50 -32.5 -104.5t-67.5 -104t-103 -81.5t-131 -32q-35 0 -58 22t-30.5 73t14.5 133q46 178 152.5 538
t154.5 545q-22 41 -65 64.5t-94 23.5q-21 0 -39 -3t-44.5 -14.5t-49.5 -31t-51 -56t-52 -85.5t-50 -123t-48 -166h223z" />
    <glyph glyph-name="ffi" unicode="ffi" horiz-adv-x="1652" 
d="M139 897h152q80 274 250 406q135 108 295 108q138 0 225 -90q56 54 143.5 92.5t179.5 38.5q67 0 123 -21t78 -53q-10 -30 -45 -90t-59 -90l-37 -12q-27 83 -39 186q-16 8 -51 8q-33 0 -66 -10t-75.5 -41.5t-79 -83t-73 -142t-61.5 -210.5h383q122 30 179 27l2 -7
q-80 -258 -140 -455t-85.5 -282.5t-30.5 -101.5l6 -2q85 24 260 225l10 -21q-4 -33 -20.5 -72t-45.5 -79.5t-66.5 -74t-90 -54.5t-109.5 -21q-36 0 -57 22t-26 71t18 127q81 267 184 622l-391 -14q-63 -274 -141 -596q-55 -224 -118.5 -349.5t-168.5 -207.5
q-122 -99 -250 -99q-153 0 -254 109q-47 -61 -127 -105.5t-147 -43.5q-55 0 -101 20.5t-67 60.5l84 115h20q26 -48 67 -71t83 -23q17 0 31 3.5t37 21t43 48.5t44 93t45 147q86 327 209 881l-159 31zM453 893h383q48 188 147 334q-30 54 -87 81t-112 27q-35 0 -64.5 -7
t-68.5 -33.5t-71 -72t-66.5 -130t-60.5 -199.5zM815 807h-383q-75 -333 -156 -645q-72 -266 -153 -393q42 -58 103.5 -90.5t123.5 -32.5q32 0 54.5 3.5t49 14t47 32.5t42 57.5t41 90.5t37.5 129q71 272 194 834z" />
    <glyph glyph-name="ffl" unicode="ffl" horiz-adv-x="1662" 
d="M1223 893l-35 -64l-213 -26q-82 -372 -139 -600q-55 -223 -118.5 -347.5t-168.5 -207.5q-123 -97 -244 -97q-161 0 -254 111q-48 -60 -130.5 -105.5t-147.5 -45.5q-55 0 -101.5 19t-68.5 56l82 121h20q28 -43 72.5 -67.5t85.5 -24.5q17 0 29.5 3t35.5 20t42.5 48
t43.5 92.5t45 147.5q72 280 211 881l-161 31l30 59h152q67 262 244 406q69 55 150.5 81.5t148.5 26.5q142 0 217 -94q59 55 145.5 95t179.5 40q117 0 174 -51q76 32 156 47l2 -4q-102 -322 -207 -699q-160 -563 -184 -675h4q53 17 130.5 93.5t135.5 149.5l15 -18
q-7 -48 -33 -101.5t-66 -102.5t-101 -81.5t-128 -32.5q-62 0 -84.5 50.5t4.5 169.5q42 161 90.5 333.5t114.5 398t102 353.5q-24 45 -70.5 69.5t-101.5 24.5q-222 0 -332 -483h226zM453 893h381q51 198 145 332q-34 52 -87 82t-112 30q-50 0 -89 -15.5t-82 -59.5t-82 -136.5
t-74 -232.5zM813 807h-381q-13 -53 -63.5 -267.5t-92.5 -377.5q-65 -255 -147 -393q35 -54 97 -88.5t120 -34.5q40 0 68 5.5t59.5 25.5t55.5 55.5t49.5 97.5t48.5 150q17 63 36.5 146.5t35 155.5t51 236t63.5 289z" />
    <glyph glyph-name=".notdef" horiz-adv-x="1024" 
d="M0 0v1434h1024v-1434h-1024zM512 809l348 522h-696zM573 717l349 -522v1044zM164 102h696l-348 523zM102 1239v-1044l349 522z" />
    <glyph glyph-name=".null" horiz-adv-x="0" 
 />
    <glyph glyph-name="nonmarkingreturn" horiz-adv-x="682" 
 />
    <glyph glyph-name="space" unicode=" " horiz-adv-x="481" 
 />
    <glyph glyph-name="exclam" unicode="!" horiz-adv-x="481" 
d="M274 444l-69 -26q122 652 133 743l-8 99q30 23 99.5 45t145.5 26l15 -16q-69 -194 -316 -871zM178 242h15q17 -15 43 -62t32 -74l-2 -14q-13 -26 -63 -70t-78 -57h-12q-22 18 -50 62.5t-38 81.5l2 6q36 49 80 83.5t71 43.5z" />
    <glyph glyph-name="quotedbl" unicode="&#x22;" horiz-adv-x="679" 
d="M328 944l-76 -35q6 25 21.5 94t24 108t18.5 93.5t14 93.5l-19 60q83 49 193 65h28q-29 -75 -96.5 -236.5t-107.5 -242.5zM639 952l-76 -30q3 14 34.5 168t41.5 219l-18 61q81 43 194 66l27 -2q-26 -66 -95 -232.5t-108 -249.5z" />
    <glyph glyph-name="numbersign" unicode="#" horiz-adv-x="1038" 
d="M750 831h-226l-106 -282h229zM307 961h185l122 335l88 11l-129 -346h228l125 335l88 11l-131 -346h190l-78 -132l-161 2l-107 -282h188l-75 -127l-162 2l-135 -371l-86 -12l139 383h-227l-138 -371l-86 -12l142 383l-211 -2l76 127h184l104 282h-207z" />
    <glyph glyph-name="dollar" unicode="$" horiz-adv-x="1038" 
d="M719 1294l53 187l66 8l-56 -205q83 -26 136 -76q66 42 137 62l16 -10q-18 -55 -61 -160.5t-64 -138.5l-33 -13q-17 79 -24 197q-42 48 -127 69l-137 -481q45 -28 70 -44.5t63 -44.5t59.5 -53t44 -58t33 -71t10.5 -81q1 -173 -136.5 -274.5t-346.5 -98.5l-55 -196l-74 -19
l61 219q-106 18 -198 67t-136 101q4 23 49 101t76 116l33 9q3 -30 3.5 -124.5t2.5 -131.5q67 -53 187 -68l147 510q-64 38 -105.5 69t-82.5 73.5t-61 94t-21 113.5q0 88 38.5 160.5t103 117.5t150.5 65t179 9zM569 764l129 461q-128 9 -214 -53.5t-85 -184.5
q0 -70 42.5 -121t127.5 -102zM575 559l-135 -479q149 4 224 71.5t75 170.5q0 78 -41.5 131t-122.5 106z" />
    <glyph glyph-name="percent" unicode="%" horiz-adv-x="1605" 
d="M621 1339h2q106 0 166.5 -75t60.5 -205q0 -112 -51.5 -218.5t-147.5 -177.5t-211 -71q-97 0 -162.5 68.5t-66.5 195.5q-1 63 18 130.5t56 130t86 112.5t114.5 80t135.5 30zM621 1276h-3q-61 0 -114.5 -51.5t-85.5 -126t-50 -150t-18 -131.5q0 -73 27 -118.5t78 -45.5
q70 0 132 82.5t94 188.5t32 192q0 73 -24 116.5t-68 43.5zM1386 1356l48 -58q-518 -613 -1155 -1376l-46 60q125 149 399.5 474.5t465 552.5t288.5 347zM1260 723h2q106 0 166.5 -75.5t60.5 -207.5q0 -82 -31 -165t-83.5 -149.5t-130.5 -108.5t-165 -42q-98 0 -163 68.5
t-66 196.5q-1 107 49 217t147 188t214 78zM1260 659h-3q-61 0 -114 -51t-85 -125.5t-50.5 -150t-18.5 -131.5q0 -73 28 -118.5t79 -45.5q52 0 101.5 49t82 121t52.5 151t20 142q0 77 -24.5 118t-67.5 41z" />
    <glyph glyph-name="ampersand" unicode="&#x26;" horiz-adv-x="1458" 
d="M682 397l-6 58q69 74 169 124t226 50q94 0 234 -13q71 69 147 127l35 -34q-95 -121 -164 -244q-60 18 -160 29q-18 -111 -62.5 -201t-104 -148.5t-134 -98t-149.5 -56.5t-152 -17q-211 0 -342 113t-131 291q0 279 377 403v6q-48 31 -79.5 86.5t-31.5 120.5
q0 151 123.5 247.5t308.5 96.5q84 0 162.5 -27.5t118.5 -70.5q-3 -28 -37 -90t-63 -94l-41 -15q-22 91 -29 211q-39 17 -100 17q-121 0 -198 -70t-77 -186q0 -79 58 -137.5t172 -79.5l-43 -60q-23 6 -70 6q-65 -1 -127.5 -21.5t-115.5 -59t-85.5 -101.5t-31.5 -141
q0 -139 95 -229.5t255 -90.5q167 0 296.5 109.5t166.5 294.5q-45 4 -115 4q-165 0 -295 -109z" />
    <glyph glyph-name="quotesingle" unicode="'" horiz-adv-x="370" 
d="M324 944l-74 -35q66 282 78 389l-21 60q88 50 193 65l28 -2q-18 -54 -89.5 -223.5t-114.5 -253.5z" />
    <glyph glyph-name="parenleft" unicode="(" horiz-adv-x="624" 
d="M799 1481l37 -39q-267 -191 -427.5 -512.5t-160.5 -681.5q0 -184 37.5 -336.5t93.5 -243.5l-49 -37q-106 124 -164 299.5t-57 384.5q2 232 83.5 453.5t238 408.5t368.5 304z" />
    <glyph glyph-name="parenright" unicode=")" horiz-adv-x="645" 
d="M-88 -369l-33 47q173 117 305 308.5t203 418.5t72 457q1 197 -37 350t-94 238l51 33q103 -119 161.5 -301t57.5 -394q-3 -231 -83.5 -453t-236.5 -408.5t-366 -295.5z" />
    <glyph glyph-name="asterisk" unicode="*" horiz-adv-x="763" 
d="M551 981l12 8l197 -96l45 -10q-7 -38 -44.5 -81.5t-68.5 -51.5l-18 43zM514 1044l-25 -10l-190 94l-49 11q3 34 41 82t71 57l19 -43zM498 1014l-6 -25l-181 -121l-35 -37q-23 14 -44 77t-9 91l43 -8zM561 1014l6 26l178 123l33 37q28 -24 49 -85.5t15 -88.5l-47 12z
M555 1059l-23 -4l-14 231l-10 43q20 11 88 0.5t82 -29.5l-29 -36zM512 969l18 10l19 -231l16 -56q-32 -6 -95 6.5t-85 32.5l35 41z" />
    <glyph glyph-name="plus" unicode="+" horiz-adv-x="1236" 
d="M690 -8l-121 -25v463h-411l24 105h387v395l121 24v-419h410l-23 -105h-387v-438z" />
    <glyph glyph-name="comma" unicode="," horiz-adv-x="448" 
d="M-57 -246l-33 49q84 55 138 130t54 147q0 19 -8 47l-86 57l2 27l148 100h22q24 -8 50 -54t26 -118q0 -118 -86 -221t-227 -164z" />
    <glyph glyph-name="hyphen" unicode="-" horiz-adv-x="722" 
d="M561 444l-491 -55l69 148l105 -5l405 23v-10z" />
    <glyph glyph-name="period" unicode="." horiz-adv-x="448" 
d="M164 250h12q19 -18 46.5 -65.5t33.5 -75.5l-2 -13q-14 -27 -65 -72.5t-78 -58.5h-13q-23 19 -50.5 63.5t-39.5 84.5l2 6q36 50 81.5 86t72.5 45z" />
    <glyph glyph-name="slash" unicode="/" horiz-adv-x="780" 
d="M61 -80h-118l907 1464h117z" />
    <glyph glyph-name="zero" unicode="0" horiz-adv-x="1038" 
d="M719 1339h2q146 0 236 -115t90 -343q0 -88 -17 -187t-50 -201t-85.5 -195t-118 -166t-154.5 -116t-188 -43q-72 0 -132.5 27t-108 81t-74.5 144t-27 209q0 93 20 195.5t56 203.5t92 192t123.5 161t154.5 111.5t181 41.5zM713 1272h-2q-90 0 -174.5 -91.5t-142.5 -230
t-93 -300.5t-35 -304q0 -163 50 -234t124 -71t144 63t122 164.5t91.5 224.5t59.5 247t20 229q0 160 -45.5 231.5t-118.5 71.5z" />
    <glyph glyph-name="one" unicode="1" horiz-adv-x="1038" 
d="M657 1174l-254 -5l25 39q7 2 78 23.5t166.5 51.5t167.5 56h24q-47 -180 -178 -696t-135 -539l235 -61l-22 -45q-58 0 -165.5 1t-158.5 1q-61 0 -180.5 -1t-177.5 -1l22 45l252 61q64 203 301 1070z" />
    <glyph glyph-name="two" unicode="2" horiz-adv-x="1038" 
d="M12 27l88 98q29 11 47 25q254 183 459 403q211 225 211 434q0 123 -64 190.5t-175 67.5q-91 0 -168 -45q-32 -177 -76 -274l-29 -17q-22 38 -48 114t-30 116q86 82 198.5 141t236.5 59q152 0 250 -92t98 -254q0 -74 -25.5 -142.5t-81 -139.5t-125 -137.5t-176.5 -155.5
q-184 -155 -348 -275v-4q57 0 275 5.5t229 5.5q128 128 164 163l36 -32q-67 -161 -145 -291q-29 0 -206 5t-281 5h-320z" />
    <glyph glyph-name="three" unicode="3" horiz-adv-x="1038" 
d="M346 987l-31 -16q-43 96 -67 211q211 157 409 157q144 0 231 -76t87 -196q0 -59 -23 -109.5t-58 -86.5t-87 -67.5t-100.5 -51.5t-108.5 -39l-2 -8q326 -56 326 -316q0 -122 -78 -218.5t-201 -147t-264 -50.5q-117 0 -216.5 40.5t-158.5 95.5q70 152 125 219l33 6
q18 -107 22 -252q63 -29 160 -29q163 0 270 93t107 247q0 121 -68 187.5t-174 74.5q-132 -23 -172 -26l-12 18q12 26 34.5 55t45.5 43q80 -3 125 -6q143 46 215.5 128t70.5 184q-1 100 -58.5 152t-158.5 52q-88 0 -149 -36q-48 -187 -74 -232z" />
    <glyph glyph-name="four" unicode="4" horiz-adv-x="1038" 
d="M743 412l-73 -310l176 -59l-21 -45q-47 0 -136 1t-132 1q-50 0 -148.5 -1t-146.5 -1l17 45l206 59q68 224 90 306l-520 -5l-30 60q113 151 412.5 470t359.5 363q79 37 188 43l-219 -852l113 -2q92 92 133 113l26 2q-9 -40 -52 -154t-60 -141l-27 -10q-27 65 -37 119z
M598 487l207 713l-14 -2q-224 -231 -342 -365.5t-277 -334.5q183 -11 426 -11z" />
    <glyph glyph-name="five" unicode="5" horiz-adv-x="1038" 
d="M219 731l-12 33q17 48 205 547q168 -4 434 -4q71 0 176 47l20 -45q-60 -64 -141 -117q-48 -26 -98 -29q-136 -8 -350 -8q-5 -12 -56.5 -132t-81.5 -194q146 -44 246 -79q191 -65 267.5 -145.5t76.5 -209.5q0 -179 -147.5 -300.5t-368.5 -121.5q-106 0 -207.5 43
t-146.5 90q18 41 59.5 110.5t65.5 96.5l30 11q15 -98 25 -244q56 -29 156 -29q156 0 253 89.5t97 219.5q0 98 -69 164t-214 125q-81 33 -219 82z" />
    <glyph glyph-name="six" unicode="6" horiz-adv-x="1038" 
d="M1051 1356l24 -56q-88 -17 -213 -63.5t-233 -126.5q-253 -185 -328 -451l4 -2q178 140 336 140q60 0 115 -20.5t102 -61.5t75 -112.5t28 -164.5q0 -92 -35.5 -177t-98 -148.5t-154 -101.5t-196.5 -38q-177 0 -285 121.5t-108 333.5q0 185 89 368.5t282 329.5
q138 105 306.5 165t289.5 65zM485 39h2q83 0 151.5 58.5t104 146.5t35.5 180q0 137 -62 203.5t-151 66.5q-74 0 -151.5 -37t-126.5 -90q-23 -71 -23 -172q0 -167 61 -261.5t160 -94.5z" />
    <glyph glyph-name="seven" unicode="7" horiz-adv-x="1038" 
d="M184 -27l-14 23q47 99 395 539q289 366 465 630l2 4q-27 0 -126 1t-181 1q-185 0 -311 -4q-91 -149 -113 -174l-47 -12q32 227 55 342q76 -10 135 -10q560 0 738 2l-17 -60q-24 -72 -203 -326.5t-359 -507t-204 -315.5l-18 -104z" />
    <glyph glyph-name="eight" unicode="8" horiz-adv-x="1038" 
d="M688 696v-4q36 -30 47 -40t43 -39.5t45 -45.5t35 -46t31.5 -54.5t17.5 -57t8 -65.5q0 -70 -32 -136.5t-89 -118.5t-144 -84t-189 -32q-184 0 -296 95t-112 227q0 58 19.5 104t68.5 91.5t112 85.5t171 98v4q-180 132 -180 295q0 158 120 262t289 104q151 0 244.5 -88.5
t93.5 -218.5q0 -33 -8 -62.5t-19 -52.5t-32.5 -47.5t-38.5 -40t-48 -37t-49.5 -32.5t-55 -32.5t-52.5 -31.5zM635 1272h-2q-102 0 -170 -74t-66 -172q0 -46 17.5 -87.5t53.5 -78.5t71.5 -64.5t89.5 -62.5q213 131 213 307q0 101 -56.5 166.5t-150.5 65.5zM471 41h2
q118 0 193 73t75 193q0 48 -20 93t-65.5 90.5t-71.5 67t-84 64.5q-11 9 -17 13q-126 -75 -193 -156t-67 -178q0 -115 72 -187.5t176 -72.5z" />
    <glyph glyph-name="nine" unicode="9" horiz-adv-x="1038" 
d="M668 1339h2q171 0 272.5 -121.5t101.5 -338.5q0 -85 -18 -169.5t-58 -176t-114.5 -182.5t-177.5 -171q-139 -105 -293.5 -160t-251.5 -63l-25 55q216 58 400 195q239 178 328 438l-5 2q-147 -127 -307 -127q-46 0 -91 11.5t-89.5 38t-78 66t-54.5 101t-21 137.5
q0 89 38 174t102 149t153.5 103t186.5 39zM657 1272h-2q-85 0 -151 -56.5t-98.5 -142t-32.5 -180.5q0 -69 21 -123t54.5 -84t70 -44.5t73.5 -14.5q67 0 137.5 28.5t110.5 81.5q30 88 30 193q0 172 -56 257t-157 85z" />
    <glyph glyph-name="colon" unicode=":" horiz-adv-x="448" 
d="M166 250h14q18 -18 45 -66t33 -75l-2 -13q-13 -27 -64 -72t-79 -59h-15q-22 19 -49 64t-39 84l2 6q37 49 81.5 84t72.5 47zM303 879h12q19 -15 45.5 -63.5t32.5 -78.5l-2 -12q-13 -27 -64.5 -73.5t-78.5 -57.5h-12q-24 20 -52 65t-37 82l3 7q35 49 79.5 84t73.5 47z" />
    <glyph glyph-name="semicolon" unicode=";" horiz-adv-x="448" 
d="M295 879h12q19 -18 46.5 -66t33.5 -76l-2 -12q-13 -28 -65 -74t-80 -57h-13q-23 20 -50.5 64.5t-37.5 82.5l2 7q35 49 80 84t74 47zM-57 -246l-33 49q84 57 138 131t54 146q0 31 -8 47l-86 57l2 27l148 100h22q24 -8 50 -54t26 -116q0 -119 -86 -222.5t-227 -164.5z" />
    <glyph glyph-name="less" unicode="&#x3c;" horiz-adv-x="1216" 
d="M121 397l24 127l834 428l-18 -123l-723 -370v-4l741 -377l-18 -113z" />
    <glyph glyph-name="equal" unicode="=" horiz-adv-x="1236" 
d="M1092 354l-25 -104h-905l24 104h906zM1092 721l-25 -105h-905l24 105h906z" />
    <glyph glyph-name="greater" unicode="&#x3e;" horiz-adv-x="1216" 
d="M1083 524l-24 -123l-832 -434l17 123l719 373v6l-736 369l17 114z" />
    <glyph glyph-name="question" unicode="?" horiz-adv-x="823" 
d="M367 1026l-35 -14q-34 72 -53 196q71 48 164.5 84.5t166.5 36.5q119 0 202 -70.5t83 -193.5q0 -86 -57.5 -154.5t-159.5 -134.5q-61 -40 -98 -65t-79 -58t-64 -61t-27 -53q-11 -56 10 -109l-45 -22q-33 13 -70.5 82.5t-28.5 136.5q29 52 85 104.5t165 126.5
q51 35 72 50.5t54 43t46 46t24 45t11 55.5q0 66 -48.5 109.5t-129.5 43.5q-39 0 -94 -20q-68 -168 -94 -205zM344 242h12q18 -15 45 -62t33 -74l-2 -14q-14 -26 -64 -70t-77 -57h-12q-23 18 -51 62.5t-38 81.5l3 6q36 49 80 83.5t71 43.5z" />
    <glyph glyph-name="at" unicode="@" horiz-adv-x="1677" 
d="M1018 739h-2q-96 0 -195 -92q-90 -78 -154.5 -203t-64.5 -227q0 -36 9 -53t32 -17q50 0 152 84t198 228q71 100 117 239q-28 41 -92 41zM1292 834l13 -11l-64 -102q-85 -233 -166 -565q-5 -27 10 -27q81 0 152.5 29.5t128.5 85.5t90 146.5t33 203.5q0 226 -142.5 361
t-383.5 135q-164 0 -301 -59t-227.5 -161t-140.5 -239t-50 -293q0 -188 80 -327.5t213 -209t301 -69.5q337 0 598 252l39 -54q-282 -305 -687 -305q-210 0 -366.5 88t-239 244.5t-82.5 361.5q0 242 116 436.5t317.5 303t447.5 108.5q177 0 317.5 -67t223 -196.5t82.5 -301.5
q0 -169 -87 -300.5t-227.5 -198t-304.5 -62.5q-49 0 -76 12q58 191 105 322h-8q-105 -147 -229 -239.5t-214 -92.5q-57 0 -85.5 43.5t-28.5 116.5q0 123 81 271t211 241q144 102 260 102q83 0 132 -49l16 39z" />
    <glyph glyph-name="A" unicode="A" horiz-adv-x="1386" 
d="M807 1292l162 99l12 -11q-15 -55 -10 -145q6 -124 125 -1063q20 -57 49 -77t121 -46l-17 -51q-38 0 -113.5 1t-113.5 1q-34 0 -106 -1t-109 -1l10 41l103 57q-2 36 -7.5 89t-15.5 143.5t-16 154.5q-158 -14 -461 -10q-169 -266 -223 -360l170 -68l-15 -47q-40 0 -122.5 1
t-123.5 1q-35 0 -104 -1t-104 -1l16 47l149 66q42 54 150 216.5t304.5 464t273.5 418.5q18 30 18 56zM819 1112h-6q-80 -129 -151 -244t-108.5 -175t-74.5 -120q40 0 195 -4t200 -4q-3 30 -55 547z" />
    <glyph glyph-name="B" unicode="B" horiz-adv-x="1241" 
d="M287 1290l24 43q238 27 418 27q103 0 182.5 -14t145.5 -46.5t101.5 -92.5t35.5 -146q0 -73 -34 -133t-92.5 -100t-129.5 -65.5t-154 -37.5l-2 -6q171 -28 264 -108.5t93 -209.5q-1 -198 -189.5 -303t-519.5 -102q-180 2 -477 6l16 47l178 57q23 48 140 484l174 663z
M643 1290l-139 -540q236 2 369 82t133 233q0 121 -87 173t-253 52h-23zM487 680q-10 -40 -47.5 -179t-61.5 -234t-46 -193q152 -5 275 16.5t190 67.5q138 94 141 248q2 137 -102 207t-349 67z" />
    <glyph glyph-name="C" unicode="C" horiz-adv-x="1366" 
d="M1264 324l24 -50q-92 -155 -184 -243q-185 -68 -350 -68q-180 0 -317 70t-214.5 205t-77.5 317q0 168 67 320.5t181.5 264.5t277 178t343.5 66q96 0 170 -22t108 -53q55 28 158 49l12 -15q-21 -65 -70.5 -176t-70.5 -143l-35 -10q-16 97 -20 225q-75 57 -234 57
q-197 0 -355 -99.5t-244.5 -267t-86.5 -368.5q0 -229 124.5 -367.5t350.5 -138.5q57 0 133 15q24 20 78.5 66.5t83.5 71t71.5 58t76.5 58.5z" />
    <glyph glyph-name="D" unicode="D" horiz-adv-x="1478" 
d="M287 1292l22 43q219 25 432 25q341 0 526 -152.5t185 -435.5q0 -184 -82.5 -337t-222 -253t-320.5 -147q-105 -26 -237 -33.5t-352 -5.5q-208 4 -285 4l20 47l172 51q16 36 168 602l148 560zM643 1282l-149 -582q-152 -584 -158 -630q200 2 343.5 26.5t258.5 96.5
q162 103 239.5 262t77.5 346q0 193 -96 309q-146 175 -516 172z" />
    <glyph glyph-name="E" unicode="E" horiz-adv-x="1169" 
d="M283 1307l20 43q43 0 124 -1t120 -1h506q103 21 159 18l9 -8q-10 -40 -42.5 -148t-52.5 -155l-30 -13q-11 35 -30 122.5t-24 107.5l-405 -17l-131 -510q335 0 520 23l8 -25q-13 -17 -71.5 -61.5t-67.5 -44.5q-7 0 -193 9t-223 9q-116 -456 -139 -557l475 -24
q30 29 116 114t132 127l29 -18q-12 -41 -55.5 -143.5t-78.5 -159.5q-193 6 -430 6h-317q-44 0 -133 -1t-133 -1l18 47l187 61q40 114 165 596l144 545z" />
    <glyph glyph-name="F" unicode="F" horiz-adv-x="1089" 
d="M291 1305l24 45q39 0 117.5 -1t116.5 -1h512q16 5 82.5 12t91.5 6l10 -12q-63 -219 -104 -316l-31 -12q-46 219 -51 248l-422 -21l-141 -546q366 0 526 26l8 -26q-9 -15 -67 -61t-68 -46q-6 0 -195 9t-229 9q-114 -440 -123 -507l234 -66l-23 -47q-56 0 -167.5 1
t-166.5 1q-42 0 -124.5 -1t-123.5 -1l17 45l156 68q19 39 163 585l146 553z" />
    <glyph glyph-name="G" unicode="G" horiz-adv-x="1492" 
d="M1135 -39h-9q-42 13 -62 29t-28 39q-128 -64 -295 -64q-274 0 -436 164.5t-162 421.5q0 169 65 321t179 264.5t281.5 179t361.5 66.5q96 0 178 -26t121 -60q48 24 166 56l8 -15q-14 -49 -66 -171.5t-75 -164.5l-33 -8q-17 98 -24 230q-94 71 -269 71q-125 0 -236 -39
t-193.5 -108.5t-143 -161t-91 -198.5t-30.5 -220q0 -236 130 -371t353 -135q130 0 217 37q27 81 78.5 226.5t75.5 214.5l-463 8l-2 24l96 62q205 14 600 14q-34 -116 -149.5 -385t-142.5 -301z" />
    <glyph glyph-name="H" unicode="H" horiz-adv-x="1527" 
d="M291 1303l28 47q37 0 113 -1t115 -1q35 0 105 1t102 1l-15 -47l-114 -64l-121 -469h678l123 471l-93 68l19 41q28 0 82 -1t80 -1q47 0 139 1t137 1l-20 -47l-168 -64q-34 -109 -144 -541q-47 -185 -91.5 -377t-43.5 -208l168 -64l-24 -51q-42 0 -132 1t-137 1
q-33 0 -100 -1t-103 -1l21 49l111 64q35 120 88 327.5t65 253.5q-127 -18 -338 -18h-340q-102 -379 -141 -568l94 -63l-14 -45q-33 0 -98 1t-99 1q-42 0 -131.5 -1t-136.5 -1l22 49l164 62q13 28 72 230t102 374l136 530z" />
    <glyph glyph-name="I" unicode="I" horiz-adv-x="675" 
d="M311 1305l19 45q38 0 112.5 -1t112.5 -1q41 0 124.5 1t125.5 1l-17 -45l-153 -62l-143 -541q-55 -209 -99 -390t-47 -208l172 -59l-26 -47q-41 0 -130 1t-135 1q-44 0 -133.5 -1t-138.5 -1l20 47l168 59q24 52 172 598l146 541z" />
    <glyph glyph-name="J" unicode="J" horiz-adv-x="638" 
d="M272 1305l25 45q42 0 124 -1t124 -1q43 0 129 1t131 1l-23 -50l-159 -61q-31 -126 -124.5 -494t-121.5 -473q-50 -177 -117 -274q-37 -59 -87.5 -110.5t-102 -86t-92 -56t-74.5 -34.5l-45 37l6 23q102 45 172 120q85 95 149 326q23 82 144 563q90 358 110 463z" />
    <glyph glyph-name="K" unicode="K" horiz-adv-x="1351" 
d="M1552 1348l-24 -48q-23 -7 -67 -17.5t-96.5 -23t-70.5 -16.5q-36 -9 -75 -43q-142 -119 -504 -459v-4q97 -159 327 -499q44 -63 81.5 -115t67.5 -92t34 -45l-19 -17q-82 7 -141.5 31.5t-99.5 60t-84 95.5q-62 83 -161 231t-181 287l4 14q271 251 396 370.5t198 198.5
q-6 17 -13 57l-8 40q74 3 151.5 3t124 -1.5t99 -4.5t61.5 -3zM305 1305l21 45q38 0 115 -1t116 -1q41 0 123.5 1t124.5 1l-19 -45l-151 -62l-143 -541q-139 -524 -148 -596l174 -61l-24 -47q-43 0 -131 1t-132 1q-46 0 -136 -1t-136 -1l21 47l165 59q14 34 64 206.5
t106 391.5l142 541z" />
    <glyph glyph-name="L" unicode="L" horiz-adv-x="1128" 
d="M301 1305l21 45q39 0 115 -1t114 -1q45 0 134.5 1t133.5 1l-22 -50l-162 -57l-141 -534q-40 -151 -77.5 -298t-56.5 -226.5t-20 -88.5l416 -20q202 207 268 266l33 -12q-84 -206 -150 -338q-16 0 -86.5 2t-224 4t-371.5 2q-44 0 -132 -1t-132 -1l16 43l173 63
q9 22 163 603l144 536z" />
    <glyph glyph-name="M" unicode="M" horiz-adv-x="1892" 
d="M371 1303l22 45h346q-15 -62 -10 -103q12 -70 178 -932h4q41 65 629 953q17 31 23 82h372l-18 -50l-186 -57q-30 -149 -86.5 -569t-73.5 -568l180 -59l-20 -47q-42 0 -128 1t-128 1q-45 0 -135.5 -1t-135.5 -1l19 47l157 57q38 210 101.5 581t83.5 484h-4
q-48 -76 -176 -275t-267.5 -419.5t-296.5 -476.5l-45 -14q-32 221 -174 1105h-4q-29 -77 -106.5 -273t-148 -380.5t-120.5 -327.5l185 -63l-19 -45q-43 0 -132 1t-132 1q-31 0 -96.5 -1t-98.5 -1l15 45l155 70q227 495 463 1083q-7 42 -39.5 59.5t-152.5 47.5z" />
    <glyph glyph-name="N" unicode="N" horiz-adv-x="1497" 
d="M430 43l-20 -45q-39 0 -121.5 1t-122.5 1q-37 0 -111 -1t-112 -1l16 45l174 70q50 125 311 1044q-11 22 -19 37.5t-19 29t-17.5 21.5t-22 16.5t-24 12.5t-32 10t-37.5 9t-48 10l25 45q55 3 167 7t136 5q6 -45 45 -121q87 -175 263.5 -521t252.5 -499h4q29 112 128.5 514
t123.5 506l-166 66l23 45q41 0 116.5 -1t110.5 -1q40 0 116.5 1t110.5 1l-24 -50l-172 -65q-30 -75 -126 -425t-183 -699l124 -86l-8 -25l-250 -23q-73 135 -542 1080h-4q-72 -265 -151 -575t-89 -371z" />
    <glyph glyph-name="O" unicode="O" horiz-adv-x="1513" 
d="M942 1382h2q71 0 142 -18.5t143 -63.5t127 -111.5t89.5 -172.5t35.5 -236q0 -116 -31.5 -231t-97.5 -220.5t-158 -186.5t-222 -129t-280 -48q-81 0 -158 20.5t-148.5 66.5t-125 112.5t-85.5 167.5t-32 223q0 154 59.5 303t162.5 265t254.5 187.5t322.5 71.5zM932 1307h-2
q-107 0 -202.5 -46.5t-165 -125t-120.5 -178.5t-76.5 -208.5t-25.5 -213.5q0 -243 100.5 -370.5t266.5 -127.5q102 0 194.5 47t161 126.5t119.5 180t76.5 211t25.5 217.5q0 125 -28.5 221.5t-78.5 153t-112 85t-133 28.5z" />
    <glyph glyph-name="P" unicode="P" horiz-adv-x="1157" 
d="M279 1286l24 45q251 29 399 29q84 0 155 -11.5t136.5 -39t111 -70.5t72.5 -110t27 -154q0 -105 -45 -191.5t-120.5 -142t-171 -85.5t-199.5 -30q-56 0 -105 17l-6 49q203 10 330 109.5t127 287.5q0 84 -32 144.5t-87.5 92t-119.5 45t-138 11.5l-139 -555
q-146 -585 -150 -616l211 -66l-22 -47q-46 0 -148.5 1t-155.5 1q-45 0 -135 -1t-135 -1l14 45l170 68q25 60 170 610l144 532z" />
    <glyph glyph-name="Q" unicode="Q" horiz-adv-x="1509" 
d="M1380 -352l-22 -29q-74 -7 -181 20t-204 74q-94 47 -371 226q-58 37 -92 49q-62 23 -114.5 55t-101 80.5t-82 107t-53.5 138.5t-20 172q0 123 37 245t108 228.5t167 189t222.5 130.5t264.5 48q74 0 147 -19t145 -63.5t126.5 -110t88.5 -166.5t34 -224q0 -157 -48.5 -295
t-134.5 -241.5t-203.5 -175.5t-256.5 -105v-5q110 -69 291.5 -177t252.5 -152zM924 1309h-2q-107 0 -203 -51t-164 -134.5t-118 -188t-74.5 -212t-24.5 -205.5q0 -212 90.5 -340t255.5 -162q116 13 215.5 69.5t168 139.5t117.5 185.5t72 207t23 205.5q0 245 -97.5 365.5
t-258.5 120.5z" />
    <glyph glyph-name="R" unicode="R" horiz-adv-x="1232" 
d="M291 1270l22 49q74 16 198 28.5t222 12.5q231 0 344 -85t113 -241q0 -83 -33 -150.5t-94.5 -115.5t-131 -81t-159.5 -60l-2 -4q76 -168 238 -447q29 -52 55.5 -97t37.5 -64t17 -31l-18 -15q-165 13 -264 156q-111 160 -271 491l8 17q428 105 428 387q0 271 -360 260
l-162 -629q-123 -478 -135 -538l186 -66l-20 -49q-45 0 -136 2t-136 2q-46 0 -136 -2t-135 -2l23 49l157 64q29 87 154 538l166 602z" />
    <glyph glyph-name="S" unicode="S" horiz-adv-x="1021" 
d="M672 1382h2q145 0 225 -77q79 41 139 61l21 -8q-7 -38 -52 -163.5t-67 -158.5l-31 -8q-13 55 -32 203q-17 24 -67.5 45.5t-119.5 21.5q-126 0 -200 -71t-74 -176q0 -112 98 -197q32 -28 115 -93.5t133 -105.5q83 -68 120.5 -135.5t37.5 -150.5q0 -174 -135 -289
t-345 -115q-132 0 -246 52.5t-178 119.5q9 32 57.5 130.5t76.5 133.5l28 7q6 -25 10.5 -81t7.5 -130t5 -99q31 -20 91 -33.5t124 -13.5q155 0 238 78t83 188q0 114 -112 209q-188 156 -224 187q-149 126 -149 284q0 173 122.5 279t297.5 106z" />
    <glyph glyph-name="T" unicode="T" horiz-adv-x="1310" 
d="M461 1348h848q68 14 174 26l12 -4q-40 -116 -149 -346l-33 -10q-16 174 -19 262l-333 -16l-134 -519q-116 -436 -153 -635l237 -63l-26 -45q-55 0 -165 1t-165 1q-54 0 -162.5 -1t-163.5 -1l23 45l219 63q34 90 162 576l151 578l-335 16q-135 -180 -197 -252l-39 -8
q9 33 30 113t38.5 144t27.5 95l6 6q18 0 68 -8.5t78 -17.5z" />
    <glyph glyph-name="U" unicode="U" horiz-adv-x="1521" 
d="M444 1237l-155 68l24 45q34 0 108 -1t109 -1q32 0 93.5 1t89.5 1l-19 -45l-84 -76q-35 -113 -129 -449t-114 -448q-13 -60 -7 -103t19.5 -70.5t40 -43t54.5 -21.5t63 -6q71 0 145.5 22t130.5 52t112.5 72t87 69.5t58.5 56.5l248 881l-94 64l20 45q51 -2 187 -2
q157 0 235 2l-25 -47l-157 -66q-30 -92 -161 -591.5t-132 -534.5l180 -37l-22 -47q-336 -54 -373 -62l-12 6l82 273h-5q-54 -52 -115 -97.5t-136.5 -88.5t-162.5 -68t-171 -25q-134 0 -209 60q-128 97 -58 356q84 315 254 856z" />
    <glyph glyph-name="V" unicode="V" horiz-adv-x="1372" 
d="M225 1303l17 47q37 0 110 -2t109 -2q34 0 100.5 2t100.5 2l-17 -50l-84 -59q1 -25 5 -64t14 -119.5t22.5 -175t36 -277t47.5 -378.5h4q458 719 633 1018l-86 58l25 47q26 0 80.5 -2t82.5 -2q33 0 101 2t104 2l-20 -47q-129 -54 -172 -76q-87 -117 -311 -460t-451 -701
q-50 -61 -107 -105h-22q-5 43 -168 1268q-45 31 -154 74z" />
    <glyph glyph-name="W" unicode="W" horiz-adv-x="1947" 
d="M229 1305l21 45q29 0 97 -2t102 -2t95 2t87 2l-19 -47l-67 -50q12 -145 143 -1028h2q78 111 342 510q-59 367 -86 502q-36 21 -149 66l18 47q26 0 98.5 -2t108.5 -2q21 0 60 1t57 1l-4 -17l-15 -80q11 -108 51 -354h5q172 258 225 354l22 88l7 9q12 0 49 -1t53 -1
q28 0 90 2t94 2l-20 -47q-151 -57 -191 -76q-108 -135 -313 -434q23 -157 88 -560h4q385 631 606 1014l-51 56l23 47q24 0 73.5 -2t71.5 -2q30 0 91 2t93 2l-18 -47q-123 -50 -172 -78q-34 -44 -88 -125.5t-140 -217.5t-147 -234.5t-181.5 -292.5t-170.5 -275
q-42 -60 -103 -117l-18 -4q-7 35 -42 268t-62 389h-5q-276 -404 -372 -542q-47 -63 -101 -111l-18 -2q-8 50 -83.5 581t-100.5 693q-45 29 -140 70z" />
    <glyph glyph-name="X" unicode="X" horiz-adv-x="1343" 
d="M248 1303l22 47q44 0 128 -2t124 -2q32 0 94.5 2t92.5 2l-19 -50l-65 -53q29 -87 57 -164.5t54.5 -149.5t37.5 -104h6q9 11 70.5 83.5t85.5 101.5t76.5 96t103.5 137l-57 56l20 47q20 0 68.5 -2t71.5 -2q41 0 120 2t121 2l-22 -50l-201 -69q-151 -154 -432 -481
q135 -389 233 -641l201 -68l-25 -43q-44 0 -133.5 1t-134.5 1q-28 0 -86 -1t-86 -1l70 102q-24 104 -168 498h-6q-42 -51 -123 -148.5t-142 -173.5t-133 -172l103 -63l-23 -43q-30 0 -94 1t-96 1q-39 0 -118 -1t-118 -1l21 43l188 72q125 121 508 575q-72 210 -201 549z" />
    <glyph glyph-name="Y" unicode="Y" horiz-adv-x="1216" 
d="M217 1307l21 43q30 0 104 -2t111 -2q33 0 98 2t98 2l-18 -47l-78 -48q10 -39 174 -548h4q289 350 418 542l-72 58l21 43q30 0 86 -2t80 -2q35 0 104 2t109 2l-23 -47l-174 -62q-199 -213 -498 -596q-30 -38 -41 -80q-109 -399 -114 -459l221 -63l-21 -45q-56 0 -163.5 1
t-159.5 1q-50 0 -151.5 -1t-151.5 -1l20 43l205 63q41 105 143 476q9 43 -4 90q-97 296 -192 571q-37 18 -156 66z" />
    <glyph glyph-name="Z" unicode="Z" horiz-adv-x="1298" 
d="M1360 1348l-2 -33q-86 -91 -453 -502t-637 -721v-4q540 -12 676 -12q27 30 122.5 138.5t127.5 143.5l33 -4q-23 -80 -61.5 -192.5t-61.5 -169.5q-4 0 -403 4t-705 4l-14 25q66 74 492.5 545.5t617.5 684.5v5q-76 1 -295 5t-320 5q-70 -112 -170 -248l-37 -12
q48 327 56 358l10 8q38 -7 73 -13.5t52.5 -10t23.5 -4.5h875z" />
    <glyph glyph-name="bracketleft" unicode="[" horiz-adv-x="645" 
d="M578 1354l-414 -1596l213 -49l-23 -55h-342l467 1806h346l-18 -55z" />
    <glyph glyph-name="backslash" unicode="\" horiz-adv-x="927" 
d="M737 -80h-108l-301 1464h108z" />
    <glyph glyph-name="bracketright" unicode="]" horiz-adv-x="645" 
d="M129 -248l414 1610l-211 51l20 47h344l-467 -1806h-352l23 45z" />
    <glyph glyph-name="asciicircum" unicode="^" horiz-adv-x="1019" 
d="M948 598l-117 -16l-288 632l-271 -616l-125 -16l336 735l123 6z" />
    <glyph glyph-name="underscore" unicode="_" horiz-adv-x="989" 
d="M872 -205v-98h-989v98h989z" />
    <glyph glyph-name="grave" unicode="`" horiz-adv-x="790" 
d="M643 1038l-55 -24l-203 348l4 20q34 20 79 29t81 4z" />
    <glyph glyph-name="a" unicode="a" horiz-adv-x="1089" 
d="M825 907l191 25l6 -19l-78 -98q-56 -175 -110 -382.5t-80 -332.5l4 -2q43 13 82 36.5t73 58.5t48 51.5t40 50.5l13 -21q-8 -109 -118 -205t-257 -96q-25 0 -66 9q12 48 54 198.5t57 208.5h-6q-124 -182 -262 -299t-244 -117q-68 0 -103.5 53t-35.5 146q0 87 34.5 191
t116 222t195.5 203q148 113 299 113q72 0 133 -45zM250 92h2q64 0 167.5 91t217.5 263q54 81 82.5 147.5t66.5 194.5q-40 31 -92 31q-136 0 -258 -133q-111 -120 -171 -262t-60 -248q0 -42 14 -63t31 -21z" />
    <glyph glyph-name="b" unicode="b" horiz-adv-x="1048" 
d="M260 1343l19 41q62 23 166 43.5t153 22.5l6 -4q-9 -31 -40.5 -137.5t-92 -311t-125.5 -428.5h6q68 100 138.5 173t130.5 110.5t107.5 54.5t86.5 17q83 0 131.5 -69.5t48.5 -180.5q0 -139 -58 -269.5t-150.5 -224.5t-212 -150.5t-238.5 -56.5q-77 0 -153 29t-122 59
q330 1224 338 1258zM344 45h2q86 0 164 43.5t133.5 113t96.5 154t60.5 168.5t18.5 154q-1 71 -24 104t-58 33q-101 0 -264 -192q-93 -110 -154 -247.5t-73 -254.5q4 -34 33.5 -55t64.5 -21z" />
    <glyph glyph-name="c" unicode="c" horiz-adv-x="835" 
d="M750 291l14 -66q-76 -109 -185.5 -180.5t-246.5 -71.5q-91 0 -153.5 44t-89 111.5t-26.5 154.5q0 115 51.5 243t159.5 230q176 168 381 168q59 0 104 -15t60 -30q-5 -33 -34.5 -112t-53.5 -114l-35 -18q-13 29 -47 217q-6 2 -26 2q-52 0 -111.5 -32t-114.5 -95
q-79 -93 -117 -206.5t-38 -221.5q0 -98 41 -155.5t123 -57.5q51 0 105 21.5t98.5 56t77.5 66t58 63.5z" />
    <glyph glyph-name="d" unicode="d" horiz-adv-x="1114" 
d="M811 1346l23 38q57 24 160.5 45t160.5 21l4 -4q-42 -134 -103 -339t-148 -517t-122 -477l5 -4q37 13 71.5 34.5t62 48t46 46.5t37 44.5t20.5 26.5l16 -18q-15 -124 -128.5 -221t-247.5 -97q-28 0 -68 9q2 8 117 415h-6q-131 -195 -266 -309.5t-250 -114.5
q-65 0 -108.5 59t-43.5 165q0 126 56 259t143.5 235t201.5 167.5t222 65.5q90 0 165 -62q118 423 127 457zM682 836h-2q-111 0 -221 -105.5t-176 -254t-66 -277.5q0 -52 17.5 -79.5t46.5 -27.5q58 0 159 84t207 248q61 92 91.5 160.5t72.5 206.5q-58 45 -129 45z" />
    <glyph glyph-name="e" unicode="e" horiz-adv-x="858" 
d="M768 295l10 -68q-83 -121 -197 -187.5t-237 -66.5q-43 0 -81 8.5t-75 30t-63.5 55t-43.5 87t-18 122.5q-1 80 24 169.5t74.5 174t116 153t155.5 110t185 41.5q101 0 156 -56t57 -145q0 -84 -53 -137q-50 -59 -222 -112.5t-304 -76.5q-10 -49 -10 -108q0 -89 40 -147
t128 -58q94 0 192 66t160 145h6zM588 856h-2q-91 0 -184.5 -110.5t-137.5 -276.5q105 21 227.5 63t153.5 89q31 45 31 114q0 57 -25.5 89t-62.5 32z" />
    <glyph glyph-name="f" unicode="f" horiz-adv-x="548" 
d="M141 897h148q73 300 229 438q128 117 268 117q95 0 146 -45q-15 -43 -42.5 -100t-49.5 -86l-35 -15q-29 85 -41 168q-6 2 -21 2q-182 0 -290 -481h223l-35 -66l-211 -28q-101 -450 -154 -664q-50 -207 -108 -319.5t-154 -196.5q-127 -110 -243 -110q-56 0 -101 25t-61 58
l80 115l14 4q64 -92 166 -92q22 0 36.5 3t37.5 20t41.5 48t41.5 92t44 148q83 338 198 871l-164 35z" />
    <glyph glyph-name="g" unicode="g" horiz-adv-x="858" 
d="M979 950l-84 -139l-160 -8l-2 -4q41 -73 41 -146q0 -108 -52 -205.5t-149.5 -160t-218.5 -62.5q-44 0 -71 15q-28 -32 -25 -60q0 -45 68 -78q12 -6 65.5 -30.5t111.5 -51.5t107 -51q144 -73 144 -164q-1 -65 -48 -123.5t-116.5 -95t-144.5 -57.5t-136 -21
q-101 0 -182 21.5t-127.5 53t-77.5 70.5t-42 69.5t-11 54.5q0 37 35 65q101 76 284 164v2q-24 22 -41.5 55.5t-17.5 65.5q0 44 102 131q-120 70 -120 227q0 111 59 213.5t163.5 165.5t225.5 58q23 -2 100 -13q103 -23 144 -28l160 88zM524 856h-2q-65 0 -127 -67.5
t-97.5 -165t-35.5 -187.5q0 -72 27.5 -108.5t72.5 -36.5q69 0 131.5 69t97 165t34.5 182q0 71 -27 110t-74 39zM356 -406h6q110 0 177 42.5t67 99.5q0 27 -17.5 48t-64.5 48q-152 85 -284 141q-121 -67 -168 -107t-47 -75q0 -67 94 -132t237 -65z" />
    <glyph glyph-name="h" unicode="h" horiz-adv-x="1091" 
d="M201 0l-162 -16q88 317 192 712q143 547 158 623l-149 27l20 38q58 23 169.5 44.5t158.5 21.5l4 -4q-1 -2 -39 -133.5t-103.5 -363t-148.5 -537.5h6q111 169 239.5 296.5t254.5 182.5q80 33 143 33q30 0 43 -7t17 -30.5t-13 -69.5q-157 -541 -178 -686l184 25l-24 -62
q-78 -23 -195 -66.5t-166 -66.5l-16 12q6 29 109 376.5t120 412.5q11 39 -16 39q-76 0 -217 -143t-234 -300q-52 -88 -84.5 -163t-72.5 -195z" />
    <glyph glyph-name="i" unicode="i" horiz-adv-x="593" 
d="M492 1354h12q15 -15 36.5 -59t22.5 -70l-2 -11q-15 -26 -61 -68t-68 -50h-12q-18 16 -39.5 56.5t-28.5 76.5l2 4q34 46 73 78t65 43zM293 778l-133 19l18 41q47 24 150 53.5t161 32.5l3 -6q-197 -646 -252 -846l6 -2q54 13 133.5 87.5t126.5 137.5l8 -25
q-4 -31 -20 -68.5t-44.5 -78.5t-65.5 -74t-89 -54.5t-109 -21.5q-35 0 -57.5 22t-29 72.5t17.5 131.5q46 173 176 579z" />
    <glyph glyph-name="j" unicode="j" horiz-adv-x="536" 
d="M289 791l-152 22l23 43q55 23 159.5 45.5t161.5 24.5l4 -4q-88 -366 -206 -797q-39 -142 -75.5 -229t-88.5 -156q-67 -89 -144 -147t-135 -85l-45 43q31 21 54.5 39t61 58t66.5 87t61.5 124t57.5 170q147 563 197 762zM477 1354h10q16 -14 37.5 -58t24.5 -71l-4 -8
q-14 -27 -60 -69.5t-69 -51.5h-10q-19 15 -40.5 56.5t-27.5 76.5v4q34 46 73.5 77.5t65.5 43.5z" />
    <glyph glyph-name="k" unicode="k" horiz-adv-x="958" 
d="M1049 893l-29 -45q-119 -25 -157.5 -36t-67.5 -30q-106 -71 -267 -221v-4q26 -55 88.5 -164.5t139 -240t104.5 -181.5l-16 -14q-39 5 -63 9.5t-52 14.5t-49 26t-45 42t-49 64q-58 89 -133.5 223t-85.5 162l6 8q211 194 309 291q31 31 40 47t34 78q29 6 146 -6.5
t147 -22.5zM408 1317l-136 26l19 41q63 23 166 44.5t151 21.5l6 -4q-95 -301 -409 -1436q-105 -15 -174 -22q253 850 377 1329z" />
    <glyph glyph-name="l" unicode="l" horiz-adv-x="579" 
d="M410 1319l-136 27l21 40q59 24 164 45t153 21l4 -4q-84 -273 -206 -700q-111 -391 -189 -676l4 -2q87 21 269 243l14 -18q-5 -46 -32 -100t-69 -104.5t-106 -84t-135 -33.5q-32 0 -54 22.5t-30 73.5t14 134q18 67 314 1116z" />
    <glyph glyph-name="m" unicode="m" horiz-adv-x="1683" 
d="M225 0l-162 -16q36 102 125 423t95 373l-144 17l17 41q56 25 166 56t155 32l4 -6q-11 -40 -62 -210t-89 -298h4q239 375 493 481q76 31 146 31q38 0 46.5 -24t-7.5 -95q-38 -150 -113 -385h4q231 360 486 473q79 31 151 31q40 0 48 -22.5t-11 -94.5q-157 -548 -176 -678
l184 27l-24 -62q-136 -42 -365 -133l-12 21q5 24 108 369.5t121 412.5q11 37 -16 37q-74 0 -211 -135.5t-230 -290.5q-57 -95 -90.5 -169.5t-77.5 -205.5l-163 -16q45 134 125 402.5t102 377.5q4 19 0.5 28t-16.5 9q-81 0 -215 -133t-232 -299q-54 -88 -86 -161.5
t-78 -207.5z" />
    <glyph glyph-name="n" unicode="n" horiz-adv-x="1118" 
d="M225 0l-159 -16q37 106 125.5 428.5t91.5 367.5l-138 17l15 41q45 23 160.5 54.5t158.5 33.5l4 -4q-5 -22 -26 -92t-58 -194t-67 -230h6q244 383 493 487q72 31 144 31q45 0 53 -22t-12 -95q-157 -550 -178 -678l186 27l-25 -62q-75 -23 -193.5 -67t-168.5 -66l-14 21
q4 18 107.5 362t123.5 420q11 35 -16 35q-52 0 -136.5 -68.5t-166 -165t-140.5 -192.5q-59 -97 -93 -171t-77 -202z" />
    <glyph glyph-name="o" unicode="o" horiz-adv-x="978" 
d="M616 924h2q131 0 209 -100t78 -251q0 -148 -72.5 -286.5t-198 -226t-267.5 -87.5q-126 0 -209 90.5t-84 247.5q0 117 44 229t117 196.5t173.5 136t207.5 51.5zM598 856h-2q-71 0 -137.5 -60t-111.5 -150.5t-72 -193.5t-27 -190q0 -114 36 -167.5t97 -53.5q86 0 169 94.5
t132 231t49 262.5q0 107 -33 167t-100 60z" />
    <glyph glyph-name="p" unicode="p" horiz-adv-x="1081" 
d="M285 784l-140 13l17 41q40 25 153 60t166 38l2 -6l-129 -428h6q83 123 163.5 211t145.5 131t114.5 61.5t90.5 18.5q72 0 114 -62.5t42 -165.5q0 -146 -58 -282t-148.5 -231.5t-204 -152.5t-222.5 -57q-36 0 -81.5 14.5t-75.5 35.5q-66 -242 -93 -357l175 -45l-25 -51
q-402 -23 -477 -23l20 52l129 57q41 106 137 457q128 459 179 671zM377 47h2q100 0 192 64.5t153.5 162t97.5 210.5t34 212q-3 117 -72 117q-49 0 -127 -62t-168 -194q-149 -188 -217 -434q15 -31 45.5 -53.5t59.5 -22.5z" />
    <glyph glyph-name="q" unicode="q" horiz-adv-x="1036" 
d="M326 -453l12 43q23 12 80 37.5t63 28.5q39 107 215 713h-4q-147 -207 -278 -301.5t-228 -94.5q-57 0 -100 54.5t-43 162.5q0 130 57.5 264.5t146.5 237t204.5 167.5t224.5 65q87 0 147 -82l4 2l17 39q96 34 196 41l7 -21l-82 -106q-43 -118 -145 -498.5t-163 -640.5
l164 -49l-14 -47q-149 -15 -481 -15zM680 838h-2q-71 0 -143 -45t-128.5 -118t-101 -159.5t-68.5 -175t-24 -160.5q0 -48 15.5 -73t39.5 -25q64 0 162.5 85.5t192.5 215.5q68 97 96.5 157t83.5 230q-20 31 -53.5 49.5t-69.5 18.5z" />
    <glyph glyph-name="r" unicode="r" horiz-adv-x="782" 
d="M121 795l14 43q59 28 150 56.5t133 29.5l4 -4q4 -128 -60 -369h7q203 373 397 373q45 0 76 -23q-2 -30 -38.5 -125t-60.5 -131l-32 -16q-20 68 -37 162q-4 2 -15 2q-19 0 -47.5 -20t-67 -63.5t-88 -129t-98.5 -199.5q-48 -108 -127 -381l-163 -16q81 256 139 487.5
t63 306.5z" />
    <glyph glyph-name="s" unicode="s" horiz-adv-x="731" 
d="M494 924h2q58 0 115 -18t85 -44q-10 -41 -41.5 -108.5t-52.5 -94.5l-31 -10q-16 107 -26 193q-20 12 -66 12q-80 0 -131 -44.5t-51 -107.5q0 -50 32.5 -88.5t116.5 -103.5q96 -74 132 -131.5t36 -126.5q0 -113 -97 -196t-257 -83q-87 0 -168.5 36.5t-111.5 70.5
q45 110 114 213l29 8q22 -108 31 -233q47 -21 102 -21q93 0 148 45t55 111q0 45 -29 84t-100 96q-100 77 -137 137t-37 125q0 128 101 203.5t237 75.5z" />
    <glyph glyph-name="t" unicode="t" 
d="M375 1098l178 110l12 -10l-90 -301h268l-41 -66l-253 -26q-122 -405 -195 -725l2 -2q87 10 180.5 75t171.5 162l10 -39q-29 -77 -74 -135.5t-89 -89t-94 -49.5t-82.5 -24t-61.5 -5q-152 0 -111 172q40 168 183 660l-162 26l39 66h149z" />
    <glyph glyph-name="u" unicode="u" horiz-adv-x="1148" 
d="M297 774l-158 10l17 47q56 24 163 54.5t175 38.5l14 -4q-48 -128 -126 -387t-101 -351q-11 -50 -7 -68t25 -18q74 0 195 122.5t237 309.5q52 86 84 162t72 201q83 23 190 33l10 -19l-81 -110q-98 -314 -185 -686l4 -3q34 9 68 29t54.5 36t47.5 47t32.5 39t25.5 36
q4 5 6 8l14 -29q-5 -50 -34.5 -102t-77 -96.5t-117.5 -72.5t-148 -28q-9 0 -19.5 1t-23 3t-18.5 3q55 202 145 493h-6q-208 -322 -395 -438q-103 -62 -184 -62q-128 0 -78 189q30 111 97.5 335.5t82.5 276.5z" />
    <glyph glyph-name="v" unicode="v" horiz-adv-x="919" 
d="M217 774l-139 8l10 45q45 26 153.5 61.5t139.5 35.5l4 -4q4 -446 18 -744h7q94 99 176 209.5t119 192.5q34 68 47 139.5t4 175.5q12 12 51 27t70 16l4 -2q30 -58 30 -129q1 -61 -36.5 -139.5t-104 -166t-131 -162t-147.5 -167t-123 -141.5q-19 -20 -48.5 -36.5
t-50.5 -21.5l-10 2q-2 24 -11 254t-16 355q-8 161 -16 192z" />
    <glyph glyph-name="w" unicode="w" horiz-adv-x="1390" 
d="M227 762l-143 24l8 41q49 25 163.5 61t135.5 36l4 -6q-1 -80 -4 -328t-6 -387h4q120 182 340 532q-4 77 -8 133q28 22 82.5 39t87.5 17l8 -11q-1 -10 -5 -33t-7 -46.5t-4 -47.5q0 -146 10 -353.5t16 -248.5h6q173 198 254 377q74 156 64 334q55 41 119 41l4 -2
q10 -14 18 -52t8 -75q-1 -60 -38 -142t-106 -179.5t-124.5 -168t-138.5 -169t-101 -121.5q-51 -41 -94 -56l-8 4q-11 55 -37 631l-4 -2q-287 -442 -381 -577q-18 -18 -48 -35.5t-48 -20.5l-8 4q-2 22 -2 123.5t-1.5 241t-4.5 235.5q-3 154 -11 187z" />
    <glyph glyph-name="x" unicode="x" horiz-adv-x="991" 
d="M-37 233l29 37q71 -102 127 -155q34 10 129.5 117t183.5 231q-70 275 -100 321q-31 -11 -87.5 -58.5t-115.5 -123.5l-23 43q39 99 136.5 187.5t187.5 91.5q13 -9 26.5 -32.5t27 -61.5t23 -70t23.5 -82.5t21 -73.5h6q66 90 145 182q107 124 170 150h19q33 -26 55.5 -99
t22.5 -149l-37 -35l-12.5 25l-14 28t-14 25t-16.5 25.5t-16.5 20.5t-18.5 18q-33 -11 -122 -107.5t-143 -169.5q92 -313 105 -360q6 -25 16 -25q11 0 42.5 20.5t79.5 67.5t85 105l17 -54q-42 -137 -147 -218t-208 -81q-7 24 -40.5 154.5t-67.5 251.5h-4q-176 -243 -228 -301
q-47 -58 -82.5 -88.5t-50.5 -34.5q-16 0 -24 2q-29 33 -61.5 112.5t-43.5 163.5z" />
    <glyph glyph-name="y" unicode="y" horiz-adv-x="911" 
d="M117 569l-47 45q29 91 66.5 156.5t73.5 96.5t64 44.5t52 14.5q98 -8 145 -215q50 -212 43 -570h6q79 123 158.5 328.5t85.5 306.5l-62 88l11 21q76 37 170 41q12 0 19.5 -6t6.5 -17q-14 -92 -41.5 -176t-83.5 -219q-147 -356 -381 -658q-65 -84 -134 -153t-120 -106.5
t-87 -57.5t-50 -20q-13 0 -32 15t-44 57.5t-38 103.5l6 20q60 -5 198 -51q24 12 82.5 63.5t104.5 114.5q46 67 67 140.5t21 183.5q-2 158 -22 310.5t-54 244.5q-23 67 -41 67q-15 0 -60 -63.5t-83 -149.5z" />
    <glyph glyph-name="z" unicode="z" horiz-adv-x="872" 
d="M801 283l28 -58q-158 -252 -260 -291q-13 1 -28 5t-35.5 12t-36.5 14t-45.5 19t-46.5 20q-68 32 -141 57q-82 29 -125 -8q-36 -23 -72 -86h-16q-14 14 -16 42.5t11 62.5q11 30 43.5 63.5t59.5 48.5q130 130 315.5 326.5t229.5 247.5l-2 4q-102 -16 -220 -4
q-29 3 -64.5 6.5t-53.5 5.5q-32 -18 -104 -93t-99 -112l-33 47q43 81 116.5 188t102.5 130q46 -17 148 -36.5t217 -19.5q56 0 97.5 16t92.5 64l29 -49q-27 -68 -647 -715l2 -4q63 0 170 -41q16 -5 74.5 -26t85.5 -29q82 40 223 193z" />
    <glyph glyph-name="braceleft" unicode="{" horiz-adv-x="641" 
d="M481 692l-231 -125v-4l168 -117q-114 -326 -142 -438q-27 -116 -2.5 -188t111.5 -135l-31 -52q-50 19 -94.5 52t-81 83t-48 112t4.5 138q34 140 168 410l-172 129l19 29l227 129q0 262 39 424q19 77 88 152t148 123t151 69l16 -60q-119 -57 -177.5 -127t-86.5 -188
q-21 -84 -44.5 -216.5t-29.5 -199.5z" />
    <glyph glyph-name="bar" unicode="|" horiz-adv-x="616" 
d="M225 1483h129v-1977h-129v1977z" />
    <glyph glyph-name="braceright" unicode="}" horiz-adv-x="645" 
d="M227 453l230 120v5l-168 116q31 71 73 197.5t62 210.5q29 116 4.5 194t-111.5 136l33 51q47 -18 91.5 -53t80 -85t49 -110t-1.5 -127q-40 -164 -168 -395l177 -131l-17 -31l-223 -125q-10 -294 -49 -446q-18 -71 -62.5 -132t-102 -102.5t-112 -69t-108.5 -43.5l-21 56
q118 59 178.5 134.5t94.5 201.5q21 82 42.5 216.5t28.5 211.5z" />
    <glyph glyph-name="asciitilde" unicode="~" horiz-adv-x="1130" 
d="M1055 639l67 -39q-60 -135 -131.5 -196.5t-167.5 -61.5q-40 0 -87.5 17.5t-75 33t-78.5 47.5q-5 3 -28.5 18t-29 18.5t-25 15.5t-27.5 15.5l-24 10.5t-26.5 9.5t-24 5t-26.5 2.5q-107 0 -217 -191l-68 41q56 128 135 192t172 64q17 0 35.5 -3t32 -6t34 -11.5t30.5 -13
t33 -17t30 -16.5t32.5 -20t30.5 -19q127 -80 195 -80q114 0 209 184z" />
    <glyph glyph-name="uni00A0" unicode="&#xa0;" horiz-adv-x="481" 
 />
    <glyph glyph-name="exclamdown" unicode="&#xa1;" horiz-adv-x="481" 
d="M293 643h-14q-19 15 -45.5 62t-30.5 75l2 13q13 27 63.5 71.5t77.5 55.5h12q22 -17 49 -61.5t39 -82.5l-2 -6q-35 -48 -80 -82.5t-71 -44.5zM195 440l71 27q-116 -611 -133 -743l8 -99q-30 -23 -99.5 -45t-145.5 -26l-15 16q118 331 314 870z" />
    <glyph glyph-name="cent" unicode="&#xa2;" horiz-adv-x="1038" 
d="M719 1106l47 166l70 10l-45 -172q80 0 137.5 -22t79.5 -46q-6 -29 -41 -101.5t-54 -96.5l-24 -8q-27 69 -39 194q-37 12 -80 10l-203 -735q103 7 194 62.5t157 121.5l20 -59q-69 -86 -171.5 -149.5t-227.5 -79.5l-45 -162l-74 -16l49 174q-80 2 -141 28.5t-97 71
t-53.5 98.5t-17.5 117q0 116 48 222t126.5 182.5t179 127t205.5 62.5zM498 305l198 723l-2 4q-103 -22 -185.5 -104t-124.5 -189.5t-42 -214.5q0 -92 40.5 -150.5t115.5 -68.5z" />
    <glyph glyph-name="sterling" unicode="&#xa3;" horiz-adv-x="1038" 
d="M936 315l43 -30q-50 -142 -135 -295q-10 0 -173 5t-280 5h-420l6 31l86 75q33 8 74 41q54 66 97 174t75 310l-200 28l41 60h174l14 74q58 341 258 475q104 71 235 71q70 0 124.5 -22.5t80.5 -50.5q-38 -101 -98 -201l-41 -12q-16 63 -37 211q-19 8 -45 8
q-101 0 -174.5 -91t-108.5 -288q-7 -40 -17 -103.5t-11 -70.5h383l-35 -64l-363 -24q-24 -128 -58.5 -215t-84 -150.5t-133.5 -132.5l2 -4q222 -6 565 10q67 63 156 176z" />
    <glyph glyph-name="currency" unicode="&#xa4;" horiz-adv-x="1038" 
d="M614 979h-2q-124 0 -207 -97t-96 -235q-10 -128 50.5 -207.5t162.5 -79.5q123 0 203.5 95t91.5 237q9 125 -44.5 206t-158.5 81zM1042 1034l-137 -121q53 -91 39 -221q-16 -177 -131 -286l98 -103l-88 -90l-92 127q-44 -31 -107.5 -49.5t-119.5 -18.5q-60 0 -120.5 21
t-94.5 55l-131 -133l-60 82l138 113q-67 96 -54 237q4 73 40 148t87 123l-104 106l90 92l94 -131q121 82 252 82q126 0 207 -84l133 131z" />
    <glyph glyph-name="yen" unicode="&#xa5;" horiz-adv-x="1038" 
d="M217 709h246q-55 253 -117 512l-115 49l21 45q31 0 95.5 -1t92.5 -1q38 0 114 1t114 1l-21 -45l-129 -49l88 -473l4 -3q236 329 334 474l-137 51l22 45q31 0 98 -1t99 -1q29 0 88.5 1t91.5 1l-20 -45l-131 -60q-129 -146 -391 -501h278l-39 -72h-276l-43 -158h297
l-39 -69h-275q-71 -287 -73 -314l170 -53l-21 -45q-42 0 -127 1t-127 1q-44 0 -133.5 -1t-134.5 -1l20 45l162 53q21 40 98 314h-286l41 69h264l41 158h-285z" />
    <glyph glyph-name="brokenbar" unicode="&#xa6;" horiz-adv-x="616" 
d="M225 1364h129v-750h-129v750zM225 -375v752h129v-752h-129z" />
    <glyph glyph-name="section" unicode="&#xa7;" horiz-adv-x="937" 
d="M172 750v2q0 144 95.5 265.5t269.5 203.5q79 49 163 49q67 0 109 -27q53 24 121 41l16 -8q-11 -40 -46.5 -126t-65.5 -128l-27 -6q-10 28 -27 164q-28 24 -92 24q-59 0 -102 -39t-43 -94q0 -39 22 -94q20 -60 146 -272q106 -212 106 -343q0 -278 -319 -487
q-127 -94 -258 -94q-66 0 -134.5 24.5t-103.5 61.5q6 26 43.5 91.5t63.5 94.5l26 4q4 -28 19 -192q47 -19 96 -17q77 2 133.5 48.5t56.5 111.5q0 81 -65 205q-100 200 -121 244q-82 168 -82 293zM289 821v-2q0 -54 14 -107.5t53 -140.5q18 -40 68 -136.5t78 -155.5
q63 -126 63 -209q0 -18 -6 -72h4q63 60 97 136t34 147q0 103 -57 217q-35 71 -72 142.5t-57.5 112t-38.5 83.5q-40 88 -37 170q0 54 21 98l-7 2q-79 -58 -118 -135t-39 -150z" />
    <glyph glyph-name="dieresis" unicode="&#xa8;" horiz-adv-x="790" 
d="M446 1329h9q16 -11 39.5 -51.5t29.5 -65.5l-4 -10q-10 -25 -53 -63.5t-68 -48.5h-10q-21 19 -44.5 56.5t-31.5 70.5l2 4q31 41 69 69.5t62 38.5zM827 1329h11q15 -12 38 -52.5t29 -64.5l-4 -10q-11 -25 -53.5 -63.5t-65.5 -48.5h-12q-21 19 -44.5 56.5t-31.5 70.5l2 4
q32 41 69 70t62 38z" />
    <glyph glyph-name="copyright" unicode="&#xa9;" horiz-adv-x="1425" 
d="M762 1280h2q167 0 307.5 -84t221.5 -229.5t81 -319.5q0 -130 -48 -246.5t-129.5 -200.5t-195 -133t-239.5 -49q-170 0 -311.5 83t-222.5 227.5t-81 318.5t81.5 319.5t223 229.5t310.5 84zM766 1198h-2q-145 0 -264 -72t-186.5 -198t-67.5 -279t67.5 -278.5t187 -198
t265.5 -72.5q144 0 261 72.5t183 198t66 278.5q0 154 -66 279.5t-183 197.5t-261 72zM801 977h2q71 0 127 -27q41 19 88 29l14 -4q0 -27 -14.5 -106.5t-20.5 -88.5l-22 -14q-28 38 -62 125q-32 22 -90 22q-97 0 -166 -69.5t-69 -181.5q0 -115 70 -192t186 -77q25 0 49 8
q102 93 127 105l20 -19q-4 -22 -30 -73t-39 -64q-23 -9 -74 -17.5t-92 -8.5q-72 0 -137 21t-115.5 60t-80.5 101t-30 139q0 72 24.5 131t62.5 95.5t87.5 61t95.5 34.5t89 10z" />
    <glyph glyph-name="ordfeminine" unicode="&#xaa;" horiz-adv-x="684" 
d="M719 1133l-41 -62q-21 -65 -96 -360q14 4 27 9t26 12.5t21.5 13t20.5 16t16.5 14.5t16.5 15t13 12l6 -15q-3 -57 -70 -114.5t-165 -57.5q-21 0 -39 9q13 43 57 204h-6q-71 -95 -148 -154t-147 -59q-43 0 -67.5 31.5t-24.5 83.5q0 77 48.5 170.5t143.5 161.5q90 63 174 63
q33 0 59 -15.5t34 -35.5l16 45l117 19zM270 694h2q29 0 84 45t117 131t84 154q-6 21 -26 34t-44 13q-55 0 -108 -53q-61 -61 -100 -141.5t-39 -139.5q0 -43 30 -43z" />
    <glyph glyph-name="guillemotleft" unicode="&#xab;" horiz-adv-x="1073" 
d="M467 92l-49 -35q-63 118 -152 232t-147 168q77 52 206 164.5t236 230.5l35 -37q-87 -138 -283 -364q118 -241 154 -359zM868 92l-47 -35q-63 118 -152 232t-147 168q83 57 211.5 168.5t229.5 226.5l34 -37q-71 -123 -274 -364q5 -12 37 -84.5t44 -101.5t32 -81t32 -92z
" />
    <glyph glyph-name="logicalnot" unicode="&#xac;" horiz-adv-x="1236" 
d="M915 121v457h-759l37 104h843v-530z" />
    <glyph glyph-name="uni00AD" unicode="&#xad;" horiz-adv-x="722" 
d="M561 444l-491 -55l69 148l105 -5l405 23v-10z" />
    <glyph glyph-name="registered" unicode="&#xae;" horiz-adv-x="598" 
d="M465 1335h2q100 0 169 -68t69 -169q0 -104 -69.5 -173t-172.5 -69q-100 0 -169 68.5t-69 169.5t70 171t170 70zM465 1290h-2q-74 0 -127 -56.5t-53 -135.5q0 -83 53.5 -140t128.5 -57q79 0 130.5 56.5t51.5 140.5q0 80 -53 136t-129 56zM358 1184l7 20q39 8 96 8
q94 0 94 -55q0 -36 -45 -55q7 -20 45 -72q17 -23 33 -39l-6 -4q-10 0 -18.5 1t-15.5 3t-11.5 3.5t-9.5 4.5t-7 4.5t-7.5 5.5t-6.5 5q-24 28 -57 86q29 8 40 17.5t11 29.5q0 21 -18.5 32t-43.5 9v-166l35 -12l-4 -17h-111l4 17l27 12v160z" />
    <glyph glyph-name="macron" unicode="&#xaf;" horiz-adv-x="790" 
d="M807 1133h-438l45 110h438z" />
    <glyph glyph-name="degree" unicode="&#xb0;" horiz-adv-x="587" 
d="M510 1325h2q82 0 136 -54.5t54 -144.5q0 -112 -73 -182t-180 -70q-81 0 -135 53t-54 138q-2 106 71.5 183t178.5 77zM498 1251h-2q-61 0 -102.5 -54.5t-41.5 -121.5q0 -59 31 -93t80 -34q72 0 110.5 53t38.5 121q0 59 -28.5 94t-85.5 35z" />
    <glyph glyph-name="plusminus" unicode="&#xb1;" horiz-adv-x="1232" 
d="M1063 104l-27 -104h-907l29 104h905zM655 233l-120 -26v418h-406l27 104h379v358l120 25v-383h404l-25 -104h-379v-392z" />
    <glyph glyph-name="twosuperior" unicode="&#xb2;" 
d="M178 895l64 66q33 19 43 26q8 6 25 18q58 42 90.5 66.5t86.5 70.5t83.5 81t53 80t23.5 86q0 59 -30 91.5t-82 32.5q-42 0 -78 -18q-41 -128 -60 -156l-30 -14q-25 53 -39 150q53 46 121.5 75t138.5 29q88 0 146.5 -51t58.5 -142q0 -76 -53.5 -135.5t-166.5 -136.5
q-128 -86 -221 -145q24 0 141 3t136 3q8 7 43 40.5t61 57.5l37 -20q-52 -119 -98 -187q-11 0 -114.5 3t-170.5 3h-213z" />
    <glyph glyph-name="threesuperior" unicode="&#xb3;" 
d="M403 1374l-24 -12q-21 43 -39 133q122 84 238 84q94 0 144 -44.5t50 -109.5t-52 -103.5t-145 -68.5l-2 -4q183 -28 183 -166q0 -68 -50.5 -121.5t-126.5 -79.5t-161 -26q-63 0 -126 20.5t-97 51.5q10 24 39.5 73.5t41.5 65.5l25 8q8 -32 29 -149q39 -13 71 -13
q86 0 145.5 47.5t59.5 129.5q0 60 -31.5 88.5t-82.5 31.5q-74 -16 -101 -16l-10 10q3 17 19.5 43t29.5 35q9 -1 37 -3.5t39 -2.5q62 20 96.5 56t34.5 81q0 50 -30 77.5t-79 27.5q-39 0 -69 -15q-25 -69 -56 -129z" />
    <glyph glyph-name="acute" unicode="&#xb4;" horiz-adv-x="790" 
d="M498 1014l-41 41l229 323q37 4 85 -5.5t77 -26.5v-23z" />
    <glyph glyph-name="mu" unicode="&#xb5;" horiz-adv-x="1124" 
d="M858 899l197 25v-9l-76 -110q-96 -311 -180 -694l4 -2q30 9 59 26t49.5 33t42 39t32 36.5t25.5 34t17 23.5l14 -20q-4 -46 -32 -98.5t-74 -100t-115 -78.5t-145 -31q-11 0 -22 1t-22.5 3t-17.5 3q7 27 136 479h-7q-33 -52 -64.5 -98t-90 -122.5t-109 -130t-111 -94.5
t-106.5 -41q-42 0 -69 27h-5q-39 -111 -68.5 -245t-33.5 -238l-14 -6q-38 11 -61 46.5t-29.5 107t20.5 179.5q28 125 104 394q32 114 97 332t92 311q62 26 176 45l8 -8q-164 -478 -229 -721q-24 -103 43 -103q73 0 185.5 118.5t228.5 309.5q49 84 79.5 162.5t71.5 214.5z
" />
    <glyph glyph-name="paragraph" unicode="&#xb6;" horiz-adv-x="1036" 
d="M1063 1339l-135 -241l-271 -1047q-143 -551 -467 -551q-87 0 -127 49q-47 63 -59 109l19 23q28 -23 75 -38t97 -12q249 0 374 439l25 86q-60 -25 -92 -25q-62 0 -126 27.5t-118.5 77.5t-89 130.5t-35.5 176.5q0 163 85 291t235.5 198t339.5 70h36l58 217l170 24z" />
    <glyph glyph-name="periodcentered" unicode="&#xb7;" horiz-adv-x="417" 
d="M264 637h15q18 -15 44.5 -62t32.5 -75l-2 -13q-14 -28 -64.5 -72t-78.5 -57h-12q-22 19 -49 63t-39 83l2 4q36 50 80 85t71 44z" />
    <glyph glyph-name="cedilla" unicode="&#xb8;" horiz-adv-x="790" 
d="M276 0h84l-102 -119q100 -53 100 -131q0 -38 -20.5 -71.5t-51 -57t-69 -41.5t-72 -28t-63.5 -15l-19 53q33 10 66.5 26t64.5 45.5t31 59.5q0 27 -22.5 49t-79.5 44l-2 6z" />
    <glyph glyph-name="onesuperior" unicode="&#xb9;" 
d="M555 1444l-162 -6l23 41q9 4 276 100h19q-110 -419 -162 -631l145 -41l-20 -39q-44 0 -115 1t-104 1t-102 -1t-105 -1l16 39l137 41q75 229 154 496z" />
    <glyph glyph-name="ordmasculine" unicode="&#xba;" horiz-adv-x="628" 
d="M471 1139h2q91 0 140 -51.5t49 -141.5q0 -82 -40 -157t-116.5 -124t-171.5 -49q-85 0 -136 52.5t-51 138.5q0 125 96.5 228.5t227.5 103.5zM469 1087h-2q-50 0 -96 -54t-71.5 -126.5t-25.5 -134.5q0 -54 20 -79t48 -25q56 0 102.5 57t68.5 128.5t22 131.5q0 46 -17.5 74
t-48.5 28z" />
    <glyph glyph-name="guillemotright" unicode="&#xbb;" horiz-adv-x="1073" 
d="M604 817l49 35q64 -117 152 -229.5t147 -169.5q-73 -49 -201.5 -162.5t-240.5 -233.5l-33 37q111 176 275 365q-102 209 -148 358zM205 817l45 35q64 -117 152 -229.5t147 -169.5q-78 -55 -206 -167.5t-234 -228.5l-33 37q73 126 274 365q-114 251 -145 358z" />
    <glyph glyph-name="onequarter" unicode="&#xbc;" horiz-adv-x="1495" 
d="M473 1204l-162 -6l23 41q9 4 276 100h19q-113 -430 -162 -630l145 -41l-20 -39q-44 0 -115 1t-104 1t-102 -1t-105 -1l16 39l137 41q78 238 154 495zM1329 1356l49 -56q-140 -169 -401 -480.5t-455.5 -545.5t-290.5 -352l-49 58q965 1149 1147 1376zM1157 178l-33 -125
l109 -45l-16 -35q-29 0 -87 1t-86 1q-33 0 -98 -1t-98 -1l16 35l127 43l39 123l-307 -2l-12 39q65 83 229.5 250.5t198.5 191.5q39 20 149 31l-117 -446l64 -2q48 38 76 53h20q-3 -21 -25 -83t-32 -79l-21 -4q-12 19 -26 57zM1049 240l110 356h-6q-82 -82 -145 -149.5
t-89 -97t-92 -105.5z" />
    <glyph glyph-name="onehalf" unicode="&#xbd;" horiz-adv-x="1495" 
d="M467 1204l-162 -6l23 41q9 4 276 100h19q-113 -430 -162 -630l145 -41l-20 -39q-44 0 -115 1t-104 1t-102 -1t-105 -1l16 39l137 41q78 238 154 495zM1307 1356l49 -56q-140 -169 -401 -480.5t-455.5 -545.5t-290.5 -352l-49 58q965 1149 1147 1376zM752 0l63 66
q33 19 43 26q155 112 210 161q153 135 153 241q0 59 -30.5 91.5t-82.5 32.5q-42 0 -78 -18q-42 -131 -59 -156l-31 -14q-25 53 -39 150q53 46 121.5 75t138.5 29q89 0 147 -51t58 -141q0 -76 -53.5 -136.5t-165.5 -136.5q-128 -86 -221 -145q24 0 141 3t135 3q9 8 44 41.5
t61 56.5l36 -20q-52 -119 -98 -187q-11 0 -114 3t-170 3h-213z" />
    <glyph glyph-name="threequarters" unicode="&#xbe;" horiz-adv-x="1495" 
d="M371 1135l-25 -13q-21 43 -39 133q122 84 238 84q94 0 144 -44t50 -109t-52 -103.5t-144 -68.5l-2 -4q182 -28 182 -166q0 -68 -50.5 -121.5t-126.5 -80t-161 -26.5q-63 0 -126 20.5t-97 51.5q10 24 39.5 73.5t42.5 65.5l24 9q8 -30 29 -150q36 -12 72 -12q86 0 145 47
t59 129q0 60 -31.5 89t-82.5 32q-79 -17 -101 -17l-10 11q3 17 19 42.5t30 34.5q9 -1 37 -3.5t39 -2.5q62 20 96.5 56.5t34.5 81.5q0 50 -29.5 77t-78.5 27q-42 0 -70 -14q-28 -76 -55 -129zM1352 1356l49 -56q-140 -169 -401 -480.5t-455.5 -545.5t-290.5 -352l-49 58
q965 1149 1147 1376zM1190 178l-33 -125l109 -45l-17 -35q-29 0 -86 1t-86 1q-33 0 -98 -1t-98 -1l16 35l127 43l39 123l-307 -2l-13 39q65 83 229.5 250.5t198.5 191.5q16 8 65.5 18t84.5 13l-117 -446l64 -2q50 40 75 53h21q-3 -21 -25 -83t-32 -79l-21 -4q-12 19 -26 57z
M1081 240l111 356h-6q-82 -82 -145 -149.5t-89 -97t-92 -105.5z" />
    <glyph glyph-name="questiondown" unicode="&#xbf;" horiz-adv-x="823" 
d="M500 643h-11q-19 15 -46 62.5t-31 74.5v13q14 27 64.5 71.5t76.5 55.5h12q24 -18 52 -62t38 -82l-2 -6q-36 -49 -81 -83.5t-72 -43.5zM473 -141l35 12q34 -72 53 -197q-71 -48 -165.5 -83t-166.5 -35q-119 0 -201.5 69.5t-82.5 192.5q0 87 56.5 154.5t160.5 136.5
q64 42 98.5 65t78 57t65 61.5t26.5 53.5q13 48 -10 109l45 22q33 -13 70 -82t28 -137q-29 -52 -85 -104.5t-165 -126.5q-47 -32 -71.5 -50.5t-55 -44.5t-45 -46.5t-25 -46.5t-10.5 -54q0 -66 47.5 -110t127.5 -44q37 0 100 23q66 165 92 205z" />
    <glyph glyph-name="Agrave" unicode="&#xc0;" horiz-adv-x="1386" 
d="M807 1292l162 99l12 -11q-15 -55 -10 -145q6 -124 125 -1063q20 -57 49 -77t121 -46l-17 -51q-38 0 -113.5 1t-113.5 1q-34 0 -106 -1t-109 -1l10 41l103 57q-2 36 -7.5 89t-15.5 143.5t-16 154.5q-158 -14 -461 -10q-169 -266 -223 -360l170 -68l-15 -47q-40 0 -122.5 1
t-123.5 1q-35 0 -104 -1t-104 -1l16 47l149 66q42 54 150 216.5t304.5 464t273.5 418.5q18 30 18 56zM819 1112h-6q-80 -129 -151 -244t-108.5 -175t-74.5 -120q40 0 195 -4t200 -4q-3 30 -55 547zM1047 1518l-31 -50l-400 144v26q61 86 117 99z" />
    <glyph glyph-name="Aacute" unicode="&#xc1;" horiz-adv-x="1386" 
d="M807 1292l162 99l12 -11q-15 -55 -10 -145q6 -124 125 -1063q20 -57 49 -77t121 -46l-17 -51q-38 0 -113.5 1t-113.5 1q-34 0 -106 -1t-109 -1l10 41l103 57q-2 36 -7.5 89t-15.5 143.5t-16 154.5q-158 -14 -461 -10q-169 -266 -223 -360l170 -68l-15 -47q-40 0 -122.5 1
t-123.5 1q-35 0 -104 -1t-104 -1l16 47l149 66q42 54 150 216.5t304.5 464t273.5 418.5q18 30 18 56zM819 1112h-6q-80 -129 -151 -244t-108.5 -175t-74.5 -120q40 0 195 -4t200 -4q-3 30 -55 547zM840 1438l-31 51l315 217q33 -4 70.5 -32.5t58.5 -61.5l-4 -27z" />
    <glyph glyph-name="Acircumflex" unicode="&#xc2;" horiz-adv-x="1386" 
d="M807 1292l162 99l12 -11q-15 -55 -10 -145q6 -124 125 -1063q20 -57 49 -77t121 -46l-17 -51q-38 0 -113.5 1t-113.5 1q-34 0 -106 -1t-109 -1l10 41l103 57q-2 36 -7.5 89t-15.5 143.5t-16 154.5q-158 -14 -461 -10q-169 -266 -223 -360l170 -68l-15 -47q-40 0 -122.5 1
t-123.5 1q-35 0 -104 -1t-104 -1l16 47l149 66q42 54 150 216.5t304.5 464t273.5 418.5q18 30 18 56zM819 1112h-6q-80 -129 -151 -244t-108.5 -175t-74.5 -120q40 0 195 -4t200 -4q-3 30 -55 547zM942 1708h64q37 -38 109 -111t108 -110l-43 -49q-34 19 -111.5 62.5
t-118.5 66.5q-198 -90 -288 -129l-33 51q193 134 313 219z" />
    <glyph glyph-name="Atilde" unicode="&#xc3;" horiz-adv-x="1386" 
d="M807 1292l162 99l12 -11q-15 -55 -10 -145q6 -124 125 -1063q20 -57 49 -77t121 -46l-17 -51q-38 0 -113.5 1t-113.5 1q-34 0 -106 -1t-109 -1l10 41l103 57q-2 36 -7.5 89t-15.5 143.5t-16 154.5q-158 -14 -461 -10q-169 -266 -223 -360l170 -68l-15 -47q-40 0 -122.5 1
t-123.5 1q-35 0 -104 -1t-104 -1l16 47l149 66q42 54 150 216.5t304.5 464t273.5 418.5q18 30 18 56zM819 1112h-6q-80 -129 -151 -244t-108.5 -175t-74.5 -120q40 0 195 -4t200 -4q-3 30 -55 547zM1219 1657l38 -41q-59 -85 -116.5 -123.5t-100.5 -38.5q-34 0 -122 45
q-71 39 -107 39q-57 0 -145 -88l-39 45q126 162 219 162q34 0 115 -43q7 -3 24.5 -11.5t25.5 -12t20.5 -8.5t22 -7t17.5 -2q57 0 148 84z" />
    <glyph glyph-name="Adieresis" unicode="&#xc4;" horiz-adv-x="1386" 
d="M807 1292l162 99l12 -11q-15 -55 -10 -145q6 -124 125 -1063q20 -57 49 -77t121 -46l-17 -51q-38 0 -113.5 1t-113.5 1q-34 0 -106 -1t-109 -1l10 41l103 57q-2 36 -7.5 89t-15.5 143.5t-16 154.5q-158 -14 -461 -10q-169 -266 -223 -360l170 -68l-15 -47q-40 0 -122.5 1
t-123.5 1q-35 0 -104 -1t-104 -1l16 47l149 66q42 54 150 216.5t304.5 464t273.5 418.5q18 30 18 56zM819 1112h-6q-80 -129 -151 -244t-108.5 -175t-74.5 -120q40 0 195 -4t200 -4q-3 30 -55 547zM778 1700h13q18 -16 41.5 -56.5t27.5 -66.5l-2 -10q-12 -25 -56.5 -65.5
t-68.5 -49.5h-12q-21 18 -45 56.5t-33 70.5l2 6q55 74 133 115zM1176 1700h10q16 -16 39.5 -57t29.5 -66l-2 -10q-12 -25 -56.5 -65.5t-68.5 -49.5h-10q-22 18 -46.5 56t-33.5 71l2 6q57 77 136 115z" />
    <glyph glyph-name="Aring" unicode="&#xc5;" horiz-adv-x="1386" 
d="M807 1292l162 99l12 -11q-15 -55 -10 -145q6 -124 125 -1063q20 -57 49 -77t121 -46l-17 -51q-38 0 -113.5 1t-113.5 1q-34 0 -106 -1t-109 -1l10 41l103 57q-2 36 -7.5 89t-15.5 143.5t-16 154.5q-158 -14 -461 -10q-169 -266 -223 -360l170 -68l-15 -47q-40 0 -122.5 1
t-123.5 1q-35 0 -104 -1t-104 -1l16 47l149 66q42 54 150 216.5t304.5 464t273.5 418.5q18 30 18 56zM819 1112h-6q-80 -129 -151 -244t-108.5 -175t-74.5 -120q40 0 195 -4t200 -4q-3 30 -55 547zM938 1513h2q39 0 69 26t40 77q10 52 -11 78t-63 26q-38 0 -69.5 -26.5
t-39.5 -77.5q-10 -51 11 -77t61 -26zM989 1792h2q72 0 118 -47.5t30 -130.5q-14 -79 -76.5 -125.5t-134.5 -46.5q-73 0 -119.5 47t-30.5 127q14 82 76 129t135 47z" />
    <glyph glyph-name="AE" unicode="&#xc6;" horiz-adv-x="1908" 
d="M1010 614h-430q-22 -31 -74.5 -101.5t-127 -172.5t-167.5 -234l174 -61l-23 -47q-38 0 -116 1t-119 1q-39 0 -119 -1t-119 -1l19 47l160 61q487 611 888 1145l-243 49l26 50q47 0 157 -1t179 -1h707q21 5 77.5 12t84.5 6l8 -8q-9 -38 -42 -146t-52 -153l-29 -12
q-7 20 -15 51t-13.5 55.5t-14 63t-12.5 55.5l-451 -17l-115 -550q385 0 543 22l14 -22q-12 -18 -73 -62.5t-72 -44.5q-5 0 -99.5 4.5t-198 8.5t-136.5 3q-8 -37 -30.5 -142.5t-42.5 -203.5t-34 -170l473 -20q179 170 254 235l27 -12q-13 -44 -55.5 -147t-77.5 -160
q-195 6 -430 6h-307q-45 0 -136.5 -1t-136.5 -1l17 47l182 61q26 65 121 508zM647 705h385l131 557h-102q-316 -420 -414 -557z" />
    <glyph glyph-name="Ccedilla" unicode="&#xc7;" horiz-adv-x="1366" 
d="M580 -180l127 143l-2 2q-254 14 -407 171t-153 419q0 168 67 320.5t181.5 264.5t277 178t343.5 66q94 0 168 -22t110 -53q57 29 158 49l14 -15q-23 -65 -72.5 -176t-68.5 -141l-37 -8q-16 92 -20 221q-75 57 -234 57q-197 0 -355 -100t-244.5 -267.5t-86.5 -367.5
q0 -229 124.5 -367.5t348.5 -138.5q59 0 135 15q24 20 78.5 66.5t83.5 71t71.5 58t76.5 58.5l24 -50q-92 -155 -184 -243q-160 -57 -307 -66l-74 -84q98 -50 98 -131q0 -47 -30 -87t-76 -65.5t-90 -40.5t-82 -20l-21 53q54 16 108 52.5t54 78.5q0 27 -22.5 48.5t-77.5 42.5z
" />
    <glyph glyph-name="Egrave" unicode="&#xc8;" horiz-adv-x="1169" 
d="M283 1307l20 43q43 0 124 -1t120 -1h506q103 21 159 18l9 -8q-10 -40 -42.5 -148t-52.5 -155l-30 -13q-11 35 -30 122.5t-24 107.5l-405 -17l-131 -510q335 0 520 23l8 -25q-13 -17 -71.5 -61.5t-67.5 -44.5q-7 0 -193 9t-223 9q-116 -456 -139 -557l475 -24
q30 29 116 114t132 127l29 -18q-12 -41 -55.5 -143.5t-78.5 -159.5q-193 6 -430 6h-317q-44 0 -133 -1t-133 -1l18 47l187 61q40 114 165 596l144 545zM983 1487l-31 -49l-399 143v27q60 85 117 98z" />
    <glyph glyph-name="Eacute" unicode="&#xc9;" horiz-adv-x="1169" 
d="M283 1307l20 43q43 0 124 -1t120 -1h506q103 21 159 18l9 -8q-10 -40 -42.5 -148t-52.5 -155l-30 -13q-11 35 -30 122.5t-24 107.5l-405 -17l-131 -510q335 0 520 23l8 -25q-13 -17 -71.5 -61.5t-67.5 -44.5q-7 0 -193 9t-223 9q-116 -456 -139 -557l475 -24
q30 29 116 114t132 127l29 -18q-12 -41 -55.5 -143.5t-78.5 -159.5q-193 6 -430 6h-317q-44 0 -133 -1t-133 -1l18 47l187 61q40 114 165 596l144 545zM741 1438l-30 51l315 217q33 -4 70.5 -32.5t58.5 -61.5l-4 -27z" />
    <glyph glyph-name="Ecircumflex" unicode="&#xca;" horiz-adv-x="1169" 
d="M283 1307l20 43q43 0 124 -1t120 -1h506q103 21 159 18l9 -8q-10 -40 -42.5 -148t-52.5 -155l-30 -13q-11 35 -30 122.5t-24 107.5l-405 -17l-131 -510q335 0 520 23l8 -25q-13 -17 -71.5 -61.5t-67.5 -44.5q-7 0 -193 9t-223 9q-116 -456 -139 -557l475 -24
q30 29 116 114t132 127l29 -18q-12 -41 -55.5 -143.5t-78.5 -159.5q-193 6 -430 6h-317q-44 0 -133 -1t-133 -1l18 47l187 61q40 114 165 596l144 545zM848 1710h63q37 -38 109 -111t108 -110l-43 -49q-35 19 -111.5 62.5t-117.5 66.5q-184 -84 -289 -129l-32 51
q193 134 313 219z" />
    <glyph glyph-name="Edieresis" unicode="&#xcb;" horiz-adv-x="1169" 
d="M283 1307l20 43q43 0 124 -1t120 -1h506q103 21 159 18l9 -8q-10 -40 -42.5 -148t-52.5 -155l-30 -13q-11 35 -30 122.5t-24 107.5l-405 -17l-131 -510q335 0 520 23l8 -25q-13 -17 -71.5 -61.5t-67.5 -44.5q-7 0 -193 9t-223 9q-116 -456 -139 -557l475 -24
q30 29 116 114t132 127l29 -18q-12 -41 -55.5 -143.5t-78.5 -159.5q-193 6 -430 6h-317q-44 0 -133 -1t-133 -1l18 47l187 61q40 114 165 596l144 545zM680 1700h12q18 -16 42 -57t28 -66l-2 -10q-12 -25 -56.5 -65.5t-68.5 -49.5h-12q-21 18 -45 56.5t-33 70.5l2 6
q55 74 133 115zM1077 1700h10q16 -16 40 -57t30 -66l-2 -10q-12 -25 -56.5 -65.5t-68.5 -49.5h-10q-22 18 -46.5 56t-33.5 71l2 6q58 78 135 115z" />
    <glyph glyph-name="Igrave" unicode="&#xcc;" horiz-adv-x="675" 
d="M311 1305l19 45q38 0 112.5 -1t112.5 -1q41 0 124.5 1t125.5 1l-17 -45l-153 -62l-143 -541q-55 -209 -99 -390t-47 -208l172 -59l-26 -47q-41 0 -130 1t-135 1q-44 0 -133.5 -1t-138.5 -1l20 47l168 59q24 52 172 598l146 541zM776 1487l-31 -49l-399 143v27
q60 85 117 98z" />
    <glyph glyph-name="Iacute" unicode="&#xcd;" horiz-adv-x="675" 
d="M311 1305l19 45q38 0 112.5 -1t112.5 -1q41 0 124.5 1t125.5 1l-17 -45l-153 -62l-143 -541q-55 -209 -99 -390t-47 -208l172 -59l-26 -47q-41 0 -130 1t-135 1q-44 0 -133.5 -1t-138.5 -1l20 47l168 59q24 52 172 598l146 541zM504 1444l-31 51l315 217q33 -4 71 -32.5
t59 -61.5l-5 -27z" />
    <glyph glyph-name="Icircumflex" unicode="&#xce;" horiz-adv-x="675" 
d="M311 1305l19 45q38 0 112.5 -1t112.5 -1q41 0 124.5 1t125.5 1l-17 -45l-153 -62l-143 -541q-55 -209 -99 -390t-47 -208l172 -59l-26 -47q-41 0 -130 1t-135 1q-44 0 -133.5 -1t-138.5 -1l20 47l168 59q24 52 172 598l146 541zM610 1718h64q37 -38 109 -111t108 -110
l-43 -49q-34 19 -111.5 62.5t-118.5 66.5q-198 -90 -288 -129l-33 51q193 134 313 219z" />
    <glyph glyph-name="Idieresis" unicode="&#xcf;" horiz-adv-x="675" 
d="M311 1305l19 45q38 0 112.5 -1t112.5 -1q41 0 124.5 1t125.5 1l-17 -45l-153 -62l-143 -541q-55 -209 -99 -390t-47 -208l172 -59l-26 -47q-41 0 -130 1t-135 1q-44 0 -133.5 -1t-138.5 -1l20 47l168 59q24 52 172 598l146 541zM451 1700h12q18 -16 41.5 -56.5
t27.5 -66.5l-2 -10q-12 -25 -56 -65.5t-68 -49.5h-13q-21 18 -45 56.5t-33 70.5l2 6q55 74 134 115zM848 1700h10q16 -16 40 -57t30 -66l-2 -10q-12 -25 -56.5 -65.5t-68.5 -49.5h-10q-22 18 -46.5 56t-33.5 71l2 6q58 78 135 115z" />
    <glyph glyph-name="Eth" unicode="&#xd0;" horiz-adv-x="1525" 
d="M170 750h203l133 512l-170 32l20 41q219 25 451 25q323 0 506.5 -150t183.5 -430q0 -139 -47 -263t-131.5 -218t-198.5 -161.5t-250 -102.5q-100 -26 -227 -33.5t-340 -5.5q-290 4 -305 4l20 47l170 51q25 48 162 566h-221zM551 750h389l-51 -86h-361
q-147 -551 -147 -594q194 0 339 26t259 101q162 102 241.5 259t79.5 343q0 197 -98 317q-74 89 -197 128.5t-317 39.5z" />
    <glyph glyph-name="Ntilde" unicode="&#xd1;" horiz-adv-x="1497" 
d="M430 43l-20 -45q-39 0 -121.5 1t-122.5 1q-37 0 -111 -1t-112 -1l16 45l174 70q50 125 311 1044q-11 22 -19 37.5t-19 29t-17.5 21.5t-22 16.5t-24 12.5t-32 10t-37.5 9t-48 10l25 45q55 3 167 7t136 5q6 -45 45 -121q87 -175 263.5 -521t252.5 -499h4q29 112 128.5 514
t123.5 506l-166 66l23 45q41 0 116.5 -1t110.5 -1q40 0 116.5 1t110.5 1l-24 -50l-172 -65q-30 -75 -126 -425t-183 -699l124 -86l-8 -25l-250 -23q-73 135 -542 1080h-4q-72 -265 -151 -575t-89 -371zM1284 1655l39 -41q-59 -85 -116.5 -123.5t-100.5 -38.5q-35 0 -123 45
q-71 39 -106 39q-58 0 -146 -88l-39 45q126 162 219 162q34 0 115 -43q5 -2 24.5 -11.5t26 -12t20 -8t23 -7.5t17.5 -2q56 0 147 84z" />
    <glyph glyph-name="Ograve" unicode="&#xd2;" horiz-adv-x="1513" 
d="M942 1382h2q71 0 142 -18.5t143 -63.5t127 -111.5t89.5 -172.5t35.5 -236q0 -116 -31.5 -231t-97.5 -220.5t-158 -186.5t-222 -129t-280 -48q-81 0 -158 20.5t-148.5 66.5t-125 112.5t-85.5 167.5t-32 223q0 154 59.5 303t162.5 265t254.5 187.5t322.5 71.5zM932 1307h-2
q-107 0 -202.5 -46.5t-165 -125t-120.5 -178.5t-76.5 -208.5t-25.5 -213.5q0 -243 100.5 -370.5t266.5 -127.5q102 0 194.5 47t161 126.5t119.5 180t76.5 211t25.5 217.5q0 125 -28.5 221.5t-78.5 153t-112 85t-133 28.5zM1178 1509l-31 -49l-399 144v26q61 86 116 99z" />
    <glyph glyph-name="Oacute" unicode="&#xd3;" horiz-adv-x="1513" 
d="M942 1382h2q71 0 142 -18.5t143 -63.5t127 -111.5t89.5 -172.5t35.5 -236q0 -116 -31.5 -231t-97.5 -220.5t-158 -186.5t-222 -129t-280 -48q-81 0 -158 20.5t-148.5 66.5t-125 112.5t-85.5 167.5t-32 223q0 154 59.5 303t162.5 265t254.5 187.5t322.5 71.5zM932 1307h-2
q-107 0 -202.5 -46.5t-165 -125t-120.5 -178.5t-76.5 -208.5t-25.5 -213.5q0 -243 100.5 -370.5t266.5 -127.5q102 0 194.5 47t161 126.5t119.5 180t76.5 211t25.5 217.5q0 125 -28.5 221.5t-78.5 153t-112 85t-133 28.5zM879 1458l-31 51l315 217q33 -4 70.5 -32.5
t58.5 -61.5l-4 -26z" />
    <glyph glyph-name="Ocircumflex" unicode="&#xd4;" horiz-adv-x="1513" 
d="M942 1382h2q71 0 142 -18.5t143 -63.5t127 -111.5t89.5 -172.5t35.5 -236q0 -116 -31.5 -231t-97.5 -220.5t-158 -186.5t-222 -129t-280 -48q-81 0 -158 20.5t-148.5 66.5t-125 112.5t-85.5 167.5t-32 223q0 154 59.5 303t162.5 265t254.5 187.5t322.5 71.5zM932 1307h-2
q-107 0 -202.5 -46.5t-165 -125t-120.5 -178.5t-76.5 -208.5t-25.5 -213.5q0 -243 100.5 -370.5t266.5 -127.5q102 0 194.5 47t161 126.5t119.5 180t76.5 211t25.5 217.5q0 125 -28.5 221.5t-78.5 153t-112 85t-133 28.5zM983 1714h64q37 -38 109 -111t108 -110l-43 -49
q-34 19 -111.5 62.5t-118.5 66.5q-184 -84 -289 -129l-32 51q193 134 313 219z" />
    <glyph glyph-name="Otilde" unicode="&#xd5;" horiz-adv-x="1513" 
d="M942 1382h2q71 0 142 -18.5t143 -63.5t127 -111.5t89.5 -172.5t35.5 -236q0 -116 -31.5 -231t-97.5 -220.5t-158 -186.5t-222 -129t-280 -48q-81 0 -158 20.5t-148.5 66.5t-125 112.5t-85.5 167.5t-32 223q0 154 59.5 303t162.5 265t254.5 187.5t322.5 71.5zM932 1307h-2
q-107 0 -202.5 -46.5t-165 -125t-120.5 -178.5t-76.5 -208.5t-25.5 -213.5q0 -243 100.5 -370.5t266.5 -127.5q102 0 194.5 47t161 126.5t119.5 180t76.5 211t25.5 217.5q0 125 -28.5 221.5t-78.5 153t-112 85t-133 28.5zM1282 1683l39 -41q-59 -84 -116.5 -122.5
t-100.5 -38.5q-35 0 -123 45q-71 39 -107 39q-57 0 -145 -88l-39 45q125 161 219 161q34 0 115 -43q5 -2 24.5 -11.5t26 -12t20 -8t23 -7.5t17.5 -2q56 0 147 84z" />
    <glyph glyph-name="Odieresis" unicode="&#xd6;" horiz-adv-x="1513" 
d="M942 1382h2q71 0 142 -18.5t143 -63.5t127 -111.5t89.5 -172.5t35.5 -236q0 -116 -31.5 -231t-97.5 -220.5t-158 -186.5t-222 -129t-280 -48q-81 0 -158 20.5t-148.5 66.5t-125 112.5t-85.5 167.5t-32 223q0 154 59.5 303t162.5 265t254.5 187.5t322.5 71.5zM932 1307h-2
q-107 0 -202.5 -46.5t-165 -125t-120.5 -178.5t-76.5 -208.5t-25.5 -213.5q0 -243 100.5 -370.5t266.5 -127.5q102 0 194.5 47t161 126.5t119.5 180t76.5 211t25.5 217.5q0 125 -28.5 221.5t-78.5 153t-112 85t-133 28.5zM846 1716h12q18 -16 42 -57t28 -66l-2 -10
q-12 -25 -56.5 -65.5t-68.5 -49.5h-13q-21 18 -44.5 56t-32.5 71l2 7q54 73 133 114zM1243 1716h10q16 -16 40 -57t30 -66l-2 -10q-12 -25 -56.5 -65.5t-68.5 -49.5h-10q-22 18 -46.5 56t-33.5 71l2 7q57 76 135 114z" />
    <glyph glyph-name="multiply" unicode="&#xd7;" horiz-adv-x="1236" 
d="M1036 815l-340 -350l336 -340l-71 -88l-345 348l-340 -348l-73 86l336 342l-340 344l75 86l342 -350l349 354z" />
    <glyph glyph-name="Oslash" unicode="&#xd8;" horiz-adv-x="1511" 
d="M1280 1264l131 155l55 -47l-135 -155q148 -158 148 -437q0 -114 -31.5 -228t-97 -220t-157 -187.5t-222 -130.5t-281.5 -49q-94 0 -187 31t-167 92l-162 -188l-49 53l160 184q-142 159 -142 418q0 120 37.5 240.5t109 225t167.5 186t221.5 128.5t261.5 47q195 0 340 -118
zM395 256l795 918q-91 135 -254 135q-108 0 -205 -47.5t-167 -126.5t-122 -179t-78 -208t-26 -211q0 -154 51 -277zM1227 1102l-799 -918q44 -70 115 -108.5t155 -38.5q103 0 197 46.5t163.5 125.5t121 179t78 209.5t26.5 215.5q0 163 -53 285z" />
    <glyph glyph-name="Ugrave" unicode="&#xd9;" horiz-adv-x="1521" 
d="M444 1237l-155 68l24 45q34 0 108 -1t109 -1q32 0 93.5 1t89.5 1l-19 -45l-84 -76q-35 -113 -129 -449t-114 -448q-13 -60 -7 -103t19.5 -70.5t40 -43t54.5 -21.5t63 -6q71 0 145.5 22t130.5 52t112.5 72t87 69.5t58.5 56.5l248 881l-94 64l20 45q51 -2 187 -2
q157 0 235 2l-25 -47l-157 -66q-30 -92 -161 -591.5t-132 -534.5l180 -37l-22 -47q-336 -54 -373 -62l-12 6l82 273h-5q-54 -52 -115 -97.5t-136.5 -88.5t-162.5 -68t-171 -25q-134 0 -209 60q-128 97 -58 356q84 315 254 856zM1157 1487l-31 -49l-399 143v27q60 85 117 98z
" />
    <glyph glyph-name="Uacute" unicode="&#xda;" horiz-adv-x="1521" 
d="M444 1237l-155 68l24 45q34 0 108 -1t109 -1q32 0 93.5 1t89.5 1l-19 -45l-84 -76q-35 -113 -129 -449t-114 -448q-13 -60 -7 -103t19.5 -70.5t40 -43t54.5 -21.5t63 -6q71 0 145.5 22t130.5 52t112.5 72t87 69.5t58.5 56.5l248 881l-94 64l20 45q51 -2 187 -2
q157 0 235 2l-25 -47l-157 -66q-30 -92 -161 -591.5t-132 -534.5l180 -37l-22 -47q-336 -54 -373 -62l-12 6l82 273h-5q-54 -52 -115 -97.5t-136.5 -88.5t-162.5 -68t-171 -25q-134 0 -209 60q-128 97 -58 356q84 315 254 856zM936 1438l-31 51l316 217q33 -4 70.5 -32.5
t58.5 -61.5l-4 -27z" />
    <glyph glyph-name="Ucircumflex" unicode="&#xdb;" horiz-adv-x="1521" 
d="M444 1237l-155 68l24 45q34 0 108 -1t109 -1q32 0 93.5 1t89.5 1l-19 -45l-84 -76q-35 -113 -129 -449t-114 -448q-13 -60 -7 -103t19.5 -70.5t40 -43t54.5 -21.5t63 -6q71 0 145.5 22t130.5 52t112.5 72t87 69.5t58.5 56.5l248 881l-94 64l20 45q51 -2 187 -2
q157 0 235 2l-25 -47l-157 -66q-30 -92 -161 -591.5t-132 -534.5l180 -37l-22 -47q-336 -54 -373 -62l-12 6l82 273h-5q-54 -52 -115 -97.5t-136.5 -88.5t-162.5 -68t-171 -25q-134 0 -209 60q-128 97 -58 356q84 315 254 856zM1042 1708h64q37 -38 109 -111t108 -110
l-43 -49q-35 19 -111.5 62.5t-117.5 66.5q-184 -84 -289 -129l-33 51q193 134 313 219z" />
    <glyph glyph-name="Udieresis" unicode="&#xdc;" horiz-adv-x="1521" 
d="M444 1237l-155 68l24 45q34 0 108 -1t109 -1q32 0 93.5 1t89.5 1l-19 -45l-84 -76q-35 -113 -129 -449t-114 -448q-13 -60 -7 -103t19.5 -70.5t40 -43t54.5 -21.5t63 -6q71 0 145.5 22t130.5 52t112.5 72t87 69.5t58.5 56.5l248 881l-94 64l20 45q51 -2 187 -2
q157 0 235 2l-25 -47l-157 -66q-30 -92 -161 -591.5t-132 -534.5l180 -37l-22 -47q-336 -54 -373 -62l-12 6l82 273h-5q-54 -52 -115 -97.5t-136.5 -88.5t-162.5 -68t-171 -25q-134 0 -209 60q-128 97 -58 356q84 315 254 856zM885 1700h12q18 -16 42 -57t28 -66l-2 -10
q-12 -25 -56.5 -65.5t-68.5 -49.5h-13q-21 18 -44.5 56t-32.5 71l2 6q55 74 133 115zM1282 1700h10q16 -16 40 -57t30 -66l-2 -10q-12 -25 -56.5 -65.5t-68.5 -49.5h-10q-22 18 -46.5 56t-33.5 71l2 6q58 78 135 115z" />
    <glyph glyph-name="Yacute" unicode="&#xdd;" horiz-adv-x="1216" 
d="M217 1307l21 43q30 0 104 -2t111 -2q33 0 98 2t98 2l-18 -47l-78 -48q10 -39 174 -548h4q289 350 418 542l-72 58l21 43q30 0 86 -2t80 -2q35 0 104 2t109 2l-23 -47l-174 -62q-199 -213 -498 -596q-30 -38 -41 -80q-109 -399 -114 -459l221 -63l-21 -45q-56 0 -163.5 1
t-159.5 1q-50 0 -151.5 -1t-151.5 -1l20 43l205 63q41 105 143 476q9 43 -4 90q-97 296 -192 571q-37 18 -156 66zM797 1438l-31 51l315 217q33 -4 70.5 -32.5t58.5 -61.5l-4 -27z" />
    <glyph glyph-name="Thorn" unicode="&#xde;" horiz-adv-x="1146" 
d="M-6 43l151 61q22 56 168 603l144 542l-140 58l19 43q38 0 108 -1t103 -1q46 0 134.5 1t129.5 1l-16 -45l-164 -58l-47 -176q90 8 106 8q97 2 175 -14t141 -54.5t97 -107.5t34 -166q0 -174 -148.5 -296t-370.5 -122q-47 0 -104 19l-12 53q92 -1 171 21t140.5 65.5
t96 114.5t34.5 162q0 252 -287 252q-39 0 -94 -9l-67 -260q-150 -584 -156 -631l172 -61l-16 -47q-43 0 -129.5 1t-128.5 1t-127.5 -1t-128.5 -1z" />
    <glyph glyph-name="germandbls" unicode="&#xdf;" horiz-adv-x="1085" 
d="M135 897h150q48 146 108 252.5t158 185.5q144 117 305 117q127 0 204 -67t77 -195q0 -25 -11 -43q-153 -116 -232 -221t-79 -185q0 -66 80 -211q43 -82 61 -136t17 -105q-2 -54 -29.5 -109.5t-75.5 -102t-121 -75.5t-157 -29q-66 0 -131 23.5t-97 60.5q51 99 99 162l28 6
q16 -46 37 -166q24 -14 72 -14q94 0 157.5 57t65.5 127q3 74 -78 220q-74 142 -77 223q-1 99 74.5 196t242.5 242q12 40 12 74q0 87 -44.5 141.5t-129.5 54.5q-44 0 -83 -14.5t-85.5 -57.5t-87 -114t-82 -193.5t-75.5 -285.5q-10 -45 -51 -237.5t-68 -315.5
q-48 -209 -107 -329.5t-147 -199.5q-67 -61 -134 -91.5t-122 -30.5q-51 0 -93 16.5t-59 46.5l82 139l17 2q27 -47 68.5 -71.5t78.5 -24.5q26 0 48.5 10.5t49.5 40.5t52.5 93.5t48.5 158.5q63 257 192 881l-160 35z" />
    <glyph glyph-name="agrave" unicode="&#xe0;" horiz-adv-x="1089" 
d="M825 907l191 25l6 -19l-78 -98q-56 -175 -110 -382.5t-80 -332.5l4 -2q43 13 82 36.5t73 58.5t48 51.5t40 50.5l13 -21q-8 -109 -118 -205t-257 -96q-25 0 -66 9q12 48 54 198.5t57 208.5h-6q-124 -182 -262 -299t-244 -117q-68 0 -103.5 53t-35.5 146q0 87 34.5 191
t116 222t195.5 203q148 113 299 113q72 0 133 -45zM250 92h2q64 0 167.5 91t217.5 263q54 81 82.5 147.5t66.5 194.5q-40 31 -92 31q-136 0 -258 -133q-111 -120 -171 -262t-60 -248q0 -42 14 -63t31 -21zM774 1038l-55 -24l-203 348l4 20q34 20 79 29t81 4z" />
    <glyph glyph-name="aacute" unicode="&#xe1;" horiz-adv-x="1089" 
d="M825 907l191 25l6 -19l-78 -98q-56 -175 -110 -382.5t-80 -332.5l4 -2q43 13 82 36.5t73 58.5t48 51.5t40 50.5l13 -21q-8 -109 -118 -205t-257 -96q-25 0 -66 9q12 48 54 198.5t57 208.5h-6q-124 -182 -262 -299t-244 -117q-68 0 -103.5 53t-35.5 146q0 87 34.5 191
t116 222t195.5 203q148 113 299 113q72 0 133 -45zM250 92h2q64 0 167.5 91t217.5 263q54 81 82.5 147.5t66.5 194.5q-40 31 -92 31q-136 0 -258 -133q-111 -120 -171 -262t-60 -248q0 -42 14 -63t31 -21zM666 1014l-41 41l229 323q37 4 85 -5.5t77 -26.5v-23z" />
    <glyph glyph-name="acircumflex" unicode="&#xe2;" horiz-adv-x="1089" 
d="M825 907l191 25l6 -19l-78 -98q-56 -175 -110 -382.5t-80 -332.5l4 -2q43 13 82 36.5t73 58.5t48 51.5t40 50.5l13 -21q-8 -109 -118 -205t-257 -96q-25 0 -66 9q12 48 54 198.5t57 208.5h-6q-124 -182 -262 -299t-244 -117q-68 0 -103.5 53t-35.5 146q0 87 34.5 191
t116 222t195.5 203q148 113 299 113q72 0 133 -45zM250 92h2q64 0 167.5 91t217.5 263q54 81 82.5 147.5t66.5 194.5q-40 31 -92 31q-136 0 -258 -133q-111 -120 -171 -262t-60 -248q0 -42 14 -63t31 -21zM739 1401l54 12l125 -352l-58 -37l-129 207l-231 -207l-47 43z" />
    <glyph glyph-name="atilde" unicode="&#xe3;" horiz-adv-x="1089" 
d="M825 907l191 25l6 -19l-78 -98q-56 -175 -110 -382.5t-80 -332.5l4 -2q43 13 82 36.5t73 58.5t48 51.5t40 50.5l13 -21q-8 -109 -118 -205t-257 -96q-25 0 -66 9q12 48 54 198.5t57 208.5h-6q-124 -182 -262 -299t-244 -117q-68 0 -103.5 53t-35.5 146q0 87 34.5 191
t116 222t195.5 203q148 113 299 113q72 0 133 -45zM250 92h2q64 0 167.5 91t217.5 263q54 81 82.5 147.5t66.5 194.5q-40 31 -92 31q-136 0 -258 -133q-111 -120 -171 -262t-60 -248q0 -42 14 -63t31 -21zM1012 1282l39 -37q-59 -83 -111 -121.5t-90 -38.5q-34 0 -119 45
q-75 37 -100 37q-48 0 -133 -88l-43 43q122 158 209 158q35 0 108 -39q72 -41 107 -43q55 0 133 84z" />
    <glyph glyph-name="adieresis" unicode="&#xe4;" horiz-adv-x="1089" 
d="M825 907l191 25l6 -19l-78 -98q-56 -175 -110 -382.5t-80 -332.5l4 -2q43 13 82 36.5t73 58.5t48 51.5t40 50.5l13 -21q-8 -109 -118 -205t-257 -96q-25 0 -66 9q12 48 54 198.5t57 208.5h-6q-124 -182 -262 -299t-244 -117q-68 0 -103.5 53t-35.5 146q0 87 34.5 191
t116 222t195.5 203q148 113 299 113q72 0 133 -45zM250 92h2q64 0 167.5 91t217.5 263q54 81 82.5 147.5t66.5 194.5q-40 31 -92 31q-136 0 -258 -133q-111 -120 -171 -262t-60 -248q0 -42 14 -63t31 -21zM578 1329h8q16 -11 39.5 -51.5t29.5 -65.5l-4 -10
q-10 -25 -53 -63.5t-68 -48.5h-10q-21 19 -44.5 56.5t-31.5 70.5l2 4q31 41 69 69.5t63 38.5zM958 1329h11q15 -12 38 -52.5t29 -64.5l-4 -10q-11 -25 -53.5 -63.5t-65.5 -48.5h-12q-21 19 -44.5 56.5t-31.5 70.5l2 4q32 41 69 70t62 38z" />
    <glyph glyph-name="aring" unicode="&#xe5;" horiz-adv-x="1089" 
d="M825 907l191 25l6 -19l-78 -98q-56 -175 -110 -382.5t-80 -332.5l4 -2q43 13 82 36.5t73 58.5t48 51.5t40 50.5l13 -21q-8 -109 -118 -205t-257 -96q-25 0 -66 9q12 48 54 198.5t57 208.5h-6q-124 -182 -262 -299t-244 -117q-68 0 -103.5 53t-35.5 146q0 87 34.5 191
t116 222t195.5 203q148 113 299 113q72 0 133 -45zM250 92h2q64 0 167.5 91t217.5 263q54 81 82.5 147.5t66.5 194.5q-40 31 -92 31q-136 0 -258 -133q-111 -120 -171 -262t-60 -248q0 -42 14 -63t31 -21zM733 1104h2q41 0 72 25.5t41 78.5q10 54 -12 81.5t-64 27.5
q-41 0 -73 -27.5t-42 -81.5q-9 -53 13 -78.5t63 -25.5zM784 1386h2q72 0 118 -48.5t30 -129.5q-14 -81 -76.5 -128.5t-134.5 -47.5q-74 0 -121 48t-31 128q14 82 77 130t136 48z" />
    <glyph glyph-name="ae" unicode="&#xe6;" horiz-adv-x="1441" 
d="M195 152v-2q0 -72 55 -72q64 0 186 100.5t230 270.5q45 112 97 195t134 149l-4 6q-76 5 -176.5 -25t-196.5 -100q-140 -98 -232.5 -256.5t-92.5 -265.5zM1366 301l10 -68q-88 -125 -205 -192.5t-247 -67.5q-57 0 -105.5 16t-87 49t-61 89.5t-23.5 130.5q0 33 2 47h-6
q-107 -142 -236 -237t-233 -95q-70 0 -107.5 49.5t-37.5 127.5q0 58 22.5 129t67 150.5t123 160.5t178.5 143q125 77 262 107t305 22q106 62 217 62q97 0 152 -55t57 -132q0 -72 -29 -129q-17 -33 -73 -67q-47 -28 -188 -75.5t-296 -68.5q-17 -67 -12 -133q3 -80 45 -134
t127 -54q105 0 202.5 66.5t172.5 158.5h4zM1182 854h-2q-90 0 -190 -110.5t-148 -272.5q125 15 235 53q110 37 148 86q41 57 41 146q0 98 -84 98z" />
    <glyph glyph-name="ccedilla" unicode="&#xe7;" horiz-adv-x="835" 
d="M188 -180l131 151v2q-87 3 -146.5 47.5t-84.5 111t-25 151.5q0 113 51.5 242.5t161.5 234.5q178 164 379 164q60 0 104 -14.5t60 -30.5q-5 -32 -34.5 -110.5t-53.5 -115.5l-35 -16q-15 36 -47 213q-8 4 -31 4q-48 0 -106.5 -31t-110.5 -90q-82 -93 -120.5 -208.5
t-38.5 -225.5q0 -97 41 -155t123 -58q51 0 105.5 21.5t100 56.5t78.5 66.5t58 62.5h2l14 -68q-63 -91 -151.5 -156.5t-196.5 -84.5l-84 -101q96 -51 96 -131q0 -47 -30 -87t-76 -65.5t-90 -41t-82 -21.5l-19 55q55 17 108.5 52.5t53.5 79.5q0 26 -23 47.5t-80 42.5z" />
    <glyph glyph-name="egrave" unicode="&#xe8;" horiz-adv-x="858" 
d="M768 295l10 -68q-83 -121 -197 -187.5t-237 -66.5q-43 0 -81 8.5t-75 30t-63.5 55t-43.5 87t-18 122.5q-1 80 24 169.5t74.5 174t116 153t155.5 110t185 41.5q101 0 156 -56t57 -145q0 -84 -53 -137q-50 -59 -222 -112.5t-304 -76.5q-10 -49 -10 -108q0 -89 40 -147
t128 -58q94 0 192 66t160 145h6zM588 856h-2q-91 0 -184.5 -110.5t-137.5 -276.5q105 21 227.5 63t153.5 89q31 45 31 114q0 57 -25.5 89t-62.5 32zM698 1038l-55 -24l-203 348l4 20q34 20 79 29t81 4z" />
    <glyph glyph-name="eacute" unicode="&#xe9;" horiz-adv-x="858" 
d="M768 295l10 -68q-83 -121 -197 -187.5t-237 -66.5q-43 0 -81 8.5t-75 30t-63.5 55t-43.5 87t-18 122.5q-1 80 24 169.5t74.5 174t116 153t155.5 110t185 41.5q101 0 156 -56t57 -145q0 -84 -53 -137q-50 -59 -222 -112.5t-304 -76.5q-10 -49 -10 -108q0 -89 40 -147
t128 -58q94 0 192 66t160 145h6zM588 856h-2q-91 0 -184.5 -110.5t-137.5 -276.5q105 21 227.5 63t153.5 89q31 45 31 114q0 57 -25.5 89t-62.5 32zM553 1014l-41 41l229 323q37 4 85 -5.5t77 -26.5v-23z" />
    <glyph glyph-name="ecircumflex" unicode="&#xea;" horiz-adv-x="858" 
d="M768 295l10 -68q-83 -121 -197 -187.5t-237 -66.5q-43 0 -81 8.5t-75 30t-63.5 55t-43.5 87t-18 122.5q-1 80 24 169.5t74.5 174t116 153t155.5 110t185 41.5q101 0 156 -56t57 -145q0 -84 -53 -137q-50 -59 -222 -112.5t-304 -76.5q-10 -49 -10 -108q0 -89 40 -147
t128 -58q94 0 192 66t160 145h6zM588 856h-2q-91 0 -184.5 -110.5t-137.5 -276.5q105 21 227.5 63t153.5 89q31 45 31 114q0 57 -25.5 89t-62.5 32zM680 1401l53 12l125 -352l-57 -37l-129 207l-232 -207l-47 43z" />
    <glyph glyph-name="edieresis" unicode="&#xeb;" horiz-adv-x="858" 
d="M768 295l10 -68q-83 -121 -197 -187.5t-237 -66.5q-43 0 -81 8.5t-75 30t-63.5 55t-43.5 87t-18 122.5q-1 80 24 169.5t74.5 174t116 153t155.5 110t185 41.5q101 0 156 -56t57 -145q0 -84 -53 -137q-50 -59 -222 -112.5t-304 -76.5q-10 -49 -10 -108q0 -89 40 -147
t128 -58q94 0 192 66t160 145h6zM588 856h-2q-91 0 -184.5 -110.5t-137.5 -276.5q105 21 227.5 63t153.5 89q31 45 31 114q0 57 -25.5 89t-62.5 32zM502 1329h8q16 -11 40 -51.5t30 -65.5l-5 -10q-10 -25 -52.5 -63.5t-67.5 -48.5h-11q-20 19 -43.5 56.5t-31.5 70.5l2 4
q31 41 69 69.5t62 38.5zM883 1329h10q15 -12 38.5 -52.5t29.5 -64.5l-5 -10q-11 -25 -53 -63.5t-65 -48.5h-13q-20 19 -43.5 56.5t-31.5 70.5l2 4q32 41 69 70t62 38z" />
    <glyph glyph-name="igrave" unicode="&#xec;" horiz-adv-x="593" 
d="M293 778l-133 19l18 41q47 24 150 53.5t161 32.5l3 -6q-197 -646 -252 -846l6 -2q53 13 133.5 88t126.5 137l8 -25q-4 -31 -20 -68.5t-44.5 -78.5t-65.5 -74t-89 -54.5t-109 -21.5q-35 0 -57.5 22t-29 72.5t17.5 131.5q46 173 176 579zM496 1038l-56 -24l-202 348l4 20
q35 20 79 29t80 4z" />
    <glyph glyph-name="iacute" unicode="&#xed;" horiz-adv-x="593" 
d="M293 778l-133 19l18 41q47 24 150 53.5t161 32.5l3 -6q-197 -646 -252 -846l6 -2q53 13 133.5 88t126.5 137l8 -25q-4 -31 -20 -68.5t-44.5 -78.5t-65.5 -74t-89 -54.5t-109 -21.5q-35 0 -57.5 22t-29 72.5t17.5 131.5q46 173 176 579zM383 1014l-41 41l229 323
q37 4 85 -5.5t77 -26.5v-23z" />
    <glyph glyph-name="icircumflex" unicode="&#xee;" horiz-adv-x="593" 
d="M293 778l-133 19l18 41q47 24 150 53.5t161 32.5l3 -6q-197 -646 -252 -846l6 -2q53 13 133.5 88t126.5 137l8 -25q-4 -31 -20 -68.5t-44.5 -78.5t-65.5 -74t-89 -54.5t-109 -21.5q-35 0 -57.5 22t-29 72.5t17.5 131.5q46 173 176 579zM479 1401l53 12l125 -352l-57 -37
l-129 207l-231 -207l-47 43z" />
    <glyph glyph-name="idieresis" unicode="&#xef;" horiz-adv-x="593" 
d="M293 778l-133 19l18 41q47 24 150 53.5t161 32.5l3 -6q-197 -646 -252 -846l6 -2q53 13 133.5 88t126.5 137l8 -25q-4 -31 -20 -68.5t-44.5 -78.5t-65.5 -74t-89 -54.5t-109 -21.5q-35 0 -57.5 22t-29 72.5t17.5 131.5q46 173 176 579zM303 1329h8q16 -11 40 -51.5
t30 -65.5l-4 -10q-10 -25 -53 -63.5t-68 -48.5h-10q-21 19 -44.5 56.5t-31.5 70.5l2 4q31 41 69 69.5t62 38.5zM684 1329h10q15 -12 38.5 -52.5t29.5 -64.5l-4 -10q-11 -25 -53.5 -63.5t-65.5 -48.5h-12q-21 19 -44.5 56.5t-31.5 70.5l2 4q32 41 69 70t62 38z" />
    <glyph glyph-name="eth" unicode="&#xf0;" horiz-adv-x="931" 
d="M350 1067l266 135q-73 115 -233 201l39 47q76 -25 157 -80.5t134 -118.5l227 117l49 -59l-229 -115q131 -182 131 -451q0 -158 -46 -314t-140 -271q-75 -91 -166.5 -138t-186.5 -47q-133 0 -209.5 92.5t-76.5 237.5q-2 111 43.5 228.5t134.5 213.5q90 97 181.5 138
t166.5 41q88 0 143 -47q-11 149 -80 268l-258 -131zM592 856h-2q-78 0 -154 -76q-81 -84 -140.5 -229t-59.5 -299q0 -101 38 -155t97 -54q97 0 178 104q61 79 118.5 241t57.5 335q0 45 -31 84q-49 49 -102 49z" />
    <glyph glyph-name="ntilde" unicode="&#xf1;" horiz-adv-x="1118" 
d="M225 0l-159 -16q37 106 125.5 428.5t91.5 367.5l-138 17l15 41q45 23 160.5 54.5t158.5 33.5l4 -4q-5 -22 -26 -92t-58 -194t-67 -230h6q244 383 493 487q72 31 144 31q45 0 53 -22t-12 -95q-157 -550 -178 -678l186 27l-25 -62q-75 -23 -193.5 -67t-168.5 -66l-14 21
q4 18 107.5 362t123.5 420q11 35 -16 35q-52 0 -136.5 -68.5t-166 -165t-140.5 -192.5q-59 -97 -93 -171t-77 -202zM965 1282l39 -37q-59 -83 -111 -121.5t-90 -38.5q-34 0 -119 45q-75 37 -100 37q-48 0 -133 -88l-43 43q122 158 208 158q36 0 109 -39q73 -41 106 -43
q56 0 134 84z" />
    <glyph glyph-name="ograve" unicode="&#xf2;" horiz-adv-x="978" 
d="M616 924h2q131 0 209 -100t78 -251q0 -148 -72.5 -286.5t-198 -226t-267.5 -87.5q-126 0 -209 90.5t-84 247.5q0 117 44 229t117 196.5t173.5 136t207.5 51.5zM598 856h-2q-71 0 -137.5 -60t-111.5 -150.5t-72 -193.5t-27 -190q0 -114 36 -167.5t97 -53.5q86 0 169 94.5
t132 231t49 262.5q0 107 -33 167t-100 60zM727 1038l-55 -24l-203 348l4 20q34 20 79 29t81 4z" />
    <glyph glyph-name="oacute" unicode="&#xf3;" horiz-adv-x="978" 
d="M616 924h2q131 0 209 -100t78 -251q0 -148 -72.5 -286.5t-198 -226t-267.5 -87.5q-126 0 -209 90.5t-84 247.5q0 117 44 229t117 196.5t173.5 136t207.5 51.5zM598 856h-2q-71 0 -137.5 -60t-111.5 -150.5t-72 -193.5t-27 -190q0 -114 36 -167.5t97 -53.5q86 0 169 94.5
t132 231t49 262.5q0 107 -33 167t-100 60zM588 1014l-41 41l229 323q37 4 85 -5.5t77 -26.5v-23z" />
    <glyph glyph-name="ocircumflex" unicode="&#xf4;" horiz-adv-x="978" 
d="M616 924h2q131 0 209 -100t78 -251q0 -148 -72.5 -286.5t-198 -226t-267.5 -87.5q-126 0 -209 90.5t-84 247.5q0 117 44 229t117 196.5t173.5 136t207.5 51.5zM598 856h-2q-71 0 -137.5 -60t-111.5 -150.5t-72 -193.5t-27 -190q0 -114 36 -167.5t97 -53.5q86 0 169 94.5
t132 231t49 262.5q0 107 -33 167t-100 60zM711 1401l53 12l125 -352l-58 -37l-129 207l-231 -207l-47 43z" />
    <glyph glyph-name="otilde" unicode="&#xf5;" horiz-adv-x="978" 
d="M616 924h2q131 0 209 -100t78 -251q0 -148 -72.5 -286.5t-198 -226t-267.5 -87.5q-126 0 -209 90.5t-84 247.5q0 117 44 229t117 196.5t173.5 136t207.5 51.5zM598 856h-2q-71 0 -137.5 -60t-111.5 -150.5t-72 -193.5t-27 -190q0 -114 36 -167.5t97 -53.5q86 0 169 94.5
t132 231t49 262.5q0 107 -33 167t-100 60zM930 1282l39 -37q-59 -83 -111 -121.5t-90 -38.5q-34 0 -119 45q-75 37 -100 37q-48 0 -133 -88l-43 43q122 158 209 158q35 0 108 -39q72 -41 107 -43q55 0 133 84z" />
    <glyph glyph-name="odieresis" unicode="&#xf6;" horiz-adv-x="978" 
d="M616 924h2q131 0 209 -100t78 -251q0 -148 -72.5 -286.5t-198 -226t-267.5 -87.5q-126 0 -209 90.5t-84 247.5q0 117 44 229t117 196.5t173.5 136t207.5 51.5zM598 856h-2q-71 0 -137.5 -60t-111.5 -150.5t-72 -193.5t-27 -190q0 -114 36 -167.5t97 -53.5q86 0 169 94.5
t132 231t49 262.5q0 107 -33 167t-100 60zM528 1329h9q16 -11 39.5 -51.5t29.5 -65.5l-4 -10q-10 -25 -53 -63.5t-68 -48.5h-10q-21 19 -44.5 56.5t-31.5 70.5l2 4q31 41 69 69.5t62 38.5zM909 1329h11q15 -12 38 -52.5t29 -64.5l-4 -10q-11 -25 -53.5 -63.5t-65.5 -48.5
h-12q-21 19 -44.5 56.5t-31.5 70.5l2 4q32 41 69 70t62 38z" />
    <glyph glyph-name="divide" unicode="&#xf7;" horiz-adv-x="1236" 
d="M170 535h922l-25 -105h-924zM618 289l15 2q18 -8 49 -43t41 -62l-4 -16q-12 -26 -44 -60.5t-54 -46.5l-15 -4q-27 14 -53 45.5t-37 59.5l2 20q61 83 100 105zM625 901l10 2q20 -8 51 -42t41 -62l-2 -17q-11 -24 -44.5 -58.5t-53.5 -45.5l-15 -6q-27 15 -54.5 46t-39.5 60
l4 17q40 59 103 106z" />
    <glyph glyph-name="oslash" unicode="&#xf8;" horiz-adv-x="983" 
d="M788 870l91 115l41 -51l-89 -109q35 -40 55.5 -104t20.5 -137q0 -114 -42 -225t-113 -196t-172.5 -137.5t-212.5 -52.5q-102 0 -177 60l-92 -115l-41 51l86 107q-32 40 -51.5 103t-19.5 130q0 158 75 300.5t201.5 228.5t267.5 86q103 0 172 -54zM246 188l463 590
q-30 78 -113 78q-84 0 -159 -68.5t-120 -170t-66 -217.5t-7 -210zM733 705l-459 -586q37 -78 105 -78q85 0 161 71t121.5 173.5t66.5 216t7 198.5z" />
    <glyph glyph-name="ugrave" unicode="&#xf9;" horiz-adv-x="1148" 
d="M297 774l-158 10l17 47q56 24 163 54.5t175 38.5l14 -4q-48 -128 -126 -387t-101 -351q-11 -50 -7 -68t25 -18q74 0 195 122.5t237 309.5q52 86 84 162t72 201q83 23 190 33l10 -19l-81 -110q-98 -314 -185 -686l4 -3q34 9 68 29t54.5 36t47.5 47t32.5 39t25.5 36
q4 5 6 8l14 -29q-5 -50 -34.5 -102t-77 -96.5t-117.5 -72.5t-148 -28q-9 0 -19.5 1t-23 3t-18.5 3q55 202 145 493h-6q-208 -322 -395 -438q-103 -62 -184 -62q-128 0 -78 189q30 111 97.5 335.5t82.5 276.5zM780 1038l-55 -24l-203 348l4 20q34 20 79 29t81 4z" />
    <glyph glyph-name="uacute" unicode="&#xfa;" horiz-adv-x="1148" 
d="M297 774l-158 10l17 47q56 24 163 54.5t175 38.5l14 -4q-48 -128 -126 -387t-101 -351q-11 -50 -7 -68t25 -18q74 0 195 122.5t237 309.5q52 86 84 162t72 201q83 23 190 33l10 -19l-81 -110q-98 -314 -185 -686l4 -3q34 9 68 29t54.5 36t47.5 47t32.5 39t25.5 36
q4 5 6 8l14 -29q-5 -50 -34.5 -102t-77 -96.5t-117.5 -72.5t-148 -28q-9 0 -19.5 1t-23 3t-18.5 3q55 202 145 493h-6q-208 -322 -395 -438q-103 -62 -184 -62q-128 0 -78 189q30 111 97.5 335.5t82.5 276.5zM676 1014l-41 41l229 323q37 4 85 -5.5t77 -26.5v-23z" />
    <glyph glyph-name="ucircumflex" unicode="&#xfb;" horiz-adv-x="1148" 
d="M297 774l-158 10l17 47q56 24 163 54.5t175 38.5l14 -4q-48 -128 -126 -387t-101 -351q-11 -50 -7 -68t25 -18q74 0 195 122.5t237 309.5q52 86 84 162t72 201q83 23 190 33l10 -19l-81 -110q-98 -314 -185 -686l4 -3q34 9 68 29t54.5 36t47.5 47t32.5 39t25.5 36
q4 5 6 8l14 -29q-5 -50 -34.5 -102t-77 -96.5t-117.5 -72.5t-148 -28q-9 0 -19.5 1t-23 3t-18.5 3q55 202 145 493h-6q-208 -322 -395 -438q-103 -62 -184 -62q-128 0 -78 189q30 111 97.5 335.5t82.5 276.5zM770 1401l53 12l125 -352l-57 -37l-129 207l-232 -207l-47 43z
" />
    <glyph glyph-name="udieresis" unicode="&#xfc;" horiz-adv-x="1148" 
d="M297 774l-158 10l17 47q56 24 163 54.5t175 38.5l14 -4q-48 -128 -126 -387t-101 -351q-11 -50 -7 -68t25 -18q74 0 195 122.5t237 309.5q52 86 84 162t72 201q83 23 190 33l10 -19l-81 -110q-98 -314 -185 -686l4 -3q34 9 68 29t54.5 36t47.5 47t32.5 39t25.5 36
q4 5 6 8l14 -29q-5 -50 -34.5 -102t-77 -96.5t-117.5 -72.5t-148 -28q-9 0 -19.5 1t-23 3t-18.5 3q55 202 145 493h-6q-208 -322 -395 -438q-103 -62 -184 -62q-128 0 -78 189q30 111 97.5 335.5t82.5 276.5zM571 1329h9q16 -11 39.5 -51.5t29.5 -65.5l-4 -10
q-10 -25 -53 -63.5t-68 -48.5h-10q-21 19 -44.5 56.5t-31.5 70.5l2 4q31 41 69 69.5t62 38.5zM952 1329h11q15 -12 38 -52.5t29 -64.5l-4 -10q-11 -25 -53.5 -63.5t-65.5 -48.5h-12q-21 19 -44.5 56.5t-31.5 70.5l2 4q32 41 69 70t62 38z" />
    <glyph glyph-name="yacute" unicode="&#xfd;" horiz-adv-x="911" 
d="M117 569l-47 45q29 91 66.5 156.5t73.5 96.5t64 44.5t52 14.5q98 -8 145 -215q50 -212 43 -570h6q79 123 158.5 328.5t85.5 306.5l-62 88l11 21q76 37 170 41q12 0 19.5 -6t6.5 -17q-14 -92 -41.5 -176t-83.5 -219q-147 -356 -381 -658q-65 -84 -134 -153t-120 -106.5
t-87 -57.5t-50 -20q-13 0 -32 15t-44 57.5t-38 103.5l6 20q60 -5 198 -51q24 12 82.5 63.5t104.5 114.5q46 67 67 140.5t21 183.5q-2 158 -22 310.5t-54 244.5q-23 67 -41 67q-15 0 -60 -63.5t-83 -149.5zM557 1014l-41 41l229 323q37 4 85 -5.5t77 -26.5v-23z" />
    <glyph glyph-name="thorn" unicode="&#xfe;" horiz-adv-x="1044" 
d="M260 1343l16 41q59 23 165.5 42.5t156.5 19.5l2 -4q-52 -174 -270 -926h4q277 408 502 408q71 0 116 -65.5t45 -166.5q0 -176 -87.5 -343t-230.5 -271.5t-296 -104.5q-46 0 -95 15.5t-79 40.5q-33 -114 -98 -385l194 -43l-20 -50q-396 -24 -496 -24l21 51l127 57
q21 55 73.5 245t119 439.5t87.5 325.5q126 452 184 672zM743 813h-2q-20 0 -45.5 -11t-67 -41t-100 -97t-125.5 -164q-107 -156 -172 -385q57 -68 144 -68q96 0 183 65.5t143.5 163t89 206.5t30.5 200q-3 131 -78 131z" />
    <glyph glyph-name="ydieresis" unicode="&#xff;" horiz-adv-x="911" 
d="M117 569l-47 45q29 91 66.5 156.5t73.5 96.5t64 44.5t52 14.5q98 -8 145 -215q50 -212 43 -570h6q79 123 158.5 328.5t85.5 306.5l-62 88l11 21q76 37 170 41q12 0 19.5 -6t6.5 -17q-14 -92 -41.5 -176t-83.5 -219q-147 -356 -381 -658q-65 -84 -134 -153t-120 -106.5
t-87 -57.5t-50 -20q-13 0 -32 15t-44 57.5t-38 103.5l6 20q60 -5 198 -51q24 12 82.5 63.5t104.5 114.5q46 67 67 140.5t21 183.5q-2 158 -22 310.5t-54 244.5q-23 67 -41 67q-15 0 -60 -63.5t-83 -149.5zM432 1329h8q16 -11 40 -51.5t30 -65.5l-4 -10q-10 -25 -53 -63.5
t-68 -48.5h-10q-21 19 -44.5 56.5t-31.5 70.5l2 4q31 41 69 69.5t62 38.5zM813 1329h10q15 -12 38.5 -52.5t29.5 -64.5l-4 -10q-11 -25 -53.5 -63.5t-65.5 -48.5h-12q-21 19 -44.5 56.5t-31.5 70.5l2 4q32 41 69 70t62 38z" />
    <glyph glyph-name="Amacron" unicode="&#x100;" horiz-adv-x="1386" 
d="M807 1292l162 99l12 -11q-15 -55 -10 -145q6 -124 125 -1063q20 -57 49 -77t121 -46l-17 -51q-38 0 -113.5 1t-113.5 1q-34 0 -106 -1t-109 -1l10 41l103 57q-2 36 -7.5 89t-15.5 143.5t-16 154.5q-158 -14 -461 -10q-169 -266 -223 -360l170 -68l-15 -47q-40 0 -122.5 1
t-123.5 1q-35 0 -104 -1t-104 -1l16 47l149 66q42 54 150 216.5t304.5 464t273.5 418.5q18 30 18 56zM819 1112h-6q-80 -129 -151 -244t-108.5 -175t-74.5 -120q40 0 195 -4t200 -4q-3 30 -55 547zM1159 1477h-479l47 112h479z" />
    <glyph glyph-name="amacron" unicode="&#x101;" horiz-adv-x="1089" 
d="M825 907l191 25l6 -19l-78 -98q-56 -175 -110 -382.5t-80 -332.5l4 -2q43 13 82 36.5t73 58.5t48 51.5t40 50.5l13 -21q-8 -109 -118 -205t-257 -96q-25 0 -66 9q12 48 54 198.5t57 208.5h-6q-124 -182 -262 -299t-244 -117q-68 0 -103.5 53t-35.5 146q0 87 34.5 191
t116 222t195.5 203q148 113 299 113q72 0 133 -45zM250 92h2q64 0 167.5 91t217.5 263q54 81 82.5 147.5t66.5 194.5q-40 31 -92 31q-136 0 -258 -133q-111 -120 -171 -262t-60 -248q0 -42 14 -63t31 -21zM926 1133h-439l45 110h439z" />
    <glyph glyph-name="Abreve" unicode="&#x102;" horiz-adv-x="1386" 
d="M807 1292l162 99l12 -11q-15 -55 -10 -145q6 -124 125 -1063q20 -57 49 -77t121 -46l-17 -51q-38 0 -113.5 1t-113.5 1q-34 0 -106 -1t-109 -1l10 41l103 57q-2 36 -7.5 89t-15.5 143.5t-16 154.5q-158 -14 -461 -10q-169 -266 -223 -360l170 -68l-15 -47q-40 0 -122.5 1
t-123.5 1q-35 0 -104 -1t-104 -1l16 47l149 66q42 54 150 216.5t304.5 464t273.5 418.5q18 30 18 56zM819 1112h-6q-80 -129 -151 -244t-108.5 -175t-74.5 -120q40 0 195 -4t200 -4q-3 30 -55 547zM915 1454h-2q-113 0 -155.5 69.5t-14.5 176.5l62 14q-2 -26 3 -48t18.5 -44
t43.5 -34.5t74 -12.5q140 0 207 127l70 10q-31 -119 -107.5 -188.5t-198.5 -69.5z" />
    <glyph glyph-name="abreve" unicode="&#x103;" horiz-adv-x="1089" 
d="M825 907l191 25l6 -19l-78 -98q-56 -175 -110 -382.5t-80 -332.5l4 -2q43 13 82 36.5t73 58.5t48 51.5t40 50.5l13 -21q-8 -109 -118 -205t-257 -96q-25 0 -66 9q12 48 54 198.5t57 208.5h-6q-124 -182 -262 -299t-244 -117q-68 0 -103.5 53t-35.5 146q0 87 34.5 191
t116 222t195.5 203q148 113 299 113q72 0 133 -45zM250 92h2q64 0 167.5 91t217.5 263q54 81 82.5 147.5t66.5 194.5q-40 31 -92 31q-136 0 -258 -133q-111 -120 -171 -262t-60 -248q0 -42 14 -63t31 -21zM535 1339l67 9q-9 -164 109 -164q41 0 73.5 14.5t55.5 43.5
t33.5 46.5t25.5 50.5l66 9q-55 -287 -271 -287q-61 0 -101 23.5t-54 62t-16 88.5t12 104z" />
    <glyph glyph-name="Aogonek" unicode="&#x104;" horiz-adv-x="1386" 
d="M819 1112h-6q-80 -129 -151 -244t-108.5 -175t-74.5 -120q40 0 195 -4t200 -4q-3 30 -55 547zM918 -242l16 -51q-91 -98 -205 -98q-67 0 -108 37t-41 96q0 50 30.5 100.5t87 97.5t106 80t116.5 72q-2 36 -7 89.5t-15.5 146.5t-16.5 155q-158 -14 -461 -10
q-169 -266 -223 -360l170 -68l-15 -47q-41 0 -122.5 1t-123.5 1q-34 0 -103.5 -1t-104.5 -1l16 47l149 66q42 54 150 216.5t304.5 464t273.5 418.5q18 30 18 56l-2 26l162 99l12 -11q-15 -55 -10 -145q6 -124 125 -1063q20 -57 49 -77t121 -46l-17 -51q-38 0 -113.5 1
t-113.5 1h-119q-90 -68 -139 -121.5t-49 -97.5q0 -28 19 -44t54 -16q54 0 130 37z" />
    <glyph glyph-name="aogonek" unicode="&#x105;" horiz-adv-x="1089" 
d="M250 92h2q64 0 167.5 91t217.5 263q54 81 82.5 147.5t66.5 194.5q-40 31 -92 31q-136 0 -258 -133q-111 -119 -171 -262t-60 -248q0 -42 14 -63t31 -21zM666 -242l14 -51q-91 -98 -205 -98q-68 0 -108.5 36.5t-40.5 94.5q0 75 69 139.5t189 132.5q21 82 100 375h-6
q-124 -181 -262 -297.5t-244 -116.5q-68 0 -103.5 52.5t-35.5 146.5q0 87 34.5 191t116 222t195.5 203q148 113 299 113q72 0 133 -45l14 51l191 25l6 -19l-78 -98q-56 -175 -110 -382.5t-80 -332.5l4 -2q43 12 82 35.5t72 57t49.5 53.5t39.5 51l13 -21q-7 -81 -64 -152.5
t-145.5 -112t-181.5 -36.5q-77 -64 -119.5 -112t-42.5 -84q0 -53 76 -53q50 0 129 34z" />
    <glyph glyph-name="Cacute" unicode="&#x106;" horiz-adv-x="1366" 
d="M1264 324l24 -50q-92 -155 -184 -243q-185 -68 -350 -68q-180 0 -317 70t-214.5 205t-77.5 317q0 168 67 320.5t181.5 264.5t277 178t343.5 66q96 0 170 -22t108 -53q55 28 158 49l12 -15q-21 -65 -70.5 -176t-70.5 -143l-35 -10q-16 97 -20 225q-75 57 -234 57
q-197 0 -355 -99.5t-244.5 -267t-86.5 -368.5q0 -229 124.5 -367.5t350.5 -138.5q57 0 133 15q24 20 78.5 66.5t83.5 71t71.5 58t76.5 58.5zM922 1475l-31 51l315 217q33 -4 70.5 -32.5t58.5 -61.5l-4 -27z" />
    <glyph glyph-name="cacute" unicode="&#x107;" horiz-adv-x="835" 
d="M750 291l14 -66q-76 -109 -185.5 -180.5t-246.5 -71.5q-91 0 -153.5 44t-89 111.5t-26.5 154.5q0 115 51.5 243t159.5 230q176 168 381 168q59 0 104 -15t60 -30q-5 -33 -34.5 -112t-53.5 -114l-35 -18q-13 29 -47 217q-6 2 -26 2q-52 0 -111.5 -32t-114.5 -95
q-79 -93 -117 -206.5t-38 -221.5q0 -98 41 -155.5t123 -57.5q51 0 105 21.5t98.5 56t77.5 66t58 63.5zM561 1014l-41 41l230 323q36 4 84 -5.5t77 -26.5v-23z" />
    <glyph glyph-name="Ccircumflex" unicode="&#x108;" horiz-adv-x="1366" 
d="M1264 324l24 -50q-92 -155 -184 -243q-185 -68 -350 -68q-180 0 -317 70t-214.5 205t-77.5 317q0 168 67 320.5t181.5 264.5t277 178t343.5 66q96 0 170 -22t108 -53q55 28 158 49l12 -15q-21 -65 -70.5 -176t-70.5 -143l-35 -10q-16 97 -20 225q-75 57 -234 57
q-197 0 -355 -99.5t-244.5 -267t-86.5 -368.5q0 -229 124.5 -367.5t350.5 -138.5q57 0 133 15q24 20 78.5 66.5t83.5 71t71.5 58t76.5 58.5zM1012 1729h63q36 -37 108 -110.5t109 -111.5l-43 -49q-35 19 -111.5 62.5t-117.5 66.5q-184 -84 -289 -129l-33 51q178 123 314 220
z" />
    <glyph glyph-name="ccircumflex" unicode="&#x109;" horiz-adv-x="835" 
d="M750 291l14 -66q-76 -109 -185.5 -180.5t-246.5 -71.5q-91 0 -153.5 44t-89 111.5t-26.5 154.5q0 115 51.5 243t159.5 230q176 168 381 168q59 0 104 -15t60 -30q-5 -33 -34.5 -112t-53.5 -114l-35 -18q-13 29 -47 217q-6 2 -26 2q-52 0 -111.5 -32t-114.5 -95
q-79 -93 -117 -206.5t-38 -221.5q0 -98 41 -155.5t123 -57.5q51 0 105 21.5t98.5 56t77.5 66t58 63.5zM680 1401l53 12l125 -352l-57 -37l-129 207l-232 -207l-47 43z" />
    <glyph glyph-name="Cdotaccent" unicode="&#x10a;" horiz-adv-x="1366" 
d="M1264 324l24 -50q-92 -155 -184 -243q-185 -68 -350 -68q-180 0 -317 70t-214.5 205t-77.5 317q0 168 67 320.5t181.5 264.5t277 178t343.5 66q96 0 170 -22t108 -53q55 28 158 49l12 -15q-21 -65 -70.5 -176t-70.5 -143l-35 -10q-16 97 -20 225q-75 57 -234 57
q-197 0 -355 -99.5t-244.5 -267t-86.5 -368.5q0 -229 124.5 -367.5t350.5 -138.5q57 0 133 15q24 20 78.5 66.5t83.5 71t71.5 58t76.5 58.5zM1057 1720h10q17 -15 40.5 -56t29.5 -67l-2 -10q-12 -25 -56 -65t-69 -49h-13q-21 18 -44.5 55.5t-32.5 70.5l2 7q31 42 69.5 72
t65.5 42z" />
    <glyph glyph-name="cdotaccent" unicode="&#x10b;" horiz-adv-x="835" 
d="M750 291l14 -66q-76 -109 -185.5 -180.5t-246.5 -71.5q-91 0 -153.5 44t-89 111.5t-26.5 154.5q0 115 51.5 243t159.5 230q176 168 381 168q59 0 104 -15t60 -30q-5 -33 -34.5 -112t-53.5 -114l-35 -18q-13 29 -47 217q-6 2 -26 2q-52 0 -111.5 -32t-114.5 -95
q-79 -93 -117 -206.5t-38 -221.5q0 -98 41 -155.5t123 -57.5q51 0 105 21.5t98.5 56t77.5 66t58 63.5zM674 1333h12q16 -14 37.5 -56t24.5 -67l-3 -10q-13 -25 -58 -65.5t-69 -49.5h-10q-20 17 -41 55t-30 74l2 7q33 42 72 72t63 40z" />
    <glyph glyph-name="Ccaron" unicode="&#x10c;" horiz-adv-x="1366" 
d="M1264 324l24 -50q-92 -155 -184 -243q-185 -68 -350 -68q-180 0 -317 70t-214.5 205t-77.5 317q0 168 67 320.5t181.5 264.5t277 178t343.5 66q96 0 170 -22t108 -53q55 28 158 49l12 -15q-21 -65 -70.5 -176t-70.5 -143l-35 -10q-16 97 -20 225q-75 57 -234 57
q-197 0 -355 -99.5t-244.5 -267t-86.5 -368.5q0 -229 124.5 -367.5t350.5 -138.5q57 0 133 15q24 20 78.5 66.5t83.5 71t71.5 58t76.5 58.5zM1047 1473h-64q-70 78 -213 225l43 45q122 -68 223 -129q134 63 289 129l33 -49q-252 -178 -311 -221z" />
    <glyph glyph-name="ccaron" unicode="&#x10d;" horiz-adv-x="835" 
d="M750 291l14 -66q-76 -109 -185.5 -180.5t-246.5 -71.5q-91 0 -153.5 44t-89 111.5t-26.5 154.5q0 115 51.5 243t159.5 230q176 168 381 168q59 0 104 -15t60 -30q-5 -33 -34.5 -112t-53.5 -114l-35 -18q-13 29 -47 217q-6 2 -26 2q-52 0 -111.5 -32t-114.5 -95
q-79 -93 -117 -206.5t-38 -221.5q0 -98 41 -155.5t123 -57.5q51 0 105 21.5t98.5 56t77.5 66t58 63.5zM641 1038l-55 -12l-121 352l51 35l131 -205l236 205l43 -41z" />
    <glyph glyph-name="Dcaron" unicode="&#x10e;" horiz-adv-x="1478" 
d="M287 1292l22 43q219 25 432 25q341 0 526 -152.5t185 -435.5q0 -184 -82.5 -337t-222 -253t-320.5 -147q-105 -26 -237 -33.5t-352 -5.5q-208 4 -285 4l20 47l172 51q16 36 168 602l148 560zM643 1282l-149 -582q-152 -584 -158 -630q200 2 343.5 26.5t258.5 96.5
q162 103 239.5 262t77.5 346q0 193 -96 309q-146 175 -516 172zM899 1448h-63q-70 78 -213 225l43 45q122 -68 223 -129q134 63 289 129l32 -49q-252 -178 -311 -221z" />
    <glyph glyph-name="dcaron" unicode="&#x10f;" horiz-adv-x="1114" 
d="M811 1346l23 38q57 24 160.5 45t160.5 21l4 -4q-42 -134 -103 -339t-148 -517t-122 -477l5 -4q37 13 71.5 34.5t62 48t46 46.5t37 44.5t20.5 26.5l16 -18q-15 -124 -128.5 -221t-247.5 -97q-28 0 -68 9q2 8 117 415h-6q-131 -195 -266 -309.5t-250 -114.5
q-65 0 -108.5 59t-43.5 165q0 126 56 259t143.5 235t201.5 167.5t222 65.5q90 0 165 -62q118 423 127 457zM682 836h-2q-111 0 -221 -105.5t-176 -254t-66 -277.5q0 -52 17.5 -79.5t46.5 -27.5q58 0 159 84t207 248q61 92 91.5 160.5t72.5 206.5q-58 45 -129 45zM1229 1161
l-31 43q99 74 109 137q6 38 -15 62l-37 31l5 30l110 62h23q53 -33 47 -129q-5 -71 -63 -137t-148 -99z" />
    <glyph glyph-name="Dcroat" unicode="&#x110;" horiz-adv-x="1525" 
d="M170 750h203l133 512l-170 32l20 41q219 25 451 25q323 0 506.5 -150t183.5 -430q0 -139 -47 -263t-131.5 -218t-198.5 -161.5t-250 -102.5q-100 -26 -227 -33.5t-340 -5.5q-290 4 -305 4l20 47l170 51q25 48 162 566h-221zM551 750h389l-51 -86h-361
q-147 -551 -147 -594q194 0 339 26t259 101q162 102 241.5 259t79.5 343q0 197 -98 317q-74 89 -197 128.5t-317 39.5z" />
    <glyph glyph-name="dcroat" unicode="&#x111;" horiz-adv-x="1122" 
d="M674 1161h246q16 53 43 158l-148 29l23 38q58 23 161.5 43.5t159.5 20.5l4 -2q-24 -89 -86 -287h156l-33 -74h-145q-210 -731 -267 -978h5q31 11 61 30t51.5 37t44 42t34.5 39t26 34.5t16 21.5l18 -20q-12 -125 -121.5 -222.5t-246.5 -97.5q-35 0 -72 11q15 56 115 403
h-6q-128 -188 -263 -301t-253 -113q-65 0 -109.5 59t-44.5 165q0 102 35.5 209t98 198t140.5 164t169 114.5t178 41.5q100 0 172 -60q30 92 63 223h-260zM684 838h-2q-84 0 -170.5 -63.5t-150 -158.5t-104 -209t-40.5 -212q0 -53 18 -79t48 -26q58 0 161 85.5t209 248.5
q61 91 91.5 160.5t70.5 206.5q-50 47 -131 47z" />
    <glyph glyph-name="Emacron" unicode="&#x112;" horiz-adv-x="1169" 
d="M283 1307l20 43q43 0 124 -1t120 -1h506q103 21 159 18l9 -8q-10 -40 -42.5 -148t-52.5 -155l-30 -13q-11 35 -30 122.5t-24 107.5l-405 -17l-131 -510q335 0 520 23l8 -25q-13 -17 -71.5 -61.5t-67.5 -44.5q-7 0 -193 9t-223 9q-116 -456 -139 -557l475 -24
q30 29 116 114t132 127l29 -18q-12 -41 -55.5 -143.5t-78.5 -159.5q-193 6 -430 6h-317q-44 0 -133 -1t-133 -1l18 47l187 61q40 114 165 596l144 545zM1061 1497h-479l47 113h479z" />
    <glyph glyph-name="emacron" unicode="&#x113;" horiz-adv-x="858" 
d="M768 295l10 -68q-83 -121 -197 -187.5t-237 -66.5q-43 0 -81 8.5t-75 30t-63.5 55t-43.5 87t-18 122.5q-1 80 24 169.5t74.5 174t116 153t155.5 110t185 41.5q101 0 156 -56t57 -145q0 -84 -53 -137q-50 -59 -222 -112.5t-304 -76.5q-10 -49 -10 -108q0 -89 40 -147
t128 -58q94 0 192 66t160 145h6zM588 856h-2q-91 0 -184.5 -110.5t-137.5 -276.5q105 21 227.5 63t153.5 89q31 45 31 114q0 57 -25.5 89t-62.5 32zM834 1133h-439l45 110h439z" />
    <glyph glyph-name="Ebreve" unicode="&#x114;" horiz-adv-x="1169" 
d="M283 1307l20 43q43 0 124 -1t120 -1h506q103 21 159 18l9 -8q-10 -40 -42.5 -148t-52.5 -155l-30 -13q-11 35 -30 122.5t-24 107.5l-405 -17l-131 -510q335 0 520 23l8 -25q-13 -17 -71.5 -61.5t-67.5 -44.5q-7 0 -193 9t-223 9q-116 -456 -139 -557l475 -24
q30 29 116 114t132 127l29 -18q-12 -41 -55.5 -143.5t-78.5 -159.5q-193 6 -430 6h-317q-44 0 -133 -1t-133 -1l18 47l187 61q40 114 165 596l144 545zM817 1444h-2q-113 0 -155.5 69.5t-14.5 176.5l62 14q-2 -26 3 -48t18.5 -44t43.5 -34.5t74 -12.5q140 0 207 127l69 10
q-31 -119 -107 -188.5t-198 -69.5z" />
    <glyph glyph-name="ebreve" unicode="&#x115;" horiz-adv-x="858" 
d="M768 295l10 -68q-83 -121 -197 -187.5t-237 -66.5q-43 0 -81 8.5t-75 30t-63.5 55t-43.5 87t-18 122.5q-1 80 24 169.5t74.5 174t116 153t155.5 110t185 41.5q101 0 156 -56t57 -145q0 -84 -53 -137q-50 -59 -222 -112.5t-304 -76.5q-10 -49 -10 -108q0 -89 40 -147
t128 -58q94 0 192 66t160 145h6zM588 856h-2q-91 0 -184.5 -110.5t-137.5 -276.5q105 21 227.5 63t153.5 89q31 45 31 114q0 57 -25.5 89t-62.5 32zM446 1339l68 9q-9 -164 109 -164q41 0 73.5 14.5t55.5 43.5t33.5 46.5t25.5 50.5l66 9q-55 -287 -271 -287q-61 0 -101 23.5
t-54.5 62t-16.5 88.5t12 104z" />
    <glyph glyph-name="Edotaccent" unicode="&#x116;" horiz-adv-x="1169" 
d="M283 1307l20 43q43 0 124 -1t120 -1h506q103 21 159 18l9 -8q-10 -40 -42.5 -148t-52.5 -155l-30 -13q-11 35 -30 122.5t-24 107.5l-405 -17l-131 -510q335 0 520 23l8 -25q-13 -17 -71.5 -61.5t-67.5 -44.5q-7 0 -193 9t-223 9q-116 -456 -139 -557l475 -24
q30 29 116 114t132 127l29 -18q-12 -41 -55.5 -143.5t-78.5 -159.5q-193 6 -430 6h-317q-44 0 -133 -1t-133 -1l18 47l187 61q40 114 165 596l144 545zM877 1698h10q17 -15 40 -56t29 -67l-2 -10q-12 -25 -56.5 -65.5t-68.5 -49.5h-12q-21 18 -45 56.5t-33 70.5l2 6
q31 42 70 72.5t66 42.5z" />
    <glyph glyph-name="edotaccent" unicode="&#x117;" horiz-adv-x="858" 
d="M768 295l10 -68q-83 -121 -197 -187.5t-237 -66.5q-43 0 -81 8.5t-75 30t-63.5 55t-43.5 87t-18 122.5q-1 80 24 169.5t74.5 174t116 153t155.5 110t185 41.5q101 0 156 -56t57 -145q0 -84 -53 -137q-50 -59 -222 -112.5t-304 -76.5q-10 -49 -10 -108q0 -89 40 -147
t128 -58q94 0 192 66t160 145h6zM588 856h-2q-91 0 -184.5 -110.5t-137.5 -276.5q105 21 227.5 63t153.5 89q31 45 31 114q0 57 -25.5 89t-62.5 32zM670 1333h12q16 -14 37 -56t24 -67l-2 -10q-13 -25 -58 -65.5t-69 -49.5h-10q-20 17 -41.5 55.5t-30.5 73.5l3 7
q33 42 72 72t63 40z" />
    <glyph glyph-name="Eogonek" unicode="&#x118;" horiz-adv-x="1169" 
d="M809 -240l16 -53q-91 -98 -204 -98q-68 0 -109 37t-41 94q0 68 67.5 131.5t180.5 128.5h-189h-319q-44 0 -132.5 -1t-133.5 -1l18 47l187 61q23 52 165 596l144 545l-176 60l22 43q41 0 121.5 -1t120.5 -1h502q116 20 165 18l9 -8q-2 -5 -14.5 -50.5t-25 -88t-28.5 -91.5
t-27 -73l-26 -13q-10 25 -21.5 64t-26 98t-16.5 68l-401 -17l-131 -510q357 0 522 23l6 -27q-12 -15 -70.5 -59.5t-66.5 -44.5q-7 0 -194 8t-224 8q-120 -469 -139 -555l477 -20q25 23 78 74.5t94 90.5t78 72l27 -16q-17 -49 -59 -148t-77 -155q-26 1 -76.5 2t-74.5 2
q-201 -153 -201 -219q0 -57 76 -57q60 0 127 36z" />
    <glyph glyph-name="eogonek" unicode="&#x119;" horiz-adv-x="858" 
d="M588 856h-2q-91 0 -184.5 -110.5t-137.5 -276.5q105 21 227.5 63t153.5 89q31 45 31 114q0 57 -25.5 89t-62.5 32zM500 -240l16 -53q-91 -98 -203 -98q-68 0 -109.5 37.5t-41.5 95.5q0 59 49 115t141 116h-12q-54 1 -100 16t-87 48t-65 94t-25 145q-1 80 24 169.5
t74.5 174t116 153t155.5 110t185 41.5q101 0 156 -56t57 -145q0 -84 -53 -137q-50 -59 -222 -112.5t-304 -76.5q-10 -49 -10 -108q0 -89 40 -147t128 -58q94 0 192 66t160 145h6l10 -68q-122 -178 -303 -233q-178 -149 -178 -213q0 -57 76 -57q60 0 127 36z" />
    <glyph glyph-name="Ecaron" unicode="&#x11a;" horiz-adv-x="1169" 
d="M283 1307l20 43q43 0 124 -1t120 -1h506q103 21 159 18l9 -8q-10 -40 -42.5 -148t-52.5 -155l-30 -13q-11 35 -30 122.5t-24 107.5l-405 -17l-131 -510q335 0 520 23l8 -25q-13 -17 -71.5 -61.5t-67.5 -44.5q-7 0 -193 9t-223 9q-116 -456 -139 -557l475 -24
q30 29 116 114t132 127l29 -18q-12 -41 -55.5 -143.5t-78.5 -159.5q-193 6 -430 6h-317q-44 0 -133 -1t-133 -1l18 47l187 61q40 114 165 596l144 545zM842 1436h-64q-70 78 -213 225l43 45q122 -68 223 -129q134 63 289 129l33 -49q-252 -178 -311 -221z" />
    <glyph glyph-name="ecaron" unicode="&#x11b;" horiz-adv-x="858" 
d="M768 295l10 -68q-83 -121 -197 -187.5t-237 -66.5q-43 0 -81 8.5t-75 30t-63.5 55t-43.5 87t-18 122.5q-1 80 24 169.5t74.5 174t116 153t155.5 110t185 41.5q101 0 156 -56t57 -145q0 -84 -53 -137q-50 -59 -222 -112.5t-304 -76.5q-10 -49 -10 -108q0 -89 40 -147
t128 -58q94 0 192 66t160 145h6zM588 856h-2q-91 0 -184.5 -110.5t-137.5 -276.5q105 21 227.5 63t153.5 89q31 45 31 114q0 57 -25.5 89t-62.5 32zM612 1038l-55 -12l-121 352l51 35l131 -205l236 205l43 -41z" />
    <glyph glyph-name="Gcircumflex" unicode="&#x11c;" horiz-adv-x="1492" 
d="M1135 -39h-9q-42 13 -62 29t-28 39q-128 -64 -295 -64q-274 0 -436 164.5t-162 421.5q0 169 65 321t179 264.5t281.5 179t361.5 66.5q96 0 178 -26t121 -60q48 24 166 56l8 -15q-14 -49 -66 -171.5t-75 -164.5l-33 -8q-17 98 -24 230q-94 71 -269 71q-125 0 -236 -39
t-193.5 -108.5t-143 -161t-91 -198.5t-30.5 -220q0 -236 130 -371t353 -135q130 0 217 37q27 81 78.5 226.5t75.5 214.5l-463 8l-2 24l96 62q205 14 600 14q-34 -116 -149.5 -385t-142.5 -301zM1047 1729h63q36 -37 108 -110.5t109 -111.5l-43 -49q-35 19 -111.5 62.5
t-117.5 66.5q-184 -84 -289 -129l-33 51q178 123 314 220z" />
    <glyph glyph-name="gcircumflex" unicode="&#x11d;" horiz-adv-x="858" 
d="M979 950l-84 -139l-160 -8l-2 -4q41 -73 41 -146q0 -108 -52 -205.5t-149.5 -160t-218.5 -62.5q-44 0 -71 15q-28 -32 -25 -60q0 -45 68 -78q12 -6 65.5 -30.5t111.5 -51.5t107 -51q144 -73 144 -164q-1 -65 -48 -123.5t-116.5 -95t-144.5 -57.5t-136 -21
q-101 0 -182 21.5t-127.5 53t-77.5 70.5t-42 69.5t-11 54.5q0 37 35 65q101 76 284 164v2q-24 22 -41.5 55.5t-17.5 65.5q0 44 102 131q-120 70 -120 227q0 111 59 213.5t163.5 165.5t225.5 58q23 -2 100 -13q103 -23 144 -28l160 88zM524 856h-2q-65 0 -127 -67.5
t-97.5 -165t-35.5 -187.5q0 -72 27.5 -108.5t72.5 -36.5q69 0 131.5 69t97 165t34.5 182q0 71 -27 110t-74 39zM356 -406h6q110 0 177 42.5t67 99.5q0 27 -17.5 48t-64.5 48q-152 85 -284 141q-121 -67 -168 -107t-47 -75q0 -67 94 -132t237 -65zM641 1401l53 12l125 -352
l-57 -37l-129 207l-232 -207l-47 43z" />
    <glyph glyph-name="Gbreve" unicode="&#x11e;" horiz-adv-x="1492" 
d="M1135 -39h-9q-42 13 -62 29t-28 39q-128 -64 -295 -64q-274 0 -436 164.5t-162 421.5q0 169 65 321t179 264.5t281.5 179t361.5 66.5q96 0 178 -26t121 -60q48 24 166 56l8 -15q-14 -49 -66 -171.5t-75 -164.5l-33 -8q-17 98 -24 230q-94 71 -269 71q-125 0 -236 -39
t-193.5 -108.5t-143 -161t-91 -198.5t-30.5 -220q0 -236 130 -371t353 -135q130 0 217 37q27 81 78.5 226.5t75.5 214.5l-463 8l-2 24l96 62q205 14 600 14q-34 -116 -149.5 -385t-142.5 -301zM1020 1468h-2q-113 0 -155.5 69.5t-14.5 176.5l61 15q-2 -26 3 -48t19 -44
t44 -35t74 -13q139 0 206 127l70 10q-31 -119 -107 -188.5t-198 -69.5z" />
    <glyph glyph-name="gbreve" unicode="&#x11f;" horiz-adv-x="858" 
d="M979 950l-84 -139l-160 -8l-2 -4q41 -73 41 -146q0 -108 -52 -205.5t-149.5 -160t-218.5 -62.5q-44 0 -71 15q-28 -32 -25 -60q0 -45 68 -78q12 -6 65.5 -30.5t111.5 -51.5t107 -51q144 -73 144 -164q-1 -65 -48 -123.5t-116.5 -95t-144.5 -57.5t-136 -21
q-101 0 -182 21.5t-127.5 53t-77.5 70.5t-42 69.5t-11 54.5q0 37 35 65q101 76 284 164v2q-24 22 -41.5 55.5t-17.5 65.5q0 44 102 131q-120 70 -120 227q0 111 59 213.5t163.5 165.5t225.5 58q23 -2 100 -13q103 -23 144 -28l160 88zM524 856h-2q-65 0 -127 -67.5
t-97.5 -165t-35.5 -187.5q0 -72 27.5 -108.5t72.5 -36.5q69 0 131.5 69t97 165t34.5 182q0 71 -27 110t-74 39zM356 -406h6q110 0 177 42.5t67 99.5q0 27 -17.5 48t-64.5 48q-152 85 -284 141q-121 -67 -168 -107t-47 -75q0 -67 94 -132t237 -65zM420 1339l67 9
q-9 -164 109 -164q41 0 73.5 14.5t55.5 43.5t33.5 46.5t25.5 50.5l66 9q-55 -287 -270 -287q-61 0 -101 23.5t-54.5 62t-16.5 88.5t12 104z" />
    <glyph glyph-name="Gdotaccent" unicode="&#x120;" horiz-adv-x="1492" 
d="M1135 -39h-9q-42 13 -62 29t-28 39q-128 -64 -295 -64q-274 0 -436 164.5t-162 421.5q0 169 65 321t179 264.5t281.5 179t361.5 66.5q96 0 178 -26t121 -60q48 24 166 56l8 -15q-14 -49 -66 -171.5t-75 -164.5l-33 -8q-17 98 -24 230q-94 71 -269 71q-125 0 -236 -39
t-193.5 -108.5t-143 -161t-91 -198.5t-30.5 -220q0 -236 130 -371t353 -135q130 0 217 37q27 81 78.5 226.5t75.5 214.5l-463 8l-2 24l96 62q205 14 600 14q-34 -116 -149.5 -385t-142.5 -301zM1094 1720h10q17 -15 40.5 -56t29.5 -67l-3 -10q-12 -25 -56 -65t-68 -49h-13
q-21 18 -45 56t-33 70l2 7q31 42 70 72t66 42z" />
    <glyph glyph-name="gdotaccent" unicode="&#x121;" horiz-adv-x="858" 
d="M979 950l-84 -139l-160 -8l-2 -4q41 -73 41 -146q0 -108 -52 -205.5t-149.5 -160t-218.5 -62.5q-44 0 -71 15q-28 -32 -25 -60q0 -45 68 -78q12 -6 65.5 -30.5t111.5 -51.5t107 -51q144 -73 144 -164q-1 -65 -48 -123.5t-116.5 -95t-144.5 -57.5t-136 -21
q-101 0 -182 21.5t-127.5 53t-77.5 70.5t-42 69.5t-11 54.5q0 37 35 65q101 76 284 164v2q-24 22 -41.5 55.5t-17.5 65.5q0 44 102 131q-120 70 -120 227q0 111 59 213.5t163.5 165.5t225.5 58q23 -2 100 -13q103 -23 144 -28l160 88zM524 856h-2q-65 0 -127 -67.5
t-97.5 -165t-35.5 -187.5q0 -72 27.5 -108.5t72.5 -36.5q69 0 131.5 69t97 165t34.5 182q0 71 -27 110t-74 39zM356 -406h6q110 0 177 42.5t67 99.5q0 27 -17.5 48t-64.5 48q-152 85 -284 141q-121 -67 -168 -107t-47 -75q0 -67 94 -132t237 -65zM621 1333h12q16 -14 37 -56
t24 -67l-2 -10q-13 -25 -58 -65.5t-69 -49.5h-10q-20 17 -41.5 55.5t-30.5 73.5l2 7q33 42 72.5 72t63.5 40z" />
    <glyph glyph-name="Gcommaaccent" unicode="&#x122;" horiz-adv-x="1492" 
d="M1135 -39h-9q-42 13 -62 29t-28 39q-128 -64 -295 -64q-274 0 -436 164.5t-162 421.5q0 169 65 321t179 264.5t281.5 179t361.5 66.5q96 0 178 -26t121 -60q48 24 166 56l8 -15q-14 -49 -66 -171.5t-75 -164.5l-33 -8q-17 98 -24 230q-94 71 -269 71q-125 0 -236 -39
t-193.5 -108.5t-143 -161t-91 -198.5t-30.5 -220q0 -236 130 -371t353 -135q130 0 217 37q27 81 78.5 226.5t75.5 214.5l-463 8l-2 24l96 62q205 14 600 14q-34 -116 -149.5 -385t-142.5 -301zM602 -477l-31 43q99 74 109 137q6 38 -14 61l-37 31l4 31l110 61h23
q53 -33 47 -129q-5 -71 -63 -136t-148 -99z" />
    <glyph glyph-name="gcommaaccent" unicode="&#x123;" horiz-adv-x="860" 
d="M707 1401l24 -39q-98 -73 -108 -135q-6 -42 14 -62l39 -32l-4 -31l-113 -62h-24q-25 15 -40 52t-8 84q9 69 68.5 130t151.5 95zM979 950l-84 -139l-160 -8l-2 -4q41 -73 41 -146q0 -107 -52 -204.5t-150 -160.5t-218 -63q-44 0 -71 15q-28 -32 -25 -60q0 -45 68 -78
q12 -6 65.5 -30.5t111.5 -51.5t107 -51q144 -71 144 -164q-1 -65 -47.5 -123t-114.5 -94.5t-142.5 -58t-134.5 -21.5q-86 0 -158 15t-119 40t-81.5 54t-52.5 60.5t-26.5 56.5t-8.5 45q0 38 37 65q38 30 118 76.5t164 85.5v2q-24 22 -41.5 55.5t-17.5 65.5q0 44 102 131
q-120 70 -120 227q0 112 59 214.5t163.5 165t225.5 57.5q16 -1 100 -13q103 -23 144 -28l160 88zM524 854h-2q-66 0 -127.5 -66.5t-97 -163t-35.5 -186.5q0 -71 27.5 -108t72.5 -37q69 0 131.5 69t97 164.5t34.5 180.5q0 70 -27.5 108.5t-73.5 38.5zM362 -401h7
q111 0 174 41t63 96q0 28 -17.5 49t-64.5 47q-152 85 -284 141q-121 -64 -168 -104t-47 -78q0 -64 95 -128t242 -64z" />
    <glyph glyph-name="Hcircumflex" unicode="&#x124;" horiz-adv-x="1527" 
d="M291 1303l28 47q37 0 113 -1t115 -1q35 0 105 1t102 1l-15 -47l-114 -64l-121 -469h678l123 471l-93 68l19 41q28 0 82 -1t80 -1q47 0 139 1t137 1l-20 -47l-168 -64q-34 -109 -144 -541q-47 -185 -91.5 -377t-43.5 -208l168 -64l-24 -51q-42 0 -132 1t-137 1
q-33 0 -100 -1t-103 -1l21 49l111 64q35 120 88 327.5t65 253.5q-127 -18 -338 -18h-340q-102 -379 -141 -568l94 -63l-14 -45q-33 0 -98 1t-99 1q-42 0 -131.5 -1t-136.5 -1l22 49l164 62q13 28 72 230t102 374l136 530zM1026 1708h64q37 -38 109 -111t108 -110l-43 -49
q-34 19 -111.5 62.5t-118.5 66.5q-184 -84 -289 -129l-32 51q193 134 313 219z" />
    <glyph glyph-name="hcircumflex" unicode="&#x125;" horiz-adv-x="1091" 
d="M201 0l-162 -16q88 317 192 712q143 547 158 623l-149 27l20 38q58 23 169.5 44.5t158.5 21.5l4 -4q-1 -2 -39 -133.5t-103.5 -363t-148.5 -537.5h6q111 169 239.5 296.5t254.5 182.5q80 33 143 33q30 0 43 -7t17 -30.5t-13 -69.5q-157 -541 -178 -686l184 25l-24 -62
q-78 -23 -195 -66.5t-166 -66.5l-16 12q6 29 109 376.5t120 412.5q11 39 -16 39q-76 0 -217 -143t-234 -300q-52 -88 -84.5 -163t-72.5 -195zM512 1759h63q37 -38 109.5 -111t108.5 -110l-43 -49q-34 19 -111.5 62.5t-118.5 66.5q-184 -84 -289 -129l-32 51q193 134 313 219
z" />
    <glyph glyph-name="Hbar" unicode="&#x126;" horiz-adv-x="1527" 
d="M504 762h676l69 262h-678zM590 1102h678l37 137l-93 68l19 43q29 0 83 -1t81 -1q46 0 137.5 1t136.5 1l-22 -50l-168 -63q-34 -122 -37 -135h172l-33 -78h-160q-16 -57 -43.5 -167.5t-40.5 -158.5q-47 -185 -91.5 -377t-43.5 -208l170 -64l-26 -51q-42 0 -131 1t-136 1
q-34 0 -101 -1t-101 -1l20 49l111 62q31 110 79 297.5t72 273.5q-111 -10 -336 -10h-344q-102 -392 -139 -564l94 -63l-14 -45q-31 0 -96.5 1t-98.5 1q-43 0 -133.5 -1t-136.5 -1l22 49l166 62q11 24 67 220.5t105 381.5l82 313h-190l33 78h176l35 137l-160 61l28 50
q37 0 113 -1t115 -1q35 0 105 1t102 1l-15 -50l-114 -63z" />
    <glyph glyph-name="hbar" unicode="&#x127;" horiz-adv-x="1091" 
d="M219 1188h139q23 80 35 133l-145 25l18 40q58 23 167 44.5t157 21.5l2 -4q-5 -18 -28.5 -99.5t-45.5 -160.5h311l-34 -76h-297q-101 -350 -195 -694h6q110 168 236 293.5t252 181.5q76 31 147 31q44 0 55 -19t-8 -88q-157 -541 -178 -686l184 25l-24 -62
q-78 -23 -195 -66.5t-166 -66.5l-16 12q6 29 110 377.5t121 413.5q11 41 -16 41q-78 0 -218 -141t-233 -299q-52 -85 -84.5 -160.5t-76.5 -204.5l-160 -16q162 575 301 1128h-154z" />
    <glyph glyph-name="Itilde" unicode="&#x128;" horiz-adv-x="675" 
d="M311 1305l19 45q38 0 112.5 -1t112.5 -1q41 0 124.5 1t125.5 1l-17 -45l-153 -62l-143 -541q-55 -209 -99 -390t-47 -208l172 -59l-26 -47q-41 0 -130 1t-135 1q-44 0 -133.5 -1t-138.5 -1l20 47l168 59q24 52 172 598l146 541zM899 1655l39 -41q-59 -85 -116.5 -123.5
t-100.5 -38.5q-35 0 -123 45q-71 39 -106 39q-58 0 -146 -88l-39 45q126 162 219 162q34 0 115 -43q5 -2 24.5 -11.5t26 -12t20 -8t23 -7.5t17.5 -2q56 0 147 84z" />
    <glyph glyph-name="itilde" unicode="&#x129;" horiz-adv-x="593" 
d="M293 778l-133 19l18 41q47 24 150 53.5t161 32.5l3 -6q-197 -646 -252 -846l6 -2q53 13 133.5 88t126.5 137l8 -25q-4 -31 -20 -68.5t-44.5 -78.5t-65.5 -74t-89 -54.5t-109 -21.5q-35 0 -57.5 22t-29 72.5t17.5 131.5q46 173 176 579zM709 1282l39 -37
q-59 -83 -111 -121.5t-90 -38.5q-34 0 -119 45q-75 37 -100 37q-48 0 -133 -88l-43 43q122 158 208 158q36 0 109 -39q73 -41 106 -43q56 0 134 84z" />
    <glyph glyph-name="Imacron" unicode="&#x12a;" horiz-adv-x="675" 
d="M311 1305l19 45q38 0 112.5 -1t112.5 -1q41 0 124.5 1t125.5 1l-17 -45l-153 -62l-143 -541q-55 -209 -99 -390t-47 -208l172 -59l-26 -47q-41 0 -130 1t-135 1q-44 0 -133.5 -1t-138.5 -1l20 47l168 59q24 52 172 598l146 541zM827 1483h-479l47 112h479z" />
    <glyph glyph-name="imacron" unicode="&#x12b;" horiz-adv-x="593" 
d="M293 778l-133 19l18 41q47 24 150 53.5t161 32.5l3 -6q-197 -646 -252 -846l6 -2q53 13 133.5 88t126.5 137l8 -25q-4 -31 -20 -68.5t-44.5 -78.5t-65.5 -74t-89 -54.5t-109 -21.5q-35 0 -57.5 22t-29 72.5t17.5 131.5q46 173 176 579zM657 1133h-438l45 110h438z" />
    <glyph glyph-name="Ibreve" unicode="&#x12c;" horiz-adv-x="675" 
d="M311 1305l19 45q38 0 112.5 -1t112.5 -1q41 0 124.5 1t125.5 1l-17 -45l-153 -62l-143 -541q-55 -209 -99 -390t-47 -208l172 -59l-26 -47q-41 0 -130 1t-135 1q-44 0 -133.5 -1t-138.5 -1l20 47l168 59q24 52 172 598l146 541zM592 1444h-2q-113 0 -155.5 69.5
t-14.5 176.5l61 14q-2 -26 3 -48t19 -44t44 -34.5t74 -12.5q139 0 206 127l70 10q-31 -119 -107 -188.5t-198 -69.5z" />
    <glyph glyph-name="ibreve" unicode="&#x12d;" horiz-adv-x="593" 
d="M293 778l-133 19l18 41q47 24 150 53.5t161 32.5l3 -6q-197 -646 -252 -846l6 -2q53 13 133.5 88t126.5 137l8 -25q-4 -31 -20 -68.5t-44.5 -78.5t-65.5 -74t-89 -54.5t-109 -21.5q-35 0 -57.5 22t-29 72.5t17.5 131.5q46 173 176 579zM258 1339l68 9q-9 -164 108 -164
q41 0 73.5 14.5t56 43.5t34 47t25.5 50l65 9q-55 -287 -270 -287q-61 0 -101 23.5t-54.5 62t-16.5 88.5t12 104z" />
    <glyph glyph-name="Iogonek" unicode="&#x12e;" horiz-adv-x="675" 
d="M350 -240l17 -53q-91 -98 -203 -98q-68 0 -110 38t-42 97q0 66 45.5 125.5t130.5 130.5q-38 0 -115.5 -1t-117.5 -1l20 47l168 59q24 52 172 598l146 541l-150 62l19 45q38 0 112 -1t111 -1q42 0 125.5 1t124.5 1l-17 -45l-151 -62l-143 -541q-139 -525 -148 -598
l174 -59l-26 -47q-36 0 -111 1t-113 1q-121 -135 -121 -213q0 -63 80 -63q56 0 123 36z" />
    <glyph glyph-name="iogonek" unicode="&#x12f;" horiz-adv-x="593" 
d="M496 1366h10q15 -15 36.5 -58t22.5 -69l-4 -8q-13 -25 -58 -66t-67 -51h-10q-19 15 -40.5 55.5t-27.5 73.5l2 4q33 45 71 76t65 43zM338 -240l16 -53q-91 -98 -202 -98q-68 0 -109 37.5t-43 95.5q0 114 156 235q-90 40 -39 220q40 157 176 581l-133 19l18 41
q46 26 148.5 55.5t162.5 32.5l3 -6q-193 -635 -252 -850l6 -2q52 13 132.5 88.5t127.5 138.5l6 -27q-5 -34 -25 -77t-52.5 -86.5t-83 -77.5t-107.5 -45q-109 -119 -109 -189q0 -69 80 -69q56 0 123 36z" />
    <glyph glyph-name="Idotaccent" unicode="&#x130;" horiz-adv-x="675" 
d="M311 1305l19 45q38 0 112.5 -1t112.5 -1q41 0 124.5 1t125.5 1l-17 -45l-153 -62l-143 -541q-55 -209 -99 -390t-47 -208l172 -59l-26 -47q-41 0 -130 1t-135 1q-44 0 -133.5 -1t-138.5 -1l20 47l168 59q24 52 172 598l146 541zM653 1704h11q17 -15 40 -56t29 -67l-2 -10
q-12 -25 -56.5 -65.5t-68.5 -49.5h-12q-21 18 -45 56.5t-33 70.5l2 6q32 42 70.5 72.5t64.5 42.5z" />
    <glyph glyph-name="dotlessi" unicode="&#x131;" horiz-adv-x="593" 
d="M293 778l-133 19l18 41q47 24 150 53.5t161 32.5l3 -6q-197 -646 -252 -846l6 -2q53 13 133.5 88t126.5 137l8 -25q-4 -31 -20 -68.5t-44.5 -78.5t-65.5 -74t-89 -54.5t-109 -21.5q-35 0 -57.5 22t-29 72.5t17.5 131.5q46 173 176 579z" />
    <glyph glyph-name="IJ" unicode="&#x132;" horiz-adv-x="1314" 
d="M311 1305l19 45q38 0 112.5 -1t112.5 -1q41 0 124.5 1t125.5 1l-17 -45l-153 -62l-143 -541q-55 -209 -99 -390t-47 -208l172 -59l-26 -47q-41 0 -130 1t-135 1q-44 0 -133.5 -1t-138.5 -1l20 47l168 59q24 52 172 598l146 541zM948 1305l25 45q42 0 124 -1t124 -1
q43 0 129 1t131 1l-23 -50l-160 -61q-146 -598 -245 -967q-50 -177 -117 -274q-37 -59 -87.5 -110.5t-102 -86t-92 -56t-74.5 -34.5l-45 37l6 23q102 45 172 120q85 95 149 326q23 82 144 563q90 358 110 463z" />
    <glyph glyph-name="ij" unicode="&#x133;" horiz-adv-x="1130" 
d="M492 1354h12q15 -15 36.5 -59t22.5 -70l-2 -11q-15 -26 -61 -68t-68 -50h-12q-18 16 -39.5 56.5t-28.5 76.5l2 4q34 46 73 78t65 43zM293 778l-133 19l18 41q47 24 150 53.5t161 32.5l3 -6q-197 -646 -252 -846l6 -2q54 13 133.5 87.5t126.5 137.5l8 -25
q-4 -31 -20 -68.5t-44.5 -78.5t-65.5 -74t-89 -54.5t-109 -21.5q-35 0 -57.5 22t-29 72.5t17.5 131.5q46 173 176 579zM883 791l-152 22l23 43q55 23 159.5 45.5t161.5 24.5l4 -4q-81 -337 -207 -797q-39 -143 -75.5 -229.5t-87.5 -155.5q-67 -89 -144 -147t-135 -85l-45 43
q31 21 54.5 39t61 58t66.5 87t61.5 124t57.5 170q147 563 197 762zM1071 1354h10q16 -14 37.5 -58t24.5 -71l-4 -8q-14 -27 -60 -69.5t-69 -51.5h-11q-19 15 -40 56.5t-27 76.5v4q34 46 73.5 77.5t65.5 43.5z" />
    <glyph glyph-name="Jcircumflex" unicode="&#x134;" horiz-adv-x="638" 
d="M272 1305l25 45q42 0 124 -1t124 -1q43 0 129 1t131 1l-23 -50l-159 -61q-31 -126 -124.5 -494t-121.5 -473q-50 -177 -117 -274q-37 -59 -87.5 -110.5t-102 -86t-92 -56t-74.5 -34.5l-45 37l6 23q102 45 172 120q85 95 149 326q23 82 144 563q90 358 110 463zM590 1708
h63q37 -38 109 -111t108 -110l-43 -49q-35 19 -111.5 62.5t-117.5 66.5q-184 -84 -289 -129l-33 51q230 159 314 219z" />
    <glyph glyph-name="jcircumflex" unicode="&#x135;" horiz-adv-x="518" 
d="M283 791l-152 22l23 41q71 29 170 49.5t155 20.5q-85 -353 -207 -799q-39 -143 -75.5 -229t-87.5 -152q-56 -77 -123 -134t-103 -77t-55 -25l-43 43q30 18 53.5 35.5t60.5 56.5t66.5 86.5t62.5 125.5t58 174q147 563 197 762zM444 1413l35 10l125 -338l-45 -30l-131 196
l-223 -196l-39 32z" />
    <glyph glyph-name="Kcommaaccent" unicode="&#x136;" horiz-adv-x="1351" 
d="M1552 1348l-24 -48q-23 -7 -67 -17.5t-96.5 -23t-70.5 -16.5q-36 -9 -75 -43q-142 -119 -504 -459v-4q97 -159 327 -499q44 -63 81.5 -115t67.5 -92t34 -45l-19 -17q-82 7 -141.5 31.5t-99.5 60t-84 95.5q-62 83 -161 231t-181 287l4 14q271 251 396 370.5t198 198.5
q-6 17 -13 57l-8 40q74 3 151.5 3t124 -1.5t99 -4.5t61.5 -3zM305 1305l21 45q38 0 115 -1t116 -1q41 0 123.5 1t124.5 1l-19 -45l-151 -62l-143 -541q-139 -524 -148 -596l174 -61l-24 -47q-43 0 -131 1t-132 1q-46 0 -136 -1t-136 -1l21 47l165 59q14 34 64 206.5
t106 391.5l142 541zM557 -410l-31 43q98 73 109 138q6 38 -14 61l-37 31l4 31l110 61h23q53 -33 47 -129q-5 -71 -63 -137t-148 -99z" />
    <glyph glyph-name="kcommaaccent" unicode="&#x137;" horiz-adv-x="958" 
d="M1049 893l-29 -45q-119 -25 -157.5 -36t-67.5 -30q-106 -71 -267 -221v-4q26 -55 88.5 -164.5t139 -240t104.5 -181.5l-16 -14q-39 5 -63 9.5t-52 14.5t-49 26t-45 42t-49 64q-58 89 -133.5 223t-85.5 162l6 8q211 194 309 291q31 31 40 47t34 78q29 6 146 -6.5
t147 -22.5zM408 1317l-136 26l19 41q63 23 166 44.5t151 21.5l6 -4q-95 -301 -409 -1436q-105 -15 -174 -22q253 850 377 1329zM299 -430l-31 43q99 74 109 137q6 38 -15 62l-36 30l4 31l110 61h23q53 -33 47 -129q-5 -71 -63 -136t-148 -99z" />
    <glyph glyph-name="kgreenlandic" unicode="&#x138;" horiz-adv-x="1013" 
d="M225 2l-168 -18q41 130 121 410.5t107 385.5l-138 19l13 39q50 26 159.5 57t161.5 31l4 -4q-100 -317 -260 -920zM1083 893l-26 -49q-119 -20 -160 -30.5t-61 -25.5q-103 -87 -285 -276v-4q34 -66 167 -275.5t165 -263.5l-11 -12q-97 5 -151 30t-109 105
q-59 84 -132.5 203t-86.5 149l2 9q180 185 338 366q20 23 29.5 41t23.5 64q29 6 150.5 -7.5t146.5 -23.5z" />
    <glyph glyph-name="Lacute" unicode="&#x139;" horiz-adv-x="1128" 
d="M301 1305l21 45q39 0 115 -1t114 -1q45 0 134.5 1t133.5 1l-22 -50l-162 -57l-141 -534q-40 -151 -77.5 -298t-56.5 -226.5t-20 -88.5l416 -20q202 207 268 266l33 -12q-84 -206 -150 -338q-16 0 -86.5 2t-224 4t-371.5 2q-44 0 -132 -1t-132 -1l16 43l173 63
q9 22 163 603l144 536zM539 1436l-31 51l315 217q33 -4 70.5 -32.5t58.5 -61.5l-4 -27z" />
    <glyph glyph-name="lacute" unicode="&#x13a;" horiz-adv-x="579" 
d="M410 1319l-136 27l21 40q59 24 164 45t153 21l4 -4q-84 -273 -206 -700q-111 -391 -189 -676l4 -2q87 21 269 243l14 -18q-5 -46 -32 -100t-69 -104.5t-106 -84t-135 -33.5q-32 0 -54 22.5t-30 73.5t14 134q18 67 314 1116zM422 1511l-31 52l316 217q33 -4 70.5 -32.5
t58.5 -61.5l-5 -27z" />
    <glyph glyph-name="Lcommaaccent" unicode="&#x13b;" horiz-adv-x="1128" 
d="M301 1305l21 45q39 0 115 -1t114 -1q45 0 134.5 1t133.5 1l-22 -50l-162 -57l-141 -534q-40 -151 -77.5 -298t-56.5 -226.5t-20 -88.5l416 -20q202 207 268 266l33 -12q-84 -206 -150 -338q-16 0 -86.5 2t-224 4t-371.5 2q-44 0 -132 -1t-132 -1l16 43l173 63
q9 22 163 603l144 536zM422 -430l-31 43q99 74 109 137q6 38 -15 62l-36 30l4 31l110 61h23q53 -33 47 -129q-5 -71 -63 -136t-148 -99z" />
    <glyph glyph-name="lcommaaccent" unicode="&#x13c;" horiz-adv-x="579" 
d="M410 1319l-136 27l21 40q59 24 164 45t153 21l4 -4q-84 -273 -206 -700q-111 -391 -189 -676l4 -2q87 21 269 243l14 -18q-5 -46 -32 -100t-69 -104.5t-106 -84t-135 -33.5q-32 0 -54 22.5t-30 73.5t14 134q18 67 314 1116zM51 -446l-31 43q99 74 109 137q6 38 -14 61
l-37 31l4 31l111 61h22q53 -33 47 -129q-5 -71 -63 -136t-148 -99z" />
    <glyph glyph-name="Lcaron" unicode="&#x13d;" horiz-adv-x="1128" 
d="M301 1305l21 45q39 0 115 -1t114 -1q45 0 134.5 1t133.5 1l-22 -50l-162 -57l-141 -534q-40 -151 -77.5 -298t-56.5 -226.5t-20 -88.5l416 -20q202 207 268 266l33 -12q-84 -206 -150 -338q-16 0 -86.5 2t-224 4t-371.5 2q-44 0 -132 -1t-132 -1l16 43l173 63
q9 22 163 603l144 536zM901 1053l-31 43q99 74 109 137q6 38 -14 61l-37 31l4 31l110 61h23q53 -33 47 -129q-5 -71 -63 -136t-148 -99z" />
    <glyph glyph-name="lcaron" unicode="&#x13e;" horiz-adv-x="579" 
d="M410 1319l-136 27l21 40q59 24 164 45t153 21l4 -4q-84 -273 -206 -700q-111 -391 -189 -676l4 -2q87 21 269 243l14 -18q-5 -46 -32 -100t-69 -104.5t-106 -84t-135 -33.5q-32 0 -54 22.5t-30 73.5t14 134q18 67 314 1116zM666 1157l-31 43q97 73 108 137q6 39 -14 62
l-37 31l4 30l111 62h22q54 -33 48 -129q-5 -71 -63 -137t-148 -99z" />
    <glyph glyph-name="Ldot" unicode="&#x13f;" horiz-adv-x="1128" 
d="M301 1305l21 45q39 0 115 -1t114 -1q45 0 134.5 1t133.5 1l-22 -50l-162 -57l-141 -534q-40 -151 -77.5 -298t-56.5 -226.5t-20 -88.5l416 -20q202 207 268 266l33 -12q-84 -206 -150 -338q-16 0 -86.5 2t-224 4t-371.5 2q-44 0 -132 -1t-132 -1l16 43l173 63
q9 22 163 603l144 536zM877 836h10q17 -15 40 -56t29 -67l-2 -11q-12 -25 -56 -65t-69 -49h-12q-21 18 -45 56.5t-33 70.5l2 6q31 42 70 72.5t66 42.5z" />
    <glyph glyph-name="ldot" unicode="&#x140;" horiz-adv-x="591" 
d="M629 852l8 4q17 -8 40.5 -42t29.5 -62l-5 -17q-15 -21 -48.5 -49t-55.5 -39l-12 -4q-18 14 -39 47.5t-29 57.5l6 18q43 52 105 86zM406 1319l-136 27l21 40q58 24 162.5 45t154.5 21l4 -4q-84 -273 -202 -700q-44 -158 -185 -676l4 -2q85 21 267 243l14 -18
q-6 -46 -31.5 -100t-67.5 -104.5t-106 -84t-135 -33.5q-32 0 -54 22.5t-30.5 73.5t12.5 134q5 20 63.5 230t129.5 466.5t115 419.5z" />
    <glyph glyph-name="Lslash" unicode="&#x141;" horiz-adv-x="1148" 
d="M115 559l215 123l149 559l-155 62l18 47q40 0 117 -1t114 -1q44 0 133.5 1t133.5 1l-25 -47l-160 -62l-116 -438l295 166l-29 -103l-293 -166q-147 -566 -152 -604l418 -20q23 23 87 90.5t108 111.5t74 70l30 -18q-89 -217 -149 -338q-14 0 -85 2t-224 4t-369 2
q-41 0 -129.5 -1t-136.5 -1l16 43l174 68q9 16 129 471l-217 -123z" />
    <glyph glyph-name="lslash" unicode="&#x142;" horiz-adv-x="614" 
d="M100 662l197 137q75 261 147 520l-137 27l19 38q57 23 164 44.5t153 21.5l2 -6q-68 -222 -151 -514l243 168l-26 -99l-246 -170q-61 -215 -109.5 -388t-73 -263.5t-28.5 -105.5l4 -2q89 22 264 241l15 -24q-6 -47 -32 -99.5t-67.5 -101.5t-104 -81t-132.5 -32
q-32 0 -53.5 21.5t-30 72.5t15.5 136q2 6 139 497l-198 -135z" />
    <glyph glyph-name="Nacute" unicode="&#x143;" horiz-adv-x="1497" 
d="M430 43l-20 -45q-39 0 -121.5 1t-122.5 1q-37 0 -111 -1t-112 -1l16 45l174 70q50 125 311 1044q-11 22 -19 37.5t-19 29t-17.5 21.5t-22 16.5t-24 12.5t-32 10t-37.5 9t-48 10l25 45q55 3 167 7t136 5q6 -45 45 -121q87 -175 263.5 -521t252.5 -499h4q29 112 128.5 514
t123.5 506l-166 66l23 45q41 0 116.5 -1t110.5 -1q40 0 116.5 1t110.5 1l-24 -50l-172 -65q-30 -75 -126 -425t-183 -699l124 -86l-8 -25l-250 -23q-73 135 -542 1080h-4q-72 -265 -151 -575t-89 -371zM850 1415l-31 51l316 217q33 -4 70.5 -32.5t58.5 -61.5l-4 -26z" />
    <glyph glyph-name="nacute" unicode="&#x144;" horiz-adv-x="1118" 
d="M225 0l-159 -16q37 106 125.5 428.5t91.5 367.5l-138 17l15 41q45 23 160.5 54.5t158.5 33.5l4 -4q-5 -22 -26 -92t-58 -194t-67 -230h6q244 383 493 487q72 31 144 31q45 0 53 -22t-12 -95q-157 -550 -178 -678l186 27l-25 -62q-75 -23 -193.5 -67t-168.5 -66l-14 21
q4 18 107.5 362t123.5 420q11 35 -16 35q-52 0 -136.5 -68.5t-166 -165t-140.5 -192.5q-59 -97 -93 -171t-77 -202zM651 1014l-41 41l230 323q36 4 84 -5.5t77 -26.5v-23z" />
    <glyph glyph-name="Ncommaaccent" unicode="&#x145;" horiz-adv-x="1497" 
d="M430 43l-20 -45q-39 0 -121.5 1t-122.5 1q-37 0 -111 -1t-112 -1l16 45l174 70q50 125 311 1044q-11 22 -19 37.5t-19 29t-17.5 21.5t-22 16.5t-24 12.5t-32 10t-37.5 9t-48 10l25 45q55 3 167 7t136 5q6 -45 45 -121q87 -175 263.5 -521t252.5 -499h4q29 112 128.5 514
t123.5 506l-166 66l23 45q41 0 116.5 -1t110.5 -1q40 0 116.5 1t110.5 1l-24 -50l-172 -65q-30 -75 -126 -425t-183 -699l124 -86l-8 -25l-250 -23q-73 135 -542 1080h-4q-72 -265 -151 -575t-89 -371zM549 -389l-31 43q99 74 109 137q6 38 -15 62l-37 30l5 31l110 61h23
q53 -33 47 -129q-5 -71 -63 -136t-148 -99z" />
    <glyph glyph-name="ncommaaccent" unicode="&#x146;" horiz-adv-x="1118" 
d="M225 0l-159 -16q37 106 125.5 428.5t91.5 367.5l-138 17l15 41q45 23 160.5 54.5t158.5 33.5l4 -4q-5 -22 -26 -92t-58 -194t-67 -230h6q244 383 493 487q72 31 144 31q45 0 53 -22t-12 -95q-157 -550 -178 -678l186 27l-25 -62q-75 -23 -193.5 -67t-168.5 -66l-14 21
q4 18 107.5 362t123.5 420q11 35 -16 35q-52 0 -136.5 -68.5t-166 -165t-140.5 -192.5q-59 -97 -93 -171t-77 -202zM309 -461l-30 43q97 73 108 137q6 39 -14 62l-37 31l4 30l111 62h22q53 -33 47 -129q-5 -71 -63 -137t-148 -99z" />
    <glyph glyph-name="Ncaron" unicode="&#x147;" horiz-adv-x="1497" 
d="M430 43l-20 -45q-39 0 -121.5 1t-122.5 1q-37 0 -111 -1t-112 -1l16 45l174 70q50 125 311 1044q-11 22 -19 37.5t-19 29t-17.5 21.5t-22 16.5t-24 12.5t-32 10t-37.5 9t-48 10l25 45q55 3 167 7t136 5q6 -45 45 -121q87 -175 263.5 -521t252.5 -499h4q29 112 128.5 514
t123.5 506l-166 66l23 45q41 0 116.5 -1t110.5 -1q40 0 116.5 1t110.5 1l-24 -50l-172 -65q-30 -75 -126 -425t-183 -699l124 -86l-8 -25l-250 -23q-73 135 -542 1080h-4q-72 -265 -151 -575t-89 -371zM981 1405h-63q-70 78 -213 225l43 45q122 -68 223 -129q134 63 289 129
l32 -49q-252 -178 -311 -221z" />
    <glyph glyph-name="ncaron" unicode="&#x148;" horiz-adv-x="1118" 
d="M225 0l-159 -16q37 106 125.5 428.5t91.5 367.5l-138 17l15 41q45 23 160.5 54.5t158.5 33.5l4 -4q-5 -22 -26 -92t-58 -194t-67 -230h6q244 383 493 487q72 31 144 31q45 0 53 -22t-12 -95q-157 -550 -178 -678l186 27l-25 -62q-75 -23 -193.5 -67t-168.5 -66l-14 21
q4 18 107.5 362t123.5 420q11 35 -16 35q-52 0 -136.5 -68.5t-166 -165t-140.5 -192.5q-59 -97 -93 -171t-77 -202zM702 1038l-55 -12l-121 352l52 35l131 -205l235 205l43 -41z" />
    <glyph glyph-name="napostrophe" unicode="&#x149;" horiz-adv-x="1118" 
d="M225 0l-159 -16q37 106 125.5 428.5t91.5 367.5l-138 17l15 41q45 23 160.5 54.5t158.5 33.5l4 -4q-5 -22 -26 -92t-58 -194t-67 -230h6q244 383 493 487q72 31 144 31q45 0 53 -22t-12 -95q-157 -550 -178 -678l186 27l-25 -62q-75 -23 -193.5 -67t-168.5 -66l-14 21
q4 18 107.5 362t123.5 420q11 35 -16 35q-52 0 -136.5 -68.5t-166 -165t-140.5 -192.5q-59 -97 -93 -171t-77 -202zM193 1108l-31 43q97 73 108 137q6 39 -14 62l-37 30l4 31l111 62h22q53 -33 47 -130q-5 -71 -62.5 -136.5t-147.5 -98.5z" />
    <glyph glyph-name="Eng" unicode="&#x14a;" horiz-adv-x="1482" 
d="M428 45l-20 -47q-39 0 -121.5 1t-122.5 1q-37 0 -111 -1t-112 -1l16 47l178 70q46 109 305 1038q-15 31 -25 50t-24.5 35t-25 24t-34.5 16t-43.5 12.5t-60.5 12.5l23 45q46 2 152.5 6t150.5 6q8 -57 41 -125q102 -200 289.5 -557.5t232.5 -444.5h4q24 79 120.5 473.5
t127.5 530.5l-166 66l23 47q41 0 118 -1t113 -1q39 0 114 1t109 1l-24 -52l-174 -65q-27 -74 -115.5 -397t-171.5 -660q-46 -190 -82.5 -297.5t-79.5 -165.5q-39 -56 -81 -84t-77 -28q-38 0 -77 37.5t-45 80.5l8 21q90 11 147 41q102 50 135 170l11 37q-208 374 -553 1069
l-6 2q-218 -818 -240 -946z" />
    <glyph glyph-name="eng" unicode="&#x14b;" horiz-adv-x="1087" 
d="M225 0l-159 -16q35 102 124 426t93 370l-140 17l15 41q49 24 163.5 55t159.5 31q0 -1 -149 -510h4q252 378 489 479q72 31 152 31q42 0 50.5 -22t-11.5 -95q-47 -175 -158 -621q-38 -149 -98 -251t-160 -187q-53 -44 -103 -71t-71 -27q-29 10 -56.5 44.5t-37.5 84.5
l22 31q105 -31 138 -31q35 0 58.5 19t49 75.5t55.5 167.5q167 603 195 725q5 20 2 28.5t-16 8.5q-52 0 -136 -68t-165 -164t-140 -192q-57 -94 -91.5 -170.5t-78.5 -208.5z" />
    <glyph glyph-name="Omacron" unicode="&#x14c;" horiz-adv-x="1513" 
d="M942 1382h2q71 0 142 -18.5t143 -63.5t127 -111.5t89.5 -172.5t35.5 -236q0 -116 -31.5 -231t-97.5 -220.5t-158 -186.5t-222 -129t-280 -48q-81 0 -158 20.5t-148.5 66.5t-125 112.5t-85.5 167.5t-32 223q0 154 59.5 303t162.5 265t254.5 187.5t322.5 71.5zM932 1307h-2
q-107 0 -202.5 -46.5t-165 -125t-120.5 -178.5t-76.5 -208.5t-25.5 -213.5q0 -243 100.5 -370.5t266.5 -127.5q102 0 194.5 47t161 126.5t119.5 180t76.5 211t25.5 217.5q0 125 -28.5 221.5t-78.5 153t-112 85t-133 28.5zM1208 1513h-479l47 113h479z" />
    <glyph glyph-name="omacron" unicode="&#x14d;" horiz-adv-x="978" 
d="M616 924h2q131 0 209 -100t78 -251q0 -148 -72.5 -286.5t-198 -226t-267.5 -87.5q-126 0 -209 90.5t-84 247.5q0 117 44 229t117 196.5t173.5 136t207.5 51.5zM598 856h-2q-71 0 -137.5 -60t-111.5 -150.5t-72 -193.5t-27 -190q0 -114 36 -167.5t97 -53.5q86 0 169 94.5
t132 231t49 262.5q0 107 -33 167t-100 60zM868 1133h-438l45 110h438z" />
    <glyph glyph-name="Obreve" unicode="&#x14e;" horiz-adv-x="1513" 
d="M942 1382h2q71 0 142 -18.5t143 -63.5t127 -111.5t89.5 -172.5t35.5 -236q0 -116 -31.5 -231t-97.5 -220.5t-158 -186.5t-222 -129t-280 -48q-81 0 -158 20.5t-148.5 66.5t-125 112.5t-85.5 167.5t-32 223q0 154 59.5 303t162.5 265t254.5 187.5t322.5 71.5zM932 1307h-2
q-107 0 -202.5 -46.5t-165 -125t-120.5 -178.5t-76.5 -208.5t-25.5 -213.5q0 -243 100.5 -370.5t266.5 -127.5q102 0 194.5 47t161 126.5t119.5 180t76.5 211t25.5 217.5q0 125 -28.5 221.5t-78.5 153t-112 85t-133 28.5zM971 1462h-2q-113 0 -155.5 69.5t-14.5 176.5l61 14
q-2 -26 3 -48t18.5 -44t43.5 -34.5t74 -12.5q140 0 207 127l70 10q-31 -119 -107 -188.5t-198 -69.5z" />
    <glyph glyph-name="obreve" unicode="&#x14f;" horiz-adv-x="978" 
d="M616 924h2q131 0 209 -100t78 -251q0 -148 -72.5 -286.5t-198 -226t-267.5 -87.5q-126 0 -209 90.5t-84 247.5q0 117 44 229t117 196.5t173.5 136t207.5 51.5zM598 856h-2q-71 0 -137.5 -60t-111.5 -150.5t-72 -193.5t-27 -190q0 -114 36 -167.5t97 -53.5q86 0 169 94.5
t132 231t49 262.5q0 107 -33 167t-100 60zM463 1339l67 9q-9 -164 109 -164q41 0 73.5 14.5t55.5 43.5t33.5 46.5t25.5 50.5l66 9q-55 -287 -270 -287q-61 0 -101 23.5t-54.5 62t-16.5 88.5t12 104z" />
    <glyph glyph-name="Ohungarumlaut" unicode="&#x150;" horiz-adv-x="1513" 
d="M942 1382h2q71 0 142 -18.5t143 -63.5t127 -111.5t89.5 -172.5t35.5 -236q0 -116 -31.5 -231t-97.5 -220.5t-158 -186.5t-222 -129t-280 -48q-81 0 -158 20.5t-148.5 66.5t-125 112.5t-85.5 167.5t-32 223q0 154 59.5 303t162.5 265t254.5 187.5t322.5 71.5zM932 1307h-2
q-107 0 -202.5 -46.5t-165 -125t-120.5 -178.5t-76.5 -208.5t-25.5 -213.5q0 -243 100.5 -370.5t266.5 -127.5q102 0 194.5 47t161 126.5t119.5 180t76.5 211t25.5 217.5q0 125 -28.5 221.5t-78.5 153t-112 85t-133 28.5zM1126 1456l-47 41l174 234q83 -14 138 -60v-29z
M791 1456l-46 41l173 234q71 -9 137 -60v-29z" />
    <glyph glyph-name="ohungarumlaut" unicode="&#x151;" horiz-adv-x="978" 
d="M616 924h2q131 0 209 -100t78 -251q0 -148 -72.5 -286.5t-198 -226t-267.5 -87.5q-126 0 -209 90.5t-84 247.5q0 117 44 229t117 196.5t173.5 136t207.5 51.5zM598 856h-2q-71 0 -137.5 -60t-111.5 -150.5t-72 -193.5t-27 -190q0 -114 36 -167.5t97 -53.5q86 0 169 94.5
t132 231t49 262.5q0 107 -33 167t-100 60zM453 1016l-45 45l192 319q81 3 156 -28v-25zM766 1016l-43 45l197 319q35 2 78.5 -6.5t72.5 -21.5v-25z" />
    <glyph glyph-name="OE" unicode="&#x152;" horiz-adv-x="2013" 
d="M1012 94l299 1161q-95 31 -226 31q-145 0 -267 -36.5t-209.5 -102t-148.5 -155.5t-90.5 -198t-29.5 -229q0 -76 16.5 -146t53.5 -135.5t92 -113.5t138.5 -77t186.5 -30q115 0 185 31zM1485 1348h416q17 4 73 12t86 8l6 -10q-12 -51 -44 -158t-52 -145l-33 -15
q-15 43 -49 232l-405 -17l-131 -510q333 0 518 23l10 -27q-16 -16 -73.5 -60t-65.5 -44q-7 0 -193.5 8t-220.5 8q-91 -336 -139 -555l473 -20q31 29 120.5 119t131.5 127l26 -19q-15 -49 -57.5 -151.5t-77.5 -159.5q-197 6 -432 6h-217q-46 0 -193.5 -6t-181.5 -6
q-302 0 -468.5 159.5t-166.5 417.5q0 173 66.5 319.5t187 251.5t298.5 164.5t393 59.5q74 0 225 -6t170 -6z" />
    <glyph glyph-name="oe" unicode="&#x153;" horiz-adv-x="1474" 
d="M612 856h-2q-64 0 -123 -45t-101 -115t-74 -152.5t-48 -160t-16 -135.5q0 -103 36.5 -155t88.5 -52q70 0 130.5 47t100 118.5t68.5 157.5t42 162.5t13 135.5q0 100 -32 147t-83 47zM623 924h2q94 0 158 -59t73 -165h4q76 105 177 164.5t200 59.5q102 0 156.5 -56.5
t54.5 -144.5q0 -116 -111 -182q-66 -39 -196.5 -78t-276.5 -62q-16 -60 -16 -118q1 -54 16 -98t54 -76.5t98 -32.5q58 0 116 22t106 58t81.5 68.5t60.5 66.5l4 -2l19 -60q-85 -123 -199.5 -189.5t-242.5 -66.5q-91 0 -158.5 49.5t-91.5 139.5l-4 -2q-72 -93 -164.5 -140
t-188.5 -47q-130 0 -205.5 83.5t-76.5 230.5q0 87 27 178t78 172.5t118 146t152.5 102.5t175.5 38zM1214 856h-2q-87 0 -187 -110t-148 -275q109 17 217 53q198 67 198 217q0 60 -22.5 87.5t-55.5 27.5z" />
    <glyph glyph-name="Racute" unicode="&#x154;" horiz-adv-x="1232" 
d="M291 1270l22 49q74 16 198 28.5t222 12.5q231 0 344 -85t113 -241q0 -83 -33 -150.5t-94.5 -115.5t-131 -81t-159.5 -60l-2 -4q76 -168 238 -447q29 -52 55.5 -97t37.5 -64t17 -31l-18 -15q-165 13 -264 156q-111 160 -271 491l8 17q428 105 428 387q0 271 -360 260
l-162 -629q-123 -478 -135 -538l186 -66l-20 -49q-45 0 -136 2t-136 2q-46 0 -136 -2t-135 -2l23 49l157 64q29 87 154 538l166 602zM725 1454l-31 51l316 217q33 -4 70.5 -32.5t58.5 -61.5l-4 -26z" />
    <glyph glyph-name="racute" unicode="&#x155;" horiz-adv-x="782" 
d="M121 795l14 43q59 28 150 56.5t133 29.5l4 -4q4 -128 -60 -369h7q203 373 397 373q45 0 76 -23q-2 -30 -38.5 -125t-60.5 -131l-32 -16q-20 68 -37 162q-4 2 -15 2q-19 0 -47.5 -20t-67 -63.5t-88 -129t-98.5 -199.5q-48 -108 -127 -381l-163 -16q81 256 139 487.5
t63 306.5zM512 1014l-41 41l229 323q37 4 85 -5.5t77 -26.5v-23z" />
    <glyph glyph-name="Rcommaaccent" unicode="&#x156;" horiz-adv-x="1232" 
d="M291 1270l22 49q74 16 198 28.5t222 12.5q231 0 344 -85t113 -241q0 -83 -33 -150.5t-94.5 -115.5t-131 -81t-159.5 -60l-2 -4q76 -168 238 -447q29 -52 55.5 -97t37.5 -64t17 -31l-18 -15q-165 13 -264 156q-111 160 -271 491l8 17q428 105 428 387q0 271 -360 260
l-162 -629q-123 -478 -135 -538l186 -66l-20 -49q-45 0 -136 2t-136 2q-46 0 -136 -2t-135 -2l23 49l157 64q29 87 154 538l166 602zM494 -410l-31 43q97 73 108 138q6 38 -14 61l-37 31l4 31l111 61h22q54 -33 48 -129q-5 -71 -63 -137t-148 -99z" />
    <glyph glyph-name="rcommaaccent" unicode="&#x157;" horiz-adv-x="782" 
d="M121 795l14 43q59 28 150 56.5t133 29.5l4 -4q4 -128 -60 -369h7q203 373 397 373q45 0 76 -23q-2 -30 -38.5 -125t-60.5 -131l-32 -16q-20 68 -37 162q-4 2 -15 2q-19 0 -47.5 -20t-67 -63.5t-88 -129t-98.5 -199.5q-48 -108 -127 -381l-163 -16q81 256 139 487.5
t63 306.5zM-6 -449l-31 43q98 73 109 138q6 37 -15 61l-37 31l5 31l110 61h23q53 -33 47 -129q-5 -71 -63 -137t-148 -99z" />
    <glyph glyph-name="Rcaron" unicode="&#x158;" horiz-adv-x="1232" 
d="M291 1270l22 49q74 16 198 28.5t222 12.5q231 0 344 -85t113 -241q0 -83 -33 -150.5t-94.5 -115.5t-131 -81t-159.5 -60l-2 -4q76 -168 238 -447q29 -52 55.5 -97t37.5 -64t17 -31l-18 -15q-165 13 -264 156q-111 160 -271 491l8 17q428 105 428 387q0 271 -360 260
l-162 -629q-123 -478 -135 -538l186 -66l-20 -49q-45 0 -136 2t-136 2q-46 0 -136 -2t-135 -2l23 49l157 64q29 87 154 538l166 602zM817 1446h-63q-70 78 -213 225l43 45q122 -68 223 -129q134 63 289 129l32 -49q-252 -178 -311 -221z" />
    <glyph glyph-name="rcaron" unicode="&#x159;" horiz-adv-x="782" 
d="M121 795l14 43q59 28 150 56.5t133 29.5l4 -4q4 -128 -60 -369h7q203 373 397 373q45 0 76 -23q-2 -30 -38.5 -125t-60.5 -131l-32 -16q-20 68 -37 162q-4 2 -15 2q-19 0 -47.5 -20t-67 -63.5t-88 -129t-98.5 -199.5q-48 -108 -127 -381l-163 -16q81 256 139 487.5
t63 306.5zM551 1038l-55 -12l-121 352l51 35l131 -205l236 205l43 -41z" />
    <glyph glyph-name="Sacute" unicode="&#x15a;" horiz-adv-x="1021" 
d="M672 1382h2q145 0 225 -77q79 41 139 61l21 -8q-7 -38 -52 -163.5t-67 -158.5l-31 -8q-13 55 -32 203q-17 24 -67.5 45.5t-119.5 21.5q-126 0 -200 -71t-74 -176q0 -112 98 -197q32 -28 115 -93.5t133 -105.5q83 -68 120.5 -135.5t37.5 -150.5q0 -174 -135 -289
t-345 -115q-132 0 -246 52.5t-178 119.5q9 32 57.5 130.5t76.5 133.5l28 7q6 -25 10.5 -81t7.5 -130t5 -99q31 -20 91 -33.5t124 -13.5q155 0 238 78t83 188q0 114 -112 209q-188 156 -224 187q-149 126 -149 284q0 173 122.5 279t297.5 106zM651 1475l-30 51l315 217
q33 -4 70.5 -32.5t58.5 -61.5l-4 -27z" />
    <glyph glyph-name="sacute" unicode="&#x15b;" horiz-adv-x="731" 
d="M494 924h2q58 0 115 -18t85 -44q-10 -41 -41.5 -108.5t-52.5 -94.5l-31 -10q-16 107 -26 193q-20 12 -66 12q-80 0 -131 -44.5t-51 -107.5q0 -50 32.5 -88.5t116.5 -103.5q96 -74 132 -131.5t36 -126.5q0 -113 -97 -196t-257 -83q-87 0 -168.5 36.5t-111.5 70.5
q45 110 114 213l29 8q22 -108 31 -233q47 -21 102 -21q93 0 148 45t55 111q0 45 -29 84t-100 96q-100 77 -137 137t-37 125q0 128 101 203.5t237 75.5zM463 1014l-41 41l229 323q37 4 85 -5.5t77 -26.5v-23z" />
    <glyph glyph-name="Scircumflex" unicode="&#x15c;" horiz-adv-x="1021" 
d="M672 1382h2q145 0 225 -77q79 41 139 61l21 -8q-7 -38 -52 -163.5t-67 -158.5l-31 -8q-13 55 -32 203q-17 24 -67.5 45.5t-119.5 21.5q-126 0 -200 -71t-74 -176q0 -112 98 -197q32 -28 115 -93.5t133 -105.5q83 -68 120.5 -135.5t37.5 -150.5q0 -174 -135 -289
t-345 -115q-132 0 -246 52.5t-178 119.5q9 32 57.5 130.5t76.5 133.5l28 7q6 -25 10.5 -81t7.5 -130t5 -99q31 -20 91 -33.5t124 -13.5q155 0 238 78t83 188q0 114 -112 209q-188 156 -224 187q-149 126 -149 284q0 173 122.5 279t297.5 106zM725 1726h63q37 -38 109.5 -111
t108.5 -110l-43 -49q-34 19 -111.5 62.5t-118.5 66.5q-184 -84 -289 -129l-32 51q193 134 313 219z" />
    <glyph glyph-name="scircumflex" unicode="&#x15d;" horiz-adv-x="731" 
d="M494 924h2q58 0 115 -18t85 -44q-10 -41 -41.5 -108.5t-52.5 -94.5l-31 -10q-16 107 -26 193q-20 12 -66 12q-80 0 -131 -44.5t-51 -107.5q0 -50 32.5 -88.5t116.5 -103.5q96 -74 132 -131.5t36 -126.5q0 -113 -97 -196t-257 -83q-87 0 -168.5 36.5t-111.5 70.5
q45 110 114 213l29 8q22 -108 31 -233q47 -21 102 -21q93 0 148 45t55 111q0 45 -29 84t-100 96q-100 77 -137 137t-37 125q0 128 101 203.5t237 75.5zM549 1401l53 12l125 -352l-57 -37l-129 207l-232 -207l-47 43z" />
    <glyph glyph-name="Scedilla" unicode="&#x15e;" horiz-adv-x="1021" 
d="M489 -33l-71 -84q102 -52 102 -131q0 -47 -30 -87t-75 -65.5t-89 -40.5t-82 -20l-21 53q55 17 108.5 52.5t53.5 79.5q0 27 -22.5 48t-79.5 42l-2 6l125 143v2q-121 7 -226 57t-162 111q7 31 55.5 131t78.5 135l28 9q5 -26 9 -83t7 -129t5 -100q31 -20 93 -33.5t128 -13.5
q152 0 233.5 79t81.5 189q0 114 -112 209q-190 162 -224 193q-145 125 -145 278q0 174 122 279.5t296 105.5q138 0 225 -75q10 4 61.5 27.5t75.5 31.5l21 -8q-6 -36 -52 -162t-67 -160l-31 -8q-16 61 -30 203q-22 26 -71 47.5t-116 21.5q-124 0 -197 -71t-73 -176
q0 -109 94 -193q24 -21 59 -50t94.5 -77.5t102.5 -83.5q78 -66 114 -132t36 -148q0 -163 -120 -276t-311 -126z" />
    <glyph glyph-name="Scedilla" unicode="&#xf6c1;" horiz-adv-x="1021" 
d="M489 -33l-71 -84q102 -52 102 -131q0 -47 -30 -87t-75 -65.5t-89 -40.5t-82 -20l-21 53q55 17 108.5 52.5t53.5 79.5q0 27 -22.5 48t-79.5 42l-2 6l125 143v2q-121 7 -226 57t-162 111q7 31 55.5 131t78.5 135l28 9q5 -26 9 -83t7 -129t5 -100q31 -20 93 -33.5t128 -13.5
q152 0 233.5 79t81.5 189q0 114 -112 209q-190 162 -224 193q-145 125 -145 278q0 174 122 279.5t296 105.5q138 0 225 -75q10 4 61.5 27.5t75.5 31.5l21 -8q-6 -36 -52 -162t-67 -160l-31 -8q-16 61 -30 203q-22 26 -71 47.5t-116 21.5q-124 0 -197 -71t-73 -176
q0 -109 94 -193q24 -21 59 -50t94.5 -77.5t102.5 -83.5q78 -66 114 -132t36 -148q0 -163 -120 -276t-311 -126z" />
    <glyph glyph-name="scedilla" unicode="&#x15f;" horiz-adv-x="731" 
d="M100 -180l131 153v2q-79 7 -152 41t-102 64q50 119 115 213l29 8q12 -57 31 -231q40 -21 104 -21q94 0 148.5 44.5t54.5 109.5q0 44 -30.5 85t-100.5 95q-99 77 -135.5 137.5t-36.5 124.5q0 86 50 151t126 96.5t162 31.5q55 0 111.5 -15t90.5 -45q-11 -43 -42 -111
t-52 -94l-31 -10q-9 46 -26 195q-17 10 -64 10q-81 0 -133.5 -44t-52.5 -108q0 -50 33 -89t118 -103q96 -74 132 -131.5t36 -126.5q0 -101 -81 -180t-216 -92l-79 -95q100 -53 100 -133q0 -48 -30 -88t-76 -64.5t-89 -39.5t-82 -21l-18 53q55 16 108.5 53t53.5 81
q0 51 -103 88z" />
    <glyph glyph-name="scedilla" unicode="&#xf6c2;" horiz-adv-x="731" 
d="M100 -180l131 153v2q-79 7 -152 41t-102 64q50 119 115 213l29 8q12 -57 31 -231q40 -21 104 -21q94 0 148.5 44.5t54.5 109.5q0 44 -30.5 85t-100.5 95q-99 77 -135.5 137.5t-36.5 124.5q0 86 50 151t126 96.5t162 31.5q55 0 111.5 -15t90.5 -45q-11 -43 -42 -111
t-52 -94l-31 -10q-9 46 -26 195q-17 10 -64 10q-81 0 -133.5 -44t-52.5 -108q0 -50 33 -89t118 -103q96 -74 132 -131.5t36 -126.5q0 -101 -81 -180t-216 -92l-79 -95q100 -53 100 -133q0 -48 -30 -88t-76 -64.5t-89 -39.5t-82 -21l-18 53q55 16 108.5 53t53.5 81
q0 51 -103 88z" />
    <glyph glyph-name="Scaron" unicode="&#x160;" horiz-adv-x="1021" 
d="M672 1382h2q145 0 225 -77q79 41 139 61l21 -8q-7 -38 -52 -163.5t-67 -158.5l-31 -8q-13 55 -32 203q-17 24 -67.5 45.5t-119.5 21.5q-126 0 -200 -71t-74 -176q0 -112 98 -197q32 -28 115 -93.5t133 -105.5q83 -68 120.5 -135.5t37.5 -150.5q0 -174 -135 -289
t-345 -115q-132 0 -246 52.5t-178 119.5q9 32 57.5 130.5t76.5 133.5l28 7q6 -25 10.5 -81t7.5 -130t5 -99q31 -20 91 -33.5t124 -13.5q155 0 238 78t83 188q0 114 -112 209q-188 156 -224 187q-149 126 -149 284q0 173 122.5 279t297.5 106zM750 1464h-64q-82 91 -213 226
l43 45q122 -68 223 -129q134 63 289 129l33 -49q-212 -149 -311 -222z" />
    <glyph glyph-name="scaron" unicode="&#x161;" horiz-adv-x="731" 
d="M494 924h2q58 0 115 -18t85 -44q-10 -41 -41.5 -108.5t-52.5 -94.5l-31 -10q-16 107 -26 193q-20 12 -66 12q-80 0 -131 -44.5t-51 -107.5q0 -50 32.5 -88.5t116.5 -103.5q96 -74 132 -131.5t36 -126.5q0 -113 -97 -196t-257 -83q-87 0 -168.5 36.5t-111.5 70.5
q45 110 114 213l29 8q22 -108 31 -233q47 -21 102 -21q93 0 148 45t55 111q0 45 -29 84t-100 96q-100 77 -137 137t-37 125q0 128 101 203.5t237 75.5zM508 1038l-55 -12l-121 352l51 35l131 -205l236 205l43 -41z" />
    <glyph glyph-name="Tcommaaccent" unicode="&#x162;" horiz-adv-x="1310" 
d="M461 1348h848q68 14 174 26l12 -4q-40 -116 -149 -346l-33 -10q-16 174 -19 262l-333 -16l-134 -519q-116 -436 -153 -635l237 -63l-26 -45q-55 0 -165 1t-165 1q-54 0 -162.5 -1t-163.5 -1l23 45l219 63q34 90 162 576l151 578l-335 16q-135 -180 -197 -252l-39 -8
q9 33 30 113t38.5 144t27.5 95l6 6q18 0 68 -8.5t78 -17.5zM410 -449l-31 43q97 73 108 138q6 38 -14 61l-37 31l4 31l111 61h22q54 -33 48 -129q-5 -71 -63 -137t-148 -99z" />
    <glyph glyph-name="tcommaaccent" unicode="&#x163;" 
d="M375 1098l178 110l12 -10l-90 -301h268l-41 -66l-253 -26q-122 -405 -195 -725l2 -2q87 10 180.5 75t171.5 162l10 -39q-29 -77 -74 -135.5t-89 -89t-94 -49.5t-82.5 -24t-61.5 -5q-152 0 -111 172q40 168 183 660l-162 26l39 66h149zM119 -461l-31 43q99 74 109 137
q6 38 -15 62l-37 31l5 30l110 62h23q53 -33 47 -129q-5 -71 -63 -137t-148 -99z" />
    <glyph glyph-name="Tcaron" unicode="&#x164;" horiz-adv-x="1310" 
d="M461 1348h848q68 14 174 26l12 -4q-40 -116 -149 -346l-33 -10q-16 174 -19 262l-333 -16l-134 -519q-116 -436 -153 -635l237 -63l-26 -45q-55 0 -165 1t-165 1q-54 0 -162.5 -1t-163.5 -1l23 45l219 63q34 90 162 576l151 578l-335 16q-135 -180 -197 -252l-39 -8
q9 33 30 113t38.5 144t27.5 95l6 6q18 0 68 -8.5t78 -17.5zM936 1436h-64q-70 78 -213 225l43 45q134 -74 224 -129q144 67 288 129l33 -49q-252 -178 -311 -221z" />
    <glyph glyph-name="tcaron" unicode="&#x165;" 
d="M375 1098l178 110l12 -10l-90 -301h268l-41 -66l-253 -26q-122 -405 -195 -725l2 -2q87 10 180.5 75t171.5 162l10 -39q-29 -77 -74 -135.5t-89 -89t-94 -49.5t-82.5 -24t-61.5 -5q-152 0 -111 172q40 168 183 660l-162 26l39 66h149zM688 1159l-31 43q99 74 109 137
q6 39 -14 62l-37 31l4 30l110 62h23q53 -33 47 -129q-5 -71 -63 -137t-148 -99z" />
    <glyph glyph-name="Tbar" unicode="&#x166;" horiz-adv-x="1300" 
d="M397 770h250l129 490l-334 16q-10 -13 -54.5 -72t-79 -102.5t-60.5 -71.5l-43 -8q71 277 94 346l6 6q20 0 72 -8.5t80 -17.5h843q67 14 175 26l12 -4q-39 -104 -150 -342l-34 -6q-5 51 -11 149t-6 105l-334 -16l-127 -490h277l-37 -78h-260q-112 -447 -139 -581l235 -64
l-24 -49q-55 0 -165 2t-165 2t-163 -2t-163 -2l23 49l219 64q18 43 44.5 139t119.5 442h-267z" />
    <glyph glyph-name="tbar" unicode="&#x167;" horiz-adv-x="696" 
d="M195 897h147l61 201l183 110l10 -10l-92 -301h266l-41 -63l-252 -27q-5 -19 -28.5 -102.5t-40.5 -149.5h229l-37 -76h-215q-73 -264 -104 -399l4 -4q86 9 174.5 72.5t165.5 164.5l20 -28q-28 -78 -72.5 -138t-88.5 -91.5t-94 -51.5t-83 -25.5t-61 -5.5q-154 0 -113 172
q16 67 90 334h-149l35 76h137q54 195 71 252l-163 27z" />
    <glyph glyph-name="Utilde" unicode="&#x168;" horiz-adv-x="1521" 
d="M444 1237l-155 68l24 45q34 0 108 -1t109 -1q32 0 93.5 1t89.5 1l-19 -45l-84 -76q-35 -113 -129 -449t-114 -448q-13 -60 -7 -103t19.5 -70.5t40 -43t54.5 -21.5t63 -6q71 0 145.5 22t130.5 52t112.5 72t87 69.5t58.5 56.5l248 881l-94 64l20 45q51 -2 187 -2
q157 0 235 2l-25 -47l-157 -66q-30 -92 -161 -591.5t-132 -534.5l180 -37l-22 -47q-336 -54 -373 -62l-12 6l82 273h-5q-54 -52 -115 -97.5t-136.5 -88.5t-162.5 -68t-171 -25q-134 0 -209 60q-128 97 -58 356q84 315 254 856zM1352 1653l39 -41q-59 -85 -116.5 -123.5
t-100.5 -38.5q-35 0 -123 45q-71 39 -107 39q-57 0 -145 -88l-39 45q126 162 219 162q34 0 115 -43q7 -3 24.5 -11.5t25.5 -12t20.5 -8.5t22 -7t17.5 -2q57 0 148 84z" />
    <glyph glyph-name="utilde" unicode="&#x169;" horiz-adv-x="1148" 
d="M297 774l-158 10l17 47q56 24 163 54.5t175 38.5l14 -4q-48 -128 -126 -387t-101 -351q-11 -50 -7 -68t25 -18q74 0 195 122.5t237 309.5q52 86 84 162t72 201q83 23 190 33l10 -19l-81 -110q-98 -314 -185 -686l4 -3q34 9 68 29t54.5 36t47.5 47t32.5 39t25.5 36
q4 5 6 8l14 -29q-5 -50 -34.5 -102t-77 -96.5t-117.5 -72.5t-148 -28q-9 0 -19.5 1t-23 3t-18.5 3q55 202 145 493h-6q-208 -322 -395 -438q-103 -62 -184 -62q-128 0 -78 189q30 111 97.5 335.5t82.5 276.5zM995 1282l39 -37q-59 -83 -110.5 -121.5t-89.5 -38.5
q-34 0 -119 45q-75 37 -101 37q-48 0 -133 -88l-43 43q122 158 209 158q36 0 109 -39q73 -41 106 -43q55 0 133 84z" />
    <glyph glyph-name="Umacron" unicode="&#x16a;" horiz-adv-x="1521" 
d="M444 1237l-155 68l24 45q34 0 108 -1t109 -1q32 0 93.5 1t89.5 1l-19 -45l-84 -76q-35 -113 -129 -449t-114 -448q-13 -60 -7 -103t19.5 -70.5t40 -43t54.5 -21.5t63 -6q71 0 145.5 22t130.5 52t112.5 72t87 69.5t58.5 56.5l248 881l-94 64l20 45q51 -2 187 -2
q157 0 235 2l-25 -47l-157 -66q-30 -92 -161 -591.5t-132 -534.5l180 -37l-22 -47q-336 -54 -373 -62l-12 6l82 273h-5q-54 -52 -115 -97.5t-136.5 -88.5t-162.5 -68t-171 -25q-134 0 -209 60q-128 97 -58 356q84 315 254 856zM1253 1475h-479l47 112h479z" />
    <glyph glyph-name="umacron" unicode="&#x16b;" horiz-adv-x="1148" 
d="M297 774l-158 10l17 47q56 24 163 54.5t175 38.5l14 -4q-48 -128 -126 -387t-101 -351q-11 -50 -7 -68t25 -18q74 0 195 122.5t237 309.5q52 86 84 162t72 201q83 23 190 33l10 -19l-81 -110q-98 -314 -185 -686l4 -3q34 9 68 29t54.5 36t47.5 47t32.5 39t25.5 36
q4 5 6 8l14 -29q-5 -50 -34.5 -102t-77 -96.5t-117.5 -72.5t-148 -28q-9 0 -19.5 1t-23 3t-18.5 3q55 202 145 493h-6q-208 -322 -395 -438q-103 -62 -184 -62q-128 0 -78 189q30 111 97.5 335.5t82.5 276.5zM926 1133h-439l45 110h439z" />
    <glyph glyph-name="Ubreve" unicode="&#x16c;" horiz-adv-x="1521" 
d="M444 1237l-155 68l24 45q34 0 108 -1t109 -1q32 0 93.5 1t89.5 1l-19 -45l-84 -76q-35 -113 -129 -449t-114 -448q-13 -60 -7 -103t19.5 -70.5t40 -43t54.5 -21.5t63 -6q71 0 145.5 22t130.5 52t112.5 72t87 69.5t58.5 56.5l248 881l-94 64l20 45q51 -2 187 -2
q157 0 235 2l-25 -47l-157 -66q-30 -92 -161 -591.5t-132 -534.5l180 -37l-22 -47q-336 -54 -373 -62l-12 6l82 273h-5q-54 -52 -115 -97.5t-136.5 -88.5t-162.5 -68t-171 -25q-134 0 -209 60q-128 97 -58 356q84 315 254 856zM999 1425h-2q-113 0 -155.5 69.5t-14.5 176.5
l62 15q-2 -26 3 -48t18.5 -44t43.5 -35t74 -13q140 0 207 127l70 10q-31 -119 -107.5 -188.5t-198.5 -69.5z" />
    <glyph glyph-name="ubreve" unicode="&#x16d;" horiz-adv-x="1148" 
d="M297 774l-158 10l17 47q56 24 163 54.5t175 38.5l14 -4q-48 -128 -126 -387t-101 -351q-11 -50 -7 -68t25 -18q74 0 195 122.5t237 309.5q52 86 84 162t72 201q83 23 190 33l10 -19l-81 -110q-98 -314 -185 -686l4 -3q34 9 68 29t54.5 36t47.5 47t32.5 39t25.5 36
q4 5 6 8l14 -29q-5 -50 -34.5 -102t-77 -96.5t-117.5 -72.5t-148 -28q-9 0 -19.5 1t-23 3t-18.5 3q55 202 145 493h-6q-208 -322 -395 -438q-103 -62 -184 -62q-128 0 -78 189q30 111 97.5 335.5t82.5 276.5zM522 1331l68 8q-9 -163 108 -163q41 0 73.5 14.5t56 43.5t34 47
t25.5 50l65 8q-55 -286 -270 -286q-61 0 -101 23.5t-54.5 62t-16.5 88.5t12 104z" />
    <glyph glyph-name="Uring" unicode="&#x16e;" horiz-adv-x="1521" 
d="M444 1237l-155 68l24 45q34 0 108 -1t109 -1q32 0 93.5 1t89.5 1l-19 -45l-84 -76q-35 -113 -129 -449t-114 -448q-13 -60 -7 -103t19.5 -70.5t40 -43t54.5 -21.5t63 -6q71 0 145.5 22t130.5 52t112.5 72t87 69.5t58.5 56.5l248 881l-94 64l20 45q51 -2 187 -2
q157 0 235 2l-25 -47l-157 -66q-30 -92 -161 -591.5t-132 -534.5l180 -37l-22 -47q-336 -54 -373 -62l-12 6l82 273h-5q-54 -52 -115 -97.5t-136.5 -88.5t-162.5 -68t-171 -25q-134 0 -209 60q-128 97 -58 356q84 315 254 856zM1014 1464h2q39 0 68.5 26t39.5 77
q10 52 -10.5 78t-62.5 26q-38 0 -69.5 -26.5t-39.5 -77.5q-10 -51 11 -77t61 -26zM1065 1743h2q72 0 117.5 -47.5t29.5 -130.5q-14 -79 -76 -125.5t-134 -46.5q-73 0 -119.5 47t-30.5 127q14 82 76 129t135 47z" />
    <glyph glyph-name="uring" unicode="&#x16f;" horiz-adv-x="1148" 
d="M297 774l-158 10l17 47q56 24 163 54.5t175 38.5l14 -4q-48 -128 -126 -387t-101 -351q-11 -50 -7 -68t25 -18q74 0 195 122.5t237 309.5q52 86 84 162t72 201q83 23 190 33l10 -19l-81 -110q-98 -314 -185 -686l4 -3q34 9 68 29t54.5 36t47.5 47t32.5 39t25.5 36
q4 5 6 8l14 -29q-5 -50 -34.5 -102t-77 -96.5t-117.5 -72.5t-148 -28q-9 0 -19.5 1t-23 3t-18.5 3q55 202 145 493h-6q-208 -322 -395 -438q-103 -62 -184 -62q-128 0 -78 189q30 111 97.5 335.5t82.5 276.5zM713 1104h2q41 0 71.5 25.5t40.5 78.5q10 54 -11.5 81.5
t-63.5 27.5q-41 0 -73 -27.5t-42 -81.5q-9 -53 13 -78.5t63 -25.5zM764 1386h2q72 0 117.5 -48.5t29.5 -129.5q-14 -81 -76.5 -128.5t-134.5 -47.5q-74 0 -120.5 48t-30.5 128q14 82 77 130t136 48z" />
    <glyph glyph-name="Uhungarumlaut" unicode="&#x170;" horiz-adv-x="1521" 
d="M444 1237l-155 68l24 45q34 0 108 -1t109 -1q32 0 93.5 1t89.5 1l-19 -45l-84 -76q-35 -113 -129 -449t-114 -448q-13 -60 -7 -103t19.5 -70.5t40 -43t54.5 -21.5t63 -6q71 0 145.5 22t130.5 52t112.5 72t87 69.5t58.5 56.5l248 881l-94 64l20 45q51 -2 187 -2
q157 0 235 2l-25 -47l-157 -66q-30 -92 -161 -591.5t-132 -534.5l180 -37l-22 -47q-336 -54 -373 -62l-12 6l82 273h-5q-54 -52 -115 -97.5t-136.5 -88.5t-162.5 -68t-171 -25q-134 0 -209 60q-128 97 -58 356q84 315 254 856zM1169 1436l-47 41l174 233q84 -14 138 -59v-29
zM834 1436l-46 41l173 233q73 -9 137 -59v-29z" />
    <glyph glyph-name="uhungarumlaut" unicode="&#x171;" horiz-adv-x="1148" 
d="M297 774l-158 10l17 47q56 24 163 54.5t175 38.5l14 -4q-48 -128 -126 -387t-101 -351q-11 -50 -7 -68t25 -18q74 0 195 122.5t237 309.5q52 86 84 162t72 201q83 23 190 33l10 -19l-81 -110q-98 -314 -185 -686l4 -3q34 9 68 29t54.5 36t47.5 47t32.5 39t25.5 36
q4 5 6 8l14 -29q-5 -50 -34.5 -102t-77 -96.5t-117.5 -72.5t-148 -28q-9 0 -19.5 1t-23 3t-18.5 3q55 202 145 493h-6q-208 -322 -395 -438q-103 -62 -184 -62q-128 0 -78 189q30 111 97.5 335.5t82.5 276.5zM518 1016l-45 45l193 319q80 3 155 -28v-25zM831 1016l-43 45
l197 319q35 2 79 -6.5t73 -21.5v-25z" />
    <glyph glyph-name="Uogonek" unicode="&#x172;" horiz-adv-x="1521" 
d="M1036 -240l17 -53q-91 -98 -205 -98q-68 0 -109 36.5t-41 94.5q0 42 25 83.5t70.5 78.5t88 64t99.5 57l68 221h-5q-75 -71 -157.5 -129t-200.5 -104t-229 -46q-134 0 -209 60q-128 97 -58 356q84 315 254 856l-155 68l24 45q33 0 108 -1t111 -1q31 0 93 1t90 1l-19 -45
l-86 -76q-2 -7 -38 -131.5t-76 -265.5t-79 -290t-50 -210q-13 -60 -7 -103t19.5 -70.5t40.5 -43t55 -21.5t64 -6q71 0 145.5 22t131 52.5t112 71.5t86 69.5t57.5 56.5l248 881l-92 64l20 45q51 -2 187 -2q155 0 233 2l-25 -47l-157 -66q-32 -104 -162 -598t-131 -528
l182 -37l-22 -47q-169 -26 -334 -56q-97 -66 -140.5 -111.5t-43.5 -82.5q0 -53 75 -53q60 0 127 36z" />
    <glyph glyph-name="uogonek" unicode="&#x173;" horiz-adv-x="1148" 
d="M709 -240l16 -53q-91 -98 -203 -98q-68 0 -109.5 37.5t-41.5 95.5q0 35 17.5 70t42 62.5t65.5 59t74 52.5t81 49q29 101 129 438h-6q-208 -322 -395 -438q-103 -62 -184 -62q-128 0 -78 187q30 113 98.5 340t81.5 274l-158 10l17 47q56 24 163 54.5t175 38.5l14 -4
q-48 -128 -126 -387t-101 -351q-11 -50 -7 -68t25 -18q74 0 195 123t237 311q53 83 84 157t72 204q81 22 190 33l13 -19l-82 -110q-98 -314 -185 -686l4 -3q131 36 232 197l16 -31q-6 -50 -36 -102t-77.5 -96.5t-117.5 -72.5t-148 -28q-3 0 -11.5 1t-12.5 1
q-166 -126 -166 -192q0 -59 76 -59q60 0 127 36z" />
    <glyph glyph-name="Wcircumflex" unicode="&#x174;" horiz-adv-x="1947" 
d="M229 1305l21 45q29 0 97 -2t102 -2t95 2t87 2l-19 -47l-67 -50q12 -145 143 -1028h2q78 111 342 510q-59 367 -86 502q-36 21 -149 66l18 47q26 0 98.5 -2t108.5 -2q21 0 60 1t57 1l-4 -17l-15 -80q11 -108 51 -354h5q172 258 225 354l22 88l7 9q12 0 49 -1t53 -1
q28 0 90 2t94 2l-20 -47q-151 -57 -191 -76q-108 -135 -313 -434q23 -157 88 -560h4q385 631 606 1014l-51 56l23 47q24 0 73.5 -2t71.5 -2q30 0 91 2t93 2l-18 -47q-123 -50 -172 -78q-34 -44 -88 -125.5t-140 -217.5t-147 -234.5t-181.5 -292.5t-170.5 -275
q-42 -60 -103 -117l-18 -4q-7 35 -42 268t-62 389h-5q-276 -404 -372 -542q-47 -63 -101 -111l-18 -2q-8 50 -83.5 581t-100.5 693q-45 29 -140 70zM1309 1724h63q37 -38 109 -111t108 -110l-43 -49q-35 19 -111.5 62.5t-117.5 66.5q-184 -84 -289 -129l-33 51
q230 159 314 219z" />
    <glyph glyph-name="wcircumflex" unicode="&#x175;" horiz-adv-x="1390" 
d="M227 762l-143 24l8 41q49 25 163.5 61t135.5 36l4 -6q-1 -80 -4 -328t-6 -387h4q120 182 340 532q-4 77 -8 133q28 22 82.5 39t87.5 17l8 -11q-1 -10 -5 -33t-7 -46.5t-4 -47.5q0 -146 10 -353.5t16 -248.5h6q173 198 254 377q74 156 64 334q55 41 119 41l4 -2
q10 -14 18 -52t8 -75q-1 -60 -38 -142t-106 -179.5t-124.5 -168t-138.5 -169t-101 -121.5q-51 -41 -94 -56l-8 4q-11 55 -37 631l-4 -2q-287 -442 -381 -577q-18 -18 -48 -35.5t-48 -20.5l-8 4q-2 22 -2 123.5t-1.5 241t-4.5 235.5q-3 154 -11 187zM922 1401l53 12l125 -352
l-58 -37l-129 207l-231 -207l-47 43z" />
    <glyph glyph-name="Ycircumflex" unicode="&#x176;" horiz-adv-x="1216" 
d="M217 1307l21 43q30 0 104 -2t111 -2q33 0 98 2t98 2l-18 -47l-78 -48q10 -39 174 -548h4q289 350 418 542l-72 58l21 43q30 0 86 -2t80 -2q35 0 104 2t109 2l-23 -47l-174 -62q-199 -213 -498 -596q-30 -38 -41 -80q-109 -399 -114 -459l221 -63l-21 -45q-56 0 -163.5 1
t-159.5 1q-50 0 -151.5 -1t-151.5 -1l20 43l205 63q41 105 143 476q9 43 -4 90q-97 296 -192 571q-37 18 -156 66zM911 1708h64q37 -38 109 -111t108 -110l-43 -49q-35 19 -111.5 62.5t-117.5 66.5q-184 -84 -289 -129l-33 51q193 134 313 219z" />
    <glyph glyph-name="ycircumflex" unicode="&#x177;" horiz-adv-x="911" 
d="M117 569l-47 45q29 91 66.5 156.5t73.5 96.5t64 44.5t52 14.5q98 -8 145 -215q50 -212 43 -570h6q79 123 158.5 328.5t85.5 306.5l-62 88l11 21q76 37 170 41q12 0 19.5 -6t6.5 -17q-14 -92 -41.5 -176t-83.5 -219q-147 -356 -381 -658q-65 -84 -134 -153t-120 -106.5
t-87 -57.5t-50 -20q-13 0 -32 15t-44 57.5t-38 103.5l6 20q60 -5 198 -51q24 12 82.5 63.5t104.5 114.5q46 67 67 140.5t21 183.5q-2 158 -22 310.5t-54 244.5q-23 67 -41 67q-15 0 -60 -63.5t-83 -149.5zM688 1401l53 12l125 -352l-57 -37l-129 207l-231 -207l-48 43z" />
    <glyph glyph-name="Ydieresis" unicode="&#x178;" horiz-adv-x="1216" 
d="M217 1307l21 43q30 0 104 -2t111 -2q33 0 98 2t98 2l-18 -47l-78 -48q10 -39 174 -548h4q289 350 418 542l-72 58l21 43q30 0 86 -2t80 -2q35 0 104 2t109 2l-23 -47l-174 -62q-199 -213 -498 -596q-30 -38 -41 -80q-109 -399 -114 -459l221 -63l-21 -45q-56 0 -163.5 1
t-159.5 1q-50 0 -151.5 -1t-151.5 -1l20 43l205 63q41 105 143 476q9 43 -4 90q-97 296 -192 571q-37 18 -156 66zM745 1700h13q18 -16 41.5 -56.5t27.5 -66.5l-2 -10q-12 -25 -56.5 -65.5t-68.5 -49.5h-12q-21 18 -45 56.5t-33 70.5l2 6q55 74 133 115zM1143 1700h10
q16 -16 40 -57t30 -66l-2 -10q-12 -25 -56.5 -65.5t-68.5 -49.5h-11q-22 18 -46 56t-33 71l2 6q58 78 135 115z" />
    <glyph glyph-name="Zacute" unicode="&#x179;" horiz-adv-x="1298" 
d="M1360 1348l-2 -33q-86 -91 -453 -502t-637 -721v-4q540 -12 676 -12q27 30 122.5 138.5t127.5 143.5l33 -4q-23 -80 -61.5 -192.5t-61.5 -169.5q-4 0 -403 4t-705 4l-14 25q66 74 492.5 545.5t617.5 684.5v5q-76 1 -295 5t-320 5q-70 -112 -170 -248l-37 -12
q48 327 56 358l10 8q38 -7 73 -13.5t52.5 -10t23.5 -4.5h875zM739 1444l-30 51l315 217q33 -4 70.5 -32.5t58.5 -61.5l-4 -27z" />
    <glyph glyph-name="zacute" unicode="&#x17a;" horiz-adv-x="872" 
d="M801 283l28 -58q-158 -252 -260 -291q-13 1 -28 5t-35.5 12t-36.5 14t-45.5 19t-46.5 20q-68 32 -141 57q-82 29 -125 -8q-36 -23 -72 -86h-16q-14 14 -16 42.5t11 62.5q11 30 43.5 63.5t59.5 48.5q130 130 315.5 326.5t229.5 247.5l-2 4q-102 -16 -220 -4
q-29 3 -64.5 6.5t-53.5 5.5q-32 -18 -104 -93t-99 -112l-33 47q43 81 116.5 188t102.5 130q46 -17 148 -36.5t217 -19.5q56 0 97.5 16t92.5 64l29 -49q-27 -68 -647 -715l2 -4q63 0 170 -41q16 -5 74.5 -26t85.5 -29q82 40 223 193zM520 1014l-41 41l230 323q36 4 84 -5.5
t77 -26.5v-23z" />
    <glyph glyph-name="Zdotaccent" unicode="&#x17b;" horiz-adv-x="1298" 
d="M1360 1348l-2 -33q-86 -91 -453 -502t-637 -721v-4q540 -12 676 -12q27 30 122.5 138.5t127.5 143.5l33 -4q-23 -80 -61.5 -192.5t-61.5 -169.5q-4 0 -403 4t-705 4l-14 25q66 74 492.5 545.5t617.5 684.5v5q-76 1 -295 5t-320 5q-70 -112 -170 -248l-37 -12
q48 327 56 358l10 8q38 -7 73 -13.5t52.5 -10t23.5 -4.5h875zM868 1710h11q17 -15 40 -56t29 -67l-2 -10q-12 -25 -56.5 -65.5t-68.5 -49.5h-12q-21 18 -45 56.5t-33 70.5l2 6q32 42 70.5 72.5t64.5 42.5z" />
    <glyph glyph-name="zdotaccent" unicode="&#x17c;" horiz-adv-x="872" 
d="M801 283l28 -58q-158 -252 -260 -291q-13 1 -28 5t-35.5 12t-36.5 14t-45.5 19t-46.5 20q-68 32 -141 57q-82 29 -125 -8q-36 -23 -72 -86h-16q-14 14 -16 42.5t11 62.5q11 30 43.5 63.5t59.5 48.5q130 130 315.5 326.5t229.5 247.5l-2 4q-102 -16 -220 -4
q-29 3 -64.5 6.5t-53.5 5.5q-32 -18 -104 -93t-99 -112l-33 47q43 81 116.5 188t102.5 130q46 -17 148 -36.5t217 -19.5q56 0 97.5 16t92.5 64l29 -49q-27 -68 -647 -715l2 -4q63 0 170 -41q16 -5 74.5 -26t85.5 -29q82 40 223 193zM627 1333h12q16 -14 37 -56t24 -67
l-2 -10q-13 -25 -58 -65.5t-69 -49.5h-10q-20 17 -41.5 55.5t-30.5 73.5l3 7q33 42 72 72t63 40z" />
    <glyph glyph-name="Zcaron" unicode="&#x17d;" horiz-adv-x="1298" 
d="M1360 1348l-2 -33q-86 -91 -453 -502t-637 -721v-4q540 -12 676 -12q27 30 122.5 138.5t127.5 143.5l33 -4q-23 -80 -61.5 -192.5t-61.5 -169.5q-4 0 -403 4t-705 4l-14 25q66 74 492.5 545.5t617.5 684.5v5q-76 1 -295 5t-320 5q-70 -112 -170 -248l-37 -12
q48 327 56 358l10 8q38 -7 73 -13.5t52.5 -10t23.5 -4.5h875zM856 1452h-63q-70 78 -213 225l43 45q122 -68 223 -129q134 63 289 129l32 -49q-252 -178 -311 -221z" />
    <glyph glyph-name="zcaron" unicode="&#x17e;" horiz-adv-x="872" 
d="M801 283l28 -58q-158 -252 -260 -291q-13 1 -28 5t-35.5 12t-36.5 14t-45.5 19t-46.5 20q-68 32 -141 57q-82 29 -125 -8q-36 -23 -72 -86h-16q-14 14 -16 42.5t11 62.5q11 30 43.5 63.5t59.5 48.5q130 130 315.5 326.5t229.5 247.5l-2 4q-102 -16 -220 -4
q-29 3 -64.5 6.5t-53.5 5.5q-32 -18 -104 -93t-99 -112l-33 47q43 81 116.5 188t102.5 130q46 -17 148 -36.5t217 -19.5q56 0 97.5 16t92.5 64l29 -49q-27 -68 -647 -715l2 -4q63 0 170 -41q16 -5 74.5 -26t85.5 -29q82 40 223 193zM575 1038l-55 -12l-121 352l52 35
l131 -205l235 205l43 -41z" />
    <glyph glyph-name="longs" unicode="&#x17f;" horiz-adv-x="507" 
d="M811 1227l-31 -15q-31 79 -43 160q-12 4 -22 4q-178 0 -320 -647q-59 -264 -137 -588q-53 -209 -111.5 -325.5t-154.5 -200.5q-125 -104 -240 -104q-53 0 -97.5 25t-60.5 58l78 115l15 4q33 -48 77 -72t86 -24q21 0 35.5 3.5t38 21.5t42.5 50.5t42.5 96.5t44.5 154
q101 427 158 692q64 289 130.5 453t178.5 264q114 100 248 100q88 0 133 -45q-14 -41 -41 -95t-49 -85z" />
    <glyph glyph-name="florin" unicode="&#x192;" horiz-adv-x="1038" 
d="M281 750h182q49 193 98 292.5t127 180.5q55 58 132.5 95.5t156.5 37.5q92 0 143 -47q-8 -30 -37.5 -89.5t-58.5 -99.5l-29 -12q-11 32 -41 170q-4 6 -22 6q-68 0 -134 -80t-108 -241q-20 -79 -49 -213h283l-31 -62l-268 -26q-71 -326 -123.5 -496t-108 -258.5
t-147.5 -157.5q-112 -82 -209 -82q-41 0 -81 17.5t-65 52.5l72 127l19 2q70 -94 143 -94q41 0 70.5 23.5t54.5 76.5q31 63 69 211t127 578l-196 28z" />
    <glyph glyph-name="AEacute" unicode="&#x1fc;" horiz-adv-x="1908" 
d="M1010 614h-430q-22 -31 -74.5 -101.5t-127 -172.5t-167.5 -234l174 -61l-23 -47q-38 0 -116 1t-119 1q-39 0 -119 -1t-119 -1l19 47l160 61q487 611 888 1145l-243 49l26 50q47 0 157 -1t179 -1h707q21 5 77.5 12t84.5 6l8 -8q-9 -38 -42 -146t-52 -153l-29 -12
q-7 20 -15 51t-13.5 55.5t-14 63t-12.5 55.5l-451 -17l-115 -550q385 0 543 22l14 -22q-12 -18 -73 -62.5t-72 -44.5q-5 0 -99.5 4.5t-198 8.5t-136.5 3q-8 -37 -30.5 -142.5t-42.5 -203.5t-34 -170l473 -20q179 170 254 235l27 -12q-13 -44 -55.5 -147t-77.5 -160
q-195 6 -430 6h-307q-45 0 -136.5 -1t-136.5 -1l17 47l182 61q26 65 121 508zM647 705h385l131 557h-102q-316 -420 -414 -557zM1300 1438l-30 51l315 217q33 -4 70.5 -32.5t58.5 -61.5l-4 -27z" />
    <glyph glyph-name="aeacute" unicode="&#x1fd;" horiz-adv-x="1441" 
d="M195 152v-2q0 -72 55 -72q64 0 186 100.5t230 270.5q45 112 97 195t134 149l-4 6q-76 5 -176.5 -25t-196.5 -100q-140 -98 -232.5 -256.5t-92.5 -265.5zM1366 301l10 -68q-88 -125 -205 -192.5t-247 -67.5q-57 0 -105.5 16t-87 49t-61 89.5t-23.5 130.5q0 33 2 47h-6
q-107 -142 -236 -237t-233 -95q-70 0 -107.5 49.5t-37.5 127.5q0 58 22.5 129t67 150.5t123 160.5t178.5 143q125 77 262 107t305 22q106 62 217 62q97 0 152 -55t57 -132q0 -72 -29 -129q-17 -33 -73 -67q-47 -28 -188 -75.5t-296 -68.5q-17 -67 -12 -133q3 -80 45 -134
t127 -54q105 0 202.5 66.5t172.5 158.5h4zM1182 854h-2q-90 0 -190 -110.5t-148 -272.5q125 15 235 53q110 37 148 86q41 57 41 146q0 98 -84 98zM840 1014l-41 41l229 323q37 4 85 -5.5t77 -26.5v-23z" />
    <glyph glyph-name="Oslashacute" unicode="&#x1fe;" horiz-adv-x="1511" 
d="M1280 1264l131 155l55 -47l-135 -155q148 -158 148 -437q0 -114 -31.5 -228t-97 -220t-157 -187.5t-222 -130.5t-281.5 -49q-94 0 -187 31t-167 92l-162 -188l-49 53l160 184q-142 159 -142 418q0 120 37.5 240.5t109 225t167.5 186t221.5 128.5t261.5 47q195 0 340 -118
zM395 256l795 918q-91 135 -254 135q-108 0 -205 -47.5t-167 -126.5t-122 -179t-78 -208t-26 -211q0 -154 51 -277zM1227 1102l-799 -918q44 -70 115 -108.5t155 -38.5q103 0 197 46.5t163.5 125.5t121 179t78 209.5t26.5 215.5q0 163 -53 285zM877 1466l-31 52l315 217
q33 -4 70.5 -32.5t58.5 -62.5l-4 -26z" />
    <glyph glyph-name="oslashacute" unicode="&#x1ff;" horiz-adv-x="983" 
d="M788 870l91 115l41 -51l-89 -109q35 -40 55.5 -104t20.5 -137q0 -114 -42 -225t-113 -196t-172.5 -137.5t-212.5 -52.5q-102 0 -177 60l-92 -115l-41 51l86 107q-32 40 -51.5 103t-19.5 130q0 158 75 300.5t201.5 228.5t267.5 86q103 0 172 -54zM246 188l463 590
q-30 78 -113 78q-84 0 -159 -68.5t-120 -170t-66 -217.5t-7 -210zM733 705l-459 -586q37 -78 105 -78q85 0 161 71t121.5 173.5t66.5 216t7 198.5zM573 1014l-41 41l230 323q37 4 85 -5.5t77 -26.5v-23z" />
    <glyph glyph-name="Scommaaccent" unicode="&#x218;" horiz-adv-x="1021" 
d="M672 1382h2q145 0 225 -77q79 41 139 61l21 -8q-7 -38 -52 -163.5t-67 -158.5l-31 -8q-13 55 -32 203q-17 24 -67.5 45.5t-119.5 21.5q-126 0 -200 -71t-74 -176q0 -112 98 -197q32 -28 115 -93.5t133 -105.5q83 -68 120.5 -135.5t37.5 -150.5q0 -174 -135 -289
t-345 -115q-132 0 -246 52.5t-178 119.5q9 32 57.5 130.5t76.5 133.5l28 7q6 -25 10.5 -81t7.5 -130t5 -99q31 -20 91 -33.5t124 -13.5q155 0 238 78t83 188q0 114 -112 209q-188 156 -224 187q-149 126 -149 284q0 173 122.5 279t297.5 106zM262 -471l-31 43q99 74 109 137
q6 39 -14 62l-37 30l4 31l110 62h23q53 -33 47 -130q-5 -71 -63 -136t-148 -99z" />
    <glyph glyph-name="scommaaccent" unicode="&#x219;" horiz-adv-x="731" 
d="M494 924h2q58 0 115 -18t85 -44q-10 -41 -41.5 -108.5t-52.5 -94.5l-31 -10q-16 107 -26 193q-20 12 -66 12q-80 0 -131 -44.5t-51 -107.5q0 -50 32.5 -88.5t116.5 -103.5q96 -74 132 -131.5t36 -126.5q0 -113 -97 -196t-257 -83q-87 0 -168.5 36.5t-111.5 70.5
q45 110 114 213l29 8q22 -108 31 -233q47 -21 102 -21q93 0 148 45t55 111q0 45 -29 84t-100 96q-100 77 -137 137t-37 125q0 128 101 203.5t237 75.5zM113 -457l-31 43q97 73 108 138q6 38 -14 61l-37 31l4 30l111 62h22q54 -33 48 -129q-5 -71 -63 -137t-148 -99z" />
    <glyph glyph-name="uni021A" unicode="&#x21a;" horiz-adv-x="1310" 
d="M461 1348h848q68 14 174 26l12 -4q-40 -116 -149 -346l-33 -10q-16 174 -19 262l-333 -16l-134 -519q-116 -436 -153 -635l237 -63l-26 -45q-55 0 -165 1t-165 1q-54 0 -162.5 -1t-163.5 -1l23 45l219 63q34 90 162 576l151 578l-335 16q-135 -180 -197 -252l-39 -8
q9 33 30 113t38.5 144t27.5 95l6 6q18 0 68 -8.5t78 -17.5zM410 -449l-31 43q97 73 108 138q6 38 -14 61l-37 31l4 31l111 61h22q54 -33 48 -129q-5 -71 -63 -137t-148 -99z" />
    <glyph glyph-name="uni021B" unicode="&#x21b;" 
d="M375 1098l178 110l12 -10l-90 -301h268l-41 -66l-253 -26q-122 -405 -195 -725l2 -2q87 10 180.5 75t171.5 162l10 -39q-29 -77 -74 -135.5t-89 -89t-94 -49.5t-82.5 -24t-61.5 -5q-152 0 -111 172q40 168 183 660l-162 26l39 66h149zM119 -461l-31 43q99 74 109 137
q6 38 -15 62l-37 31l5 30l110 62h23q53 -33 47 -129q-5 -71 -63 -137t-148 -99z" />
    <glyph glyph-name="circumflex" unicode="&#x2c6;" horiz-adv-x="790" 
d="M621 1401l53 12l125 -352l-58 -37l-129 207l-231 -207l-47 43z" />
    <glyph glyph-name="caron" unicode="&#x2c7;" horiz-adv-x="790" 
d="M588 1038l-56 -12l-120 352l51 35l131 -205l235 205l43 -41z" />
    <glyph glyph-name="uni02C9" unicode="&#x2c9;" horiz-adv-x="790" 
d="M807 1133h-438l45 110h438z" />
    <glyph glyph-name="breve" unicode="&#x2d8;" horiz-adv-x="790" 
d="M436 1339l68 9q-9 -164 108 -164q41 0 73.5 14.5t56 43.5t34 47t25.5 50l65 9q-55 -287 -270 -287q-61 0 -101 23.5t-54.5 62t-16.5 88.5t12 104z" />
    <glyph glyph-name="dotaccent" unicode="&#x2d9;" horiz-adv-x="790" 
d="M643 1333h12q16 -14 37.5 -56t24.5 -67l-2 -10q-13 -25 -58 -65.5t-69 -49.5h-10q-20 17 -41.5 55.5t-30.5 73.5l2 7q33 42 72 72t63 40z" />
    <glyph glyph-name="ring" unicode="&#x2da;" horiz-adv-x="790" 
d="M588 1104h2q41 0 71.5 25.5t40.5 78.5q10 54 -11.5 81.5t-63.5 27.5q-41 0 -73 -27.5t-42 -81.5q-9 -53 13 -78.5t63 -25.5zM639 1386h2q72 0 117.5 -48.5t29.5 -129.5q-14 -81 -76 -128.5t-134 -47.5q-74 0 -121 48t-31 128q14 82 77 130t136 48z" />
    <glyph glyph-name="ogonek" unicode="&#x2db;" horiz-adv-x="790" 
d="M514 -240l16 -53q-91 -98 -204 -98q-67 0 -108.5 38.5t-41.5 96.5q0 69 62 133.5t168 134.5h75q-170 -153 -170 -225q0 -63 80 -63q56 0 123 36z" />
    <glyph glyph-name="tilde" unicode="&#x2dc;" horiz-adv-x="790" 
d="M874 1282l39 -37q-59 -83 -110.5 -121.5t-89.5 -38.5q-34 0 -119 45q-75 37 -100 37q-49 0 -134 -88l-43 43q122 158 209 158q36 0 109 -39q73 -41 106 -43q55 0 133 84z" />
    <glyph glyph-name="hungarumlaut" unicode="&#x2dd;" horiz-adv-x="790" 
d="M373 1016l-45 45l192 319q81 3 156 -28v-25zM686 1016l-43 45l197 319q35 2 78.5 -6.5t72.5 -21.5v-25z" />
    <glyph glyph-name="uni037E" unicode="&#x37e;" horiz-adv-x="448" 
d="M295 879h12q19 -18 46.5 -66t33.5 -76l-2 -12q-13 -28 -65 -74t-80 -57h-13q-23 20 -50.5 64.5t-37.5 82.5l2 7q35 49 80 84t74 47zM-57 -246l-33 49q84 57 138 131t54 146q0 31 -8 47l-86 57l2 27l148 100h22q24 -8 50 -54t26 -116q0 -119 -86 -222.5t-227 -164.5z" />
    <glyph glyph-name="tonos" unicode="&#x384;" horiz-adv-x="790" 
d="M479 1014l-41 30l156 336q37 5 89 -5t81 -27v-23z" />
    <glyph glyph-name="dieresistonos" unicode="&#x385;" horiz-adv-x="790" 
d="M383 1307h10q15 -12 38.5 -52t27.5 -63v-10q-12 -25 -54.5 -64.5t-66.5 -48.5h-10q-20 18 -42.5 55.5t-31.5 69.5l2 4q32 42 69 72t58 37zM537 1026l-56 31l127 344q33 2 80.5 -9t77.5 -28v-23zM877 1307h10q15 -12 38 -52t27 -63l-4 -10q-12 -25 -53 -64.5t-64 -48.5
h-10q-21 18 -44 55t-32 70l3 4q31 42 69 72t60 37z" />
    <glyph glyph-name="Alphatonos" unicode="&#x386;" horiz-adv-x="1386" 
d="M807 1292l162 99l12 -11q-15 -55 -10 -145q6 -124 125 -1063q20 -57 49 -77t121 -46l-17 -51q-38 0 -113.5 1t-113.5 1q-34 0 -106 -1t-109 -1l10 41l103 57q-2 36 -7.5 89t-15.5 143.5t-16 154.5q-158 -14 -461 -10q-169 -266 -223 -360l170 -68l-15 -47q-40 0 -122.5 1
t-123.5 1q-35 0 -104 -1t-104 -1l16 47l149 66q42 54 150 216.5t304.5 464t273.5 418.5q18 30 18 56zM819 1112h-6q-80 -129 -151 -244t-108.5 -175t-74.5 -120q40 0 195 -4t200 -4q-3 30 -55 547zM293 1044l-41 31l156 336q37 4 89 -6t81 -27v-22z" />
    <glyph glyph-name="anoteleia" unicode="&#x387;" horiz-adv-x="790" 
d="M446 1329h9q16 -11 39.5 -51.5t29.5 -65.5l-4 -10q-10 -25 -53 -63.5t-68 -48.5h-10q-21 19 -44.5 56.5t-31.5 70.5l2 4q31 41 69 69.5t62 38.5zM827 1329h11q15 -12 38 -52.5t29 -64.5l-4 -10q-11 -25 -53.5 -63.5t-65.5 -48.5h-12q-21 19 -44.5 56.5t-31.5 70.5l2 4
q32 41 69 70t62 38z" />
    <glyph glyph-name="Epsilontonos" unicode="&#x388;" horiz-adv-x="1169" 
d="M283 1307l20 43q43 0 124 -1t120 -1h506q103 21 159 18l9 -8q-10 -40 -42.5 -148t-52.5 -155l-30 -13q-11 35 -30 122.5t-24 107.5l-405 -17l-131 -510q335 0 520 23l8 -25q-13 -17 -71.5 -61.5t-67.5 -44.5q-7 0 -193 9t-223 9q-116 -456 -139 -557l475 -24
q30 29 116 114t132 127l29 -18q-12 -41 -55.5 -143.5t-78.5 -159.5q-193 6 -430 6h-317q-44 0 -133 -1t-133 -1l18 47l187 61q40 114 165 596l144 545zM-70 1044l-41 31l156 336q37 4 89 -6t81 -27v-22z" />
    <glyph glyph-name="Etatonos" unicode="&#x389;" horiz-adv-x="1527" 
d="M291 1303l28 47q37 0 113 -1t115 -1q35 0 105 1t102 1l-15 -47l-114 -64l-121 -469h678l123 471l-93 68l19 41q28 0 82 -1t80 -1q47 0 139 1t137 1l-20 -47l-168 -64q-34 -109 -144 -541q-47 -185 -91.5 -377t-43.5 -208l168 -64l-24 -51q-42 0 -132 1t-137 1
q-33 0 -100 -1t-103 -1l21 49l111 64q35 120 88 327.5t65 253.5q-127 -18 -338 -18h-340q-102 -379 -141 -568l94 -63l-14 -45q-33 0 -98 1t-99 1q-42 0 -131.5 -1t-136.5 -1l22 49l164 62q13 28 72 230t102 374l136 530zM-70 1044l-41 31l156 336q37 4 89 -6t81 -27v-22z
" />
    <glyph glyph-name="Iotatonos" unicode="&#x38a;" horiz-adv-x="675" 
d="M311 1305l19 45q38 0 112.5 -1t112.5 -1q41 0 124.5 1t125.5 1l-17 -45l-153 -62l-143 -541q-55 -209 -99 -390t-47 -208l172 -59l-26 -47q-41 0 -130 1t-135 1q-44 0 -133.5 -1t-138.5 -1l20 47l168 59q24 52 172 598l146 541zM-35 1044l-41 31l156 336q37 4 89 -6
t81 -27v-22z" />
    <glyph glyph-name="Omicrontonos" unicode="&#x38c;" horiz-adv-x="1513" 
d="M942 1382h2q71 0 142 -18.5t143 -63.5t127 -111.5t89.5 -172.5t35.5 -236q0 -116 -31.5 -231t-97.5 -220.5t-158 -186.5t-222 -129t-280 -48q-81 0 -158 20.5t-148.5 66.5t-125 112.5t-85.5 167.5t-32 223q0 154 59.5 303t162.5 265t254.5 187.5t322.5 71.5zM932 1307h-2
q-107 0 -202.5 -46.5t-165 -125t-120.5 -178.5t-76.5 -208.5t-25.5 -213.5q0 -243 100.5 -370.5t266.5 -127.5q102 0 194.5 47t161 126.5t119.5 180t76.5 211t25.5 217.5q0 125 -28.5 221.5t-78.5 153t-112 85t-133 28.5zM33 1044l-41 31l155 336q37 4 89 -6t81 -27v-22z
" />
    <glyph glyph-name="Upsilontonos" unicode="&#x38e;" horiz-adv-x="1376" 
d="M324 45l211 66q49 145 110 391q40 165 47 297.5t-21 234t-103 156.5t-195 55q-77 0 -160 -20l4 49q162 94 299 94q73 0 128.5 -23.5t89.5 -62.5t55 -95t27.5 -116.5t3 -131t-13 -134.5t-24.5 -131h21q32 106 79 206t110 188.5t134.5 155t156.5 105.5t171 39q24 0 61 -31
t58 -65l-12 -35q-20 4 -60 4q-149 0 -284.5 -90t-235.5 -249.5t-152 -364.5q-63 -254 -96 -426l207 -64l-25 -49q-45 0 -149 2t-160 2q-50 0 -152.5 -2t-152.5 -2zM-125 1044l-41 31l156 336q37 4 89 -6t81 -27v-22z" />
    <glyph glyph-name="Omegatonos" unicode="&#x38f;" horiz-adv-x="1697" 
d="M627 0h-570q-11 90 -32 291l47 8q17 -28 47 -82t43 -76h336l2 11q-102 82 -173 212t-71 295q0 159 59 296t159 231t233 147t280 53q260 0 414.5 -157.5t152.5 -419.5q-1 -94 -26 -179t-67 -152t-103.5 -128.5t-126.5 -107.5t-144 -90v-11h291q12 10 76.5 66.5t99.5 85.5
l56 6q-88 -176 -160 -299h-588l49 119q195 95 322 286t127 437q0 224 -106.5 347.5t-266.5 123.5q-103 0 -192 -39t-152.5 -107t-109 -157t-67.5 -190.5t-22 -207.5q0 -170 54 -296t123 -197zM80 1044l-41 31l156 336q37 4 89 -6t81 -27v-22z" />
    <glyph glyph-name="iotadieresistonos" unicode="&#x390;" horiz-adv-x="575" 
d="M459 924l4 -6q-173 -568 -242 -844l2 -2q29 7 65 31.5t78 68t61 64t56 63.5l17 -18q-6 -45 -31 -96.5t-65 -99.5t-101 -80t-129 -32q-38 0 -61.5 22t-32 73.5t15.5 136.5q9 31 39 135t71.5 248.5t84.5 292.5q30 15 80.5 28.5t87.5 14.5zM276 1307h11q15 -12 38 -52
t27 -63v-10q-12 -25 -54.5 -64.5t-66.5 -48.5h-10q-20 18 -42.5 55.5t-31.5 69.5l3 4q32 42 69 72t57 37zM430 1026l-55 31l127 344q33 2 80 -9t77 -28v-23zM770 1307h10q15 -12 38.5 -52t27.5 -63l-4 -10q-12 -25 -53 -64.5t-64 -48.5h-10q-21 18 -44 55t-32 70l2 4
q31 42 69 72t60 37z" />
    <glyph glyph-name="Alpha" unicode="&#x391;" horiz-adv-x="1386" 
d="M807 1292l162 99l12 -11q-15 -55 -10 -145q6 -124 125 -1063q20 -57 49 -77t121 -46l-17 -51q-38 0 -113.5 1t-113.5 1q-34 0 -106 -1t-109 -1l10 41l103 57q-2 36 -7.5 89t-15.5 143.5t-16 154.5q-158 -14 -461 -10q-169 -266 -223 -360l170 -68l-15 -47q-40 0 -122.5 1
t-123.5 1q-35 0 -104 -1t-104 -1l16 47l149 66q42 54 150 216.5t304.5 464t273.5 418.5q18 30 18 56zM819 1112h-6q-80 -129 -151 -244t-108.5 -175t-74.5 -120q40 0 195 -4t200 -4q-3 30 -55 547z" />
    <glyph glyph-name="Beta" unicode="&#x392;" horiz-adv-x="1241" 
d="M287 1290l24 43q238 27 418 27q103 0 182.5 -14t145.5 -46.5t101.5 -92.5t35.5 -146q0 -73 -34 -133t-92.5 -100t-129.5 -65.5t-154 -37.5l-2 -6q171 -28 264 -108.5t93 -209.5q-1 -198 -189.5 -303t-519.5 -102q-180 2 -477 6l16 47l178 57q23 48 140 484l174 663z
M643 1290l-139 -540q236 2 369 82t133 233q0 121 -87 173t-253 52h-23zM487 680q-10 -40 -47.5 -179t-61.5 -234t-46 -193q152 -5 275 16.5t190 67.5q138 94 141 248q2 137 -102 207t-349 67z" />
    <glyph glyph-name="Gamma" unicode="&#x393;" horiz-adv-x="1036" 
d="M287 1303l26 47q39 0 117 -1t117 -1h479q19 5 83.5 15t90.5 11l8 -10q-59 -201 -110 -313l-35 -15q-33 191 -39 240l-389 -21l-162 -628q-108 -415 -125 -514l211 -66l-24 -49q-49 0 -153.5 2t-158.5 2q-42 0 -127 -2t-127 -2l17 47l164 68q33 80 163 585l146 551z" />
    <glyph glyph-name="uni0394" unicode="&#x394;" horiz-adv-x="1312" 
d="M786 1307l152 90l14 -8q-18 -54 -12 -115q10 -113 86 -592t100 -610l-8 -78q-34 0 -102.5 3t-102.5 3h-759q-47 0 -115 -3t-80 -3l37 88q128 193 382 569.5t380 565.5q25 42 28 61v29zM537 92h2q291 0 405 21q-137 911 -147 1015h-6q-478 -745 -648 -1015
q117 -21 394 -21z" />
    <glyph glyph-name="Epsilon" unicode="&#x395;" horiz-adv-x="1169" 
d="M283 1307l20 43q43 0 124 -1t120 -1h506q103 21 159 18l9 -8q-10 -40 -42.5 -148t-52.5 -155l-30 -13q-11 35 -30 122.5t-24 107.5l-405 -17l-131 -510q335 0 520 23l8 -25q-13 -17 -71.5 -61.5t-67.5 -44.5q-7 0 -193 9t-223 9q-116 -456 -139 -557l475 -24
q30 29 116 114t132 127l29 -18q-12 -41 -55.5 -143.5t-78.5 -159.5q-193 6 -430 6h-317q-44 0 -133 -1t-133 -1l18 47l187 61q40 114 165 596l144 545z" />
    <glyph glyph-name="Zeta" unicode="&#x396;" horiz-adv-x="1298" 
d="M1360 1348l-2 -33q-86 -91 -453 -502t-637 -721v-4q540 -12 676 -12q27 30 122.5 138.5t127.5 143.5l33 -4q-23 -80 -61.5 -192.5t-61.5 -169.5q-4 0 -403 4t-705 4l-14 25q66 74 492.5 545.5t617.5 684.5v5q-76 1 -295 5t-320 5q-70 -112 -170 -248l-37 -12
q48 327 56 358l10 8q38 -7 73 -13.5t52.5 -10t23.5 -4.5h875z" />
    <glyph glyph-name="Eta" unicode="&#x397;" horiz-adv-x="1527" 
d="M291 1303l28 47q37 0 113 -1t115 -1q35 0 105 1t102 1l-15 -47l-114 -64l-121 -469h678l123 471l-93 68l19 41q28 0 82 -1t80 -1q47 0 139 1t137 1l-20 -47l-168 -64q-34 -109 -144 -541q-47 -185 -91.5 -377t-43.5 -208l168 -64l-24 -51q-42 0 -132 1t-137 1
q-33 0 -100 -1t-103 -1l21 49l111 64q35 120 88 327.5t65 253.5q-127 -18 -338 -18h-340q-102 -379 -141 -568l94 -63l-14 -45q-33 0 -98 1t-99 1q-42 0 -131.5 -1t-136.5 -1l22 49l164 62q13 28 72 230t102 374l136 530z" />
    <glyph glyph-name="Theta" unicode="&#x398;" horiz-adv-x="1511" 
d="M678 770h303l123 133l49 6l-145 -420l-45 -4l-27 136h-299l-115 -132l-51 -4l145 418l43 6zM938 1382h2q71 0 142.5 -18.5t144 -63.5t128 -112t90.5 -173t36 -237q0 -115 -31.5 -230t-96.5 -220t-156.5 -186t-221.5 -129t-281 -48q-81 0 -158 20.5t-149 67t-125.5 113.5
t-86 168t-32.5 223q0 154 58.5 302t160.5 264t253 187.5t323 71.5zM928 1309h-2q-107 0 -202 -47t-164 -125.5t-119.5 -178.5t-75.5 -209t-25 -214q0 -239 103.5 -368.5t267.5 -129.5q103 0 195.5 47.5t160 126.5t117.5 180.5t75 211.5t25 216q0 125 -29.5 221t-80 153.5
t-113 86.5t-133.5 29z" />
    <glyph glyph-name="Iota" unicode="&#x399;" horiz-adv-x="675" 
d="M311 1305l19 45q38 0 112.5 -1t112.5 -1q41 0 124.5 1t125.5 1l-17 -45l-153 -62l-143 -541q-55 -209 -99 -390t-47 -208l172 -59l-26 -47q-41 0 -130 1t-135 1q-44 0 -133.5 -1t-138.5 -1l20 47l168 59q24 52 172 598l146 541z" />
    <glyph glyph-name="Kappa" unicode="&#x39a;" horiz-adv-x="1351" 
d="M1552 1348l-24 -48q-23 -7 -67 -17.5t-96.5 -23t-70.5 -16.5q-36 -9 -75 -43q-142 -119 -504 -459v-4q97 -159 327 -499q44 -63 81.5 -115t67.5 -92t34 -45l-19 -17q-82 7 -141.5 31.5t-99.5 60t-84 95.5q-62 83 -161 231t-181 287l4 14q271 251 396 370.5t198 198.5
q-6 17 -13 57l-8 40q74 3 151.5 3t124 -1.5t99 -4.5t61.5 -3zM305 1305l21 45q38 0 115 -1t116 -1q41 0 123.5 1t124.5 1l-19 -45l-151 -62l-143 -541q-139 -524 -148 -596l174 -61l-24 -47q-43 0 -131 1t-132 1q-46 0 -136 -1t-136 -1l21 47l165 59q14 34 64 206.5
t106 391.5l142 541z" />
    <glyph glyph-name="Lambda" unicode="&#x39b;" horiz-adv-x="1382" 
d="M805 1292l164 99l12 -11q-17 -50 -12 -145q7 -145 123 -1061q20 -55 49 -75.5t121 -47.5l-15 -53q-37 0 -112 1t-113 1q-36 0 -108 -1t-109 -1l6 45l102 55q-2 37 -94 1018h-4q-49 -79 -224 -360t-272.5 -439.5t-121.5 -201.5l170 -68l-15 -49q-40 0 -123.5 1t-124.5 1
q-35 0 -104 -1t-104 -1l14 49l149 68q42 54 147.5 211t310 469t271.5 413q19 30 19 58z" />
    <glyph glyph-name="Mu" unicode="&#x39c;" horiz-adv-x="1892" 
d="M371 1303l22 45h346q-15 -62 -10 -103q12 -70 178 -932h4q41 65 629 953q17 31 23 82h372l-18 -50l-186 -57q-30 -149 -86.5 -569t-73.5 -568l180 -59l-20 -47q-42 0 -128 1t-128 1q-45 0 -135.5 -1t-135.5 -1l19 47l157 57q38 210 101.5 581t83.5 484h-4
q-48 -76 -176 -275t-267.5 -419.5t-296.5 -476.5l-45 -14q-32 221 -174 1105h-4q-29 -77 -106.5 -273t-148 -380.5t-120.5 -327.5l185 -63l-19 -45q-43 0 -132 1t-132 1q-31 0 -96.5 -1t-98.5 -1l15 45l155 70q227 495 463 1083q-7 42 -39.5 59.5t-152.5 47.5z" />
    <glyph glyph-name="Nu" unicode="&#x39d;" horiz-adv-x="1497" 
d="M430 43l-20 -45q-39 0 -121.5 1t-122.5 1q-37 0 -111 -1t-112 -1l16 45l174 70q50 125 311 1044q-11 22 -19 37.5t-19 29t-17.5 21.5t-22 16.5t-24 12.5t-32 10t-37.5 9t-48 10l25 45q55 3 167 7t136 5q6 -45 45 -121q87 -175 263.5 -521t252.5 -499h4q29 112 128.5 514
t123.5 506l-166 66l23 45q41 0 116.5 -1t110.5 -1q40 0 116.5 1t110.5 1l-24 -50l-172 -65q-30 -75 -126 -425t-183 -699l124 -86l-8 -25l-250 -23q-73 135 -542 1080h-4q-72 -265 -151 -575t-89 -371z" />
    <glyph glyph-name="Xi" unicode="&#x39e;" horiz-adv-x="1228" 
d="M141 145h760q74 87 180 185l41 4q-80 -210 -139 -334h-999q16 96 63 328l35 4q10 -30 30.5 -96t28.5 -91zM430 772h465q38 48 121 135l41 6q-51 -194 -123 -407l-41 -6q-23 90 -31 137h-465q-39 -43 -125 -133l-34 -4q55 196 127 407l32 6q20 -76 33 -141zM1118 1212
h-696q-54 -75 -127 -161l-39 -9q59 269 80 328q52 -4 121 -22h696q15 3 41.5 7t58.5 8.5t45 6.5q-31 -100 -114 -309l-35 -14q-20 82 -31 165z" />
    <glyph glyph-name="Omicron" unicode="&#x39f;" horiz-adv-x="1513" 
d="M942 1382h2q71 0 142 -18.5t143 -63.5t127 -111.5t89.5 -172.5t35.5 -236q0 -116 -31.5 -231t-97.5 -220.5t-158 -186.5t-222 -129t-280 -48q-81 0 -158 20.5t-148.5 66.5t-125 112.5t-85.5 167.5t-32 223q0 154 59.5 303t162.5 265t254.5 187.5t322.5 71.5zM932 1307h-2
q-107 0 -202.5 -46.5t-165 -125t-120.5 -178.5t-76.5 -208.5t-25.5 -213.5q0 -243 100.5 -370.5t266.5 -127.5q102 0 194.5 47t161 126.5t119.5 180t76.5 211t25.5 217.5q0 125 -28.5 221.5t-78.5 153t-112 85t-133 28.5z" />
    <glyph glyph-name="Pi" unicode="&#x3a0;" horiz-adv-x="1495" 
d="M455 1241l-160 59l27 50q41 0 122 -1t121 -1h817q45 0 131 1t127 1l-22 -50l-168 -63l-145 -561q-131 -517 -131 -563l169 -64l-26 -51q-46 0 -135.5 1t-134.5 1q-31 0 -95.5 -1t-97.5 -1l20 51l105 64q42 142 145 538l154 600q-100 17 -328 17q-215 0 -319 -17
l-152 -594q-117 -452 -137 -540l88 -72l-22 -47q-32 0 -93.5 1t-91.5 1q-43 0 -128.5 -1t-127.5 -1l25 49l153 62q13 37 68 227.5t96 347.5z" />
    <glyph glyph-name="Rho" unicode="&#x3a1;" horiz-adv-x="1157" 
d="M279 1286l24 45q251 29 399 29q84 0 155 -11.5t136.5 -39t111 -70.5t72.5 -110t27 -154q0 -105 -45 -191.5t-120.5 -142t-171 -85.5t-199.5 -30q-56 0 -105 17l-6 49q203 10 330 109.5t127 287.5q0 84 -32 144.5t-87.5 92t-119.5 45t-138 11.5l-139 -555
q-146 -585 -150 -616l211 -66l-22 -47q-46 0 -148.5 1t-155.5 1q-45 0 -135 -1t-135 -1l14 45l170 68q25 60 170 610l144 532z" />
    <glyph glyph-name="Sigma" unicode="&#x3a3;" horiz-adv-x="1228" 
d="M506 1348h616q20 5 78.5 12.5t93.5 7.5l9 -8q-5 -21 -40.5 -134.5t-56.5 -172.5l-32 -13q-28 99 -54 238l-610 -16v-5l276 -528l-6 -20l-575 -562v-4h682q30 29 81.5 80t88 87t59.5 57l31 -25q-81 -209 -160 -342h-1032q27 60 57 94l606 576v4l-329 639l30 37
q26 0 89.5 -1t97.5 -1z" />
    <glyph glyph-name="Tau" unicode="&#x3a4;" horiz-adv-x="1310" 
d="M461 1348h848q68 14 174 26l12 -4q-40 -116 -149 -346l-33 -10q-16 174 -19 262l-333 -16l-134 -519q-116 -436 -153 -635l237 -63l-26 -45q-55 0 -165 1t-165 1q-54 0 -162.5 -1t-163.5 -1l23 45l219 63q34 90 162 576l151 578l-335 16q-135 -180 -197 -252l-39 -8
q9 33 30 113t38.5 144t27.5 95l6 6q18 0 68 -8.5t78 -17.5z" />
    <glyph glyph-name="Upsilon" unicode="&#x3a5;" horiz-adv-x="1376" 
d="M324 45l211 66q49 145 110 391q40 165 47 297.5t-21 234t-103 156.5t-195 55q-77 0 -160 -20l4 49q162 94 299 94q73 0 128.5 -23.5t89.5 -62.5t55 -95t27.5 -116.5t3 -131t-13 -134.5t-24.5 -131h21q32 106 79 206t110 188.5t134.5 155t156.5 105.5t171 39q24 0 61 -31
t58 -65l-12 -35q-20 4 -60 4q-149 0 -284.5 -90t-235.5 -249.5t-152 -364.5q-63 -254 -96 -426l207 -64l-25 -49q-45 0 -149 2t-160 2q-50 0 -152.5 -2t-152.5 -2z" />
    <glyph glyph-name="Phi" unicode="&#x3a6;" horiz-adv-x="1609" 
d="M934 1272l-137 53l20 45q36 0 106 -2t105 -2q37 0 112.5 2t112.5 2l-16 -49l-137 -49l-19 -68q73 -10 139.5 -32.5t131 -63t111.5 -94t75.5 -130.5t28.5 -169q0 -119 -42 -214t-112.5 -158t-169.5 -105.5t-206.5 -62t-229.5 -21.5l-12 -58l155 -51l-24 -47
q-35 0 -113.5 2t-118.5 2t-124.5 -2t-123.5 -2l23 47l147 51l23 74q-102 15 -185.5 48t-153 87.5t-108 139t-38.5 192.5q0 117 43 215t116 165t172 114t208.5 68.5t226.5 21.5zM657 242l246 909q-252 -6 -405.5 -148.5t-153.5 -361.5q0 -308 313 -399zM1063 1141l-238 -918
q265 15 409 146.5t144 351.5q0 335 -315 420z" />
    <glyph glyph-name="Chi" unicode="&#x3a7;" horiz-adv-x="1343" 
d="M248 1303l22 47q44 0 128 -2t124 -2q32 0 94.5 2t92.5 2l-19 -50l-65 -53q29 -87 57 -164.5t54.5 -149.5t37.5 -104h6q9 11 70.5 83.5t85.5 101.5t76.5 96t103.5 137l-57 56l20 47q20 0 68.5 -2t71.5 -2q41 0 120 2t121 2l-22 -50l-201 -69q-151 -154 -432 -481
q135 -389 233 -641l201 -68l-25 -43q-44 0 -133.5 1t-134.5 1q-28 0 -86 -1t-86 -1l70 102q-24 104 -168 498h-6q-42 -51 -123 -148.5t-142 -173.5t-133 -172l103 -63l-23 -43q-30 0 -94 1t-96 1q-39 0 -118 -1t-118 -1l21 43l188 72q125 121 508 575q-72 210 -201 549z" />
    <glyph glyph-name="Psi" unicode="&#x3a8;" horiz-adv-x="1531" 
d="M901 1241l-143 62l18 47q38 0 116.5 -1t117.5 -1q42 0 120 1t117 1l-18 -47l-154 -62l-164 -614q103 9 183 39q79 30 130 88.5t89 167.5q8 23 21 58t19.5 53t16.5 45.5t15.5 42t13.5 34t13 31t11.5 25t12 23t10.5 17.5q48 55 129 82.5t168 30.5v-41q-99 -69 -127 -96
q-28 -44 -58.5 -108t-99.5 -236q-44 -109 -120.5 -177.5t-207.5 -107.5q-100 -30 -235 -39q-80 -301 -115 -450l187 -62l-23 -49q-44 0 -137.5 1t-144.5 1q-48 0 -142 -1t-133 -1l19 49l184 59q20 66 129 455q-149 18 -234 66q-88 49 -124 123.5t-27 187.5q18 252 16 293
q-7 14 -23 30.5t-29 27t-42 32.5l20 43q81 0 155 -31t104 -82q0 -19 -5 -61t-14 -117.5t-16 -150.5q-9 -93 11.5 -145.5t70.5 -88.5q51 -40 153 -59z" />
    <glyph glyph-name="uni03A9" unicode="&#x3a9;" horiz-adv-x="1697" 
d="M627 0h-570q-11 90 -32 291l47 8q17 -28 47 -82t43 -76h336l2 11q-102 82 -173 212t-71 295q0 159 59 296t159 231t233 147t280 53q260 0 414.5 -157.5t152.5 -419.5q-1 -94 -26 -179t-67 -152t-103.5 -128.5t-126.5 -107.5t-144 -90v-11h291q12 10 76.5 66.5t99.5 85.5
l56 6q-88 -176 -160 -299h-588l49 119q195 95 322 286t127 437q0 224 -106.5 347.5t-266.5 123.5q-103 0 -192 -39t-152.5 -107t-109 -157t-67.5 -190.5t-22 -207.5q0 -170 54 -296t123 -197z" />
    <glyph glyph-name="Iotadieresis" unicode="&#x3aa;" horiz-adv-x="675" 
d="M311 1305l19 45q38 0 112.5 -1t112.5 -1q41 0 124.5 1t125.5 1l-17 -45l-153 -62l-143 -541q-55 -209 -99 -390t-47 -208l172 -59l-26 -47q-41 0 -130 1t-135 1q-44 0 -133.5 -1t-138.5 -1l20 47l168 59q24 52 172 598l146 541zM449 1700h12q18 -16 41.5 -56.5
t27.5 -66.5l-2 -10q-12 -25 -56.5 -65.5t-68.5 -49.5h-12q-21 18 -45 56.5t-33 70.5l2 6q55 74 134 115zM846 1700h10q16 -16 40 -57t30 -66l-2 -10q-12 -25 -56.5 -65.5t-68.5 -49.5h-11q-22 18 -46 56t-33 71l2 6q58 78 135 115z" />
    <glyph glyph-name="Upsilondieresis" unicode="&#x3ab;" horiz-adv-x="1376" 
d="M324 45l211 66q49 145 110 391q40 165 47 297.5t-21 234t-103 156.5t-195 55q-77 0 -160 -20l4 49q162 94 299 94q73 0 128.5 -23.5t89.5 -62.5t55 -95t27.5 -116.5t3 -131t-13 -134.5t-24.5 -131h21q32 106 79 206t110 188.5t134.5 155t156.5 105.5t171 39q24 0 61 -31
t58 -65l-12 -35q-20 4 -60 4q-149 0 -284.5 -90t-235.5 -249.5t-152 -364.5q-63 -254 -96 -426l207 -64l-25 -49q-45 0 -149 2t-160 2q-50 0 -152.5 -2t-152.5 -2zM821 1700h13q18 -16 41.5 -56.5t27.5 -66.5l-2 -10q-12 -25 -56.5 -65.5t-68.5 -49.5h-12q-21 18 -45 56.5
t-33 70.5l2 6q55 74 133 115zM1219 1700h10q16 -16 39.5 -57t29.5 -66l-2 -10q-12 -25 -56.5 -65.5t-68.5 -49.5h-10q-22 18 -46.5 56t-33.5 71l2 6q57 77 136 115z" />
    <glyph glyph-name="alphatonos" unicode="&#x3ac;" horiz-adv-x="1122" 
d="M934 909l158 23l6 -35l-107 -109q-42 -58 -192 -282q0 -254 18 -404q14 2 30.5 8.5t30 14.5t29.5 21.5t27 23t26 25.5t21 23l18 21t13 15l16 -49q-26 -94 -114 -163t-195 -69q-31 0 -57 11q-4 42 -5 98.5t-1 122.5t-1 94h-8q-230 -326 -409 -326q-83 0 -132 76t-49 197
q0 162 72.5 319t196.5 258t260 101q101 0 150 -69.5t52 -227.5h7q31 52 54.5 99.5t49.5 105.5t35 77zM317 106h2q122 0 334 312q5 220 -17.5 322t-96.5 102q-68 0 -128 -56.5t-98 -142.5t-60 -181t-22 -177q0 -83 23 -131t63 -48zM627 1014l-41 30l155 336q37 5 89 -5
t81 -27v-23z" />
    <glyph glyph-name="epsilontonos" unicode="&#x3ad;" horiz-adv-x="843" 
d="M748 664l-41 -15q-28 113 -37 182q-44 19 -99 19q-98 0 -164.5 -53t-66.5 -140q0 -59 37 -93t98 -42q134 25 199 25l4 -27q-37 -59 -103 -102q-15 1 -31.5 4.5t-45.5 11t-43 10.5q-107 -9 -169.5 -59.5t-62.5 -132.5q0 -71 59 -124t167 -56q51 -3 88 12q143 123 211 166
l14 -47q-21 -49 -71 -103t-87 -77q-137 -50 -233 -50q-153 0 -242.5 69t-89.5 179q0 192 278 250l2 4q-58 13 -101.5 59t-43.5 115q0 127 108.5 201t272.5 74q95 0 163.5 -28t104.5 -62q-39 -107 -75 -170zM535 1014l-41 30l155 336q37 5 89 -5t81 -27v-23z" />
    <glyph glyph-name="etatonos" unicode="&#x3ae;" horiz-adv-x="1079" 
d="M225 0l-159 -16q35 98 123.5 423.5t93.5 372.5l-136 15l15 43q48 24 159 55.5t154 32.5l4 -4q-4 -22 -24 -89t-59.5 -199t-69.5 -235h6q255 392 493 494q76 31 152 31q44 0 54 -22t-11 -95q-218 -733 -305 -1071l-17 -156q-26 -22 -94 -46.5t-108 -27.5l-13 13
q159 507 369 1237q4 27 -1 38t-20 11q-74 0 -208 -139.5t-228 -292.5q-59 -94 -93 -171.5t-77 -201.5zM651 1014l-41 30l156 336q37 5 89 -5t81 -27v-23z" />
    <glyph glyph-name="iotatonos" unicode="&#x3af;" horiz-adv-x="575" 
d="M459 924l4 -6q-173 -568 -242 -844l2 -2q29 7 65 31.5t78 68t61 64t56 63.5l17 -18q-6 -45 -31 -96.5t-65 -99.5t-101 -80t-129 -32q-38 0 -61.5 22t-32 73.5t15.5 136.5q9 31 39 135t71.5 248.5t84.5 292.5q30 15 80.5 28.5t87.5 14.5zM373 1014l-41 30l155 336
q37 5 89 -5t81 -27v-23z" />
    <glyph glyph-name="upsilondieresistonos" unicode="&#x3b0;" horiz-adv-x="978" 
d="M121 686l4 47q53 86 151 138.5t183 52.5q23 0 35 -6q-7 -28 -71 -241.5t-120 -422.5q-14 -60 10 -98q17 -30 51 -47t74 -17q76 0 140.5 36t106.5 92.5t72 128.5t44 141.5t16 134.5q-35 95 -82 229l4 14q30 26 78.5 46t77.5 20q17 -26 29 -82.5t12 -126.5
q-1 -136 -48 -272t-123 -242t-181.5 -172t-216.5 -66q-105 0 -177 72q-79 79 -51 193q26 98 52.5 191t65 220t40.5 133q-92 -29 -176 -96zM475 1307h10q15 -12 38.5 -52t27.5 -63v-10q-12 -25 -54.5 -64.5t-66.5 -48.5h-10q-20 18 -42.5 55.5t-31.5 69.5l2 4q32 42 69 72
t58 37zM629 1026l-56 31l127 344q33 2 80.5 -9t77.5 -28v-23zM969 1307h10q15 -12 38 -52t27 -63l-4 -10q-12 -25 -52.5 -64.5t-63.5 -48.5h-11q-21 18 -43.5 55t-31.5 70l2 4q31 42 69 72t60 37z" />
    <glyph glyph-name="alpha" unicode="&#x3b1;" horiz-adv-x="1122" 
d="M934 909l158 23l6 -35l-107 -109q-42 -58 -192 -282q0 -254 18 -404q14 2 30.5 8.5t30 14.5t29.5 21.5t27 23t26 25.5t21 23l18 21t13 15l16 -49q-26 -94 -114 -163t-195 -69q-31 0 -57 11q-4 42 -5 98.5t-1 122.5t-1 94h-8q-230 -326 -409 -326q-83 0 -132 76t-49 197
q0 162 72.5 319t196.5 258t260 101q101 0 150 -69.5t52 -227.5h7q31 52 54.5 99.5t49.5 105.5t35 77zM317 106h2q122 0 334 312q5 220 -17.5 322t-96.5 102q-68 0 -128 -56.5t-98 -142.5t-60 -181t-22 -177q0 -83 23 -131t63 -48z" />
    <glyph glyph-name="beta" unicode="&#x3b2;" horiz-adv-x="1083" 
d="M145 -264l-14 -154q-27 -21 -95 -46t-110 -30l-12 13l371 1384q75 283 206 416t302 133q118 0 195.5 -74.5t76.5 -208.5q-1 -63 -24.5 -119t-60 -96.5t-88 -75.5t-100.5 -58t-106 -42l-2 -6q134 -32 214.5 -118t80.5 -232q0 -105 -45 -192t-118 -141.5t-162.5 -84.5
t-182.5 -31q-59 0 -108 14t-101 56l14 45q50 -18 123 -18q169 -6 285.5 101.5t116.5 264.5q0 140 -83.5 212.5t-232.5 72.5l-8 65q205 31 322 137.5t116 262.5q-1 89 -44.5 140.5t-114.5 51.5q-104 0 -174.5 -101t-126.5 -314q-275 -1056 -310 -1227z" />
    <glyph glyph-name="gamma" unicode="&#x3b3;" horiz-adv-x="999" 
d="M98 778l8 41q53 37 136 70.5t129 34.5q55 -29 94 -170q51 -180 0 -557h8q37 84 122 229.5t144.5 239.5t102.5 159l20 95l6 4q59 0 127 -18t101 -44l-19 -31l-119 -43q-68 -59 -166 -193t-202 -316q-50 -87 -93 -179t-55 -131q-2 -6 -20.5 -70t-34 -115t-34.5 -109
t-29 -81q-41 -35 -112 -63.5t-114 -30.5l-12 17q23 53 123 231t121 219q29 104 36.5 266.5t-22.5 324.5t-98 220h-148z" />
    <glyph glyph-name="delta" unicode="&#x3b4;" horiz-adv-x="993" 
d="M428 43h2q88 0 160.5 74t109.5 176.5t37 202.5q0 103 -33.5 186.5t-101.5 177.5h-4q-88 -32 -156 -92.5t-109 -136t-62 -158t-21 -166.5q0 -111 45 -187.5t133 -76.5zM682 1456q118 0 219 -71.5t172 -184.5l-8 -14q-26 -15 -62.5 -25t-58.5 -4q-100 117 -170 169.5
t-143 53.5q-45 1 -68.5 -21.5t-23.5 -55.5q0 -36 32 -94.5t113 -168.5q119 -161 170 -279t51 -241q0 -147 -65 -272.5t-181 -200t-256 -74.5q-147 0 -236 100t-89 265q1 202 133.5 356.5t349.5 220.5l2 3q-80 115 -116.5 189.5t-36.5 125.5q0 96 82.5 159.5t189.5 63.5z" />
    <glyph glyph-name="epsilon" unicode="&#x3b5;" horiz-adv-x="843" 
d="M748 664l-41 -15q-28 113 -37 182q-44 19 -99 19q-98 0 -164.5 -53t-66.5 -140q0 -59 37 -93t98 -42q134 25 199 25l4 -27q-37 -59 -103 -102q-15 1 -31.5 4.5t-45.5 11t-43 10.5q-107 -9 -169.5 -59.5t-62.5 -132.5q0 -71 59 -124t167 -56q51 -3 88 12q143 123 211 166
l14 -47q-21 -49 -71 -103t-87 -77q-137 -50 -233 -50q-153 0 -242.5 69t-89.5 179q0 192 278 250l2 4q-58 13 -101.5 59t-43.5 115q0 127 108.5 201t272.5 74q95 0 163.5 -28t104.5 -62q-39 -107 -75 -170z" />
    <glyph glyph-name="zeta" unicode="&#x3b6;" horiz-adv-x="854" 
d="M518 1487l-41 -148q24 -27 70 -47.5t88 -25.5q80 62 183 109.5t155 49.5l14 -12q-17 -60 -66 -119.5t-79 -72.5q-89 -21 -158 -21q-164 -113 -295 -351.5t-131 -469.5q0 -93 37.5 -151t124.5 -83q20 -5 62 -19t63 -20q157 -46 162 -83q-11 -58 -46 -121.5t-76 -111.5
t-76.5 -81t-53.5 -43l-56 10q90 134 115 263q-42 29 -158 59q-46 12 -80.5 25.5t-73 39t-63 58.5t-41 84.5t-16.5 116.5q0 161 71 334t180 311t236 233v4q-85 12 -158.5 45.5t-107.5 75.5l2 16q75 93 176 146h37z" />
    <glyph glyph-name="eta" unicode="&#x3b7;" horiz-adv-x="1079" 
d="M225 0l-159 -16q35 98 123.5 423.5t93.5 372.5l-136 15l15 43q48 24 159 55.5t154 32.5l4 -4q-4 -22 -24 -89t-59.5 -199t-69.5 -235h6q255 392 493 494q76 31 152 31q44 0 54 -22t-11 -95q-218 -733 -305 -1071l-17 -156q-26 -22 -94 -46.5t-108 -27.5l-13 13
q159 507 369 1237q4 27 -1 38t-20 11q-74 0 -208 -139.5t-228 -292.5q-59 -94 -93 -171.5t-77 -201.5z" />
    <glyph glyph-name="theta" unicode="&#x3b8;" horiz-adv-x="1050" 
d="M356 799h506q43 187 43 342q0 243 -133 243q-114 0 -231 -168.5t-185 -416.5zM584 692h-252q-53 -202 -53 -399q0 -112 38.5 -181t110.5 -69q91 0 173.5 92.5t143.5 244t105 353.5q-98 -41 -266 -41zM784 1452h2q132 0 207 -105t74 -303q0 -79 -12.5 -171.5t-38.5 -196.5
t-62.5 -203.5t-91 -190t-118.5 -159.5t-149 -109.5t-179 -40.5q-142 0 -220.5 110.5t-78.5 319.5q0 110 27.5 245.5t85 277.5t135 259t187.5 192t232 75z" />
    <glyph glyph-name="iota" unicode="&#x3b9;" horiz-adv-x="575" 
d="M459 924l4 -6q-173 -568 -242 -844l2 -2q29 7 65 31.5t78 68t61 64t56 63.5l17 -18q-6 -45 -31 -96.5t-65 -99.5t-101 -80t-129 -32q-38 0 -61.5 22t-32 73.5t15.5 136.5q9 31 39 135t71.5 248.5t84.5 292.5q30 15 80.5 28.5t87.5 14.5z" />
    <glyph glyph-name="kappa" unicode="&#x3ba;" horiz-adv-x="1015" 
d="M389 444l12 25q59 47 207.5 182.5t198.5 192.5q3 9 13 37.5t16 42.5q48 1 130 -12t117 -27l-28 -43q-56 -14 -123 -35q-38 -12 -74 -39q-130 -102 -309 -260v-4q233 -385 336 -520l-23 -19q-72 3 -131.5 29.5t-114.5 93.5q-81 104 -227 356zM293 784l-135 21l14 39
q46 23 149 51t160 29l4 -6q-175 -635 -254 -918l-174 -25q36 116 78 259t89 309.5t69 240.5z" />
    </font>
</defs>
</svg>
