<?xml version="1.0" standalone="no"?>
<!DOCTYPE svg PUBLIC "-//W3C//DTD SVG 1.1//EN" "http://www.w3.org/Graphics/SVG/1.1/DTD/svg11.dtd" >
<svg xmlns="http://www.w3.org/2000/svg" xmlns:xlink="http://www.w3.org/1999/xlink" version="1.1">
<metadata>
Created by FontForge 20170731 at Fri Sep 24 14:04:57 2021
 By Aleksey,,,
Copyright (c) 2000 Adobe Systems Incorporated. All Rights Reserved. Patent Des. pending.
</metadata>
<defs>
<font id="WarnockPro-Bold" horiz-adv-x="790" >
  <font-face 
    font-family="Warnock Pro"
    font-weight="700"
    font-stretch="normal"
    units-per-em="2048"
    panose-1="2 10 7 3 6 5 11 2 2 4"
    ascent="1505"
    descent="-543"
    x-height="911"
    cap-height="1350"
    bbox="-375 -1227 3305 2109"
    underline-thickness="102"
    underline-position="-358"
    unicode-range="U+0020-FB06"
  />
<missing-glyph horiz-adv-x="1024" 
d="M0 0v1434h1024v-1434h-1024zM512 809l348 522h-696zM573 717l349 -522v1044zM164 102h696l-348 523zM102 1239v-1044l349 522z" />
    <glyph glyph-name="T_h" unicode="Th" horiz-adv-x="2379" 
d="M561 684v567l-301 13q-32 -57 -80.5 -132.5t-81.5 -117.5l-41 -8q-3 44 2.5 181.5t12.5 180.5l14 10q18 0 168 -28h971q43 2 118 18v23l277 41l14 -7q-6 -249 -6 -596l4 -2q134 109 271 109q79 0 141 -29t98 -77t54 -103.5t18 -114.5v-446q0 -25 9.5 -36.5t33.5 -23.5
l94 -59l-14 -53q-253 -5 -428 16q24 172 24 525q0 132 -43.5 189.5t-130.5 57.5q-64 0 -131 -43q0 -575 6 -616l144 -72l-15 -53q-47 0 -139.5 1t-140.5 1q-44 0 -131.5 -1t-132.5 -1l14 53l108 72q7 54 7 459q0 343 -5 645q-22 11 -61 24t-57 13l-373 -13v-499
q0 -470 12 -623l197 -78l-14 -53q-50 0 -160 1t-170 1q-61 0 -175 -1t-167 -1l14 53l168 78q4 61 4 555z" />
    <glyph glyph-name="T_h.caron" unicode="&#x164;h" horiz-adv-x="2379" 
d="M561 684v567l-301 13q-32 -57 -80.5 -132.5t-81.5 -117.5l-41 -8q-3 44 2.5 181.5t12.5 180.5l14 10q18 0 168 -28h971q43 2 118 18v23l277 41l14 -7q-6 -249 -6 -596l4 -2q134 109 271 109q79 0 141 -29t98 -77t54 -103.5t18 -114.5v-446q0 -25 9.5 -36.5t33.5 -23.5
l94 -59l-14 -53q-253 -5 -428 16q24 172 24 525q0 132 -43.5 189.5t-130.5 57.5q-64 0 -131 -43q0 -575 6 -616l144 -72l-15 -53q-47 0 -139.5 1t-140.5 1q-44 0 -131.5 -1t-132.5 -1l14 53l108 72q7 54 7 459q0 343 -5 645q-22 11 -61 24t-57 13l-373 -13v-499
q0 -470 12 -623l197 -78l-14 -53q-50 0 -160 1t-170 1q-61 0 -175 -1t-167 -1l14 53l168 78q4 61 4 555zM723 1432h-39q-148 139 -289 268l39 53q251 -123 271 -133q31 15 127 61t147 72l33 -53q-146 -136 -289 -268z" />
    <glyph glyph-name="T_h.commaaccent" unicode="&#x162;h" horiz-adv-x="2379" 
d="M561 684v567l-301 13q-32 -57 -80.5 -132.5t-81.5 -117.5l-41 -8q-3 44 2.5 181.5t12.5 180.5l14 10q18 0 168 -28h971q43 2 118 18v23l277 41l14 -7q-6 -249 -6 -596l4 -2q134 109 271 109q79 0 141 -29t98 -77t54 -103.5t18 -114.5v-446q0 -25 9.5 -36.5t33.5 -23.5
l94 -59l-14 -53q-253 -5 -428 16q24 172 24 525q0 132 -43.5 189.5t-130.5 57.5q-64 0 -131 -43q0 -575 6 -616l144 -72l-15 -53q-47 0 -139.5 1t-140.5 1q-44 0 -131.5 -1t-132.5 -1l14 53l108 72q7 54 7 459q0 343 -5 645q-22 11 -61 24t-57 13l-373 -13v-499
q0 -470 12 -623l197 -78l-14 -53q-50 0 -160 1t-170 1q-61 0 -175 -1t-167 -1l14 53l168 78q4 61 4 555zM604 -494l-41 54q111 85 111 149q0 48 -35 78l-61 37v37l147 73h33q33 -16 58 -54.5t26 -96.5q0 -78 -65 -156t-173 -121z" />
    <glyph glyph-name="f_f_j" unicode="ffj" horiz-adv-x="1826" 
d="M793 809h-330q-4 -90 -4 -279q0 -362 6 -411l113 -66l-13 -55q-41 0 -121.5 1t-121.5 1q-44 0 -138 -1t-145 -1l10 55l121 66q8 156 8 397v291l-135 24l33 78h102q0 201 164 342q74 63 170.5 96t185.5 33q186 0 273 -90q157 133 368 133q84 0 159.5 -22t119.5 -70
q-12 -46 -36.5 -109.5t-49.5 -97.5l-47 -16q-16 25 -49 101t-47 120q-40 10 -66 10q-102 0 -164.5 -93t-75.5 -230q-6 -59 -6 -107h342q80 15 269 23v-682q0 -192 -76 -340q-70 -134 -155.5 -213t-209.5 -143l-63 49v10q46 29 82.5 69t59.5 78.5t39.5 93t24.5 93.5t12 100
t4.5 94t0.5 92v592l-330 -20q-4 -86 -4 -275q0 -356 6 -409l123 -68l-12 -55q-42 0 -125 1t-125 1q-44 0 -131 -1t-131 -1l10 55l98 62q7 130 7 401v293zM463 909h330q0 117 77 254q-31 50 -89 89.5t-134 39.5t-124 -66t-54 -200q-6 -76 -6 -117z" />
    <glyph glyph-name="f_j" unicode="fj" horiz-adv-x="1214" 
d="M74 907h106q2 99 47.5 203.5t143.5 185.5q73 62 169 94.5t195 32.5q80 0 154 -21t117 -61q-32 -123 -88 -213l-41 -14q-17 23 -50 100.5t-47 124.5q-21 9 -65 9q-101 0 -167.5 -98.5t-76.5 -235.5q0 -9 -3 -48.5t-3 -58.5h336q141 20 274 25v-682q0 -192 -76 -340
q-70 -134 -155.5 -213t-208.5 -143l-62 47v10q45 29 81 69t59 80t40 93t25 94.5t12.5 100.5t5.5 95.5t1 92.5q0 392 -2 589l-330 -20q-4 -114 -4 -264q0 -383 6 -420l151 -68l-14 -55q-54 0 -149 1t-140 1q-43 0 -134.5 -1t-141.5 -1l6 53l127 68q10 147 8 407l-2 279
l-125 29z" />
    <glyph glyph-name="ff" unicode="ff" horiz-adv-x="1298" 
d="M793 809h-330q-4 -90 -4 -279q0 -358 6 -411l113 -66l-13 -55q-40 0 -120 1t-121 1q-45 0 -139 -1t-146 -1l10 55l121 70q8 70 8 393v291l-127 24l25 78h102q0 203 168 346q71 60 164 92.5t178 32.5q173 0 264 -84q135 127 310 127q57 0 107 -16t77 -45
q-32 -125 -80 -199l-41 -18q-52 81 -94 188q-8 2 -25 2q-49 0 -87 -70.5t-44 -207.5q-1 -47 0.5 -96.5t1.5 -51.5h260l-26 -73l-234 -27q-4 -90 -4 -279q0 -376 4 -407l178 -70l-12 -55q-50 0 -152 1t-153 1q-42 0 -126.5 -1t-127.5 -1l10 55l92 62q7 137 7 401v293z
M463 909h330q4 127 65 258q-32 52 -88 88.5t-129 36.5q-65 0 -115.5 -62.5t-56.5 -189.5q-6 -85 -6 -131z" />
    <glyph glyph-name="fi" unicode="fi" horiz-adv-x="1239" 
d="M68 907h112q0 101 44 205t141 184q72 62 170 94.5t200 32.5q79 0 153 -21t116 -61q-36 -140 -86 -211l-41 -16q-18 24 -52 97t-47 116q-23 10 -67 10q-68 0 -122 -46t-84 -118.5t-36 -160.5q-1 -13 -2.5 -34.5t-2.5 -38.5t-1 -32h338q73 14 272 25v-422q0 -321 4 -389
l146 -68l-15 -55q-43 0 -129 1t-129 1q-40 0 -120.5 -1t-120.5 -1l8 55l69 72q7 245 7 389v311l-330 -20q-4 -114 -4 -275q0 -374 6 -409l106 -68l-12 -55q-41 0 -122.5 1t-123.5 1q-43 0 -134 -1t-140 -1l6 55l125 60q8 116 8 401v291l-137 29z" />
    <glyph glyph-name="fl" unicode="fl" horiz-adv-x="1243" 
d="M698 909l-30 -73l-201 -29q-4 -118 -4 -275q0 -384 4 -415l117 -64l-17 -55q-51 0 -139 1t-129 1q-38 0 -119.5 -1t-126.5 -1l6 55l117 58q6 99 6 405v291l-133 24l31 78h104q0 226 154 375q69 65 164 102t194 37q116 0 191 -34q104 29 190 34v-600q0 -426 4 -708
l127 -62l-20 -55q-39 0 -122 1t-122 1q-41 0 -122 -1t-122 -1l13 55l80 60q4 148 4 663v494q-20 25 -58.5 46t-76.5 21q-84 0 -132.5 -74.5t-56.5 -197.5q-4 -57 -4 -156h229z" />
    <glyph glyph-name="ffi" unicode="ffi" horiz-adv-x="1853" 
d="M793 809h-330q-4 -90 -4 -279q0 -370 6 -411l113 -66l-13 -55q-41 0 -121.5 1t-121.5 1q-44 0 -138 -1t-145 -1l10 55l121 62q8 70 8 401v291l-131 24l29 78h102q0 201 164 342q71 60 165.5 94.5t190.5 34.5q183 0 273 -90q157 133 368 133q192 0 275 -92
q-9 -44 -32.5 -104t-45.5 -94l-45 -19q-17 25 -51 98t-47 115q-21 12 -70 12q-103 0 -167 -89t-73 -224q-6 -70 -6 -117h342q80 15 269 23v-422q0 -283 4 -389l145 -66l-14 -57q-43 0 -129 1t-129 1q-40 0 -121.5 -1t-122.5 -1l10 55l70 72q6 198 6 389v311l-330 -20
q-4 -86 -4 -275q0 -366 6 -409l123 -68l-12 -55q-42 0 -125 1t-125 1q-44 0 -131 -1t-131 -1l10 55l96 60q9 79 9 403v293zM463 909h330q0 130 77 256q-91 127 -227 127q-73 0 -119 -65t-55 -201q-6 -89 -6 -117z" />
    <glyph glyph-name="ffl" unicode="ffl" horiz-adv-x="1851" 
d="M1073 543v-2q0 -389 6 -426l119 -64l-18 -53q-41 0 -127 1t-127 1q-40 0 -121.5 -1t-122.5 -1l12 53l92 60q7 116 7 415v283h-330q-4 -90 -4 -266q0 -361 6 -422l129 -68l-12 -55q-47 0 -140.5 1t-140.5 1q-41 0 -128 -1t-136 -1l10 55l125 64q6 52 6 409v281l-135 24
l33 78h104q0 203 164 344q69 59 169 93t194 34q172 0 258 -69q140 116 342 116q106 0 172 -34q80 25 209 34v-602q0 -436 4 -714l125 -60l-21 -53q-46 0 -128.5 1t-121.5 1t-122 -1t-130 -1l15 53l92 62q6 216 6 667v494q-52 65 -129 65q-81 0 -134 -83t-61 -205
q-6 -64 -6 -142h242l-33 -73l-209 -27q-4 -118 -4 -266zM463 909h330q2 82 16 140.5t55 128.5q-29 46 -85.5 80t-123.5 34q-73 0 -126 -66t-60 -196q-8 -79 -6 -121z" />
    <glyph glyph-name=".notdef" horiz-adv-x="1024" 
d="M0 0v1434h1024v-1434h-1024zM512 809l348 522h-696zM573 717l349 -522v1044zM164 102h696l-348 523zM102 1239v-1044l349 522z" />
    <glyph glyph-name=".null" horiz-adv-x="0" 
 />
    <glyph glyph-name="nonmarkingreturn" horiz-adv-x="682" 
 />
    <glyph glyph-name="space" unicode=" " horiz-adv-x="464" 
 />
    <glyph glyph-name="exclam" unicode="!" horiz-adv-x="577" 
d="M344 461l-76 -31q-76 503 -125 725l-53 98q56 34 163.5 59t229.5 25l13 -18q-1 -8 -23 -142.5t-56 -325.5t-73 -390zM303 334l21 8q31 -13 83 -71.5t74 -102.5l-8 -25q-16 -40 -69 -94.5t-89 -75.5l-24 -8q-41 24 -88 76t-70 96l4 23q34 51 81.5 101t84.5 73z" />
    <glyph glyph-name="quotedbl" unicode="&#x22;" horiz-adv-x="792" 
d="M285 840l-80 -43q-59 373 -78 460l-47 78q122 66 248 82h34q-3 -62 -29.5 -264.5t-47.5 -312.5zM643 848l-80 -39q-31 221 -78 461l-47 78q114 59 248 82h35q-5 -62 -32 -265.5t-46 -316.5z" />
    <glyph glyph-name="numbersign" unicode="#" horiz-adv-x="1107" 
d="M702 811h-233l-59 -248h231zM229 989h195l74 314l96 10l-80 -324h234l77 314l95 10l-84 -324h196l-63 -180l-176 2l-62 -248h195l-64 -176l-170 2l-88 -350l-92 -12l90 362h-233l-88 -350l-95 -12l93 362l-220 -2l64 176h194l62 248h-211z" />
    <glyph glyph-name="dollar" unicode="$" horiz-adv-x="1107" 
d="M512 1296v174l76 21v-195q126 -7 207 -67q24 17 75 34.5t93 26.5l12 -12q-1 -41 -34 -157t-58 -169l-31 -10q-57 92 -84 203q-45 54 -180 65v-403h1l1 -1h1h1l1 -1h1h1l1 -1h2q174 -61 247 -105q163 -99 174 -270q1 -13 1 -26q0 -77 -28 -140t-71.5 -103t-102.5 -68.5
t-115 -42.5t-115 -20v-187l-76 -24v207q-115 1 -247.5 46t-182.5 99q7 47 45 140.5t57 117.5l27 12q24 -60 90 -286q30 -16 87 -29.5t124 -13.5v426q-95 31 -159.5 61.5t-123.5 77t-88.5 112t-29.5 150.5q0 151 105.5 248.5t295.5 109.5zM512 834v376q-88 -11 -139 -59.5
t-51 -128.5q0 -73 50 -115t140 -73zM588 512v-393q86 13 134 64t48 124q0 81 -44 125.5t-138 79.5z" />
    <glyph glyph-name="percent" unicode="%" horiz-adv-x="1576" 
d="M410 1339h2q151 0 238 -105.5t87 -260.5q0 -172 -93 -277.5t-234 -105.5q-150 0 -239 93t-89 271q0 174 98.5 279.5t229.5 105.5zM412 1270h-2q-28 0 -49.5 -23t-32.5 -55.5t-17.5 -77.5t-8 -77.5t-1.5 -67.5q0 -46 4 -90.5t14.5 -98.5t35 -87.5t59.5 -33.5q24 0 43 15
t29.5 44.5t17.5 58t10 69.5t3.5 65t0.5 58q0 301 -106 301zM1178 1376l75 -57q-460 -733 -858 -1399l-71 62q97 159 394.5 645.5t459.5 748.5zM1171 727h3q152 0 238.5 -108t86.5 -265q0 -167 -93.5 -272t-234.5 -105q-147 0 -238 93t-91 266q0 176 98.5 283.5t230.5 107.5z
M1174 657h-3q-35 0 -59 -32t-34 -85t-13.5 -95.5t-3.5 -88.5q0 -45 4 -89.5t15 -98.5t36.5 -87.5t61.5 -33.5q102 0 102 309q0 301 -106 301z" />
    <glyph glyph-name="ampersand" unicode="&#x26;" horiz-adv-x="1640" 
d="M422 649h-2q-55 -62 -55 -164q0 -143 104.5 -242.5t247.5 -99.5q74 0 139 35v4q-116 102 -234.5 227t-199.5 240zM1587 43l-20 -37q-115 -35 -219 -35q-145 0 -235 36.5t-187 115.5q-81 -75 -178 -113.5t-193 -38.5q-85 0 -165.5 26.5t-147.5 75.5t-108 129t-42 177
q0 124 107 211q23 19 50 39.5t44.5 32.5t45.5 30.5t36 24.5q-96 134 -96 276q0 64 23.5 125t69 112t120 82t167.5 31h3q149 0 241 -80.5t92 -199.5q0 -92 -84 -164q-88 -76 -231 -158q74 -97 193.5 -206t191.5 -160q54 74 97 170t61 176l-17 149l6 13q55 -2 166 -32.5
t154 -59.5l-2 -11l-164 -123q-138 -218 -231 -335q111 -87 244.5 -170.5t207.5 -108.5zM625 805h4q80 63 116.5 124t36.5 146q0 76 -39 131.5t-102 55.5h-2q-64 0 -100.5 -58.5t-36.5 -136.5q0 -116 123 -262z" />
    <glyph glyph-name="quotesingle" unicode="'" horiz-adv-x="432" 
d="M283 838l-80 -41q-56 361 -78 460l-47 78q122 66 248 82h36q-5 -67 -32 -269t-47 -310z" />
    <glyph glyph-name="parenleft" unicode="(" horiz-adv-x="686" 
d="M117 555v2q0 128 26 254t78.5 248t142.5 230.5t209 185.5l43 -41q-53 -55 -99.5 -132t-89 -184t-67 -253t-24.5 -310q0 -162 24.5 -307t67 -252.5t89 -185.5t99.5 -132l-43 -40q-119 76 -209 184t-142.5 230.5t-78.5 248.5t-26 254z" />
    <glyph glyph-name="parenright" unicode=")" horiz-adv-x="681" 
d="M569 559v-2q0 -127 -26 -252.5t-78.5 -248t-142.5 -232t-209 -186.5l-43 40q54 57 100.5 135t88.5 185t66.5 252t24.5 309q0 165 -24.5 310t-66.5 252t-88.5 184t-100.5 131l43 39q119 -77 209 -185.5t142.5 -230.5t78.5 -247.5t26 -252.5z" />
    <glyph glyph-name="asterisk" unicode="*" horiz-adv-x="808" 
d="M428 961l14 8l213 -86l47 -11q-6 -43 -52.5 -98.5t-84.5 -64.5l-16 45zM389 1028l-24 -10l-209 82l-56 10q5 46 51 103t91 67l18 -47zM373 995l-6 -26l-185 -142l-35 -41q-31 17 -55.5 94t-9.5 111l45 -8zM440 991l6 29l185 149l33 37q31 -26 56 -104.5t17 -108.5l-49 11
zM432 1038l-22 -4l-31 246l-12 45q23 12 108.5 -1t102.5 -34l-33 -39zM387 944l21 8l34 -239l15 -60q-38 -6 -115 10t-102 39l34 46z" />
    <glyph glyph-name="plus" unicode="+" horiz-adv-x="1226" 
d="M690 -12l-155 -23v447h-400l25 137h375v385l155 24v-409h400l-23 -137h-377v-424z" />
    <glyph glyph-name="comma" unicode="," horiz-adv-x="522" 
d="M76 -311l-47 63q176 180 176 320q0 48 -21 86l-112 57v35l204 123h46q36 -10 69.5 -70.5t36.5 -148.5q3 -119 -92 -245.5t-260 -219.5z" />
    <glyph glyph-name="hyphen" unicode="-" horiz-adv-x="768" 
d="M596 432l-512 -72l70 195l112 -4l424 29v-21z" />
    <glyph glyph-name="period" unicode="." horiz-adv-x="522" 
d="M258 336l21 6q31 -13 83 -71.5t74 -102.5l-8 -25q-16 -40 -69 -94.5t-89 -75.5l-24 -8q-41 24 -88 76t-70 96l6 25q32 49 79.5 99t84.5 75z" />
    <glyph glyph-name="slash" unicode="/" horiz-adv-x="765" 
d="M236 -115h-136l447 1501h135z" />
    <glyph glyph-name="zero" unicode="0" horiz-adv-x="1107" 
d="M567 1339h2q102 0 189.5 -43.5t153.5 -126t103.5 -212t37.5 -291.5q0 -143 -27.5 -260.5t-75 -196.5t-112 -133t-137 -78.5t-152.5 -24.5q-76 0 -145.5 23t-133 75.5t-110 129t-74 190.5t-27.5 254q0 139 29 255.5t78 196.5t114.5 135.5t137.5 81t149 25.5zM553 1255h-2
q-66 0 -113.5 -88t-69.5 -223.5t-22 -300.5q0 -96 13.5 -195t39 -188.5t69.5 -146t99 -56.5q50 0 90 57t63 147t34.5 190t11.5 198q0 115 -12 219t-36.5 193t-67 141.5t-97.5 52.5z" />
    <glyph glyph-name="one" unicode="1" horiz-adv-x="1107" 
d="M440 1143l-254 14l21 51q79 23 493 131h21q0 -98 4 -653.5t4 -564.5l242 -72l-23 -51q-61 0 -184 1t-186 1q-66 0 -202 -1t-204 -1l21 51l229 72q18 276 18 1022z" />
    <glyph glyph-name="two" unicode="2" horiz-adv-x="1107" 
d="M74 25l76 149q37 19 59 39q186 150 336 346q127 177 127 367q0 42 -8 82.5t-27 79.5t-46 68t-69.5 47t-93.5 18q-48 0 -117 -29q-43 -251 -73 -315l-43 -27q-16 22 -62.5 127t-52.5 137q92 97 221.5 161t259.5 64q59 0 116 -12.5t111.5 -42t95.5 -72.5t67 -109t28 -147
q1 -78 -19.5 -144.5t-66.5 -127t-93.5 -106t-123.5 -107.5q-87 -71 -350 -264v-4q36 0 258.5 4t251.5 4q10 11 33.5 40.5t59.5 76t62 78.5l62 -31q-15 -98 -47 -218.5t-56 -166.5q-11 0 -213 5t-313 5h-350v25z" />
    <glyph glyph-name="three" unicode="3" horiz-adv-x="1107" 
d="M197 358l34 9q11 -19 41 -116t52 -181q24 -9 73 -9q134 0 220 86.5t85 231.5q0 107 -58.5 177t-151.5 85q-137 -30 -205 -33l-17 25q9 24 36.5 60t45.5 46q15 -1 142 -10q161 62 161 250q0 118 -60.5 185t-170.5 67q-58 0 -102 -23q-10 -51 -33.5 -133.5t-40.5 -111.5
l-35 -17q-23 26 -59 92.5t-52 118.5q229 182 461 182q97 0 173.5 -25.5t123 -69t70.5 -97t24 -113.5q0 -57 -19.5 -104.5t-49.5 -80t-76 -59.5t-89 -43.5t-97 -31.5v-13q113 -9 193.5 -36.5t125.5 -70.5t65 -93.5t21 -114.5q1 -84 -32.5 -154.5t-89.5 -117.5t-130 -79.5
t-152.5 -47.5t-158.5 -15q-117 0 -221.5 33.5t-161.5 77.5q13 49 53.5 145t61.5 129z" />
    <glyph glyph-name="four" unicode="4" horiz-adv-x="1107" 
d="M842 383l4 -266l170 -68l-19 -51q-50 0 -151 1t-152 1q-56 0 -170.5 -1t-173.5 -1l19 51l178 68q0 6 4 97.5t4 160.5l-481 -6l-39 82q79 156 281 472.5t239 348.5q27 18 126 41t157 26l4 -864h92q75 85 113 115l30 2q0 -30 -19 -163t-26 -153l-28 -10q-12 13 -22.5 30.5
t-25 45t-24.5 43.5zM557 475l21 682h-11q-159 -270 -227 -391.5t-147 -280.5q133 -10 364 -10z" />
    <glyph glyph-name="five" unicode="5" horiz-adv-x="1107" 
d="M188 571l-32 33q51 291 104 711q55 -3 147.5 -4t168 -0.5t152 1.5t85.5 1q33 0 182 33l21 -46q-57 -82 -178 -188q-35 -22 -88 -27q-153 -10 -412 -10q-6 -37 -29.5 -160t-38.5 -202l4 -4q161 79 314 79q101 0 180 -25t125.5 -62.5t76.5 -87.5t41 -95t11 -90
q0 -104 -38.5 -186t-97.5 -131t-136 -81.5t-147 -44.5t-138 -12q-102 0 -199.5 27t-161.5 72q17 58 56.5 152.5t58.5 121.5l33 12q20 -40 54.5 -146.5t41.5 -143.5q27 -9 60 -9q121 0 213 93.5t92 244.5q0 56 -13 102.5t-41.5 85.5t-80 61t-121.5 22q-137 0 -269 -97z" />
    <glyph glyph-name="six" unicode="6" horiz-adv-x="1107" 
d="M950 1364l27 -74q-264 -45 -419 -199.5t-187 -381.5l4 -2q158 122 301 122q72 0 138 -25t119.5 -72t85.5 -123t32 -171q0 -113 -43 -204t-113.5 -146.5t-155.5 -85t-174 -29.5q-106 0 -192.5 31.5t-144 85t-96.5 126.5t-56 153.5t-17 169.5q0 322 211 536
q120 129 294 204t386 85zM551 682h-2q-85 0 -154 -57q-20 -20 -28.5 -46.5t-8.5 -93.5q0 -81 12.5 -155t37.5 -136t67 -99.5t96 -37.5q45 0 79 23t53 57t31 79.5t16 83t4 75.5q0 138 -55 222.5t-148 84.5z" />
    <glyph glyph-name="seven" unicode="7" horiz-adv-x="1107" 
d="M256 -27l-16 23q16 58 84 184t172 285q210 326 352 614q-198 6 -289 6q-183 0 -305 -4q-80 -155 -98 -180l-39 -8q-7 71 -16 225t-9 199l6 8q92 -12 150 -12h409q275 0 361 2l-6 -70q-8 -62 -127 -298t-249 -489.5t-155 -338.5l-2 -119z" />
    <glyph glyph-name="eight" unicode="8" horiz-adv-x="1107" 
d="M573 1339h2q167 0 281.5 -91.5t114.5 -235.5q0 -135 -173 -252q-18 -12 -49 -32l-8 -5v-4q57 -26 123 -76q158 -111 158 -289q0 -67 -30.5 -133t-88.5 -122.5t-154 -91t-214 -34.5q-106 0 -193 29.5t-142 78t-84.5 108t-29.5 122.5q0 100 61 169t199 145v6q-42 26 -84 61
q-130 113 -127 271q1 118 63.5 205t160 129t214.5 42zM551 1257h-2q-63 0 -119.5 -54t-56.5 -156q0 -81 65 -146q20 -20 55 -42.5t65.5 -39t105.5 -55.5q41 42 63.5 104t22.5 127q0 111 -54.5 186.5t-144.5 75.5zM571 57h2q81 0 137 58.5t56 156.5q0 96 -100 172
q-85 65 -244 142q-42 -36 -68 -99.5t-26 -138.5q0 -123 68.5 -207t174.5 -84z" />
    <glyph glyph-name="nine" unicode="9" horiz-adv-x="1107" 
d="M197 -41l-41 70q26 6 54.5 14t81 29t100 48t103 73t98.5 100.5t78 133t50 169.5l-4 2q-126 -100 -271 -100q-56 0 -109.5 15t-102 47t-85.5 77.5t-59 111.5t-22 144q0 129 66 232t176.5 158.5t244.5 55.5q107 0 193 -36.5t139 -93.5t88 -133t49 -149t14 -147
q0 -175 -65.5 -324t-179.5 -252.5t-267 -166.5t-329 -78zM539 1255h-2q-49 0 -86.5 -29.5t-57.5 -76.5t-30 -99t-9 -104q1 -150 70 -227.5t168 -77.5q43 0 94 23q13 4 23.5 16.5t13.5 26.5q12 58 12 131q0 106 -18.5 196.5t-64.5 155.5t-113 65z" />
    <glyph glyph-name="colon" unicode=":" horiz-adv-x="522" 
d="M258 336l21 6q31 -13 83 -71.5t74 -102.5l-8 -25q-16 -40 -69 -94.5t-89 -75.5l-24 -8q-41 24 -88 76t-70 96l6 25q32 49 79.5 99t84.5 75zM258 920l21 8q31 -14 83 -72t74 -104l-8 -23q-16 -39 -68.5 -94t-89.5 -78l-24 -6q-41 24 -88 76t-70 96l6 22q32 51 79.5 101.5
t84.5 73.5z" />
    <glyph glyph-name="semicolon" unicode=";" horiz-adv-x="522" 
d="M256 920l23 8q29 -13 81.5 -71.5t75.5 -102.5l-8 -25q-18 -41 -71 -96.5t-89 -75.5l-24 -6q-41 22 -88 75t-68 97l4 22q34 52 81 102t83 73zM76 -311l-47 63q176 180 176 320q0 48 -21 86l-112 57v35l202 123h45q37 -14 71.5 -73.5t37.5 -147.5q3 -118 -92 -244
t-260 -219z" />
    <glyph glyph-name="less" unicode="&#x3c;" horiz-adv-x="1200" 
d="M170 381l8 162l852 415l-22 -172l-691 -323v-6l713 -332l-22 -162z" />
    <glyph glyph-name="equal" unicode="=" horiz-adv-x="1226" 
d="M1083 365l-26 -138h-914l25 138h915zM1083 735l-26 -137h-914l25 137h915z" />
    <glyph glyph-name="greater" unicode="&#x3e;" horiz-adv-x="1200" 
d="M1030 543l-8 -162l-850 -418l16 174l676 324v4l-692 330l16 163z" />
    <glyph glyph-name="question" unicode="?" horiz-adv-x="923" 
d="M459 1337h2q69 0 133.5 -18.5t121.5 -55.5t91.5 -102.5t34.5 -150.5q0 -65 -35.5 -121t-104.5 -115q-99 -82 -151 -139t-51 -92q3 -31 24 -82l-63 -31q-71 17 -134.5 88t-66.5 162q21 51 62.5 100.5t134.5 139.5q65 63 96 106t31 76q0 52 -43 97.5t-125 45.5
q-47 0 -84 -16q-11 -64 -37 -136.5t-51 -119.5l-37 -15q-38 46 -70.5 116t-46.5 124q80 61 187.5 100t181.5 39zM436 336l19 6q31 -14 83 -71.5t74 -102.5l-6 -25q-16 -40 -69.5 -94.5t-90.5 -75.5l-24 -8q-41 24 -88 76.5t-68 95.5l4 25q34 51 81 100t85 74z" />
    <glyph glyph-name="at" unicode="@" horiz-adv-x="1703" 
d="M1014 725h-2q-77 0 -160 -96q-67 -72 -118.5 -183.5t-51.5 -201.5q0 -22 8.5 -35.5t22.5 -13.5q33 0 96 51t119 135q65 93 95.5 154.5t59.5 160.5q-27 29 -69 29zM1315 834l8 -11l-61 -118q-18 -69 -37 -151.5t-31 -139t-29.5 -139.5t-23.5 -111q-4 -25 10 -25
q65 0 124.5 27t109 79.5t79 139.5t29.5 197q0 154 -74 269.5t-198 173.5t-281 58q-134 0 -246 -40t-189.5 -107t-131 -157t-78.5 -189t-25 -203q0 -154 51 -277.5t139 -201t200.5 -118t240.5 -40.5q342 0 608 254l39 -61q-284 -314 -700 -314q-163 0 -302 52t-239 146.5
t-156.5 233.5t-56.5 306q0 162 61 308.5t169.5 257t271.5 176t354 65.5q187 0 338 -72t240.5 -210t89.5 -319q0 -152 -77.5 -275t-216.5 -192t-312 -65q-44 2 -97 10q9 37 43.5 155.5t45.5 160.5h-9q-102 -154 -210 -240t-201 -86q-54 0 -89.5 46.5t-35.5 133.5
q0 74 27.5 160t96 183t165.5 165q125 88 237 88q73 0 121 -51l16 43z" />
    <glyph glyph-name="A" unicode="A" horiz-adv-x="1499" 
d="M596 1298l238 101l8 -13q0 -46 5.5 -71t24.5 -76q17 -50 392 -1001q29 -76 63.5 -105t151.5 -80l-19 -55q-52 0 -158 1t-159 1q-40 0 -119.5 -1t-118.5 -1l19 53l69 68q-5 18 -23 66t-48.5 130t-51.5 138q-214 -12 -440 -9q-65 -171 -108 -307l161 -82l-16 -57
q-37 0 -111.5 1t-111.5 1t-112.5 -1t-113.5 -1l17 57l141 84q39 72 174 393.5t264 645.5q8 25 2 53zM664 1071h-5q-99 -261 -184 -500q33 0 180.5 -4t180.5 -4q-146 423 -172 508z" />
    <glyph glyph-name="B" unicode="B" horiz-adv-x="1349" 
d="M84 1286l16 53q69 7 250 17t275 10q284 0 424.5 -73.5t140.5 -233.5q0 -72 -30 -130t-82 -95t-112.5 -59.5t-129.5 -31.5v-14q231 -20 334.5 -104t103.5 -232q0 -83 -31.5 -148.5t-89 -108t-126 -72t-154.5 -44t-161 -20.5t-159 -6q-226 0 -475 6l14 57l137 74
q13 114 13 459v645zM532 1280v-522q71 1 129 14t110.5 42t82 84.5t29.5 133.5q0 145 -111 211q-69 37 -194 37h-46zM950 395v2q0 48 -10.5 87t-39 75.5t-74.5 61t-120.5 38.5t-173.5 13v-31q0 -383 9 -565q132 0 213.5 30t130.5 91q65 77 65 198z" />
    <glyph glyph-name="C" unicode="C" horiz-adv-x="1433" 
d="M854 1386h2q194 0 307 -65q87 36 197 49l12 -8q-4 -46 -39.5 -192t-50.5 -185l-49 -20q-41 106 -90 274q-66 41 -201 41q-128 0 -232.5 -50t-171.5 -134.5t-103 -192t-36 -225.5q0 -120 36 -227.5t104 -191.5t175 -133.5t240 -49.5q51 0 82 8q178 175 305 272l37 -43
q-22 -65 -78.5 -165t-85.5 -132q-53 -17 -163 -36t-183 -19q-121 0 -233.5 26t-214 82t-177 136.5t-119.5 198.5t-44 260q0 146 49 268.5t128 204.5t181.5 139.5t207.5 83.5t208 26z" />
    <glyph glyph-name="D" unicode="D" horiz-adv-x="1564" 
d="M78 1288l12 51q290 27 518 27q187 0 334 -31t248.5 -87.5t168 -138.5t96.5 -181t30 -219q0 -113 -28.5 -210.5t-73 -165t-107 -123t-121.5 -88t-125 -56.5q-113 -42 -251.5 -57t-368.5 -15q-127 0 -349 6l17 57l151 66q13 63 13 579v529zM532 1274v-572q0 -591 9 -626
q128 0 246.5 35t201.5 114q174 166 174 467q0 130 -43.5 247.5t-140.5 199.5q-90 77 -196 106t-251 29z" />
    <glyph glyph-name="E" unicode="E" horiz-adv-x="1234" 
d="M66 1296l18 56q49 0 147 -1t146 -1h508q128 22 219 26l6 -8q-1 -39 -19.5 -161.5t-29.5 -164.5l-39 -14q-16 26 -71.5 124.5t-57.5 102.5l-361 -20v-487q206 0 521 28l12 -24q-5 -21 -56 -80.5t-71 -59.5q-10 0 -185 13t-221 14q0 -349 9 -524l362 -23q176 223 236 279
l41 -19q-2 -30 -34 -176.5t-46 -179.5q-129 6 -359 6h-368q-48 0 -160.5 -2t-165.5 -2l16 55l166 78q13 50 13 574v520z" />
    <glyph glyph-name="F" unicode="F" horiz-adv-x="1171" 
d="M74 1296l20 56q46 0 139.5 -1t139.5 -1h536q117 18 211 26l4 -8q-1 -42 -24 -175t-35 -175l-39 -14q-72 148 -119 251l-375 -16v-522q220 0 523 31l16 -29q-7 -22 -58.5 -78.5t-72.5 -56.5q-5 0 -181 12t-227 12q0 -396 9 -475l239 -76l-22 -59q-59 0 -180.5 1t-182.5 1
q-53 0 -159.5 -1t-159.5 -1l10 57l147 74q9 40 9 569v525z" />
    <glyph glyph-name="G" unicode="G" horiz-adv-x="1531" 
d="M772 584l92 71q210 15 574 15q-25 -210 -53.5 -379t-45.5 -243t-26 -91h-15q-64 8 -110 30.5t-68 47.5q-73 -33 -161 -53.5t-144 -20.5q-207 0 -372.5 83t-263 243t-97.5 372q0 213 106 380t288 257t407 90q178 0 313 -73q91 40 186 61l23 -16q-3 -38 -38.5 -182
t-55.5 -201l-47 -25q-40 95 -99 279q-88 45 -219 45q-245 0 -391.5 -162.5t-146.5 -431.5q0 -93 19 -178t61 -160.5t103.5 -131t152 -88t200.5 -32.5q39 0 88 6t68 15q-4 18 -1 99.5t4 104.5t7 109.5t8 114.5l-338 20z" />
    <glyph glyph-name="H" unicode="H" horiz-adv-x="1638" 
d="M90 1292l19 58q47 0 140.5 -1t139.5 -1q44 0 130.5 1t129.5 1l-18 -64l-99 -69v-441h574v445l-98 69l14 60q39 0 116.5 -1t116.5 -1q52 0 157 1t157 1l-15 -60l-157 -73v-519q0 -185 4 -366.5t10 -200.5l176 -76l-14 -57q-51 0 -154.5 1t-154.5 1q-45 0 -137 -1t-138 -1
l19 59l96 72q3 83 3.5 170.5t-0.5 206t-1 164.5q-80 -15 -244 -15h-330q0 -423 3 -524l122 -76l-16 -57q-44 0 -132 1t-132 1q-51 0 -154.5 -1t-154.5 -1l16 57l145 74q13 292 13 584v506z" />
    <glyph glyph-name="I" unicode="I" horiz-adv-x="776" 
d="M92 1292l19 58q47 0 138.5 -1t137.5 -1q50 0 150.5 1t150.5 1l-16 -58l-140 -71v-519q0 -510 11 -573l178 -74l-16 -57q-53 0 -161 2t-163 2q-53 0 -160 -2t-160 -2l17 57l151 76q13 37 13 571v519z" />
    <glyph glyph-name="J" unicode="J" horiz-adv-x="727" 
d="M47 1292l16 58q48 0 150.5 -1t155.5 -1q49 0 153 1t160 1l-10 -58l-146 -75q2 -95 2 -275.5t-1 -374.5t-1 -219q0 -167 -47 -295q-26 -75 -78 -149.5t-112 -130.5t-107.5 -92.5t-85.5 -59.5l-57 51v19q110 86 150.5 172t46.5 252q4 111 0 596q-5 391 -9 508z" />
    <glyph glyph-name="K" unicode="K" horiz-adv-x="1474" 
d="M1456 1350l-16 -56q-53 -25 -242 -82q-42 -17 -61 -36q-136 -140 -310 -357v-6q46 -63 112 -149t178 -229t136 -173q181 -226 209 -276l-10 -17q-106 1 -179 11.5t-128 36t-91 54.5t-85 81q-75 77 -182 212.5t-209 286.5v13q383 455 460 585q0 79 9 105q108 3 179 2
t146 -3.5t84 -2.5zM88 1294l18 58q45 0 135.5 -1t135.5 -1q51 0 152 1t151 1l-16 -58l-132 -73v-519q0 -510 11 -573l176 -74l-21 -57q-53 0 -159.5 1t-161.5 1q-51 0 -155 -1t-156 -1l16 57l147 74q13 47 13 573v521z" />
    <glyph glyph-name="L" unicode="L" horiz-adv-x="1204" 
d="M78 1292l18 58q48 0 145 -1t146 -1t148.5 1t148.5 1l-18 -60l-134 -71v-514q0 -448 9 -590l358 -25q168 241 225 301l37 -16q-1 -43 -30.5 -193t-43.5 -188q-19 0 -91.5 1.5t-230.5 3t-386 1.5q-50 0 -157.5 -1t-170.5 -1l17 57l165 74q9 36 9 573v517z" />
    <glyph glyph-name="M" unicode="M" horiz-adv-x="1931" 
d="M127 1292l25 56l444 4q0 -69 4 -78q20 -50 68 -151t148 -306.5t167 -345.5h4q6 12 75.5 154.5t146 304t153.5 330.5q6 15 6 92l475 -4l-12 -58l-172 -69q2 -162 22 -599.5t29 -490.5l186 -76l-14 -57q-50 0 -152 1t-153 1q-52 0 -156 -1t-157 -1l16 57l123 76
q-2 191 -6.5 543.5t-5.5 433.5h-9q-29 -69 -108.5 -249.5t-171.5 -397.5t-193 -465l-49 -14q-50 121 -186.5 446.5t-272.5 652.5h-4q-18 -208 -36.5 -529.5t-20.5 -416.5l182 -82l-12 -55q-40 0 -121.5 1t-122.5 1q-39 0 -117.5 -1t-117.5 -1l14 55l145 80q23 89 134 1030
q-25 54 -48.5 68.5t-148.5 60.5z" />
    <glyph glyph-name="N" unicode="N" horiz-adv-x="1579" 
d="M586 55l-15 -57q-43 0 -133.5 1t-134.5 1q-41 0 -123 -1t-123 -1l9 59l159 86q20 189 39 983q-59 79 -96 106t-106 53q-12 4 -19 7l25 56l387 12q14 -38 84 -125q421 -507 708 -823h4q0 144 -12 798l-213 84l18 56q44 0 131 -1t125 -1q41 0 121.5 1t120.5 1l-16 -58
l-150 -82q0 -12 -6 -206.5t-12 -427t-8 -400.5q0 -106 -9 -207l-45 -12q-132 100 -386.5 387t-551.5 668h-4q-4 -230 -0.5 -524.5t15.5 -346.5z" />
    <glyph glyph-name="O" unicode="O" horiz-adv-x="1638" 
d="M823 1386h2q96 0 194 -24t194.5 -78t172 -132t123.5 -197t50 -261q2 -148 -41 -271.5t-115.5 -207.5t-168.5 -142.5t-200 -85t-211 -26.5q-103 0 -205.5 26t-200 83t-172 137t-120 198t-45.5 257q0 163 63.5 301.5t168 229.5t237.5 142t274 51zM797 1303h-2
q-94 0 -169 -49t-121.5 -134t-70.5 -193t-24 -231q0 -121 29 -236t83 -209t140 -151t190 -57q86 0 153.5 40t108.5 103t68 147.5t37 164.5t10 164q0 80 -16 166.5t-51.5 171.5t-84.5 152t-122 109t-158 42z" />
    <glyph glyph-name="P" unicode="P" horiz-adv-x="1298" 
d="M74 1278l18 57q35 3 113.5 9t114 9t92.5 6.5t100.5 5t85.5 1.5q306 0 451 -88q178 -109 178 -328q0 -96 -34.5 -172t-88 -122t-122.5 -76.5t-132 -42t-123 -11.5q-55 0 -92 13l-19 63q144 13 221.5 104t77.5 238q0 321 -380 328v-543q0 -214 3 -352t6 -188l3 -50l241 -84
l-14 -57q-60 0 -189 1t-194 1q-51 0 -157.5 -1t-157.5 -1l16 55l144 80q8 35 8 592v500z" />
    <glyph glyph-name="Q" unicode="Q" horiz-adv-x="1638" 
d="M823 1386h2q96 0 194 -24t194.5 -78.5t172 -132.5t123.5 -197t50 -262q1 -95 -18 -180.5t-50 -148.5t-75 -118.5t-86.5 -92.5t-90.5 -67t-82 -46t-65 -27v-4q407 -229 591 -338l-22 -35q-90 -10 -152 -12t-127.5 10t-108 25t-93.5 33q-145 63 -420 227q-67 43 -113 57
q-87 26 -163.5 62.5t-152.5 95.5t-130 132t-87.5 176t-33.5 223q0 163 64 302t169 229t237.5 140.5t272.5 50.5zM791 1303h-3q-93 0 -166.5 -51t-119 -137.5t-69 -194.5t-23.5 -228q0 -124 28.5 -234.5t83.5 -201.5t143 -152.5t201 -80.5q81 16 144.5 62.5t104 109.5
t67 143.5t37 160t10.5 163.5t-16.5 171.5t-52 172t-85.5 150.5t-124 106.5t-160 40.5z" />
    <glyph glyph-name="R" unicode="R" horiz-adv-x="1368" 
d="M72 1268l22 57q79 13 251 27t325 14q282 0 412 -87.5t130 -254.5q0 -58 -20 -108t-50.5 -84.5t-73.5 -64t-81 -47t-82 -32.5l-2 -4q34 -64 122.5 -205t154.5 -237q58 -83 182 -250l-23 -25q-118 1 -201.5 22t-130.5 53t-92 85q-110 123 -331 510l4 12q156 36 234.5 110.5
t78.5 217.5q0 304 -369 293v-615q0 -411 5 -526l192 -74l-14 -57q-53 0 -161 1t-163 1q-54 0 -164 -1t-166 -1l17 57l149 72q15 270 15 526v576z" />
    <glyph glyph-name="S" unicode="S" horiz-adv-x="1116" 
d="M582 1386h2q65 0 122 -15.5t89 -39.5q40 28 157 66l33 -15q0 -35 -26 -156.5t-50 -185.5l-37 -16q-21 32 -55.5 108.5t-46.5 118.5q-59 35 -149 35q-109 0 -180.5 -58t-71.5 -153q0 -104 120 -172q37 -20 143.5 -75.5t162.5 -84.5q147 -80 200.5 -166.5t53.5 -193.5
q0 -94 -35 -169t-89.5 -121t-126.5 -77t-142 -43t-140 -12q-131 0 -260 49t-184 90q12 56 53.5 161t62.5 132l31 17q33 -80 90 -320q15 -10 66.5 -22t116.5 -11q127 2 199.5 61t72.5 165q0 120 -129 190q-208 112 -303 168q-110 65 -163.5 146.5t-53.5 197.5q1 80 32.5 152
t89 127.5t147 88.5t198.5 33z" />
    <glyph glyph-name="T" unicode="T" horiz-adv-x="1406" 
d="M293 1350h846q152 26 202 28l11 -12q-8 -61 -34 -195t-38 -170l-35 -14q-4 11 -49.5 117.5t-62.5 159.5l-289 -17v-495q0 -474 12 -621l240 -76l-19 -57q-62 0 -184.5 1t-183.5 1q-63 0 -191.5 -1t-193.5 -1l16 59l209 74q4 59 4 555v561l-268 17q-99 -168 -170 -258
l-37 -11q-2 61 2.5 197.5t11.5 175.5l14 10q36 0 187 -28z" />
    <glyph glyph-name="U" unicode="U" horiz-adv-x="1536" 
d="M51 1292l21 58q48 0 145 -1t145 -1q47 0 141 1t140 1l-16 -62l-115 -69q-2 -223 -2 -754q0 -146 51 -223q90 -138 295 -138q95 0 172 37.5t125 104.5q71 105 68 276q-3 471 -13 697l-145 69l14 62q33 0 98.5 -1t98.5 -1q43 0 129.5 1t128.5 1l-8 -62l-172 -74
q-11 -66 -23 -688q-3 -202 -80 -327q-64 -109 -187 -173.5t-278 -64.5q-105 0 -197.5 22t-178 79.5t-134.5 146.5q-55 100 -55 270q0 547 -4 742z" />
    <glyph glyph-name="V" unicode="V" horiz-adv-x="1445" 
d="M563 1350l-12 -60l-72 -61q14 -35 43 -109.5t117.5 -306t191.5 -498.5h5q178 468 313 912l-68 65l19 58q22 0 70 -1t73 -1q36 0 106.5 2t106.5 2l-10 -58q-107 -46 -162 -98q-86 -162 -432 -1067q-30 -45 -75.5 -94t-82.5 -74h-20q-11 27 -104.5 262.5t-200.5 504
t-181 448.5q-26 38 -66 63t-114 57l21 56q49 0 148.5 -2t148.5 -2q42 0 120 1t117 1z" />
    <glyph glyph-name="W" unicode="W" horiz-adv-x="2144" 
d="M-8 1294l20 56q48 0 146 -1t147 -1h230l-11 -56l-49 -59q76 -196 389 -918h6q24 46 48.5 97t61 128.5t64.5 135.5q-75 179 -239 526q-21 25 -53 43.5t-101 48.5l15 56q42 0 126 -1t126 -1h180l2 -9l10 -102q10 -33 121 -281h4q17 36 40 83.5t34.5 71.5t26 56.5t26.5 63.5
l6 108l4 9h90q35 0 104.5 1t104.5 1l-14 -56q-132 -57 -182 -102q-93 -151 -195 -348q144 -335 225 -520h2q134 331 330 895l-59 73l18 56h123q40 0 119.5 1t118.5 1l-17 -56q-65 -27 -102.5 -52t-73.5 -64q-41 -73 -169 -378t-257 -636q-26 -50 -68.5 -108.5t-78.5 -94.5
h-25q-6 12 -104 235t-166 369h-4q-96 -182 -197 -401q-88 -146 -158 -203h-24q-17 38 -135.5 310t-240 546.5t-173.5 380.5q-26 27 -61.5 47.5t-110.5 48.5z" />
    <glyph glyph-name="X" unicode="X" horiz-adv-x="1470" 
d="M68 1296l22 54q53 0 159.5 -1t158.5 -1q41 0 121 1t120 1l-12 -58l-57 -63q107 -204 202 -361h4q124 201 207 359l-63 69l20 54q20 0 75 -1t81 -1q43 0 130 1t130 1l-14 -58q-97 -30 -145 -53.5t-95 -62.5q-103 -130 -281 -394q24 -41 109.5 -189t147.5 -250.5t94 -147.5
q32 -44 121 -76l141 -64l-17 -57q-61 0 -180 2t-180 2q-40 0 -121 -2t-121 -2l11 57l43 66q-37 89 -228 420h-4q-218 -349 -246 -412l86 -74l-12 -57q-32 0 -95 2t-93 2q-43 0 -126.5 -2t-125.5 -2l18 57l135 62q56 18 88 61q117 151 326 451q-257 461 -313 542
q-24 34 -45 52t-54 28z" />
    <glyph glyph-name="Y" unicode="Y" horiz-adv-x="1343" 
d="M2 1296l21 54q49 0 146.5 -1t145.5 -1h238l-14 -64l-58 -45q6 -13 283 -530h4q35 70 94.5 188.5t99.5 199t64 136.5l-88 59l25 56h155q39 0 117 1t117 1l-11 -60l-120 -49q-31 -12 -48 -25t-36 -40q-6 -10 -44 -70.5t-67.5 -108t-84 -145t-112.5 -207.5q-18 -45 -18 -61
q0 -428 8 -459l230 -70l-15 -57q-61 0 -181 1t-179 1q-66 0 -198 -1t-197 -1l14 55l215 72q12 162 12 444q0 25 -31 82q-13 22 -68.5 122t-122.5 218t-124 213q-45 43 -172 92z" />
    <glyph glyph-name="Z" unicode="Z" horiz-adv-x="1357" 
d="M1288 1350v-31q-23 -37 -158.5 -241.5t-323.5 -490t-314 -481.5l2 -4q40 0 279 -3t276 -3q34 42 116 151t105 138l45 8q-1 -57 -22 -208.5t-33 -194.5q-21 0 -199.5 2.5t-449.5 5t-517 2.5l-20 23q64 96 390.5 571t444.5 649v6q-417 7 -544 4q-122 -231 -138 -256
l-51 -16q-16 176 -16 381l6 4q38 -3 78.5 -7t60.5 -6t37.5 -3t26.5 0h919z" />
    <glyph glyph-name="bracketleft" unicode="[" horiz-adv-x="686" 
d="M379 1335v-1558l233 -53l-16 -64h-391v1792h411l-16 -66z" />
    <glyph glyph-name="backslash" unicode="\" horiz-adv-x="747" 
d="M655 -115h-135l-436 1501h135z" />
    <glyph glyph-name="bracketright" unicode="]" horiz-adv-x="686" 
d="M309 -223v1558l-237 54l22 63h389v-1792h-411l18 64z" />
    <glyph glyph-name="asciicircum" unicode="^" horiz-adv-x="1120" 
d="M991 541l-155 -21l-279 654h-4l-266 -633l-156 -21l354 787l148 22z" />
    <glyph glyph-name="underscore" unicode="_" horiz-adv-x="989" 
d="M989 -203v-98h-989v98h989z" />
    <glyph glyph-name="grave" unicode="`" 
d="M502 1063l-56 -53l-319 329v29q92 49 229 43z" />
    <glyph glyph-name="a" unicode="a" horiz-adv-x="1003" 
d="M573 553l2 61q2 57 -12.5 98.5t-40.5 63.5t-54.5 31.5t-59.5 9.5q-48 0 -105 -20q-16 -171 -41 -248l-16 -14q-22 2 -89 66t-89 130q57 48 141 95.5t160 76.5q87 33 143 33q76 0 136 -21t96.5 -53t61 -74.5t33.5 -82t9 -78.5q0 -197 -4 -455q8 -19 52 -51t95 -51l-6 -33
q-27 -21 -76 -40.5t-110 -19.5q-93 0 -147.5 33.5t-71.5 75.5h-5q-86 -63 -136.5 -88t-102.5 -25q-123 0 -196.5 81.5t-73.5 178.5q0 119 86 166q39 27 172 74t249 80zM348 279v-3q0 -76 43 -111.5t94 -35.5q39 0 70 25q14 12 14 45l4 274q-105 -42 -161 -78
q-35 -24 -49.5 -50t-14.5 -66z" />
    <glyph glyph-name="b" unicode="b" horiz-adv-x="1146" 
d="M137 -25v805q0 302 -6 475l-121 58l17 45q33 18 168.5 41.5t228.5 23.5q-6 -246 -6 -583q53 36 119.5 66t105.5 30q82 0 159.5 -30t140 -85t100.5 -142t38 -192q0 -109 -33 -198.5t-85.5 -146.5t-119 -96.5t-130 -56t-123.5 -16.5q-36 0 -94.5 20.5t-116.5 53.5
q-42 -26 -122 -49t-120 -23zM418 772v-655q46 -25 102 -25q45 0 89.5 20.5t84.5 61.5t65 113t25 164q0 143 -73.5 242.5t-202.5 99.5q-18 0 -34.5 -3.5t-33 -9.5t-22.5 -8z" />
    <glyph glyph-name="c" unicode="c" horiz-adv-x="958" 
d="M63 434v2q0 122 49.5 220.5t130.5 158t177.5 90.5t197.5 31q98 0 174.5 -24.5t116.5 -55.5q-8 -39 -37 -122.5t-55 -127.5l-37 -8q-41 72 -86 242q-17 10 -51 10q-92 0 -158.5 -55t-96.5 -137t-30 -179q0 -105 35.5 -188.5t106.5 -134.5t168 -52q29 0 51 11
q116 82 178 112l21 -43q-13 -38 -61.5 -99.5t-76.5 -76.5q-108 -35 -196 -35q-102 0 -192.5 27t-165.5 80.5t-119 144.5t-44 209z" />
    <glyph glyph-name="d" unicode="d" horiz-adv-x="1179" 
d="M1008 817v-659q62 -80 149 -113l-18 -37q-15 -12 -57.5 -23.5t-92.5 -11.5q-89 0 -153.5 28t-92.5 79h-2q-7 -4 -38.5 -24.5t-59 -37t-69.5 -31t-80 -14.5q-74 0 -147.5 28.5t-137 82.5t-103.5 142.5t-40 197.5q0 101 33.5 187t87 144.5t122 100.5t139 61t136.5 19
q57 0 141 -51l2 2q0 239 -6 368l-129 58l12 45q193 56 410 65q-6 -234 -6 -606zM727 156v641q-39 22 -90 22q-107 0 -191 -98.5t-84 -253.5q0 -150 79.5 -243t195.5 -93q41 0 90 25z" />
    <glyph glyph-name="e" unicode="e" horiz-adv-x="989" 
d="M690 457h-330q-2 -12 -2 -27q-1 -144 79.5 -235t205.5 -91q19 0 51 7q108 87 205 139l12 -35q-9 -51 -64.5 -115t-92.5 -86q-108 -41 -213 -41q-217 0 -346 126.5t-129 344.5q0 104 38.5 196t102.5 156.5t151 102t181 37.5q171 0 281 -100t110 -275q0 -52 -23 -65
q-19 -12 -78 -25.5t-139 -13.5zM358 549h285q12 28 12 65q0 108 -33.5 172t-95.5 64q-50 0 -89.5 -51.5t-58.5 -118.5t-20 -131z" />
    <glyph glyph-name="f" unicode="f" horiz-adv-x="684" 
d="M33 -2l4 51l135 74q6 93 6 403v281l-127 24l29 78h98q0 96 38 201.5t126 187.5q133 125 313 125q110 0 181 -51q-33 -129 -86 -219l-37 -12q-54 76 -99 190q-8 4 -32 4q-48 0 -84.5 -71.5t-40.5 -214.5q0 -47 6 -140h248l-31 -73l-217 -27q-4 -90 -4 -266q0 -373 6 -420
l176 -68l-12 -57q-47 0 -149.5 1t-155.5 1q-46 0 -142.5 -1t-148.5 -1z" />
    <glyph glyph-name="g" unicode="g" horiz-adv-x="1046" 
d="M979 805l-133 -8v-4q21 -23 39 -68t18 -94q0 -148 -108.5 -236t-292.5 -88q-120 0 -215 49q-27 -49 -27 -63q0 -32 28 -63.5t58 -36.5q288 12 494 -3q86 -5 151 -77q23 -28 38 -69.5t15 -78.5q0 -86 -55.5 -170t-159.5 -147q-173 -115 -385 -115q-173 0 -273.5 59
t-100.5 148q0 44 53 100l137 121v4q-76 32 -135 103q-21 26 -36 66t-15 69t53 87.5t104 94.5q-118 80 -118 227q0 96 58 171t153 114t208 39q68 0 166 -16q161 -27 176 -29l181 74l8 -17zM516 856h-2q-37 0 -64.5 -23.5t-41 -61t-19.5 -74.5t-6 -74q0 -54 12 -105t43.5 -91
t77.5 -40q47 0 77 38.5t40 86.5t10 104q0 36 -5 71.5t-17.5 76.5t-39.5 66.5t-65 25.5zM496 -59h-2q-93 0 -121 -4t-43 -15q-14 -12 -25.5 -35.5t-11.5 -48.5q0 -82 74.5 -137t183.5 -55q114 0 189 49.5t75 138.5q0 32 -23 59t-71 37q-56 11 -225 11z" />
    <glyph glyph-name="h" unicode="h" horiz-adv-x="1191" 
d="M1026 612v-446q0 -25 9.5 -37t33.5 -25l94 -53l-14 -57q-251 -5 -426 16q22 135 22 527q0 132 -43 189.5t-129 57.5q-69 0 -127 -43q0 -578 5 -612l145 -74l-16 -57q-46 0 -138 1t-141 1q-44 0 -131.5 -1t-132.5 -1l14 57l111 74q4 23 4 453q0 491 -4 667l-121 64l14 45
q58 24 177 43t221 22q-7 -290 -7 -594l5 -2q134 109 266 109q65 0 117.5 -19.5t87.5 -51.5t59 -74.5t34.5 -87t10.5 -91.5z" />
    <glyph glyph-name="i" unicode="i" horiz-adv-x="620" 
d="M299 1380l18 4q25 -9 70 -58.5t68 -90.5l-6 -23q-16 -35 -63 -82.5t-79 -66.5l-20 -6q-36 21 -77 66t-60 83l4 23q27 43 68.5 85.5t76.5 65.5zM55 821l17 49q39 13 159 36.5t220 29.5v-426q0 -299 4 -389l137 -64l-12 -59q-48 0 -136.5 1t-136.5 1q-43 0 -131 -1t-129 -1
l10 59l109 64q4 144 4 393v250z" />
    <glyph glyph-name="j" unicode="j" horiz-adv-x="593" 
d="M295 1380l18 4q27 -9 72 -58.5t66 -90.5l-5 -23q-18 -35 -64.5 -82.5t-76.5 -66.5l-22 -6q-36 21 -77.5 66.5t-60.5 82.5l5 23q26 42 68 85t77 66zM59 819l17 47q31 15 163 40.5t210 29.5v-684q0 -96 -16 -177t-60 -165q-69 -133 -153 -211t-206 -145l-57 47v10
q35 23 63.5 52.5t49 58.5t36.5 69t26.5 70.5t17.5 77.5t10.5 75t5.5 78.5t2 73.5v72q0 405 -10 530q-2 1 -99 51z" />
    <glyph glyph-name="k" unicode="k" horiz-adv-x="1116" 
d="M1124 -23l-12 -10q-264 0 -371 107q-51 51 -130 169.5t-136 227.5v14q218 263 260 324l43 127q92 0 189 -10t131 -21l-31 -59q-133 -56 -252 -94q-41 -37 -108 -115v-6q33 -59 96.5 -160t108 -169t125 -191t87.5 -134zM453 119l131 -58l-19 -63q-43 0 -129.5 1t-130.5 1
q-43 0 -130 -1t-130 -1l8 57l111 66q4 140 4 745q0 328 -4 400l-119 49l16 53q90 20 214.5 37.5t179.5 17.5q-6 -276 -6 -587q0 -505 4 -717z" />
    <glyph glyph-name="l" unicode="l" horiz-adv-x="612" 
d="M453 125l143 -66l-14 -61q-44 0 -134 1t-135 1q-46 0 -138.5 -1t-139.5 -1l8 57l119 72q4 122 4 686q0 348 -4 444l-115 60l14 51q41 17 176.5 36t215.5 19q-7 -266 -7 -602q0 -265 7 -696z" />
    <glyph glyph-name="m" unicode="m" horiz-adv-x="1779" 
d="M178 580v170l-102 49l18 47q24 19 175.5 55.5t191.5 34.5l-17 -148l5 -2q127 87 172 110q80 40 149 40q86 0 145.5 -46t85.5 -112q105 77 185 117.5t149 40.5q75 0 132 -29t88.5 -76.5t47 -99.5t15.5 -106v-475q0 -9 6 -16.5t13.5 -13t25.5 -16.5l96 -49l-14 -57
q-44 0 -131.5 2t-130.5 2q-42 0 -126 -2t-126 -2l12 57l86 72q8 228 8 440q0 56 -15 97.5t-39.5 63t-48.5 31t-48 9.5q-46 0 -82.5 -16.5t-81.5 -51.5q16 -53 16 -137v-436l109 -70l-17 -59q-38 0 -114 2t-115 2q-44 0 -131 -2t-131 -2l12 57l101 72q6 38 6 463
q0 89 -46 130.5t-110 41.5q-69 0 -141 -53q0 -555 4 -582l98 -70l-14 -59q-39 0 -118.5 2t-119.5 2q-44 0 -133 -2t-133 -2l12 57l115 72q6 37 6 453z" />
    <glyph glyph-name="n" unicode="n" horiz-adv-x="1208" 
d="M176 580v168l-102 51l18 47q24 19 175.5 55.5t191.5 34.5l-17 -150l4 -4q200 154 306 154q65 0 116.5 -20t83.5 -51.5t53.5 -75t30 -87t8.5 -90.5v-456q0 -32 41 -50l105 -51l-14 -57q-47 0 -139 1t-138 1q-39 0 -118 -1t-119 -1l10 57l82 66q10 152 10 459
q0 91 -39.5 138.5t-112.5 47.5q-74 0 -153 -64q0 -544 4 -581l100 -66l-12 -57q-80 2 -238 2q-45 0 -134 -1t-134 -1l14 57l111 66q6 41 6 459z" />
    <glyph glyph-name="o" unicode="o" horiz-adv-x="1126" 
d="M565 936h2q222 0 359 -132t137 -339q0 -221 -139.5 -356.5t-360.5 -135.5q-100 0 -190 33t-158.5 92.5t-108.5 150.5t-40 200t42 202t111.5 154.5t159.5 96t186 34.5zM559 852h-2q-48 0 -85 -35.5t-57 -92t-30 -118t-10 -123.5q0 -71 11.5 -142.5t34.5 -136.5t65 -106
t96 -41q42 0 74 27t50 67t29.5 94.5t15 100.5t3.5 94q0 66 -10.5 133.5t-31.5 132.5t-61 105.5t-92 40.5z" />
    <glyph glyph-name="p" unicode="p" horiz-adv-x="1165" 
d="M446 936l-6 -119h6q188 119 254 119q65 0 134 -29t129.5 -81.5t99.5 -138t39 -187.5q0 -109 -32.5 -200t-84.5 -150t-118.5 -100t-131.5 -59t-127 -18q-40 0 -159 58l-5 -2q0 -157 9 -332l188 -72l-14 -59q-51 0 -156 1t-156 1q-46 0 -138.5 -1t-139.5 -1l20 63l101 62
q8 180 8 536v537l-113 72l15 49q29 9 167 29.5t211 21.5zM446 745l3 -630q43 -19 92 -19q111 0 191.5 93.5t80.5 254.5q0 79 -24 143t-63 103t-85.5 59.5t-95.5 20.5q-42 0 -99 -25z" />
    <glyph glyph-name="q" unicode="q" horiz-adv-x="1159" 
d="M1004 750v-476q0 -129 1 -340.5t1 -234.5l161 -72l-10 -61q-50 0 -150 1t-149 1q-47 0 -141 -1t-142 -1l11 59l127 72q11 292 10 352l-4 2q-137 -78 -199 -78q-199 0 -326.5 130t-127.5 339q0 127 67.5 241t182.5 183.5t245 69.5q45 0 101 -19t100 -51q47 27 143 47.5
t158 22.5l8 -16q-12 -57 -67 -170zM723 135v656q-43 24 -84 24q-115 0 -194.5 -101t-79.5 -253q0 -144 84.5 -242t203.5 -98q28 0 70 14z" />
    <glyph glyph-name="r" unicode="r" horiz-adv-x="851" 
d="M68 805l14 49q28 14 158.5 46.5t191.5 35.5q8 -30 15 -89t6 -83h6q52 77 121 124.5t141 47.5q77 0 117 -43q-3 -43 -37.5 -137t-65.5 -148l-35 -10q-51 77 -88 150q-11 8 -30 8q-32 0 -68 -29.5t-55 -69.5v-534l205 -66l-15 -57q-57 0 -169 1t-169 1q-44 0 -131 -1
t-131 -1l6 57l113 66q10 261 10 627z" />
    <glyph glyph-name="s" unicode="s" horiz-adv-x="843" 
d="M424 936h2q88 0 158 -49q60 40 123 61l22 -10q-6 -74 -22 -162t-29 -123l-37 -12q-46 64 -78 160q-47 39 -121 39q-62 0 -95.5 -33.5t-33.5 -71.5q0 -59 80 -98q132 -62 246 -125q82 -44 114.5 -99t32.5 -126q0 -74 -29 -131.5t-72 -91t-101 -55t-108.5 -29t-100.5 -7.5
q-86 0 -173.5 26t-133.5 56q1 44 20 136.5t31 125.5l33 15q16 -27 39 -72.5t50.5 -104t39.5 -81.5q54 -21 108 -21q66 0 110 37t44 88q0 32 -16 54.5t-56 43.5q-79 45 -178 93q-101 49 -153 113t-52 159q0 120 88.5 207.5t247.5 87.5z" />
    <glyph glyph-name="t" unicode="t" horiz-adv-x="733" 
d="M436 909h301l-35 -82l-266 -32q0 -55 -1 -237.5t-1 -309.5q0 -59 21 -84q39 -31 96 -31q97 0 166 53l8 -4v-71q-35 -60 -113 -99t-172 -39q-165 0 -241 95q-25 33 -35 78t-10 135v514l-127 34l30 80h103q13 50 48.5 137t59.5 113q29 18 91 33.5t87 15.5z" />
    <glyph glyph-name="u" unicode="u" horiz-adv-x="1175" 
d="M166 774l-117 66l21 49q152 34 387 37q-15 -298 -15 -568q0 -123 31 -165q45 -52 117 -52q84 0 145 64v538q0 22 -24.5 38.5t-122.5 58.5l20 49q76 14 198 25.5t216 11.5q-6 -94 -6 -764q22 -38 66 -66t77 -39l-10 -28q-12 -15 -68 -33.5t-106 -18.5q-181 0 -227 140h-5
q-133 -144 -288 -144q-127 0 -205 72q-88 82 -88 246q0 85 2 255.5t2 227.5z" />
    <glyph glyph-name="v" unicode="v" horiz-adv-x="978" 
d="M-20 856l18 55q43 0 128 -2t128 -2q38 0 113.5 2t113.5 2l-14 -61l-49 -70q16 -55 170 -479h4q104 284 158 471l-50 82l15 57q82 -4 123 -4q28 0 86 2t86 2l-15 -59q-22 -15 -63 -44.5t-55 -39.5q-22 -41 -119 -276t-158 -390q-23 -35 -64 -76t-75 -63h-23
q-7 15 -42.5 103.5t-117.5 293.5t-169 418q-88 55 -129 78z" />
    <glyph glyph-name="w" unicode="w" horiz-adv-x="1480" 
d="M496 911l-11 -59l-63 -66q35 -126 149 -462h4q8 22 32.5 88t36 97.5t28 82.5t28.5 94l-22 152q19 14 93 40t118 33l20 -6l17 -172q78 -196 178 -428h4q86 285 133 475l-74 76l17 55q20 0 68.5 -1t76.5 -1t86 1t88 1l-12 -55q-103 -68 -123 -82q-46 -96 -250 -686
q-25 -32 -65.5 -68.5t-71.5 -56.5h-12q-70 166 -230 537h-2q-87 -206 -170 -408q-23 -31 -64.5 -71t-70.5 -58h-12q-287 792 -305 823q-42 26 -125 70l16 55q38 0 125 -1t133 -1q39 0 116 1t116 1z" />
    <glyph glyph-name="x" unicode="x" horiz-adv-x="1052" 
d="M467 842l115 -209h4q49 71 86 139q21 39 18 139q21 0 64.5 -1t66.5 -1q26 0 86.5 1t96.5 1l-15 -57q-97 -39 -143.5 -65.5t-67.5 -53.5q-5 -6 -30 -35.5t-54.5 -66t-64.5 -82.5q76 -139 215 -358q17 -26 35.5 -43.5t32 -25.5t36.5 -18l113 -49l-19 -57q-8 0 -66.5 -2.5
t-155.5 -5t-199 -2.5q-39 91 -70.5 151.5t-97.5 175.5h-4q-79 -125 -105 -178q-5 -14 -6.5 -22t5 -19.5t14.5 -20.5t30 -32l-6 -47q-27 0 -84 1t-84 1q-34 0 -102 -1t-103 -1l12 55l113 56q64 31 96 69q89 104 177 228q-177 311 -209 360q-6 10 -18 19t-40.5 21.5t-48 20.5
t-70.5 27l19 57q44 0 132 -1t132 -1q27 0 80 1t80 1z" />
    <glyph glyph-name="y" unicode="y" horiz-adv-x="993" 
d="M676 856l20 55q24 0 71 -1t69 -1q39 0 104.5 1t93.5 1l-16 -57q-23 -13 -65.5 -38.5t-59.5 -35.5q-30 -57 -102 -229t-170.5 -414.5t-145.5 -353.5q-19 -79 -36.5 -158t-20.5 -92q-16 -8 -47 -8q-61 0 -120 36t-73 68q10 24 73 86t138 125q56 116 66 144
q-8 16 -146.5 346t-187.5 436q-8 18 -29 31t-104 57l16 57q43 0 129.5 -1t130.5 -1q37 0 110.5 1t110.5 1l-10 -57l-53 -57q19 -52 46 -122t67.5 -173.5t68.5 -175.5h4q124 373 148 460z" />
    <glyph glyph-name="z" unicode="z" horiz-adv-x="958" 
d="M879 909l12 -20q-53 -99 -243 -414t-228 -381l-2 -4q57 0 163.5 5.5t139.5 10.5q45 65 92 122.5t74 78.5l37 8q-2 -41 -21 -164.5t-31 -162.5q-35 1 -195 6.5t-274 5.5h-352l-12 14q278 421 504 801v4q-125 0 -279 -10q-70 -125 -125 -191l-35 -8q-6 27 -10.5 153
t-1.5 155l6 8l166 -17h615z" />
    <glyph glyph-name="braceleft" unicode="{" horiz-adv-x="686" 
d="M463 713l-225 -140v-4l225 -139q-25 -200 -25 -422q0 -109 41 -181t139 -130l-18 -59q-148 32 -257.5 125.5t-109.5 203.5q0 169 66 461l-203 127l10 33l193 127q-66 232 -66 428q0 72 59 143.5t141.5 119.5t166.5 69l18 -60q-101 -55 -140.5 -128t-39.5 -185
q0 -90 8 -212t17 -177z" />
    <glyph glyph-name="bar" unicode="|" horiz-adv-x="706" 
d="M266 1483h170v-1977h-170v1977z" />
    <glyph glyph-name="braceright" unicode="}" horiz-adv-x="681" 
d="M225 430l226 139v2l-226 140q9 60 17 187.5t8 213.5q0 106 -41 176.5t-139 126.5l18 60q146 -32 256.5 -129t110.5 -203q0 -175 -66 -428l201 -127l-10 -31l-191 -129q66 -280 66 -448q0 -76 -57.5 -149.5t-140 -122.5t-169.5 -70l-18 59q100 54 140 132t40 189
q0 88 -8 223.5t-17 188.5z" />
    <glyph glyph-name="asciitilde" unicode="~" horiz-adv-x="1308" 
d="M1126 672l72 -66q-80 -162 -158 -229.5t-174 -67.5q-91 0 -248 103q-137 92 -202 92q-55 0 -108 -46.5t-118 -150.5l-79 51q83 170 165.5 238t178.5 68q57 0 115 -28t153 -91q119 -76 180 -76q46 0 104.5 47t118.5 156z" />
    <glyph glyph-name="uni00A0" unicode="&#xa0;" horiz-adv-x="464" 
 />
    <glyph glyph-name="exclamdown" unicode="&#xa1;" horiz-adv-x="577" 
d="M281 555l-21 -8q-31 14 -84 71.5t-74 102.5l9 24q16 40 68.5 94.5t88.5 75.5l25 9q41 -24 88 -76t70 -96l-5 -25q-33 -50 -80.5 -99t-84.5 -73zM240 416l75 33q21 -125 48 -289.5t43.5 -256.5t33.5 -171l54 -99q-59 -35 -165 -59.5t-229 -24.5l-12 21q2 10 23.5 142.5
t55.5 321.5t73 382z" />
    <glyph glyph-name="cent" unicode="&#xa2;" horiz-adv-x="1107" 
d="M635 1124v160l76 25v-187q87 -2 181.5 -32t141.5 -72q-11 -40 -43.5 -114t-52.5 -103l-37 -17q-36 85 -65 224q-47 24 -125 22v-739q50 -2 100 10q134 98 197 127l20 -31q-13 -47 -72 -111.5t-92 -76.5q-84 -27 -153 -31v-164l-76 -26v184q-81 1 -155.5 17t-143.5 52
t-120 88.5t-81.5 132t-30.5 177.5q0 96 33.5 177t88 135.5t125 93.5t142 57.5t142.5 21.5zM635 301v721q-115 -27 -171 -122t-56 -236q0 -148 61 -241t166 -122z" />
    <glyph glyph-name="sterling" unicode="&#xa3;" horiz-adv-x="1107" 
d="M1004 399l47 -28q0 -41 -27 -167.5t-59 -213.5q-10 0 -185 5t-291 5h-466v25l77 141q58 24 72 45q84 92 74 414l-203 16l39 84h164l-2 59q0 28 2.5 58.5t9.5 76t23 90t38.5 91t60.5 89.5t85 75q116 75 264 75q79 0 142.5 -17.5t97.5 -45.5q-6 -45 -33 -127.5t-49 -120.5
l-45 -20q-54 115 -86 243q-20 4 -31 4q-26 0 -51 -9t-51 -34.5t-44.5 -65t-28.5 -106t-7 -151.5q1 -20 1 -56t1 -61.5t4 -46.5h309l-37 -84l-276 -16q0 -78 -17.5 -140t-53.5 -110t-76.5 -82.5t-100.5 -71.5v-4q86 -3 284.5 1.5t286.5 8.5q15 17 64 80.5t74 91.5z" />
    <glyph glyph-name="currency" unicode="&#xa4;" horiz-adv-x="1107" 
d="M1010 1047l-138 -123q82 -111 82 -250q0 -149 -96 -262l135 -111l-96 -104l-119 141q-44 -38 -107 -58t-128 -20q-59 0 -131 20.5t-113 57.5l-117 -141l-94 104l133 109q-42 52 -66 121.5t-24 142.5q0 65 23.5 134.5t60.5 115.5l-139 114l96 105l123 -144q118 88 256 88
q136 0 240 -90l118 146zM545 981h-2q-117 0 -184.5 -88t-67.5 -219q0 -134 73 -220.5t181 -86.5q115 0 183.5 85.5t68.5 221.5q0 133 -72 220t-180 87z" />
    <glyph glyph-name="yen" unicode="&#xa5;" horiz-adv-x="1107" 
d="M147 711h230l-242 491l-117 58l19 57q45 0 133.5 -2t132.5 -2q45 0 134 2t134 2l-16 -60l-106 -55l178 -448h6q97 223 186 438l-139 70l25 55q31 0 94 -2t96 -2q31 0 96 2t96 2l-14 -55l-121 -70q-13 -24 -53 -96.5t-63.5 -116t-62 -119t-73.5 -149.5h263l-29 -84h-260
l2 -152h287l-31 -80h-256q0 -67 1.5 -132t3 -103t1.5 -41l188 -68l-14 -53q-55 0 -163 1t-161 1t-159.5 -1t-159.5 -1l12 53l164 68q7 30 10 276h-278l26 80h252v152h-274z" />
    <glyph glyph-name="brokenbar" unicode="&#xa6;" horiz-adv-x="706" 
d="M266 1364h170v-750h-170v750zM266 -375v752h170v-752h-170z" />
    <glyph glyph-name="section" unicode="&#xa7;" horiz-adv-x="995" 
d="M211 109l33 8q22 -46 78 -230q37 -16 92 -16q59 0 111.5 35.5t52.5 87.5q0 43 -27.5 86.5t-93.5 109.5q-56 56 -219 236q-82 91 -125 179t-43 188q0 260 278 424q108 65 207 65q55 0 111 -27q11 8 44.5 25.5t65.5 28.5l27 -13q3 -34 -20 -130.5t-42 -137.5l-30 -10
q-39 66 -70 164q-32 18 -90 18q-60 0 -94.5 -31t-32.5 -69q0 -46 55 -109q59 -71 248 -272q113 -120 153 -211t40 -182q0 -115 -67 -237t-204 -214q-122 -82 -243 -82q-161 0 -271 82q0 28 29.5 120.5t46.5 113.5zM707 16h4q73 95 73 215q0 149 -147 308q-11 12 -47.5 51
t-45.5 49.5t-36 39.5t-37.5 42t-29.5 35t-33 40t-29 38q-80 107 -80 198q0 46 14 78h-6q-104 -94 -104 -227q-3 -132 123 -275q51 -57 136.5 -146t117.5 -124q78 -88 104.5 -145.5t26.5 -118.5q0 -14 -2 -32.5t-2 -25.5z" />
    <glyph glyph-name="dieresis" unicode="&#xa8;" 
d="M190 1343l19 5q23 -10 62.5 -54.5t58.5 -79.5l-6 -22q-12 -32 -51 -73t-70 -62l-23 -4q-31 19 -66.5 58.5t-56.5 74.5l4 22q25 38 62 77t67 58zM596 1343l18 5q23 -10 62.5 -54.5t58.5 -79.5l-6 -22q-14 -31 -53 -73t-68 -62l-22 -4q-31 19 -68 60t-55 73l4 22
q27 39 63.5 78t65.5 57z" />
    <glyph glyph-name="copyright" unicode="&#xa9;" horiz-adv-x="1406" 
d="M705 1288h2q127 0 241.5 -50t197 -135t131 -204t48.5 -252q0 -175 -82.5 -321.5t-225 -231t-312.5 -84.5q-172 0 -315.5 84.5t-225.5 231t-82 321.5q0 133 48.5 252t131.5 204t198.5 135t244.5 50zM707 1202h-2q-145 0 -264 -72.5t-186 -199.5t-67 -281q0 -153 67 -279.5
t186.5 -200t265.5 -73.5q145 0 262.5 73.5t183.5 200t66 279.5q0 236 -146 394.5t-366 158.5zM754 983h2q76 0 123 -27q15 7 104 27l12 -6q0 -25 -16 -110t-23 -101l-28 -16q-26 37 -68 145q-24 16 -72 16q-92 0 -151 -74.5t-59 -181.5q0 -109 61 -181.5t160 -72.5
q13 0 21 0.5t10.5 1.5t7 3.5t8.5 3.5q19 16 47.5 43.5t50 47.5t31.5 25l29 -22q-3 -22 -31 -81.5t-43 -74.5q-25 -9 -76 -19t-90 -10q-185 0 -288 91.5t-103 234.5q0 80 28 142t69.5 98t95.5 59t99.5 31t88.5 8z" />
    <glyph glyph-name="ordfeminine" unicode="&#xaa;" horiz-adv-x="686" 
d="M379 961l2 24q0 48 -29 70t-69 22q-43 0 -72 -18q-27 -88 -45 -125l-23 -8q-12 4 -40.5 41t-41.5 75q76 61 175 91q65 24 110 24q63 0 110 -17.5t72.5 -45.5t37.5 -57.5t12 -59.5q0 -47 -5 -232q8 -19 31.5 -39.5t54.5 -33.5l-4 -27q-45 -29 -131 -29q-62 0 -97.5 20.5
t-45.5 51.5q-106 -72 -168 -72q-75 0 -119.5 48.5t-44.5 107.5q0 71 57 102q70 38 273 87zM377 756l2 145q-50 -14 -96 -43q-22 -13 -31.5 -26t-9.5 -35q0 -35 23.5 -54.5t53.5 -19.5q29 0 46 10q12 9 12 23z" />
    <glyph glyph-name="guillemotleft" unicode="&#xab;" horiz-adv-x="1122" 
d="M565 94l-59 -39q-97 124 -210.5 237t-182.5 167q69 60 178 171t207 232l61 -41q-122 -256 -188 -362q117 -181 194 -365zM1001 94l-63 -39q-106 128 -217.5 242t-171.5 162q214 201 381 403l59 -39q-124 -259 -186 -364q111 -168 198 -365z" />
    <glyph glyph-name="logicalnot" unicode="&#xac;" horiz-adv-x="1226" 
d="M897 113v436h-731l33 137h856v-541z" />
    <glyph glyph-name="uni00AD" unicode="&#xad;" horiz-adv-x="768" 
d="M596 432l-512 -72l70 195l112 -4l424 29v-21z" />
    <glyph glyph-name="registered" unicode="&#xae;" horiz-adv-x="628" 
d="M319 1350h3q103 0 175 -73.5t72 -180.5q0 -112 -72.5 -186t-177.5 -74q-108 0 -180.5 74t-72.5 186q0 107 73 180.5t180 73.5zM319 1298h-2q-78 0 -133 -58.5t-55 -143.5q0 -86 55.5 -146.5t134.5 -60.5q77 0 132 60.5t55 146.5q0 84 -55 143t-132 59zM199 1186l6 28
q64 11 110 11q105 0 105 -62q0 -11 -2.5 -20t-9 -16t-10 -10.5t-12 -8.5t-9.5 -6q5 -15 47 -76q7 -14 13 -23l10 -15l6 -9l-2 -4q-57 0 -89 24q-27 31 -59 99q27 12 37 22t10 31q0 46 -57 43v-182l43 -11l-8 -22h-129l4 22l28 9v182z" />
    <glyph glyph-name="macron" unicode="&#xaf;" 
d="M612 1122h-475l39 150h477z" />
    <glyph glyph-name="degree" unicode="&#xb0;" horiz-adv-x="583" 
d="M295 1325h2q97 0 163 -67t66 -166q0 -100 -66 -166t-165 -66t-164.5 66t-67.5 166q0 100 66 166.5t166 66.5zM291 1241h-2q-49 0 -85 -41.5t-36 -105.5q1 -68 37 -109t90 -41q53 0 90 41.5t37 108.5q0 60 -36 103.5t-95 43.5z" />
    <glyph glyph-name="plusminus" unicode="&#xb1;" horiz-adv-x="1226" 
d="M1083 135l-24 -135h-930l23 135h931zM684 252l-156 -23v406h-399l23 137h376v352l156 25v-377h399l-24 -137h-375v-383z" />
    <glyph glyph-name="twosuperior" unicode="&#xb2;" horiz-adv-x="749" 
d="M629 1133l47 -29q-19 -130 -62 -240q-4 0 -125 3t-192 3h-225v29l49 102l45 27q110 77 171.5 156t61.5 172q0 65 -32 101t-84 36q-25 0 -41 -8q-33 -110 -66 -178l-35 -17q-39 60 -73 166q155 123 305 123q112 0 185 -57t73 -158q0 -29 -8 -56t-20 -48t-35 -43.5
t-42.5 -38.5t-54 -38t-59.5 -36t-68 -38t-70 -40q25 0 131.5 4t141.5 4q48 60 82 99z" />
    <glyph glyph-name="threesuperior" unicode="&#xb3;" horiz-adv-x="749" 
d="M186 1343l-24 -12q-13 15 -37 59.5t-35 79.5q55 45 136 77t151 32q119 0 185.5 -47t66.5 -125q0 -56 -46.5 -93.5t-142.5 -62.5l-2 -4q122 -10 178 -55.5t56 -112.5q-1 -69 -51 -120.5t-127 -77t-166 -25.5q-77 0 -145 20.5t-105 49.5q4 23 32 82.5t40 74.5l26 11
q55 -136 62 -158q21 -6 49 -6q67 0 106 42t39 103q0 104 -88 121q-101 -18 -125 -18l-10 18q0 9 16.5 37.5t32.5 42.5h82q26 9 44.5 34.5t18.5 67.5q0 56 -34.5 88.5t-83.5 32.5q-22 0 -41 -8q-4 -24 -24.5 -75.5t-33.5 -72.5z" />
    <glyph glyph-name="acute" unicode="&#xb4;" 
d="M358 1010l-59 45l174 356q53 5 114.5 -5t100.5 -34v-33z" />
    <glyph glyph-name="mu" unicode="&#xb5;" horiz-adv-x="1173" 
d="M993 788v-628q24 -38 172 -56l-24 -63q-30 -30 -89.5 -48t-133.5 -18q-35 0 -69.5 10t-72 44t-53.5 88h-4q-119 -144 -223 -144q-74 0 -121 47l-4 -2q-24 -333 18 -464l-20 -21q-69 4 -115 23t-71 56t-35 84.5t-11 117.5q-1 74 -1 141.5t0.5 178.5t0.5 212q0 78 1 285
t1 258q22 13 121.5 30t171.5 17l4 -6q-2 -39 -10 -142t-16.5 -227.5t-14.5 -259.5q-2 -55 25 -94q45 -62 131 -62q94 0 162 68v676q25 12 135 29.5t182 17.5l14 -16q-27 -63 -51 -132z" />
    <glyph glyph-name="paragraph" unicode="&#xb6;" horiz-adv-x="1103" 
d="M883 1341l-74 -239v-993q0 -124 -16 -224.5t-45 -165.5t-64 -111.5t-77 -70.5t-79.5 -34.5t-76.5 -10.5q-43 0 -72 10q-77 77 -111 148l23 33q47 -19 112 -19q61 0 111.5 19.5t95 65t70 132.5t25.5 209v55q-92 -28 -117 -28q-83 0 -171 31.5t-165 89.5t-126.5 153.5
t-49.5 210.5q0 119 47.5 216.5t129.5 160t188 96t225 33.5h32l11 205z" />
    <glyph glyph-name="periodcentered" unicode="&#xb7;" horiz-adv-x="522" 
d="M258 678l21 8q31 -13 83 -71.5t74 -102.5l-8 -23q-16 -41 -69 -96t-89 -76l-24 -8q-41 24 -88 76t-70 96l6 23q32 51 79.5 101.5t84.5 72.5z" />
    <glyph glyph-name="cedilla" unicode="&#xb8;" 
d="M397 6h92l-79 -106q74 -39 104.5 -77t30.5 -87q0 -73 -66.5 -128t-197.5 -85l-29 67q139 49 139 115q0 28 -30.5 49t-110.5 56z" />
    <glyph glyph-name="onesuperior" unicode="&#xb9;" horiz-adv-x="749" 
d="M274 1423l-161 7l18 51q277 82 336 98h25q0 -73 4 -337.5t4 -274.5l137 -43l-21 -54q-40 0 -119 2t-118 2q-43 0 -129.5 -2t-130.5 -2l16 54l125 43q14 273 14 456z" />
    <glyph glyph-name="ordmasculine" unicode="&#xba;" horiz-adv-x="743" 
d="M373 1159h2q140 0 229.5 -70.5t89.5 -197.5q0 -124 -90.5 -199.5t-238.5 -75.5q-132 0 -224 71t-92 194t96.5 200.5t227.5 77.5zM371 1092h-2q-36 0 -60 -37t-31.5 -77.5t-7.5 -78.5q0 -34 6 -70t18 -70t34.5 -55.5t50.5 -21.5q94 0 94 203q0 33 -4 64.5t-14 66
t-31.5 55.5t-52.5 21z" />
    <glyph glyph-name="guillemotright" unicode="&#xbb;" horiz-adv-x="1122" 
d="M551 823l61 39q96 -123 208 -234t186 -171q-65 -54 -175.5 -167t-209.5 -235l-62 41q120 252 189 361q-126 203 -197 366zM117 823l63 39q104 -126 215.5 -239.5t173.5 -165.5q-195 -177 -381 -402l-59 39q118 246 186 363q-113 174 -198 366z" />
    <glyph glyph-name="onequarter" unicode="&#xbc;" horiz-adv-x="1587" 
d="M283 1184l-162 6l18 51q277 82 336 98h25q0 -73 4 -337.5t4 -274.5l137 -43l-20 -53q-40 0 -119.5 2t-118.5 2q-43 0 -129.5 -2t-130.5 -2l16 53l125 43q15 292 15 457zM1188 1376l78 -55q-345 -549 -860 -1401l-72 66q336 542 854 1390zM1319 201l2 -113l125 -43
l-21 -47q-36 0 -108.5 1t-108.5 1q-38 0 -113.5 -1t-113.5 -1l18 47l101 43l6 111l-285 -4l-20 38q48 84 160.5 246.5t134.5 182.5q18 10 97 25t126 20v-435h61q30 30 62 52l24 2q0 -25 -7 -95.5t-13 -87.5l-23 -6q-21 17 -51 66zM1108 272l16 301h-10q-25 -35 -50.5 -75.5
t-42 -69t-45 -77t-44.5 -75.5z" />
    <glyph glyph-name="onehalf" unicode="&#xbd;" horiz-adv-x="1587" 
d="M266 1184l-162 6l19 51q277 82 336 98h24q0 -73 4.5 -337.5t4.5 -274.5l137 -43l-21 -53q-40 0 -119 2t-118 2q-43 0 -129.5 -2t-130.5 -2l16 53l125 43q14 273 14 457zM1167 1376l78 -55q-345 -549 -860 -1401l-72 66q336 542 854 1390zM1466 260l47 -29
q-19 -133 -61 -239q-4 0 -125 3t-192 3h-226v29l49 102q9 5 23 13.5t23 13.5q111 78 172 156t61 171q0 65 -32.5 101.5t-84.5 36.5q-23 0 -41 -9q-34 -115 -65 -178l-35 -16q-17 27 -39.5 78.5t-34.5 87.5q155 123 305 123q112 0 185 -57t73 -158q0 -29 -8 -56t-20 -48
t-34.5 -43.5t-42.5 -38.5t-54.5 -38t-59 -36t-67.5 -38t-70 -40q25 0 131 4t141 4q39 48 82 98z" />
    <glyph glyph-name="threequarters" unicode="&#xbe;" horiz-adv-x="1587" 
d="M211 1104l-25 -12q-13 14 -36.5 59t-34.5 80q55 45 135 76.5t151 31.5q119 0 185.5 -47t66.5 -125q0 -56 -46 -93t-142 -62l-2 -4q121 -10 177 -55.5t56 -112.5q-1 -69 -51 -121t-127 -77.5t-166 -25.5q-77 0 -145 20.5t-105 49.5q4 23 32 83t40 75l27 10
q47 -118 61 -158q21 -6 49 -6q67 0 106.5 42.5t39.5 103.5q0 103 -88 120q-101 -18 -125 -18l-11 18q0 9 17 37.5t33 42.5q10 1 21.5 1t29.5 -0.5t31 -0.5q25 9 44 35t19 68q0 56 -35 88.5t-84 32.5q-20 0 -41 -9q-4 -24 -24 -75t-33 -72zM1204 1376l78 -55
q-345 -549 -860 -1401l-72 66q336 542 854 1390zM1319 201l2 -113l125 -43l-21 -47q-36 0 -108.5 1t-108.5 1q-38 0 -113.5 -1t-113.5 -1l18 47l101 43l6 111l-285 -4l-20 38q48 84 160.5 246.5t134.5 182.5q18 10 97 25t126 20v-435h61q30 30 62 52l24 2q0 -25 -7 -95.5
t-13 -87.5l-23 -6q-21 17 -51 66zM1108 272l16 301h-10q-25 -35 -50.5 -75.5t-42 -69t-45 -77t-44.5 -75.5z" />
    <glyph glyph-name="questiondown" unicode="&#xbf;" horiz-adv-x="923" 
d="M489 553l-20 -6q-31 14 -84 71.5t-74 102.5l8 24q16 40 69 94.5t89 75.5l25 9q41 -24 87.5 -76t69.5 -96l-4 -25q-35 -51 -82 -100t-84 -74zM465 -451h-2q-54 0 -106.5 11t-102 36t-87 62t-60.5 93.5t-23 125.5q0 123 139 236q205 171 203 233q-2 28 -27 82l60 29
q73 -22 138.5 -91t68.5 -157q-20 -52 -58.5 -97t-140.5 -145q-125 -122 -125 -186q0 -49 43 -94t125 -45q50 0 82 16q43 170 92 252l33 14q40 -46 72.5 -114.5t44.5 -120.5q-81 -61 -187.5 -100.5t-181.5 -39.5z" />
    <glyph glyph-name="Agrave" unicode="&#xc0;" horiz-adv-x="1499" 
d="M596 1298l238 101l8 -13q0 -46 5.5 -71t24.5 -76q17 -50 392 -1001q29 -76 63.5 -105t151.5 -80l-19 -55q-52 0 -158 1t-159 1q-40 0 -119.5 -1t-118.5 -1l19 53l69 68q-5 18 -23 66t-48.5 130t-51.5 138q-214 -12 -440 -9q-65 -171 -108 -307l161 -82l-16 -57
q-37 0 -111.5 1t-111.5 1t-112.5 -1t-113.5 -1l17 57l141 84q39 72 174 393.5t264 645.5q8 25 2 53zM664 1071h-5q-99 -261 -184 -500q33 0 180.5 -4t180.5 -4q-146 423 -172 508zM862 1532l-39 -66l-432 160v27q24 50 64 93.5t73 53.5z" />
    <glyph glyph-name="Aacute" unicode="&#xc1;" horiz-adv-x="1499" 
d="M596 1298l238 101l8 -13q0 -46 5.5 -71t24.5 -76q17 -50 392 -1001q29 -76 63.5 -105t151.5 -80l-19 -55q-52 0 -158 1t-159 1q-40 0 -119.5 -1t-118.5 -1l19 53l69 68q-5 18 -23 66t-48.5 130t-51.5 138q-214 -12 -440 -9q-65 -171 -108 -307l161 -82l-16 -57
q-37 0 -111.5 1t-111.5 1t-112.5 -1t-113.5 -1l17 57l141 84q39 72 174 393.5t264 645.5q8 25 2 53zM664 1071h-5q-99 -261 -184 -500q33 0 180.5 -4t180.5 -4q-146 423 -172 508zM635 1444l-37 61l334 273q36 -4 80 -48t69 -100v-26z" />
    <glyph glyph-name="Acircumflex" unicode="&#xc2;" horiz-adv-x="1499" 
d="M596 1298l238 101l8 -13q0 -46 5.5 -71t24.5 -76q17 -50 392 -1001q29 -76 63.5 -105t151.5 -80l-19 -55q-52 0 -158 1t-159 1q-40 0 -119.5 -1t-118.5 -1l19 53l69 68q-5 18 -23 66t-48.5 130t-51.5 138q-214 -12 -440 -9q-65 -171 -108 -307l161 -82l-16 -57
q-37 0 -111.5 1t-111.5 1t-112.5 -1t-113.5 -1l17 57l141 84q39 72 174 393.5t264 645.5q8 25 2 53zM664 1071h-5q-99 -261 -184 -500q33 0 180.5 -4t180.5 -4q-146 423 -172 508zM715 1765h41q102 -94 286 -266l-32 -55q-137 68 -275 133q-4 -2 -272 -133l-33 55
q51 48 146.5 136.5t138.5 129.5z" />
    <glyph glyph-name="Atilde" unicode="&#xc3;" horiz-adv-x="1499" 
d="M596 1298l238 101l8 -13q0 -46 5.5 -71t24.5 -76q17 -50 392 -1001q29 -76 63.5 -105t151.5 -80l-19 -55q-52 0 -158 1t-159 1q-40 0 -119.5 -1t-118.5 -1l19 53l69 68q-5 18 -23 66t-48.5 130t-51.5 138q-214 -12 -440 -9q-65 -171 -108 -307l161 -82l-16 -57
q-37 0 -111.5 1t-111.5 1t-112.5 -1t-113.5 -1l17 57l141 84q39 72 174 393.5t264 645.5q8 25 2 53zM664 1071h-5q-99 -261 -184 -500q33 0 180.5 -4t180.5 -4q-146 423 -172 508zM1032 1698l55 -43q-62 -103 -121.5 -153t-109.5 -50q-8 0 -15 1t-16 4l-15 5t-18.5 8
t-19 9.5t-24.5 13t-27 14.5q-78 41 -111 41q-44 0 -143 -102l-51 45q123 213 229 213q39 0 129 -49q82 -47 113 -47q51 0 145 90z" />
    <glyph glyph-name="Adieresis" unicode="&#xc4;" horiz-adv-x="1499" 
d="M596 1298l238 101l8 -13q0 -46 5.5 -71t24.5 -76q17 -50 392 -1001q29 -76 63.5 -105t151.5 -80l-19 -55q-52 0 -158 1t-159 1q-40 0 -119.5 -1t-118.5 -1l19 53l69 68q-5 18 -23 66t-48.5 130t-51.5 138q-214 -12 -440 -9q-65 -171 -108 -307l161 -82l-16 -57
q-37 0 -111.5 1t-111.5 1t-112.5 -1t-113.5 -1l17 57l141 84q39 72 174 393.5t264 645.5q8 25 2 53zM664 1071h-5q-99 -261 -184 -500q33 0 180.5 -4t180.5 -4q-146 423 -172 508zM512 1741l18 4q24 -10 65 -55.5t60 -81.5l-6 -21q-12 -32 -53 -74t-72 -63l-22 -6
q-33 20 -68.5 60.5t-56.5 76.5l4 21q26 39 63.5 78.5t67.5 60.5zM956 1741l17 4q24 -10 65 -55.5t60 -81.5l-6 -21q-13 -31 -53 -73t-70 -64l-25 -6q-33 21 -70 62.5t-55 74.5l6 21q22 38 60.5 78t70.5 61z" />
    <glyph glyph-name="Aring" unicode="&#xc5;" horiz-adv-x="1499" 
d="M596 1298l238 101l8 -13q0 -46 5.5 -71t24.5 -76q17 -50 392 -1001q29 -76 63.5 -105t151.5 -80l-19 -55q-52 0 -158 1t-159 1q-40 0 -119.5 -1t-118.5 -1l19 53l69 68q-5 18 -23 66t-48.5 130t-51.5 138q-214 -12 -440 -9q-65 -171 -108 -307l161 -82l-16 -57
q-37 0 -111.5 1t-111.5 1t-112.5 -1t-113.5 -1l17 57l141 84q39 72 174 393.5t264 645.5q8 25 2 53zM664 1071h-5q-99 -261 -184 -500q33 0 180.5 -4t180.5 -4q-146 423 -172 508zM725 1817h2q76 0 133.5 -51.5t57.5 -137.5t-58 -136t-135 -50t-135 50t-58 136t58 137.5
t135 51.5zM725 1735h-2q-40 0 -65 -26.5t-25 -80.5t25.5 -80t66.5 -26q42 0 67 26t25 80t-25 80.5t-67 26.5z" />
    <glyph glyph-name="AE" unicode="&#xc6;" horiz-adv-x="2007" 
d="M999 610h-421q-9 -19 -47 -94t-83 -171t-100 -220l182 -72l-14 -55q-34 0 -116.5 1t-127.5 1q-40 0 -123.5 -1t-123.5 -1l14 57l151 72q349 651 574 1106l-236 61l21 58q57 0 168 -2t168 -2h817q18 4 87 14.5t114 13.5l6 -8q-6 -63 -25 -181.5t-31 -160.5l-38 -14
q-19 29 -71.5 134l-53.5 107l-420 -16l16 -520q204 0 533 28l12 -26q-7 -23 -56 -77t-69 -54q-7 0 -188.5 11t-229.5 11q0 -138 23 -497l372 -25q76 97 234 283l37 -17q-2 -33 -33 -181t-47 -181q-133 8 -371 8h-383q-50 0 -154 -1t-157 -1l10 57l180 72q3 31 0 483z
M629 717h368l4 532h-110q-112 -207 -262 -532z" />
    <glyph glyph-name="Ccedilla" unicode="&#xc7;" horiz-adv-x="1433" 
d="M905 -37l-49 -63q75 -37 105 -75t30 -89q0 -72 -66.5 -127t-197.5 -84l-29 65q140 52 140 115q0 29 -29.5 49t-112.5 56l117 155q-116 6 -222 35t-199.5 86.5t-162.5 137t-109 193t-40 247.5q0 146 49 268.5t128 204.5t182 139.5t209 83.5t210 26h2q196 0 303 -65
q105 40 197 47l12 -8q-3 -43 -38.5 -185t-51.5 -182l-49 -18q-47 94 -90 262q-66 41 -201 41q-128 0 -232.5 -50t-171.5 -133.5t-103 -190.5t-36 -224q0 -120 36 -228t104 -192t175 -133t240 -49q51 0 82 8q169 166 305 270l37 -43q-18 -62 -76 -161.5t-88 -133.5
q-43 -16 -139 -33.5t-170 -21.5z" />
    <glyph glyph-name="Egrave" unicode="&#xc8;" horiz-adv-x="1234" 
d="M66 1296l18 56q49 0 147 -1t146 -1h508q128 22 219 26l6 -8q-1 -39 -19.5 -161.5t-29.5 -164.5l-39 -14q-16 26 -71.5 124.5t-57.5 102.5l-361 -20v-487q206 0 521 28l12 -24q-5 -21 -56 -80.5t-71 -59.5q-10 0 -185 13t-221 14q0 -349 9 -524l362 -23q176 223 236 279
l41 -19q-2 -30 -34 -176.5t-46 -179.5q-129 6 -359 6h-368q-48 0 -160.5 -2t-165.5 -2l16 55l166 78q13 50 13 574v520zM780 1509l-39 -65l-432 160v26q24 50 64 94t73 54z" />
    <glyph glyph-name="Eacute" unicode="&#xc9;" horiz-adv-x="1234" 
d="M66 1296l18 56q49 0 147 -1t146 -1h508q128 22 219 26l6 -8q-1 -39 -19.5 -161.5t-29.5 -164.5l-39 -14q-16 26 -71.5 124.5t-57.5 102.5l-361 -20v-487q206 0 521 28l12 -24q-5 -21 -56 -80.5t-71 -59.5q-10 0 -185 13t-221 14q0 -349 9 -524l362 -23q176 223 236 279
l41 -19q-2 -30 -34 -176.5t-46 -179.5q-129 6 -359 6h-368q-48 0 -160.5 -2t-165.5 -2l16 55l166 78q13 50 13 574v520zM508 1444l-37 61l334 273q36 -4 80 -48t69 -100v-26z" />
    <glyph glyph-name="Ecircumflex" unicode="&#xca;" horiz-adv-x="1234" 
d="M66 1296l18 56q49 0 147 -1t146 -1h508q128 22 219 26l6 -8q-1 -39 -19.5 -161.5t-29.5 -164.5l-39 -14q-16 26 -71.5 124.5t-57.5 102.5l-361 -20v-487q206 0 521 28l12 -24q-5 -21 -56 -80.5t-71 -59.5q-10 0 -185 13t-221 14q0 -349 9 -524l362 -23q176 223 236 279
l41 -19q-2 -30 -34 -176.5t-46 -179.5q-129 6 -359 6h-368q-48 0 -160.5 -2t-165.5 -2l16 55l166 78q13 50 13 574v520zM616 1765h41q147 -135 287 -266l-33 -55q-151 76 -274 133q-4 -2 -272 -133l-33 55q96 90 284 266z" />
    <glyph glyph-name="Edieresis" unicode="&#xcb;" horiz-adv-x="1234" 
d="M66 1296l18 56q49 0 147 -1t146 -1h508q128 22 219 26l6 -8q-1 -39 -19.5 -161.5t-29.5 -164.5l-39 -14q-16 26 -71.5 124.5t-57.5 102.5l-361 -20v-487q206 0 521 28l12 -24q-5 -21 -56 -80.5t-71 -59.5q-10 0 -185 13t-221 14q0 -349 9 -524l362 -23q176 223 236 279
l41 -19q-2 -30 -34 -176.5t-46 -179.5q-129 6 -359 6h-368q-48 0 -160.5 -2t-165.5 -2l16 55l166 78q13 50 13 574v520zM403 1751l19 4q24 -10 65 -55.5t60 -81.5l-6 -21q-12 -32 -53 -74t-72 -63l-23 -6q-33 20 -68.5 60.5t-56.5 76.5l4 21q26 39 63.5 78.5t67.5 60.5z
M848 1751l16 4q24 -10 65 -55.5t60 -81.5l-6 -21q-13 -31 -53 -73t-70 -64l-24 -6q-33 21 -70 62.5t-55 74.5l6 21q22 38 60.5 78t70.5 61z" />
    <glyph glyph-name="Igrave" unicode="&#xcc;" horiz-adv-x="776" 
d="M92 1292l19 58q47 0 138.5 -1t137.5 -1q50 0 150.5 1t150.5 1l-16 -58l-140 -71v-519q0 -510 11 -573l178 -74l-16 -57q-53 0 -161 2t-163 2q-53 0 -160 -2t-160 -2l17 57l151 76q13 37 13 571v519zM549 1509l-39 -65l-432 160v26q24 50 64 94t73 54z" />
    <glyph glyph-name="Iacute" unicode="&#xcd;" horiz-adv-x="776" 
d="M92 1292l19 58q47 0 138.5 -1t137.5 -1q50 0 150.5 1t150.5 1l-16 -58l-140 -71v-519q0 -510 11 -573l178 -74l-16 -57q-53 0 -161 2t-163 2q-53 0 -160 -2t-160 -2l17 57l151 76q13 37 13 571v519zM272 1444l-36 61l333 273q37 -4 81 -48t69 -100v-26z" />
    <glyph glyph-name="Icircumflex" unicode="&#xce;" horiz-adv-x="776" 
d="M92 1292l19 58q47 0 138.5 -1t137.5 -1q50 0 150.5 1t150.5 1l-16 -58l-140 -71v-519q0 -510 11 -573l178 -74l-16 -57q-53 0 -161 2t-163 2q-53 0 -160 -2t-160 -2l17 57l151 76q13 37 13 571v519zM365 1776h41q54 -50 286 -267l-33 -55q-151 76 -274 133
q-4 -2 -272 -133l-33 55q144 135 285 267z" />
    <glyph glyph-name="Idieresis" unicode="&#xcf;" horiz-adv-x="776" 
d="M92 1292l19 58q47 0 138.5 -1t137.5 -1q50 0 150.5 1t150.5 1l-16 -58l-140 -71v-519q0 -510 11 -573l178 -74l-16 -57q-53 0 -161 2t-163 2q-53 0 -160 -2t-160 -2l17 57l151 76q13 37 13 571v519zM168 1751l18 4q24 -10 65 -55.5t60 -81.5l-6 -21q-12 -32 -53 -74
t-72 -63l-22 -6q-33 20 -68.5 60.5t-56.5 76.5l4 21q26 39 63.5 78.5t67.5 60.5zM612 1751l17 4q24 -10 65 -55.5t60 -81.5l-6 -21q-13 -31 -53 -73t-70 -64l-25 -6q-33 21 -70 62.5t-55 74.5l6 21q22 38 60.5 78t70.5 61z" />
    <glyph glyph-name="Eth" unicode="&#xd0;" horiz-adv-x="1595" 
d="M94 756h178v481l-170 51l19 53q1 0 86.5 7t201 12.5t230.5 5.5q187 0 334 -31t248.5 -87.5t168 -138.5t96.5 -180.5t30 -217.5q0 -114 -29 -211.5t-74.5 -165t-108.5 -123t-122 -88.5t-125 -57q-113 -42 -248 -57t-346 -15q-85 0 -215 3t-156 3l17 57l151 68
q12 46 12 537h-211zM563 756h326l-43 -94h-283q0 -555 8 -584q124 0 244.5 36t204.5 115q176 167 176 461q0 292 -182 447q-88 77 -197 107t-254 30v-518z" />
    <glyph glyph-name="Ntilde" unicode="&#xd1;" horiz-adv-x="1579" 
d="M586 55l-15 -57q-43 0 -133.5 1t-134.5 1q-41 0 -123 -1t-123 -1l9 59l159 86q20 189 39 983q-59 79 -96 106t-106 53q-12 4 -19 7l25 56l387 12q14 -38 84 -125q421 -507 708 -823h4q0 144 -12 798l-213 84l18 56q44 0 131 -1t125 -1q41 0 121.5 1t120.5 1l-16 -58
l-150 -82q0 -12 -6 -206.5t-12 -427t-8 -400.5q0 -106 -9 -207l-45 -12q-132 100 -386.5 387t-551.5 668h-4q-4 -230 -0.5 -524.5t15.5 -346.5zM1102 1698l55 -43q-62 -103 -121.5 -153t-109.5 -50q-8 0 -15 1t-16 4l-15 5t-18.5 8t-19 9.5t-24.5 13t-27 14.5
q-78 41 -111 41q-44 0 -143 -102l-52 45q123 213 230 213q39 0 129 -49q82 -47 112 -47q52 0 146 90z" />
    <glyph glyph-name="Ograve" unicode="&#xd2;" horiz-adv-x="1638" 
d="M823 1386h2q96 0 194 -24t194.5 -78t172 -132t123.5 -197t50 -261q2 -148 -41 -271.5t-115.5 -207.5t-168.5 -142.5t-200 -85t-211 -26.5q-103 0 -205.5 26t-200 83t-172 137t-120 198t-45.5 257q0 163 63.5 301.5t168 229.5t237.5 142t274 51zM797 1303h-2
q-94 0 -169 -49t-121.5 -134t-70.5 -193t-24 -231q0 -121 29 -236t83 -209t140 -151t190 -57q86 0 153.5 40t108.5 103t68 147.5t37 164.5t10 164q0 80 -16 166.5t-51.5 171.5t-84.5 152t-122 109t-158 42zM991 1522l-39 -66l-432 160v26q24 50 64 94t73 54z" />
    <glyph glyph-name="Oacute" unicode="&#xd3;" horiz-adv-x="1638" 
d="M823 1386h2q96 0 194 -24t194.5 -78t172 -132t123.5 -197t50 -261q2 -148 -41 -271.5t-115.5 -207.5t-168.5 -142.5t-200 -85t-211 -26.5q-103 0 -205.5 26t-200 83t-172 137t-120 198t-45.5 257q0 163 63.5 301.5t168 229.5t237.5 142t274 51zM797 1303h-2
q-94 0 -169 -49t-121.5 -134t-70.5 -193t-24 -231q0 -121 29 -236t83 -209t140 -151t190 -57q86 0 153.5 40t108.5 103t68 147.5t37 164.5t10 164q0 80 -16 166.5t-51.5 171.5t-84.5 152t-122 109t-158 42zM694 1464l-37 62l334 272q37 -4 81 -47.5t69 -99.5v-27z" />
    <glyph glyph-name="Ocircumflex" unicode="&#xd4;" horiz-adv-x="1638" 
d="M823 1386h2q96 0 194 -24t194.5 -78t172 -132t123.5 -197t50 -261q2 -148 -41 -271.5t-115.5 -207.5t-168.5 -142.5t-200 -85t-211 -26.5q-103 0 -205.5 26t-200 83t-172 137t-120 198t-45.5 257q0 163 63.5 301.5t168 229.5t237.5 142t274 51zM797 1303h-2
q-94 0 -169 -49t-121.5 -134t-70.5 -193t-24 -231q0 -121 29 -236t83 -209t140 -151t190 -57q86 0 153.5 40t108.5 103t68 147.5t37 164.5t10 164q0 80 -16 166.5t-51.5 171.5t-84.5 152t-122 109t-158 42zM795 1765h41q102 -94 286 -266l-32 -55q-137 68 -275 133
q-4 -2 -272 -133l-33 55q51 48 146.5 136.5t138.5 129.5z" />
    <glyph glyph-name="Otilde" unicode="&#xd5;" horiz-adv-x="1638" 
d="M823 1386h2q96 0 194 -24t194.5 -78t172 -132t123.5 -197t50 -261q2 -148 -41 -271.5t-115.5 -207.5t-168.5 -142.5t-200 -85t-211 -26.5q-103 0 -205.5 26t-200 83t-172 137t-120 198t-45.5 257q0 163 63.5 301.5t168 229.5t237.5 142t274 51zM797 1303h-2
q-94 0 -169 -49t-121.5 -134t-70.5 -193t-24 -231q0 -121 29 -236t83 -209t140 -151t190 -57q86 0 153.5 40t108.5 103t68 147.5t37 164.5t10 164q0 80 -16 166.5t-51.5 171.5t-84.5 152t-122 109t-158 42zM1104 1718l55 -43q-62 -103 -121.5 -152.5t-109.5 -49.5
q-8 0 -15 1t-16 4l-15 5t-18.5 8t-19 9.5t-24.5 13t-27 14.5q-78 41 -111 41q-43 0 -143 -103l-52 45q123 213 230 213q39 0 129 -49q82 -47 112 -47q52 0 146 90z" />
    <glyph glyph-name="Odieresis" unicode="&#xd6;" horiz-adv-x="1638" 
d="M823 1386h2q96 0 194 -24t194.5 -78t172 -132t123.5 -197t50 -261q2 -148 -41 -271.5t-115.5 -207.5t-168.5 -142.5t-200 -85t-211 -26.5q-103 0 -205.5 26t-200 83t-172 137t-120 198t-45.5 257q0 163 63.5 301.5t168 229.5t237.5 142t274 51zM797 1303h-2
q-94 0 -169 -49t-121.5 -134t-70.5 -193t-24 -231q0 -121 29 -236t83 -209t140 -151t190 -57q86 0 153.5 40t108.5 103t68 147.5t37 164.5t10 164q0 80 -16 166.5t-51.5 171.5t-84.5 152t-122 109t-158 42zM598 1751l18 4q24 -10 65 -55.5t60 -81.5l-6 -21q-12 -32 -53 -74
t-72 -63l-22 -6q-33 20 -68.5 60.5t-56.5 76.5l4 21q26 39 63.5 78.5t67.5 60.5zM1042 1751l17 4q24 -10 65 -55.5t60 -81.5l-6 -21q-13 -31 -53 -73t-70 -64l-25 -6q-33 21 -70 62.5t-55 74.5l6 21q22 38 60.5 78t70.5 61z" />
    <glyph glyph-name="multiply" unicode="&#xd7;" horiz-adv-x="1226" 
d="M1049 801l-328 -336l328 -334l-107 -115l-330 338l-323 -338l-111 115l326 334l-326 330l111 112l323 -334l330 338z" />
    <glyph glyph-name="Oslash" unicode="&#xd8;" horiz-adv-x="1640" 
d="M1233 1272l121 155l51 -47l-113 -151q120 -90 193 -225.5t74 -311.5q1 -149 -42 -273t-115.5 -207t-169 -141t-199.5 -84t-210 -26q-247 0 -434 121l-137 -178l-55 53l131 170q-114 91 -181 224.5t-67 305.5q0 132 41.5 249t113.5 203.5t166 149.5t202.5 95t219.5 32
q223 0 410 -114zM485 311l621 809q-57 91 -133 137t-180 46q-124 0 -215.5 -89t-135 -224t-43.5 -292q0 -243 82 -387h4zM1143 1049l-623 -813q54 -91 138.5 -142t191.5 -51q85 0 154 40.5t111.5 104.5t71.5 148t40.5 164.5t11.5 161.5q0 101 -23 205.5t-69 181.5h-4z" />
    <glyph glyph-name="Ugrave" unicode="&#xd9;" horiz-adv-x="1536" 
d="M51 1292l21 58q48 0 145 -1t145 -1q47 0 141 1t140 1l-16 -62l-115 -69q-2 -223 -2 -754q0 -146 51 -223q90 -138 295 -138q95 0 172 37.5t125 104.5q71 105 68 276q-3 471 -13 697l-145 69l14 62q33 0 98.5 -1t98.5 -1q43 0 129.5 1t128.5 1l-8 -62l-172 -74
q-11 -66 -23 -688q-3 -202 -80 -327q-64 -109 -187 -173.5t-278 -64.5q-105 0 -197.5 22t-178 79.5t-134.5 146.5q-55 100 -55 270q0 547 -4 742zM971 1509l-39 -65l-432 160v26q24 50 64 94t73 54z" />
    <glyph glyph-name="Uacute" unicode="&#xda;" horiz-adv-x="1536" 
d="M51 1292l21 58q48 0 145 -1t145 -1q47 0 141 1t140 1l-16 -62l-115 -69q-2 -223 -2 -754q0 -146 51 -223q90 -138 295 -138q95 0 172 37.5t125 104.5q71 105 68 276q-3 471 -13 697l-145 69l14 62q33 0 98.5 -1t98.5 -1q43 0 129.5 1t128.5 1l-8 -62l-172 -74
q-11 -66 -23 -688q-3 -202 -80 -327q-64 -109 -187 -173.5t-278 -64.5q-105 0 -197.5 22t-178 79.5t-134.5 146.5q-55 100 -55 270q0 547 -4 742zM692 1444l-37 61l334 273q37 -4 81 -48t69 -100v-26z" />
    <glyph glyph-name="Ucircumflex" unicode="&#xdb;" horiz-adv-x="1536" 
d="M51 1292l21 58q48 0 145 -1t145 -1q47 0 141 1t140 1l-16 -62l-115 -69q-2 -223 -2 -754q0 -146 51 -223q90 -138 295 -138q95 0 172 37.5t125 104.5q71 105 68 276q-3 471 -13 697l-145 69l14 62q33 0 98.5 -1t98.5 -1q43 0 129.5 1t128.5 1l-8 -62l-172 -74
q-11 -66 -23 -688q-3 -202 -80 -327q-64 -109 -187 -173.5t-278 -64.5q-105 0 -197.5 22t-178 79.5t-134.5 146.5q-55 100 -55 270q0 547 -4 742zM799 1765h41q102 -94 286 -266l-32 -55q-137 68 -275 133q-4 -2 -272 -133l-33 55q51 48 146.5 136.5t138.5 129.5z" />
    <glyph glyph-name="Udieresis" unicode="&#xdc;" horiz-adv-x="1536" 
d="M51 1292l21 58q48 0 145 -1t145 -1q47 0 141 1t140 1l-16 -62l-115 -69q-2 -223 -2 -754q0 -146 51 -223q90 -138 295 -138q95 0 172 37.5t125 104.5q71 105 68 276q-3 471 -13 697l-145 69l14 62q33 0 98.5 -1t98.5 -1q43 0 129.5 1t128.5 1l-8 -62l-172 -74
q-11 -66 -23 -688q-3 -202 -80 -327q-64 -109 -187 -173.5t-278 -64.5q-105 0 -197.5 22t-178 79.5t-134.5 146.5q-55 100 -55 270q0 547 -4 742zM604 1751l19 4q24 -10 65 -55.5t60 -81.5l-7 -21q-12 -32 -53 -74t-72 -63l-22 -6q-33 20 -68.5 60.5t-56.5 76.5l4 21
q26 39 63.5 78.5t67.5 60.5zM1049 1751l16 4q24 -10 65 -55.5t60 -81.5l-6 -21q-13 -31 -53 -73t-70 -64l-25 -6q-33 21 -70 62.5t-55 74.5l7 21q22 38 60.5 78t70.5 61z" />
    <glyph glyph-name="Yacute" unicode="&#xdd;" horiz-adv-x="1343" 
d="M2 1296l21 54q49 0 146.5 -1t145.5 -1h238l-14 -64l-58 -45q6 -13 283 -530h4q35 70 94.5 188.5t99.5 199t64 136.5l-88 59l25 56h155q39 0 117 1t117 1l-11 -60l-120 -49q-31 -12 -48 -25t-36 -40q-6 -10 -44 -70.5t-67.5 -108t-84 -145t-112.5 -207.5q-18 -45 -18 -61
q0 -428 8 -459l230 -70l-15 -57q-61 0 -181 1t-179 1q-66 0 -198 -1t-197 -1l14 55l215 72q12 162 12 444q0 25 -31 82q-13 22 -68.5 122t-122.5 218t-124 213q-45 43 -172 92zM633 1444l-37 61l334 273q36 -4 80 -48t69 -100v-26z" />
    <glyph glyph-name="Thorn" unicode="&#xde;" horiz-adv-x="1251" 
d="M104 49l125 68q9 35 9 588v534l-152 59l16 52q46 0 137 -1t134 -1q53 0 160.5 1t160.5 1l-14 -52l-152 -61v-168q38 5 134 8q83 2 156 -7.5t142 -35.5t118 -66.5t78.5 -106.5t29.5 -150q0 -88 -31 -160t-78.5 -115.5t-109 -73.5t-119 -41.5t-111.5 -11.5q-67 0 -125 23
l-4 59h37q104 0 168.5 78t63.5 221q0 138 -71.5 221.5t-203.5 83.5q-54 0 -74 -10v-252q0 -136 1.5 -247t3 -174t3.5 -105t3.5 -62.5t1.5 -25.5l186 -68l-14 -53q-55 0 -166 1t-166 1q-49 0 -146.5 -1t-146.5 -1z" />
    <glyph glyph-name="germandbls" unicode="&#xdf;" horiz-adv-x="1198" 
d="M76 909h104q16 260 178 400q134 114 328 114q173 0 272 -92.5t99 -226.5q0 -22 -6 -37q-105 -65 -159 -130.5t-52 -123.5q0 -35 21.5 -65t86.5 -93q52 -52 79 -82.5t56 -71.5t40.5 -82t11.5 -89q0 -107 -58 -189.5t-149.5 -125t-198.5 -42.5q-103 0 -168 35
q34 137 47 164l35 21q70 -126 72 -132q6 -2 28 -2q57 0 106.5 39.5t49.5 102.5q0 33 -17 63.5t-59 77.5q-13 14 -76 81t-96 107q-37 46 -37 103q0 54 18.5 105t58 102t65 78.5t75.5 76.5q1 1 4 3.5t4.5 4t3.5 4t3 5t2 6t1.5 8t0.5 10.5q4 135 -54 219t-139 84
q-166 0 -188 -280q-8 -120 -8 -541q0 -373 12 -403l33 -76l-12 -41q-23 0 -76.5 1t-83.5 1q-46 0 -143.5 -1t-149.5 -1l4 47l123 61q12 81 12 402v301l-127 25z" />
    <glyph glyph-name="agrave" unicode="&#xe0;" horiz-adv-x="1003" 
d="M573 553l2 61q2 57 -12.5 98.5t-40.5 63.5t-54.5 31.5t-59.5 9.5q-48 0 -105 -20q-16 -171 -41 -248l-16 -14q-22 2 -89 66t-89 130q57 48 141 95.5t160 76.5q87 33 143 33q76 0 136 -21t96.5 -53t61 -74.5t33.5 -82t9 -78.5q0 -197 -4 -455q8 -19 52 -51t95 -51l-6 -33
q-27 -21 -76 -40.5t-110 -19.5q-93 0 -147.5 33.5t-71.5 75.5h-5q-86 -63 -136.5 -88t-102.5 -25q-123 0 -196.5 81.5t-73.5 178.5q0 119 86 166q39 27 172 74t249 80zM348 279v-3q0 -76 43 -111.5t94 -35.5q39 0 70 25q14 12 14 45l4 274q-105 -42 -161 -78
q-35 -24 -49.5 -50t-14.5 -66zM592 1063l-55 -53l-320 329v29q92 49 229 43z" />
    <glyph glyph-name="aacute" unicode="&#xe1;" horiz-adv-x="1003" 
d="M573 553l2 61q2 57 -12.5 98.5t-40.5 63.5t-54.5 31.5t-59.5 9.5q-48 0 -105 -20q-16 -171 -41 -248l-16 -14q-22 2 -89 66t-89 130q57 48 141 95.5t160 76.5q87 33 143 33q76 0 136 -21t96.5 -53t61 -74.5t33.5 -82t9 -78.5q0 -197 -4 -455q8 -19 52 -51t95 -51l-6 -33
q-27 -21 -76 -40.5t-110 -19.5q-93 0 -147.5 33.5t-71.5 75.5h-5q-86 -63 -136.5 -88t-102.5 -25q-123 0 -196.5 81.5t-73.5 178.5q0 119 86 166q39 27 172 74t249 80zM348 279v-3q0 -76 43 -111.5t94 -35.5q39 0 70 25q14 12 14 45l4 274q-105 -42 -161 -78
q-35 -24 -49.5 -50t-14.5 -66zM453 1010l-60 45l174 356q53 5 114.5 -5t100.5 -34v-33z" />
    <glyph glyph-name="acircumflex" unicode="&#xe2;" horiz-adv-x="1003" 
d="M573 553l2 61q2 57 -12.5 98.5t-40.5 63.5t-54.5 31.5t-59.5 9.5q-48 0 -105 -20q-16 -171 -41 -248l-16 -14q-22 2 -89 66t-89 130q57 48 141 95.5t160 76.5q87 33 143 33q76 0 136 -21t96.5 -53t61 -74.5t33.5 -82t9 -78.5q0 -197 -4 -455q8 -19 52 -51t95 -51l-6 -33
q-27 -21 -76 -40.5t-110 -19.5q-93 0 -147.5 33.5t-71.5 75.5h-5q-86 -63 -136.5 -88t-102.5 -25q-123 0 -196.5 81.5t-73.5 178.5q0 119 86 166q39 27 172 74t249 80zM348 279v-3q0 -76 43 -111.5t94 -35.5q39 0 70 25q14 12 14 45l4 274q-105 -42 -161 -78
q-35 -24 -49.5 -50t-14.5 -66zM451 1413l43 10l229 -364l-51 -43l-201 178l-197 -178l-51 43z" />
    <glyph glyph-name="atilde" unicode="&#xe3;" horiz-adv-x="1003" 
d="M573 553l2 61q2 57 -12.5 98.5t-40.5 63.5t-54.5 31.5t-59.5 9.5q-48 0 -105 -20q-16 -171 -41 -248l-16 -14q-22 2 -89 66t-89 130q57 48 141 95.5t160 76.5q87 33 143 33q76 0 136 -21t96.5 -53t61 -74.5t33.5 -82t9 -78.5q0 -197 -4 -455q8 -19 52 -51t95 -51l-6 -33
q-27 -21 -76 -40.5t-110 -19.5q-93 0 -147.5 33.5t-71.5 75.5h-5q-86 -63 -136.5 -88t-102.5 -25q-123 0 -196.5 81.5t-73.5 178.5q0 119 86 166q39 27 172 74t249 80zM348 279v-3q0 -76 43 -111.5t94 -35.5q39 0 70 25q14 12 14 45l4 274q-105 -42 -161 -78
q-35 -24 -49.5 -50t-14.5 -66zM766 1315l59 -45q-120 -203 -225 -203q-9 0 -18.5 2t-17 4t-20.5 8t-20.5 9.5t-27.5 13.5t-31 16q-75 41 -107 41q-56 0 -141 -102l-51 47q120 209 225 209q44 0 127 -47q3 -2 21.5 -12t25.5 -13.5t21.5 -10t25 -9t19.5 -2.5q55 0 135 94z" />
    <glyph glyph-name="adieresis" unicode="&#xe4;" horiz-adv-x="1003" 
d="M573 553l2 61q2 57 -12.5 98.5t-40.5 63.5t-54.5 31.5t-59.5 9.5q-48 0 -105 -20q-16 -171 -41 -248l-16 -14q-22 2 -89 66t-89 130q57 48 141 95.5t160 76.5q87 33 143 33q76 0 136 -21t96.5 -53t61 -74.5t33.5 -82t9 -78.5q0 -197 -4 -455q8 -19 52 -51t95 -51l-6 -33
q-27 -21 -76 -40.5t-110 -19.5q-93 0 -147.5 33.5t-71.5 75.5h-5q-86 -63 -136.5 -88t-102.5 -25q-123 0 -196.5 81.5t-73.5 178.5q0 119 86 166q39 27 172 74t249 80zM348 279v-3q0 -76 43 -111.5t94 -35.5q39 0 70 25q14 12 14 45l4 274q-105 -42 -161 -78
q-35 -24 -49.5 -50t-14.5 -66zM289 1343l18 5q23 -10 62.5 -54.5t58.5 -79.5l-6 -22q-12 -32 -51 -73t-70 -62l-22 -4q-31 19 -66.5 58.5t-56.5 74.5l4 22q25 38 62 77t67 58zM694 1343l19 5q23 -10 62.5 -54.5t58.5 -79.5l-7 -22q-14 -31 -53 -73t-67 -62l-23 -4
q-31 19 -68 60t-55 73l4 22q27 39 63.5 78t65.5 57z" />
    <glyph glyph-name="aring" unicode="&#xe5;" horiz-adv-x="1003" 
d="M573 553l2 61q2 57 -12.5 98.5t-40.5 63.5t-54.5 31.5t-59.5 9.5q-48 0 -105 -20q-16 -171 -41 -248l-16 -14q-22 2 -89 66t-89 130q57 48 141 95.5t160 76.5q87 33 143 33q76 0 136 -21t96.5 -53t61 -74.5t33.5 -82t9 -78.5q0 -197 -4 -455q8 -19 52 -51t95 -51l-6 -33
q-27 -21 -76 -40.5t-110 -19.5q-93 0 -147.5 33.5t-71.5 75.5h-5q-86 -63 -136.5 -88t-102.5 -25q-123 0 -196.5 81.5t-73.5 178.5q0 119 86 166q39 27 172 74t249 80zM348 279v-3q0 -76 43 -111.5t94 -35.5q39 0 70 25q14 12 14 45l4 274q-105 -42 -161 -78
q-35 -24 -49.5 -50t-14.5 -66zM489 1319h-2q-92 0 -92 -109q0 -54 26.5 -81t67.5 -27q42 0 68.5 28t26.5 80q0 56 -26 82.5t-69 26.5zM489 1399h3q78 0 134 -52t56 -137q0 -88 -57 -138t-136 -50q-78 0 -135 50.5t-57 137.5q0 86 57.5 137.5t134.5 51.5z" />
    <glyph glyph-name="ae" unicode="&#xe6;" horiz-adv-x="1515" 
d="M270 555l-28 -16q-24 7 -85 74.5t-81 119.5q104 90 256 158q101 43 180 43t143.5 -34.5t98.5 -82.5q137 117 315 117q172 0 279.5 -94t107.5 -273q0 -60 -20 -71q-24 -15 -82 -30t-137 -15h-338v-23q0 -153 77.5 -242.5t219.5 -89.5q33 0 63 19q102 82 176 118
q25 -14 27 -49q-17 -43 -66 -99.5t-80 -76.5q-32 -11 -104 -23t-129 -12q-259 0 -393 172q-134 -99 -204.5 -135.5t-127.5 -36.5q-83 0 -147.5 41t-94.5 99t-30 120q0 104 79 154q29 23 170 73.5t273 90.5v57q0 111 -50 162t-120 51q-55 0 -103 -24q-10 -122 -45 -242z
M881 537h284q15 54 15 94q0 104 -36.5 160.5t-94.5 56.5q-53 0 -93 -54t-57.5 -122.5t-17.5 -134.5zM475 131h2q31 0 80 24.5t78 55.5q-23 42 -36.5 121t-10.5 139q-124 -42 -174 -78q-37 -25 -51.5 -52t-14.5 -71q0 -72 39.5 -105.5t87.5 -33.5z" />
    <glyph glyph-name="ccedilla" unicode="&#xe7;" horiz-adv-x="966" 
d="M397 -188l125 161v4q-214 13 -336.5 137t-122.5 324q0 93 31.5 175t85 140t122.5 100t145.5 62.5t152.5 20.5q101 0 187 -25.5t124 -54.5q-6 -40 -32 -122.5t-52 -123.5l-41 -14q-48 82 -92 244q-17 10 -57 10q-122 0 -200.5 -106.5t-78.5 -264.5q0 -66 18.5 -130.5
t54.5 -120.5t97.5 -91.5t139.5 -36.5q20 0 55 17q145 94 170 104l27 -39q-12 -39 -62.5 -102.5t-77.5 -75.5q-81 -24 -170 -29l-57 -77q70 -34 98.5 -71t28.5 -85q0 -67 -64 -118.5t-188 -80.5l-25 60q73 34 101 57t28 51t-29.5 49t-105.5 52z" />
    <glyph glyph-name="egrave" unicode="&#xe8;" horiz-adv-x="989" 
d="M690 457h-330q-2 -12 -2 -27q-1 -144 79.5 -235t205.5 -91q19 0 51 7q108 87 205 139l12 -35q-9 -51 -64.5 -115t-92.5 -86q-108 -41 -213 -41q-217 0 -346 126.5t-129 344.5q0 104 38.5 196t102.5 156.5t151 102t181 37.5q171 0 281 -100t110 -275q0 -52 -23 -65
q-19 -12 -78 -25.5t-139 -13.5zM358 549h285q12 28 12 65q0 108 -33.5 172t-95.5 64q-50 0 -89.5 -51.5t-58.5 -118.5t-20 -131zM623 1063l-56 -53l-319 329v29q92 49 229 43z" />
    <glyph glyph-name="eacute" unicode="&#xe9;" horiz-adv-x="989" 
d="M690 457h-330q-2 -12 -2 -27q-1 -144 79.5 -235t205.5 -91q19 0 51 7q108 87 205 139l12 -35q-9 -51 -64.5 -115t-92.5 -86q-108 -41 -213 -41q-217 0 -346 126.5t-129 344.5q0 104 38.5 196t102.5 156.5t151 102t181 37.5q171 0 281 -100t110 -275q0 -52 -23 -65
q-19 -12 -78 -25.5t-139 -13.5zM358 549h285q12 28 12 65q0 108 -33.5 172t-95.5 64q-50 0 -89.5 -51.5t-58.5 -118.5t-20 -131zM487 1010l-59 45l174 356q53 5 114.5 -5t100.5 -34v-33z" />
    <glyph glyph-name="ecircumflex" unicode="&#xea;" horiz-adv-x="989" 
d="M690 457h-330q-2 -12 -2 -27q-1 -144 79.5 -235t205.5 -91q19 0 51 7q108 87 205 139l12 -35q-9 -51 -64.5 -115t-92.5 -86q-108 -41 -213 -41q-217 0 -346 126.5t-129 344.5q0 104 38.5 196t102.5 156.5t151 102t181 37.5q171 0 281 -100t110 -275q0 -52 -23 -65
q-19 -12 -78 -25.5t-139 -13.5zM358 549h285q12 28 12 65q0 108 -33.5 172t-95.5 64q-50 0 -89.5 -51.5t-58.5 -118.5t-20 -131zM522 1413l43 10l230 -364l-52 -43l-200 178l-197 -178l-51 43z" />
    <glyph glyph-name="edieresis" unicode="&#xeb;" horiz-adv-x="989" 
d="M690 457h-330q-2 -12 -2 -27q-1 -144 79.5 -235t205.5 -91q19 0 51 7q108 87 205 139l12 -35q-9 -51 -64.5 -115t-92.5 -86q-108 -41 -213 -41q-217 0 -346 126.5t-129 344.5q0 104 38.5 196t102.5 156.5t151 102t181 37.5q171 0 281 -100t110 -275q0 -52 -23 -65
q-19 -12 -78 -25.5t-139 -13.5zM358 549h285q12 28 12 65q0 108 -33.5 172t-95.5 64q-50 0 -89.5 -51.5t-58.5 -118.5t-20 -131zM332 1343l18 5q23 -10 62.5 -54.5t58.5 -79.5l-6 -22q-12 -32 -51 -73t-70 -62l-22 -4q-31 19 -66.5 58.5t-56.5 74.5l4 22q25 38 62 77t67 58z
M737 1343l19 5q23 -10 62.5 -54.5t58.5 -79.5l-7 -22q-14 -31 -53 -73t-67 -62l-23 -4q-31 19 -68 60t-55 73l4 22q27 39 63.5 78t65.5 57z" />
    <glyph glyph-name="igrave" unicode="&#xec;" horiz-adv-x="620" 
d="M55 821l17 49q39 13 159 36.5t220 29.5v-426q0 -245 4 -389l137 -64l-12 -59q-48 0 -136.5 1t-136.5 1q-43 0 -131 -1t-129 -1l10 59l109 64q4 156 4 393v250zM406 1063l-56 -53l-319 329v29q92 49 229 43z" />
    <glyph glyph-name="iacute" unicode="&#xed;" horiz-adv-x="620" 
d="M55 821l17 49q39 13 159 36.5t220 29.5v-426q0 -245 4 -389l137 -64l-12 -59q-48 0 -136.5 1t-136.5 1q-43 0 -131 -1t-129 -1l10 59l109 64q4 156 4 393v250zM264 1010l-59 45l174 356q53 5 114.5 -5t100.5 -34v-33z" />
    <glyph glyph-name="icircumflex" unicode="&#xee;" horiz-adv-x="620" 
d="M55 821l17 49q39 13 159 36.5t220 29.5v-426q0 -245 4 -389l137 -64l-12 -59q-48 0 -136.5 1t-136.5 1q-43 0 -131 -1t-129 -1l10 59l109 64q4 156 4 393v250zM272 1413l43 10l230 -364l-51 -43l-201 178l-197 -178l-51 43z" />
    <glyph glyph-name="idieresis" unicode="&#xef;" horiz-adv-x="620" 
d="M55 821l17 49q39 13 159 36.5t220 29.5v-426q0 -245 4 -389l137 -64l-12 -59q-48 0 -136.5 1t-136.5 1q-43 0 -131 -1t-129 -1l10 59l109 64q4 156 4 393v250zM84 1343l18 5q23 -10 62.5 -54.5t58.5 -79.5l-6 -22q-12 -32 -51 -73t-70 -62l-22 -4q-31 19 -66.5 58.5
t-56.5 74.5l4 22q25 38 62 77t67 58zM489 1343l19 5q23 -10 62.5 -54.5t58.5 -79.5l-6 -22q-14 -31 -53 -73t-68 -62l-23 -4q-31 19 -68 60t-55 73l4 22q27 39 63.5 78t65.5 57z" />
    <glyph glyph-name="eth" unicode="&#xf0;" horiz-adv-x="1110" 
d="M186 1354l21 69q254 -23 448 -139l244 129l53 -63l-219 -121q135 -101 224.5 -285.5t89.5 -394.5q0 -278 -136 -427t-364 -149q-96 0 -182.5 31.5t-153 90.5t-106 151.5t-39.5 206.5q0 115 41 209t110.5 152.5t155.5 90t180 31.5q96 0 162 -39l4 4q-56 152 -148 244
l-264 -144l-57 62l256 139q-112 94 -320 152zM569 852h-2q-57 0 -98 -37.5t-61.5 -99t-29.5 -123t-9 -127.5q0 -67 9 -132.5t28.5 -130.5t59 -105t93.5 -40q56 0 95.5 41t58.5 107.5t27 130t8 129.5q0 122 -12.5 197.5t-49.5 125.5q-49 64 -117 64z" />
    <glyph glyph-name="ntilde" unicode="&#xf1;" horiz-adv-x="1208" 
d="M176 580v168l-102 51l18 47q24 19 175.5 55.5t191.5 34.5l-17 -150l4 -4q200 154 306 154q65 0 116.5 -20t83.5 -51.5t53.5 -75t30 -87t8.5 -90.5v-456q0 -32 41 -50l105 -51l-14 -57q-47 0 -139 1t-138 1q-39 0 -118 -1t-119 -1l10 57l82 66q10 152 10 459
q0 91 -39.5 138.5t-112.5 47.5q-74 0 -153 -64q0 -544 4 -581l100 -66l-12 -57q-80 2 -238 2q-45 0 -134 -1t-134 -1l14 57l111 66q6 41 6 459zM877 1315l59 -45q-120 -203 -225 -203q-9 0 -18.5 2t-16.5 3.5t-21 8t-21 10l-28 14l-31 15.5q-75 41 -106 41q-55 0 -141 -102
l-52 47q120 209 226 209q44 0 127 -47q5 -3 22 -12.5t25 -13.5t21.5 -10t24 -8.5t19.5 -2.5q56 0 136 94z" />
    <glyph glyph-name="ograve" unicode="&#xf2;" horiz-adv-x="1126" 
d="M565 936h2q222 0 359 -132t137 -339q0 -221 -139.5 -356.5t-360.5 -135.5q-100 0 -190 33t-158.5 92.5t-108.5 150.5t-40 200t42 202t111.5 154.5t159.5 96t186 34.5zM559 852h-2q-48 0 -85 -35.5t-57 -92t-30 -118t-10 -123.5q0 -71 11.5 -142.5t34.5 -136.5t65 -106
t96 -41q42 0 74 27t50 67t29.5 94.5t15 100.5t3.5 94q0 66 -10.5 133.5t-31.5 132.5t-61 105.5t-92 40.5zM670 1063l-56 -53l-319 329v29q92 49 229 43z" />
    <glyph glyph-name="oacute" unicode="&#xf3;" horiz-adv-x="1126" 
d="M565 936h2q222 0 359 -132t137 -339q0 -221 -139.5 -356.5t-360.5 -135.5q-100 0 -190 33t-158.5 92.5t-108.5 150.5t-40 200t42 202t111.5 154.5t159.5 96t186 34.5zM559 852h-2q-48 0 -85 -35.5t-57 -92t-30 -118t-10 -123.5q0 -71 11.5 -142.5t34.5 -136.5t65 -106
t96 -41q42 0 74 27t50 67t29.5 94.5t15 100.5t3.5 94q0 66 -10.5 133.5t-31.5 132.5t-61 105.5t-92 40.5zM526 1010l-59 45l174 356q53 5 114.5 -5t100.5 -34v-33z" />
    <glyph glyph-name="ocircumflex" unicode="&#xf4;" horiz-adv-x="1126" 
d="M565 936h2q222 0 359 -132t137 -339q0 -221 -139.5 -356.5t-360.5 -135.5q-100 0 -190 33t-158.5 92.5t-108.5 150.5t-40 200t42 202t111.5 154.5t159.5 96t186 34.5zM559 852h-2q-48 0 -85 -35.5t-57 -92t-30 -118t-10 -123.5q0 -71 11.5 -142.5t34.5 -136.5t65 -106
t96 -41q42 0 74 27t50 67t29.5 94.5t15 100.5t3.5 94q0 66 -10.5 133.5t-31.5 132.5t-61 105.5t-92 40.5zM541 1413l43 10l229 -364l-51 -43l-201 178l-196 -178l-52 43z" />
    <glyph glyph-name="otilde" unicode="&#xf5;" horiz-adv-x="1126" 
d="M565 936h2q222 0 359 -132t137 -339q0 -221 -139.5 -356.5t-360.5 -135.5q-100 0 -190 33t-158.5 92.5t-108.5 150.5t-40 200t42 202t111.5 154.5t159.5 96t186 34.5zM559 852h-2q-48 0 -85 -35.5t-57 -92t-30 -118t-10 -123.5q0 -71 11.5 -142.5t34.5 -136.5t65 -106
t96 -41q42 0 74 27t50 67t29.5 94.5t15 100.5t3.5 94q0 66 -10.5 133.5t-31.5 132.5t-61 105.5t-92 40.5zM823 1315l60 -45q-120 -203 -226 -203q-9 0 -18.5 2t-17 4t-20.5 8t-20.5 9.5t-27.5 13.5t-31 16q-75 41 -106 41q-56 0 -142 -102l-51 47q120 209 226 209
q43 0 126 -47q3 -2 21.5 -12t25.5 -13.5t21.5 -10t25 -9t19.5 -2.5q55 0 135 94z" />
    <glyph glyph-name="odieresis" unicode="&#xf6;" horiz-adv-x="1126" 
d="M565 936h2q222 0 359 -132t137 -339q0 -221 -139.5 -356.5t-360.5 -135.5q-100 0 -190 33t-158.5 92.5t-108.5 150.5t-40 200t42 202t111.5 154.5t159.5 96t186 34.5zM559 852h-2q-48 0 -85 -35.5t-57 -92t-30 -118t-10 -123.5q0 -71 11.5 -142.5t34.5 -136.5t65 -106
t96 -41q42 0 74 27t50 67t29.5 94.5t15 100.5t3.5 94q0 66 -10.5 133.5t-31.5 132.5t-61 105.5t-92 40.5zM358 1343l19 5q23 -10 62.5 -54.5t58.5 -79.5l-6 -22q-12 -32 -51 -73t-70 -62l-23 -4q-31 19 -66.5 58.5t-56.5 74.5l4 22q25 38 62 77t67 58zM764 1343l18 5
q23 -10 62.5 -54.5t58.5 -79.5l-6 -22q-14 -31 -53 -73t-68 -62l-22 -4q-31 19 -68 60t-55 73l4 22q27 39 63.5 78t65.5 57z" />
    <glyph glyph-name="divide" unicode="&#xf7;" horiz-adv-x="1226" 
d="M162 549h930l-25 -137h-932zM610 303l19 2q22 -8 60.5 -52t51.5 -77l-4 -18q-14 -31 -54.5 -73t-66.5 -56l-20 -6q-33 18 -66 56.5t-47 72.5l2 22q71 96 125 129zM618 930l15 2q22 -10 60.5 -52.5t51.5 -74.5l-2 -19q-15 -31 -55.5 -74t-66.5 -55l-19 -6q-33 17 -68 55.5
t-47 71.5l5 23q25 38 60.5 74.5t65.5 54.5z" />
    <glyph glyph-name="oslash" unicode="&#xf8;" horiz-adv-x="1134" 
d="M840 870l90 119l57 -45l-86 -115q79 -61 123.5 -159t44.5 -205q0 -222 -140 -357t-362 -135q-162 0 -280 72l-99 -131l-53 49l90 123q-73 62 -116 157t-43 206q0 109 42.5 202t112.5 154.5t160.5 96t187.5 34.5q155 0 271 -66zM385 272l334 459q-49 121 -152 121
q-45 0 -82 -24.5t-59.5 -63.5t-38 -91t-21.5 -103t-6 -103q0 -122 23 -193zM750 647l-336 -457q23 -58 67.5 -95.5t98.5 -37.5q48 0 85 28.5t57 70.5t32.5 99t16 102.5t3.5 93.5q0 96 -20 196h-4z" />
    <glyph glyph-name="ugrave" unicode="&#xf9;" horiz-adv-x="1175" 
d="M166 774l-117 66l21 49q152 34 387 37q-15 -298 -15 -568q0 -123 31 -165q45 -52 117 -52q84 0 145 64v538q0 22 -24.5 38.5t-122.5 58.5l20 49q76 14 198 25.5t216 11.5q-6 -94 -6 -764q22 -38 66 -66t77 -39l-10 -28q-12 -15 -68 -33.5t-106 -18.5q-181 0 -227 140h-5
q-133 -144 -288 -144q-127 0 -205 72q-88 82 -88 246q0 85 2 255.5t2 227.5zM649 1063l-55 -53l-320 329v29q38 20 100 33t130 10z" />
    <glyph glyph-name="uacute" unicode="&#xfa;" horiz-adv-x="1175" 
d="M166 774l-117 66l21 49q152 34 387 37q-15 -298 -15 -568q0 -123 31 -165q45 -52 117 -52q84 0 145 64v538q0 22 -24.5 38.5t-122.5 58.5l20 49q76 14 198 25.5t216 11.5q-6 -94 -6 -764q22 -38 66 -66t77 -39l-10 -28q-12 -15 -68 -33.5t-106 -18.5q-181 0 -227 140h-5
q-133 -144 -288 -144q-127 0 -205 72q-88 82 -88 246q0 85 2 255.5t2 227.5zM530 1010l-59 45l174 356q53 5 114.5 -5t100.5 -34v-33z" />
    <glyph glyph-name="ucircumflex" unicode="&#xfb;" horiz-adv-x="1175" 
d="M166 774l-117 66l21 49q152 34 387 37q-15 -298 -15 -568q0 -123 31 -165q45 -52 117 -52q84 0 145 64v538q0 22 -24.5 38.5t-122.5 58.5l20 49q76 14 198 25.5t216 11.5q-6 -94 -6 -764q22 -38 66 -66t77 -39l-10 -28q-12 -15 -68 -33.5t-106 -18.5q-181 0 -227 140h-5
q-133 -144 -288 -144q-127 0 -205 72q-88 82 -88 246q0 85 2 255.5t2 227.5zM547 1413l43 10l229 -364l-51 -43l-201 178l-196 -178l-52 43z" />
    <glyph glyph-name="udieresis" unicode="&#xfc;" horiz-adv-x="1175" 
d="M166 774l-117 66l21 49q152 34 387 37q-15 -298 -15 -568q0 -123 31 -165q45 -52 117 -52q84 0 145 64v538q0 22 -24.5 38.5t-122.5 58.5l20 49q76 14 198 25.5t216 11.5q-6 -94 -6 -764q22 -38 66 -66t77 -39l-10 -28q-12 -15 -68 -33.5t-106 -18.5q-181 0 -227 140h-5
q-133 -144 -288 -144q-127 0 -205 72q-88 82 -88 246q0 85 2 255.5t2 227.5zM352 1343l19 5q23 -10 62.5 -54.5t58.5 -79.5l-7 -22q-12 -32 -51 -73t-69 -62l-23 -4q-31 19 -66.5 58.5t-56.5 74.5l4 22q25 38 62 77t67 58zM758 1343l18 5q23 -10 62.5 -54.5t58.5 -79.5
l-6 -22q-14 -31 -53 -73t-68 -62l-22 -4q-31 19 -68 60t-55 73l4 22q27 39 63.5 78t65.5 57z" />
    <glyph glyph-name="yacute" unicode="&#xfd;" horiz-adv-x="993" 
d="M676 856l20 55q24 0 71 -1t69 -1q39 0 104.5 1t93.5 1l-16 -57q-23 -13 -65.5 -38.5t-59.5 -35.5q-30 -57 -102 -229t-170.5 -414.5t-145.5 -353.5q-19 -79 -36.5 -158t-20.5 -92q-16 -8 -47 -8q-61 0 -120 36t-73 68q10 24 73 86t138 125q56 116 66 144
q-8 16 -146.5 346t-187.5 436q-8 18 -29 31t-104 57l16 57q43 0 129.5 -1t130.5 -1q37 0 110.5 1t110.5 1l-10 -57l-53 -57q19 -52 46 -122t67.5 -173.5t68.5 -175.5h4q124 373 148 460zM508 1010l-59 45l174 356q53 5 114.5 -5t100.5 -34v-33z" />
    <glyph glyph-name="thorn" unicode="&#xfe;" horiz-adv-x="1155" 
d="M141 225v588q0 361 -6 453l-106 53l22 59q49 18 179.5 38t197.5 20q-6 -258 -6 -611h4q182 111 270 111q64 0 130.5 -27.5t126.5 -79t98.5 -139.5t38.5 -196q0 -111 -33.5 -201.5t-86 -148.5t-120.5 -98t-134 -56.5t-128 -16.5q-23 0 -69.5 15t-92.5 41l-4 -2
q0 -136 8 -336l193 -72l-19 -53q-53 0 -161.5 1t-163.5 1q-45 0 -135 -1t-136 -1l17 57l108 62q8 280 8 540zM422 750v-635q52 -23 106 -23q112 0 191.5 96t79.5 254q0 152 -81 240t-192 88q-57 0 -104 -20z" />
    <glyph glyph-name="ydieresis" unicode="&#xff;" horiz-adv-x="993" 
d="M676 856l20 55q24 0 71 -1t69 -1q39 0 104.5 1t93.5 1l-16 -57q-23 -13 -65.5 -38.5t-59.5 -35.5q-30 -57 -102 -229t-170.5 -414.5t-145.5 -353.5q-19 -79 -36.5 -158t-20.5 -92q-16 -8 -47 -8q-61 0 -120 36t-73 68q10 24 73 86t138 125q56 116 66 144
q-8 16 -146.5 346t-187.5 436q-8 18 -29 31t-104 57l16 57q43 0 129.5 -1t130.5 -1q37 0 110.5 1t110.5 1l-10 -57l-53 -57q19 -52 46 -122t67.5 -173.5t68.5 -175.5h4q124 373 148 460zM322 1343l18 5q23 -10 62.5 -54.5t58.5 -79.5l-6 -22q-12 -32 -51 -73t-70 -62l-23 -4
q-31 19 -66.5 58.5t-56.5 74.5l5 22q25 38 62 77t67 58zM727 1343l18 5q23 -10 62.5 -54.5t58.5 -79.5l-6 -22q-14 -31 -53 -73t-68 -62l-22 -4q-31 19 -68 60t-55 73l4 22q27 39 63.5 78t65.5 57z" />
    <glyph glyph-name="Amacron" unicode="&#x100;" horiz-adv-x="1499" 
d="M596 1298l238 101l8 -13q0 -46 5.5 -71t24.5 -76q17 -50 392 -1001q29 -76 63.5 -105t151.5 -80l-19 -55q-52 0 -158 1t-159 1q-40 0 -119.5 -1t-118.5 -1l19 53l69 68q-5 18 -23 66t-48.5 130t-51.5 138q-214 -12 -440 -9q-65 -171 -108 -307l161 -82l-16 -57
q-37 0 -111.5 1t-111.5 1t-112.5 -1t-113.5 -1l17 57l141 84q39 72 174 393.5t264 645.5q8 25 2 53zM664 1071h-5q-99 -261 -184 -500q33 0 180.5 -4t180.5 -4q-146 423 -172 508zM973 1468h-500l45 152h500z" />
    <glyph glyph-name="amacron" unicode="&#x101;" horiz-adv-x="1003" 
d="M573 553l2 61q2 57 -12.5 98.5t-40.5 63.5t-54.5 31.5t-59.5 9.5q-48 0 -105 -20q-16 -171 -41 -248l-16 -14q-22 2 -89 66t-89 130q57 48 141 95.5t160 76.5q87 33 143 33q76 0 136 -21t96.5 -53t61 -74.5t33.5 -82t9 -78.5q0 -197 -4 -455q8 -19 52 -51t95 -51l-6 -33
q-27 -21 -76 -40.5t-110 -19.5q-93 0 -147.5 33.5t-71.5 75.5h-5q-86 -63 -136.5 -88t-102.5 -25q-123 0 -196.5 81.5t-73.5 178.5q0 119 86 166q39 27 172 74t249 80zM348 279v-3q0 -76 43 -111.5t94 -35.5q39 0 70 25q14 12 14 45l4 274q-105 -42 -161 -78
q-35 -24 -49.5 -50t-14.5 -66zM688 1122h-475l39 150h477z" />
    <glyph glyph-name="Abreve" unicode="&#x102;" horiz-adv-x="1499" 
d="M596 1298l238 101l8 -13q0 -46 5.5 -71t24.5 -76q17 -50 392 -1001q29 -76 63.5 -105t151.5 -80l-19 -55q-52 0 -158 1t-159 1q-40 0 -119.5 -1t-118.5 -1l19 53l69 68q-5 18 -23 66t-48.5 130t-51.5 138q-214 -12 -440 -9q-65 -171 -108 -307l161 -82l-16 -57
q-37 0 -111.5 1t-111.5 1t-112.5 -1t-113.5 -1l17 57l141 84q39 72 174 393.5t264 645.5q8 25 2 53zM664 1071h-5q-99 -261 -184 -500q33 0 180.5 -4t180.5 -4q-146 423 -172 508zM737 1481h-2q-137 0 -205.5 77t-68.5 209l74 13q9 -31 20 -52t32.5 -43.5t59.5 -34.5t90 -12
q49 0 84.5 10.5t58 31t34.5 40t24 49.5l74 11q0 -138 -70.5 -218.5t-204.5 -80.5z" />
    <glyph glyph-name="abreve" unicode="&#x103;" horiz-adv-x="1003" 
d="M573 553l2 61q2 57 -12.5 98.5t-40.5 63.5t-54.5 31.5t-59.5 9.5q-48 0 -105 -20q-16 -171 -41 -248l-16 -14q-22 2 -89 66t-89 130q57 48 141 95.5t160 76.5q87 33 143 33q76 0 136 -21t96.5 -53t61 -74.5t33.5 -82t9 -78.5q0 -197 -4 -455q8 -19 52 -51t95 -51l-6 -33
q-27 -21 -76 -40.5t-110 -19.5q-93 0 -147.5 33.5t-71.5 75.5h-5q-86 -63 -136.5 -88t-102.5 -25q-123 0 -196.5 81.5t-73.5 178.5q0 119 86 166q39 27 172 74t249 80zM348 279v-3q0 -76 43 -111.5t94 -35.5q39 0 70 25q14 12 14 45l4 274q-105 -42 -161 -78
q-35 -24 -49.5 -50t-14.5 -66zM238 1356l77 18q13 -72 47.5 -114.5t112.5 -42.5q45 0 78 12.5t52 35t28.5 43.5t15.5 48l80 18q2 -142 -63.5 -226.5t-194.5 -84.5t-185 81.5t-48 211.5z" />
    <glyph glyph-name="Aogonek" unicode="&#x104;" horiz-adv-x="1499" 
d="M662 1071h-5q-66 -176 -122 -329t-62 -171q34 0 181.5 -4t181.5 -4q-160 464 -174 508zM1059 -268l24 -68q-106 -106 -237 -106q-90 0 -143.5 46.5t-53.5 123.5q0 29 7 56.5t24.5 54.5t32.5 47.5t47.5 47.5t51 42.5t60.5 43.5t60 39.5t65 40.5q-10 33 -127 353
q-214 -12 -440 -9q-65 -171 -108 -307l161 -82l-16 -57q-38 0 -113 2t-112 2t-112 -2t-112 -2l17 57l141 84q38 75 174 397.5t264 641.5q8 25 2 53l-20 67l238 101l8 -13q0 -46 5.5 -71t24.5 -76q17 -50 392 -1001q29 -76 63.5 -105t151.5 -80l-19 -55q-52 0 -158 2t-159 2
q-76 0 -123 -2q-82 -45 -133 -101.5t-51 -109.5q0 -38 26.5 -62t71.5 -24q52 0 125 29z" />
    <glyph glyph-name="aogonek" unicode="&#x105;" horiz-adv-x="1009" 
d="M348 279v-3q0 -76 43 -111.5t94 -35.5q28 0 70 27q14 12 14 43l4 274q-105 -42 -161 -78q-35 -24 -49.5 -50t-14.5 -66zM780 -266l17 -60q-100 -116 -232 -116q-83 0 -138.5 42.5t-55.5 120.5q0 146 250 310q-25 22 -41 55h-5q-89 -64 -138.5 -88.5t-100.5 -24.5
q-123 0 -196.5 81.5t-73.5 178.5q0 119 86 166q39 27 172 74t249 80l2 63q4 112 -42 158.5t-121 46.5q-40 0 -109 -24q-16 -171 -41 -248l-16 -14q-22 2 -89 66t-89 130q57 48 141 95.5t160 76.5q87 33 143 33q76 0 136 -21t96.5 -53t61 -74.5t33.5 -82t9 -78.5
q0 -197 -4 -455q8 -20 52.5 -52.5t94.5 -49.5l-6 -33q-27 -21 -76 -40.5t-110 -19.5q-56 0 -107 19q-80 -81 -111.5 -130.5t-31.5 -88.5q0 -36 26.5 -55t73.5 -19q57 0 131 31z" />
    <glyph glyph-name="Cacute" unicode="&#x106;" horiz-adv-x="1433" 
d="M854 1386h2q194 0 307 -65q87 36 197 49l12 -8q-4 -46 -39.5 -192t-50.5 -185l-49 -20q-41 106 -90 274q-66 41 -201 41q-128 0 -232.5 -50t-171.5 -134.5t-103 -192t-36 -225.5q0 -120 36 -227.5t104 -191.5t175 -133.5t240 -49.5q51 0 82 8q178 175 305 272l37 -43
q-22 -65 -78.5 -165t-85.5 -132q-53 -17 -163 -36t-183 -19q-121 0 -233.5 26t-214 82t-177 136.5t-119.5 198.5t-44 260q0 146 49 268.5t128 204.5t181.5 139.5t207.5 83.5t208 26zM719 1468l-37 62l334 272q37 -4 80.5 -47.5t68.5 -99.5v-27z" />
    <glyph glyph-name="cacute" unicode="&#x107;" horiz-adv-x="958" 
d="M63 434v2q0 122 49.5 220.5t130.5 158t177.5 90.5t197.5 31q98 0 174.5 -24.5t116.5 -55.5q-8 -39 -37 -122.5t-55 -127.5l-37 -8q-41 72 -86 242q-17 10 -51 10q-92 0 -158.5 -55t-96.5 -137t-30 -179q0 -105 35.5 -188.5t106.5 -134.5t168 -52q29 0 51 11
q116 82 178 112l21 -43q-13 -38 -61.5 -99.5t-76.5 -76.5q-108 -35 -196 -35q-102 0 -192.5 27t-165.5 80.5t-119 144.5t-44 209zM504 1010l-60 45l174 356q53 5 115 -5t101 -34v-33z" />
    <glyph glyph-name="Ccircumflex" unicode="&#x108;" horiz-adv-x="1433" 
d="M854 1386h2q194 0 307 -65q87 36 197 49l12 -8q-4 -46 -39.5 -192t-50.5 -185l-49 -20q-41 106 -90 274q-66 41 -201 41q-128 0 -232.5 -50t-171.5 -134.5t-103 -192t-36 -225.5q0 -120 36 -227.5t104 -191.5t175 -133.5t240 -49.5q51 0 82 8q178 175 305 272l37 -43
q-22 -65 -78.5 -165t-85.5 -132q-53 -17 -163 -36t-183 -19q-121 0 -233.5 26t-214 82t-177 136.5t-119.5 198.5t-44 260q0 146 49 268.5t128 204.5t181.5 139.5t207.5 83.5t208 26zM831 1786h41q147 -135 287 -266l-33 -56q-151 76 -274 133q-4 -2 -272 -133l-33 56
q96 90 284 266z" />
    <glyph glyph-name="ccircumflex" unicode="&#x109;" horiz-adv-x="958" 
d="M63 434v2q0 122 49.5 220.5t130.5 158t177.5 90.5t197.5 31q98 0 174.5 -24.5t116.5 -55.5q-8 -39 -37 -122.5t-55 -127.5l-37 -8q-41 72 -86 242q-17 10 -51 10q-92 0 -158.5 -55t-96.5 -137t-30 -179q0 -105 35.5 -188.5t106.5 -134.5t168 -52q29 0 51 11
q116 82 178 112l21 -43q-13 -38 -61.5 -99.5t-76.5 -76.5q-108 -35 -196 -35q-102 0 -192.5 27t-165.5 80.5t-119 144.5t-44 209zM524 1413l43 10l230 -364l-52 -43l-200 178l-197 -178l-51 43z" />
    <glyph glyph-name="Cdotaccent" unicode="&#x10a;" horiz-adv-x="1433" 
d="M854 1386h2q194 0 307 -65q87 36 197 49l12 -8q-4 -46 -39.5 -192t-50.5 -185l-49 -20q-41 106 -90 274q-66 41 -201 41q-128 0 -232.5 -50t-171.5 -134.5t-103 -192t-36 -225.5q0 -120 36 -227.5t104 -191.5t175 -133.5t240 -49.5q51 0 82 8q178 175 305 272l37 -43
q-22 -65 -78.5 -165t-85.5 -132q-53 -17 -163 -36t-183 -19q-121 0 -233.5 26t-214 82t-177 136.5t-119.5 198.5t-44 260q0 146 49 268.5t128 204.5t181.5 139.5t207.5 83.5t208 26zM885 1780l18 6q24 -10 66 -57t61 -84l-6 -23q-12 -33 -53 -74.5t-76 -66.5l-23 -6
q-33 22 -70 63.5t-59 77.5l7 22q27 41 66 82.5t69 59.5z" />
    <glyph glyph-name="cdotaccent" unicode="&#x10b;" horiz-adv-x="958" 
d="M63 434v2q0 122 49.5 220.5t130.5 158t177.5 90.5t197.5 31q98 0 174.5 -24.5t116.5 -55.5q-8 -39 -37 -122.5t-55 -127.5l-37 -8q-41 72 -86 242q-17 10 -51 10q-92 0 -158.5 -55t-96.5 -137t-30 -179q0 -105 35.5 -188.5t106.5 -134.5t168 -52q29 0 51 11
q116 82 178 112l21 -43q-13 -38 -61.5 -99.5t-76.5 -76.5q-108 -35 -196 -35q-102 0 -192.5 27t-165.5 80.5t-119 144.5t-44 209zM539 1362l18 4q25 -9 68.5 -57t64.5 -88l-6 -23q-16 -33 -61 -79.5t-74 -65.5l-21 -6q-34 20 -73 63.5t-62 81.5l6 22q26 42 66.5 84.5
t73.5 63.5z" />
    <glyph glyph-name="Ccaron" unicode="&#x10c;" horiz-adv-x="1433" 
d="M854 1386h2q194 0 307 -65q87 36 197 49l12 -8q-4 -46 -39.5 -192t-50.5 -185l-49 -20q-41 106 -90 274q-66 41 -201 41q-128 0 -232.5 -50t-171.5 -134.5t-103 -192t-36 -225.5q0 -120 36 -227.5t104 -191.5t175 -133.5t240 -49.5q51 0 82 8q178 175 305 272l37 -43
q-22 -65 -78.5 -165t-85.5 -132q-53 -17 -163 -36t-183 -19q-121 0 -233.5 26t-214 82t-177 136.5t-119.5 198.5t-44 260q0 146 49 268.5t128 204.5t181.5 139.5t207.5 83.5t208 26zM879 1475h-39q-148 139 -289 268l39 53q228 -112 270 -133q35 17 130 62.5t145 70.5
l32 -53q-197 -185 -288 -268z" />
    <glyph glyph-name="ccaron" unicode="&#x10d;" horiz-adv-x="958" 
d="M63 434v2q0 122 49.5 220.5t130.5 158t177.5 90.5t197.5 31q98 0 174.5 -24.5t116.5 -55.5q-8 -39 -37 -122.5t-55 -127.5l-37 -8q-41 72 -86 242q-17 10 -51 10q-92 0 -158.5 -55t-96.5 -137t-30 -179q0 -105 35.5 -188.5t106.5 -134.5t168 -52q29 0 51 11
q116 82 178 112l21 -43q-13 -38 -61.5 -99.5t-76.5 -76.5q-108 -35 -196 -35q-102 0 -192.5 27t-165.5 80.5t-119 144.5t-44 209zM582 1030l-45 -8l-228 379l51 41l199 -193l197 195l51 -43z" />
    <glyph glyph-name="Dcaron" unicode="&#x10e;" horiz-adv-x="1564" 
d="M78 1288l12 51q290 27 518 27q187 0 334 -31t248.5 -87.5t168 -138.5t96.5 -181t30 -219q0 -113 -28.5 -210.5t-73 -165t-107 -123t-121.5 -88t-125 -56.5q-113 -42 -251.5 -57t-368.5 -15q-127 0 -349 6l17 57l151 66q13 63 13 579v529zM532 1274v-572q0 -591 9 -626
q128 0 246.5 35t201.5 114q174 166 174 467q0 130 -43.5 247.5t-140.5 199.5q-90 77 -196 106t-251 29zM729 1456h-39q-148 139 -289 268l39 54q251 -123 271 -133q31 15 127 61t147 72l33 -54q-146 -136 -289 -268z" />
    <glyph glyph-name="dcaron" unicode="&#x10f;" horiz-adv-x="1179" 
d="M1008 817v-659q62 -80 149 -113l-18 -37q-15 -12 -57.5 -23.5t-92.5 -11.5q-89 0 -153.5 28t-92.5 79h-2q-7 -4 -38.5 -24.5t-59 -37t-69.5 -31t-80 -14.5q-74 0 -147.5 28.5t-137 82.5t-103.5 142.5t-40 197.5q0 101 33.5 187t87 144.5t122 100.5t139 61t136.5 19
q57 0 141 -51l2 2q0 239 -6 368l-129 58l12 45q193 56 410 65q-6 -234 -6 -606zM727 156v641q-39 22 -90 22q-107 0 -191 -98.5t-84 -253.5q0 -150 79.5 -243t195.5 -93q41 0 90 25zM1141 1081l-41 54q110 84 110 149q0 49 -34 78l-62 37v37l148 73h32q33 -16 58 -54.5
t26 -96.5q0 -78 -64.5 -156t-172.5 -121z" />
    <glyph glyph-name="Dcroat" unicode="&#x110;" horiz-adv-x="1595" 
d="M94 756h178v481l-170 51l19 53q1 0 86.5 7t201 12.5t230.5 5.5q187 0 334 -31t248.5 -87.5t168 -138.5t96.5 -180.5t30 -217.5q0 -114 -29 -211.5t-74.5 -165t-108.5 -123t-122 -88.5t-125 -57q-113 -42 -248 -57t-346 -15q-85 0 -215 3t-156 3l17 57l151 68
q12 46 12 537h-211zM563 756h326l-43 -94h-283q0 -555 8 -584q124 0 244.5 36t204.5 115q176 167 176 461q0 292 -182 447q-88 77 -197 107t-254 30v-518z" />
    <glyph glyph-name="dcroat" unicode="&#x111;" horiz-adv-x="1185" 
d="M528 1171h203v95l-133 47l12 45q193 56 410 65q-4 -132 -4 -252h186l-43 -90h-143q-2 -82 -2 -264v-659q59 -79 149 -113l-8 -37q-15 -11 -62.5 -23t-97.5 -12q-89 0 -153 27t-90 74l-4 2q-1 -1 -14.5 -10t-20 -13t-22.5 -14.5t-27.5 -16t-29 -14.5t-32.5 -14t-33 -10.5
t-36.5 -8t-36.5 -2.5q-74 0 -148 28.5t-138 82t-104 142.5t-40 198q0 100 33 186.5t86.5 145t121.5 100t137 61t134 19.5q60 0 153 -49l2 2q0 120 -2 192h-246zM733 152v647q-43 24 -92 24q-108 0 -195 -101t-86 -257q0 -148 81 -244t196 -96q43 0 96 27z" />
    <glyph glyph-name="Emacron" unicode="&#x112;" horiz-adv-x="1234" 
d="M66 1296l18 56q49 0 147 -1t146 -1h508q128 22 219 26l6 -8q-1 -39 -19.5 -161.5t-29.5 -164.5l-39 -14q-16 26 -71.5 124.5t-57.5 102.5l-361 -20v-487q206 0 521 28l12 -24q-5 -21 -56 -80.5t-71 -59.5q-10 0 -185 13t-221 14q0 -349 9 -524l362 -23q176 223 236 279
l41 -19q-2 -30 -34 -176.5t-46 -179.5q-129 6 -359 6h-368q-48 0 -160.5 -2t-165.5 -2l16 55l166 78q13 50 13 574v520zM887 1477h-500l45 151h500z" />
    <glyph glyph-name="emacron" unicode="&#x113;" horiz-adv-x="989" 
d="M690 457h-330q-2 -12 -2 -27q-1 -144 79.5 -235t205.5 -91q19 0 51 7q108 87 205 139l12 -35q-9 -51 -64.5 -115t-92.5 -86q-108 -41 -213 -41q-217 0 -346 126.5t-129 344.5q0 104 38.5 196t102.5 156.5t151 102t181 37.5q171 0 281 -100t110 -275q0 -52 -23 -65
q-19 -12 -78 -25.5t-139 -13.5zM358 549h285q12 28 12 65q0 108 -33.5 172t-95.5 64q-50 0 -89.5 -51.5t-58.5 -118.5t-20 -131zM754 1122h-475l38 150h478z" />
    <glyph glyph-name="Ebreve" unicode="&#x114;" horiz-adv-x="1234" 
d="M66 1296l18 56q49 0 147 -1t146 -1h508q128 22 219 26l6 -8q-1 -39 -19.5 -161.5t-29.5 -164.5l-39 -14q-16 26 -71.5 124.5t-57.5 102.5l-361 -20v-487q206 0 521 28l12 -24q-5 -21 -56 -80.5t-71 -59.5q-10 0 -185 13t-221 14q0 -349 9 -524l362 -23q176 223 236 279
l41 -19q-2 -30 -34 -176.5t-46 -179.5q-129 6 -359 6h-368q-48 0 -160.5 -2t-165.5 -2l16 55l166 78q13 50 13 574v520zM643 1446h-2q-137 0 -205.5 77.5t-68.5 209.5l73 12q9 -30 20 -51.5t33 -44t59.5 -34t90.5 -11.5q49 0 84.5 10.5t58 31t34.5 40t24 49.5l74 10
q0 -138 -70.5 -218.5t-204.5 -80.5z" />
    <glyph glyph-name="ebreve" unicode="&#x115;" horiz-adv-x="989" 
d="M690 457h-330q-2 -12 -2 -27q-1 -144 79.5 -235t205.5 -91q19 0 51 7q108 87 205 139l12 -35q-9 -51 -64.5 -115t-92.5 -86q-108 -41 -213 -41q-217 0 -346 126.5t-129 344.5q0 104 38.5 196t102.5 156.5t151 102t181 37.5q171 0 281 -100t110 -275q0 -52 -23 -65
q-19 -12 -78 -25.5t-139 -13.5zM358 549h285q12 28 12 65q0 108 -33.5 172t-95.5 64q-50 0 -89.5 -51.5t-58.5 -118.5t-20 -131zM293 1356l78 18q13 -73 47 -115t112 -42q45 0 78.5 12.5t52 35t28.5 43.5t16 48l79 18q2 -142 -63.5 -226.5t-194.5 -84.5t-185 81.5t-48 211.5
z" />
    <glyph glyph-name="Edotaccent" unicode="&#x116;" horiz-adv-x="1234" 
d="M66 1296l18 56q49 0 147 -1t146 -1h508q128 22 219 26l6 -8q-1 -39 -19.5 -161.5t-29.5 -164.5l-39 -14q-16 26 -71.5 124.5t-57.5 102.5l-361 -20v-487q206 0 521 28l12 -24q-5 -21 -56 -80.5t-71 -59.5q-10 0 -185 13t-221 14q0 -349 9 -524l362 -23q176 223 236 279
l41 -19q-2 -30 -34 -176.5t-46 -179.5q-129 6 -359 6h-368q-48 0 -160.5 -2t-165.5 -2l16 55l166 78q13 50 13 574v520zM659 1759l19 6q24 -10 66 -57t61 -84l-6 -22q-12 -33 -53.5 -75.5t-75.5 -66.5l-23 -6q-33 22 -70 63.5t-59 77.5l6 23q27 41 66 82t69 59z" />
    <glyph glyph-name="edotaccent" unicode="&#x117;" horiz-adv-x="989" 
d="M690 457h-330q-2 -12 -2 -27q-1 -144 79.5 -235t205.5 -91q19 0 51 7q108 87 205 139l12 -35q-9 -51 -64.5 -115t-92.5 -86q-108 -41 -213 -41q-217 0 -346 126.5t-129 344.5q0 104 38.5 196t102.5 156.5t151 102t181 37.5q171 0 281 -100t110 -275q0 -52 -23 -65
q-19 -12 -78 -25.5t-139 -13.5zM358 549h285q12 28 12 65q0 108 -33.5 172t-95.5 64q-50 0 -89.5 -51.5t-58.5 -118.5t-20 -131zM535 1362l18 4q25 -9 68.5 -57t64.5 -88l-6 -23q-16 -33 -61 -79.5t-74 -65.5l-21 -6q-34 20 -73 63.5t-62 81.5l6 22q26 42 66.5 84.5
t73.5 63.5z" />
    <glyph glyph-name="Eogonek" unicode="&#x118;" horiz-adv-x="1234" 
d="M991 -266l23 -62q-96 -114 -238 -114q-82 0 -138 42.5t-56 118.5q0 71 61 139.5t174 141.5h-131h-313q-48 0 -160.5 -1t-165.5 -1l16 55l166 76q13 50 13 573v523l-176 71l18 56q49 0 147 -1t146 -1h508q128 22 219 26l6 -8q-1 -39 -19.5 -161.5t-29.5 -164.5l-39 -14
q-16 26 -71.5 124.5t-57.5 102.5l-361 -20v-487q206 0 521 28l12 -24q-5 -21 -56 -80.5t-71 -59.5q-10 0 -185 13t-221 14q0 -351 9 -524l356 -25q155 196 244 279l41 -19q-3 -30 -39.5 -175.5t-50.5 -180.5q-117 6 -162 6q-170 -153 -170 -225t98 -72q59 0 133 31z" />
    <glyph glyph-name="eogonek" unicode="&#x119;" horiz-adv-x="997" 
d="M358 549h285q12 28 12 65q0 108 -33.5 172t-95.5 64q-51 0 -91 -51.5t-58.5 -119t-18.5 -130.5zM741 -266l23 -62q-96 -114 -236 -114q-81 0 -137.5 45.5t-56.5 122.5q0 66 41.5 124t124.5 125q-200 12 -318.5 137t-118.5 332q0 104 38.5 196t103.5 156.5t152 102
t182 37.5q171 0 281 -100t110 -275q0 -52 -23 -65q-19 -12 -78 -25.5t-139 -13.5h-332q-2 -12 -2 -27q-1 -144 79.5 -235t207.5 -91q24 0 51 9q127 99 205 137l12 -35q-9 -51 -63.5 -113.5t-93.5 -87.5q-52 -18 -111 -26q-131 -131 -131 -209q0 -37 25 -56.5t71 -19.5
q62 0 133 31z" />
    <glyph glyph-name="Ecaron" unicode="&#x11a;" horiz-adv-x="1234" 
d="M66 1296l18 56q49 0 147 -1t146 -1h508q128 22 219 26l6 -8q-1 -39 -19.5 -161.5t-29.5 -164.5l-39 -14q-16 26 -71.5 124.5t-57.5 102.5l-361 -20v-487q206 0 521 28l12 -24q-5 -21 -56 -80.5t-71 -59.5q-10 0 -185 13t-221 14q0 -349 9 -524l362 -23q176 223 236 279
l41 -19q-2 -30 -34 -176.5t-46 -179.5q-129 6 -359 6h-368q-48 0 -160.5 -2t-165.5 -2l16 55l166 78q13 50 13 574v520zM653 1444h-39q-192 180 -288 268l39 53q228 -111 270 -133q31 15 127 61t147 72l33 -53q-146 -136 -289 -268z" />
    <glyph glyph-name="ecaron" unicode="&#x11b;" horiz-adv-x="989" 
d="M690 457h-330q-2 -12 -2 -27q-1 -144 79.5 -235t205.5 -91q19 0 51 7q108 87 205 139l12 -35q-9 -51 -64.5 -115t-92.5 -86q-108 -41 -213 -41q-217 0 -346 126.5t-129 344.5q0 104 38.5 196t102.5 156.5t151 102t181 37.5q171 0 281 -100t110 -275q0 -52 -23 -65
q-19 -12 -78 -25.5t-139 -13.5zM358 549h285q12 28 12 65q0 108 -33.5 172t-95.5 64q-50 0 -89.5 -51.5t-58.5 -118.5t-20 -131zM561 1030l-45 -8l-227 379l51 41l199 -193l196 195l51 -43z" />
    <glyph glyph-name="Gcircumflex" unicode="&#x11c;" horiz-adv-x="1531" 
d="M772 584l92 71q210 15 574 15q-25 -210 -53.5 -379t-45.5 -243t-26 -91h-15q-64 8 -110 30.5t-68 47.5q-73 -33 -161 -53.5t-144 -20.5q-207 0 -372.5 83t-263 243t-97.5 372q0 213 106 380t288 257t407 90q178 0 313 -73q91 40 186 61l23 -16q-3 -38 -38.5 -182
t-55.5 -201l-47 -25q-40 95 -99 279q-88 45 -219 45q-245 0 -391.5 -162.5t-146.5 -431.5q0 -93 19 -178t61 -160.5t103.5 -131t152 -88t200.5 -32.5q39 0 88 6t68 15q-4 18 -1 99.5t4 104.5t7 109.5t8 114.5l-338 20zM836 1786h41q102 -94 286 -266l-33 -56
q-151 76 -274 133q-4 -2 -272 -133l-33 56q51 48 146.5 136.5t138.5 129.5z" />
    <glyph glyph-name="gcircumflex" unicode="&#x11d;" horiz-adv-x="1046" 
d="M979 805l-133 -8v-4q21 -23 39 -68t18 -94q0 -148 -108.5 -236t-292.5 -88q-120 0 -215 49q-27 -49 -27 -63q0 -32 28 -63.5t58 -36.5q288 12 494 -3q86 -5 151 -77q23 -28 38 -69.5t15 -78.5q0 -86 -55.5 -170t-159.5 -147q-173 -115 -385 -115q-173 0 -273.5 59
t-100.5 148q0 44 53 100l137 121v4q-76 32 -135 103q-21 26 -36 66t-15 69t53 87.5t104 94.5q-118 80 -118 227q0 96 58 171t153 114t208 39q68 0 166 -16q161 -27 176 -29l181 74l8 -17zM516 856h-2q-37 0 -64.5 -23.5t-41 -61t-19.5 -74.5t-6 -74q0 -54 12 -105t43.5 -91
t77.5 -40q47 0 77 38.5t40 86.5t10 104q0 36 -5 71.5t-17.5 76.5t-39.5 66.5t-65 25.5zM496 -59h-2q-93 0 -121 -4t-43 -15q-14 -12 -25.5 -35.5t-11.5 -48.5q0 -82 74.5 -137t183.5 -55q114 0 189 49.5t75 138.5q0 32 -23 59t-71 37q-56 11 -225 11zM481 1413l43 10
l230 -364l-52 -43l-200 178l-197 -178l-51 43z" />
    <glyph glyph-name="Gbreve" unicode="&#x11e;" horiz-adv-x="1531" 
d="M772 584l92 71q210 15 574 15q-25 -210 -53.5 -379t-45.5 -243t-26 -91h-15q-64 8 -110 30.5t-68 47.5q-73 -33 -161 -53.5t-144 -20.5q-207 0 -372.5 83t-263 243t-97.5 372q0 213 106 380t288 257t407 90q178 0 313 -73q91 40 186 61l23 -16q-3 -38 -38.5 -182
t-55.5 -201l-47 -25q-40 95 -99 279q-88 45 -219 45q-245 0 -391.5 -162.5t-146.5 -431.5q0 -93 19 -178t61 -160.5t103.5 -131t152 -88t200.5 -32.5q39 0 88 6t68 15q-4 18 -1 99.5t4 104.5t7 109.5t8 114.5l-338 20zM862 1470h-2q-137 0 -205.5 77.5t-68.5 209.5l73 12
q9 -30 20 -51.5t33 -44t59.5 -34t90.5 -11.5q49 0 84.5 10.5t58 31t34.5 40t24 49.5l74 10q0 -138 -70.5 -218.5t-204.5 -80.5z" />
    <glyph glyph-name="gbreve" unicode="&#x11f;" horiz-adv-x="1046" 
d="M979 805l-133 -8v-4q21 -23 39 -68t18 -94q0 -148 -108.5 -236t-292.5 -88q-120 0 -215 49q-27 -49 -27 -63q0 -32 28 -63.5t58 -36.5q288 12 494 -3q86 -5 151 -77q23 -28 38 -69.5t15 -78.5q0 -86 -55.5 -170t-159.5 -147q-173 -115 -385 -115q-173 0 -273.5 59
t-100.5 148q0 44 53 100l137 121v4q-76 32 -135 103q-21 26 -36 66t-15 69t53 87.5t104 94.5q-118 80 -118 227q0 96 58 171t153 114t208 39q68 0 166 -16q161 -27 176 -29l181 74l8 -17zM516 856h-2q-37 0 -64.5 -23.5t-41 -61t-19.5 -74.5t-6 -74q0 -54 12 -105t43.5 -91
t77.5 -40q47 0 77 38.5t40 86.5t10 104q0 36 -5 71.5t-17.5 76.5t-39.5 66.5t-65 25.5zM496 -59h-2q-93 0 -121 -4t-43 -15q-14 -12 -25.5 -35.5t-11.5 -48.5q0 -82 74.5 -137t183.5 -55q114 0 189 49.5t75 138.5q0 32 -23 59t-71 37q-56 11 -225 11zM266 1356l78 18
q13 -72 47.5 -114.5t112.5 -42.5q45 0 78 12.5t52 35t28.5 43.5t15.5 48l80 18q2 -142 -63.5 -226.5t-194.5 -84.5t-185.5 81.5t-48.5 211.5z" />
    <glyph glyph-name="Gdotaccent" unicode="&#x120;" horiz-adv-x="1531" 
d="M772 584l92 71q210 15 574 15q-25 -210 -53.5 -379t-45.5 -243t-26 -91h-15q-64 8 -110 30.5t-68 47.5q-73 -33 -161 -53.5t-144 -20.5q-207 0 -372.5 83t-263 243t-97.5 372q0 213 106 380t288 257t407 90q178 0 313 -73q91 40 186 61l23 -16q-3 -38 -38.5 -182
t-55.5 -201l-47 -25q-40 95 -99 279q-88 45 -219 45q-245 0 -391.5 -162.5t-146.5 -431.5q0 -93 19 -178t61 -160.5t103.5 -131t152 -88t200.5 -32.5q39 0 88 6t68 15q-4 18 -1 99.5t4 104.5t7 109.5t8 114.5l-338 20zM897 1780l18 6q24 -10 66 -57t61 -84l-6 -23
q-12 -33 -53 -74.5t-76 -66.5l-22 -6q-33 22 -70 63.5t-59 77.5l6 22q27 41 66 82.5t69 59.5z" />
    <glyph glyph-name="gdotaccent" unicode="&#x121;" horiz-adv-x="1046" 
d="M979 805l-133 -8v-4q21 -23 39 -68t18 -94q0 -148 -108.5 -236t-292.5 -88q-120 0 -215 49q-27 -49 -27 -63q0 -32 28 -63.5t58 -36.5q288 12 494 -3q86 -5 151 -77q23 -28 38 -69.5t15 -78.5q0 -86 -55.5 -170t-159.5 -147q-173 -115 -385 -115q-173 0 -273.5 59
t-100.5 148q0 44 53 100l137 121v4q-76 32 -135 103q-21 26 -36 66t-15 69t53 87.5t104 94.5q-118 80 -118 227q0 96 58 171t153 114t208 39q68 0 166 -16q161 -27 176 -29l181 74l8 -17zM516 856h-2q-37 0 -64.5 -23.5t-41 -61t-19.5 -74.5t-6 -74q0 -54 12 -105t43.5 -91
t77.5 -40q47 0 77 38.5t40 86.5t10 104q0 36 -5 71.5t-17.5 76.5t-39.5 66.5t-65 25.5zM496 -59h-2q-93 0 -121 -4t-43 -15q-14 -12 -25.5 -35.5t-11.5 -48.5q0 -82 74.5 -137t183.5 -55q114 0 189 49.5t75 138.5q0 32 -23 59t-71 37q-56 11 -225 11zM502 1362l18 4
q25 -9 68.5 -57t64.5 -88l-6 -23q-16 -33 -61 -79.5t-74 -65.5l-20 -6q-34 20 -74 64t-62 81l6 22q26 42 66.5 84.5t73.5 63.5z" />
    <glyph glyph-name="Gcommaaccent" unicode="&#x122;" horiz-adv-x="1531" 
d="M772 584l92 71q210 15 574 15q-25 -210 -53.5 -379t-45.5 -243t-26 -91h-15q-64 8 -110 30.5t-68 47.5q-73 -33 -161 -53.5t-144 -20.5q-207 0 -372.5 83t-263 243t-97.5 372q0 213 106 380t288 257t407 90q178 0 313 -73q91 40 186 61l23 -16q-3 -38 -38.5 -182
t-55.5 -201l-47 -25q-40 95 -99 279q-88 45 -219 45q-245 0 -391.5 -162.5t-146.5 -431.5q0 -93 19 -178t61 -160.5t103.5 -131t152 -88t200.5 -32.5q39 0 88 6t68 15q-4 18 -1 99.5t4 104.5t7 109.5t8 114.5l-338 20zM750 -535l-41 54q110 84 110 149q0 48 -35 78l-61 37
v37l147 74h33q32 -16 57.5 -55t26.5 -97q0 -78 -64.5 -156t-172.5 -121z" />
    <glyph glyph-name="gcommaaccent" unicode="&#x123;" horiz-adv-x="1056" 
d="M629 1477l41 -43q-48 -31 -80.5 -74t-32.5 -84q0 -50 33 -72l63 -37v-37l-151 -67h-31q-28 13 -53.5 51t-28.5 92q-3 75 62.5 151.5t177.5 119.5zM987 815l-139 -8v-4q21 -23 42 -73.5t21 -98.5q0 -149 -111.5 -238.5t-297.5 -89.5q-128 0 -228 53q-22 -50 -22 -67
q0 -31 28.5 -63.5t57.5 -37.5q303 13 504 -2q86 -5 151 -77q23 -28 38.5 -69.5t15.5 -78.5q0 -86 -54.5 -166.5t-158.5 -144.5q-170 -117 -388 -117q-172 0 -273 58t-101 147q0 51 55 100l141 117v4q-79 34 -141 104q-21 26 -36 66.5t-15 69.5t51 87.5t100 94.5
q-55 37 -86.5 97t-31.5 132q0 95 60 171t156.5 115.5t209.5 39.5q74 0 172 -16q161 -27 176 -29l180 74l8 -17zM518 868h-2q-37 0 -65.5 -25.5t-43 -65.5t-21.5 -79.5t-7 -76.5q0 -54 13.5 -108t46.5 -97t79 -43q36 0 63.5 23.5t41.5 61.5t21 78t7 80q0 34 -5.5 72t-19 81.5
t-41.5 71t-67 27.5zM498 -63h-2q-94 0 -123.5 -4t-42.5 -15q-37 -32 -37 -82q0 -89 77 -145t183 -56q123 0 193.5 50.5t70.5 150.5q0 31 -22.5 55.5t-71.5 34.5q-56 11 -225 11z" />
    <glyph glyph-name="Hcircumflex" unicode="&#x124;" horiz-adv-x="1638" 
d="M90 1292l19 58q47 0 140.5 -1t139.5 -1q44 0 130.5 1t129.5 1l-18 -64l-99 -69v-441h574v445l-98 69l14 60q39 0 116.5 -1t116.5 -1q52 0 157 1t157 1l-15 -60l-157 -73v-519q0 -185 4 -366.5t10 -200.5l176 -76l-14 -57q-51 0 -154.5 1t-154.5 1q-45 0 -137 -1t-138 -1
l19 59l96 72q3 83 3.5 170.5t-0.5 206t-1 164.5q-80 -15 -244 -15h-330q0 -423 3 -524l122 -76l-16 -57q-44 0 -132 1t-132 1q-51 0 -154.5 -1t-154.5 -1l16 57l145 74q13 292 13 584v506zM803 1765h41q102 -94 286 -266l-32 -55q-137 68 -275 133q-4 -2 -272 -133l-33 55
q51 48 146.5 136.5t138.5 129.5z" />
    <glyph glyph-name="hcircumflex" unicode="&#x125;" horiz-adv-x="1191" 
d="M1026 612v-446q0 -25 9.5 -37t33.5 -25l94 -53l-14 -57q-251 -5 -426 16q22 135 22 527q0 132 -43 189.5t-129 57.5q-69 0 -127 -43q0 -578 5 -612l145 -74l-16 -57q-46 0 -138 1t-141 1q-44 0 -131.5 -1t-132.5 -1l14 57l111 74q4 23 4 453q0 491 -4 667l-121 64l14 45
q58 24 177 43t221 22q-7 -290 -7 -594l5 -2q134 109 266 109q65 0 117.5 -19.5t87.5 -51.5t59 -74.5t34.5 -87t10.5 -91.5zM270 1796h41q147 -135 287 -266l-33 -55q-151 76 -274 133q-47 -22 -273 -133l-32 55q96 90 284 266z" />
    <glyph glyph-name="Hbar" unicode="&#x126;" horiz-adv-x="1638" 
d="M532 756h574l2 243h-576v-243zM532 1090h576l-2 135l-98 69l14 58q36 0 119 -1t114 -1q45 0 157.5 1t156.5 1l-17 -60l-155 -71v-131h190l-33 -91h-157v-305q-1 -170 3.5 -360t10.5 -205l176 -72l-14 -59q-47 0 -156 1t-153 1q-40 0 -137.5 -1t-137.5 -1l19 65l96 64
q3 84 3.5 166.5t-0.5 191.5t-1 154q-106 -8 -244 -8h-330q0 -401 3 -500l122 -78l-16 -55q-39 0 -128 1t-124 1q-46 0 -164 -1t-164 -1l19 57l149 74q13 292 13 580l2 290h-193l31 91h162l-2 135l-154 67l21 60q40 0 140 -1t140 -1q36 0 128.5 1t131.5 1l-18 -60l-99 -67
v-135z" />
    <glyph glyph-name="hbar" unicode="&#x127;" horiz-adv-x="1191" 
d="M25 1178h139q0 55 -2 84l-121 51l12 45q60 24 178.5 43t217.5 22v-245h264l-27 -88h-237q-3 -132 -3 -267q132 113 271 113q65 0 117.5 -19.5t87.5 -51.5t59 -74.5t34.5 -87t10.5 -91.5v-446q0 -25 9.5 -36.5t33.5 -23.5l94 -59l-14 -53q-251 -5 -426 16q22 135 22 527
q0 131 -43 188t-129 57q-69 0 -127 -43q0 -577 7 -616l143 -72l-16 -53q-46 0 -139 2t-140 2q-44 0 -132.5 -2t-133.5 -2l16 53l109 72q6 43 6 459q0 344 -2 508h-164z" />
    <glyph glyph-name="Itilde" unicode="&#x128;" horiz-adv-x="776" 
d="M92 1292l19 58q47 0 138.5 -1t137.5 -1q50 0 150.5 1t150.5 1l-16 -58l-140 -71v-519q0 -510 11 -573l178 -74l-16 -57q-53 0 -161 2t-163 2q-53 0 -160 -2t-160 -2l17 57l151 76q13 37 13 571v519zM678 1698l55 -43q-62 -103 -121.5 -153t-109.5 -50q-8 0 -15 1t-16 4
l-15 5t-18.5 8t-19 9.5t-24.5 13t-27 14.5q-78 41 -111 41q-44 0 -143 -102l-52 45q123 213 230 213q39 0 129 -49q82 -47 112 -47q52 0 146 90z" />
    <glyph glyph-name="itilde" unicode="&#x129;" horiz-adv-x="620" 
d="M55 821l17 49q39 13 159 36.5t220 29.5v-426q0 -245 4 -389l137 -64l-12 -59q-48 0 -136.5 1t-136.5 1q-43 0 -131 -1t-129 -1l10 59l109 64q4 156 4 393v250zM584 1315l59 -45q-120 -203 -225 -203q-9 0 -18.5 2t-17 4t-20.5 8t-20.5 9.5t-27.5 13.5t-31 16
q-75 41 -107 41q-56 0 -141 -102l-51 47q120 209 225 209q44 0 127 -47q3 -2 21.5 -12t25.5 -13.5t21.5 -10t25 -9t19.5 -2.5q55 0 135 94z" />
    <glyph glyph-name="Imacron" unicode="&#x12a;" horiz-adv-x="776" 
d="M92 1292l19 58q47 0 138.5 -1t137.5 -1q50 0 150.5 1t150.5 1l-16 -58l-140 -71v-519q0 -510 11 -573l178 -74l-16 -57q-53 0 -161 2t-163 2q-53 0 -160 -2t-160 -2l17 57l151 76q13 37 13 571v519zM625 1456h-500l45 152h500z" />
    <glyph glyph-name="imacron" unicode="&#x12b;" horiz-adv-x="620" 
d="M55 821l17 49q39 13 159 36.5t220 29.5v-426q0 -245 4 -389l137 -64l-12 -59q-48 0 -136.5 1t-136.5 1q-43 0 -131 -1t-129 -1l10 59l109 64q4 156 4 393v250zM516 1122h-475l39 150h477z" />
    <glyph glyph-name="Ibreve" unicode="&#x12c;" horiz-adv-x="776" 
d="M92 1292l19 58q47 0 138.5 -1t137.5 -1q50 0 150.5 1t150.5 1l-16 -58l-140 -71v-519q0 -510 11 -573l178 -74l-16 -57q-53 0 -161 2t-163 2q-53 0 -160 -2t-160 -2l17 57l151 76q13 37 13 571v519zM385 1446h-2q-137 0 -205.5 77.5t-68.5 209.5l73 12q9 -30 20 -51.5
t33 -44t59.5 -34t90.5 -11.5q49 0 84.5 10.5t58 31t34.5 40t24 49.5l73 10q0 -138 -70.5 -218.5t-203.5 -80.5z" />
    <glyph glyph-name="ibreve" unicode="&#x12d;" horiz-adv-x="620" 
d="M55 821l17 49q39 13 159 36.5t220 29.5v-426q0 -245 4 -389l137 -64l-12 -59q-48 0 -136.5 1t-136.5 1q-43 0 -131 -1t-129 -1l10 59l109 64q4 156 4 393v250zM55 1356l78 18q13 -72 47.5 -114.5t112.5 -42.5q45 0 78 12.5t52 35t28.5 43.5t15.5 48l80 18
q2 -142 -63.5 -226.5t-194.5 -84.5t-185.5 81.5t-48.5 211.5z" />
    <glyph glyph-name="Iogonek" unicode="&#x12e;" horiz-adv-x="776" 
d="M573 -266l25 -62q-96 -114 -238 -114q-83 0 -138.5 42.5t-55.5 120.5q0 67 39.5 132t126.5 147q-45 0 -134.5 -1t-134.5 -1l17 55l149 76q13 37 13 573v519l-150 71l19 58q47 0 138.5 -1t137.5 -1q50 0 150.5 1t150.5 1l-16 -58l-140 -71v-519q0 -510 11 -573l178 -76
l-16 -55q-45 0 -134.5 1t-134.5 1q-44 -57 -68 -115.5t-24 -97.5t29 -61.5t76 -22.5q53 0 124 31z" />
    <glyph glyph-name="iogonek" unicode="&#x12f;" horiz-adv-x="620" 
d="M299 1389l18 4q26 -9 69.5 -58t62.5 -88l-5 -22q-16 -33 -61.5 -80t-75.5 -66l-20 -6q-34 21 -74 65t-59 81l4 22q28 43 68.5 85.5t72.5 62.5zM502 -266l24 -62q-96 -114 -237 -114q-82 0 -138.5 44.5t-56.5 121.5q0 138 160 276q-36 0 -106 -1t-101 -1l10 59l109 64
q4 188 4 393v250l-115 57l17 49q39 13 159 36.5t220 29.5v-426q0 -249 4 -389l137 -64l-12 -59q-40 0 -111 1t-107 1q-44 -60 -67 -118t-23 -93q0 -39 29.5 -62.5t75.5 -23.5q54 0 125 31z" />
    <glyph glyph-name="Idotaccent" unicode="&#x130;" horiz-adv-x="776" 
d="M92 1292l19 58q47 0 138.5 -1t137.5 -1q50 0 150.5 1t150.5 1l-16 -58l-140 -71v-519q0 -510 11 -573l178 -74l-16 -57q-53 0 -161 2t-163 2q-53 0 -160 -2t-160 -2l17 57l151 76q13 37 13 571v519zM408 1780l18 6q24 -10 66 -57t61 -84l-6 -23q-12 -33 -53 -74.5
t-76 -66.5l-23 -6q-33 22 -70 63.5t-59 77.5l6 22q27 41 66.5 82.5t69.5 59.5z" />
    <glyph glyph-name="dotlessi" unicode="&#x131;" horiz-adv-x="620" 
d="M55 821l17 49q39 13 159 36.5t220 29.5v-426q0 -245 4 -389l137 -64l-12 -59q-48 0 -136.5 1t-136.5 1q-43 0 -131 -1t-129 -1l10 59l109 64q4 156 4 393v250z" />
    <glyph glyph-name="IJ" unicode="&#x132;" horiz-adv-x="1501" 
d="M92 1292l19 58q47 0 138.5 -1t137.5 -1q50 0 150.5 1t150.5 1l-16 -58l-140 -71v-519q0 -510 11 -573l178 -74l-16 -57q-53 0 -161 2t-163 2q-53 0 -160 -2t-160 -2l17 57l151 76q13 37 13 571v519zM823 1292l17 58q48 0 150 -1t155 -1q49 0 153 1t160 1l-10 -58
l-145 -75q2 -95 2 -275.5t-1 -374.5t-1 -219q0 -164 -48 -295q-26 -75 -78 -149.5t-112 -130.5t-107.5 -92.5t-85.5 -59.5l-57 51v19q110 86 150.5 172t46.5 252q4 111 0 596q-5 429 -8 508z" />
    <glyph glyph-name="ij" unicode="&#x133;" horiz-adv-x="1208" 
d="M299 1380l18 4q25 -9 70 -58.5t68 -90.5l-6 -23q-16 -35 -63 -82.5t-79 -66.5l-20 -6q-36 21 -77 66t-60 83l4 23q27 43 68.5 85.5t76.5 65.5zM55 821l17 49q39 13 159 36.5t220 29.5v-426q0 -299 4 -389l137 -64l-12 -59q-48 0 -136.5 1t-136.5 1q-43 0 -131 -1t-129 -1
l10 59l109 64q4 144 4 393v250zM915 1380l19 4q27 -9 71.5 -58.5t65.5 -90.5l-4 -23q-18 -35 -64.5 -82.5t-76.5 -66.5l-23 -6q-36 21 -77 66t-60 83l4 23q26 42 68 85t77 66zM680 819l16 47q31 15 163 40.5t210 29.5v-684q0 -96 -16 -177t-60 -165q-69 -133 -153 -211
t-205 -145l-57 47v10q35 23 63.5 53t49 58.5t36.5 69t26 70t17.5 77.5t10.5 75t5 78.5t2 73v72.5q0 405 -10 530q-16 9 -98 51z" />
    <glyph glyph-name="Jcircumflex" unicode="&#x134;" horiz-adv-x="727" 
d="M47 1292l16 58q48 0 150.5 -1t155.5 -1q49 0 153 1t160 1l-10 -58l-146 -75q2 -95 2 -275.5t-1 -374.5t-1 -219q0 -167 -47 -295q-26 -75 -78 -149.5t-112 -130.5t-107.5 -92.5t-85.5 -59.5l-57 51v19q110 86 150.5 172t46.5 252q4 111 0 596q-5 391 -9 508zM365 1765h41
q102 -94 286 -266l-33 -55q-151 76 -274 133q-4 -2 -272 -133l-33 55q51 48 146.5 136.5t138.5 129.5z" />
    <glyph glyph-name="jcircumflex" unicode="&#x135;" horiz-adv-x="591" 
d="M57 819l17 47q32 15 163.5 40.5t208.5 29.5v-684q0 -97 -15.5 -177.5t-59.5 -164.5q-69 -133 -153 -211t-206 -145l-57 47v10q35 23 63.5 52.5t49 58.5t36.5 69t26.5 70.5t17.5 77.5t10.5 75t5.5 78.5t2 73.5v72q0 405 -10 530q-2 1 -99 51zM274 1413l43 10l230 -364
l-51 -43l-201 178l-197 -178l-51 43z" />
    <glyph glyph-name="Kcommaaccent" unicode="&#x136;" horiz-adv-x="1474" 
d="M1456 1350l-16 -56q-53 -25 -242 -82q-42 -17 -61 -36q-136 -140 -310 -357v-6q46 -63 112 -149t178 -229t136 -173q181 -226 209 -276l-10 -17q-106 1 -179 11.5t-128 36t-91 54.5t-85 81q-75 77 -182 212.5t-209 286.5v13q383 455 460 585q0 79 9 105q108 3 179 2
t146 -3.5t84 -2.5zM88 1294l18 58q45 0 135.5 -1t135.5 -1q51 0 152 1t151 1l-16 -58l-132 -73v-519q0 -510 11 -573l176 -74l-21 -57q-53 0 -159.5 1t-161.5 1q-51 0 -155 -1t-156 -1l16 57l147 74q13 47 13 573v521zM719 -473l-41 53q110 84 110 150q0 27 -7 43.5
t-27 33.5l-62 37v37l148 74h32q32 -16 57.5 -55t26.5 -97q0 -78 -64.5 -155.5t-172.5 -120.5z" />
    <glyph glyph-name="kcommaaccent" unicode="&#x137;" horiz-adv-x="1116" 
d="M1124 -23l-12 -10q-264 0 -371 107q-51 51 -130 169.5t-136 227.5v14q218 263 260 324l43 127q92 0 189 -10t131 -21l-31 -59q-133 -56 -252 -94q-41 -37 -108 -115v-6q33 -59 96.5 -160t108 -169t125 -191t87.5 -134zM453 119l131 -58l-19 -63q-43 0 -129.5 1t-130.5 1
q-43 0 -130 -1t-130 -1l8 57l111 66q4 140 4 745q0 328 -4 400l-119 49l16 53q90 20 214.5 37.5t179.5 17.5q-6 -276 -6 -587q0 -505 4 -717zM514 -494l-41 54q111 85 111 149q0 48 -35 78l-62 37v37l148 73h33q33 -16 58 -54.5t26 -96.5q0 -78 -65 -156t-173 -121z" />
    <glyph glyph-name="kgreenlandic" unicode="&#x138;" horiz-adv-x="1122" 
d="M1120 -10l-35 -23q-89 2 -190 30t-150 75q-81 75 -268 370v15q206 244 254 327q30 48 33 131q144 13 340 -6l2 -8q-9 -24 -41 -70q-28 -7 -152 -45q-55 -18 -84 -49q-30 -30 -122 -131v-4q99 -134 266 -389q22 -32 48.5 -71t40.5 -59.5t28 -41.5t21 -32.5t9 -18.5z
M455 111l131 -54l-19 -59q-43 0 -129.5 1t-130.5 1q-43 0 -130 -1t-130 -1l8 53l111 62q4 84 4 379v288l-119 47l19 54q80 20 203.5 37.5t177.5 17.5v-440q0 -61 4 -385z" />
    <glyph glyph-name="Lacute" unicode="&#x139;" horiz-adv-x="1204" 
d="M78 1292l18 58q48 0 145 -1t146 -1t148.5 1t148.5 1l-18 -60l-134 -71v-514q0 -448 9 -590l358 -25q168 241 225 301l37 -16q-1 -43 -30.5 -193t-43.5 -188q-19 0 -91.5 1.5t-230.5 3t-386 1.5q-50 0 -157.5 -1t-170.5 -1l17 57l165 74q9 36 9 573v517zM297 1430l-37 61
l334 272q37 -4 80.5 -47.5t68.5 -99.5v-27z" />
    <glyph glyph-name="lacute" unicode="&#x13a;" horiz-adv-x="612" 
d="M453 125l143 -66l-14 -61q-44 0 -134 1t-135 1q-46 0 -138.5 -1t-139.5 -1l8 57l119 72q4 122 4 686q0 348 -4 444l-115 60l14 51q41 17 176.5 36t215.5 19q-7 -266 -7 -602q0 -265 7 -696zM168 1497l-37 62l334 272q36 -4 80 -48t69 -100v-26z" />
    <glyph glyph-name="Lcommaaccent" unicode="&#x13b;" horiz-adv-x="1204" 
d="M78 1292l18 58q48 0 145 -1t146 -1t148.5 1t148.5 1l-18 -60l-134 -71v-514q0 -448 9 -590l358 -25q168 241 225 301l37 -16q-1 -43 -30.5 -193t-43.5 -188q-19 0 -91.5 1.5t-230.5 3t-386 1.5q-50 0 -157.5 -1t-170.5 -1l17 57l165 74q9 36 9 573v517zM580 -494l-41 54
q110 84 110 149q0 48 -35 78l-61 37v37l147 73h33q33 -16 58 -54.5t26 -96.5q0 -78 -64.5 -156t-172.5 -121z" />
    <glyph glyph-name="lcommaaccent" unicode="&#x13c;" horiz-adv-x="612" 
d="M453 125l143 -66l-14 -61q-44 0 -134 1t-135 1q-46 0 -138.5 -1t-139.5 -1l8 57l119 72q4 122 4 686q0 348 -4 444l-115 60l14 51q41 17 176.5 36t215.5 19q-7 -266 -7 -602q0 -265 7 -696zM227 -494l-41 54q111 85 111 149q0 48 -35 78l-61 37v37l147 73h33
q33 -16 58 -54.5t26 -96.5q0 -78 -65 -156t-173 -121z" />
    <glyph glyph-name="Lcaron" unicode="&#x13d;" horiz-adv-x="1204" 
d="M78 1292l18 58q48 0 145 -1t146 -1t148.5 1t148.5 1l-18 -60l-134 -71v-514q0 -448 9 -590l358 -25q168 241 225 301l37 -16q-1 -43 -30.5 -193t-43.5 -188q-19 0 -91.5 1.5t-230.5 3t-386 1.5q-50 0 -157.5 -1t-170.5 -1l17 57l165 74q9 36 9 573v517zM813 989l-41 53
q111 85 111 150q0 48 -35 78l-62 37v36l148 74h33q33 -16 58 -54.5t26 -96.5q0 -78 -65 -156t-173 -121z" />
    <glyph glyph-name="lcaron" unicode="&#x13e;" horiz-adv-x="612" 
d="M453 125l143 -66l-14 -61q-44 0 -134 1t-135 1q-46 0 -138.5 -1t-139.5 -1l8 57l119 72q4 122 4 686q0 348 -4 444l-115 60l14 51q41 17 176.5 36t215.5 19q-7 -266 -7 -602q0 -265 7 -696zM539 1073l-41 53q110 84 110 150q0 48 -35 78l-61 37v36l147 74h33
q33 -16 58 -54.5t26 -96.5q0 -78 -64.5 -156t-172.5 -121z" />
    <glyph glyph-name="Ldot" unicode="&#x13f;" horiz-adv-x="1204" 
d="M78 1292l18 58q48 0 145 -1t146 -1t148.5 1t148.5 1l-18 -60l-134 -71v-514q0 -448 9 -590l358 -25q168 241 225 301l37 -16q-1 -43 -30.5 -193t-43.5 -188q-19 0 -91.5 1.5t-230.5 3t-386 1.5q-50 0 -157.5 -1t-170.5 -1l17 57l165 74q9 36 9 573v517zM885 846l18 4
q25 -9 68.5 -57t64.5 -88l-6 -23q-16 -33 -61 -79.5t-74 -65.5l-21 -7q-34 20 -73 64t-62 82l6 22q26 42 66.5 84.5t73.5 63.5z" />
    <glyph glyph-name="ldot" unicode="&#x140;" horiz-adv-x="673" 
d="M453 125l141 -66l-12 -61q-44 0 -134 1t-135 1q-46 0 -138.5 -1t-139.5 -1l8 57l119 72q4 118 4 686q0 348 -4 444l-115 60l14 51q41 17 176.5 36t215.5 19q-7 -269 -7 -602q0 -339 7 -696zM641 946l21 4q26 -10 69 -58t64 -87l-7 -23q-16 -33 -61.5 -79.5t-75.5 -65.5
l-20 -6q-34 21 -73.5 65.5t-61.5 81.5l6 21q26 42 66 84t73 63z" />
    <glyph glyph-name="Lslash" unicode="&#x141;" horiz-adv-x="1220" 
d="M98 555l162 107v559l-164 71l21 58q47 0 138 -1t134 -1q52 0 156.5 1t156.5 1l-22 -62l-129 -67v-371l233 154l-10 -117l-223 -146q0 -508 8 -626l359 -25q156 235 225 307l35 -18q-1 -45 -27.5 -196t-38.5 -189q-20 0 -94.5 1.5t-234 3t-386.5 1.5q-50 0 -157 -1
t-170 -1l18 61l164 70q8 20 8 422l-172 -111z" />
    <glyph glyph-name="lslash" unicode="&#x142;" horiz-adv-x="647" 
d="M76 688l125 88q0 408 -6 484l-113 57l14 49q44 19 177 38t214 19q-6 -208 -6 -444l195 137l-23 -117l-172 -125q0 -315 8 -751l142 -64l-17 -61q-44 0 -132.5 1t-133.5 1q-46 0 -138.5 -1t-139.5 -1l8 61l119 62q4 114 4 551l-146 -107z" />
    <glyph glyph-name="Nacute" unicode="&#x143;" horiz-adv-x="1579" 
d="M586 55l-15 -57q-43 0 -133.5 1t-134.5 1q-41 0 -123 -1t-123 -1l9 59l159 86q20 189 39 983q-59 79 -96 106t-106 53q-12 4 -19 7l25 56l387 12q14 -38 84 -125q421 -507 708 -823h4q0 144 -12 798l-213 84l18 56q44 0 131 -1t125 -1q41 0 121.5 1t120.5 1l-16 -58
l-150 -82q0 -12 -6 -206.5t-12 -427t-8 -400.5q0 -106 -9 -207l-45 -12q-132 100 -386.5 387t-551.5 668h-4q-4 -230 -0.5 -524.5t15.5 -346.5zM696 1413l-37 62l334 272q37 -4 81 -48t69 -100v-26z" />
    <glyph glyph-name="nacute" unicode="&#x144;" horiz-adv-x="1208" 
d="M176 580v168l-102 51l18 47q24 19 175.5 55.5t191.5 34.5l-17 -150l4 -4q200 154 306 154q65 0 116.5 -20t83.5 -51.5t53.5 -75t30 -87t8.5 -90.5v-456q0 -32 41 -50l105 -51l-14 -57q-47 0 -139 1t-138 1q-39 0 -118 -1t-119 -1l10 57l82 66q10 152 10 459
q0 91 -39.5 138.5t-112.5 47.5q-74 0 -153 -64q0 -544 4 -581l100 -66l-12 -57q-80 2 -238 2q-45 0 -134 -1t-134 -1l14 57l111 66q6 41 6 459zM561 1010l-59 45l174 356q53 5 114.5 -5t100.5 -34v-33z" />
    <glyph glyph-name="Ncommaaccent" unicode="&#x145;" horiz-adv-x="1579" 
d="M586 55l-15 -57q-43 0 -133.5 1t-134.5 1q-41 0 -123 -1t-123 -1l9 59l159 86q20 189 39 983q-59 79 -96 106t-106 53q-12 4 -19 7l25 56l387 12q14 -38 84 -125q421 -507 708 -823h4q0 144 -12 798l-213 84l18 56q44 0 131 -1t125 -1q41 0 121.5 1t120.5 1l-16 -58
l-150 -82q0 -12 -6 -206.5t-12 -427t-8 -400.5q0 -106 -9 -207l-45 -12q-132 100 -386.5 387t-551.5 668h-4q-4 -230 -0.5 -524.5t15.5 -346.5zM713 -453l-41 54q110 84 110 149q0 49 -34 78l-62 37v37l148 73h32q33 -16 58 -54.5t26 -96.5q0 -78 -64.5 -156t-172.5 -121z
" />
    <glyph glyph-name="ncommaaccent" unicode="&#x146;" horiz-adv-x="1208" 
d="M176 580v168l-102 51l18 47q24 19 175.5 55.5t191.5 34.5l-17 -150l4 -4q200 154 306 154q65 0 116.5 -20t83.5 -51.5t53.5 -75t30 -87t8.5 -90.5v-456q0 -32 41 -50l105 -51l-14 -57q-47 0 -139 1t-138 1q-39 0 -118 -1t-119 -1l10 57l82 66q10 152 10 459
q0 91 -39.5 138.5t-112.5 47.5q-74 0 -153 -64q0 -544 4 -581l100 -66l-12 -57q-80 2 -238 2q-45 0 -134 -1t-134 -1l14 57l111 66q6 41 6 459zM526 -524l-41 53q111 85 111 149q0 48 -35 78l-61 37v37l147 74h33q32 -16 57.5 -55t26.5 -97q0 -78 -65 -155.5t-173 -120.5z
" />
    <glyph glyph-name="Ncaron" unicode="&#x147;" horiz-adv-x="1579" 
d="M586 55l-15 -57q-43 0 -133.5 1t-134.5 1q-41 0 -123 -1t-123 -1l9 59l159 86q20 189 39 983q-59 79 -96 106t-106 53q-12 4 -19 7l25 56l387 12q14 -38 84 -125q421 -507 708 -823h4q0 144 -12 798l-213 84l18 56q44 0 131 -1t125 -1q41 0 121.5 1t120.5 1l-16 -58
l-150 -82q0 -12 -6 -206.5t-12 -427t-8 -400.5q0 -106 -9 -207l-45 -12q-132 100 -386.5 387t-551.5 668h-4q-4 -230 -0.5 -524.5t15.5 -346.5zM827 1397h-39q-192 180 -288 268l39 53q228 -112 270 -133q31 15 127 61t147 72l33 -53q-146 -136 -289 -268z" />
    <glyph glyph-name="ncaron" unicode="&#x148;" horiz-adv-x="1208" 
d="M176 580v168l-102 51l18 47q24 19 175.5 55.5t191.5 34.5l-17 -150l4 -4q200 154 306 154q65 0 116.5 -20t83.5 -51.5t53.5 -75t30 -87t8.5 -90.5v-456q0 -32 41 -50l105 -51l-14 -57q-47 0 -139 1t-138 1q-39 0 -118 -1t-119 -1l10 57l82 66q10 152 10 459
q0 91 -39.5 138.5t-112.5 47.5q-74 0 -153 -64q0 -544 4 -581l100 -66l-12 -57q-80 2 -238 2q-45 0 -134 -1t-134 -1l14 57l111 66q6 41 6 459zM629 1030l-45 -8l-228 379l52 41l198 -193l197 195l51 -43z" />
    <glyph glyph-name="napostrophe" unicode="&#x149;" horiz-adv-x="1208" 
d="M176 580v168l-102 51l18 47q24 19 175.5 55.5t191.5 34.5l-17 -150l4 -4q200 154 306 154q65 0 116.5 -20t83.5 -51.5t53.5 -75t30 -87t8.5 -90.5v-456q0 -32 41 -50l105 -51l-14 -57q-47 0 -139 1t-138 1q-39 0 -118 -1t-119 -1l10 57l82 66q10 152 10 459
q0 91 -39.5 138.5t-112.5 47.5q-74 0 -153 -64q0 -544 4 -581l100 -66l-12 -57q-80 2 -238 2q-45 0 -134 -1t-134 -1l14 57l111 66q6 41 6 459zM92 1087l-41 54q111 85 111 149q0 48 -35 78l-61 37v37l147 74h33q32 -16 57.5 -55t26.5 -97q0 -78 -65 -156t-173 -121z" />
    <glyph glyph-name="Eng" unicode="&#x14a;" horiz-adv-x="1579" 
d="M586 55l-15 -57q-41 0 -128 2t-130 2t-128 -2t-128 -2l9 57l159 86q20 195 39 985q-34 45 -59 72.5t-54.5 45.5t-46 25.5t-59.5 22.5l33 56l377 12q14 -38 84 -125q164 -197 247.5 -296.5t209 -244t251.5 -282.5h4q0 134 -12 800l-213 82l18 56q44 0 131 -1t125 -1
q41 0 121.5 1t120.5 1l-16 -60l-150 -78q0 -14 -4 -143t-8 -265.5t-7.5 -317.5t-4.5 -312q0 -345 -68 -469q-30 -52 -68.5 -78t-70.5 -26q-35 0 -78 34.5t-55 71.5l6 35q90 17 141 65q82 68 82 170v29q-141 127 -379 397t-504 609h-4q-4 -228 -0.5 -523.5t15.5 -349.5z" />
    <glyph glyph-name="eng" unicode="&#x14b;" horiz-adv-x="1185" 
d="M176 580v165l-102 52l18 49q24 19 175.5 55.5t191.5 34.5l-17 -154l4 -2q206 156 310 156q63 0 114 -19.5t84 -51t55 -74.5t31 -88t9 -93v-407q0 -154 -58.5 -264.5t-187.5 -198.5q-129 -83 -172 -88q-32 12 -64 45t-45 76l31 39q82 -19 141 -19q27 0 41.5 15.5t24.5 85
t10 206.5q0 88 1 185t1 151.5t-2 108.5q-3 120 -40.5 170.5t-111.5 50.5q-78 0 -159 -66q0 -540 4 -583l100 -66l-14 -53q-78 2 -236 2q-45 0 -134 -1t-134 -1l14 53l111 66q6 44 6 463z" />
    <glyph glyph-name="Omacron" unicode="&#x14c;" horiz-adv-x="1638" 
d="M823 1386h2q96 0 194 -24t194.5 -78t172 -132t123.5 -197t50 -261q2 -148 -41 -271.5t-115.5 -207.5t-168.5 -142.5t-200 -85t-211 -26.5q-103 0 -205.5 26t-200 83t-172 137t-120 198t-45.5 257q0 163 63.5 301.5t168 229.5t237.5 142t274 51zM797 1303h-2
q-94 0 -169 -49t-121.5 -134t-70.5 -193t-24 -231q0 -121 29 -236t83 -209t140 -151t190 -57q86 0 153.5 40t108.5 103t68 147.5t37 164.5t10 164q0 80 -16 166.5t-51.5 171.5t-84.5 152t-122 109t-158 42zM1065 1493h-500l45 152h500z" />
    <glyph glyph-name="omacron" unicode="&#x14d;" horiz-adv-x="1126" 
d="M565 936h2q222 0 359 -132t137 -339q0 -221 -139.5 -356.5t-360.5 -135.5q-100 0 -190 33t-158.5 92.5t-108.5 150.5t-40 200t42 202t111.5 154.5t159.5 96t186 34.5zM559 852h-2q-48 0 -85 -35.5t-57 -92t-30 -118t-10 -123.5q0 -71 11.5 -142.5t34.5 -136.5t65 -106
t96 -41q42 0 74 27t50 67t29.5 94.5t15 100.5t3.5 94q0 66 -10.5 133.5t-31.5 132.5t-61 105.5t-92 40.5zM780 1122h-475l39 150h477z" />
    <glyph glyph-name="Obreve" unicode="&#x14e;" horiz-adv-x="1638" 
d="M823 1386h2q96 0 194 -24t194.5 -78t172 -132t123.5 -197t50 -261q2 -148 -41 -271.5t-115.5 -207.5t-168.5 -142.5t-200 -85t-211 -26.5q-103 0 -205.5 26t-200 83t-172 137t-120 198t-45.5 257q0 163 63.5 301.5t168 229.5t237.5 142t274 51zM797 1303h-2
q-94 0 -169 -49t-121.5 -134t-70.5 -193t-24 -231q0 -121 29 -236t83 -209t140 -151t190 -57q86 0 153.5 40t108.5 103t68 147.5t37 164.5t10 164q0 80 -16 166.5t-51.5 171.5t-84.5 152t-122 109t-158 42zM805 1462h-2q-137 0 -206 77.5t-69 209.5l74 12q9 -30 20 -51.5
t33 -44t59.5 -34t90.5 -11.5q49 0 84.5 10.5t58 31t34.5 40t24 49.5l73 10q0 -138 -70.5 -218.5t-203.5 -80.5z" />
    <glyph glyph-name="obreve" unicode="&#x14f;" horiz-adv-x="1126" 
d="M565 936h2q222 0 359 -132t137 -339q0 -221 -139.5 -356.5t-360.5 -135.5q-100 0 -190 33t-158.5 92.5t-108.5 150.5t-40 200t42 202t111.5 154.5t159.5 96t186 34.5zM559 852h-2q-48 0 -85 -35.5t-57 -92t-30 -118t-10 -123.5q0 -71 11.5 -142.5t34.5 -136.5t65 -106
t96 -41q42 0 74 27t50 67t29.5 94.5t15 100.5t3.5 94q0 66 -10.5 133.5t-31.5 132.5t-61 105.5t-92 40.5zM301 1356l78 18q13 -72 47.5 -114.5t112.5 -42.5q45 0 78 12.5t52 35t28.5 43.5t15.5 48l80 18q2 -142 -63.5 -226.5t-194.5 -84.5t-185.5 81.5t-48.5 211.5z" />
    <glyph glyph-name="Ohungarumlaut" unicode="&#x150;" horiz-adv-x="1638" 
d="M823 1386h2q96 0 194 -24t194.5 -78t172 -132t123.5 -197t50 -261q2 -148 -41 -271.5t-115.5 -207.5t-168.5 -142.5t-200 -85t-211 -26.5q-103 0 -205.5 26t-200 83t-172 137t-120 198t-45.5 257q0 163 63.5 301.5t168 229.5t237.5 142t274 51zM797 1303h-2
q-94 0 -169 -49t-121.5 -134t-70.5 -193t-24 -231q0 -121 29 -236t83 -209t140 -151t190 -57q86 0 153.5 40t108.5 103t68 147.5t37 164.5t10 164q0 80 -16 166.5t-51.5 171.5t-84.5 152t-122 109t-158 42zM940 1464l-53 58l180 264q81 -3 178 -68v-45zM590 1464l-55 58
l180 264q81 -3 178 -68v-45z" />
    <glyph glyph-name="ohungarumlaut" unicode="&#x151;" horiz-adv-x="1126" 
d="M565 936h2q222 0 359 -132t137 -339q0 -221 -139.5 -356.5t-360.5 -135.5q-100 0 -190 33t-158.5 92.5t-108.5 150.5t-40 200t42 202t111.5 154.5t159.5 96t186 34.5zM559 852h-2q-48 0 -85 -35.5t-57 -92t-30 -118t-10 -123.5q0 -71 11.5 -142.5t34.5 -136.5t65 -106
t96 -41q42 0 74 27t50 67t29.5 94.5t15 100.5t3.5 94q0 66 -10.5 133.5t-31.5 132.5t-61 105.5t-92 40.5zM387 1010l-55 39l119 368q125 4 198 -24v-41zM719 1010l-53 39l114 368q132 4 203 -24v-41z" />
    <glyph glyph-name="OE" unicode="&#x152;" horiz-adv-x="2119" 
d="M1290 1350h486q138 24 206 26l7 -8q-10 -131 -50 -332l-43 -22q-19 26 -66.5 125t-57.5 116l-361 -20v-487q207 0 522 28l9 -26q-5 -24 -54.5 -81t-70.5 -57q-10 0 -185 13t-221 14q0 -370 8 -524l379 -25q145 185 230 277l34 -23q-4 -39 -31 -178.5t-40 -171.5
q-131 6 -369 6h-332q-46 0 -205.5 -6t-185.5 -6q-399 0 -609 178t-210 487q0 152 55.5 280t162.5 223.5t276 149.5t384 54q64 0 185 -5.5t147 -4.5zM1120 113v1126q-63 37 -186 37q-108 0 -197 -34t-149 -91.5t-101.5 -135.5t-60 -164.5t-18.5 -180.5q0 -119 33.5 -225
t97.5 -190t166.5 -133.5t230.5 -49.5q49 0 101.5 11.5t82.5 29.5z" />
    <glyph glyph-name="oe" unicode="&#x153;" horiz-adv-x="1705" 
d="M559 846h-2q-55 0 -93.5 -36.5t-56.5 -99t-25 -123t-7 -130.5q0 -60 9.5 -123t30.5 -128.5t62.5 -107t97.5 -41.5q34 0 61.5 18t45 44.5t30 67t19 75t10 79t4 68.5t0.5 54q0 41 -4.5 86t-17 99.5t-32 97t-54 71.5t-78.5 29zM1407 451h-346v-43q0 -139 85.5 -225.5
t213.5 -84.5q27 0 65 17q131 102 179 121l30 -31q-17 -53 -67.5 -113.5t-85.5 -83.5q-91 -33 -228 -33q-107 0 -198 38t-144 108q-61 -71 -154 -108.5t-204 -37.5q-101 0 -189 30.5t-155.5 87.5t-106.5 147.5t-39 203.5q0 91 28.5 170.5t78.5 137.5t115.5 99.5t140 62
t152.5 20.5q108 0 198 -40.5t146 -113.5q68 73 159 113.5t183 40.5q170 0 277.5 -92.5t107.5 -272.5q0 -63 -25 -77q-23 -13 -80 -27t-137 -14zM1061 537h293q16 70 16 104q0 91 -37.5 149t-95.5 58q-59 0 -101 -51.5t-59 -120t-16 -139.5z" />
    <glyph glyph-name="Racute" unicode="&#x154;" horiz-adv-x="1368" 
d="M72 1268l22 57q79 13 251 27t325 14q282 0 412 -87.5t130 -254.5q0 -58 -20 -108t-50.5 -84.5t-73.5 -64t-81 -47t-82 -32.5l-2 -4q34 -64 122.5 -205t154.5 -237q58 -83 182 -250l-23 -25q-118 1 -201.5 22t-130.5 53t-92 85q-110 123 -331 510l4 12q156 36 234.5 110.5
t78.5 217.5q0 304 -369 293v-615q0 -411 5 -526l192 -74l-14 -57q-53 0 -161 1t-163 1q-54 0 -164 -1t-166 -1l17 57l149 72q15 270 15 526v576zM549 1464l-37 62l334 272q37 -4 80.5 -47.5t68.5 -99.5v-27z" />
    <glyph glyph-name="racute" unicode="&#x155;" horiz-adv-x="851" 
d="M68 805l14 49q28 14 158.5 46.5t191.5 35.5q8 -30 15 -89t6 -83h6q52 77 121 124.5t141 47.5q77 0 117 -43q-3 -43 -37.5 -137t-65.5 -148l-35 -10q-51 77 -88 150q-11 8 -30 8q-32 0 -68 -29.5t-55 -69.5v-534l205 -66l-15 -57q-57 0 -169 1t-169 1q-44 0 -131 -1
t-131 -1l6 57l113 66q10 261 10 627zM442 1010l-59 45l174 356q53 5 114.5 -5t100.5 -34v-33z" />
    <glyph glyph-name="Rcommaaccent" unicode="&#x156;" horiz-adv-x="1368" 
d="M72 1268l22 57q79 13 251 27t325 14q282 0 412 -87.5t130 -254.5q0 -58 -20 -108t-50.5 -84.5t-73.5 -64t-81 -47t-82 -32.5l-2 -4q34 -64 122.5 -205t154.5 -237q58 -83 182 -250l-23 -25q-118 1 -201.5 22t-130.5 53t-92 85q-110 123 -331 510l4 12q156 36 234.5 110.5
t78.5 217.5q0 304 -369 293v-615q0 -411 5 -526l192 -74l-14 -57q-53 0 -161 1t-163 1q-54 0 -164 -1t-166 -1l17 57l149 72q15 270 15 526v576zM688 -494l-41 54q111 85 111 149q0 48 -35 78l-61 37v37l147 73h33q33 -16 58 -54.5t26 -96.5q0 -78 -65 -156t-173 -121z" />
    <glyph glyph-name="rcommaaccent" unicode="&#x157;" horiz-adv-x="851" 
d="M68 805l14 49q28 14 158.5 46.5t191.5 35.5q8 -30 15 -89t6 -83h6q52 77 121 124.5t141 47.5q77 0 117 -43q-3 -43 -37.5 -137t-65.5 -148l-35 -10q-51 77 -88 150q-11 8 -30 8q-32 0 -68 -29.5t-55 -69.5v-534l205 -66l-15 -57q-57 0 -169 1t-169 1q-44 0 -131 -1
t-131 -1l6 57l113 66q10 261 10 627zM236 -494l-41 54q110 84 110 149q0 48 -35 78l-61 37v37l147 73h33q33 -16 58 -54.5t26 -96.5q0 -78 -64.5 -156t-172.5 -121z" />
    <glyph glyph-name="Rcaron" unicode="&#x158;" horiz-adv-x="1368" 
d="M72 1268l22 57q79 13 251 27t325 14q282 0 412 -87.5t130 -254.5q0 -58 -20 -108t-50.5 -84.5t-73.5 -64t-81 -47t-82 -32.5l-2 -4q34 -64 122.5 -205t154.5 -237q58 -83 182 -250l-23 -25q-118 1 -201.5 22t-130.5 53t-92 85q-110 123 -331 510l4 12q156 36 234.5 110.5
t78.5 217.5q0 304 -369 293v-615q0 -411 5 -526l192 -74l-14 -57q-53 0 -161 1t-163 1q-54 0 -164 -1t-166 -1l17 57l149 72q15 270 15 526v576zM670 1460h-39q-196 184 -289 269l39 53q228 -112 270 -133q35 17 130 62.5t145 70.5l32 -53q-253 -237 -288 -269z" />
    <glyph glyph-name="rcaron" unicode="&#x159;" horiz-adv-x="851" 
d="M68 805l14 49q28 14 158.5 46.5t191.5 35.5q8 -30 15 -89t6 -83h6q52 77 121 124.5t141 47.5q77 0 117 -43q-3 -43 -37.5 -137t-65.5 -148l-35 -10q-51 77 -88 150q-11 8 -30 8q-32 0 -68 -29.5t-55 -69.5v-534l205 -66l-15 -57q-57 0 -169 1t-169 1q-44 0 -131 -1
t-131 -1l6 57l113 66q10 261 10 627zM485 1030l-45 -8l-227 379l51 41l199 -193l196 195l52 -43z" />
    <glyph glyph-name="Sacute" unicode="&#x15a;" horiz-adv-x="1116" 
d="M582 1386h2q65 0 122 -15.5t89 -39.5q40 28 157 66l33 -15q0 -35 -26 -156.5t-50 -185.5l-37 -16q-21 32 -55.5 108.5t-46.5 118.5q-59 35 -149 35q-109 0 -180.5 -58t-71.5 -153q0 -104 120 -172q37 -20 143.5 -75.5t162.5 -84.5q147 -80 200.5 -166.5t53.5 -193.5
q0 -94 -35 -169t-89.5 -121t-126.5 -77t-142 -43t-140 -12q-131 0 -260 49t-184 90q12 56 53.5 161t62.5 132l31 17q33 -80 90 -320q15 -10 66.5 -22t116.5 -11q127 2 199.5 61t72.5 165q0 120 -129 190q-208 112 -303 168q-110 65 -163.5 146.5t-53.5 197.5q1 80 32.5 152
t89 127.5t147 88.5t198.5 33zM465 1460l-37 62l334 272q37 -4 80.5 -47.5t68.5 -99.5v-27z" />
    <glyph glyph-name="sacute" unicode="&#x15b;" horiz-adv-x="843" 
d="M424 936h2q88 0 158 -49q60 40 123 61l22 -10q-6 -74 -22 -162t-29 -123l-37 -12q-46 64 -78 160q-47 39 -121 39q-62 0 -95.5 -33.5t-33.5 -71.5q0 -59 80 -98q132 -62 246 -125q82 -44 114.5 -99t32.5 -126q0 -74 -29 -131.5t-72 -91t-101 -55t-108.5 -29t-100.5 -7.5
q-86 0 -173.5 26t-133.5 56q1 44 20 136.5t31 125.5l33 15q16 -27 39 -72.5t50.5 -104t39.5 -81.5q54 -21 108 -21q66 0 110 37t44 88q0 32 -16 54.5t-56 43.5q-79 45 -178 93q-101 49 -153 113t-52 159q0 120 88.5 207.5t247.5 87.5zM385 1010l-59 45l174 356
q53 5 114.5 -5t100.5 -34v-33z" />
    <glyph glyph-name="Scircumflex" unicode="&#x15c;" horiz-adv-x="1116" 
d="M582 1386h2q65 0 122 -15.5t89 -39.5q40 28 157 66l33 -15q0 -35 -26 -156.5t-50 -185.5l-37 -16q-21 32 -55.5 108.5t-46.5 118.5q-59 35 -149 35q-109 0 -180.5 -58t-71.5 -153q0 -104 120 -172q37 -20 143.5 -75.5t162.5 -84.5q147 -80 200.5 -166.5t53.5 -193.5
q0 -94 -35 -169t-89.5 -121t-126.5 -77t-142 -43t-140 -12q-131 0 -260 49t-184 90q12 56 53.5 161t62.5 132l31 17q33 -80 90 -320q15 -10 66.5 -22t116.5 -11q127 2 199.5 61t72.5 165q0 120 -129 190q-208 112 -303 168q-110 65 -163.5 146.5t-53.5 197.5q1 80 32.5 152
t89 127.5t147 88.5t198.5 33zM561 1774h41q99 -91 287 -267l-33 -55q-151 76 -274 133q-47 -22 -273 -133l-33 55q144 135 285 267z" />
    <glyph glyph-name="scircumflex" unicode="&#x15d;" horiz-adv-x="843" 
d="M424 936h2q88 0 158 -49q60 40 123 61l22 -10q-6 -74 -22 -162t-29 -123l-37 -12q-46 64 -78 160q-47 39 -121 39q-62 0 -95.5 -33.5t-33.5 -71.5q0 -59 80 -98q132 -62 246 -125q82 -44 114.5 -99t32.5 -126q0 -74 -29 -131.5t-72 -91t-101 -55t-108.5 -29t-100.5 -7.5
q-86 0 -173.5 26t-133.5 56q1 44 20 136.5t31 125.5l33 15q16 -27 39 -72.5t50.5 -104t39.5 -81.5q54 -21 108 -21q66 0 110 37t44 88q0 32 -16 54.5t-56 43.5q-79 45 -178 93q-101 49 -153 113t-52 159q0 120 88.5 207.5t247.5 87.5zM410 1413l43 10l229 -364l-51 -43
l-201 178l-197 -178l-51 43z" />
    <glyph glyph-name="Scedilla" unicode="&#x15e;" horiz-adv-x="1116" 
d="M623 -29l-56 -71q75 -37 105 -75t30 -89q0 -72 -66.5 -127t-195.5 -84l-28 65q137 52 137 115q0 29 -29 49.5t-110 55.5l112 151q-125 -1 -249.5 42.5t-198.5 96.5q12 55 53 160t61 133l33 17q50 -146 92 -318q13 -11 63.5 -22.5t115.5 -10.5q127 0 199.5 59.5
t72.5 164.5q0 120 -129 190q-234 128 -301 168q-110 65 -163.5 147t-53.5 197q1 80 32.5 152t89 127.5t146.5 88.5t197 33h2q65 0 122 -15t89 -38q58 32 159 64l31 -11q-4 -45 -28.5 -165t-47.5 -181l-37 -16q-21 35 -55.5 112t-46.5 117q-56 33 -147 33
q-111 0 -181.5 -56.5t-70.5 -152.5q0 -107 108 -168q30 -17 141.5 -74t172.5 -90q77 -41 129 -85.5t78.5 -91t37.5 -90t11 -95.5q0 -98 -37.5 -175t-101 -124.5t-135 -74.5t-152.5 -38z" />
    <glyph glyph-name="Scedilla" unicode="&#xf6c1;" horiz-adv-x="1116" 
d="M623 -29l-56 -71q75 -37 105 -75t30 -89q0 -72 -66.5 -127t-195.5 -84l-28 65q137 52 137 115q0 29 -29 49.5t-110 55.5l112 151q-125 -1 -249.5 42.5t-198.5 96.5q12 55 53 160t61 133l33 17q50 -146 92 -318q13 -11 63.5 -22.5t115.5 -10.5q127 0 199.5 59.5
t72.5 164.5q0 120 -129 190q-234 128 -301 168q-110 65 -163.5 147t-53.5 197q1 80 32.5 152t89 127.5t146.5 88.5t197 33h2q65 0 122 -15t89 -38q58 32 159 64l31 -11q-4 -45 -28.5 -165t-47.5 -181l-37 -16q-21 35 -55.5 112t-46.5 117q-56 33 -147 33
q-111 0 -181.5 -56.5t-70.5 -152.5q0 -107 108 -168q30 -17 141.5 -74t172.5 -90q77 -41 129 -85.5t78.5 -91t37.5 -90t11 -95.5q0 -98 -37.5 -175t-101 -124.5t-135 -74.5t-152.5 -38z" />
    <glyph glyph-name="scedilla" unicode="&#x15f;" horiz-adv-x="847" 
d="M496 -12l-68 -90q71 -34 100 -71t29 -85q0 -68 -66.5 -121.5t-193.5 -77.5l-23 58q72 30 103 53.5t31 50.5q0 29 -32 53t-108 56l129 161q-81 -6 -174.5 16.5t-154.5 59.5q0 49 19 142t32 126l35 15q42 -64 135 -260q52 -19 100 -19q71 0 116.5 35t45.5 86q0 33 -15.5 56
t-54.5 42q-11 6 -48 25.5t-72.5 37.5t-71.5 34q-203 94 -203 270q0 119 89.5 207t246.5 88h2q78 0 158 -47q54 38 120 59l25 -20q-6 -71 -21.5 -155t-29.5 -118l-41 -20q-35 49 -76 166q-44 37 -123 37q-61 0 -95 -30.5t-34 -70.5q0 -63 88 -100q135 -66 244 -125
q147 -74 147 -223q0 -70 -25.5 -125t-69 -89.5t-91.5 -55t-104 -31.5z" />
    <glyph glyph-name="scedilla" unicode="&#xf6c2;" horiz-adv-x="847" 
d="M496 -12l-68 -90q71 -34 100 -71t29 -85q0 -68 -66.5 -121.5t-193.5 -77.5l-23 58q72 30 103 53.5t31 50.5q0 29 -32 53t-108 56l129 161q-81 -6 -174.5 16.5t-154.5 59.5q0 49 19 142t32 126l35 15q42 -64 135 -260q52 -19 100 -19q71 0 116.5 35t45.5 86q0 33 -15.5 56
t-54.5 42q-11 6 -48 25.5t-72.5 37.5t-71.5 34q-203 94 -203 270q0 119 89.5 207t246.5 88h2q78 0 158 -47q54 38 120 59l25 -20q-6 -71 -21.5 -155t-29.5 -118l-41 -20q-35 49 -76 166q-44 37 -123 37q-61 0 -95 -30.5t-34 -70.5q0 -63 88 -100q135 -66 244 -125
q147 -74 147 -223q0 -70 -25.5 -125t-69 -89.5t-91.5 -55t-104 -31.5z" />
    <glyph glyph-name="Scaron" unicode="&#x160;" horiz-adv-x="1116" 
d="M582 1386h2q65 0 122 -15.5t89 -39.5q40 28 157 66l33 -15q0 -35 -26 -156.5t-50 -185.5l-37 -16q-21 32 -55.5 108.5t-46.5 118.5q-59 35 -149 35q-109 0 -180.5 -58t-71.5 -153q0 -104 120 -172q37 -20 143.5 -75.5t162.5 -84.5q147 -80 200.5 -166.5t53.5 -193.5
q0 -94 -35 -169t-89.5 -121t-126.5 -77t-142 -43t-140 -12q-131 0 -260 49t-184 90q12 56 53.5 161t62.5 132l31 17q33 -80 90 -320q15 -10 66.5 -22t116.5 -11q127 2 199.5 61t72.5 165q0 120 -129 190q-208 112 -303 168q-110 65 -163.5 146.5t-53.5 197.5q1 80 32.5 152
t89 127.5t147 88.5t198.5 33zM604 1464h-39q-196 184 -289 269l39 53q251 -123 271 -133q31 15 127 61t147 72l33 -53q-202 -189 -289 -269z" />
    <glyph glyph-name="scaron" unicode="&#x161;" horiz-adv-x="843" 
d="M424 936h2q88 0 158 -49q60 40 123 61l22 -10q-6 -74 -22 -162t-29 -123l-37 -12q-46 64 -78 160q-47 39 -121 39q-62 0 -95.5 -33.5t-33.5 -71.5q0 -59 80 -98q132 -62 246 -125q82 -44 114.5 -99t32.5 -126q0 -74 -29 -131.5t-72 -91t-101 -55t-108.5 -29t-100.5 -7.5
q-86 0 -173.5 26t-133.5 56q1 44 20 136.5t31 125.5l33 15q16 -27 39 -72.5t50.5 -104t39.5 -81.5q54 -21 108 -21q66 0 110 37t44 88q0 32 -16 54.5t-56 43.5q-79 45 -178 93q-101 49 -153 113t-52 159q0 120 88.5 207.5t247.5 87.5zM446 1030l-45 -8l-227 379l51 41
l199 -193l197 195l51 -43z" />
    <glyph glyph-name="Tcommaaccent" unicode="&#x162;" horiz-adv-x="1406" 
d="M293 1350h846q152 26 202 28l11 -12q-8 -61 -34 -195t-38 -170l-35 -14q-4 11 -49.5 117.5t-62.5 159.5l-289 -17v-495q0 -474 12 -621l240 -76l-19 -57q-62 0 -184.5 1t-183.5 1q-63 0 -191.5 -1t-193.5 -1l16 59l209 74q4 59 4 555v561l-268 17q-99 -168 -170 -258
l-37 -11q-2 61 2.5 197.5t11.5 175.5l14 10q36 0 187 -28zM596 -514l-41 53q111 85 111 150q0 48 -35 78l-62 36v37l148 74h33q32 -16 57.5 -55t26.5 -97q0 -78 -65 -155.5t-173 -120.5z" />
    <glyph glyph-name="tcommaaccent" unicode="&#x163;" horiz-adv-x="733" 
d="M436 909h301l-35 -82l-266 -32q0 -55 -1 -237.5t-1 -309.5q0 -59 21 -84q39 -31 96 -31q97 0 166 53l8 -4v-71q-35 -60 -113 -99t-172 -39q-165 0 -241 95q-25 33 -35 78t-10 135v514l-127 34l30 80h103q13 50 48.5 137t59.5 113q29 18 91 33.5t87 15.5zM317 -524l-41 53
q111 85 111 149q0 48 -35 78l-61 37v37l147 74h33q32 -16 57.5 -55t26.5 -97q0 -78 -65 -155.5t-173 -120.5z" />
    <glyph glyph-name="Tcaron" unicode="&#x164;" horiz-adv-x="1406" 
d="M293 1350h846q152 26 202 28l11 -12q-8 -61 -34 -195t-38 -170l-35 -14q-4 11 -49.5 117.5t-62.5 159.5l-289 -17v-495q0 -474 12 -621l240 -76l-19 -57q-62 0 -184.5 1t-183.5 1q-63 0 -191.5 -1t-193.5 -1l16 59l209 74q4 59 4 555v561l-268 17q-99 -168 -170 -258
l-37 -11q-2 61 2.5 197.5t11.5 175.5l14 10q36 0 187 -28zM723 1444h-39q-148 139 -289 268l39 53q251 -123 271 -133q31 15 127 61t147 72l33 -53q-146 -136 -289 -268z" />
    <glyph glyph-name="tcaron" unicode="&#x165;" horiz-adv-x="733" 
d="M436 909h301l-35 -82l-266 -32q0 -55 -1 -237.5t-1 -309.5q0 -59 21 -84q39 -31 96 -31q97 0 166 53l8 -4v-71q-35 -60 -113 -99t-172 -39q-165 0 -241 95q-25 33 -35 78t-10 135v514l-127 34l30 80h103q13 50 48.5 137t59.5 113q29 18 91 33.5t87 15.5zM590 1079l-41 54
q110 84 110 149q0 49 -34 78l-62 37v37l148 73h32q33 -16 58 -54.5t26 -96.5q0 -78 -64.5 -156t-172.5 -121z" />
    <glyph glyph-name="Tbar" unicode="&#x166;" horiz-adv-x="1406" 
d="M303 784h250v463l-268 17q-89 -153 -168 -263l-39 -16q-2 63 2.5 198.5t11.5 184.5l14 10q11 0 168 -28h865q152 26 202 28l11 -12q-8 -64 -34.5 -197.5t-37.5 -162.5l-35 -19q-1 2 -48 112.5t-64 164.5l-289 -17v-463h289l-37 -92h-252q0 -426 12 -561l240 -78l-19 -55
q-62 0 -184.5 1t-183.5 1q-63 0 -191.5 -1t-193.5 -1l16 57l209 76q4 55 4 561h-285z" />
    <glyph glyph-name="tbar" unicode="&#x167;" horiz-adv-x="741" 
d="M68 909h102q13 49 49 136.5t60 113.5q29 18 91 33.5t87 15.5l-11 -299h295l-32 -82l-263 -32v-234h207l-30 -90h-177q-2 -49 -2 -227q0 -57 23 -84q35 -31 92 -31q95 0 164 53l8 -2v-78q-36 -57 -111 -93t-169 -36q-167 0 -242 97q-25 31 -35 76.5t-10 134.5v190h-135
l28 90h107v234l-127 34z" />
    <glyph glyph-name="Utilde" unicode="&#x168;" horiz-adv-x="1536" 
d="M51 1292l21 58q48 0 145 -1t145 -1q47 0 141 1t140 1l-16 -62l-115 -69q-2 -223 -2 -754q0 -146 51 -223q90 -138 295 -138q95 0 172 37.5t125 104.5q71 105 68 276q-3 471 -13 697l-145 69l14 62q33 0 98.5 -1t98.5 -1q43 0 129.5 1t128.5 1l-8 -62l-172 -74
q-11 -66 -23 -688q-3 -202 -80 -327q-64 -109 -187 -173.5t-278 -64.5q-105 0 -197.5 22t-178 79.5t-134.5 146.5q-55 100 -55 270q0 547 -4 742zM1120 1698l56 -43q-62 -103 -122 -153t-110 -50q-8 0 -15 1t-16 4l-15 5t-18.5 8t-19 9.5t-24.5 13t-27 14.5q-78 41 -111 41
q-44 0 -143 -102l-51 45q123 213 229 213q39 0 129 -49q82 -47 113 -47q51 0 145 90z" />
    <glyph glyph-name="utilde" unicode="&#x169;" horiz-adv-x="1175" 
d="M166 774l-117 66l21 49q152 34 387 37q-15 -298 -15 -568q0 -123 31 -165q45 -52 117 -52q84 0 145 64v538q0 22 -24.5 38.5t-122.5 58.5l20 49q76 14 198 25.5t216 11.5q-6 -94 -6 -764q22 -38 66 -66t77 -39l-10 -28q-12 -15 -68 -33.5t-106 -18.5q-181 0 -227 140h-5
q-133 -144 -288 -144q-127 0 -205 72q-88 82 -88 246q0 85 2 255.5t2 227.5zM860 1315l60 -45q-120 -203 -226 -203q-9 0 -18.5 2t-17 4t-20.5 8t-20.5 9.5t-27.5 13.5t-31 16q-75 41 -106 41q-57 0 -142 -102l-51 47q120 209 225 209q44 0 127 -47q3 -2 21.5 -12
t25.5 -13.5t21.5 -10t25 -9t19.5 -2.5q55 0 135 94z" />
    <glyph glyph-name="Umacron" unicode="&#x16a;" horiz-adv-x="1536" 
d="M51 1292l21 58q48 0 145 -1t145 -1q47 0 141 1t140 1l-16 -62l-115 -69q-2 -223 -2 -754q0 -146 51 -223q90 -138 295 -138q95 0 172 37.5t125 104.5q71 105 68 276q-3 471 -13 697l-145 69l14 62q33 0 98.5 -1t98.5 -1q43 0 129.5 1t128.5 1l-8 -62l-172 -74
q-11 -66 -23 -688q-3 -202 -80 -327q-64 -109 -187 -173.5t-278 -64.5q-105 0 -197.5 22t-178 79.5t-134.5 146.5q-55 100 -55 270q0 547 -4 742zM1061 1456h-500l45 152h500z" />
    <glyph glyph-name="umacron" unicode="&#x16b;" horiz-adv-x="1175" 
d="M166 774l-117 66l21 49q152 34 387 37q-15 -298 -15 -568q0 -123 31 -165q45 -52 117 -52q84 0 145 64v538q0 22 -24.5 38.5t-122.5 58.5l20 49q76 14 198 25.5t216 11.5q-6 -94 -6 -764q22 -38 66 -66t77 -39l-10 -28q-12 -15 -68 -33.5t-106 -18.5q-181 0 -227 140h-5
q-133 -144 -288 -144q-127 0 -205 72q-88 82 -88 246q0 85 2 255.5t2 227.5zM791 1122h-476l39 150h477z" />
    <glyph glyph-name="Ubreve" unicode="&#x16c;" horiz-adv-x="1536" 
d="M51 1292l21 58q48 0 145 -1t145 -1q47 0 141 1t140 1l-16 -62l-115 -69q-2 -223 -2 -754q0 -146 51 -223q90 -138 295 -138q95 0 172 37.5t125 104.5q71 105 68 276q-3 471 -13 697l-145 69l14 62q33 0 98.5 -1t98.5 -1q43 0 129.5 1t128.5 1l-8 -62l-172 -74
q-11 -66 -23 -688q-3 -202 -80 -327q-64 -109 -187 -173.5t-278 -64.5q-105 0 -197.5 22t-178 79.5t-134.5 146.5q-55 100 -55 270q0 547 -4 742zM838 1425h-2q-137 0 -206 77.5t-69 209.5l74 12q9 -30 20 -51.5t33 -44t59.5 -34t90.5 -11.5q49 0 84.5 10.5t57.5 31.5t34 40
t24 49l74 10q0 -138 -70.5 -218.5t-203.5 -80.5z" />
    <glyph glyph-name="ubreve" unicode="&#x16d;" horiz-adv-x="1175" 
d="M166 774l-117 66l21 49q152 34 387 37q-15 -298 -15 -568q0 -123 31 -165q45 -52 117 -52q84 0 145 64v538q0 22 -24.5 38.5t-122.5 58.5l20 49q76 14 198 25.5t216 11.5q-6 -94 -6 -764q22 -38 66 -66t77 -39l-10 -28q-12 -15 -68 -33.5t-106 -18.5q-181 0 -227 140h-5
q-133 -144 -288 -144q-127 0 -205 72q-88 82 -88 246q0 85 2 255.5t2 227.5zM334 1356l78 18q13 -73 47 -115t112 -42q45 0 78 12.5t52 35t28.5 43.5t15.5 48l80 18q2 -142 -63.5 -226.5t-194.5 -84.5t-185 81.5t-48 211.5z" />
    <glyph glyph-name="Uring" unicode="&#x16e;" horiz-adv-x="1536" 
d="M51 1292l21 58q48 0 145 -1t145 -1q47 0 141 1t140 1l-16 -62l-115 -69q-2 -223 -2 -754q0 -146 51 -223q90 -138 295 -138q95 0 172 37.5t125 104.5q71 105 68 276q-3 471 -13 697l-145 69l14 62q33 0 98.5 -1t98.5 -1q43 0 129.5 1t128.5 1l-8 -62l-172 -74
q-11 -66 -23 -688q-3 -202 -80 -327q-64 -109 -187 -173.5t-278 -64.5q-105 0 -197.5 22t-178 79.5t-134.5 146.5q-55 100 -55 270q0 547 -4 742zM840 1765h2q76 0 133 -51t57 -137t-57.5 -136t-134.5 -50t-135 50t-58 136t58 137t135 51zM840 1683h-2q-40 0 -65 -26
t-25 -80t25.5 -80.5t66.5 -26.5q42 0 67 26.5t25 80.5t-25 80t-67 26z" />
    <glyph glyph-name="uring" unicode="&#x16f;" horiz-adv-x="1175" 
d="M166 774l-117 66l21 49q152 34 387 37q-15 -298 -15 -568q0 -123 31 -165q45 -52 117 -52q84 0 145 64v538q0 22 -24.5 38.5t-122.5 58.5l20 49q76 14 198 25.5t216 11.5q-6 -94 -6 -764q22 -38 66 -66t77 -39l-10 -28q-12 -15 -68 -33.5t-106 -18.5q-181 0 -227 140h-5
q-133 -144 -288 -144q-127 0 -205 72q-88 82 -88 246q0 85 2 255.5t2 227.5zM588 1319h-2q-92 0 -92 -109q0 -54 26.5 -81t67.5 -27q42 0 68 28t26 80q0 56 -25.5 82.5t-68.5 26.5zM588 1399h2q78 0 134 -52t56 -137q0 -88 -56.5 -138t-135.5 -50q-78 0 -135.5 50.5
t-57.5 137.5q0 86 58 137.5t135 51.5z" />
    <glyph glyph-name="Uhungarumlaut" unicode="&#x170;" horiz-adv-x="1536" 
d="M51 1292l21 58q48 0 145 -1t145 -1q47 0 141 1t140 1l-16 -62l-115 -69q-2 -223 -2 -754q0 -146 51 -223q90 -138 295 -138q95 0 172 37.5t125 104.5q71 105 68 276q-3 471 -13 697l-145 69l14 62q33 0 98.5 -1t98.5 -1q43 0 129.5 1t128.5 1l-8 -62l-172 -74
q-11 -66 -23 -688q-3 -202 -80 -327q-64 -109 -187 -173.5t-278 -64.5q-105 0 -197.5 22t-178 79.5t-134.5 146.5q-55 100 -55 270q0 547 -4 742zM942 1444l-53 57l180 264q83 -3 178 -67v-45zM592 1444l-55 57l180 264q83 -3 178 -67v-45z" />
    <glyph glyph-name="uhungarumlaut" unicode="&#x171;" horiz-adv-x="1175" 
d="M166 774l-117 66l21 49q152 34 387 37q-15 -298 -15 -568q0 -123 31 -165q45 -52 117 -52q84 0 145 64v538q0 22 -24.5 38.5t-122.5 58.5l20 49q76 14 198 25.5t216 11.5q-6 -94 -6 -764q22 -38 66 -66t77 -39l-10 -28q-12 -15 -68 -33.5t-106 -18.5q-181 0 -227 140h-5
q-133 -144 -288 -144q-127 0 -205 72q-88 82 -88 246q0 85 2 255.5t2 227.5zM403 1010l-55 39l119 368q126 4 199 -24v-41zM735 1010l-53 39l115 368q131 4 202 -24v-41z" />
    <glyph glyph-name="Uogonek" unicode="&#x172;" horiz-adv-x="1536" 
d="M1006 -266l22 -62q-96 -114 -237 -114q-83 0 -139 42.5t-56 118.5q0 117 172 244q-159 2 -292 61.5t-202 184.5q-55 100 -55 270q0 547 -4 742l-164 71l21 58q48 0 145 -1t145 -1q47 0 141 1t140 1l-16 -62l-115 -69q-2 -223 -2 -754q0 -146 51 -223q90 -138 295 -138
q95 0 172 37.5t125 104.5q71 105 68 276q-3 471 -13 697l-145 69l14 62q33 0 98.5 -1t98.5 -1q43 0 129.5 1t128.5 1l-8 -62l-172 -74q-11 -66 -23 -688q-3 -202 -80 -327q-52 -87 -141 -147t-205 -81q-129 -123 -129 -196q0 -32 23.5 -52t74.5 -20q63 0 134 31z" />
    <glyph glyph-name="uogonek" unicode="&#x173;" horiz-adv-x="1175" 
d="M926 -266l22 -62q-96 -114 -235 -114q-83 0 -139 42.5t-56 120.5q0 148 268 324q-22 24 -38 72h-5q-133 -144 -288 -144q-127 0 -205 72q-88 82 -88 246q0 85 2 255.5t2 227.5l-117 66l21 49q152 34 387 37q-15 -298 -15 -568q0 -123 31 -165q45 -52 117 -52q84 0 145 64
v538q0 22 -24.5 38.5t-122.5 58.5l20 49q76 14 198 25.5t216 11.5q-6 -94 -6 -764q22 -38 66 -66t77 -39l-10 -28q-12 -15 -68 -33.5t-106 -18.5q-69 0 -119 23q-160 -138 -160 -225q0 -72 101 -72q58 0 129 31z" />
    <glyph glyph-name="Wcircumflex" unicode="&#x174;" horiz-adv-x="2144" 
d="M-8 1294l20 56q48 0 146 -1t147 -1h230l-11 -56l-49 -59q76 -196 389 -918h6q24 46 48.5 97t61 128.5t64.5 135.5q-75 179 -239 526q-21 25 -53 43.5t-101 48.5l15 56q42 0 126 -1t126 -1h180l2 -9l10 -102q10 -33 121 -281h4q17 36 40 83.5t34.5 71.5t26 56.5t26.5 63.5
l6 108l4 9h90q35 0 104.5 1t104.5 1l-14 -56q-132 -57 -182 -102q-93 -151 -195 -348q144 -335 225 -520h2q134 331 330 895l-59 73l18 56h123q40 0 119.5 1t118.5 1l-17 -56q-65 -27 -102.5 -52t-73.5 -64q-41 -73 -169 -378t-257 -636q-26 -50 -68.5 -108.5t-78.5 -94.5
h-25q-6 12 -104 235t-166 369h-4q-96 -182 -197 -401q-88 -146 -158 -203h-24q-17 38 -135.5 310t-240 546.5t-173.5 380.5q-26 27 -61.5 47.5t-110.5 48.5zM1133 1782h41q102 -93 286 -266l-33 -56q-151 76 -274 133q-4 -2 -272 -133l-33 56q51 48 146.5 136.5t138.5 129.5
z" />
    <glyph glyph-name="wcircumflex" unicode="&#x175;" horiz-adv-x="1480" 
d="M496 911l-11 -59l-63 -66q35 -126 149 -462h4q8 22 32.5 88t36 97.5t28 82.5t28.5 94l-22 152q19 14 93 40t118 33l20 -6l17 -172q78 -196 178 -428h4q86 285 133 475l-74 76l17 55q20 0 68.5 -1t76.5 -1t86 1t88 1l-12 -55q-103 -68 -123 -82q-46 -96 -250 -686
q-25 -32 -65.5 -68.5t-71.5 -56.5h-12q-70 166 -230 537h-2q-87 -206 -170 -408q-23 -31 -64.5 -71t-70.5 -58h-12q-287 792 -305 823q-42 26 -125 70l16 55q38 0 125 -1t133 -1q39 0 116 1t116 1zM776 1413l43 10l230 -364l-52 -43l-200 178l-197 -178l-51 43z" />
    <glyph glyph-name="Ycircumflex" unicode="&#x176;" horiz-adv-x="1343" 
d="M2 1296l21 54q49 0 146.5 -1t145.5 -1h238l-14 -64l-58 -45q6 -13 283 -530h4q35 70 94.5 188.5t99.5 199t64 136.5l-88 59l25 56h155q39 0 117 1t117 1l-11 -60l-120 -49q-31 -12 -48 -25t-36 -40q-6 -10 -44 -70.5t-67.5 -108t-84 -145t-112.5 -207.5q-18 -45 -18 -61
q0 -428 8 -459l230 -70l-15 -57q-61 0 -181 1t-179 1q-66 0 -198 -1t-197 -1l14 55l215 72q12 162 12 444q0 25 -31 82q-13 22 -68.5 122t-122.5 218t-124 213q-45 43 -172 92zM690 1765h41q147 -135 287 -266l-33 -55q-151 76 -274 133q-47 -22 -273 -133l-32 55
q96 90 284 266z" />
    <glyph glyph-name="ycircumflex" unicode="&#x177;" horiz-adv-x="993" 
d="M676 856l20 55q24 0 71 -1t69 -1q39 0 104.5 1t93.5 1l-16 -57q-23 -13 -65.5 -38.5t-59.5 -35.5q-30 -57 -102 -229t-170.5 -414.5t-145.5 -353.5q-19 -79 -36.5 -158t-20.5 -92q-16 -8 -47 -8q-61 0 -120 36t-73 68q10 24 73 86t138 125q56 116 66 144
q-8 16 -146.5 346t-187.5 436q-8 18 -29 31t-104 57l16 57q43 0 129.5 -1t130.5 -1q37 0 110.5 1t110.5 1l-10 -57l-53 -57q19 -52 46 -122t67.5 -173.5t68.5 -175.5h4q124 373 148 460zM508 1413l43 10l229 -364l-51 -43l-201 178l-196 -178l-51 43z" />
    <glyph glyph-name="Ydieresis" unicode="&#x178;" horiz-adv-x="1343" 
d="M2 1296l21 54q49 0 146.5 -1t145.5 -1h238l-14 -64l-58 -45q6 -13 283 -530h4q35 70 94.5 188.5t99.5 199t64 136.5l-88 59l25 56h155q39 0 117 1t117 1l-11 -60l-120 -49q-31 -12 -48 -25t-36 -40q-6 -10 -44 -70.5t-67.5 -108t-84 -145t-112.5 -207.5q-18 -45 -18 -61
q0 -428 8 -459l230 -70l-15 -57q-61 0 -181 1t-179 1q-66 0 -198 -1t-197 -1l14 55l215 72q12 162 12 444q0 25 -31 82q-13 22 -68.5 122t-122.5 218t-124 213q-45 43 -172 92zM506 1751l18 4q24 -10 65 -55.5t60 -81.5l-6 -21q-12 -32 -53 -74t-72 -63l-22 -6
q-33 20 -68.5 60.5t-56.5 76.5l4 21q26 39 63.5 78.5t67.5 60.5zM950 1751l17 4q24 -10 65 -55.5t60 -81.5l-7 -21q-13 -32 -52.5 -73.5t-69.5 -63.5l-25 -6q-33 21 -70 62.5t-55 74.5l6 21q22 38 60.5 78t70.5 61z" />
    <glyph glyph-name="Zacute" unicode="&#x179;" horiz-adv-x="1357" 
d="M1288 1350v-31q-23 -37 -158.5 -241.5t-323.5 -490t-314 -481.5l2 -4q40 0 279 -3t276 -3q34 42 116 151t105 138l45 8q-1 -57 -22 -208.5t-33 -194.5q-21 0 -199.5 2.5t-449.5 5t-517 2.5l-20 23q64 96 390.5 571t444.5 649v6q-417 7 -544 4q-122 -231 -138 -256
l-51 -16q-16 176 -16 381l6 4q38 -3 78.5 -7t60.5 -6t37.5 -3t26.5 0h919zM627 1444l-37 61l334 273q36 -4 80 -48t69 -100v-26z" />
    <glyph glyph-name="zacute" unicode="&#x17a;" horiz-adv-x="958" 
d="M879 909l12 -20q-53 -99 -243 -414t-228 -381l-2 -4q57 0 163.5 5.5t139.5 10.5q45 65 92 122.5t74 78.5l37 8q-2 -41 -21 -164.5t-31 -162.5q-35 1 -195 6.5t-274 5.5h-352l-12 14q278 421 504 801v4q-125 0 -279 -10q-70 -125 -125 -191l-35 -8q-6 27 -10.5 153
t-1.5 155l6 8l166 -17h615zM463 997l-60 45l175 357q53 5 114.5 -5t100.5 -34v-33z" />
    <glyph glyph-name="Zdotaccent" unicode="&#x17b;" horiz-adv-x="1357" 
d="M1288 1350v-31q-23 -37 -158.5 -241.5t-323.5 -490t-314 -481.5l2 -4q40 0 279 -3t276 -3q34 42 116 151t105 138l45 8q-1 -57 -22 -208.5t-33 -194.5q-21 0 -199.5 2.5t-449.5 5t-517 2.5l-20 23q64 96 390.5 571t444.5 649v6q-417 7 -544 4q-122 -231 -138 -256
l-51 -16q-16 176 -16 381l6 4q38 -3 78.5 -7t60.5 -6t37.5 -3t26.5 0h919zM719 1751l18 6q24 -10 66 -57t61 -84l-6 -23q-12 -33 -53 -74.5t-76 -66.5l-22 -6q-33 22 -70 63.5t-59 77.5l6 23q27 41 66 82t69 59z" />
    <glyph glyph-name="zdotaccent" unicode="&#x17c;" horiz-adv-x="958" 
d="M879 909l12 -20q-53 -99 -243 -414t-228 -381l-2 -4q57 0 163.5 5.5t139.5 10.5q45 65 92 122.5t74 78.5l37 8q-2 -41 -21 -164.5t-31 -162.5q-35 1 -195 6.5t-274 5.5h-352l-12 14q278 421 504 801v4q-125 0 -279 -10q-70 -125 -125 -191l-35 -8q-6 27 -10.5 153
t-1.5 155l6 8l166 -17h615zM494 1362l18 4q25 -9 68.5 -57t64.5 -88l-6 -23q-16 -33 -61 -79.5t-74 -65.5l-21 -6q-34 20 -73 63.5t-62 81.5l6 22q26 42 66.5 84.5t73.5 63.5z" />
    <glyph glyph-name="Zcaron" unicode="&#x17d;" horiz-adv-x="1357" 
d="M1288 1350v-31q-23 -37 -158.5 -241.5t-323.5 -490t-314 -481.5l2 -4q40 0 279 -3t276 -3q34 42 116 151t105 138l45 8q-1 -57 -22 -208.5t-33 -194.5q-21 0 -199.5 2.5t-449.5 5t-517 2.5l-20 23q64 96 390.5 571t444.5 649v6q-417 7 -544 4q-122 -231 -138 -256
l-51 -16q-16 176 -16 381l6 4q38 -3 78.5 -7t60.5 -6t37.5 -3t26.5 0h919zM727 1444h-39q-148 139 -289 268l39 53q251 -123 271 -133q31 15 127 61t147 72l33 -53q-146 -136 -289 -268z" />
    <glyph glyph-name="zcaron" unicode="&#x17e;" horiz-adv-x="958" 
d="M879 909l12 -20q-53 -99 -243 -414t-228 -381l-2 -4q57 0 163.5 5.5t139.5 10.5q45 65 92 122.5t74 78.5l37 8q-2 -41 -21 -164.5t-31 -162.5q-35 1 -195 6.5t-274 5.5h-352l-12 14q278 421 504 801v4q-125 0 -279 -10q-70 -125 -125 -191l-35 -8q-6 27 -10.5 153
t-1.5 155l6 8l166 -17h615zM508 1030l-45 -8l-227 379l51 41l198 -193l197 195l51 -43z" />
    <glyph glyph-name="longs" unicode="&#x17f;" horiz-adv-x="626" 
d="M45 -2l6 47l121 74q6 117 6 397v291l-133 24l33 78h100q0 96 38.5 202t127.5 187q136 125 311 125q110 0 181 -51q-33 -127 -88 -217l-39 -14q-47 66 -95 188q-8 2 -18 2q-137 0 -137 -401v-398q0 -370 6 -413l135 -70l-12 -51q-42 0 -128.5 1t-135.5 1q-47 0 -140 -1
t-139 -1z" />
    <glyph glyph-name="florin" unicode="&#x192;" horiz-adv-x="1107" 
d="M168 762h166q40 191 95 300t144 187q136 119 299 119q125 0 185 -51q-10 -43 -39.5 -110t-59.5 -105l-28 -10q-45 85 -74 184q-4 4 -27 4q-123 0 -172 -317q-6 -47 -15.5 -113t-12.5 -88h276l-28 -76l-265 -24q-26 -163 -45.5 -272.5t-43.5 -200t-45.5 -145.5t-54.5 -105
t-66.5 -83.5t-86.5 -76.5q-139 -109 -260 -109q-52 0 -98 25t-64 51l84 156q20 16 33 8q40 -57 83 -86t75 -29t48.5 22t29.5 85q30 140 125 760l-189 24z" />
    <glyph glyph-name="AEacute" unicode="&#x1fc;" horiz-adv-x="2007" 
d="M999 610h-421q-9 -19 -47 -94t-83 -171t-100 -220l182 -72l-14 -55q-34 0 -116.5 1t-127.5 1q-40 0 -123.5 -1t-123.5 -1l14 57l151 72q349 651 574 1106l-236 61l21 58q57 0 168 -2t168 -2h817q18 4 87 14.5t114 13.5l6 -8q-6 -63 -25 -181.5t-31 -160.5l-38 -14
q-19 29 -71.5 134l-53.5 107l-420 -16l16 -520q204 0 533 28l12 -26q-7 -23 -56 -77t-69 -54q-7 0 -188.5 11t-229.5 11q0 -138 23 -497l372 -25q76 97 234 283l37 -17q-2 -33 -33 -181t-47 -181q-133 8 -371 8h-383q-50 0 -154 -1t-157 -1l10 57l180 72q3 31 0 483z
M629 717h368l4 532h-110q-112 -207 -262 -532zM1073 1444l-37 61l334 273q37 -4 81 -48t69 -100v-26z" />
    <glyph glyph-name="aeacute" unicode="&#x1fd;" horiz-adv-x="1515" 
d="M270 555l-28 -16q-24 7 -85 74.5t-81 119.5q104 90 256 158q101 43 180 43t143.5 -34.5t98.5 -82.5q137 117 315 117q172 0 279.5 -94t107.5 -273q0 -60 -20 -71q-24 -15 -82 -30t-137 -15h-338v-23q0 -153 77.5 -242.5t219.5 -89.5q33 0 63 19q102 82 176 118
q25 -14 27 -49q-17 -43 -66 -99.5t-80 -76.5q-32 -11 -104 -23t-129 -12q-259 0 -393 172q-134 -99 -204.5 -135.5t-127.5 -36.5q-83 0 -147.5 41t-94.5 99t-30 120q0 104 79 154q29 23 170 73.5t273 90.5v57q0 111 -50 162t-120 51q-55 0 -103 -24q-10 -122 -45 -242z
M881 537h284q15 54 15 94q0 104 -36.5 160.5t-94.5 56.5q-53 0 -93 -54t-57.5 -122.5t-17.5 -134.5zM475 131h2q31 0 80 24.5t78 55.5q-23 42 -36.5 121t-10.5 139q-124 -42 -174 -78q-37 -25 -51.5 -52t-14.5 -71q0 -72 39.5 -105.5t87.5 -33.5zM721 1010l-59 45l174 356
q53 5 114.5 -5t100.5 -34v-33z" />
    <glyph glyph-name="Oslashacute" unicode="&#x1fe;" horiz-adv-x="1640" 
d="M1233 1272l121 155l51 -47l-113 -151q120 -90 193 -225.5t74 -311.5q1 -149 -42 -273t-115.5 -207t-169 -141t-199.5 -84t-210 -26q-247 0 -434 121l-137 -178l-55 53l131 170q-114 91 -181 224.5t-67 305.5q0 132 41.5 249t113.5 203.5t166 149.5t202.5 95t219.5 32
q223 0 410 -114zM485 311l621 809q-57 91 -133 137t-180 46q-124 0 -215.5 -89t-135 -224t-43.5 -292q0 -243 82 -387h4zM1143 1049l-623 -813q54 -91 138.5 -142t191.5 -51q85 0 154 40.5t111.5 104.5t71.5 148t40.5 164.5t11.5 161.5q0 101 -23 205.5t-69 181.5h-4z
M696 1456l-37 62l334 272q37 -4 81 -48t69 -100v-26z" />
    <glyph glyph-name="oslashacute" unicode="&#x1ff;" horiz-adv-x="1134" 
d="M840 870l90 119l57 -45l-86 -115q79 -61 123.5 -159t44.5 -205q0 -222 -140 -357t-362 -135q-162 0 -280 72l-99 -131l-53 49l90 123q-73 62 -116 157t-43 206q0 109 42.5 202t112.5 154.5t160.5 96t187.5 34.5q155 0 271 -66zM385 272l334 459q-49 121 -152 121
q-45 0 -82 -24.5t-59.5 -63.5t-38 -91t-21.5 -103t-6 -103q0 -122 23 -193zM750 647l-336 -457q23 -58 67.5 -95.5t98.5 -37.5q48 0 85 28.5t57 70.5t32.5 99t16 102.5t3.5 93.5q0 96 -20 196h-4zM510 1010l-59 45l174 356q53 5 114.5 -5t100.5 -34v-33z" />
    <glyph glyph-name="Scommaaccent" unicode="&#x218;" horiz-adv-x="1116" 
d="M582 1386h2q65 0 122 -15.5t89 -39.5q40 28 157 66l33 -15q0 -35 -26 -156.5t-50 -185.5l-37 -16q-21 32 -55.5 108.5t-46.5 118.5q-59 35 -149 35q-109 0 -180.5 -58t-71.5 -153q0 -104 120 -172q37 -20 143.5 -75.5t162.5 -84.5q147 -80 200.5 -166.5t53.5 -193.5
q0 -94 -35 -169t-89.5 -121t-126.5 -77t-142 -43t-140 -12q-131 0 -260 49t-184 90q12 56 53.5 161t62.5 132l31 17q33 -80 90 -320q15 -10 66.5 -22t116.5 -11q127 2 199.5 61t72.5 165q0 120 -129 190q-208 112 -303 168q-110 65 -163.5 146.5t-53.5 197.5q1 80 32.5 152
t89 127.5t147 88.5t198.5 33zM461 -535l-41 54q110 84 110 149q0 49 -34 78l-62 37v37l148 74h32q32 -16 57.5 -55t26.5 -97q0 -78 -64.5 -156t-172.5 -121z" />
    <glyph glyph-name="scommaaccent" unicode="&#x219;" horiz-adv-x="843" 
d="M424 936h2q88 0 158 -49q60 40 123 61l22 -10q-6 -74 -22 -162t-29 -123l-37 -12q-46 64 -78 160q-47 39 -121 39q-62 0 -95.5 -33.5t-33.5 -71.5q0 -59 80 -98q132 -62 246 -125q82 -44 114.5 -99t32.5 -126q0 -74 -29 -131.5t-72 -91t-101 -55t-108.5 -29t-100.5 -7.5
q-86 0 -173.5 26t-133.5 56q1 44 20 136.5t31 125.5l33 15q16 -27 39 -72.5t50.5 -104t39.5 -81.5q54 -21 108 -21q66 0 110 37t44 88q0 32 -16 54.5t-56 43.5q-79 45 -178 93q-101 49 -153 113t-52 159q0 120 88.5 207.5t247.5 87.5zM303 -494l-41 54q111 85 111 149
q0 48 -35 78l-62 37v37l148 73h33q33 -16 58 -54.5t26 -96.5q0 -78 -65 -156t-173 -121z" />
    <glyph glyph-name="uni021A" unicode="&#x21a;" horiz-adv-x="1406" 
d="M293 1350h846q152 26 202 28l11 -12q-8 -61 -34 -195t-38 -170l-35 -14q-4 11 -49.5 117.5t-62.5 159.5l-289 -17v-495q0 -474 12 -621l240 -76l-19 -57q-62 0 -184.5 1t-183.5 1q-63 0 -191.5 -1t-193.5 -1l16 59l209 74q4 59 4 555v561l-268 17q-99 -168 -170 -258
l-37 -11q-2 61 2.5 197.5t11.5 175.5l14 10q36 0 187 -28zM596 -514l-41 53q111 85 111 150q0 48 -35 78l-62 36v37l148 74h33q32 -16 57.5 -55t26.5 -97q0 -78 -65 -155.5t-173 -120.5z" />
    <glyph glyph-name="uni021B" unicode="&#x21b;" horiz-adv-x="733" 
d="M436 909h301l-35 -82l-266 -32q0 -55 -1 -237.5t-1 -309.5q0 -59 21 -84q39 -31 96 -31q97 0 166 53l8 -4v-71q-35 -60 -113 -99t-172 -39q-165 0 -241 95q-25 33 -35 78t-10 135v514l-127 34l30 80h103q13 50 48.5 137t59.5 113q29 18 91 33.5t87 15.5zM317 -524l-41 53
q111 85 111 149q0 48 -35 78l-61 37v37l147 74h33q32 -16 57.5 -55t26.5 -97q0 -78 -65 -155.5t-173 -120.5z" />
    <glyph glyph-name="circumflex" unicode="&#x2c6;" 
d="M373 1413l43 10l229 -364l-51 -43l-201 178l-196 -178l-52 43z" />
    <glyph glyph-name="caron" unicode="&#x2c7;" 
d="M420 1030l-45 -8l-228 379l52 41l198 -193l197 195l51 -43z" />
    <glyph glyph-name="uni02C9" unicode="&#x2c9;" 
d="M612 1122h-475l39 150h477z" />
    <glyph glyph-name="breve" unicode="&#x2d8;" 
d="M152 1356l77 18q13 -72 47.5 -114.5t112.5 -42.5q45 0 78 12.5t52 35t28.5 43.5t15.5 48l80 18q2 -142 -63.5 -226.5t-194.5 -84.5t-185 81.5t-48 211.5z" />
    <glyph glyph-name="dotaccent" unicode="&#x2d9;" 
d="M393 1362l19 4q25 -9 68.5 -57t64.5 -88l-6 -23q-16 -33 -61 -79t-75 -66l-20 -6q-34 20 -73 63.5t-62 81.5l6 22q26 42 66 85t73 63z" />
    <glyph glyph-name="ring" unicode="&#x2da;" 
d="M395 1319h-2q-92 0 -92 -109q0 -54 26.5 -81t67.5 -27q42 0 68 28t26 80q0 56 -25.5 82.5t-68.5 26.5zM395 1399h2q78 0 134.5 -52t56.5 -137q0 -88 -57 -138t-136 -50q-78 0 -135 50.5t-57 137.5q0 86 57.5 137.5t134.5 51.5z" />
    <glyph glyph-name="ogonek" unicode="&#x2db;" 
d="M598 -266l25 -62q-96 -114 -238 -114q-83 0 -139 42.5t-56 120.5q0 71 58.5 146.5t163.5 144.5h102q-75 -70 -110 -130t-35 -99q0 -38 28.5 -59t75.5 -21q54 0 125 31z" />
    <glyph glyph-name="tilde" unicode="&#x2dc;" 
d="M668 1315l59 -45q-120 -203 -225 -203q-9 0 -18.5 2t-17 4t-20.5 8t-20.5 9.5t-27.5 13.5t-31 16q-75 41 -107 41q-56 0 -141 -102l-51 47q120 209 225 209q44 0 127 -47q5 -3 22 -12.5t25 -13.5t21.5 -10t24 -8.5t19.5 -2.5q56 0 136 94z" />
    <glyph glyph-name="hungarumlaut" unicode="&#x2dd;" 
d="M231 1010l-55 39l119 368q126 4 199 -24v-41zM563 1010l-53 39l115 368q131 4 202 -24v-41z" />
    <glyph glyph-name="uni037E" unicode="&#x37e;" horiz-adv-x="522" 
d="M256 920l23 8q29 -13 81.5 -71.5t75.5 -102.5l-8 -25q-18 -41 -71 -96.5t-89 -75.5l-24 -6q-41 22 -88 75t-68 97l4 22q34 52 81 102t83 73zM76 -311l-47 63q176 180 176 320q0 48 -21 86l-112 57v35l202 123h45q37 -14 71.5 -73.5t37.5 -147.5q3 -118 -92 -244
t-260 -219z" />
    <glyph glyph-name="tonos" unicode="&#x384;" 
d="M379 1012l-66 20q7 34 33 169t41 208q49 5 110 -5.5t99 -33.5v-33z" />
    <glyph glyph-name="dieresistonos" unicode="&#x385;" 
d="M102 1343l17 3q23 -11 61 -53t53 -74l-4 -21q-11 -31 -49.5 -71.5t-66.5 -57.5l-21 -4q-31 17 -64 54t-55 73l4 20q53 78 125 131zM352 1024l-63 20l43 369q58 3 119 -10t92 -31v-33zM682 1343l14 3q23 -10 61 -52t56 -75l-6 -21q-11 -31 -49.5 -71.5t-67.5 -57.5l-18 -4
q-30 18 -65.5 56.5t-53.5 70.5l4 20q22 35 58 72.5t67 58.5z" />
    <glyph glyph-name="Alphatonos" unicode="&#x386;" horiz-adv-x="1499" 
d="M596 1298l238 101l8 -13q0 -46 5.5 -71t24.5 -76q17 -50 392 -1001q29 -76 63.5 -105t151.5 -80l-19 -55q-52 0 -158 1t-159 1q-40 0 -119.5 -1t-118.5 -1l19 53l69 68q-5 18 -23 66t-48.5 130t-51.5 138q-214 -12 -440 -9q-65 -171 -108 -307l161 -82l-16 -57
q-37 0 -111.5 1t-111.5 1t-112.5 -1t-113.5 -1l17 57l141 84q39 72 174 393.5t264 645.5q8 25 2 53zM664 1071h-5q-99 -261 -184 -500q33 0 180.5 -4t180.5 -4q-146 423 -172 508zM233 1028l-65 21q8 43 23 119.5t27.5 139l23.5 117.5q49 5 110 -5.5t99 -33.5v-32z" />
    <glyph glyph-name="anoteleia" unicode="&#x387;" 
d="M190 1343l19 5q23 -10 62.5 -54.5t58.5 -79.5l-6 -22q-12 -32 -51 -73t-70 -62l-23 -4q-31 19 -66.5 58.5t-56.5 74.5l4 22q25 38 62 77t67 58zM596 1343l18 5q23 -10 62.5 -54.5t58.5 -79.5l-6 -22q-14 -31 -53 -73t-68 -62l-22 -4q-31 19 -68 60t-55 73l4 22
q27 39 63.5 78t65.5 57z" />
    <glyph glyph-name="Epsilontonos" unicode="&#x388;" horiz-adv-x="1234" 
d="M66 1296l18 56q49 0 147 -1t146 -1h508q128 22 219 26l6 -8q-1 -39 -19.5 -161.5t-29.5 -164.5l-39 -14q-16 26 -71.5 124.5t-57.5 102.5l-361 -20v-487q206 0 521 28l12 -24q-5 -21 -56 -80.5t-71 -59.5q-10 0 -185 13t-221 14q0 -349 9 -524l362 -23q176 223 236 279
l41 -19q-2 -30 -34 -176.5t-46 -179.5q-129 6 -359 6h-368q-48 0 -160.5 -2t-165.5 -2l16 55l166 78q13 50 13 574v520zM-215 1028l-66 21q8 43 23 119.5t27.5 139l23.5 117.5q49 5 110 -5.5t99 -33.5v-32z" />
    <glyph glyph-name="Etatonos" unicode="&#x389;" horiz-adv-x="1638" 
d="M90 1292l19 58q47 0 140.5 -1t139.5 -1q44 0 130.5 1t129.5 1l-18 -64l-99 -69v-441h574v445l-98 69l14 60q39 0 116.5 -1t116.5 -1q52 0 157 1t157 1l-15 -60l-157 -73v-519q0 -185 4 -366.5t10 -200.5l176 -76l-14 -57q-51 0 -154.5 1t-154.5 1q-45 0 -137 -1t-138 -1
l19 59l96 72q3 83 3.5 170.5t-0.5 206t-1 164.5q-80 -15 -244 -15h-330q0 -423 3 -524l122 -76l-16 -57q-44 0 -132 1t-132 1q-51 0 -154.5 -1t-154.5 -1l16 57l145 74q13 292 13 584v506zM-182 1028l-66 21q8 43 23 119.5t27.5 139l23.5 117.5q49 5 110 -5.5t99 -33.5v-32z
" />
    <glyph glyph-name="Iotatonos" unicode="&#x38a;" horiz-adv-x="776" 
d="M92 1292l19 58q47 0 138.5 -1t137.5 -1q50 0 150.5 1t150.5 1l-16 -58l-140 -71v-519q0 -510 11 -573l178 -74l-16 -57q-53 0 -161 2t-163 2q-53 0 -160 -2t-160 -2l17 57l151 76q13 37 13 571v519zM-180 1028l-66 21q8 43 23 119.5t27.5 139l23.5 117.5q49 5 110 -5.5
t99 -33.5v-32z" />
    <glyph glyph-name="Omicrontonos" unicode="&#x38c;" horiz-adv-x="1638" 
d="M823 1386h2q96 0 194 -24t194.5 -78t172 -132t123.5 -197t50 -261q2 -148 -41 -271.5t-115.5 -207.5t-168.5 -142.5t-200 -85t-211 -26.5q-103 0 -205.5 26t-200 83t-172 137t-120 198t-45.5 257q0 163 63.5 301.5t168 229.5t237.5 142t274 51zM797 1303h-2
q-94 0 -169 -49t-121.5 -134t-70.5 -193t-24 -231q0 -121 29 -236t83 -209t140 -151t190 -57q86 0 153.5 40t108.5 103t68 147.5t37 164.5t10 164q0 80 -16 166.5t-51.5 171.5t-84.5 152t-122 109t-158 42zM-59 1028l-66 21q8 43 23 119.5t27.5 139l23.5 117.5
q49 5 110 -5.5t99 -33.5v-32z" />
    <glyph glyph-name="Upsilontonos" unicode="&#x38e;" horiz-adv-x="1445" 
d="M340 55l211 78q10 153 10 356q0 120 -15.5 224t-51 196t-89 157t-133.5 102.5t-180 37.5q-46 0 -92 -6l2 60q66 49 164 78.5t180 29.5q76 0 136.5 -23t101 -59t70 -94t46 -114.5t25.5 -134.5t11.5 -140t2.5 -144l39 -2q8 206 71 366.5t175.5 252.5t259.5 92
q33 0 82.5 -39.5t73.5 -83.5l-4 -41q-16 2 -47 2q-158 0 -280.5 -90t-190.5 -254t-68 -375q0 -260 6 -358l221 -74l-14 -57q-58 0 -174.5 1t-175.5 1q-63 0 -191 -1t-192 -1zM-254 1028l-65 21q11 54 35 180.5t38 195.5q49 5 110 -5.5t99 -33.5v-32z" />
    <glyph glyph-name="Omegatonos" unicode="&#x38f;" horiz-adv-x="1759" 
d="M758 0h-631q-39 221 -57 375l47 4q134 -168 137 -172h348l-2 20q-83 31 -153 78.5t-128.5 114t-92 157.5t-33.5 197q0 181 91 321t249.5 215.5t359.5 75.5q198 0 352.5 -75.5t241 -212.5t86.5 -314q0 -101 -33 -189.5t-92.5 -156.5t-129.5 -118.5t-157 -92.5v-20h344
q10 12 56 71t79 99l50 2q-39 -260 -62 -379h-629l-16 14q14 85 41 201q236 179 236 569q-1 243 -104.5 379.5t-272.5 136.5q-170 0 -274.5 -147t-104.5 -391q0 -170 58 -312t173 -235q10 -51 33 -201zM0 1028l-66 21q8 43 23 119.5t27.5 139l23.5 117.5q49 5 110 -5.5
t99 -33.5v-32z" />
    <glyph glyph-name="iotadieresistonos" unicode="&#x390;" horiz-adv-x="600" 
d="M139 106v791q101 24 281 39v-776q21 -38 172 -56l-27 -65q-30 -30 -88.5 -48t-132.5 -18q-98 0 -151.5 37t-53.5 96zM8 1343l17 3q23 -11 61 -53t53 -74l-4 -21q-11 -31 -49.5 -71.5t-67.5 -57.5l-20 -4q-31 17 -64 54t-55 73l4 20q53 78 125 131zM258 1024l-63 20
l43 369q58 3 119 -10t92 -31v-33zM588 1343l14 3q23 -10 61 -52t56 -75l-6 -21q-11 -31 -49.5 -71.5t-67.5 -57.5l-18 -4q-30 18 -65.5 56.5t-53.5 70.5l4 20q22 35 58 72.5t67 58.5z" />
    <glyph glyph-name="Alpha" unicode="&#x391;" horiz-adv-x="1499" 
d="M596 1298l238 101l8 -13q0 -46 5.5 -71t24.5 -76q17 -50 392 -1001q29 -76 63.5 -105t151.5 -80l-19 -55q-52 0 -158 1t-159 1q-40 0 -119.5 -1t-118.5 -1l19 53l69 68q-5 18 -23 66t-48.5 130t-51.5 138q-214 -12 -440 -9q-65 -171 -108 -307l161 -82l-16 -57
q-37 0 -111.5 1t-111.5 1t-112.5 -1t-113.5 -1l17 57l141 84q39 72 174 393.5t264 645.5q8 25 2 53zM664 1071h-5q-99 -261 -184 -500q33 0 180.5 -4t180.5 -4q-146 423 -172 508z" />
    <glyph glyph-name="Beta" unicode="&#x392;" horiz-adv-x="1349" 
d="M84 1286l16 53q69 7 250 17t275 10q284 0 424.5 -73.5t140.5 -233.5q0 -72 -30 -130t-82 -95t-112.5 -59.5t-129.5 -31.5v-14q231 -20 334.5 -104t103.5 -232q0 -83 -31.5 -148.5t-89 -108t-126 -72t-154.5 -44t-161 -20.5t-159 -6q-226 0 -475 6l14 57l137 74
q13 114 13 459v645zM532 1280v-522q71 1 129 14t110.5 42t82 84.5t29.5 133.5q0 145 -111 211q-69 37 -194 37h-46zM950 395v2q0 48 -10.5 87t-39 75.5t-74.5 61t-120.5 38.5t-173.5 13v-31q0 -383 9 -565q132 0 213.5 30t130.5 91q65 77 65 198z" />
    <glyph glyph-name="Gamma" unicode="&#x393;" horiz-adv-x="1157" 
d="M72 1296l22 56q46 0 139.5 -1t139.5 -1h508q28 6 103 15.5t110 10.5l4 -8q-3 -49 -26.5 -171t-37.5 -157l-41 -20q-20 32 -39 71t-42 91t-33 73l-347 -16v-559q0 -495 9 -551l233 -74l-22 -57q-58 0 -177.5 1t-179.5 1q-52 0 -156.5 -1t-156.5 -1l14 57l137 74
q9 30 9 569v529z" />
    <glyph glyph-name="uni0394" unicode="&#x394;" horiz-adv-x="1443" 
d="M608 1294l203 105l10 -6q-3 -65 23 -133q37 -95 254.5 -602t247.5 -570l12 -94q-42 0 -118 3t-110 3h-817q-55 0 -136 -3t-95 -3l20 100q53 121 227.5 509t266.5 603q19 44 16 64zM633 115h2q220 0 373 18q-132 344 -240.5 621.5t-122.5 314.5h-6q-139 -347 -367 -934
q146 -20 361 -20z" />
    <glyph glyph-name="Epsilon" unicode="&#x395;" horiz-adv-x="1234" 
d="M66 1296l18 56q49 0 147 -1t146 -1h508q128 22 219 26l6 -8q-1 -39 -19.5 -161.5t-29.5 -164.5l-39 -14q-16 26 -71.5 124.5t-57.5 102.5l-361 -20v-487q206 0 521 28l12 -24q-5 -21 -56 -80.5t-71 -59.5q-10 0 -185 13t-221 14q0 -349 9 -524l362 -23q176 223 236 279
l41 -19q-2 -30 -34 -176.5t-46 -179.5q-129 6 -359 6h-368q-48 0 -160.5 -2t-165.5 -2l16 55l166 78q13 50 13 574v520z" />
    <glyph glyph-name="Zeta" unicode="&#x396;" horiz-adv-x="1357" 
d="M1288 1350v-31q-23 -37 -158.5 -241.5t-323.5 -490t-314 -481.5l2 -4q40 0 279 -3t276 -3q34 42 116 151t105 138l45 8q-1 -57 -22 -208.5t-33 -194.5q-21 0 -199.5 2.5t-449.5 5t-517 2.5l-20 23q64 96 390.5 571t444.5 649v6q-417 7 -544 4q-122 -231 -138 -256
l-51 -16q-16 176 -16 381l6 4q38 -3 78.5 -7t60.5 -6t37.5 -3t26.5 0h919z" />
    <glyph glyph-name="Eta" unicode="&#x397;" horiz-adv-x="1638" 
d="M90 1292l19 58q47 0 140.5 -1t139.5 -1q44 0 130.5 1t129.5 1l-18 -64l-99 -69v-441h574v445l-98 69l14 60q39 0 116.5 -1t116.5 -1q52 0 157 1t157 1l-15 -60l-157 -73v-519q0 -185 4 -366.5t10 -200.5l176 -76l-14 -57q-51 0 -154.5 1t-154.5 1q-45 0 -137 -1t-138 -1
l19 59l96 72q3 83 3.5 170.5t-0.5 206t-1 164.5q-80 -15 -244 -15h-330q0 -423 3 -524l122 -76l-16 -57q-44 0 -132 1t-132 1q-51 0 -154.5 -1t-154.5 -1l16 57l145 74q13 292 13 584v506z" />
    <glyph glyph-name="Theta" unicode="&#x398;" horiz-adv-x="1632" 
d="M711 801h227l98 123l45 6l-47 -469l-45 -4l-71 129h-234l-92 -125l-45 -4l47 467l45 6zM819 1386h2q79 0 160.5 -17.5t163.5 -52t154 -92t128 -131.5t89.5 -177t35.5 -222q2 -148 -40.5 -271.5t-114.5 -207.5t-168 -142.5t-199.5 -85t-210.5 -26.5q-102 0 -204.5 26.5
t-199 83.5t-171 137.5t-119.5 198.5t-45 257q0 162 63.5 300t168 229t236.5 142t271 51zM793 1303h-2q-123 0 -213 -85t-132.5 -220t-42.5 -300q0 -124 29 -240t83 -209.5t140.5 -149.5t192.5 -56q84 0 151.5 39.5t109.5 101.5t70 145.5t39 165.5t11 167q0 103 -27.5 212
t-79 206.5t-138 160t-191.5 62.5z" />
    <glyph glyph-name="Iota" unicode="&#x399;" horiz-adv-x="776" 
d="M92 1292l19 58q47 0 138.5 -1t137.5 -1q50 0 150.5 1t150.5 1l-16 -58l-140 -71v-519q0 -510 11 -573l178 -74l-16 -57q-53 0 -161 2t-163 2q-53 0 -160 -2t-160 -2l17 57l151 76q13 37 13 571v519z" />
    <glyph glyph-name="Kappa" unicode="&#x39a;" horiz-adv-x="1474" 
d="M1456 1350l-16 -56q-53 -25 -242 -82q-42 -17 -61 -36q-136 -140 -310 -357v-6q46 -63 112 -149t178 -229t136 -173q181 -226 209 -276l-10 -17q-106 1 -179 11.5t-128 36t-91 54.5t-85 81q-75 77 -182 212.5t-209 286.5v13q383 455 460 585q0 79 9 105q108 3 179 2
t146 -3.5t84 -2.5zM88 1294l18 58q45 0 135.5 -1t135.5 -1q51 0 152 1t151 1l-16 -58l-132 -73v-519q0 -510 11 -573l176 -74l-21 -57q-53 0 -159.5 1t-161.5 1q-51 0 -155 -1t-156 -1l16 57l147 74q13 47 13 573v521z" />
    <glyph glyph-name="Lambda" unicode="&#x39b;" horiz-adv-x="1499" 
d="M596 1296l238 103l8 -13q0 -32 3.5 -56t7.5 -36l19 -57q30 -81 392 -999q29 -75 64 -105t151 -80l-15 -55q-53 0 -160.5 1t-160.5 1q-41 0 -122 -1t-122 -1l19 53l71 68q-5 17 -48 141t-124.5 358.5t-150.5 436.5h-7q-306 -828 -335 -918l172 -82l-19 -57q-39 0 -117 1
t-116 1q-37 0 -112 -1t-112 -1l15 57l139 84q39 74 175 394t265 643q9 26 2 53z" />
    <glyph glyph-name="Mu" unicode="&#x39c;" horiz-adv-x="1931" 
d="M127 1292l25 56l444 4q0 -69 4 -78q20 -50 68 -151t148 -306.5t167 -345.5h4q6 12 75.5 154.5t146 304t153.5 330.5q6 15 6 92l475 -4l-12 -58l-172 -69q2 -162 22 -599.5t29 -490.5l186 -76l-14 -57q-50 0 -152 1t-153 1q-52 0 -156 -1t-157 -1l16 57l123 76
q-2 191 -6.5 543.5t-5.5 433.5h-9q-29 -69 -108.5 -249.5t-171.5 -397.5t-193 -465l-49 -14q-50 121 -186.5 446.5t-272.5 652.5h-4q-18 -208 -36.5 -529.5t-20.5 -416.5l182 -82l-12 -55q-40 0 -121.5 1t-122.5 1q-39 0 -117.5 -1t-117.5 -1l14 55l145 80q23 89 134 1030
q-25 54 -48.5 68.5t-148.5 60.5z" />
    <glyph glyph-name="Nu" unicode="&#x39d;" horiz-adv-x="1579" 
d="M586 55l-15 -57q-43 0 -133.5 1t-134.5 1q-41 0 -123 -1t-123 -1l9 59l159 86q20 189 39 983q-59 79 -96 106t-106 53q-12 4 -19 7l25 56l387 12q14 -38 84 -125q421 -507 708 -823h4q0 144 -12 798l-213 84l18 56q44 0 131 -1t125 -1q41 0 121.5 1t120.5 1l-16 -58
l-150 -82q0 -12 -6 -206.5t-12 -427t-8 -400.5q0 -106 -9 -207l-45 -12q-132 100 -386.5 387t-551.5 668h-4q-4 -230 -0.5 -524.5t15.5 -346.5z" />
    <glyph glyph-name="Xi" unicode="&#x39e;" horiz-adv-x="1339" 
d="M236 217h831q30 37 86.5 99.5t71.5 80.5l37 9q-17 -137 -72 -406h-1100q-3 47 -12 395l33 17q107 -165 125 -195zM418 809h471q18 17 61 60.5t66 64.5l35 4q-12 -225 -37 -465l-33 -4q-74 93 -102 133h-467q-21 -21 -62.5 -65.5t-64.5 -67.5l-31 -6q23 328 41 471l33 4
q9 -11 90 -129zM1026 1147h-725q-84 -117 -131 -166l-33 -6q0 294 15 399q42 -2 165 -24h709q88 16 182 24q-28 -283 -49 -377l-37 -16q-24 33 -96 166z" />
    <glyph glyph-name="Omicron" unicode="&#x39f;" horiz-adv-x="1638" 
d="M823 1386h2q96 0 194 -24t194.5 -78t172 -132t123.5 -197t50 -261q2 -148 -41 -271.5t-115.5 -207.5t-168.5 -142.5t-200 -85t-211 -26.5q-103 0 -205.5 26t-200 83t-172 137t-120 198t-45.5 257q0 163 63.5 301.5t168 229.5t237.5 142t274 51zM797 1303h-2
q-94 0 -169 -49t-121.5 -134t-70.5 -193t-24 -231q0 -121 29 -236t83 -209t140 -151t190 -57q86 0 153.5 40t108.5 103t68 147.5t37 164.5t10 164q0 80 -16 166.5t-51.5 171.5t-84.5 152t-122 109t-158 42z" />
    <glyph glyph-name="Pi" unicode="&#x3a0;" horiz-adv-x="1607" 
d="M242 713v508l-162 71l18 58q47 0 146 -1t145 -1h834q52 0 156.5 1t156.5 1l-16 -60l-156 -71v-512q0 -183 4 -368t10 -206l176 -80l-20 -55q-50 0 -151.5 1t-151.5 1q-45 0 -137 -1t-138 -1l21 59l94 70q2 63 2 573v531q-99 18 -282 18q-149 0 -259 -18v-535
q0 -467 3 -565l120 -74l-20 -59q-43 0 -129 1t-129 1q-53 0 -158 -1t-158 -1l19 57l149 74q13 292 13 584z" />
    <glyph glyph-name="Rho" unicode="&#x3a1;" horiz-adv-x="1298" 
d="M74 1278l18 57q35 3 113.5 9t114 9t92.5 6.5t100.5 5t85.5 1.5q306 0 451 -88q178 -109 178 -328q0 -96 -34.5 -172t-88 -122t-122.5 -76.5t-132 -42t-123 -11.5q-55 0 -92 13l-19 63q144 13 221.5 104t77.5 238q0 321 -380 328v-543q0 -214 3 -352t6 -188l3 -50l241 -84
l-14 -57q-60 0 -189 1t-194 1q-51 0 -157.5 -1t-157.5 -1l16 55l144 80q8 35 8 592v500z" />
    <glyph glyph-name="Sigma" unicode="&#x3a3;" horiz-adv-x="1318" 
d="M117 1350h850q29 8 94.5 16t107.5 8l5 -8q-18 -254 -41 -354l-31 -11q-16 25 -43 76.5t-55 107.5l-35 70l-490 -20v-4l346 -469l-10 -33l-448 -508v-4h667q19 21 64 71t74 81t51 51l34 -25q-16 -98 -42 -219t-44 -176h-1103q24 87 57 141l457 484v4l-492 678z" />
    <glyph glyph-name="Tau" unicode="&#x3a4;" horiz-adv-x="1406" 
d="M293 1350h846q152 26 202 28l11 -12q-8 -61 -34 -195t-38 -170l-35 -14q-4 11 -49.5 117.5t-62.5 159.5l-289 -17v-495q0 -474 12 -621l240 -76l-19 -57q-62 0 -184.5 1t-183.5 1q-63 0 -191.5 -1t-193.5 -1l16 59l209 74q4 59 4 555v561l-268 17q-99 -168 -170 -258
l-37 -11q-2 61 2.5 197.5t11.5 175.5l14 10q36 0 187 -28z" />
    <glyph glyph-name="Upsilon" unicode="&#x3a5;" horiz-adv-x="1445" 
d="M340 55l211 78q10 153 10 356q0 120 -15.5 224t-51 196t-89 157t-133.5 102.5t-180 37.5q-46 0 -92 -6l2 60q66 49 164 78.5t180 29.5q76 0 136.5 -23t101 -59t70 -94t46 -114.5t25.5 -134.5t11.5 -140t2.5 -144l39 -2q8 206 71 366.5t175.5 252.5t259.5 92
q33 0 82.5 -39.5t73.5 -83.5l-4 -41q-16 2 -47 2q-158 0 -280.5 -90t-190.5 -254t-68 -375q0 -260 6 -358l221 -74l-14 -57q-58 0 -174.5 1t-175.5 1q-63 0 -191 -1t-192 -1z" />
    <glyph glyph-name="Phi" unicode="&#x3a6;" horiz-adv-x="1746" 
d="M737 1264l-139 57l18 51q45 0 131 -2t130 -2q47 0 141 2t141 2l-18 -53l-129 -55v-47q100 -9 186.5 -28t175 -59.5t151 -97.5t101.5 -146.5t39 -201.5q0 -106 -38.5 -192t-101.5 -142.5t-149.5 -97t-175.5 -61t-188 -27.5v-53l166 -60l-19 -53q-48 0 -145.5 1t-145.5 1
q-50 0 -146 -1t-142 -1l16 53l141 60v53q-101 7 -188 25t-176 56t-151.5 92.5t-102 141.5t-39.5 197q0 108 39 197t102.5 147.5t151 101t177 64.5t187.5 31v47zM733 244v891q-158 -32 -256 -141.5t-98 -295.5q0 -99 27 -179.5t76 -135t112 -89t139 -50.5zM1012 1135v-891
q159 28 256.5 138.5t97.5 301.5q0 103 -28.5 185t-78.5 135t-111.5 85t-135.5 46z" />
    <glyph glyph-name="Chi" unicode="&#x3a7;" horiz-adv-x="1470" 
d="M68 1296l22 54q53 0 159.5 -1t158.5 -1q41 0 121 1t120 1l-12 -58l-57 -63q107 -204 202 -361h4q124 201 207 359l-63 69l20 54q20 0 75 -1t81 -1q43 0 130 1t130 1l-14 -58q-97 -30 -145 -53.5t-95 -62.5q-103 -130 -281 -394q24 -41 109.5 -189t147.5 -250.5t94 -147.5
q32 -44 121 -76l141 -64l-17 -57q-61 0 -180 2t-180 2q-40 0 -121 -2t-121 -2l11 57l43 66q-37 89 -228 420h-4q-218 -349 -246 -412l86 -74l-12 -57q-32 0 -95 2t-93 2q-43 0 -126.5 -2t-125.5 -2l18 57l135 62q56 18 88 61q117 151 326 451q-257 461 -313 542
q-24 34 -45 52t-54 28z" />
    <glyph glyph-name="Psi" unicode="&#x3a8;" horiz-adv-x="1640" 
d="M678 637v588l-160 71l19 54q47 0 145 -1t149 -1q50 0 149.5 1t149.5 1l-18 -56l-143 -69v-588q83 13 131.5 47t81 113.5t47.5 220.5q16 160 47 227q45 50 147 81t213 34l6 -51q-22 -19 -59 -53.5t-51 -47.5q-25 -67 -43 -200q-29 -225 -152 -333t-368 -120q0 -301 8 -426
l192 -74l-16 -57q-57 0 -166.5 1t-163.5 1q-56 0 -169 -1t-173 -1l13 57l176 74q8 125 8 426q-130 7 -220 31.5t-155.5 76t-102.5 131t-53 197.5q-18 159 -38 217q-17 18 -53 50t-54 49l12 53q111 -4 222 -39t139 -72q25 -60 43 -243q13 -135 44.5 -212t81 -111t134.5 -46z
" />
    <glyph glyph-name="uni03A9" unicode="&#x3a9;" horiz-adv-x="1759" 
d="M758 0h-631q-39 221 -57 375l47 4q134 -168 137 -172h348l-2 20q-83 31 -153 78.5t-128.5 114t-92 157.5t-33.5 197q0 181 91 321t249.5 215.5t359.5 75.5q198 0 352.5 -75.5t241 -212.5t86.5 -314q0 -101 -33 -189.5t-92.5 -156.5t-129.5 -118.5t-157 -92.5v-20h344
q10 12 56 71t79 99l50 2q-39 -260 -62 -379h-629l-16 14q14 85 41 201q236 179 236 569q-1 243 -104.5 379.5t-272.5 136.5q-170 0 -274.5 -147t-104.5 -391q0 -170 58 -312t173 -235q10 -51 33 -201z" />
    <glyph glyph-name="Iotadieresis" unicode="&#x3aa;" horiz-adv-x="776" 
d="M92 1292l19 58q47 0 138.5 -1t137.5 -1q50 0 150.5 1t150.5 1l-16 -58l-140 -71v-519q0 -510 11 -573l178 -74l-16 -57q-53 0 -161 2t-163 2q-53 0 -160 -2t-160 -2l17 57l151 76q13 37 13 571v519zM168 1751l18 4q24 -10 65 -55.5t60 -81.5l-6 -21q-12 -32 -53 -74
t-72 -63l-22 -6q-33 20 -68.5 60.5t-56.5 76.5l4 21q26 39 63.5 78.5t67.5 60.5zM612 1751l17 4q24 -10 65 -55.5t60 -81.5l-6 -21q-13 -31 -53 -73t-70 -64l-25 -6q-33 21 -70 62.5t-55 74.5l6 21q22 38 60.5 78t70.5 61z" />
    <glyph glyph-name="Upsilondieresis" unicode="&#x3ab;" horiz-adv-x="1445" 
d="M340 55l211 78q10 153 10 356q0 120 -15.5 224t-51 196t-89 157t-133.5 102.5t-180 37.5q-46 0 -92 -6l2 60q66 49 164 78.5t180 29.5q76 0 136.5 -23t101 -59t70 -94t46 -114.5t25.5 -134.5t11.5 -140t2.5 -144l39 -2q8 206 71 366.5t175.5 252.5t259.5 92
q33 0 82.5 -39.5t73.5 -83.5l-4 -41q-16 2 -47 2q-158 0 -280.5 -90t-190.5 -254t-68 -375q0 -260 6 -358l221 -74l-14 -57q-58 0 -174.5 1t-175.5 1q-63 0 -191 -1t-192 -1zM524 1751l19 4q24 -10 65 -55.5t60 -81.5l-6 -21q-12 -32 -53 -74t-72 -63l-23 -6
q-33 20 -68.5 60.5t-56.5 76.5l4 21q26 39 63.5 78.5t67.5 60.5zM969 1751l16 4q24 -10 65 -55.5t60 -81.5l-6 -21q-13 -31 -53 -73t-70 -64l-25 -6q-33 21 -70 62.5t-55 74.5l7 21q22 38 60.5 78t70.5 61z" />
    <glyph glyph-name="alphatonos" unicode="&#x3ac;" horiz-adv-x="1198" 
d="M944 907l172 31l23 -35l-125 -164q-37 -58 -99 -170q62 -320 93 -407q17 -15 65 -27t92 -14l-18 -66q-39 -31 -108 -56.5t-158 -25.5q-71 0 -113 23q-20 74 -43 250h-6q-154 -273 -357 -273q-132 0 -214 119.5t-82 317.5q0 244 125.5 386t343.5 142q84 0 142.5 -14.5
t97 -46t61 -71t41.5 -101.5h4q54 147 63 202zM489 145h3q50 0 107.5 62t102.5 151q-7 70 -13 119.5t-17 111.5t-25 103.5t-33.5 79.5t-46.5 57t-61 19q-70 0 -109 -84t-39 -254q0 -171 37.5 -268t93.5 -97zM575 1012l-65 20q7 34 33 169t41 208q49 5 110 -5.5t99 -33.5v-33z
" />
    <glyph glyph-name="epsilontonos" unicode="&#x3ad;" horiz-adv-x="933" 
d="M795 662l-50 -23q-29 51 -75 195q-27 12 -72 12q-87 0 -142 -46t-55 -120q0 -61 37.5 -98t102.5 -45q74 22 188 32l8 -18q-8 -35 -28.5 -77.5t-46.5 -59.5q-49 2 -132 20q-68 -12 -109.5 -46.5t-41.5 -94.5q0 -83 58.5 -133.5t164.5 -53.5q67 -3 103 15q124 108 184 143
l12 -63q-11 -38 -55.5 -96.5t-73.5 -71.5q-124 -60 -280 -60q-197 0 -308.5 75.5t-111.5 203.5q0 170 274 217v6q-231 31 -231 199q0 117 111.5 189.5t310.5 72.5q102 0 187.5 -23.5t135.5 -60.5q-20 -107 -65 -190zM471 1012l-65 20q11 55 35 182t38 195q49 5 110 -5.5
t99 -33.5v-33z" />
    <glyph glyph-name="etatonos" unicode="&#x3ae;" horiz-adv-x="1161" 
d="M166 590v155l-103 52l19 49q24 19 173 55.5t187 34.5l4 -4l-14 -146l4 -2q74 54 111.5 79t92 49t97.5 24q149 0 217 -100.5t68 -270.5q0 -253 -23 -778l23 -172q-84 -75 -307 -82l-13 8q41 599 41 1002q0 221 -147 221q-72 0 -150 -64v-700l-290 -27q10 200 10 617z
M584 1012l-66 20q7 34 33 169t41 208q49 5 110 -5.5t99 -33.5v-33z" />
    <glyph glyph-name="iotatonos" unicode="&#x3af;" horiz-adv-x="600" 
d="M139 106v791q101 24 281 39v-776q21 -38 172 -56l-27 -65q-30 -30 -88.5 -48t-132.5 -18q-98 0 -151.5 37t-53.5 96zM285 1012l-66 20q7 34 33 169t41 208q49 5 110 -5.5t99 -33.5v-33z" />
    <glyph glyph-name="upsilondieresistonos" unicode="&#x3b0;" horiz-adv-x="1075" 
d="M170 766l-119 61l21 50q57 19 175 38.5t214 20.5l2 -8q-1 -31 -5.5 -130t-8 -236.5t-3.5 -293.5q3 -65 49 -104t117 -39q222 0 222 334q0 15 -1 30t-4 31.5t-5 28t-7 29.5t-7 25.5t-8 27.5t-7 24q-23 37 -54 83.5t-48 74t-25 45.5l4 27q18 15 103 35.5t124 17.5
q44 -55 65 -152.5t21 -207.5q0 -267 -128 -436t-345 -169q-130 0 -231 72q-115 84 -115 223q0 60 2 249t2 249zM246 1343l16 3q23 -11 61.5 -53t53.5 -74l-4 -21q-11 -31 -49.5 -71.5t-67.5 -57.5l-20 -4q-31 17 -64 54t-55 73l4 20q53 78 125 131zM496 1024l-64 20l43 369
q58 3 119 -10t92 -31v-33zM825 1343l15 3q23 -10 60.5 -52t55.5 -75l-6 -21q-11 -31 -49.5 -71.5t-66.5 -57.5l-19 -4q-30 18 -65.5 56.5t-53.5 70.5l4 20q22 35 58 72.5t67 58.5z" />
    <glyph glyph-name="alpha" unicode="&#x3b1;" horiz-adv-x="1198" 
d="M944 907l172 31l23 -35l-125 -164q-37 -58 -99 -170q62 -320 93 -407q17 -15 65 -27t92 -14l-18 -66q-39 -31 -108 -56.5t-158 -25.5q-71 0 -113 23q-20 74 -43 250h-6q-154 -273 -357 -273q-132 0 -214 119.5t-82 317.5q0 244 125.5 386t343.5 142q84 0 142.5 -14.5
t97 -46t61 -71t41.5 -101.5h4q54 147 63 202zM489 145h3q50 0 107.5 62t102.5 151q-7 70 -13 119.5t-17 111.5t-25 103.5t-33.5 79.5t-46.5 57t-61 19q-70 0 -109 -84t-39 -254q0 -171 37.5 -268t93.5 -97z" />
    <glyph glyph-name="beta" unicode="&#x3b2;" horiz-adv-x="1153" 
d="M137 -459v1401q0 121 35 214.5t97.5 151t143.5 86.5t177 29q177 0 285 -89t108 -247q0 -69 -26 -126t-69 -93t-87.5 -58.5t-93.5 -35.5v-12q100 -9 186 -51q192 -91 192 -314q0 -92 -30.5 -167t-77.5 -122t-107.5 -78.5t-116.5 -44.5t-108 -14q-85 0 -196 68l18 70
q43 -11 80 -11q40 0 79 14.5t77 47t61.5 95t23.5 146.5q0 140 -69.5 212.5t-179.5 72.5q-44 0 -93 -8l50 127q20 -2 49 -2q91 0 140.5 76t49.5 184q0 128 -48.5 201t-123.5 73q-165 0 -162 -331q3 -835 29 -1219l27 -172q-105 -75 -305 -82z" />
    <glyph glyph-name="gamma" unicode="&#x3b3;" horiz-adv-x="1081" 
d="M-35 768l4 59q52 35 171 71.5t190 37.5q56 -24 129 -158q49 -91 89 -240t52 -282h8q26 116 187 561l2 111l4 8q66 0 154.5 -17t140.5 -40l-15 -45q-62 -34 -145 -70q-106 -138 -225 -473q-33 -90 -53.5 -177t-24.5 -128q0 -9 4 -104.5t5 -139.5t-1 -119
q-31 -35 -127.5 -63.5t-177.5 -30.5l-19 22q6 57 54 232t49 178q10 123 -34.5 290t-123.5 306.5t-160 185.5q-8 1 -137 25z" />
    <glyph glyph-name="delta" unicode="&#x3b4;" horiz-adv-x="1116" 
d="M582 57h2q66 0 111 45.5t63 111.5t18 148q0 80 -21.5 149.5t-62 125t-81.5 95.5t-97 83h-6q-62 -53 -100.5 -149t-38.5 -226q0 -91 23 -176.5t73 -146t117 -60.5zM616 1423h2q146 0 254 -52.5t146 -115.5l-2 -20q-28 -35 -81 -69t-83 -33q-70 87 -144 137t-171 51
q-61 1 -89 -15.5t-28 -41.5q0 -26 40 -66.5t142 -114.5q247 -181 348 -328t101 -309q0 -143 -69 -252.5t-180 -165t-243 -55.5q-218 0 -357 129t-139 334q0 89 29 162t83.5 125.5t119 89.5t147.5 66v4q-105 76 -163 147.5t-58 128.5q0 103 117 183.5t278 80.5z" />
    <glyph glyph-name="epsilon" unicode="&#x3b5;" horiz-adv-x="933" 
d="M795 662l-50 -23q-29 51 -75 195q-27 12 -72 12q-87 0 -142 -46t-55 -120q0 -61 37.5 -98t102.5 -45q74 22 188 32l8 -18q-8 -35 -28.5 -77.5t-46.5 -59.5q-49 2 -132 20q-68 -12 -109.5 -46.5t-41.5 -94.5q0 -83 58.5 -133.5t164.5 -53.5q67 -3 103 15q124 108 184 143
l12 -63q-11 -38 -55.5 -96.5t-73.5 -71.5q-124 -60 -280 -60q-197 0 -308.5 75.5t-111.5 203.5q0 170 274 217v6q-231 31 -231 199q0 117 111.5 189.5t310.5 72.5q102 0 187.5 -23.5t135.5 -60.5q-20 -107 -65 -190z" />
    <glyph glyph-name="zeta" unicode="&#x3b6;" horiz-adv-x="886" 
d="M557 -338l-70 27q49 62 74 131.5t25 118.5q-32 26 -203 63q-74 13 -128 41.5t-96 80.5t-63.5 136t-21.5 199q0 112 29 220t78 194.5t103 153.5t113 118v4q-86 7 -161 36t-111 64v21q42 63 87 104.5t105 71.5h48q0 -101 2 -152q37 -43 112 -59q169 154 336 160l21 -13
q-4 -64 -49.5 -131.5t-73.5 -79.5q-77 -34 -199 -34q-64 -57 -119 -218.5t-55 -367.5q0 -108 23 -176.5t67.5 -104.5t118.5 -55q34 -7 127 -31q113 -25 149 -61q0 -76 -22 -147.5t-53.5 -121t-71 -92t-69 -65t-52.5 -35.5z" />
    <glyph glyph-name="eta" unicode="&#x3b7;" horiz-adv-x="1161" 
d="M166 590v155l-103 52l19 49q24 19 173 55.5t187 34.5l4 -4l-14 -146l4 -2q74 54 111.5 79t92 49t97.5 24q149 0 217 -100.5t68 -270.5q0 -253 -23 -778l23 -172q-84 -75 -307 -82l-13 8q41 599 41 1002q0 221 -147 221q-72 0 -150 -64v-700l-290 -27q10 200 10 617z" />
    <glyph glyph-name="theta" unicode="&#x3b8;" horiz-adv-x="1128" 
d="M369 797h387q-15 544 -187 544q-61 0 -106.5 -77t-68.5 -198.5t-25 -268.5zM543 666h-176q2 -267 57 -438t147 -171q183 0 189 648q-87 -39 -217 -39zM567 1427h2q237 0 356 -191t119 -534q0 -348 -122 -538.5t-369 -190.5q-237 0 -355 190.5t-118 534.5q0 340 128 534.5
t359 194.5z" />
    <glyph glyph-name="iota" unicode="&#x3b9;" horiz-adv-x="600" 
d="M139 106v791q101 24 281 39v-776q21 -38 172 -56l-27 -65q-30 -30 -88.5 -48t-132.5 -18q-98 0 -151.5 37t-53.5 96z" />
    <glyph glyph-name="kappa" unicode="&#x3ba;" horiz-adv-x="1112" 
d="M463 428l8 29q4 5 60 71t95 112.5t84 104t60 82.5q1 8 4 31.5t6 43.5t6 34q49 5 162 -9.5t154 -33.5l-21 -55q-113 -37 -141 -45q-48 -18 -80 -41q-44 -38 -166 -170q3 -4 260 -377q31 -46 66 -93.5t54 -74.5t26 -39l-29 -29q-144 0 -219.5 20.5t-134.5 78.5
q-83 77 -254 360zM166 592v164l-107 53l15 47q27 15 171 47t199 33v-936l-288 -27q10 200 10 619z" />
    <glyph glyph-name="lambda" unicode="&#x3bb;" horiz-adv-x="1105" 
d="M1098 94l-25 -61q-42 -21 -149.5 -36.5t-225.5 -16.5q-22 69 -101 338.5t-124 400.5q-60 -189 -139 -442t-82 -261q-29 -11 -98.5 -23.5t-122.5 -15.5l-31 46q37 43 125 131q66 136 105.5 219.5t95 217t98.5 259.5q-3 13 -47 141q-32 92 -65.5 153.5t-66 91t-60 40
t-60.5 10.5q-39 0 -74 -6l4 68q32 29 92.5 52t126.5 23q138 0 232.5 -124t195.5 -439q172 -531 259 -719z" />
    <glyph glyph-name="uni03BC" unicode="&#x3bc;" horiz-adv-x="1173" 
d="M993 788v-628q24 -38 172 -56l-24 -63q-30 -30 -89.5 -48t-133.5 -18q-35 0 -69.5 10t-72 44t-53.5 88h-4q-119 -144 -223 -144q-74 0 -121 47l-4 -2q-24 -333 18 -464l-20 -21q-69 4 -115 23t-71 56t-35 84.5t-11 117.5q-1 74 -1 141.5t0.5 178.5t0.5 212q0 78 1 285
t1 258q22 13 121.5 30t171.5 17l4 -6q-2 -39 -10 -142t-16.5 -227.5t-14.5 -259.5q-2 -55 25 -94q45 -62 131 -62q94 0 162 68v676q25 12 135 29.5t182 17.5l14 -16q-27 -63 -51 -132z" />
    <glyph glyph-name="nu" unicode="&#x3bd;" horiz-adv-x="1024" 
d="M-16 791l24 63q64 27 199 55.5t186 26.5l13 -105q32 -108 204 -579h4q147 250 154 399q-6 25 -18.5 75.5t-22.5 91.5t-16 73l4 10q14 15 83.5 28t112.5 7q23 -18 37.5 -63t14.5 -93q0 -64 -44.5 -166.5t-98 -190.5t-122 -198t-94.5 -159q-24 -29 -64.5 -59t-72.5 -42h-27
q-286 747 -315 793z" />
    <glyph glyph-name="xi" unicode="&#x3be;" horiz-adv-x="976" 
d="M823 836l-121 -154q-52 10 -112 10q-105 0 -174.5 -63t-69.5 -162q0 -177 221 -221q13 -3 195 -43q137 -33 164 -72q0 -86 -31.5 -169t-76.5 -140.5t-85 -94.5t-67 -51l-72 25q86 149 78 252q-93 38 -242 63q-191 36 -276.5 122.5t-85.5 226.5q0 126 73 215t246 147v6
q-117 28 -182.5 108.5t-65.5 198.5q0 165 131.5 270t345.5 105q87 0 163.5 -23t113.5 -55q2 -24 -26.5 -105.5t-53.5 -121.5l-45 -16q-2 5 -24 52.5t-37.5 86.5t-32.5 90q-18 6 -45 6q-86 0 -157 -65t-71 -174q0 -112 70.5 -169t198.5 -57q85 0 147 6z" />
    <glyph glyph-name="omicron" unicode="&#x3bf;" horiz-adv-x="1126" 
d="M565 936h2q222 0 359 -132t137 -339q0 -221 -139.5 -356.5t-360.5 -135.5q-100 0 -190 33t-158.5 92.5t-108.5 150.5t-40 200t42 202t111.5 154.5t159.5 96t186 34.5zM559 852h-2q-48 0 -85 -35.5t-57 -92t-30 -118t-10 -123.5q0 -71 11.5 -142.5t34.5 -136.5t65 -106
t96 -41q42 0 74 27t50 67t29.5 94.5t15 100.5t3.5 94q0 66 -10.5 133.5t-31.5 132.5t-61 105.5t-92 40.5z" />
    <glyph glyph-name="pi" unicode="&#x3c0;" horiz-adv-x="1284" 
d="M315 909h760q117 24 146 25l12 -2q-5 -52 -23.5 -111t-38.5 -80l-12 -10q-69 36 -98 47h-47v-616q20 -40 172 -56l-23 -67q-30 -27 -90.5 -45.5t-130.5 -18.5q-103 0 -156 41t-53 103v659h-246v-438q0 -235 -30 -293q-30 -34 -118 -53t-189 -21l-29 47q21 27 121 127
q16 56 16 191v440h-53q-65 0 -180 -33l-2 60q25 37 101 70.5t191 33.5z" />
    </font>
</defs>
</svg>
