<?xml version="1.0" standalone="no"?>
<!DOCTYPE svg PUBLIC "-//W3C//DTD SVG 1.1//EN" "http://www.w3.org/Graphics/SVG/1.1/DTD/svg11.dtd" >
<svg xmlns="http://www.w3.org/2000/svg" xmlns:xlink="http://www.w3.org/1999/xlink" version="1.1">
<metadata>
Created by FontForge 20170731 at Tue Nov 23 14:11:15 2021
 By Aleksey,,,
2007 Ole Schaefer published by FSI FontShop International GmbH
</metadata>
<defs>
<font id="ZineSlabDisOT-Medi" horiz-adv-x="1146" >
  <font-face 
    font-family="ZineSlabDisOT-Medi"
    font-weight="500"
    font-stretch="normal"
    units-per-em="2048"
    panose-1="2 1 6 4 5 1 1 2 1 4"
    ascent="1587"
    descent="-461"
    x-height="963"
    cap-height="1366"
    bbox="-57 -520 2320 1698"
    underline-thickness="192"
    underline-position="-567"
    unicode-range="U+000D-FB02"
  />
<missing-glyph horiz-adv-x="1085" 
d="M31 0v1366h1024v-1366h-1024zM223 193h639v981h-639v-981z" />
    <glyph glyph-name="fi" unicode="fi" horiz-adv-x="1085" 
d="M1055 10q-81 -30 -156 -30q-95 0 -147 53.5t-52 159.5v598h-313v-619h145v-172h-501v172h135v619h-135v172h135v200q0 147 73 216t201 69q99 0 217 -45v-287h-151v141q-25 5 -47 5q-72 0 -72 -109v-190h535v-738q0 -59 53 -59q35 0 80 18v-174zM922 1163h-197v203h197
v-203z" />
    <glyph glyph-name="fl" unicode="fl" horiz-adv-x="1085" 
d="M643 1116h-137v141q-25 5 -47 5q-72 0 -72 -109v-190h154v-172h-154v-619h145v-172h-501v172h135v619h-135v172h135v200q0 147 73 216t201 69q102 0 203 -39v-293zM1055 10q-81 -30 -156 -30q-95 0 -147 53.5t-52 159.5v1234h222v-1202q0 -59 53 -59q35 0 80 18v-174z
" />
    <glyph glyph-name=".notdef" horiz-adv-x="1085" 
d="M31 0v1366h1024v-1366h-1024zM223 193h639v981h-639v-981z" />
    <glyph glyph-name=".null" horiz-adv-x="0" 
 />
    <glyph glyph-name=".null" horiz-adv-x="0" 
 />
    <glyph glyph-name="nonmarkingreturn" horiz-adv-x="682" 
 />
    <glyph glyph-name="CR" unicode="&#xd;" horiz-adv-x="532" 
 />
    <glyph glyph-name="space" unicode=" " horiz-adv-x="532" 
 />
    <glyph glyph-name="exclam" unicode="!" horiz-adv-x="542" 
d="M397 915l-20 -497h-211l-21 497v451h252v-451zM397 0h-252v252h252v-252z" />
    <glyph glyph-name="quotedbl" unicode="&#x22;" horiz-adv-x="833" 
d="M711 915h-234v390h234v-390zM354 915h-231v390h231v-390z" />
    <glyph glyph-name="numbersign" unicode="#" horiz-adv-x="1187" 
d="M1085 356h-159v-356h-234v356h-196v-356h-234v356h-160v201h160v252h-160v201h160v356h234v-356h196v356h234v-356h159v-201h-159v-252h159v-201zM692 557v252h-196v-252h196z" />
    <glyph glyph-name="dollar" unicode="$" horiz-adv-x="962" 
d="M891 352q0 -321 -311 -366v-224h-195v222q-144 8 -309 75v318h172v-162q126 -41 211 -41q93 0 142.5 38t49.5 126q0 79 -39.5 123.5t-115.5 77.5l-138 59q-44 19 -78 37t-74 49t-66 67t-44 88.5t-18 114.5q0 155 86 247t231 116v225h193v-223q142 -11 291 -66v-315h-172
v162q-119 35 -201 35q-83 0 -135 -40t-52 -116q0 -37 11.5 -65.5t36 -49.5t46.5 -33.5t60 -29.5l137 -62q59 -26 104.5 -56.5t88 -76t65.5 -110t23 -144.5z" />
    <glyph glyph-name="percent" unicode="%" horiz-adv-x="1673" 
d="M1606 350q0 -185 -89 -277.5t-233 -92.5t-233.5 92.5t-89.5 277.5q0 184 89.5 276.5t233.5 92.5t233 -92t89 -277zM711 954q0 -184 -89 -276t-233 -92t-232.5 91.5t-88.5 276.5t89 278t232 93t232.5 -93t89.5 -278zM1229 1280l-576 -1305l-211 50l576 1304zM479 954
q0 116 -20.5 164.5t-69.5 48.5t-69.5 -48.5t-20.5 -164.5q0 -115 20 -162t70 -47t70 47t20 162zM1372 350q0 116 -19.5 163.5t-68.5 47.5t-69.5 -47.5t-20.5 -163.5t20.5 -163.5t69.5 -47.5t68.5 47.5t19.5 163.5z" />
    <glyph glyph-name="ampersand" unicode="&#x26;" horiz-adv-x="1220" 
d="M1139 92l-168 -131l-142 156q-141 -137 -346 -137q-175 0 -285 88t-110 262q0 243 234 362q-142 128 -142 297q0 162 96.5 249t268.5 87q155 0 250.5 -86.5t95.5 -237.5q0 -57 -15 -105t-38 -82t-58 -63t-68 -47t-75 -36l215 -246q41 111 47 283h213q-6 -282 -121 -443z
M711 256l-273 309q-108 -78 -108 -209q0 -85 45.5 -138.5t122.5 -53.5q121 0 213 92zM670 999q0 70 -34.5 109t-94.5 39q-65 0 -102.5 -39.5t-37.5 -114.5q0 -45 23 -87.5t46 -64t60 -50.5q140 72 140 208z" />
    <glyph glyph-name="quotesingle" unicode="'" horiz-adv-x="477" 
d="M354 915h-231v390h231v-390z" />
    <glyph glyph-name="parenleft" unicode="(" horiz-adv-x="573" 
d="M553 -109l-150 -61q-315 374 -315 848q0 476 315 850l150 -64q-213 -410 -213 -786q0 -377 213 -787z" />
    <glyph glyph-name="parenright" unicode=")" horiz-adv-x="573" 
d="M485 678q0 -474 -315 -848l-150 61q213 410 213 787q0 376 -213 786l150 64q315 -374 315 -850z" />
    <glyph glyph-name="asterisk" unicode="*" horiz-adv-x="790" 
d="M709 954l-76 -129l-162 93v-185h-152v185l-161 -93l-76 129l164 93l-164 94l76 131l161 -94v188h152v-188l162 94l76 -131l-164 -94z" />
    <glyph glyph-name="plus" unicode="+" horiz-adv-x="937" 
d="M844 537h-275v-297h-200v297h-275v192h275v297h200v-297h275v-192z" />
    <glyph glyph-name="comma" unicode="," horiz-adv-x="514" 
d="M381 20l-66 -290l-161 26l45 244h-66v248h248v-228z" />
    <glyph glyph-name="hyphen" unicode="-" horiz-adv-x="544" 
d="M483 504h-422v196h422v-196z" />
    <glyph glyph-name="period" unicode="." horiz-adv-x="514" 
d="M381 0h-248v248h248v-248z" />
    <glyph glyph-name="slash" unicode="/" horiz-adv-x="667" 
d="M621 1352l-365 -1377l-209 39l363 1377z" />
    <glyph glyph-name="zero" unicode="0" horiz-adv-x="1079" 
d="M991 653q0 -673 -450 -673q-453 0 -453 673q0 349 118.5 510.5t334.5 161.5q450 0 450 -672zM750 653q0 257 -50 372.5t-159 115.5q-108 0 -159.5 -117.5t-51.5 -370.5q0 -256 51 -371.5t160 -115.5q108 0 158.5 115t50.5 372z" />
    <glyph glyph-name="one" unicode="1" horiz-adv-x="636" 
d="M596 0h-528v172h151v883l-153 -33l-15 149l260 134h142v-1133h143v-172z" />
    <glyph glyph-name="two" unicode="2" horiz-adv-x="958" 
d="M870 0h-770q0 116 18.5 207.5t55.5 159.5t75.5 113.5t94.5 94.5l121 105q40 36 60.5 56t47 55t37.5 74.5t11 88.5q0 89 -50 135t-137 46q-82 0 -174 -29v-131h-172v268q57 23 94.5 36.5t116.5 29.5t156 16q189 0 298 -90t109 -279q0 -61 -14 -116.5t-33.5 -95t-53 -80.5
t-58.5 -65t-64 -58l-115 -99q-47 -41 -75.5 -70.5t-56 -78t-34.5 -100.5h340v153h172v-346z" />
    <glyph glyph-name="three" unicode="3" horiz-adv-x="937" 
d="M850 365q0 -85 -24 -152t-64 -110t-95.5 -71.5t-114 -40t-124.5 -11.5q-184 0 -340 63v303h172v-164q82 -20 156 -20q87 0 138.5 51t51.5 164q0 63 -18 107t-51 68t-73.5 34t-92.5 10h-105v180h105q95 0 155 48.5t60 144.5q0 85 -42.5 128.5t-119.5 43.5q-22 0 -43 -2
t-41 -6t-31.5 -7t-28.5 -8t-20 -6v-137h-172v278q98 37 178 54.5t176 17.5q81 0 147.5 -16.5t122 -52t86.5 -100t31 -152.5q0 -59 -15 -107.5t-36 -80t-53 -57t-57 -38.5t-56 -25q238 -72 238 -331z" />
    <glyph glyph-name="four" unicode="4" horiz-adv-x="1001" 
d="M961 248h-144v-248h-233v248h-533v190l512 867h254v-867h144v-190zM584 438v574l-332 -574h332z" />
    <glyph glyph-name="five" unicode="5" horiz-adv-x="966" 
d="M879 401q0 -116 -34 -200.5t-94 -131.5t-132 -68t-160 -21q-155 0 -326 63v303h172v-164q63 -20 139 -20q191 0 191 239q0 240 -160 240q-59 0 -102.5 -26t-83.5 -68l-139 28l20 730h700v-330h-172v137h-299l-14 -328q63 39 145 39q51 0 97 -11t93.5 -40t81.5 -75
t55.5 -122t21.5 -174z" />
    <glyph glyph-name="six" unicode="6" horiz-adv-x="1042" 
d="M954 406q0 -110 -32.5 -193t-91.5 -133.5t-135.5 -75t-170.5 -24.5q-436 0 -436 591q0 372 133.5 563t362.5 191q152 0 286 -57v-293h-172v155q-59 13 -116 13q-97 0 -166 -105t-78 -288q107 92 256 92q70 0 131 -22.5t114 -71t84 -136t31 -206.5zM713 408
q0 134 -44.5 192.5t-131.5 58.5q-99 0 -207 -84v-40q0 -373 196 -373q93 0 140 58.5t47 187.5z" />
    <glyph glyph-name="seven" unicode="7" horiz-adv-x="862" 
d="M821 1112l-348 -1112h-244l363 1112h-379v-137h-172v330h780v-193z" />
    <glyph glyph-name="eight" unicode="8" horiz-adv-x="1062" 
d="M975 352q0 -187 -108.5 -279.5t-331.5 -92.5q-216 0 -331.5 93t-115.5 275q0 70 21.5 128t58 96.5t74 63.5t80.5 42q-42 22 -72.5 45.5t-62 60.5t-48 90.5t-16.5 120.5q0 158 111.5 244t304.5 86q186 0 294.5 -85t108.5 -239q0 -66 -18 -118.5t-51 -87.5t-66 -56.5
t-76 -40.5q244 -97 244 -346zM733 350q0 41 -14 74.5t-32 55t-56 44.5t-62 34t-75 32q-164 -89 -164 -236q0 -90 56.5 -140t150.5 -50q92 0 144 45.5t52 140.5zM698 993q0 150 -163 150q-80 0 -125 -39t-45 -111q0 -74 48 -117.5t146 -87.5q63 36 101 83t38 122z" />
    <glyph glyph-name="nine" unicode="9" horiz-adv-x="1048" 
d="M961 657q0 -355 -108.5 -516t-344.5 -161q-150 0 -301 51v315h172v-166q51 -14 115 -14q221 0 221 399v19q-104 -88 -248 -88q-77 0 -143.5 22t-120 67.5t-84.5 123.5t-31 180q0 207 115.5 321.5t312.5 114.5q228 0 336.5 -165t108.5 -503zM719 764q0 188 -52.5 283.5
t-152.5 95.5q-91 0 -137.5 -63.5t-46.5 -178.5q0 -113 44.5 -168t123.5 -55q109 0 221 86z" />
    <glyph glyph-name="colon" unicode=":" horiz-adv-x="514" 
d="M381 715h-248v248h248v-248zM381 0h-248v248h248v-248z" />
    <glyph glyph-name="semicolon" unicode=";" horiz-adv-x="514" 
d="M381 20l-66 -290l-161 26l45 244h-66v248h248v-228zM381 715h-248v248h248v-248z" />
    <glyph glyph-name="less" unicode="&#x3c;" horiz-adv-x="931" 
d="M838 399l-80 -184l-664 334v180l664 371l80 -178l-521 -279z" />
    <glyph glyph-name="equal" unicode="=" horiz-adv-x="935" 
d="M842 721h-748v192h748v-192zM842 385h-748v193h748v-193z" />
    <glyph glyph-name="greater" unicode="&#x3e;" horiz-adv-x="931" 
d="M838 549l-662 -334l-82 184l520 244l-520 279l82 178l662 -371v-180z" />
    <glyph glyph-name="question" unicode="?" horiz-adv-x="888" 
d="M801 1055q0 -60 -11 -108.5t-35.5 -89.5t-40.5 -61.5t-48 -56.5q-9 -10 -37 -39t-38.5 -43t-28 -40.5t-24 -54t-6.5 -60.5q0 -2 0.5 -7t1.5 -25.5t3 -51.5h-234q-1 26 -2.5 45t-2 26t-1 13t-0.5 12q0 59 12.5 109t38 92t45.5 67t53 60q51 53 77 98t26 107q0 69 -39 108
t-111 39q-32 0 -58.5 -4.5t-53.5 -12.5l-27 -8v-149h-172v297q2 1 31 11t44.5 15t51 14.5t64 15t69 9.5t80.5 4q77 0 142 -17.5t118 -55t83 -103.5t30 -155zM547 0h-254v252h254v-252z" />
    <glyph glyph-name="at" unicode="@" horiz-adv-x="1910" 
d="M1823 580q0 -137 -28 -245t-73 -174.5t-106.5 -110t-122 -60.5t-125.5 -17q-133 0 -198.5 67.5t-65.5 182.5v10q-118 -260 -326 -260q-120 0 -193 86.5t-73 259.5t60.5 318t170 231t244.5 86q69 0 118.5 -19.5t102.5 -64.5l174 19l-98 -559q-6 -35 -6 -62q0 -116 94 -116
q81 0 144 102.5t63 304.5q0 268 -163 426t-425 158q-135 0 -252.5 -49.5t-206 -141.5t-139.5 -232t-51 -312q0 -140 35 -249t97.5 -182t155.5 -120.5t203 -68.5t246 -21q88 0 135 4v-187q-88 -6 -170 -6q-472 0 -714 212.5t-242 617.5q0 175 48 325.5t133 261.5t199.5 190
t250 118.5t282.5 39.5q174 0 324.5 -54t261 -151.5t173.5 -241.5t63 -316zM1130 733q-17 17 -52.5 32t-76.5 15q-101 0 -180.5 -135t-79.5 -317q0 -172 90 -172q81 0 162.5 123.5t110.5 295.5z" />
    <glyph glyph-name="A" unicode="A" horiz-adv-x="1261" 
d="M1231 0h-305l-99 365h-391l-53 -193h121v-172h-473v172h114l293 1022h-131v172h467l346 -1194h111v-172zM782 557l-153 580l-150 -580h303z" />
    <glyph glyph-name="B" unicode="B" horiz-adv-x="1097" 
d="M1006 383q0 -109 -33 -185.5t-96 -118.5t-142 -60.5t-184 -18.5h-520v172h135v1022h-135v172h518q96 0 172 -19t133.5 -59.5t89 -107.5t31.5 -158q0 -243 -221 -313q252 -56 252 -326zM764 397q0 62 -18 105t-53 65.5t-76.5 31.5t-96.5 9h-123v-428h121q126 0 186 46
t60 171zM733 991q0 102 -54.5 148.5t-160.5 46.5h-121v-393h121q215 0 215 198z" />
    <glyph glyph-name="C" unicode="C" horiz-adv-x="1095" 
d="M1024 74q-93 -46 -183 -70t-216 -24q-84 0 -158.5 21t-144.5 72t-120 129.5t-80 201t-30 278.5q0 145 29.5 263.5t80.5 199t122 136t152 80.5t171 25q110 0 196 -19t181 -60v-308h-172v160q-100 33 -195 33q-63 0 -118.5 -29t-102 -87.5t-73.5 -160t-27 -233.5
q0 -137 25.5 -238t70 -157t97 -82.5t114.5 -26.5q115 0 209 41v158h172v-303z" />
    <glyph glyph-name="D" unicode="D" horiz-adv-x="1257" 
d="M1165 682q0 -152 -33 -270t-91 -195t-142.5 -126.5t-181.5 -70t-215 -20.5h-471v172h135v1022h-135v172h506q110 0 202 -22t172.5 -72.5t135.5 -128t86.5 -194.5t31.5 -267zM924 682q0 263 -103.5 377.5t-296.5 114.5h-127v-981h99q221 0 324.5 116.5t103.5 372.5z" />
    <glyph glyph-name="E" unicode="E" horiz-adv-x="1046" 
d="M975 0h-944v172h135v1022h-135v172h944v-367h-172v175h-406v-383h426v-191h-426v-407h406v184h172v-377z" />
    <glyph glyph-name="F" unicode="F" horiz-adv-x="1046" 
d="M975 999h-172v175h-406v-383h449v-191h-449v-428h181v-172h-547v172h135v1022h-135v172h944v-367z" />
    <glyph glyph-name="G" unicode="G" horiz-adv-x="1253" 
d="M1100 0h-234v74q-107 -94 -276 -94q-73 0 -139 18t-133 67t-116 124.5t-79.5 200.5t-30.5 286q0 132 25 241.5t70 185.5t101.5 132t124.5 88.5t134 47.5t135 15q125 0 217 -23.5t180 -68.5v-295h-172v152q-111 41 -229 41q-47 0 -92.5 -15t-91.5 -52t-80.5 -93
t-56 -146.5t-21.5 -203.5q0 -112 15.5 -199.5t41.5 -144.5t63.5 -94t79 -52.5t89.5 -15.5q126 0 241 74v340h-237v192h471v-782z" />
    <glyph glyph-name="H" unicode="H" horiz-adv-x="1269" 
d="M1239 0h-514v172h149v428h-477v-428h140v-172h-506v172h135v1022h-135v172h516v-172h-150v-403h477v403h-139v172h504v-172h-133v-1022h133v-172z" />
    <glyph glyph-name="I" unicode="I" horiz-adv-x="561" 
d="M530 0h-499v172h135v1022h-135v172h499v-172h-133v-1022h133v-172z" />
    <glyph glyph-name="J" unicode="J" horiz-adv-x="571" 
d="M418 231q0 -104 -22.5 -181t-67.5 -128.5t-99 -84t-131 -60.5l-71 147q56 40 86.5 73t51.5 92t21 142v963h-143v172h375v-1135z" />
    <glyph glyph-name="K" unicode="K" horiz-adv-x="1130" 
d="M537 0h-506v172h135v1022h-135v172h506v-172h-140v-1022h140v-172zM1100 0h-273l-399 717l401 649h271v-172h-121l-295 -469l309 -553h107v-172z" />
    <glyph glyph-name="L" unicode="L" horiz-adv-x="909" 
d="M868 0h-837v172h135v1022h-135v172h540v-172h-174v-993h299v176h172v-377z" />
    <glyph glyph-name="M" unicode="M" horiz-adv-x="1624" 
d="M1593 0h-506v172h140v766l-334 -938h-162l-334 938v-766h140v-172h-506v172h135v1022h-135v172h446l336 -950l334 950h446v-172h-133v-1022h133v-172z" />
    <glyph glyph-name="N" unicode="N" horiz-adv-x="1310" 
d="M1280 1194h-133v-1194h-232l-518 965v-793h140v-172h-506v172h135v1022h-135v172h407l477 -889v717h-139v172h504v-172z" />
    <glyph glyph-name="O" unicode="O" horiz-adv-x="1320" 
d="M1233 682q0 -174 -42 -309t-118.5 -220t-180 -129t-230.5 -44q-260 0 -417 179.5t-157 522.5q0 173 43 308.5t120.5 221.5t181.5 130t229 44q258 0 414.5 -181t156.5 -523zM991 682q0 257 -91 387.5t-238 130.5q-148 0 -240 -130.5t-92 -387.5q0 -256 91.5 -383
t240.5 -127q148 0 238.5 127t90.5 383z" />
    <glyph glyph-name="P" unicode="P" horiz-adv-x="1050" 
d="M969 961q0 -95 -25 -169t-67.5 -121t-102 -77t-124 -42.5t-138.5 -12.5h-115v-367h174v-172h-540v172h135v1022h-135v172h481q75 0 138.5 -11.5t123.5 -40t102 -73.5t67.5 -116.5t25.5 -163.5zM727 954q0 124 -57 178t-166 54h-107v-467h105q106 0 165.5 52t59.5 183z
" />
    <glyph glyph-name="Q" unicode="Q" horiz-adv-x="1320" 
d="M1233 682q0 -304 -123.5 -480.5t-335.5 -213.5v-336h-227v336q-211 37 -335 214t-124 480q0 173 43 308.5t120.5 221.5t181.5 130t229 44q258 0 414.5 -181t156.5 -523zM991 682q0 257 -91 387.5t-238 130.5q-148 0 -240 -130.5t-92 -387.5q0 -202 58.5 -326.5
t158.5 -167.5v244h227v-244q100 43 158.5 166.5t58.5 327.5z" />
    <glyph glyph-name="R" unicode="R" horiz-adv-x="1095" 
d="M1065 0h-281l-295 541h-92v-369h140v-172h-506v172h135v1022h-135v172h481q75 0 139 -11.5t123.5 -40.5t102 -74t67.5 -116t25 -163q0 -154 -68.5 -247t-177.5 -136l229 -406h113v-172zM727 954q0 232 -223 232h-107v-467h105q108 0 166.5 50.5t58.5 184.5z" />
    <glyph glyph-name="S" unicode="S" horiz-adv-x="997" 
d="M926 362q0 -195 -117 -288.5t-320 -93.5q-119 0 -210.5 20.5t-196.5 62.5v314h170v-158q127 -45 229 -45q94 0 148.5 43.5t54.5 138.5q0 48 -14.5 84t-45.5 62t-58.5 41t-73.5 35l-97 40q-51 21 -86 38.5t-82 51.5t-75.5 72t-49 96.5t-20.5 129.5q0 186 120.5 283
t315.5 97q96 0 181.5 -13.5t122 -24.5t91.5 -31v-318h-170v160q-108 35 -219 35q-91 0 -145.5 -41.5t-54.5 -124.5q0 -42 14 -74.5t44 -56.5t57.5 -39.5t72.5 -34.5l94 -41q38 -16 64.5 -29t62.5 -34.5t61 -43.5t51.5 -54.5t43 -69t27 -85t10.5 -104.5z" />
    <glyph glyph-name="T" unicode="T" horiz-adv-x="1069" 
d="M1038 1020h-172v143h-215v-991h174v-172h-581v172h174v991h-215v-143h-172v346h1007v-346z" />
    <glyph glyph-name="U" unicode="U" horiz-adv-x="1269" 
d="M1239 1194h-135v-733q0 -249 -125 -365t-344 -116q-104 0 -187.5 26.5t-147.5 82t-99 150t-35 222.5v733h-135v172h506v-172h-140v-723q0 -146 63 -218.5t175 -72.5q111 0 174 71t63 218v725h-139v172h506v-172z" />
    <glyph glyph-name="V" unicode="V" horiz-adv-x="1230" 
d="M1200 1194h-113l-335 -1194h-273l-336 1194h-112v172h477v-172h-123l233 -891l232 891h-123v172h473v-172z" />
    <glyph glyph-name="W" unicode="W" horiz-adv-x="1910" 
d="M1880 1194h-113l-282 -1194h-279l-250 979l-251 -979h-279l-281 1194h-114v172h479v-172h-123l188 -891l222 891h-113v172h547v-172h-113l223 -891l183 891h-123v172h479v-172z" />
    <glyph glyph-name="X" unicode="X" 
d="M1116 0h-477v172h119l-170 379l-262 -551h-295v172h114l271 514l-273 508h-112v172h477v-172h-102l172 -330l253 502h285v-172h-112l-254 -457l268 -565h98v-172z" />
    <glyph glyph-name="Y" unicode="Y" horiz-adv-x="1099" 
d="M1069 1194h-113l-299 -690v-332h177v-172h-582v172h174v332l-281 690h-114v172h469v-172h-109l158 -426l164 426h-107v172h463v-172z" />
    <glyph glyph-name="Z" unicode="Z" horiz-adv-x="1026" 
d="M979 1366l-582 -1173h373v163h170v-356h-893l582 1174h-373v-154h-172v346h895z" />
    <glyph glyph-name="bracketleft" unicode="[" horiz-adv-x="612" 
d="M592 -168h-447v1698h447v-162h-215v-1374h215v-162z" />
    <glyph glyph-name="backslash" unicode="\" horiz-adv-x="667" 
d="M621 14l-211 -39l-363 1377l209 39z" />
    <glyph glyph-name="bracketright" unicode="]" horiz-adv-x="612" 
d="M467 -168h-447v162h216v1374h-216v162h447v-1698z" />
    <glyph glyph-name="asciicircum" unicode="^" horiz-adv-x="925" 
d="M831 825h-225l-147 340l-142 -340h-223l258 541h223z" />
    <glyph glyph-name="underscore" unicode="_" horiz-adv-x="841" 
d="M842 -471h-842v192h842v-192z" />
    <glyph glyph-name="grave" unicode="`" horiz-adv-x="475" 
d="M424 1151h-221l-152 276h254z" />
    <glyph glyph-name="a" unicode="a" horiz-adv-x="1001" 
d="M971 10q-63 -30 -158 -30q-139 0 -172 116q-112 -116 -276 -116q-57 0 -106.5 14.5t-93 46t-68.5 89t-25 136.5q0 88 30.5 152t86 100t124 53t152.5 17h149v47q0 83 -33.5 119.5t-109.5 36.5q-21 0 -42.5 -2t-40.5 -5.5t-31 -6t-28 -6.5t-18 -5v-123h-172v266
q121 40 199 57t176 17q322 0 322 -328v-430q0 -59 53 -59q37 0 82 18v-174zM614 244v205h-131q-86 0 -132 -39t-46 -115q0 -71 33 -105t90 -34q36 0 75 16.5t59.5 31.5t51.5 40z" />
    <glyph glyph-name="b" unicode="b" horiz-adv-x="1075" 
d="M983 496q0 -516 -367 -516q-60 0 -113.5 17.5t-75.5 32t-56 40.5l-35 -70h-170v1255h-135v172h356v-538q30 26 54.5 42.5t78 34t115.5 17.5q71 0 131.5 -26t110.5 -81t78 -152t28 -228zM752 498q0 90 -15 150.5t-42.5 90t-57 41t-68.5 11.5q-87 0 -182 -86v-467
q98 -70 193 -70q38 0 66.5 14t53.5 48.5t38.5 102t13.5 165.5z" />
    <glyph glyph-name="c" unicode="c" horiz-adv-x="899" 
d="M827 61q-75 -38 -147 -59.5t-170 -21.5q-61 0 -116.5 12.5t-112 47t-97.5 87.5t-66.5 141.5t-25.5 202.5q0 112 25.5 201.5t67 146.5t98.5 95t116 53.5t123 15.5q93 0 162 -19.5t143 -56.5v-284h-172v155q-3 1 -18 5.5t-24.5 6.5t-30 4.5t-43.5 2.5q-87 0 -150 -78.5
t-63 -241.5q0 -164 55.5 -236.5t140.5 -72.5q24 0 48.5 4t37 8t29.5 10.5t18 6.5v161h172v-297z" />
    <glyph glyph-name="d" unicode="d" horiz-adv-x="1075" 
d="M1044 10q-68 -30 -157 -30q-139 0 -172 116q-116 -116 -273 -116q-76 0 -137 26.5t-110 84t-76 157.5t-27 237q0 111 22.5 198.5t58.5 142.5t85 91.5t98.5 51t102.5 14.5q139 0 229 -86v358h-143v172h366v-1202q0 -32 12.5 -45.5t39.5 -13.5q36 0 81 18v-174zM688 264
v453q-86 74 -174 74q-41 0 -72.5 -13t-59 -45.5t-42 -94t-14.5 -151.5q0 -98 12.5 -163.5t37.5 -98t52.5 -45t65.5 -12.5q88 0 194 96z" />
    <glyph glyph-name="e" unicode="e" horiz-adv-x="970" 
d="M883 395h-555q7 -107 59 -167t135 -60q116 0 266 96l80 -151q-80 -63 -159 -98t-193 -35q-90 0 -163.5 25.5t-133.5 81.5t-93.5 155t-33.5 235q0 246 110.5 376t293.5 130q197 0 292 -143.5t95 -444.5zM647 547q0 121 -36 193.5t-115 72.5q-82 0 -121 -65t-47 -201h319z
" />
    <glyph glyph-name="f" unicode="f" horiz-adv-x="688" 
d="M668 1116h-162v141q-25 5 -47 5q-72 0 -72 -109v-190h154v-172h-154v-619h154v-172h-510v172h135v619h-135v172h135v200q0 147 73 216t201 69q113 0 228 -49v-283z" />
    <glyph glyph-name="g" unicode="g" horiz-adv-x="923" 
d="M893 -121q0 -319 -430 -319q-197 0 -306.5 66t-109.5 194q0 87 41.5 142t97.5 83q-86 47 -86 148q0 110 109 178q-131 86 -131 274q0 165 98.5 251.5t274.5 86.5q50 0 108 -10t80 -10h254v-172h-119q49 -58 49 -154q0 -160 -98 -244t-274 -84q-57 0 -107 13
q-37 -32 -37 -64t20 -46t64 -19l187 -19q71 -7 124 -24t98.5 -49t69 -88t23.5 -134zM670 -141q0 61 -34 85.5t-106 32.5l-149 17l-20 2.5t-21 2.5t-12 1q-62 -62 -62 -145q0 -138 203 -138q95 0 148 36.5t53 105.5zM596 645q0 92 -38.5 136t-106.5 44q-66 0 -106 -44
t-40 -136q0 -178 146 -178q145 0 145 178z" />
    <glyph glyph-name="h" unicode="h" horiz-adv-x="1085" 
d="M1055 10q-81 -30 -156 -30q-95 0 -147 53.5t-52 159.5v448q0 65 -24 98t-78 33q-89 0 -211 -106v-494h139v-172h-495v172h135v1083h-135v172h356v-587q61 65 129.5 104t159.5 39q113 0 179.5 -70t66.5 -211v-477q0 -59 53 -59q35 0 80 18v-174z" />
    <glyph glyph-name="i" unicode="i" horiz-adv-x="550" 
d="M520 10q-81 -30 -155 -30q-95 0 -147 53.5t-52 159.5v598h-135v172h356v-738q0 -59 53 -59q35 0 80 18v-174zM387 1145h-221v221h221v-221z" />
    <glyph glyph-name="j" unicode="j" horiz-adv-x="555" 
d="M391 57q0 -147 -37.5 -245.5t-101.5 -152.5t-166 -89l-76 147q39 27 64.5 52t49 65t35 97.5t11.5 136.5v723h-135v172h356v-906zM391 1145h-221v221h221v-221z" />
    <glyph glyph-name="k" unicode="k" horiz-adv-x="1030" 
d="M516 0h-485v172h135v1083h-135v172h356v-1255h129v-172zM999 0h-270l-311 514l203 277h-105v172h483v-172h-127l-202 -269l215 -350h114v-172z" />
    <glyph glyph-name="l" unicode="l" horiz-adv-x="550" 
d="M520 10q-81 -30 -155 -30q-95 0 -147 53.5t-52 159.5v1062h-135v172h356v-1202q0 -59 53 -59q35 0 80 18v-174z" />
    <glyph glyph-name="m" unicode="m" horiz-adv-x="1619" 
d="M1589 10q-81 -30 -155 -30q-95 0 -147 53.5t-52 159.5v448q0 65 -24 98t-78 33q-86 0 -211 -108v-492h139v-172h-361v641q0 65 -24 98t-78 33q-83 0 -211 -106v-494h139v-172h-495v172h135v619h-135v172h356v-123q61 65 129.5 104t159.5 39q86 0 145.5 -40.5t83.5 -121.5
q32 35 55.5 57t62.5 49.5t86 41.5t101 14q113 0 179.5 -70t66.5 -211v-477q0 -59 53 -59q35 0 80 18v-174z" />
    <glyph glyph-name="n" unicode="n" horiz-adv-x="1085" 
d="M1055 10q-81 -30 -156 -30q-95 0 -147 53.5t-52 159.5v448q0 65 -24 98t-78 33q-83 0 -211 -106v-494h139v-172h-495v172h135v619h-135v172h356v-123q61 65 129.5 104t159.5 39q113 0 179.5 -70t66.5 -211v-477q0 -59 53 -59q35 0 80 18v-174z" />
    <glyph glyph-name="o" unicode="o" horiz-adv-x="1056" 
d="M969 481q0 -128 -34 -226t-94.5 -157t-139 -88.5t-173.5 -29.5q-96 0 -174.5 29.5t-138.5 89t-93.5 157t-33.5 225.5q0 129 33 226.5t93 157t138.5 89t175.5 29.5q95 0 174 -30t139.5 -89.5t94 -157t33.5 -225.5zM737 481q0 167 -56.5 242.5t-152.5 75.5t-152.5 -75
t-56.5 -243q0 -164 56.5 -239.5t152.5 -75.5q209 0 209 315z" />
    <glyph glyph-name="p" unicode="p" horiz-adv-x="1075" 
d="M983 496q0 -516 -362 -516q-134 0 -234 77v-295h201v-172h-557v172h135v1029h-135v172h356v-78q29 27 55 45.5t78 35.5t115 17q71 0 131.5 -26t110.5 -81t78 -152t28 -228zM752 498q0 74 -10.5 128t-27 85t-41.5 49.5t-49 24.5t-55 6q-86 0 -182 -86v-467
q102 -66 193 -66q30 0 53.5 7t46.5 28.5t38 56.5t24.5 94.5t9.5 139.5z" />
    <glyph glyph-name="q" unicode="q" horiz-adv-x="1075" 
d="M1044 -410h-546v172h190v326q-108 -108 -246 -108q-76 0 -137 26.5t-110 84t-76 157.5t-27 237q0 111 22.5 198.5t58.5 142.5t85 91.5t98.5 51t102.5 14.5q143 0 229 -90v70h356v-172h-133v-1029h133v-172zM688 268v447q-94 76 -174 76q-41 0 -72.5 -13t-59 -45.5
t-42 -94t-14.5 -151.5q0 -79 9 -136.5t23.5 -91.5t37 -54t45.5 -26.5t53 -6.5q92 0 194 96z" />
    <glyph glyph-name="r" unicode="r" horiz-adv-x="706" 
d="M676 764q-87 0 -165 -46.5t-124 -107.5v-438h191v-172h-547v172h135v619h-135v172h356v-146q96 166 289 166v-219z" />
    <glyph glyph-name="s" unicode="s" horiz-adv-x="813" 
d="M752 276q0 -157 -91 -226.5t-245 -69.5q-180 0 -342 67v293h172v-154q74 -24 151 -24q127 0 127 102q0 49 -32 75.5t-93 41.5l-88 22q-46 12 -82 29t-74.5 47.5t-60.5 83t-22 121.5q0 82 29 142.5t79 93.5t108 48t126 15q164 0 315 -55v-285h-172v143q-94 15 -135 15
q-55 0 -88 -23t-33 -71q0 -46 28 -67.5t87 -37.5l90 -24q50 -14 89.5 -34t77 -54t58.5 -88.5t21 -125.5z" />
    <glyph glyph-name="t" unicode="t" horiz-adv-x="567" 
d="M537 16q-80 -36 -172 -36q-95 0 -147 53.5t-52 159.5v598h-135v172h135l29 266h192v-266h150v-172h-150v-564q0 -31 13 -44t40 -13q47 0 97 20v-174z" />
    <glyph glyph-name="u" unicode="u" horiz-adv-x="1085" 
d="M1055 10q-81 -30 -156 -30q-155 0 -178 145q-134 -145 -307 -145q-115 0 -181.5 69.5t-66.5 214.5v527h-135v172h356v-652q0 -66 21.5 -98.5t74.5 -32.5q94 0 217 107v504h-135v172h357v-738q0 -59 53 -59q35 0 80 18v-174z" />
    <glyph glyph-name="v" unicode="v" horiz-adv-x="1032" 
d="M1001 791h-114l-238 -791h-270l-232 791h-116v172h458v-172h-112l141 -531l187 703h296v-172z" />
    <glyph glyph-name="w" unicode="w" horiz-adv-x="1589" 
d="M1559 791h-109l-209 -791h-268l-168 604l-191 -604h-266l-203 791h-114v172h456v-172h-110l117 -515l208 687h367v-172h-104l139 -517l156 689h299v-172z" />
    <glyph glyph-name="x" unicode="x" horiz-adv-x="989" 
d="M958 0h-462v172h96l-96 193l-185 -365h-280v172h106l170 315l-160 304h-116v172h463v-172h-86l90 -175l178 347h282v-172h-110l-162 -291l166 -328h106v-172z" />
    <glyph glyph-name="y" unicode="y" horiz-adv-x="1015" 
d="M985 791h-104l-234 -713q-31 -95 -58.5 -159.5t-70.5 -131t-95 -108t-128.5 -71t-175.5 -38.5l-29 168q227 40 295 244l23 67l-269 742h-108v172h448v-172h-104l147 -453l178 625h285v-172z" />
    <glyph glyph-name="z" unicode="z" horiz-adv-x="894" 
d="M838 963l-418 -770h235v165h170v-358h-774l416 770h-217v-147h-172v340h760z" />
    <glyph glyph-name="braceleft" unicode="{" horiz-adv-x="563" 
d="M543 -168q-98 0 -168.5 15.5t-125 52.5t-81.5 104.5t-27 165.5v211q0 105 -26 159.5t-95 75.5v129q69 21 95 75t26 159v213q0 98 27 165.5t81.5 104.5t124.5 52.5t169 15.5v-144q-170 -3 -170 -210v-187q0 -102 -21 -165.5t-55.5 -94t-93.5 -49.5q43 -15 71 -33t52.5 -51
t35.5 -88t11 -135v-189q0 -208 170 -211v-141z" />
    <glyph glyph-name="bar" unicode="|" horiz-adv-x="512" 
d="M367 -168h-222v1698h222v-1698z" />
    <glyph glyph-name="braceright" unicode="}" horiz-adv-x="561" 
d="M541 616q-69 -21 -95 -75.5t-26 -159.5v-211q0 -98 -27 -165.5t-81 -104.5t-124 -52.5t-168 -15.5v141q168 3 168 211v189q0 80 11 135t35.5 88t52.5 51t71 33q-59 19 -93.5 49.5t-55.5 94t-21 165.5v187q0 207 -168 210v144q99 0 169 -15.5t124 -52.5t80.5 -104
t26.5 -166v-213q0 -105 26 -159t95 -75v-129z" />
    <glyph glyph-name="asciitilde" unicode="~" horiz-adv-x="790" 
d="M729 645q-11 -33 -28 -63.5t-42.5 -61t-62 -49t-78.5 -18.5q-65 0 -132.5 28.5t-109.5 28.5q-29 0 -59.5 -20.5t-52.5 -49.5l-103 82q30 81 87 137t135 56q54 0 95 -14.5t73 -29t65 -14.5q61 0 111 70z" />
    <glyph glyph-name="uni00A0" unicode="&#xa0;" horiz-adv-x="532" 
 />
    <glyph glyph-name="exclamdown" unicode="&#xa1;" horiz-adv-x="542" 
d="M397 -410h-252v457l21 498h211l20 -498v-457zM397 711h-252v252h252v-252z" />
    <glyph glyph-name="cent" unicode="&#xa2;" horiz-adv-x="899" 
d="M827 61q-114 -61 -223 -75v-224h-194v228q-51 10 -95.5 30.5t-86.5 58.5t-71 90t-47 129.5t-18 172.5q0 115 26 205t71.5 148t100 93.5t120.5 51.5v231h194v-221q52 -6 100.5 -20.5t69 -24t53.5 -27.5v-284h-172v155q-3 1 -18 5.5t-24.5 6.5t-30 4.5t-43.5 2.5
q-87 0 -150 -78.5t-63 -241.5q0 -164 55.5 -236.5t140.5 -72.5q24 0 48.5 4t37 8t29.5 10.5t18 6.5v161h172v-297z" />
    <glyph glyph-name="sterling" unicode="&#xa3;" horiz-adv-x="937" 
d="M856 0h-795v170q70 85 107 191.5t37 265.5h-144v172h144v139q0 192 100.5 289.5t263.5 97.5q94 0 157.5 -15t129.5 -46v-285h-172v147q-54 13 -106 13q-72 0 -112 -51.5t-40 -147.5v-141h268v-172h-268q0 -167 -28.5 -268t-92.5 -177h379v170h172v-352z" />
    <glyph glyph-name="currency" unicode="&#xa4;" 
d="M971 342l-86 -86l-154 152q-71 -46 -158 -46q-86 0 -157 46l-154 -154l-86 86l152 152q-52 74 -52 167q0 87 46 158l-146 148l86 86l146 -146q77 51 165 51q93 0 166 -51l146 144l86 -86l-146 -148q43 -67 43 -156q0 -91 -49 -165zM745 659q0 77 -49.5 128t-122.5 51
t-123.5 -51t-50.5 -128t50.5 -127.5t123.5 -50.5t122.5 50.5t49.5 127.5z" />
    <glyph glyph-name="yen" unicode="&#xa5;" horiz-adv-x="1099" 
d="M1069 1133h-113l-202 -426h196v-164h-272l-19 -113h291v-164h-293v-94h177v-172h-582v172h174v94h-291v164h289l-16 113h-273v164h201l-191 426h-114v172h469v-172h-109l158 -365l160 365h-103v172h463v-172z" />
    <glyph glyph-name="brokenbar" unicode="&#xa6;" horiz-adv-x="512" 
d="M367 838h-222v692h222v-692zM367 -168h-222v692h222v-692z" />
    <glyph glyph-name="section" unicode="&#xa7;" horiz-adv-x="841" 
d="M770 651q0 -142 -135 -217q110 -74 110 -229q0 -77 -25.5 -133.5t-72 -89.5t-105.5 -48.5t-132 -15.5q-156 0 -322 68v293h172v-156q67 -23 133 -23q59 0 92 25.5t33 71.5q0 49 -30.5 74.5t-94.5 47.5l-94 33q-36 13 -62 24.5t-59.5 32.5t-54.5 45t-36 60.5t-15 79.5
q0 146 145 215q-53 34 -86 85t-33 140q0 77 28.5 135t78 91t107.5 49t124 16q138 0 305 -53v-287h-172v141q-87 17 -120 17q-55 0 -89 -24t-34 -70q0 -24 7.5 -40.5t28 -29.5t33.5 -19t45 -18l107 -39q107 -39 165 -95t58 -157zM557 602q0 39 -20.5 63.5t-65.5 39.5l-133 47
q-51 -44 -51 -101q0 -24 7.5 -41t26 -29t31 -18t39.5 -16l119 -43q47 38 47 98z" />
    <glyph glyph-name="dieresis" unicode="&#xa8;" horiz-adv-x="700" 
d="M639 1174h-213v210h213v-210zM272 1174h-211v210h211v-210z" />
    <glyph glyph-name="copyright" unicode="&#xa9;" horiz-adv-x="1601" 
d="M1513 684q0 -142 -36.5 -261t-102 -203.5t-155 -143.5t-195 -87t-223.5 -28q-148 0 -276 45.5t-226 133t-154.5 227.5t-56.5 317q0 175 56.5 314.5t154.5 227t226 133.5t276 46t275.5 -45.5t226 -133t154.5 -227t56 -315.5zM1272 684q0 254 -130.5 391t-340.5 137
t-340.5 -137t-130.5 -391t130.5 -392t340.5 -138q214 0 342.5 137t128.5 393zM1073 358q-35 -27 -64 -45t-84 -35.5t-116 -17.5q-69 0 -127.5 22.5t-108 69.5t-78 131.5t-28.5 198.5q0 106 28.5 189t77.5 133.5t112 76t136 25.5q58 0 112.5 -17.5t79 -32.5t58.5 -40
l-59 -125q-56 33 -95.5 48t-85.5 15q-71 0 -124.5 -66t-53.5 -206q0 -145 49 -206.5t119 -61.5q84 0 183 67z" />
    <glyph glyph-name="ordfeminine" unicode="&#xaa;" horiz-adv-x="831" 
d="M743 582h-219v65q-87 -82 -182 -82q-48 0 -91 12.5t-81 39t-60 75.5t-22 115q0 260 336 260h100v29q0 56 -21.5 78t-74.5 22q-79 0 -244 -61l-45 163q95 44 168 66t156 22q280 0 280 -274v-530zM743 0h-614v203h614v-203zM524 788v150h-86q-123 0 -123 -109
q0 -45 22 -68.5t58 -23.5q62 0 129 51z" />
    <glyph glyph-name="guillemotleft" unicode="&#xab;" horiz-adv-x="995" 
d="M934 242l-160 -97l-301 418l301 418l160 -96l-215 -322zM522 242l-160 -97l-301 418l301 418l160 -96l-215 -322z" />
    <glyph glyph-name="logicalnot" unicode="&#xac;" horiz-adv-x="1030" 
d="M936 250h-201v278h-641v193h842v-471z" />
    <glyph glyph-name="uni00AD" unicode="&#xad;" horiz-adv-x="544" 
d="M483 504h-422v196h422v-196z" />
    <glyph glyph-name="registered" unicode="&#xae;" horiz-adv-x="1601" 
d="M1513 684q0 -142 -36.5 -261t-102 -203.5t-155 -143.5t-195 -87t-223.5 -28q-148 0 -276 45.5t-226 133t-154.5 227.5t-56.5 317q0 175 56.5 314.5t154.5 227t226 133.5t276 46t275.5 -45.5t226 -133t154.5 -227t56 -315.5zM1272 684q0 254 -130.5 391t-340.5 137
t-340.5 -137t-130.5 -391t130.5 -392t340.5 -138q214 0 342.5 137t128.5 393zM1143 305l-185 -37l-192 318h-29v-310h-180v822h227q58 0 107.5 -12t93.5 -39.5t69 -78.5t25 -122q0 -167 -137 -230zM893 842q0 61 -27.5 85.5t-85.5 24.5h-43v-225h41q57 0 86 24t29 91z" />
    <glyph glyph-name="macron" unicode="&#xaf;" horiz-adv-x="552" 
d="M512 1202h-471v182h471v-182z" />
    <glyph glyph-name="degree" unicode="&#xb0;" horiz-adv-x="839" 
d="M772 1036q0 -93 -29 -162.5t-80 -109t-111.5 -58t-131.5 -18.5t-131.5 18.5t-111.5 58t-80 109t-29 162.5t29 163t80 109.5t111.5 58.5t131.5 19t131.5 -19t111.5 -58.5t80 -109.5t29 -163zM539 1036q0 102 -31.5 142.5t-87.5 40.5q-121 0 -121 -183q0 -101 32.5 -140.5
t88.5 -39.5t87.5 39.5t31.5 140.5z" />
    <glyph glyph-name="plusminus" unicode="&#xb1;" horiz-adv-x="937" 
d="M844 537h-275v-248h-200v248h-275v192h275v297h200v-297h275v-192zM844 0h-750v203h750v-203z" />
    <glyph glyph-name="twosuperior" unicode="&#xb2;" horiz-adv-x="575" 
d="M530 596h-489q0 106 25 185t100 149l76 71q69 65 90.5 99t21.5 78q0 38 -25 57.5t-65 19.5q-43 0 -92 -18v-96h-117v186q104 53 230 53q115 0 181 -50t66 -156q0 -73 -39.5 -132.5t-115.5 -130.5l-74 -71q-19 -19 -30 -32t-22 -35t-11 -44h174v94h116v-227z" />
    <glyph glyph-name="threesuperior" unicode="&#xb3;" horiz-adv-x="538" 
d="M41 627v196h117v-104q41 -14 92 -14q48 0 74 27t26 73q0 71 -39.5 97t-115.5 26h-45v125h45q64 0 98.5 33.5t34.5 82.5q0 86 -88 86q-30 0 -80 -16v-98h-117v192q110 47 217 47q115 0 176.5 -48t61.5 -140q0 -142 -136 -193q73 -12 115.5 -63.5t42.5 -130.5
q0 -111 -67 -167t-183 -56q-122 0 -229 45z" />
    <glyph glyph-name="acute" unicode="&#xb4;" horiz-adv-x="475" 
d="M424 1427l-150 -276h-223l121 276h252z" />
    <glyph glyph-name="uni00B5" unicode="&#xb5;" horiz-adv-x="1085" 
d="M1055 10q-81 -30 -156 -30q-155 0 -178 145q-55 -60 -128 -101.5t-140 -41.5q-16 0 -66 4v-224h201v-172h-557v172h135v1029h-135v172h356v-652q0 -66 21.5 -98.5t74.5 -32.5q94 0 217 107v504h-135v172h357v-738q0 -59 53 -59q35 0 80 18v-174z" />
    <glyph glyph-name="paragraph" unicode="&#xb6;" horiz-adv-x="1165" 
d="M629 0h-385v172h164v426q-153 19 -239.5 117t-86.5 256q0 101 35.5 178.5t98 124t142 69.5t174.5 23h97v-1366zM1135 0h-357v1366h357v-172h-136v-1022h136v-172z" />
    <glyph glyph-name="periodcentered" unicode="&#xb7;" horiz-adv-x="520" 
d="M387 567h-254v254h254v-254z" />
    <glyph glyph-name="cedilla" unicode="&#xb8;" horiz-adv-x="370" 
d="M309 -289l-59 -231l-160 26l39 195h-68v238h248v-228z" />
    <glyph glyph-name="onesuperior" unicode="&#xb9;" horiz-adv-x="458" 
d="M53 596v119h113v467l-119 -25l-12 107l192 102h107v-651h112v-119h-393z" />
    <glyph glyph-name="ordmasculine" unicode="&#xba;" horiz-adv-x="933" 
d="M846 975q0 -102 -30 -181.5t-82 -128.5t-120 -74.5t-147 -25.5t-147 25.5t-120 74.5t-82 128.5t-30 181.5q0 200 106.5 305.5t272.5 105.5q78 0 146 -25.5t120.5 -75t82.5 -129t30 -181.5zM805 0h-676v203h676v-203zM608 975q0 233 -141 233t-141 -233q0 -232 141 -232
t141 232z" />
    <glyph glyph-name="guillemotright" unicode="&#xbb;" horiz-adv-x="995" 
d="M934 563l-301 -418l-160 97l215 321l-215 322l160 96zM522 563l-301 -418l-160 97l215 321l-215 322l160 96z" />
    <glyph glyph-name="onequarter" unicode="&#xbc;" horiz-adv-x="1581" 
d="M1292 0v141h-319v138l307 491h178v-491h96v-138h-96v-141h-166zM1114 279h178v280zM53 596v119h113v467l-119 -25l-12 107l192 102h107v-651h112v-119h-393zM481 6l363 1380l184 -32l-364 -1381z" />
    <glyph glyph-name="onehalf" unicode="&#xbd;" horiz-adv-x="1583" 
d="M53 596v119h113v467l-119 -25l-12 107l192 102h107v-651h112v-119h-393zM481 6l363 1380l184 -32l-364 -1381zM1538 0h-489q0 106 25 185t100 149l75 72q70 66 91.5 99.5t21.5 76.5q0 38 -25 57.5t-65 19.5q-43 0 -92 -18v-96h-117v186q104 53 229 53q115 0 181.5 -50
t66.5 -156q0 -72 -39.5 -132t-116.5 -131l-73 -71q-20 -20 -30.5 -32t-22 -34.5t-11.5 -44.5h174v94h117v-227z" />
    <glyph glyph-name="threequarters" unicode="&#xbe;" horiz-adv-x="1622" 
d="M520 6l365 1380l184 -32l-364 -1381zM41 627v196h117v-104q41 -14 92 -14q48 0 74 27t26 73q0 71 -39.5 97t-115.5 26h-45v125h45q64 0 98.5 33.5t34.5 82.5q0 86 -88 86q-30 0 -80 -16v-98h-117v192q110 47 217 47q115 0 176.5 -48t61.5 -140q0 -142 -136 -193
q73 -12 115.5 -63.5t42.5 -130.5q0 -111 -67 -167t-183 -56q-122 0 -229 45zM1333 0v141h-319v138l307 491h178v-491h96v-138h-96v-141h-166zM1155 279h178v280z" />
    <glyph glyph-name="questiondown" unicode="&#xbf;" horiz-adv-x="888" 
d="M801 -360q-4 -1 -31.5 -11t-44 -15.5t-51 -15t-64 -15t-69.5 -9.5t-80 -4q-77 0 -142 18t-118 55.5t-83 103.5t-30 155q0 60 11 108.5t35.5 89t40 60.5t48.5 57q9 10 37 39t39 43t28.5 41t24 54.5t6.5 60.5q0 18 -4 90h232q6 -76 6 -107q0 -98 -35.5 -167.5
t-114.5 -155.5q-36 -40 -53 -62t-33 -61t-16 -82q0 -70 39 -109t110 -39q25 0 49.5 3.5t38.5 7t31.5 8.5t22.5 6v150h170v-297zM596 711h-252v252h252v-252z" />
    <glyph glyph-name="Agrave" unicode="&#xc0;" horiz-adv-x="1261" 
d="M1231 0h-305l-99 365h-391l-53 -193h121v-172h-473v172h114l293 1022h-131v172h467l346 -1194h111v-172zM782 557l-153 580l-150 -580h303zM727 1427h-221l-131 215h254z" />
    <glyph glyph-name="Aacute" unicode="&#xc1;" horiz-adv-x="1261" 
d="M1231 0h-305l-99 365h-391l-53 -193h121v-172h-473v172h114l293 1022h-131v172h467l346 -1194h111v-172zM782 557l-153 580l-150 -580h303zM872 1642l-129 -215h-223l101 215h251z" />
    <glyph glyph-name="Acircumflex" unicode="&#xc2;" horiz-adv-x="1261" 
d="M1231 0h-305l-99 365h-391l-53 -193h121v-172h-473v172h114l293 1022h-131v172h467l346 -1194h111v-172zM782 557l-153 580l-150 -580h303zM965 1427h-271l-63 80l-68 -80h-266l184 215h299z" />
    <glyph glyph-name="Atilde" unicode="&#xc3;" horiz-adv-x="1261" 
d="M1231 0h-305l-99 365h-391l-53 -193h121v-172h-473v172h114l293 1022h-131v172h467l346 -1194h111v-172zM782 557l-153 580l-150 -580h303zM924 1620q-24 -71 -70 -121.5t-113 -50.5q-53 0 -113 24.5t-89 24.5q-65 0 -107 -49l-94 78q24 70 73.5 121t118.5 51
q60 0 117.5 -24.5t85.5 -24.5q55 0 96 47z" />
    <glyph glyph-name="Adieresis" unicode="&#xc4;" horiz-adv-x="1261" 
d="M1231 0h-305l-99 365h-391l-53 -193h121v-172h-473v172h114l293 1022h-131v172h467l346 -1194h111v-172zM782 557l-153 580l-150 -580h303zM551 1427h-211v211h211v-211zM918 1427h-211v211h211v-211z" />
    <glyph glyph-name="Aring" unicode="&#xc5;" horiz-adv-x="1261" 
d="M1231 0h-305l-99 365h-391l-53 -193h121v-172h-473v172h114l308 1069q-70 61 -70 172q0 106 65.5 164.5t184.5 58.5q117 0 182.5 -59.5t65.5 -163.5q0 -111 -70 -172l309 -1069h111v-172zM782 557l-153 580l-150 -580h303zM705 1413q0 100 -72 100q-76 0 -76 -102
q0 -100 76 -100q72 0 72 102z" />
    <glyph glyph-name="AE" unicode="&#xc6;" horiz-adv-x="1619" 
d="M1548 0h-747v365h-324l-82 -193h117v-172h-481v172h114l451 1022h-180v172h1132v-367h-170v175h-344v-383h385v-191h-385v-407h344v184h170v-377zM801 557v614l-254 -614h254z" />
    <glyph glyph-name="Ccedilla" unicode="&#xc7;" horiz-adv-x="1095" 
d="M1024 74q-93 -46 -183 -70t-216 -24q-84 0 -158.5 21t-144.5 72t-120 129.5t-80 201t-30 278.5q0 145 29.5 263.5t80.5 199t122 136t152 80.5t171 25q110 0 196 -19t181 -60v-308h-172v160q-100 33 -195 33q-63 0 -118.5 -29t-102 -87.5t-73.5 -160t-27 -233.5
q0 -137 25.5 -238t70 -157t97 -82.5t114.5 -26.5q115 0 209 41v158h172v-303zM739 -289l-59 -231l-160 26l39 195h-67v238h247v-228z" />
    <glyph glyph-name="Egrave" unicode="&#xc8;" horiz-adv-x="1046" 
d="M975 0h-944v172h135v1022h-135v172h944v-367h-172v175h-406v-383h426v-191h-426v-407h406v184h172v-377zM657 1427h-221l-131 215h254z" />
    <glyph glyph-name="Eacute" unicode="&#xc9;" horiz-adv-x="1046" 
d="M975 0h-944v172h135v1022h-135v172h944v-367h-172v175h-406v-383h426v-191h-426v-407h406v184h172v-377zM780 1642l-129 -215h-223l100 215h252z" />
    <glyph glyph-name="Ecircumflex" unicode="&#xca;" horiz-adv-x="1046" 
d="M975 0h-944v172h135v1022h-135v172h944v-367h-172v175h-406v-383h426v-191h-426v-407h406v184h172v-377zM883 1427h-271l-63 80l-68 -80h-266l184 215h299z" />
    <glyph glyph-name="Edieresis" unicode="&#xcb;" horiz-adv-x="1046" 
d="M975 0h-944v172h135v1022h-135v172h944v-367h-172v175h-406v-383h426v-191h-426v-407h406v184h172v-377zM444 1427h-211v211h211v-211zM811 1427h-211v211h211v-211z" />
    <glyph glyph-name="Igrave" unicode="&#xcc;" horiz-adv-x="561" 
d="M530 0h-499v172h135v1022h-135v172h499v-172h-133v-1022h133v-172zM395 1427h-221l-131 215h254z" />
    <glyph glyph-name="Iacute" unicode="&#xcd;" horiz-adv-x="561" 
d="M530 0h-499v172h135v1022h-135v172h499v-172h-133v-1022h133v-172zM526 1642l-129 -215h-223l100 215h252z" />
    <glyph glyph-name="Icircumflex" unicode="&#xce;" horiz-adv-x="561" 
d="M530 0h-499v172h135v1022h-135v172h499v-172h-133v-1022h133v-172zM614 1427h-270l-63 80l-68 -80h-266l184 215h299z" />
    <glyph glyph-name="Idieresis" unicode="&#xcf;" horiz-adv-x="561" 
d="M530 0h-499v172h135v1022h-135v172h499v-172h-133v-1022h133v-172zM201 1427h-211v211h211v-211zM567 1427h-211v211h211v-211z" />
    <glyph glyph-name="Eth" unicode="&#xd0;" horiz-adv-x="1257" 
d="M1165 682q0 -152 -33 -270t-91 -195t-142.5 -126.5t-181.5 -70t-215 -20.5h-471v172h135v428h-82v191h82v403h-135v172h506q110 0 202 -22t172.5 -72.5t135.5 -128t86.5 -194.5t31.5 -267zM924 682q0 263 -103.5 377.5t-296.5 114.5h-127v-383h312v-191h-312v-407h99
q221 0 324.5 116.5t103.5 372.5z" />
    <glyph glyph-name="Ntilde" unicode="&#xd1;" horiz-adv-x="1310" 
d="M1280 1194h-133v-1194h-232l-518 965v-793h140v-172h-506v172h135v1022h-135v172h407l477 -889v717h-139v172h504v-172zM948 1620q-24 -72 -69.5 -122t-112.5 -50q-53 0 -113.5 24.5t-89.5 24.5q-64 0 -106 -49l-95 78q23 69 73.5 120.5t119.5 51.5q60 0 117.5 -24.5
t85.5 -24.5q55 0 96 47z" />
    <glyph glyph-name="Ograve" unicode="&#xd2;" horiz-adv-x="1320" 
d="M1233 682q0 -174 -42 -309t-118.5 -220t-180 -129t-230.5 -44q-260 0 -417 179.5t-157 522.5q0 173 43 308.5t120.5 221.5t181.5 130t229 44q258 0 414.5 -181t156.5 -523zM991 682q0 257 -91 387.5t-238 130.5q-148 0 -240 -130.5t-92 -387.5q0 -256 91.5 -383
t240.5 -127q148 0 238.5 127t90.5 383zM766 1427h-221l-131 215h254z" />
    <glyph glyph-name="Oacute" unicode="&#xd3;" horiz-adv-x="1320" 
d="M1233 682q0 -174 -42 -309t-118.5 -220t-180 -129t-230.5 -44q-260 0 -417 179.5t-157 522.5q0 173 43 308.5t120.5 221.5t181.5 130t229 44q258 0 414.5 -181t156.5 -523zM991 682q0 257 -91 387.5t-238 130.5q-148 0 -240 -130.5t-92 -387.5q0 -256 91.5 -383
t240.5 -127q148 0 238.5 127t90.5 383zM893 1642l-129 -215h-223l100 215h252z" />
    <glyph glyph-name="Ocircumflex" unicode="&#xd4;" horiz-adv-x="1320" 
d="M1233 682q0 -174 -42 -309t-118.5 -220t-180 -129t-230.5 -44q-260 0 -417 179.5t-157 522.5q0 173 43 308.5t120.5 221.5t181.5 130t229 44q258 0 414.5 -181t156.5 -523zM991 682q0 257 -91 387.5t-238 130.5q-148 0 -240 -130.5t-92 -387.5q0 -256 91.5 -383
t240.5 -127q148 0 238.5 127t90.5 383zM995 1427h-270l-63 80l-68 -80h-266l184 215h299z" />
    <glyph glyph-name="Otilde" unicode="&#xd5;" horiz-adv-x="1320" 
d="M1233 682q0 -174 -42 -309t-118.5 -220t-180 -129t-230.5 -44q-260 0 -417 179.5t-157 522.5q0 173 43 308.5t120.5 221.5t181.5 130t229 44q258 0 414.5 -181t156.5 -523zM991 682q0 257 -91 387.5t-238 130.5q-148 0 -240 -130.5t-92 -387.5q0 -256 91.5 -383
t240.5 -127q148 0 238.5 127t90.5 383zM954 1620q-24 -72 -69.5 -122t-112.5 -50q-53 0 -113.5 24.5t-89.5 24.5q-64 0 -106 -49l-94 78q24 70 73.5 121t118.5 51q60 0 117.5 -24.5t85.5 -24.5q55 0 96 47z" />
    <glyph glyph-name="Odieresis" unicode="&#xd6;" horiz-adv-x="1320" 
d="M1233 682q0 -174 -42 -309t-118.5 -220t-180 -129t-230.5 -44q-260 0 -417 179.5t-157 522.5q0 173 43 308.5t120.5 221.5t181.5 130t229 44q258 0 414.5 -181t156.5 -523zM991 682q0 257 -91 387.5t-238 130.5q-148 0 -240 -130.5t-92 -387.5q0 -256 91.5 -383
t240.5 -127q148 0 238.5 127t90.5 383zM520 1427h-211v211h211v-211zM1010 1427h-211v211h211v-211z" />
    <glyph glyph-name="multiply" unicode="&#xd7;" horiz-adv-x="907" 
d="M223 244l-137 137l229 229l-229 230l139 139l230 -229l229 229l135 -137l-225 -230l227 -229l-139 -141l-229 233z" />
    <glyph glyph-name="Oslash" unicode="&#xd8;" horiz-adv-x="1331" 
d="M1243 1425l-153 -229q147 -183 147 -514q0 -174 -42 -309t-118.5 -220t-180 -129t-230.5 -44q-186 0 -322 92l-133 -201l-123 72l150 229q-146 186 -146 510q0 173 43 308.5t120.5 221.5t181.5 130t229 44q181 0 315 -90l131 201zM995 682q0 178 -49 301l-481 -731
q80 -80 201 -80q147 0 238 127t91 383zM862 1118q-82 82 -196 82q-147 0 -239.5 -131t-92.5 -387q0 -172 47 -295z" />
    <glyph glyph-name="Ugrave" unicode="&#xd9;" horiz-adv-x="1269" 
d="M1239 1194h-135v-733q0 -249 -125 -365t-344 -116q-104 0 -187.5 26.5t-147.5 82t-99 150t-35 222.5v733h-135v172h506v-172h-140v-723q0 -146 63 -218.5t175 -72.5q111 0 174 71t63 218v725h-139v172h506v-172zM743 1427h-221l-131 215h254z" />
    <glyph glyph-name="Uacute" unicode="&#xda;" horiz-adv-x="1269" 
d="M1239 1194h-135v-733q0 -249 -125 -365t-344 -116q-104 0 -187.5 26.5t-147.5 82t-99 150t-35 222.5v733h-135v172h506v-172h-140v-723q0 -146 63 -218.5t175 -72.5q111 0 174 71t63 218v725h-139v172h506v-172zM881 1642l-129 -215h-224l101 215h252z" />
    <glyph glyph-name="Ucircumflex" unicode="&#xdb;" horiz-adv-x="1269" 
d="M1239 1194h-135v-733q0 -249 -125 -365t-344 -116q-104 0 -187.5 26.5t-147.5 82t-99 150t-35 222.5v733h-135v172h506v-172h-140v-723q0 -146 63 -218.5t175 -72.5q111 0 174 71t63 218v725h-139v172h506v-172zM969 1427h-271l-63 80l-68 -80h-266l184 215h299z" />
    <glyph glyph-name="Udieresis" unicode="&#xdc;" horiz-adv-x="1269" 
d="M1239 1194h-135v-733q0 -249 -125 -365t-344 -116q-104 0 -187.5 26.5t-147.5 82t-99 150t-35 222.5v733h-135v172h506v-172h-140v-723q0 -146 63 -218.5t175 -72.5q111 0 174 71t63 218v725h-139v172h506v-172zM555 1427h-211v211h211v-211zM922 1427h-211v211h211v-211
z" />
    <glyph glyph-name="Yacute" unicode="&#xdd;" horiz-adv-x="1099" 
d="M1069 1194h-113l-299 -690v-332h177v-172h-582v172h174v332l-281 690h-114v172h469v-172h-109l158 -426l164 426h-107v172h463v-172zM791 1642l-129 -215h-224l101 215h252z" />
    <glyph glyph-name="Thorn" unicode="&#xde;" horiz-adv-x="1050" 
d="M969 705q0 -118 -37.5 -203t-103.5 -132t-144 -68t-172 -21h-115v-109h133v-172h-499v172h135v1022h-135v172h499v-172h-133v-84h115q75 0 138.5 -11.5t123.5 -40t102 -73.5t67.5 -116.5t25.5 -163.5zM727 698q0 124 -56.5 177t-166.5 53h-107v-465h105q106 0 165.5 52
t59.5 183z" />
    <glyph glyph-name="germandbls" unicode="&#xdf;" horiz-adv-x="1128" 
d="M1067 272q0 -80 -25.5 -138.5t-70 -91t-98 -47.5t-117.5 -15q-148 0 -285 49v301h170v-156q54 -12 100 -12q44 0 70.5 25t26.5 71q0 29 -12.5 53.5t-26 38t-41.5 35.5l-76 59q-63 49 -99 101.5t-36 130.5q0 41 6.5 75.5t24 70t29 54.5t38.5 60q22 34 34 55.5t23 58
t11 74.5q0 62 -40 100t-120 38q-84 0 -125 -54t-41 -133v-1075h-356v172h135v619h-135v172h135v108q0 184 98.5 280.5t298.5 96.5q172 0 276.5 -85.5t104.5 -219.5q0 -87 -22 -143.5t-60 -108.5q-7 -9 -27 -35t-27 -36t-18.5 -29t-15.5 -34t-4 -30q0 -21 10.5 -40.5t23 -31
t38.5 -32.5l80 -64q44 -35 71.5 -65.5t50.5 -89t23 -132.5z" />
    <glyph glyph-name="agrave" unicode="&#xe0;" horiz-adv-x="1001" 
d="M971 10q-63 -30 -158 -30q-139 0 -172 116q-112 -116 -276 -116q-57 0 -106.5 14.5t-93 46t-68.5 89t-25 136.5q0 88 30.5 152t86 100t124 53t152.5 17h149v47q0 83 -33.5 119.5t-109.5 36.5q-21 0 -42.5 -2t-40.5 -5.5t-31 -6t-28 -6.5t-18 -5v-123h-172v266
q121 40 199 57t176 17q322 0 322 -328v-430q0 -59 53 -59q37 0 82 18v-174zM614 244v205h-131q-86 0 -132 -39t-46 -115q0 -71 33 -105t90 -34q36 0 75 16.5t59.5 31.5t51.5 40zM608 1151h-221l-151 276h253z" />
    <glyph glyph-name="aacute" unicode="&#xe1;" horiz-adv-x="1001" 
d="M971 10q-63 -30 -158 -30q-139 0 -172 116q-112 -116 -276 -116q-57 0 -106.5 14.5t-93 46t-68.5 89t-25 136.5q0 88 30.5 152t86 100t124 53t152.5 17h149v47q0 83 -33.5 119.5t-109.5 36.5q-21 0 -42.5 -2t-40.5 -5.5t-31 -6t-28 -6.5t-18 -5v-123h-172v266
q121 40 199 57t176 17q322 0 322 -328v-430q0 -59 53 -59q37 0 82 18v-174zM614 244v205h-131q-86 0 -132 -39t-46 -115q0 -71 33 -105t90 -34q36 0 75 16.5t59.5 31.5t51.5 40zM733 1427l-149 -276h-224l121 276h252z" />
    <glyph glyph-name="acircumflex" unicode="&#xe2;" horiz-adv-x="1001" 
d="M971 10q-63 -30 -158 -30q-139 0 -172 116q-112 -116 -276 -116q-57 0 -106.5 14.5t-93 46t-68.5 89t-25 136.5q0 88 30.5 152t86 100t124 53t152.5 17h149v47q0 83 -33.5 119.5t-109.5 36.5q-21 0 -42.5 -2t-40.5 -5.5t-31 -6t-28 -6.5t-18 -5v-123h-172v266
q121 40 199 57t176 17q322 0 322 -328v-430q0 -59 53 -59q37 0 82 18v-174zM614 244v205h-131q-86 0 -132 -39t-46 -115q0 -71 33 -105t90 -34q36 0 75 16.5t59.5 31.5t51.5 40zM813 1151h-250l-84 141l-88 -141h-246l185 276h299z" />
    <glyph glyph-name="atilde" unicode="&#xe3;" horiz-adv-x="1001" 
d="M971 10q-63 -30 -158 -30q-139 0 -172 116q-112 -116 -276 -116q-57 0 -106.5 14.5t-93 46t-68.5 89t-25 136.5q0 88 30.5 152t86 100t124 53t152.5 17h149v47q0 83 -33.5 119.5t-109.5 36.5q-21 0 -42.5 -2t-40.5 -5.5t-31 -6t-28 -6.5t-18 -5v-123h-172v266
q121 40 199 57t176 17q322 0 322 -328v-430q0 -59 53 -59q37 0 82 18v-174zM614 244v205h-131q-86 0 -132 -39t-46 -115q0 -71 33 -105t90 -34q36 0 75 16.5t59.5 31.5t51.5 40zM752 1327q-24 -71 -70 -121.5t-113 -50.5q-53 0 -113 24.5t-89 24.5q-65 0 -107 -49l-94 78
q24 70 73.5 121t118.5 51q60 0 117.5 -24.5t85.5 -24.5q55 0 96 47z" />
    <glyph glyph-name="adieresis" unicode="&#xe4;" horiz-adv-x="1001" 
d="M971 10q-63 -30 -158 -30q-139 0 -172 116q-112 -116 -276 -116q-57 0 -106.5 14.5t-93 46t-68.5 89t-25 136.5q0 88 30.5 152t86 100t124 53t152.5 17h149v47q0 83 -33.5 119.5t-109.5 36.5q-21 0 -42.5 -2t-40.5 -5.5t-31 -6t-28 -6.5t-18 -5v-123h-172v266
q121 40 199 57t176 17q322 0 322 -328v-430q0 -59 53 -59q37 0 82 18v-174zM614 244v205h-131q-86 0 -132 -39t-46 -115q0 -71 33 -105t90 -34q36 0 75 16.5t59.5 31.5t51.5 40zM393 1174h-211v210h211v-210zM760 1174h-211v210h211v-210z" />
    <glyph glyph-name="aring" unicode="&#xe5;" horiz-adv-x="1001" 
d="M971 10q-63 -30 -158 -30q-139 0 -172 116q-112 -116 -276 -116q-57 0 -106.5 14.5t-93 46t-68.5 89t-25 136.5q0 88 30.5 152t86 100t124 53t152.5 17h149v47q0 83 -33.5 119.5t-109.5 36.5q-21 0 -42.5 -2t-40.5 -5.5t-31 -6t-28 -6.5t-18 -5v-123h-172v266
q121 40 199 57t176 17q322 0 322 -328v-430q0 -59 53 -59q37 0 82 18v-174zM614 244v205h-131q-86 0 -132 -39t-46 -115q0 -71 33 -105t90 -34q36 0 75 16.5t59.5 31.5t51.5 40zM729 1331q0 -107 -64.5 -167t-183.5 -60q-118 0 -184 60.5t-66 166.5t65.5 164.5t184.5 58.5
q117 0 182.5 -59.5t65.5 -163.5zM553 1331q0 101 -72 101q-75 0 -75 -103q0 -100 75 -100q72 0 72 102z" />
    <glyph glyph-name="ae" unicode="&#xe6;" horiz-adv-x="1492" 
d="M1405 395h-557q7 -107 59.5 -167t136.5 -60q117 0 267 96l78 -151q-35 -26 -50.5 -37.5t-54 -34t-69 -33t-78 -19.5t-99.5 -9q-237 0 -333 172q-29 -39 -56 -65.5t-66 -53t-90.5 -40t-115.5 -13.5q-61 0 -112.5 14.5t-96.5 46t-70.5 89t-25.5 136.5q0 88 30.5 152t86 100
t124 53t152.5 17h149v47q0 83 -33.5 119.5t-109.5 36.5q-21 0 -42.5 -2t-40.5 -5.5t-31 -6t-28 -6.5t-18 -5v-123h-172v266q215 74 375 74q104 0 160.5 -31t89.5 -84q47 54 105 84.5t149 30.5q197 0 292 -143.5t95 -444.5zM614 352v97h-131q-86 0 -132 -39t-46 -115
q0 -71 34.5 -105t92.5 -34q76 0 129 54t53 142zM1169 547q0 121 -36 193.5t-115 72.5q-82 0 -122 -65t-48 -201h321z" />
    <glyph glyph-name="ccedilla" unicode="&#xe7;" horiz-adv-x="899" 
d="M827 61q-75 -38 -147 -59.5t-170 -21.5q-61 0 -116.5 12.5t-112 47t-97.5 87.5t-66.5 141.5t-25.5 202.5q0 112 25.5 201.5t67 146.5t98.5 95t116 53.5t123 15.5q93 0 162 -19.5t143 -56.5v-284h-172v155q-3 1 -18 5.5t-24.5 6.5t-30 4.5t-43.5 2.5q-87 0 -150 -78.5
t-63 -241.5q0 -164 55.5 -236.5t140.5 -72.5q24 0 48.5 4t37 8t29.5 10.5t18 6.5v161h172v-297zM627 -289l-60 -231l-159 26l38 195h-67v238h248v-228z" />
    <glyph glyph-name="egrave" unicode="&#xe8;" horiz-adv-x="970" 
d="M883 395h-555q7 -107 59 -167t135 -60q116 0 266 96l80 -151q-80 -63 -159 -98t-193 -35q-90 0 -163.5 25.5t-133.5 81.5t-93.5 155t-33.5 235q0 246 110.5 376t293.5 130q197 0 292 -143.5t95 -444.5zM647 547q0 121 -36 193.5t-115 72.5q-82 0 -121 -65t-47 -201h319z
M598 1151h-221l-152 276h254z" />
    <glyph glyph-name="eacute" unicode="&#xe9;" horiz-adv-x="970" 
d="M883 395h-555q7 -107 59 -167t135 -60q116 0 266 96l80 -151q-80 -63 -159 -98t-193 -35q-90 0 -163.5 25.5t-133.5 81.5t-93.5 155t-33.5 235q0 246 110.5 376t293.5 130q197 0 292 -143.5t95 -444.5zM647 547q0 121 -36 193.5t-115 72.5q-82 0 -121 -65t-47 -201h319z
M741 1427l-149 -276h-223l120 276h252z" />
    <glyph glyph-name="ecircumflex" unicode="&#xea;" horiz-adv-x="970" 
d="M883 395h-555q7 -107 59 -167t135 -60q116 0 266 96l80 -151q-80 -63 -159 -98t-193 -35q-90 0 -163.5 25.5t-133.5 81.5t-93.5 155t-33.5 235q0 246 110.5 376t293.5 130q197 0 292 -143.5t95 -444.5zM647 547q0 121 -36 193.5t-115 72.5q-82 0 -121 -65t-47 -201h319z
M819 1151h-250l-84 141l-88 -141h-245l184 276h299z" />
    <glyph glyph-name="edieresis" unicode="&#xeb;" horiz-adv-x="970" 
d="M883 395h-555q7 -107 59 -167t135 -60q116 0 266 96l80 -151q-80 -63 -159 -98t-193 -35q-90 0 -163.5 25.5t-133.5 81.5t-93.5 155t-33.5 235q0 246 110.5 376t293.5 130q197 0 292 -143.5t95 -444.5zM647 547q0 121 -36 193.5t-115 72.5q-82 0 -121 -65t-47 -201h319z
M406 1174h-211v210h211v-210zM772 1174h-211v210h211v-210z" />
    <glyph glyph-name="igrave" unicode="&#xec;" horiz-adv-x="550" 
d="M520 10q-81 -30 -155 -30q-95 0 -147 53.5t-52 159.5v598h-135v172h356v-738q0 -59 53 -59q35 0 80 18v-174zM385 1151h-221l-152 276h254z" />
    <glyph glyph-name="iacute" unicode="&#xed;" horiz-adv-x="550" 
d="M520 10q-81 -30 -155 -30q-95 0 -147 53.5t-52 159.5v598h-135v172h356v-738q0 -59 53 -59q35 0 80 18v-174zM535 1427l-150 -276h-223l121 276h252z" />
    <glyph glyph-name="icircumflex" unicode="&#xee;" horiz-adv-x="550" 
d="M520 10q-81 -30 -155 -30q-95 0 -147 53.5t-52 159.5v598h-135v172h356v-738q0 -59 53 -59q35 0 80 18v-174zM610 1151h-250l-84 141l-88 -141h-245l184 276h299z" />
    <glyph glyph-name="idieresis" unicode="&#xef;" horiz-adv-x="550" 
d="M520 10q-81 -30 -155 -30q-95 0 -147 53.5t-52 159.5v598h-135v172h356v-738q0 -59 53 -59q35 0 80 18v-174zM217 1174h-211v210h211v-210zM543 1174h-211v210h211v-210z" />
    <glyph glyph-name="eth" unicode="&#xf0;" horiz-adv-x="1040" 
d="M989 1153l-86 -35q49 -174 49 -469q0 -160 -20 -278t-55.5 -192.5t-91.5 -119t-120.5 -62t-150.5 -17.5q-194 0 -310 110.5t-116 325.5q0 120 33.5 211t90.5 143.5t125 78t144 25.5q140 0 232 -92q0 146 -19 250l-237 -96v182l176 72q-51 78 -150 78q-21 0 -43.5 -3
t-34.5 -5.5t-35.5 -8t-27.5 -6.5v-149h-172v293q96 32 168 45.5t172 13.5q224 0 328 -174l151 59v-180zM721 559v49q-30 24 -51 38.5t-66.5 31t-93.5 16.5q-86 0 -139.5 -62.5t-53.5 -199.5q0 -136 53.5 -202t149.5 -66q201 0 201 395z" />
    <glyph glyph-name="ntilde" unicode="&#xf1;" horiz-adv-x="1085" 
d="M1055 10q-81 -30 -156 -30q-95 0 -147 53.5t-52 159.5v448q0 65 -24 98t-78 33q-83 0 -211 -106v-494h139v-172h-495v172h135v619h-135v172h356v-123q61 65 129.5 104t159.5 39q113 0 179.5 -70t66.5 -211v-477q0 -59 53 -59q35 0 80 18v-174zM836 1327
q-24 -71 -70 -121.5t-113 -50.5q-53 0 -113 24.5t-89 24.5q-65 0 -107 -49l-94 78q24 70 73.5 121t118.5 51q60 0 117.5 -24.5t85.5 -24.5q55 0 96 47z" />
    <glyph glyph-name="ograve" unicode="&#xf2;" horiz-adv-x="1056" 
d="M969 481q0 -128 -34 -226t-94.5 -157t-139 -88.5t-173.5 -29.5q-96 0 -174.5 29.5t-138.5 89t-93.5 157t-33.5 225.5q0 129 33 226.5t93 157t138.5 89t175.5 29.5q95 0 174 -30t139.5 -89.5t94 -157t33.5 -225.5zM737 481q0 167 -56.5 242.5t-152.5 75.5t-152.5 -75
t-56.5 -243q0 -164 56.5 -239.5t152.5 -75.5q209 0 209 315zM641 1151h-221l-152 276h254z" />
    <glyph glyph-name="oacute" unicode="&#xf3;" horiz-adv-x="1056" 
d="M969 481q0 -128 -34 -226t-94.5 -157t-139 -88.5t-173.5 -29.5q-96 0 -174.5 29.5t-138.5 89t-93.5 157t-33.5 225.5q0 129 33 226.5t93 157t138.5 89t175.5 29.5q95 0 174 -30t139.5 -89.5t94 -157t33.5 -225.5zM737 481q0 167 -56.5 242.5t-152.5 75.5t-152.5 -75
t-56.5 -243q0 -164 56.5 -239.5t152.5 -75.5q209 0 209 315zM791 1427l-150 -276h-223l121 276h252z" />
    <glyph glyph-name="ocircumflex" unicode="&#xf4;" horiz-adv-x="1056" 
d="M969 481q0 -128 -34 -226t-94.5 -157t-139 -88.5t-173.5 -29.5q-96 0 -174.5 29.5t-138.5 89t-93.5 157t-33.5 225.5q0 129 33 226.5t93 157t138.5 89t175.5 29.5q95 0 174 -30t139.5 -89.5t94 -157t33.5 -225.5zM737 481q0 167 -56.5 242.5t-152.5 75.5t-152.5 -75
t-56.5 -243q0 -164 56.5 -239.5t152.5 -75.5q209 0 209 315zM862 1151h-250l-84 141l-88 -141h-245l184 276h299z" />
    <glyph glyph-name="otilde" unicode="&#xf5;" horiz-adv-x="1056" 
d="M969 481q0 -128 -34 -226t-94.5 -157t-139 -88.5t-173.5 -29.5q-96 0 -174.5 29.5t-138.5 89t-93.5 157t-33.5 225.5q0 129 33 226.5t93 157t138.5 89t175.5 29.5q95 0 174 -30t139.5 -89.5t94 -157t33.5 -225.5zM737 481q0 167 -56.5 242.5t-152.5 75.5t-152.5 -75
t-56.5 -243q0 -164 56.5 -239.5t152.5 -75.5q209 0 209 315zM811 1327q-24 -72 -69.5 -122t-112.5 -50q-53 0 -113.5 24.5t-89.5 24.5q-65 0 -107 -49l-94 78q23 69 73.5 120.5t119.5 51.5q60 0 117.5 -24.5t85.5 -24.5q55 0 96 47z" />
    <glyph glyph-name="odieresis" unicode="&#xf6;" horiz-adv-x="1056" 
d="M969 481q0 -128 -34 -226t-94.5 -157t-139 -88.5t-173.5 -29.5q-96 0 -174.5 29.5t-138.5 89t-93.5 157t-33.5 225.5q0 129 33 226.5t93 157t138.5 89t175.5 29.5q95 0 174 -30t139.5 -89.5t94 -157t33.5 -225.5zM737 481q0 167 -56.5 242.5t-152.5 75.5t-152.5 -75
t-56.5 -243q0 -164 56.5 -239.5t152.5 -75.5q209 0 209 315zM449 1174h-211v210h211v-210zM815 1174h-211v210h211v-210z" />
    <glyph glyph-name="divide" unicode="&#xf7;" horiz-adv-x="925" 
d="M831 528h-737v193h737v-193zM586 145h-248v248h248v-248zM586 854h-248v248h248v-248z" />
    <glyph glyph-name="oslash" unicode="&#xf8;" horiz-adv-x="1056" 
d="M969 481q0 -126 -34 -223t-94.5 -157t-139.5 -90.5t-173 -30.5q-115 0 -204 45l-95 -156l-112 63l100 168q-129 132 -129 381q0 248 121.5 375t318.5 127q114 0 201 -43l90 152l121 -64l-102 -166q131 -134 131 -381zM735 481q0 107 -22 178l-285 -466q45 -31 100 -31
q207 0 207 319zM627 774q-43 29 -99 29q-209 0 -209 -322q0 -96 25 -176z" />
    <glyph glyph-name="ugrave" unicode="&#xf9;" horiz-adv-x="1085" 
d="M1055 10q-81 -30 -156 -30q-155 0 -178 145q-134 -145 -307 -145q-115 0 -181.5 69.5t-66.5 214.5v527h-135v172h356v-652q0 -66 21.5 -98.5t74.5 -32.5q94 0 217 107v504h-135v172h357v-738q0 -59 53 -59q35 0 80 18v-174zM653 1151h-221l-151 276h254z" />
    <glyph glyph-name="uacute" unicode="&#xfa;" horiz-adv-x="1085" 
d="M1055 10q-81 -30 -156 -30q-155 0 -178 145q-134 -145 -307 -145q-115 0 -181.5 69.5t-66.5 214.5v527h-135v172h356v-652q0 -66 21.5 -98.5t74.5 -32.5q94 0 217 107v504h-135v172h357v-738q0 -59 53 -59q35 0 80 18v-174zM801 1427l-150 -276h-223l121 276h252z" />
    <glyph glyph-name="ucircumflex" unicode="&#xfb;" horiz-adv-x="1085" 
d="M1055 10q-81 -30 -156 -30q-155 0 -178 145q-134 -145 -307 -145q-115 0 -181.5 69.5t-66.5 214.5v527h-135v172h356v-652q0 -66 21.5 -98.5t74.5 -32.5q94 0 217 107v504h-135v172h357v-738q0 -59 53 -59q35 0 80 18v-174zM877 1151h-250l-84 141l-88 -141h-246l184 276
h299z" />
    <glyph glyph-name="udieresis" unicode="&#xfc;" horiz-adv-x="1085" 
d="M1055 10q-81 -30 -156 -30q-155 0 -178 145q-134 -145 -307 -145q-115 0 -181.5 69.5t-66.5 214.5v527h-135v172h356v-652q0 -66 21.5 -98.5t74.5 -32.5q94 0 217 107v504h-135v172h357v-738q0 -59 53 -59q35 0 80 18v-174zM463 1174h-211v210h211v-210zM829 1174h-211
v210h211v-210z" />
    <glyph glyph-name="yacute" unicode="&#xfd;" horiz-adv-x="1015" 
d="M985 791h-104l-234 -713q-31 -95 -58.5 -159.5t-70.5 -131t-95 -108t-128.5 -71t-175.5 -38.5l-29 168q227 40 295 244l23 67l-269 742h-108v172h448v-172h-104l147 -453l178 625h285v-172zM797 1427l-150 -276h-223l121 276h252z" />
    <glyph glyph-name="thorn" unicode="&#xfe;" horiz-adv-x="1075" 
d="M983 496q0 -516 -362 -516q-134 0 -234 77v-295h201v-172h-557v172h135v1493h-135v172h356v-542q29 27 55 45.5t78 35.5t115 17q71 0 131.5 -26t110.5 -81t78 -152t28 -228zM752 498q0 74 -10.5 128t-27 85t-41.5 49.5t-49 24.5t-55 6q-86 0 -182 -86v-467
q102 -66 193 -66q30 0 53.5 7t46.5 28.5t38 56.5t24.5 94.5t9.5 139.5z" />
    <glyph glyph-name="ydieresis" unicode="&#xff;" horiz-adv-x="1015" 
d="M985 791h-104l-234 -713q-31 -95 -58.5 -159.5t-70.5 -131t-95 -108t-128.5 -71t-175.5 -38.5l-29 168q227 40 295 244l23 67l-269 742h-108v172h448v-172h-104l147 -453l178 625h285v-172zM428 1174h-211v210h211v-210zM795 1174h-211v210h211v-210z" />
    <glyph glyph-name="dotlessi" unicode="&#x131;" horiz-adv-x="550" 
d="M520 10q-81 -30 -155 -30q-95 0 -147 53.5t-52 159.5v598h-135v172h356v-738q0 -59 53 -59q35 0 80 18v-174z" />
    <glyph glyph-name="Lslash" unicode="&#x141;" horiz-adv-x="909" 
d="M868 0h-837v172h135v420l-105 -41v180l105 41v422h-135v172h540v-172h-174v-332l297 115v-180l-297 -115v-481h299v176h172v-377z" />
    <glyph glyph-name="lslash" unicode="&#x142;" horiz-adv-x="550" 
d="M520 10q-81 -30 -155 -30q-95 0 -147 53.5t-52 159.5v401l-105 -41v180l105 41v481h-135v172h356v-569l105 41v-180l-105 -41v-453q0 -59 53 -59q35 0 80 18v-174z" />
    <glyph glyph-name="OE" unicode="&#x152;" horiz-adv-x="1595" 
d="M1524 0h-668q-22 0 -91 -10t-116 -10q-126 0 -228 43.5t-176.5 129.5t-115.5 220.5t-41 308.5q0 343 153.5 523.5t407.5 180.5q47 0 115 -10t90 -10h670v-367h-172v175h-344v-383h387v-191h-387v-407h344v184h172v-377zM776 193v985q-52 24 -127 24q-141 0 -230 -131.5
t-89 -388.5q0 -256 88 -384t231 -128q77 0 127 23z" />
    <glyph glyph-name="oe" unicode="&#x153;" horiz-adv-x="1615" 
d="M1528 395h-557q7 -107 59.5 -167t136.5 -60q117 0 267 96l77 -151q-77 -63 -157.5 -98t-194.5 -35q-213 0 -313 149q-109 -149 -318 -149q-96 0 -174.5 29.5t-138.5 89t-93.5 157t-33.5 225.5q0 129 33 226.5t93 157t138.5 89t175.5 29.5q117 0 191 -39t131 -113
q48 72 116 112t173 40q197 0 293 -143.5t96 -444.5zM737 481q0 167 -56.5 242.5t-152.5 75.5t-152.5 -75t-56.5 -243q0 -164 56.5 -239.5t152.5 -75.5q209 0 209 315zM1292 547q0 121 -37 193.5t-116 72.5q-82 0 -121 -65t-47 -201h321z" />
    <glyph glyph-name="Scaron" unicode="&#x160;" horiz-adv-x="997" 
d="M926 362q0 -195 -117 -288.5t-320 -93.5q-119 0 -210.5 20.5t-196.5 62.5v314h170v-158q127 -45 229 -45q94 0 148.5 43.5t54.5 138.5q0 48 -14.5 84t-45.5 62t-58.5 41t-73.5 35l-97 40q-51 21 -86 38.5t-82 51.5t-75.5 72t-49 96.5t-20.5 129.5q0 186 120.5 283
t315.5 97q96 0 181.5 -13.5t122 -24.5t91.5 -31v-318h-170v160q-108 35 -219 35q-91 0 -145.5 -41.5t-54.5 -124.5q0 -42 14 -74.5t44 -56.5t57.5 -39.5t72.5 -34.5l94 -41q38 -16 64.5 -29t62.5 -34.5t61 -43.5t51.5 -54.5t43 -69t27 -85t10.5 -104.5zM844 1642l-185 -215
h-299l-184 215h266l68 -79l63 79h271z" />
    <glyph glyph-name="scaron" unicode="&#x161;" horiz-adv-x="813" 
d="M752 276q0 -157 -91 -226.5t-245 -69.5q-180 0 -342 67v293h172v-154q74 -24 151 -24q127 0 127 102q0 49 -32 75.5t-93 41.5l-88 22q-46 12 -82 29t-74.5 47.5t-60.5 83t-22 121.5q0 82 29 142.5t79 93.5t108 48t126 15q164 0 315 -55v-285h-172v143q-94 15 -135 15
q-55 0 -88 -23t-33 -71q0 -46 28 -67.5t87 -37.5l90 -24q50 -14 89.5 -34t77 -54t58.5 -88.5t21 -125.5zM748 1427l-185 -276h-299l-184 276h246l88 -141l84 141h250z" />
    <glyph glyph-name="Ydieresis" unicode="&#x178;" horiz-adv-x="1099" 
d="M1069 1194h-113l-299 -690v-332h177v-172h-582v172h174v332l-281 690h-114v172h469v-172h-109l158 -426l164 426h-107v172h463v-172zM471 1427h-211v211h211v-211zM838 1427h-211v211h211v-211z" />
    <glyph glyph-name="Zcaron" unicode="&#x17d;" horiz-adv-x="1026" 
d="M979 1366l-582 -1173h373v163h170v-356h-893l582 1174h-373v-154h-172v346h895zM848 1642l-184 -215h-299l-185 215h266l68 -79l64 79h270z" />
    <glyph glyph-name="zcaron" unicode="&#x17e;" horiz-adv-x="894" 
d="M838 963l-418 -770h235v165h170v-358h-774l416 770h-217v-147h-172v340h760zM782 1427l-184 -276h-299l-184 276h245l89 -141l83 141h250z" />
    <glyph glyph-name="florin" unicode="&#x192;" horiz-adv-x="688" 
d="M668 993h-162v142q-20 4 -47 4q-72 0 -72 -109v-190h184v-172h-184v-611q0 -111 -20 -193.5t-61.5 -139t-95.5 -92.5t-130 -62l-74 147q39 27 64.5 52t49 65t35 97.5t11.5 136.5v600h-123v172h123v200q0 147 73 216t201 69q105 0 228 -49v-283z" />
    <glyph glyph-name="circumflex" unicode="&#x2c6;" horiz-adv-x="749" 
d="M709 1151h-250l-84 141l-88 -141h-246l184 276h299z" />
    <glyph glyph-name="caron" unicode="&#x2c7;" horiz-adv-x="749" 
d="M709 1427l-185 -276h-299l-184 276h246l88 -141l84 141h250z" />
    <glyph glyph-name="breve" unicode="&#x2d8;" horiz-adv-x="630" 
d="M590 1405q0 -275 -275 -275q-274 0 -274 275h176q2 -24 6 -41t13.5 -35t29.5 -27.5t49 -9.5q57 0 77 31t22 82h176z" />
    <glyph glyph-name="dotaccent" unicode="&#x2d9;" horiz-adv-x="333" 
d="M272 1174h-211v210h211v-210z" />
    <glyph glyph-name="ring" unicode="&#x2da;" horiz-adv-x="579" 
d="M539 1331q0 -107 -64.5 -167t-183.5 -60q-118 0 -184 60.5t-66 166.5t65.5 164.5t184.5 58.5q117 0 182.5 -59.5t65.5 -163.5zM362 1331q0 101 -71 101q-76 0 -76 -103q0 -100 76 -100q71 0 71 102z" />
    <glyph glyph-name="ogonek" unicode="&#x2db;" horiz-adv-x="518" 
d="M477 -332q-90 -55 -201 -55q-109 0 -172 50.5t-63 156.5q0 78 43 138.5t106 92.5l156 -20q-35 -32 -64.5 -79t-29.5 -85q0 -82 70 -82q48 0 116 35z" />
    <glyph glyph-name="tilde" unicode="&#x2dc;" horiz-adv-x="667" 
d="M627 1327q-24 -71 -70 -121.5t-113 -50.5q-53 0 -113 24.5t-89 24.5q-65 0 -107 -49l-94 78q24 70 73.5 121t118.5 51q60 0 117.5 -24.5t85.5 -24.5q55 0 96 47z" />
    <glyph glyph-name="hungarumlaut" unicode="&#x2dd;" horiz-adv-x="831" 
d="M791 1427l-152 -256h-244l142 256h254zM434 1427l-151 -256h-242l141 256h252z" />
    <glyph glyph-name="Delta" unicode="&#x394;" horiz-adv-x="1245" 
d="M1176 0h-1110v59l497 1231l96 25l517 -1256v-59zM913 106l-368 918l-359 -918h727z" />
    <glyph glyph-name="Omega" unicode="&#x3a9;" horiz-adv-x="1411" 
d="M1346 299l-50 -299h-475l-16 39l43.5 87t52 105t48 107.5t45 122.5t28 121t12.5 129q0 144 -26.5 251t-74 168t-105 90t-126.5 29q-325 0 -325 -538q0 -85 14 -162.5t48.5 -166t66.5 -155.5t94 -186l-16 -41h-473l-48 299l58 2q30 -87 59 -113t92 -26h189
q-50 40 -85 70.5t-85 87t-81 111t-54 132.5t-23 162q0 265 163.5 427.5t412.5 162.5q252 0 409.5 -156t157.5 -420q0 -76 -22 -149.5t-52 -128t-81.5 -115.5t-88.5 -96.5t-94 -87.5h207q60 0 86.5 24.5t56.5 114.5z" />
    <glyph glyph-name="mu" unicode="&#x3bc;" horiz-adv-x="1085" 
d="M1055 10q-81 -30 -156 -30q-155 0 -178 145q-55 -60 -128 -101.5t-140 -41.5q-16 0 -66 4v-224h201v-172h-557v172h135v1029h-135v172h356v-652q0 -66 21.5 -98.5t74.5 -32.5q94 0 217 107v504h-135v172h357v-738q0 -59 53 -59q35 0 80 18v-174z" />
    <glyph glyph-name="pi" unicode="&#x3c0;" horiz-adv-x="1110" 
d="M1006 901l53 -16q-9 -57 -30.5 -115.5t-41.5 -83.5q-37 -12 -127 -12q-8 -84 -8 -283q0 -58 0.5 -91t3 -70t8 -55.5t14 -35.5t22 -23.5t32.5 -6.5q26 0 45.5 11t44.5 36l25 -47q-36 -61 -96.5 -97.5t-119.5 -36.5q-87 0 -136.5 56.5t-49.5 195.5q0 181 19 453
q-56 0 -146 1t-125 1v-25q0 -152 -14.5 -276.5t-37 -198.5t-40.5 -114t-33 -58q-75 -29 -125 -35l-14 39q94 124 137 313t43 359q-86 0 -134 -17.5t-112 -62.5l-28 53q55 71 96 107.5t97.5 57t136.5 20.5q69 0 250 -3t276 -3q46 0 70 12.5t45 50.5z" />
    <glyph glyph-name="uni2000" unicode="&#x2000;" horiz-adv-x="1024" 
 />
    <glyph glyph-name="uni2001" unicode="&#x2001;" horiz-adv-x="2048" 
 />
    <glyph glyph-name="uni2002" unicode="&#x2002;" horiz-adv-x="1024" 
 />
    <glyph glyph-name="uni2003" unicode="&#x2003;" horiz-adv-x="2048" 
 />
    <glyph glyph-name="uni2004" unicode="&#x2004;" horiz-adv-x="681" 
 />
    <glyph glyph-name="uni2005" unicode="&#x2005;" horiz-adv-x="512" 
 />
    <glyph glyph-name="uni2006" unicode="&#x2006;" horiz-adv-x="339" 
 />
    <glyph glyph-name="uni2007" unicode="&#x2007;" horiz-adv-x="1079" 
 />
    <glyph glyph-name="uni2008" unicode="&#x2008;" horiz-adv-x="514" 
 />
    <glyph glyph-name="uni2009" unicode="&#x2009;" horiz-adv-x="409" 
 />
    <glyph glyph-name="uni200A" unicode="&#x200a;" horiz-adv-x="169" 
 />
    <glyph glyph-name="uni200B" unicode="&#x200b;" horiz-adv-x="0" 
 />
    <glyph glyph-name="endash" unicode="&#x2013;" horiz-adv-x="759" 
d="M698 487h-637v193h637v-193z" />
    <glyph glyph-name="emdash" unicode="&#x2014;" horiz-adv-x="964" 
d="M903 487h-842v193h842v-193z" />
    <glyph glyph-name="quoteleft" unicode="&#x2018;" horiz-adv-x="514" 
d="M381 868h-248v228l68 290l161 -26l-47 -244h66v-248z" />
    <glyph glyph-name="quoteright" unicode="&#x2019;" horiz-adv-x="514" 
d="M381 1139l-66 -291l-161 24l45 246h-66v248h248v-227z" />
    <glyph glyph-name="quotesinglbase" unicode="&#x201a;" horiz-adv-x="514" 
d="M381 20l-66 -290l-161 26l45 244h-66v248h248v-228z" />
    <glyph glyph-name="quotedblleft" unicode="&#x201c;" horiz-adv-x="917" 
d="M381 868h-248v228l68 290l161 -26l-47 -244h66v-248zM784 868h-247v228l67 290l160 -26l-45 -244h65v-248z" />
    <glyph glyph-name="quotedblright" unicode="&#x201d;" horiz-adv-x="917" 
d="M381 1139l-66 -291l-161 24l45 246h-66v248h248v-227zM784 1139l-67 -291l-160 24l45 246h-65v248h247v-227z" />
    <glyph glyph-name="quotedblbase" unicode="&#x201e;" horiz-adv-x="917" 
d="M381 20l-66 -290l-161 26l45 244h-66v248h248v-228zM784 20l-67 -290l-160 26l45 244h-65v248h247v-228z" />
    <glyph glyph-name="dagger" unicode="&#x2020;" horiz-adv-x="962" 
d="M911 762h-311v-762h-242v762h-307v201h307v403h242v-403h311v-201z" />
    <glyph glyph-name="daggerdbl" unicode="&#x2021;" horiz-adv-x="962" 
d="M911 332h-311v-332h-242v332h-307v203h307v296h-307v203h307v332h242v-332h311v-203h-311v-296h311v-203z" />
    <glyph glyph-name="bullet" unicode="&#x2022;" horiz-adv-x="602" 
d="M469 526h-336v336h336v-336z" />
    <glyph glyph-name="ellipsis" unicode="&#x2026;" horiz-adv-x="1429" 
d="M1296 0h-247v248h247v-248zM381 0h-248v248h248v-248zM840 0h-248v248h248v-248z" />
    <glyph glyph-name="perthousand" unicode="&#x2030;" horiz-adv-x="2387" 
d="M1606 350q0 -185 -89 -277.5t-233 -92.5t-233.5 92.5t-89.5 277.5q0 184 89.5 276.5t233.5 92.5t233 -92t89 -277zM2320 350q0 -185 -89 -277.5t-232 -92.5q-144 0 -233 92.5t-89 277.5t89 277t233 92t232.5 -92t88.5 -277zM711 954q0 -184 -89 -276t-233 -92
t-232.5 91.5t-88.5 276.5t89 278t232 93t232.5 -93t89.5 -278zM1229 1280l-576 -1305l-211 50l576 1304zM2089 350q0 116 -20.5 163.5t-69.5 47.5t-69.5 -47.5t-20.5 -163.5t20.5 -163.5t69.5 -47.5t69.5 47.5t20.5 163.5zM479 954q0 116 -20.5 164.5t-69.5 48.5
t-69.5 -48.5t-20.5 -164.5q0 -115 20 -162t70 -47t70 47t20 162zM1372 350q0 116 -19.5 163.5t-68.5 47.5t-69.5 -47.5t-20.5 -163.5t20.5 -163.5t69.5 -47.5t68.5 47.5t19.5 163.5z" />
    <glyph glyph-name="guilsinglleft" unicode="&#x2039;" horiz-adv-x="583" 
d="M522 242l-160 -97l-301 418l301 418l160 -96l-215 -322z" />
    <glyph glyph-name="guilsinglright" unicode="&#x203a;" horiz-adv-x="583" 
d="M522 563l-301 -418l-160 97l215 321l-215 322l160 96z" />
    <glyph glyph-name="fraction" unicode="&#x2044;" horiz-adv-x="645" 
d="M49 6l363 1380l184 -32l-365 -1381z" />
    <glyph glyph-name="Euro" unicode="&#x20ac;" horiz-adv-x="1165" 
d="M1094 68q-51 -24 -89 -39t-122 -32t-174 -17q-64 0 -122.5 12t-120 43t-110 80t-88 129t-59.5 184h-148v160h132q-3 30 -3 63q0 39 3 74h-132v162h156q28 111 82 197t124.5 137.5t150 77.5t163.5 26q184 0 357 -78v-268h-170v121q-93 30 -183 30q-102 0 -176 -62
t-112 -181h438v-162h-465q-4 -46 -4 -74q0 -23 4 -63h465v-160h-447q26 -123 98.5 -187.5t182.5 -64.5q85 0 199 41v129h170v-278z" />
    <glyph glyph-name="afii61289" unicode="&#x2113;" horiz-adv-x="827" 
d="M752 254l43 -39q-126 -231 -344 -231q-73 0 -121.5 14.5t-85.5 53t-53.5 108.5t-16.5 178v133l-113 -76l-26 54l137 102v252q0 213 21 312t81 173q82 107 197 107q92 0 141.5 -73.5t49.5 -184.5q0 -154 -71 -280.5t-214 -264.5v-158q0 -179 38.5 -251t125.5 -72
q115 0 211 143zM377 909v-217q75 88 119.5 202t44.5 239q0 89 -20.5 142.5t-61.5 53.5q-49 0 -65.5 -87.5t-16.5 -332.5z" />
    <glyph glyph-name="uni2117" unicode="&#x2117;" horiz-adv-x="1601" 
d="M1513 684q0 -142 -36.5 -261t-102 -203.5t-155 -143.5t-195 -87t-223.5 -28q-148 0 -276 45.5t-226 133t-154.5 227.5t-56.5 317q0 175 56.5 314.5t154.5 227t226 133.5t276 46t275.5 -45.5t226 -133t154.5 -227t56 -315.5zM1272 684q0 254 -130.5 391t-340.5 137
t-340.5 -137t-130.5 -391t130.5 -392t340.5 -138q214 0 342.5 137t128.5 393zM1120 825q0 -72 -25 -125t-68 -81t-93 -41t-109 -13h-47v-309h-180v821h227q58 0 107.5 -12t93.5 -39.5t69 -78.5t25 -122zM934 823q0 62 -27.5 86.5t-85.5 24.5h-43v-225h41q57 0 86 24t29 90z
" />
    <glyph glyph-name="trademark" unicode="&#x2122;" horiz-adv-x="1699" 
d="M1608 590h-209v405l-150 -405h-145l-146 403v-403h-213v776h256l177 -453l174 453h256v-776zM662 1180h-205v-590h-213v590h-203v186h621v-186z" />
    <glyph glyph-name="uni2126" unicode="&#x2126;" horiz-adv-x="1411" 
d="M1346 299l-50 -299h-475l-16 39l43.5 87t52 105t48 107.5t45 122.5t28 121t12.5 129q0 144 -26.5 251t-74 168t-105 90t-126.5 29q-325 0 -325 -538q0 -85 14 -162.5t48.5 -166t66.5 -155.5t94 -186l-16 -41h-473l-48 299l58 2q30 -87 59 -113t92 -26h189
q-50 40 -85 70.5t-85 87t-81 111t-54 132.5t-23 162q0 265 163.5 427.5t412.5 162.5q252 0 409.5 -156t157.5 -420q0 -76 -22 -149.5t-52 -128t-81.5 -115.5t-88.5 -96.5t-94 -87.5h207q60 0 86.5 24.5t56.5 114.5z" />
    <glyph glyph-name="estimated" unicode="&#x212e;" horiz-adv-x="1619" 
d="M1554 633h-1208q-10 0 -10 -8v-367q0 -22 16 -41q90 -93 208.5 -146t248.5 -53q142 0 266 59.5t215 164.5h109q-101 -120 -257 -190t-335 -70q-202 0 -373 89t-271 243.5t-100 336.5t100 337t271 245t373 90q157 0 296.5 -55t238 -148t155.5 -220t57 -267zM1280 680v369
q0 27 -16 43q-197 190 -455 190q-129 0 -247 -52.5t-208 -144.5q-18 -18 -18 -45v-360q0 -12 10 -12h928q6 0 6 12z" />
    <glyph glyph-name="arrowleft" unicode="&#x2190;" horiz-adv-x="1464" 
d="M1362 606h-934l244 -442h-201l-369 545l367 544h201l-242 -442h934v-205z" />
    <glyph glyph-name="arrowup" unicode="&#x2191;" horiz-adv-x="1464" 
d="M1276 772l-442 242v-934h-205v934l-441 -244v201l543 368l545 -366v-201z" />
    <glyph glyph-name="arrowright" unicode="&#x2192;" horiz-adv-x="1464" 
d="M1362 709l-369 -545h-200l243 442h-934v205h934l-241 442h200z" />
    <glyph glyph-name="arrowdown" unicode="&#x2193;" horiz-adv-x="1464" 
d="M1276 446l-545 -366l-543 369v200l441 -243v933h205v-933l442 241v-201z" />
    <glyph glyph-name="uni2196" unicode="&#x2196;" horiz-adv-x="1464" 
d="M1276 336l-146 -146l-659 662l-141 -485l-142 143l125 645l643 125l142 -143l-484 -142z" />
    <glyph glyph-name="uni2197" unicode="&#x2197;" horiz-adv-x="1464" 
d="M1276 510l-143 -143l-140 485l-661 -662l-144 146l660 659l-481 142l141 143l643 -125z" />
    <glyph glyph-name="uni2198" unicode="&#x2198;" horiz-adv-x="1464" 
d="M1276 961l-125 -646l-643 -125l-141 144l481 141l-660 660l144 145l661 -662l140 486z" />
    <glyph glyph-name="uni2199" unicode="&#x2199;" horiz-adv-x="1464" 
d="M1276 1135l-662 -660l484 -141l-142 -144l-643 125l-125 646l142 143l141 -486l659 662z" />
    <glyph glyph-name="partialdiff" unicode="&#x2202;" horiz-adv-x="1044" 
d="M512 819q69 0 136.5 -31t109.5 -90q20 165 20 230q0 55 -6.5 107t-25 110.5t-48.5 101t-81 71t-117 28.5q-126 0 -275 -121q-22 0 -47.5 41.5t-25.5 81.5q0 39 94.5 69.5t187.5 30.5q90 0 168 -33t133 -89.5t97.5 -127.5t67.5 -152t37.5 -158.5t12.5 -150.5
q0 -107 -18 -211.5t-58 -203.5t-97.5 -174t-144 -120.5t-190.5 -45.5q-164 0 -263 102t-99 278q0 102 35 188.5t94 145t137.5 91t165.5 32.5zM563 733q-87 0 -150.5 -66.5t-93.5 -172.5t-30 -236q0 -95 40.5 -153t116.5 -58q61 0 112 50t86 137t58 178.5t39 199.5
q-21 44 -69.5 82.5t-108.5 38.5z" />
    <glyph glyph-name="uni2206" unicode="&#x2206;" horiz-adv-x="1245" 
d="M1176 0h-1110v59l497 1231l96 25l517 -1256v-59zM913 106l-368 918l-359 -918h727z" />
    <glyph glyph-name="product" unicode="&#x220f;" horiz-adv-x="1355" 
d="M1303 1307v-58q-67 -5 -98.5 -10.5t-51.5 -24.5t-23.5 -43.5t-3.5 -78.5v-1020q0 -59 3.5 -86.5t23 -48t50.5 -27t95 -12.5v-58h-538v58q40 3 61.5 6t41.5 11t27.5 17t14 30t7.5 43.5t1 64.5v1097q0 43 -13 54.5t-58 11.5h-336q-42 0 -53 -10t-11 -49v-1104v-47t2 -36
t5 -29t10.5 -20.5t16.5 -16t24.5 -9.5t34 -8.5t45.5 -5.5v-58h-525v58q63 6 93.5 12.5t50.5 26.5t24 48t4 85v1022q0 54 -3.5 79t-24 43.5t-52.5 24t-100 10.5v58h1256z" />
    <glyph glyph-name="summation" unicode="&#x2211;" horiz-adv-x="1081" 
d="M1036 219l-88 -389h-897v55l424 619l-414 745v58h887l25 -324l-60 -14q-26 126 -69 198q-23 41 -61.5 55.5t-139.5 14.5h-321l333 -592l-426 -637h471q48 0 74 1.5t54.5 10t43 21t34 40.5t34 62t37.5 93z" />
    <glyph glyph-name="minus" unicode="&#x2212;" horiz-adv-x="657" 
d="M596 508h-535v203h535v-203z" />
    <glyph glyph-name="uni2219" unicode="&#x2219;" horiz-adv-x="520" 
d="M387 567h-254v254h254v-254z" />
    <glyph glyph-name="radical" unicode="&#x221a;" horiz-adv-x="1069" 
d="M1044 1649l-329 -1944l-49 -22l-412 1024l-166 -78l-25 71l332 152l297 -778h4l262 1593z" />
    <glyph glyph-name="infinity" unicode="&#x221e;" horiz-adv-x="1441" 
d="M1352 537q0 -144 -88.5 -232t-208.5 -88q-84 0 -164 48t-170 163q-82 -102 -160.5 -156.5t-181.5 -54.5q-119 0 -205 88t-86 221q0 137 87 225.5t218 88.5q98 0 177.5 -53t158.5 -154q33 38 51.5 58.5t54.5 53.5t66 50.5t72.5 31t87.5 13.5q125 0 208 -83.5t83 -219.5z
M393 340q39 0 74.5 14.5t72.5 47t56 53.5t57 65q-33 44 -46.5 61.5t-44 51t-52.5 47.5t-55 26.5t-68 12.5q-78 0 -125 -55t-47 -140q0 -76 51 -130t127 -54zM1053 719q-24 0 -47 -6t-45.5 -20t-39 -25.5t-38.5 -34t-32 -34t-31.5 -36.5t-26.5 -31q89 -109 144 -150.5
t122 -41.5q73 0 118.5 58.5t45.5 127.5q0 86 -47.5 139.5t-122.5 53.5z" />
    <glyph glyph-name="uni2224" unicode="&#x2224;" horiz-adv-x="520" 
d="M387 567h-254v254h254v-254z" />
    <glyph glyph-name="logicaland" unicode="&#x2227;" horiz-adv-x="520" 
d="M387 567h-254v254h254v-254z" />
    <glyph glyph-name="integral" unicode="&#x222b;" horiz-adv-x="749" 
d="M309 0q-43 848 -43 907q0 158 20 279t51.5 193t75 117.5t86 62t89.5 16.5q48 0 90.5 -26.5t42.5 -73.5q0 -48 -30 -74.5t-70 -26.5q-24 0 -40.5 16.5t-23.5 37t-18 37t-25 16.5q-63 0 -63 -209q0 -55 2 -88q39 -801 39 -867q0 -156 -18 -278.5t-48.5 -201t-73.5 -130
t-89.5 -73t-100.5 -21.5q-55 0 -93 30t-38 72q0 46 35 77.5t81 31.5q20 0 34.5 -18.5t21.5 -40t18.5 -40t24.5 -18.5q65 0 65 217q0 49 -2 76z" />
    <glyph glyph-name="approxequal" unicode="&#x2248;" horiz-adv-x="1097" 
d="M182 309l-121 119q122 193 304 193q63 0 120.5 -18.5t92.5 -40t76 -40t75 -18.5q95 0 182 125l125 -119q-121 -197 -303 -197q-62 0 -132 30.5t-131.5 60.5t-104.5 30q-94 0 -183 -125zM182 680l-121 119q124 192 304 192q63 0 120 -18.5t92 -40t76 -40t76 -18.5
q95 0 182 125l125 -118q-119 -197 -303 -197q-49 0 -104.5 19t-95.5 41.5t-86.5 41.5t-81.5 19q-92 0 -183 -125z" />
    <glyph glyph-name="notequal" unicode="&#x2260;" horiz-adv-x="935" 
d="M213 197l78 188h-197v193h277l59 143h-336v192h414l80 191h168l-80 -191h166v-192h-244l-59 -143h303v-193h-383l-78 -188h-168z" />
    <glyph glyph-name="lessequal" unicode="&#x2264;" horiz-adv-x="933" 
d="M94 0v176h729v-176h-729zM840 467l-80 -184l-664 333v181l664 370l80 -178l-521 -278z" />
    <glyph glyph-name="greaterequal" unicode="&#x2265;" horiz-adv-x="933" 
d="M94 0v176h729v-176h-729zM96 983l80 184l664 -333v-181l-664 -370l-80 178l520 278z" />
    <glyph glyph-name="dotmath" unicode="&#x22c5;" horiz-adv-x="520" 
d="M387 567h-254v254h254v-254z" />
    <glyph glyph-name="filledbox" unicode="&#x25a0;" horiz-adv-x="1775" 
d="M1571 0h-1366v1366h1366v-1366z" />
    <glyph glyph-name="H22073" unicode="&#x25a1;" horiz-adv-x="1775" 
d="M1571 0h-1366v1366h1366v-1366zM1386 174v1018h-997v-1018h997z" />
    <glyph glyph-name="uni25B6" unicode="&#x25b6;" horiz-adv-x="991" 
d="M889 709l-684 -476v947z" />
    <glyph glyph-name="uni25C0" unicode="&#x25c0;" horiz-adv-x="991" 
d="M786 233l-684 476l684 471v-947z" />
    <glyph glyph-name="lozenge" unicode="&#x25ca;" horiz-adv-x="1087" 
d="M995 627l-374 -762h-158l-373 762l377 766h156zM846 627l-299 626h-6l-301 -626l301 -627h6z" />
    <glyph glyph-name="H18533" unicode="&#x25cf;" horiz-adv-x="1775" 
d="M1571 684q0 -148 -49.5 -275t-138 -217t-216 -141t-278.5 -51q-202 0 -358 88t-241 243.5t-85 352.5q0 302 191 492t493 190q198 0 353.5 -86.5t242 -242t86.5 -353.5z" />
    <glyph glyph-name="uni25EF" unicode="&#x25ef;" horiz-adv-x="1775" 
d="M1571 684q0 -148 -49.5 -275t-138 -217t-216 -141t-278.5 -51q-202 0 -358 88t-241 243.5t-85 352.5q0 302 191 492t493 190q198 0 353.5 -86.5t242 -242t86.5 -353.5zM1386 684q0 230 -140.5 379t-356.5 149q-217 0 -358.5 -148t-141.5 -380q0 -228 141.5 -379
t358.5 -151t357 150t140 380z" />
    <glyph glyph-name="uni2009.latn_FRA" horiz-adv-x="256" 
 />
    <glyph glyph-name="numbersign.tf" 
d="M1065 356h-160v-356h-233v356h-197v-356h-233v356h-160v201h160v252h-160v201h160v356h233v-356h197v356h233v-356h160v-201h-160v-252h160v-201zM672 557v252h-197v-252h197z" />
    <glyph glyph-name="dollar.tf" 
d="M981 352q0 -321 -311 -366v-224h-195v222q-144 8 -309 75v318h172v-162q126 -41 211 -41q93 0 142.5 38t49.5 126q0 79 -39.5 123.5t-115.5 77.5l-137 59q-56 24 -98 49t-87.5 66.5t-70.5 103t-25 137.5q0 155 86 247t231 116v225h193v-223q142 -11 291 -66v-315h-172
v162q-126 35 -201 35q-83 0 -134.5 -39.5t-51.5 -116.5q0 -37 11 -65.5t35.5 -49.5t46.5 -33.5t60 -29.5l137 -62q59 -26 104.5 -56.5t88 -76t65.5 -110t23 -144.5z" />
    <glyph glyph-name="zero.tf" 
d="M1024 653q0 -673 -451 -673q-452 0 -452 673q0 672 452 672q103 0 184 -37t141.5 -115t93 -209.5t32.5 -310.5zM782 653q0 257 -50 372.5t-159 115.5q-108 0 -159.5 -117.5t-51.5 -370.5q0 -256 51 -371.5t160 -115.5q108 0 158.5 115t50.5 372z" />
    <glyph glyph-name="one.tf" 
d="M975 0h-733v172h254v877l-277 -70l-14 143l393 183h131v-1133h246v-172z" />
    <glyph glyph-name="two.tf" 
d="M985 0h-790q0 116 18.5 207.5t55 159t75 113.5t94.5 95l121 105q40 36 60.5 56t47 55t37.5 74.5t11 88.5q0 89 -50 135t-137 46q-85 0 -174 -29v-131h-172v268q57 23 94.5 36.5t116.5 29.5t156 16q189 0 298 -90t109 -279q0 -61 -14 -116.5t-33.5 -95t-53 -80.5
t-58.5 -65t-64 -58l-115 -99q-72 -63 -114 -118.5t-51 -130.5h360v153h172v-346z" />
    <glyph glyph-name="three.tf" 
d="M975 365q0 -85 -24 -152t-64 -110t-95.5 -71.5t-114 -40t-124.5 -11.5q-184 0 -340 63v303h172v-164q83 -20 156 -20q87 0 138.5 51t51.5 164q0 63 -18 107t-51 68t-73.5 34t-92.5 10h-146v180h146q95 0 155 48.5t60 144.5q0 85 -42.5 128.5t-119.5 43.5q-22 0 -43 -2
t-41 -6t-31.5 -7t-28.5 -8t-20 -6v-137h-172v278q95 36 173.5 54t180.5 18q81 0 147.5 -16.5t122 -52t86.5 -100t31 -152.5q0 -59 -15 -107.5t-36 -80t-53 -57t-57 -38.5t-56 -25q238 -72 238 -331z" />
    <glyph glyph-name="four.tf" 
d="M1049 248h-144v-248h-233v248h-574v190l553 867h254v-867h144v-190zM672 438v586l-375 -586h375z" />
    <glyph glyph-name="five.tf" 
d="M958 975h-172v137h-319l-14 -328q63 39 145 39q51 0 97 -11t93 -40t81 -75t55.5 -122t21.5 -174q0 -116 -34 -200.5t-94 -131.5t-132 -68t-160 -21q-154 0 -325 63v303h172v-164q63 -20 139 -20q190 0 190 239q0 240 -159 240q-97 0 -187 -94l-139 28l21 730h720v-330z
" />
    <glyph glyph-name="six.tf" 
d="M1008 406q0 -110 -32.5 -193t-91.5 -133.5t-135.5 -75t-170.5 -24.5q-437 0 -437 591q0 372 133.5 563t362.5 191q153 0 287 -57v-293h-172v155q-59 13 -117 13q-97 0 -166 -105t-78 -288q107 92 256 92q70 0 131.5 -22.5t114.5 -71t84 -136t31 -206.5zM766 408
q0 134 -44.5 192.5t-131.5 58.5q-99 0 -207 -84v-40q0 -373 197 -373q93 0 139.5 58.5t46.5 187.5z" />
    <glyph glyph-name="seven.tf" 
d="M1004 1112l-390 -1112h-243l403 1112h-461v-137h-172v330h863v-193z" />
    <glyph glyph-name="eight.tf" 
d="M1018 352q0 -187 -108.5 -279.5t-331.5 -92.5q-216 0 -331.5 93t-115.5 275q0 70 21.5 128t58 96.5t74 63.5t80.5 42q-42 22 -72.5 45.5t-62 60.5t-48 90.5t-16.5 120.5q0 158 111.5 244t304.5 86q186 0 294.5 -85t108.5 -239q0 -66 -18 -118.5t-51 -87.5t-66 -56.5
t-76 -40.5q244 -97 244 -346zM776 350q0 41 -14 74.5t-32 55t-56 44.5t-62 34t-75 32q-164 -89 -164 -236q0 -90 56.5 -140t150.5 -50q92 0 144 45.5t52 140.5zM741 993q0 150 -163 150q-80 0 -125 -39t-45 -111q0 -74 48 -117.5t146 -87.5q63 36 101 83t38 122z" />
    <glyph glyph-name="nine.tf" 
d="M1010 657q0 -355 -108.5 -516t-344.5 -161q-150 0 -301 51v315h172v-166q51 -14 115 -14q221 0 221 399v19q-104 -88 -248 -88q-77 0 -143.5 22t-120 67.5t-84.5 123.5t-31 180q0 207 115.5 321.5t312.5 114.5q228 0 336.5 -165t108.5 -503zM768 764q0 188 -52.5 283.5
t-152.5 95.5q-91 0 -137.5 -63.5t-46.5 -178.5q0 -113 44.5 -168t123.5 -55q109 0 221 86z" />
    <glyph glyph-name="cent.tf" 
d="M942 61q-114 -61 -223 -75v-224h-195v228q-51 10 -95 30.5t-86 58.5t-71.5 90t-47 129.5t-17.5 172.5q0 115 25.5 205t71 148t100 93.5t120.5 51.5v231h195v-221q52 -6 100.5 -20.5t69 -24t53.5 -27.5v-284h-172v155q-3 1 -18 5.5t-25 6.5t-30.5 4.5t-43.5 2.5
q-87 0 -150 -78.5t-63 -241.5q0 -164 56 -236.5t141 -72.5q24 0 48.5 4t37 8t29.5 10.5t18 6.5v161h172v-297z" />
    <glyph glyph-name="sterling.tf" 
d="M971 0h-795v170q70 85 106.5 191.5t36.5 265.5h-143v172h143v139q0 192 101 289.5t264 97.5q159 0 287 -61v-285h-172v147q-54 13 -107 13q-72 0 -111.5 -51.5t-39.5 -147.5v-141h309v-172h-309q0 -167 -28.5 -268t-92.5 -177h379v170h172v-352z" />
    <glyph glyph-name="yen.tf" 
d="M1094 1133h-113l-203 -426h238v-164h-314l-18 -113h332v-164h-334v-94h176v-172h-582v172h175v94h-332v164h330l-17 113h-313v164h241l-190 426h-115v172h469v-172h-108l157 -365l160 365h-102v172h463v-172z" />
    <glyph glyph-name="florin.tf" 
d="M965 993h-162v142q-20 4 -47 4q-72 0 -72 -109v-190h246v-172h-246v-611q0 -111 -20 -193.5t-61.5 -139t-95.5 -92.5t-130 -62l-74 147q39 27 64.5 52t49 65t35 97.5t11.5 136.5v600h-184v172h184v200q0 147 73 216t201 69q107 0 228 -49v-283z" />
    <glyph glyph-name="uni2007.tf" 
 />
    <glyph glyph-name="Euro.tf" 
d="M1094 68q-51 -24 -89 -39t-122 -32t-174 -17q-64 0 -122.5 12t-120 43t-110 80t-88 129t-59.5 184h-137v160h121q0 10 -1.5 31.5t-1.5 31.5q0 39 3 74h-121v162h145q28 111 82 197t124.5 137.5t150 77.5t163.5 26q108 0 188.5 -19.5t168.5 -58.5v-268h-170v121
q-93 30 -183 30q-102 0 -176 -62t-112 -181h438v-162h-465q-4 -46 -4 -74q0 -10 2 -31.5t2 -31.5h465v-160h-447q26 -123 98.5 -187.5t182.5 -64.5q85 0 199 41v129h170v-278z" />
    <glyph glyph-name="parenleft.case" horiz-adv-x="573" 
d="M553 -72l-150 -61q-315 374 -315 848q0 476 315 850l150 -64q-213 -410 -213 -786q0 -377 213 -787z" />
    <glyph glyph-name="parenright.case" horiz-adv-x="573" 
d="M485 715q0 -474 -315 -848l-150 61q213 410 213 787q0 376 -213 786l150 64q315 -374 315 -850z" />
    <glyph glyph-name="hyphen.case" horiz-adv-x="544" 
d="M483 618h-422v197h422v-197z" />
    <glyph glyph-name="bracketleft.case" horiz-adv-x="612" 
d="M592 -133h-447v1698h447v-162h-215v-1374h215v-162z" />
    <glyph glyph-name="bracketright.case" horiz-adv-x="612" 
d="M467 -133h-447v162h216v1374h-216v162h447v-1698z" />
    <glyph glyph-name="braceleft.case" horiz-adv-x="563" 
d="M543 -133q-98 0 -168.5 15.5t-125 52.5t-81.5 104.5t-27 165.5v211q0 105 -26 159.5t-95 75.5v129q69 21 95 75t26 159v213q0 98 27 165.5t81.5 104.5t124.5 52.5t169 15.5v-144q-170 -3 -170 -211v-186q0 -102 -21 -165.5t-55.5 -94t-93.5 -49.5q43 -15 71 -33t52.5 -51
t35.5 -88t11 -135v-189q0 -208 170 -211v-141z" />
    <glyph glyph-name="braceright.case" horiz-adv-x="561" 
d="M541 651q-69 -21 -95 -75.5t-26 -159.5v-211q0 -98 -27 -165.5t-81 -104.5t-124 -52.5t-168 -15.5v141q168 3 168 211v189q0 80 11 135t35.5 88t52.5 51t71 33q-59 19 -93.5 49.5t-55.5 94t-21 165.5v186q0 208 -168 211v144q99 0 169 -15.5t124 -52.5t80.5 -104
t26.5 -166v-213q0 -105 26 -159t95 -75v-129z" />
    <glyph glyph-name="guillemotleft.case" horiz-adv-x="995" 
d="M934 395l-160 -96l-301 418l301 418l160 -97l-215 -321zM522 395l-160 -96l-301 418l301 418l160 -97l-215 -321z" />
    <glyph glyph-name="uni00AD.case" horiz-adv-x="544" 
d="M483 618h-422v197h422v-197z" />
    <glyph glyph-name="guillemotright.case" horiz-adv-x="995" 
d="M934 717l-301 -418l-160 96l215 322l-215 321l160 97zM522 717l-301 -418l-160 96l215 322l-215 321l160 97z" />
    <glyph glyph-name="endash.case" horiz-adv-x="759" 
d="M698 621h-637v192h637v-192z" />
    <glyph glyph-name="emdash.case" horiz-adv-x="964" 
d="M903 621h-842v192h842v-192z" />
    <glyph glyph-name="guilsinglleft.case" horiz-adv-x="583" 
d="M522 395l-160 -96l-301 418l301 418l160 -97l-215 -321z" />
    <glyph glyph-name="guilsinglright.case" horiz-adv-x="583" 
d="M522 717l-301 -418l-160 96l215 322l-215 321l160 97z" />
    <glyph glyph-name="registered.ss01" horiz-adv-x="978" 
d="M918 954q0 -106 -34 -190t-93.5 -136.5t-136 -80t-165.5 -27.5t-165.5 27.5t-135.5 80t-93 136.5t-34 190q0 105 34 189t93 136t135.5 79.5t165.5 27.5t165.5 -27.5t136 -79.5t93.5 -136t34 -189zM762 954q0 149 -75.5 228.5t-197.5 79.5t-197 -79.5t-75 -228.5t75 -229
t197 -80q107 0 179 60h-84l-115 190h-18v-186h-107v493h135q76 0 127 -35t51 -116q0 -101 -84 -138l119 -184q70 79 70 225zM545 1049q0 35 -17 50t-51 15h-26v-135h24q34 0 52 15t18 55z" />
    <glyph glyph-name="arrowleft.ss01" horiz-adv-x="1267" 
d="M1165 606h-741l207 -381h-201l-328 484l326 483h201l-205 -381h741v-205z" />
    <glyph glyph-name="arrowright.ss01" horiz-adv-x="1267" 
d="M1165 709l-327 -484h-201l207 381h-742v205h742l-205 381h201z" />
    <glyph glyph-name="arrowleft.ss02" horiz-adv-x="1474" 
d="M1372 606h-694v-289l-576 392l576 387v-285h694v-205z" />
    <glyph glyph-name="arrowright.ss02" horiz-adv-x="1474" 
d="M1372 709l-575 -392v289h-695v205h695v285z" />
    <glyph glyph-name="orn001" horiz-adv-x="1775" 
d="M1571 684q0 -148 -49.5 -275t-138 -217t-216 -141t-278.5 -51q-202 0 -358 88t-241 243.5t-85 352.5q0 302 191 492t493 190q198 0 353.5 -86.5t242 -242t86.5 -353.5zM1386 684q0 220 -131 367l-733 -736q145 -161 367 -161q217 0 357 150t140 380z" />
    <glyph glyph-name="orn002" horiz-adv-x="1775" 
d="M1571 684q0 -148 -49.5 -275t-138 -217t-216 -141t-278.5 -51q-202 0 -358 88t-241 243.5t-85 352.5q0 302 191 492t493 190q198 0 353.5 -86.5t242 -242t86.5 -353.5zM1386 684q0 230 -140.5 379t-356.5 149q-217 0 -358.5 -148t-141.5 -380q0 -176 92 -315l393 393
l-319 88l117 115l436 -84l82 -439l-115 -116l-86 321l-395 -397q129 -96 295 -96q217 0 357 150t140 380z" />
    <glyph glyph-name="orn003" horiz-adv-x="1775" 
d="M1571 684q0 -148 -49.5 -275t-138 -217t-216 -141t-278.5 -51q-202 0 -358 88t-241 243.5t-85 352.5q0 302 191 492t493 190q198 0 353.5 -86.5t242 -242t86.5 -353.5zM1386 684q0 230 -140.5 379t-356.5 149q-194 0 -331 -122t-163 -320h342v274l520 -356l-520 -360v278
h-344q25 -199 162 -325.5t334 -126.5q217 0 357 150t140 380z" />
    <glyph glyph-name="orn004" horiz-adv-x="1892" 
d="M1729 684q0 -225 -143 -367.5t-365 -142.5q-150 0 -275 72q-125 -72 -272 -72q-223 0 -366.5 142.5t-143.5 367.5t144 366.5t366 141.5q147 0 272 -72q125 72 275 72q222 0 365 -141.5t143 -366.5zM1565 684q0 158 -96.5 261.5t-247.5 103.5q-153 0 -250 -103t-97 -262
t96.5 -263t250.5 -104q152 0 248 104.5t96 262.5zM823 350q-112 134 -112 334q0 198 112 332q-74 33 -149 33q-153 0 -249.5 -103t-96.5 -262t96 -263t250 -104q75 0 149 33z" />
    <glyph glyph-name="orn005" horiz-adv-x="1775" 
d="M1571 0h-1366v1366h1366v-1366zM1386 174v1018h-997v-236h772v-782h225zM977 174v608h-588v-608h588z" />
    <glyph glyph-name="orn006" horiz-adv-x="1775" 
d="M1571 0h-1366v1366h1366v-1366zM1386 174v1018h-997v-401h328v274l520 -356l-520 -361v279h-328v-453h997z" />
    <glyph glyph-name="orn007" horiz-adv-x="1775" 
d="M1571 0h-1366v1366h1366v-1366zM1386 379v608h-997v-608h997z" />
    <glyph glyph-name="orn008" horiz-adv-x="1775" 
d="M1571 684q0 -148 -49.5 -275t-138 -217t-216 -141t-278.5 -51q-202 0 -358 88t-241 243.5t-85 352.5q0 302 191 492t493 190q198 0 353.5 -86.5t242 -242t86.5 -353.5zM1386 682q0 109 -35.5 206t-99 169t-158 113.5t-206.5 41.5v-528h-498q0 -228 141.5 -379t358.5 -151
v528h497z" />
    <glyph glyph-name="orn009" horiz-adv-x="1775" 
d="M1571 684q0 -148 -49.5 -275t-138 -217t-216 -141t-278.5 -51q-202 0 -358 88t-241 243.5t-85 352.5q0 302 191 492t493 190q198 0 353.5 -86.5t242 -242t86.5 -353.5zM1386 684q0 230 -140.5 379t-356.5 149v-530h-500q0 -226 142 -377t358 -151q217 0 357 150t140 380z
" />
    <glyph glyph-name="orn010" horiz-adv-x="1775" 
d="M1571 684q0 -148 -49.5 -275t-138 -217t-216 -141t-278.5 -51q-202 0 -358 88t-241 243.5t-85 352.5q0 302 191 492t493 190q198 0 353.5 -86.5t242 -242t86.5 -353.5zM1386 684q0 208 -116.5 351t-302.5 171v-432h247v-164h-247v-250h-164v250h-248v164h248v432
q-184 -30 -299 -172.5t-115 -349.5q0 -228 141.5 -379t358.5 -151t357 150t140 380z" />
    <glyph glyph-name="orn011" horiz-adv-x="1775" 
d="M1571 684q0 -148 -49.5 -275t-138 -217t-216 -141t-278.5 -51q-202 0 -358 88t-241 243.5t-85 352.5q0 302 191 492t493 190q198 0 353.5 -86.5t242 -242t86.5 -353.5zM1386 684q0 230 -140.5 379t-356.5 149q-217 0 -358.5 -148t-141.5 -380q0 -228 141.5 -379
t358.5 -151t357 150t140 380zM1243 459l-123 -121l-231 231l-230 -229l-116 115l231 231l-231 229l121 123l231 -231l229 229l115 -116l-229 -228z" />
    <glyph glyph-name="orn012" horiz-adv-x="1775" 
d="M1571 684q0 -148 -49.5 -275t-138 -217t-216 -141t-278.5 -51q-202 0 -358 88t-241 243.5t-85 352.5q0 279 165 464.5t433 213.5v215h164v-215q270 -26 437 -212t167 -466zM1386 684q0 208 -116.5 351t-302.5 171v-538h-164v538q-184 -30 -299 -172.5t-115 -349.5
q0 -228 141.5 -379t358.5 -151t357 150t140 380z" />
    <glyph glyph-name="orn013" horiz-adv-x="1892" 
d="M1729 684q0 -225 -143 -367.5t-365 -142.5q-150 0 -275 72q-125 -72 -272 -72q-223 0 -366.5 142.5t-143.5 367.5t144 366.5t366 141.5q147 0 272 -72q125 72 275 72q222 0 365 -141.5t143 -366.5zM823 350q-112 134 -112 334q0 198 112 332q-74 33 -149 33
q-153 0 -249.5 -103t-96.5 -262t96 -263t250 -104q75 0 149 33z" />
    <glyph glyph-name="orn014" horiz-adv-x="1775" 
d="M1571 0h-1366v1366h1366v-1366zM1386 174v1018h-997v-1018h997zM1233 453l-123 -121l-231 231l-230 -229l-117 115l232 231l-232 229l121 123l232 -231l229 229l115 -117l-230 -227z" />
    <glyph glyph-name="orn015" horiz-adv-x="1509" 
d="M1305 0h-1100v1475h710l390 -390v-1085zM1161 133v911h-307v297h-506v-1208h813zM1004 606h-390q6 -103 45.5 -157t102.5 -54q50 0 92 16.5t94 49.5l45 -80q-55 -43 -108 -64.5t-121 -21.5q-58 0 -106.5 18t-88.5 57t-63 108.5t-23 164.5q0 170 75.5 261t191.5 91
q254 0 254 -389zM872 692q0 95 -30.5 152t-91.5 57q-124 0 -136 -209h258z" />
    <glyph glyph-name="orn016" horiz-adv-x="1509" 
d="M1305 0h-1100v1475h710l390 -390v-1085zM1161 133v911h-307v297h-506v-1208h813zM1018 553h-588v133h588v-133zM1018 799h-588v133h588v-133zM813 307h-383v133h383v-133z" />
    <glyph glyph-name="orn017" horiz-adv-x="1878" 
d="M1673 0h-1468v629h184v846h711l389 -390v-456h184v-629zM1346 629v415h-308v297h-506v-712h814zM1489 174v281h-1100v-281h1100zM1202 758h-588v133h588v-133zM956 1004h-342v133h342v-133z" />
    <glyph glyph-name="orn018" horiz-adv-x="1775" 
d="M1571 0h-1366v1366h1366v-1366zM1386 174v1018h-997v-1018h997zM1264 629h-752v133h752v-133zM1264 874h-752v134h752v-134zM1059 383h-547v133h547v-133z" />
    </font>
</defs>
</svg>
